  0
SECTION
  2
HEADER
  9
$ACADVER
  1
AC1009
  9
$FILLMODE
 70
 0
  9
$SPLFRAME
 70
 1
  9
$EXTMIN
 10
0
 20
0
 30
0.0
  9
$EXTMAX
 10
41.6667
 20
41.6667
 30
0.0
  0
ENDSEC
  0
SECTION
  2
TABLES
  0
TABLE
  2
LAYER
 70
1
  0
LAYER
  2
0
 70
     0
 62
     7
  6
CONTINUOUS
  0
ENDTAB
  0
ENDSEC
  0
SECTION
  2
ENTITIES
  0
LINE
  8
0
 62
     0
 10
0.233453
 20
0.05523
 30
0.0
 11
0.234375
 21
0.0624457
 31
0.0
  0
LINE
  8
0
 62
     0
 10
0.234375
 20
0.0624457
 30
0.0
 11
0.2398
 21
0.0836046
 31
0.0
  0
LINE
  8
0
 62
     0
 10
0.2398
 20
0.0836046
 30
0.0
 11
0.251844
 21
0.120009
 31
0.0
  0
LINE
  8
0
 62
     0
 10
0.251844
 20
0.120009
 30
0.0
 11
0.268175
 21
0.160807
 31
0.0
  0
LINE
  8
0
 62
     0
 10
0.268175
 20
0.160807
 30
0.0
 11
0.282389
 21
0.192003
 31
0.0
  0
LINE
  8
0
 62
     0
 10
0.282389
 20
0.192003
 30
0.0
 11
0.287543
 21
0.202203
 31
0.0
  0
LINE
  8
0
 62
     0
 10
0.287543
 20
0.202203
 30
0.0
 11
0.292156
 21
0.211481
 31
0.0
  0
LINE
  8
0
 62
     0
 10
0.292156
 20
0.211481
 30
0.0
 11
0.305393
 21
0.239583
 31
0.0
  0
LINE
  8
0
 62
     0
 10
0.305393
 20
0.239583
 30
0.0
 11
0.319336
 21
0.272081
 31
0.0
  0
LINE
  8
0
 62
     0
 10
0.319336
 20
0.272081
 30
0.0
 11
0.327908
 21
0.296224
 31
0.0
  0
LINE
  8
0
 62
     0
 10
0.327908
 20
0.296224
 30
0.0
 11
0.330404
 21
0.306749
 31
0.0
  0
LINE
  8
0
 62
     0
 10
0.330404
 20
0.306749
 30
0.0
 11
0.329753
 21
0.308431
 31
0.0
  0
LINE
  8
0
 62
     0
 10
0.329753
 20
0.308431
 30
0.0
 11
0.328939
 21
0.310439
 31
0.0
  0
LINE
  8
0
 62
     0
 10
0.328939
 20
0.310439
 30
0.0
 11
0.317817
 21
0.314779
 31
0.0
  0
LINE
  8
0
 62
     0
 10
0.317817
 20
0.314779
 30
0.0
 11
0.287543
 21
0.321451
 31
0.0
  0
LINE
  8
0
 62
     0
 10
0.287543
 20
0.321451
 30
0.0
 11
0.240235
 21
0.328396
 31
0.0
  0
LINE
  8
0
 62
     0
 10
0.240235
 20
0.328396
 30
0.0
 11
0.192817
 21
0.333713
 31
0.0
  0
LINE
  8
0
 62
     0
 10
0.192817
 20
0.333713
 30
0.0
 11
0.177029
 21
0.335232
 31
0.0
  0
LINE
  8
0
 62
     0
 10
0.177029
 20
0.335232
 30
0.0
 11
0.161621
 21
0.336751
 31
0.0
  0
LINE
  8
0
 62
     0
 10
0.161621
 20
0.336751
 30
0.0
 11
0.115506
 21
0.3412
 31
0.0
  0
LINE
  8
0
 62
     0
 10
0.115506
 20
0.3412
 30
0.0
 11
0.0699328
 21
0.347331
 31
0.0
  0
LINE
  8
0
 62
     0
 10
0.0699328
 20
0.347331
 30
0.0
 11
0.0379775
 21
0.356174
 31
0.0
  0
LINE
  8
0
 62
     0
 10
0.0379775
 20
0.356174
 30
0.0
 11
0.0173068
 21
0.370389
 31
0.0
  0
LINE
  8
0
 62
     0
 10
0.0173068
 20
0.370389
 30
0.0
 11
0.00564236
 21
0.392469
 31
0.0
  0
LINE
  8
0
 62
     0
 10
0.00564236
 20
0.392469
 30
0.0
 11
0.000705296
 21
0.425131
 31
0.0
  0
LINE
  8
0
 62
     0
 10
0.000705296
 20
0.425131
 30
0.0
 11
0.000162761
 21
0.470865
 31
0.0
  0
LINE
  8
0
 62
     0
 10
0.000162761
 20
0.470865
 30
0.0
 11
0.00130208
 21
0.516982
 31
0.0
  0
LINE
  8
0
 62
     0
 10
0.00130208
 20
0.516982
 30
0.0
 11
0.00168186
 21
0.532335
 31
0.0
  0
LINE
  8
0
 62
     0
 10
0.00168186
 20
0.532335
 30
0.0
 11
0.00211589
 21
0.550456
 31
0.0
  0
LINE
  8
0
 62
     0
 10
0.00211589
 20
0.550456
 30
0.0
 11
0.00412326
 21
0.604656
 31
0.0
  0
LINE
  8
0
 62
     0
 10
0.00412326
 20
0.604656
 30
0.0
 11
0.00802951
 21
0.648438
 31
0.0
  0
LINE
  8
0
 62
     0
 10
0.00802951
 20
0.648438
 30
0.0
 11
0.0148112
 21
0.673014
 31
0.0
  0
LINE
  8
0
 62
     0
 10
0.0148112
 20
0.673014
 30
0.0
 11
0.0226237
 21
0.684733
 31
0.0
  0
LINE
  8
0
 62
     0
 10
0.0226237
 20
0.684733
 30
0.0
 11
0.0259332
 21
0.687825
 31
0.0
  0
LINE
  8
0
 62
     0
 10
0.0259332
 20
0.687825
 30
0.0
 11
0.0298936
 21
0.691624
 31
0.0
  0
LINE
  8
0
 62
     0
 10
0.0298936
 20
0.691624
 30
0.0
 11
0.0458442
 21
0.698839
 31
0.0
  0
LINE
  8
0
 62
     0
 10
0.0458442
 20
0.698839
 30
0.0
 11
0.0866428
 21
0.709364
 31
0.0
  0
LINE
  8
0
 62
     0
 10
0.0866428
 20
0.709364
 30
0.0
 11
0.156901
 21
0.721246
 31
0.0
  0
LINE
  8
0
 62
     0
 10
0.156901
 20
0.721246
 30
0.0
 11
0.238336
 21
0.732693
 31
0.0
  0
LINE
  8
0
 62
     0
 10
0.238336
 20
0.732693
 30
0.0
 11
0.265517
 21
0.736219
 31
0.0
  0
LINE
  8
0
 62
     0
 10
0.265517
 20
0.736219
 30
0.0
 11
0.287001
 21
0.73904
 31
0.0
  0
LINE
  8
0
 62
     0
 10
0.287001
 20
0.73904
 30
0.0
 11
0.351454
 21
0.747667
 31
0.0
  0
LINE
  8
0
 62
     0
 10
0.351454
 20
0.747667
 30
0.0
 11
0.423828
 21
0.757542
 31
0.0
  0
LINE
  8
0
 62
     0
 10
0.423828
 20
0.757542
 30
0.0
 11
0.474935
 21
0.764865
 31
0.0
  0
LINE
  8
0
 62
     0
 10
0.474935
 20
0.764865
 30
0.0
 11
0.495497
 21
0.768013
 31
0.0
  0
LINE
  8
0
 62
     0
 10
0.495497
 20
0.768013
 30
0.0
 11
0.497287
 21
0.7685
 31
0.0
  0
LINE
  8
0
 62
     0
 10
0.497287
 20
0.7685
 30
0.0
 11
0.499349
 21
0.769097
 31
0.0
  0
LINE
  8
0
 62
     0
 10
0.499349
 20
0.769097
 30
0.0
 11
0.50331
 21
0.779081
 31
0.0
  0
LINE
  8
0
 62
     0
 10
0.50331
 20
0.779081
 30
0.0
 11
0.50765
 21
0.803819
 31
0.0
  0
LINE
  8
0
 62
     0
 10
0.50765
 20
0.803819
 30
0.0
 11
0.510254
 21
0.838053
 31
0.0
  0
LINE
  8
0
 62
     0
 10
0.510254
 20
0.838053
 30
0.0
 11
0.511122
 21
0.876953
 31
0.0
  0
LINE
  8
0
 62
     0
 10
0.511122
 20
0.876953
 30
0.0
 11
0.510254
 21
0.915853
 31
0.0
  0
LINE
  8
0
 62
     0
 10
0.510254
 20
0.915853
 30
0.0
 11
0.50765
 21
0.950032
 31
0.0
  0
LINE
  8
0
 62
     0
 10
0.50765
 20
0.950032
 30
0.0
 11
0.50331
 21
0.974718
 31
0.0
  0
LINE
  8
0
 62
     0
 10
0.50331
 20
0.974718
 30
0.0
 11
0.499349
 21
0.9847
 31
0.0
  0
LINE
  8
0
 62
     0
 10
0.499349
 20
0.9847
 30
0.0
 11
0.497287
 21
0.985243
 31
0.0
  0
LINE
  8
0
 62
     0
 10
0.497287
 20
0.985243
 30
0.0
 11
0.48801
 21
0.987793
 31
0.0
  0
LINE
  8
0
 62
     0
 10
0.48801
 20
0.987793
 30
0.0
 11
0.459961
 21
0.994629
 31
0.0
  0
LINE
  8
0
 62
     0
 10
0.459961
 20
0.994629
 30
0.0
 11
0.40191
 21
1.00836
 31
0.0
  0
LINE
  8
0
 62
     0
 10
0.40191
 20
1.00836
 30
0.0
 11
0.330783
 21
1.02468
 31
0.0
  0
LINE
  8
0
 62
     0
 10
0.330783
 20
1.02468
 30
0.0
 11
0.25434
 21
1.04194
 31
0.0
  0
LINE
  8
0
 62
     0
 10
0.25434
 20
1.04194
 30
0.0
 11
0.180339
 21
1.05838
 31
0.0
  0
LINE
  8
0
 62
     0
 10
0.180339
 20
1.05838
 30
0.0
 11
0.116428
 21
1.07221
 31
0.0
  0
LINE
  8
0
 62
     0
 10
0.116428
 20
1.07221
 30
0.0
 11
0.070421
 21
1.08181
 31
0.0
  0
LINE
  8
0
 62
     0
 10
0.070421
 20
1.08181
 30
0.0
 11
0.0533311
 21
1.08539
 31
0.0
  0
LINE
  8
0
 62
     0
 10
0.0533311
 20
1.08539
 30
0.0
 11
0.0499675
 21
1.08534
 31
0.0
  0
LINE
  8
0
 62
     0
 10
0.0499675
 20
1.08534
 30
0.0
 11
0.0428603
 21
1.08534
 31
0.0
  0
LINE
  8
0
 62
     0
 10
0.0428603
 20
1.08534
 30
0.0
 11
0.0215386
 21
1.09977
 31
0.0
  0
LINE
  8
0
 62
     0
 10
0.0215386
 20
1.09977
 30
0.0
 11
0.00477431
 21
1.13634
 31
0.0
  0
LINE
  8
0
 62
     0
 10
0.00477431
 20
1.13634
 30
0.0
 11
0.00200737
 21
1.1849
 31
0.0
  0
LINE
  8
0
 62
     0
 10
0.00200737
 20
1.1849
 30
0.0
 11
0.0101454
 21
1.22353
 31
0.0
  0
LINE
  8
0
 62
     0
 10
0.0101454
 20
1.22353
 30
0.0
 11
0.015625
 21
1.23503
 31
0.0
  0
LINE
  8
0
 62
     0
 10
0.015625
 20
1.23503
 30
0.0
 11
0.0179036
 21
1.23985
 31
0.0
  0
LINE
  8
0
 62
     0
 10
0.0179036
 20
1.23985
 30
0.0
 11
0.0269097
 21
1.2532
 31
0.0
  0
LINE
  8
0
 62
     0
 10
0.0269097
 20
1.2532
 30
0.0
 11
0.0444336
 21
1.26807
 31
0.0
  0
LINE
  8
0
 62
     0
 10
0.0444336
 20
1.26807
 30
0.0
 11
0.0728624
 21
1.28288
 31
0.0
  0
LINE
  8
0
 62
     0
 10
0.0728624
 20
1.28288
 30
0.0
 11
0.106011
 21
1.29644
 31
0.0
  0
LINE
  8
0
 62
     0
 10
0.106011
 20
1.29644
 30
0.0
 11
0.117188
 21
1.30062
 31
0.0
  0
LINE
  8
0
 62
     0
 10
0.117188
 20
1.30062
 30
0.0
 11
0.203017
 21
1.33301
 31
0.0
  0
LINE
  8
0
 62
     0
 10
0.203017
 20
1.33301
 30
0.0
 11
0.206164
 21
1.39757
 31
0.0
  0
LINE
  8
0
 62
     0
 10
0.206164
 20
1.39757
 30
0.0
 11
0.209256
 21
1.46208
 31
0.0
  0
LINE
  8
0
 62
     0
 10
0.209256
 20
1.46208
 30
0.0
 11
0.107205
 21
1.56597
 31
0.0
  0
LINE
  8
0
 62
     0
 10
0.107205
 20
1.56597
 30
0.0
 11
0.00509983
 21
1.66986
 31
0.0
  0
LINE
  8
0
 62
     0
 10
0.00509983
 20
1.66986
 30
0.0
 11
0.00211589
 21
2.00256
 31
0.0
  0
LINE
  8
0
 62
     0
 10
0.00211589
 20
2.00256
 30
0.0
 11
0.00173611
 21
2.04406
 31
0.0
  0
LINE
  8
0
 62
     0
 10
0.00173611
 20
2.04406
 30
0.0
 11
0.00113932
 21
2.16846
 31
0.0
  0
LINE
  8
0
 62
     0
 10
0.00113932
 20
2.16846
 30
0.0
 11
0.0023329
 21
2.27013
 31
0.0
  0
LINE
  8
0
 62
     0
 10
0.0023329
 20
2.27013
 30
0.0
 11
0.00607639
 21
2.32124
 31
0.0
  0
LINE
  8
0
 62
     0
 10
0.00607639
 20
2.32124
 30
0.0
 11
0.011122
 21
2.33524
 31
0.0
  0
LINE
  8
0
 62
     0
 10
0.011122
 20
2.33524
 30
0.0
 11
0.0128038
 21
2.33524
 31
0.0
  0
LINE
  8
0
 62
     0
 10
0.0128038
 20
2.33524
 30
0.0
 11
0.0154081
 21
2.33524
 31
0.0
  0
LINE
  8
0
 62
     0
 10
0.0154081
 20
2.33524
 30
0.0
 11
0.0233832
 21
2.34056
 31
0.0
  0
LINE
  8
0
 62
     0
 10
0.0233832
 20
2.34056
 30
0.0
 11
0.0420464
 21
2.35504
 31
0.0
  0
LINE
  8
0
 62
     0
 10
0.0420464
 20
2.35504
 30
0.0
 11
0.0661893
 21
2.37642
 31
0.0
  0
LINE
  8
0
 62
     0
 10
0.0661893
 20
2.37642
 30
0.0
 11
0.0865343
 21
2.39583
 31
0.0
  0
LINE
  8
0
 62
     0
 10
0.0865343
 20
2.39583
 30
0.0
 11
0.0931532
 21
2.40246
 31
0.0
  0
LINE
  8
0
 62
     0
 10
0.0931532
 20
2.40246
 30
0.0
 11
0.159831
 21
2.46972
 31
0.0
  0
LINE
  8
0
 62
     0
 10
0.159831
 20
2.46972
 30
0.0
 11
0.131944
 21
2.54075
 31
0.0
  0
LINE
  8
0
 62
     0
 10
0.131944
 20
2.54075
 30
0.0
 11
0.126356
 21
2.55501
 31
0.0
  0
LINE
  8
0
 62
     0
 10
0.126356
 20
2.55501
 30
0.0
 11
0.112684
 21
2.5989
 31
0.0
  0
LINE
  8
0
 62
     0
 10
0.112684
 20
2.5989
 30
0.0
 11
0.104546
 21
2.64556
 31
0.0
  0
LINE
  8
0
 62
     0
 10
0.104546
 20
2.64556
 30
0.0
 11
0.107693
 21
2.67796
 31
0.0
  0
LINE
  8
0
 62
     0
 10
0.107693
 20
2.67796
 30
0.0
 11
0.117893
 21
2.69211
 31
0.0
  0
LINE
  8
0
 62
     0
 10
0.117893
 20
2.69211
 30
0.0
 11
0.122287
 21
2.69336
 31
0.0
  0
LINE
  8
0
 62
     0
 10
0.122287
 20
2.69336
 30
0.0
 11
0.133518
 21
2.69667
 31
0.0
  0
LINE
  8
0
 62
     0
 10
0.133518
 20
2.69667
 30
0.0
 11
0.168728
 21
2.70182
 31
0.0
  0
LINE
  8
0
 62
     0
 10
0.168728
 20
2.70182
 30
0.0
 11
0.242242
 21
2.70915
 31
0.0
  0
LINE
  8
0
 62
     0
 10
0.242242
 20
2.70915
 30
0.0
 11
0.33355
 21
2.71517
 31
0.0
  0
LINE
  8
0
 62
     0
 10
0.33355
 20
2.71517
 30
0.0
 11
0.433594
 21
2.71951
 31
0.0
  0
LINE
  8
0
 62
     0
 10
0.433594
 20
2.71951
 30
0.0
 11
0.533094
 21
2.7219
 31
0.0
  0
LINE
  8
0
 62
     0
 10
0.533094
 20
2.7219
 30
0.0
 11
0.622939
 21
2.722
 31
0.0
  0
LINE
  8
0
 62
     0
 10
0.622939
 20
2.722
 30
0.0
 11
0.693901
 21
2.71951
 31
0.0
  0
LINE
  8
0
 62
     0
 10
0.693901
 20
2.71951
 30
0.0
 11
0.726508
 21
2.71685
 31
0.0
  0
LINE
  8
0
 62
     0
 10
0.726508
 20
2.71685
 30
0.0
 11
0.736871
 21
2.71408
 31
0.0
  0
LINE
  8
0
 62
     0
 10
0.736871
 20
2.71408
 30
0.0
 11
0.743001
 21
2.71246
 31
0.0
  0
LINE
  8
0
 62
     0
 10
0.743001
 20
2.71246
 30
0.0
 11
0.758137
 21
2.69515
 31
0.0
  0
LINE
  8
0
 62
     0
 10
0.758137
 20
2.69515
 30
0.0
 11
0.761176
 21
2.65582
 31
0.0
  0
LINE
  8
0
 62
     0
 10
0.761176
 20
2.65582
 30
0.0
 11
0.746203
 21
2.59776
 31
0.0
  0
LINE
  8
0
 62
     0
 10
0.746203
 20
2.59776
 30
0.0
 11
0.722601
 21
2.54101
 31
0.0
  0
LINE
  8
0
 62
     0
 10
0.722601
 20
2.54101
 30
0.0
 11
0.713433
 21
2.52274
 31
0.0
  0
LINE
  8
0
 62
     0
 10
0.713433
 20
2.52274
 30
0.0
 11
0.708768
 21
2.51346
 31
0.0
  0
LINE
  8
0
 62
     0
 10
0.708768
 20
2.51346
 30
0.0
 11
0.695204
 21
2.48529
 31
0.0
  0
LINE
  8
0
 62
     0
 10
0.695204
 20
2.48529
 30
0.0
 11
0.680285
 21
2.45221
 31
0.0
  0
LINE
  8
0
 62
     0
 10
0.680285
 20
2.45221
 30
0.0
 11
0.670247
 21
2.42708
 31
0.0
  0
LINE
  8
0
 62
     0
 10
0.670247
 20
2.42708
 30
0.0
 11
0.666558
 21
2.41699
 31
0.0
  0
LINE
  8
0
 62
     0
 10
0.666558
 20
2.41699
 30
0.0
 11
0.666558
 21
2.41357
 31
0.0
  0
LINE
  8
0
 62
     0
 10
0.666558
 20
2.41357
 30
0.0
 11
0.666558
 21
2.41054
 31
0.0
  0
LINE
  8
0
 62
     0
 10
0.666558
 20
2.41054
 30
0.0
 11
0.676486
 21
2.40126
 31
0.0
  0
LINE
  8
0
 62
     0
 10
0.676486
 20
2.40126
 30
0.0
 11
0.702692
 21
2.39746
 31
0.0
  0
LINE
  8
0
 62
     0
 10
0.702692
 20
2.39746
 30
0.0
 11
0.710829
 21
2.39735
 31
0.0
  0
LINE
  8
0
 62
     0
 10
0.710829
 20
2.39735
 30
0.0
 11
0.728678
 21
2.39725
 31
0.0
  0
LINE
  8
0
 62
     0
 10
0.728678
 20
2.39725
 30
0.0
 11
0.782389
 21
2.39274
 31
0.0
  0
LINE
  8
0
 62
     0
 10
0.782389
 20
2.39274
 30
0.0
 11
0.864908
 21
2.38211
 31
0.0
  0
LINE
  8
0
 62
     0
 10
0.864908
 20
2.38211
 30
0.0
 11
0.935872
 21
2.36897
 31
0.0
  0
LINE
  8
0
 62
     0
 10
0.935872
 20
2.36897
 30
0.0
 11
0.96875
 21
2.36029
 31
0.0
  0
LINE
  8
0
 62
     0
 10
0.96875
 20
2.36029
 30
0.0
 11
0.973036
 21
2.35678
 31
0.0
  0
LINE
  8
0
 62
     0
 10
0.973036
 20
2.35678
 30
0.0
 11
0.975857
 21
2.35444
 31
0.0
  0
LINE
  8
0
 62
     0
 10
0.975857
 20
2.35444
 30
0.0
 11
0.981338
 21
2.34375
 31
0.0
  0
LINE
  8
0
 62
     0
 10
0.981338
 20
2.34375
 30
0.0
 11
0.986328
 21
2.31651
 31
0.0
  0
LINE
  8
0
 62
     0
 10
0.986328
 20
2.31651
 30
0.0
 11
0.988769
 21
2.26742
 31
0.0
  0
LINE
  8
0
 62
     0
 10
0.988769
 20
2.26742
 30
0.0
 11
0.989475
 21
2.20844
 31
0.0
  0
LINE
  8
0
 62
     0
 10
0.989475
 20
2.20844
 30
0.0
 11
0.989475
 21
2.18875
 31
0.0
  0
LINE
  8
0
 62
     0
 10
0.989475
 20
2.18875
 30
0.0
 11
0.989475
 21
2.17079
 31
0.0
  0
LINE
  8
0
 62
     0
 10
0.989475
 20
2.17079
 30
0.0
 11
0.988769
 21
2.11692
 31
0.0
  0
LINE
  8
0
 62
     0
 10
0.988769
 20
2.11692
 30
0.0
 11
0.98649
 21
2.06765
 31
0.0
  0
LINE
  8
0
 62
     0
 10
0.98649
 20
2.06765
 30
0.0
 11
0.982476
 21
2.03836
 31
0.0
  0
LINE
  8
0
 62
     0
 10
0.982476
 20
2.03836
 30
0.0
 11
0.978788
 21
2.02767
 31
0.0
  0
LINE
  8
0
 62
     0
 10
0.978788
 20
2.02767
 30
0.0
 11
0.976454
 21
2.02615
 31
0.0
  0
LINE
  8
0
 62
     0
 10
0.976454
 20
2.02615
 30
0.0
 11
0.972657
 21
2.02382
 31
0.0
  0
LINE
  8
0
 62
     0
 10
0.972657
 20
2.02382
 30
0.0
 11
0.954644
 21
2.02018
 31
0.0
  0
LINE
  8
0
 62
     0
 10
0.954644
 20
2.02018
 30
0.0
 11
0.906142
 21
2.01036
 31
0.0
  0
LINE
  8
0
 62
     0
 10
0.906142
 20
2.01036
 30
0.0
 11
0.839464
 21
1.99804
 31
0.0
  0
LINE
  8
0
 62
     0
 10
0.839464
 20
1.99804
 30
0.0
 11
0.762967
 21
1.98469
 31
0.0
  0
LINE
  8
0
 62
     0
 10
0.762967
 20
1.98469
 30
0.0
 11
0.685112
 21
1.97185
 31
0.0
  0
LINE
  8
0
 62
     0
 10
0.685112
 20
1.97185
 30
0.0
 11
0.614421
 21
1.96083
 31
0.0
  0
LINE
  8
0
 62
     0
 10
0.614421
 20
1.96083
 30
0.0
 11
0.559353
 21
1.95313
 31
0.0
  0
LINE
  8
0
 62
     0
 10
0.559353
 20
1.95313
 30
0.0
 11
0.536025
 21
1.95019
 31
0.0
  0
LINE
  8
0
 62
     0
 10
0.536025
 20
1.95019
 30
0.0
 11
0.528267
 21
1.95008
 31
0.0
  0
LINE
  8
0
 62
     0
 10
0.528267
 20
1.95008
 30
0.0
 11
0.522515
 21
1.95008
 31
0.0
  0
LINE
  8
0
 62
     0
 10
0.522515
 20
1.95008
 30
0.0
 11
0.505262
 21
1.9439
 31
0.0
  0
LINE
  8
0
 62
     0
 10
0.505262
 20
1.9439
 30
0.0
 11
0.490018
 21
1.92421
 31
0.0
  0
LINE
  8
0
 62
     0
 10
0.490018
 20
1.92421
 30
0.0
 11
0.481608
 21
1.88878
 31
0.0
  0
LINE
  8
0
 62
     0
 10
0.481608
 20
1.88878
 30
0.0
 11
0.479058
 21
1.84864
 31
0.0
  0
LINE
  8
0
 62
     0
 10
0.479058
 20
1.84864
 30
0.0
 11
0.479058
 21
1.83524
 31
0.0
  0
LINE
  8
0
 62
     0
 10
0.479058
 20
1.83524
 30
0.0
 11
0.479058
 21
1.82237
 31
0.0
  0
LINE
  8
0
 62
     0
 10
0.479058
 20
1.82237
 30
0.0
 11
0.481608
 21
1.78369
 31
0.0
  0
LINE
  8
0
 62
     0
 10
0.481608
 20
1.78369
 30
0.0
 11
0.489583
 21
1.74804
 31
0.0
  0
LINE
  8
0
 62
     0
 10
0.489583
 20
1.74804
 30
0.0
 11
0.503256
 21
1.72738
 31
0.0
  0
LINE
  8
0
 62
     0
 10
0.503256
 20
1.72738
 30
0.0
 11
0.518121
 21
1.72076
 31
0.0
  0
LINE
  8
0
 62
     0
 10
0.518121
 20
1.72076
 30
0.0
 11
0.523058
 21
1.72076
 31
0.0
  0
LINE
  8
0
 62
     0
 10
0.523058
 20
1.72076
 30
0.0
 11
0.53125
 21
1.72081
 31
0.0
  0
LINE
  8
0
 62
     0
 10
0.53125
 20
1.72081
 30
0.0
 11
0.555881
 21
1.71707
 31
0.0
  0
LINE
  8
0
 62
     0
 10
0.555881
 20
1.71707
 30
0.0
 11
0.611654
 21
1.70708
 31
0.0
  0
LINE
  8
0
 62
     0
 10
0.611654
 20
1.70708
 30
0.0
 11
0.682183
 21
1.6926
 31
0.0
  0
LINE
  8
0
 62
     0
 10
0.682183
 20
1.6926
 30
0.0
 11
0.759332
 21
1.67557
 31
0.0
  0
LINE
  8
0
 62
     0
 10
0.759332
 20
1.67557
 30
0.0
 11
0.835015
 21
1.65776
 31
0.0
  0
LINE
  8
0
 62
     0
 10
0.835015
 20
1.65776
 30
0.0
 11
0.901042
 21
1.64106
 31
0.0
  0
LINE
  8
0
 62
     0
 10
0.901042
 20
1.64106
 30
0.0
 11
0.949274
 21
1.62733
 31
0.0
  0
LINE
  8
0
 62
     0
 10
0.949274
 20
1.62733
 30
0.0
 11
0.967393
 21
1.62218
 31
0.0
  0
LINE
  8
0
 62
     0
 10
0.967393
 20
1.62218
 30
0.0
 11
0.971679
 21
1.61843
 31
0.0
  0
LINE
  8
0
 62
     0
 10
0.971679
 20
1.61843
 30
0.0
 11
0.974283
 21
1.61615
 31
0.0
  0
LINE
  8
0
 62
     0
 10
0.974283
 20
1.61615
 30
0.0
 11
0.980794
 21
1.60742
 31
0.0
  0
LINE
  8
0
 62
     0
 10
0.980794
 20
1.60742
 30
0.0
 11
0.986057
 21
1.59185
 31
0.0
  0
LINE
  8
0
 62
     0
 10
0.986057
 20
1.59185
 30
0.0
 11
0.98801
 21
1.56842
 31
0.0
  0
LINE
  8
0
 62
     0
 10
0.98801
 20
1.56842
 30
0.0
 11
0.987685
 21
1.54243
 31
0.0
  0
LINE
  8
0
 62
     0
 10
0.987685
 20
1.54243
 30
0.0
 11
0.987304
 21
1.53375
 31
0.0
  0
LINE
  8
0
 62
     0
 10
0.987304
 20
1.53375
 30
0.0
 11
0.984267
 21
1.46544
 31
0.0
  0
LINE
  8
0
 62
     0
 10
0.984267
 20
1.46544
 30
0.0
 11
0.91135
 21
1.42671
 31
0.0
  0
LINE
  8
0
 62
     0
 10
0.91135
 20
1.42671
 30
0.0
 11
0.903917
 21
1.42279
 31
0.0
  0
LINE
  8
0
 62
     0
 10
0.903917
 20
1.42279
 30
0.0
 11
0.881239
 21
1.41168
 31
0.0
  0
LINE
  8
0
 62
     0
 10
0.881239
 20
1.41168
 30
0.0
 11
0.853299
 21
1.39931
 31
0.0
  0
LINE
  8
0
 62
     0
 10
0.853299
 20
1.39931
 30
0.0
 11
0.830567
 21
1.3909
 31
0.0
  0
LINE
  8
0
 62
     0
 10
0.830567
 20
1.3909
 30
0.0
 11
0.819282
 21
1.3877
 31
0.0
  0
LINE
  8
0
 62
     0
 10
0.819282
 20
1.3877
 30
0.0
 11
0.816243
 21
1.38764
 31
0.0
  0
LINE
  8
0
 62
     0
 10
0.816243
 20
1.38764
 30
0.0
 11
0.812283
 21
1.38764
 31
0.0
  0
LINE
  8
0
 62
     0
 10
0.812283
 20
1.38764
 30
0.0
 11
0.80051
 21
1.38276
 31
0.0
  0
LINE
  8
0
 62
     0
 10
0.80051
 20
1.38276
 30
0.0
 11
0.78966
 21
1.36806
 31
0.0
  0
LINE
  8
0
 62
     0
 10
0.78966
 20
1.36806
 30
0.0
 11
0.783421
 21
1.34256
 31
0.0
  0
LINE
  8
0
 62
     0
 10
0.783421
 20
1.34256
 30
0.0
 11
0.781304
 21
1.31478
 31
0.0
  0
LINE
  8
0
 62
     0
 10
0.781304
 20
1.31478
 30
0.0
 11
0.781304
 21
1.3055
 31
0.0
  0
LINE
  8
0
 62
     0
 10
0.781304
 20
1.3055
 30
0.0
 11
0.781304
 21
1.30279
 31
0.0
  0
LINE
  8
0
 62
     0
 10
0.781304
 20
1.30279
 30
0.0
 11
0.78201
 21
1.29454
 31
0.0
  0
LINE
  8
0
 62
     0
 10
0.78201
 20
1.29454
 30
0.0
 11
0.784776
 21
1.28364
 31
0.0
  0
LINE
  8
0
 62
     0
 10
0.784776
 20
1.28364
 30
0.0
 11
0.790365
 21
1.27176
 31
0.0
  0
LINE
  8
0
 62
     0
 10
0.790365
 20
1.27176
 30
0.0
 11
0.799425
 21
1.25792
 31
0.0
  0
LINE
  8
0
 62
     0
 10
0.799425
 20
1.25792
 30
0.0
 11
0.812717
 21
1.24121
 31
0.0
  0
LINE
  8
0
 62
     0
 10
0.812717
 20
1.24121
 30
0.0
 11
0.831
 21
1.22049
 31
0.0
  0
LINE
  8
0
 62
     0
 10
0.831
 20
1.22049
 30
0.0
 11
0.854926
 21
1.19488
 31
0.0
  0
LINE
  8
0
 62
     0
 10
0.854926
 20
1.19488
 30
0.0
 11
0.877658
 21
1.17122
 31
0.0
  0
LINE
  8
0
 62
     0
 10
0.877658
 20
1.17122
 30
0.0
 11
0.885308
 21
1.16336
 31
0.0
  0
LINE
  8
0
 62
     0
 10
0.885308
 20
1.16336
 30
0.0
 11
0.989475
 21
1.05615
 31
0.0
  0
LINE
  8
0
 62
     0
 10
0.989475
 20
1.05615
 30
0.0
 11
0.989475
 21
0.413846
 31
0.0
  0
LINE
  8
0
 62
     0
 10
0.989475
 20
0.413846
 30
0.0
 11
0.910428
 21
0.33431
 31
0.0
  0
LINE
  8
0
 62
     0
 10
0.910428
 20
0.33431
 30
0.0
 11
0.831435
 21
0.254829
 31
0.0
  0
LINE
  8
0
 62
     0
 10
0.831435
 20
0.254829
 30
0.0
 11
0.858344
 21
0.201606
 31
0.0
  0
LINE
  8
0
 62
     0
 10
0.858344
 20
0.201606
 30
0.0
 11
0.863282
 21
0.19184
 31
0.0
  0
LINE
  8
0
 62
     0
 10
0.863282
 20
0.19184
 30
0.0
 11
0.879286
 21
0.146701
 31
0.0
  0
LINE
  8
0
 62
     0
 10
0.879286
 20
0.146701
 30
0.0
 11
0.885308
 21
0.102105
 31
0.0
  0
LINE
  8
0
 62
     0
 10
0.885308
 20
0.102105
 30
0.0
 11
0.885308
 21
0.0872396
 31
0.0
  0
LINE
  8
0
 62
     0
 10
0.885308
 20
0.0872396
 30
0.0
 11
0.885308
 21
0.026096
 31
0.0
  0
LINE
  8
0
 62
     0
 10
0.885308
 20
0.026096
 30
0.0
 11
0.786947
 21
0.0139974
 31
0.0
  0
LINE
  8
0
 62
     0
 10
0.786947
 20
0.0139974
 30
0.0
 11
0.773383
 21
0.0123698
 31
0.0
  0
LINE
  8
0
 62
     0
 10
0.773383
 20
0.0123698
 30
0.0
 11
0.730524
 21
0.0093316
 31
0.0
  0
LINE
  8
0
 62
     0
 10
0.730524
 20
0.0093316
 30
0.0
 11
0.649576
 21
0.0054796
 31
0.0
  0
LINE
  8
0
 62
     0
 10
0.649576
 20
0.0054796
 30
0.0
 11
0.555012
 21
0.00287543
 31
0.0
  0
LINE
  8
0
 62
     0
 10
0.555012
 20
0.00287543
 30
0.0
 11
0.481879
 21
0.00189888
 31
0.0
  0
LINE
  8
0
 62
     0
 10
0.481879
 20
0.00189888
 30
0.0
 11
0.457519
 21
0.00189888
 31
0.0
  0
LINE
  8
0
 62
     0
 10
0.457519
 20
0.00189888
 30
0.0
 11
0.2264
 21
0.00189888
 31
0.0
  0
LINE
  8
0
 62
     0
 10
0.2264
 20
0.00189888
 30
0.0
 11
0.233453
 21
0.05523
 31
0.0
  0
ENDSEC
  0
EOF
