<?xml version="1.0" encoding="UTF-8" standalone="no"?>
<!-- Created with Inkscape (http://www.inkscape.org/) -->

<svg
   xmlns:dc="http://purl.org/dc/elements/1.1/"
   xmlns:cc="http://creativecommons.org/ns#"
   xmlns:rdf="http://www.w3.org/1999/02/22-rdf-syntax-ns#"
   xmlns:svg="http://www.w3.org/2000/svg"
   xmlns="http://www.w3.org/2000/svg"
   xmlns:sodipodi="http://sodipodi.sourceforge.net/DTD/sodipodi-0.dtd"
   xmlns:inkscape="http://www.inkscape.org/namespaces/inkscape"
   id="svg2"
   version="1.1"
   inkscape:version="0.91 r13725"
   width="94.990479"
   height="261.15033"
   viewBox="0 0 94.990479 261.15033">
  <metadata
     id="metadata8">
    <rdf:RDF>
      <cc:Work
         rdf:about="">
        <dc:format>image/svg+xml</dc:format>
        <dc:type
           rdf:resource="http://purl.org/dc/dcmitype/StillImage" />
        <dc:title></dc:title>
      </cc:Work>
    </rdf:RDF>
  </metadata>
  <defs
     id="defs6" />
  <sodipodi:namedview
     pagecolor="#ffffff"
     bordercolor="#666666"
     borderopacity="1"
     objecttolerance="10"
     gridtolerance="10"
     guidetolerance="10"
     inkscape:pageopacity="0"
     inkscape:pageshadow="2"
     inkscape:window-width="3742"
     inkscape:window-height="2124"
     id="namedview4"
     showgrid="false"
     fit-margin-top="0"
     fit-margin-left="0"
     fit-margin-right="0"
     fit-margin-bottom="0"
     inkscape:zoom="0.84285714"
     inkscape:cx="48.490481"
     inkscape:cy="131.18644"
     inkscape:window-x="98"
     inkscape:window-y="36"
     inkscape:window-maximized="1"
     inkscape:current-layer="svg2" />
  <path
     style="fill:#000000"
     d="m 22.412054,256.02998 c 0.3918,-2.95348 2.58976,-8.92442 5.19383,-14.10943 2.48302,-4.944 4.30605,-9.53254 4.05116,-10.19676 -0.29547,-0.76998 -5.60913,-1.70249 -14.66146,-2.57297 -17.9817399,-1.72915 -17.2915099,-0.95334 -16.8356199,-18.92291 0.29118,-11.47726 0.56854,-13.25333 2.33052,-14.92345 1.59213,-1.50913 6.28256,-2.45692 22.9999999,-4.6476 11.55,-1.51353 21.5625,-2.90754 22.25,-3.09781 1.77264,-0.49059 1.77264,-20.32959 0,-20.81086 -6.23589,-1.69305 -41.6355899,-9.61103 -42.9432999,-9.60529 -4.28237,0.0188 -6.18597,-8.28373 -3.29575,-14.37441 1.26422,-2.66414 2.85638,-3.69183 9.7499999,-6.29329 l 8.23905,-3.10918 0.30003,-6.197 0.30003,-6.197 -9.80003,-9.97347 -9.8000299,-9.97347 -0.28985,-31.937377 c -0.23522,-25.917571 -0.0413,-31.937373 1.02889,-31.937373 0.7253,0 4.19738,-2.904467 7.71573,-6.454371 l 6.3969999,-6.454371 -2.67589,-6.82039 C 9.5064641,9.3671377 9.1380141,3.5364377 11.740484,2.7691517 c 7.6562,-2.25728304 52.37328,-3.76442704 59,-1.98853604 3.9022,1.04575104 3.08023,7.75657604 -2.25,18.36971434 -2.475,4.92802 -4.5,9.644028 -4.5,10.480018 0,1.115902 1.12984,1.52955 4.25,1.555972 7.51317,0.06362 23.541207,2.545844 25.170587,3.898103 1.30919,1.086532 1.57941,3.846108 1.57941,16.129335 0,10.766442 -0.34181,15.034761 -1.25,15.609266 -1.44197,0.912163 -38.867117,7.26368 -43.024747,7.301839 -3.48778,0.03201 -4.72525,2.91943 -4.72525,11.025467 0,7.664249 1.28344,11.002739 4.22525,10.990669 4.78236,-0.0196 41.353597,8.322641 43.066047,9.823791 1.4463,1.26784 1.7352,2.8333 1.5,8.12791 l -0.2913,6.55763 -7,3.71839 c -3.849997,2.04511 -7.960017,3.73261 -9.133367,3.75 -2.33892,0.0347 -3.33051,2.36676 -3.35298,7.88578 -0.0118,2.90333 1.33049,4.73752 9.98635,13.64583 l 9.999997,10.29166 0,30.83204 0,30.83205 -7.58764,7.63241 -7.587647,7.63241 2.58764,5.10647 c 1.91013,3.76946 2.58765,6.64417 2.58765,10.97941 l 0,5.87295 -9.44158,1.1603 c -5.19287,0.63816 -19.42584,1.1603 -31.62883,1.1603 l -22.18725,0 0.67923,-5.12035 z"
     id="path3338"
     inkscape:connector-curvature="0" />
</svg>
