<?xml version="1.0" encoding="UTF-8" standalone="no"?>
<!-- Created with Inkscape (http://www.inkscape.org/) -->

<svg
   xmlns:dc="http://purl.org/dc/elements/1.1/"
   xmlns:cc="http://creativecommons.org/ns#"
   xmlns:rdf="http://www.w3.org/1999/02/22-rdf-syntax-ns#"
   xmlns:svg="http://www.w3.org/2000/svg"
   xmlns="http://www.w3.org/2000/svg"
   xmlns:sodipodi="http://sodipodi.sourceforge.net/DTD/sodipodi-0.dtd"
   xmlns:inkscape="http://www.inkscape.org/namespaces/inkscape"
   version="1.1"
   id="svg2"
   width="41.105583"
   height="115"
   viewBox="0 0 41.105583 115"
   sodipodi:docname="AB-AB74.svg"
   inkscape:version="0.92.3 (2405546, 2018-03-11)">
  <metadata
     id="metadata8">
    <rdf:RDF>
      <cc:Work
         rdf:about="">
        <dc:format>image/svg+xml</dc:format>
        <dc:type
           rdf:resource="http://purl.org/dc/dcmitype/StillImage" />
        <dc:title></dc:title>
      </cc:Work>
    </rdf:RDF>
  </metadata>
  <defs
     id="defs6" />
  <sodipodi:namedview
     pagecolor="#ffffff"
     bordercolor="#666666"
     borderopacity="1"
     objecttolerance="10"
     gridtolerance="10"
     guidetolerance="10"
     inkscape:pageopacity="0"
     inkscape:pageshadow="2"
     inkscape:window-width="3773"
     inkscape:window-height="2094"
     id="namedview4"
     showgrid="false"
     fit-margin-top="0"
     fit-margin-left="0"
     fit-margin-right="0"
     fit-margin-bottom="0"
     inkscape:zoom="3.7578125"
     inkscape:cx="21.254455"
     inkscape:cy="57.681691"
     inkscape:window-x="67"
     inkscape:window-y="38"
     inkscape:window-maximized="1"
     inkscape:current-layer="svg2" />
  <path
     style="fill:#000000"
     d="m 35.259998,103.26174 c -5.126529,5.12653 -5.607475,5.95221 -4.5,7.72556 C 33.0367,114.63288 32.281,115 22.5,115 c -5.225,0 -9.5,-0.41269 -9.5,-0.9171 0,-0.5044 0.91785,-3.05835 2.039666,-5.67544 1.121816,-2.61709 1.829733,-5.30542 1.573149,-5.97406 -0.268477,-0.69965 -3.575229,-1.52504 -7.789665,-1.94437 C 4.795417,100.08827 1.169391,99.251796 0.765313,98.630191 -0.464971,96.73761 -0.096422,87.321843 1.25,86.247277 1.9375,85.69859 6.775,84.943672 12,84.569682 25.945057,83.571534 25,84.343428 25,73.951664 25,63.812177 26.327337,65.062196 13.25,62.886106 6.294048,61.728625 6,61.567832 6,58.921635 6,55.232835 5.063168,53 3.515456,53 1.517112,53 -0.224913,50.283999 0.436603,48.199747 0.767615,47.156817 2.154794,45.794867 3.519222,45.173197 7.110528,43.536887 6.881827,38.768377 3,34.347217 c -2.648315,-3.01626 -3,-4.14889 -3,-9.66171 0,-6.23166 0.01256,-6.25857 5.919464,-12.681427 4.665869,-5.07343 5.724745,-6.80036 5,-8.15456 C 9.049187,0.35487 9.840197,0 19.5,0 25.409308,0 29,0.39303 29,1.03984 29,1.61175 28.1,3.84382 27,6 c -3.513782,6.88758 -3.058873,7.56762 5.75,8.59559 l 7.75,0.904407 0.29569,6.75 c 0.162629,3.7125 0.162629,6.79969 0,6.86043 -0.16263,0.0607 -5.47069,0.62323 -11.79569,1.25 l -11.5,1.13957 -0.286487,9.17153 -0.286488,9.171528 5.786488,1.120262 c 13.582879,2.62964 12.755455,2.227452 13.099762,6.367441 0.242809,2.919562 0.861378,3.975246 2.75,4.693299 3.296753,1.253424 3.416891,6.071664 0.186725,7.488815 -3.476712,1.525316 -3.649563,7.678474 -0.309526,11.018511 C 40.713535,82.804444 41,83.898466 41,90.306324 v 7.215415 z"
     id="path3715"
     inkscape:connector-curvature="0" />
</svg>
