  0
SECTION
  2
HEADER
  9
$ACADVER
  1
AC1009
  9
$FILLMODE
 70
 0
  9
$SPLFRAME
 70
 1
  9
$EXTMIN
 10
0
 20
0
 30
0.0
  9
$EXTMAX
 10
41.6667
 20
41.6667
 30
0.0
  0
ENDSEC
  0
SECTION
  2
TABLES
  0
TABLE
  2
LAYER
 70
1
  0
LAYER
  2
0
 70
     0
 62
     7
  6
CONTINUOUS
  0
ENDTAB
  0
ENDSEC
  0
SECTION
  2
ENTITIES
  0
LINE
  8
0
 62
     0
 10
0.333768
 20
0.0120985
 30
0.0
 11
0.33355
 21
0.0123698
 31
0.0
  0
LINE
  8
0
 62
     0
 10
0.33355
 20
0.0123698
 30
0.0
 11
0.326768
 21
0.0141601
 31
0.0
  0
LINE
  8
0
 62
     0
 10
0.326768
 20
0.0141601
 30
0.0
 11
0.314887
 21
0.0163303
 31
0.0
  0
LINE
  8
0
 62
     0
 10
0.314887
 20
0.0163303
 30
0.0
 11
0.312175
 21
0.0167101
 31
0.0
  0
LINE
  8
0
 62
     0
 10
0.312175
 20
0.0167101
 30
0.0
 11
0.309407
 21
0.0171442
 31
0.0
  0
LINE
  8
0
 62
     0
 10
0.309407
 20
0.0171442
 30
0.0
 11
0.2787
 21
0.0224067
 31
0.0
  0
LINE
  8
0
 62
     0
 10
0.2787
 20
0.0224067
 30
0.0
 11
0.276585
 21
0.0227865
 31
0.0
  0
LINE
  8
0
 62
     0
 10
0.276585
 20
0.0227865
 30
0.0
 11
0.274414
 21
0.0232206
 31
0.0
  0
LINE
  8
0
 62
     0
 10
0.274414
 20
0.0232206
 30
0.0
 11
0.243381
 21
0.0289171
 31
0.0
  0
LINE
  8
0
 62
     0
 10
0.243381
 20
0.0289171
 30
0.0
 11
0.240614
 21
0.0293511
 31
0.0
  0
LINE
  8
0
 62
     0
 10
0.240614
 20
0.0293511
 30
0.0
 11
0.237793
 21
0.0298394
 31
0.0
  0
LINE
  8
0
 62
     0
 10
0.237793
 20
0.0298394
 30
0.0
 11
0.223415
 21
0.0326606
 31
0.0
  0
LINE
  8
0
 62
     0
 10
0.223415
 20
0.0326606
 30
0.0
 11
0.212022
 21
0.035319
 31
0.0
  0
LINE
  8
0
 62
     0
 10
0.212022
 20
0.035319
 30
0.0
 11
0.210721
 21
0.0356988
 31
0.0
  0
LINE
  8
0
 62
     0
 10
0.210721
 20
0.0356988
 30
0.0
 11
0.209364
 21
0.0361328
 31
0.0
  0
LINE
  8
0
 62
     0
 10
0.209364
 20
0.0361328
 30
0.0
 11
0.197319
 21
0.0386285
 31
0.0
  0
LINE
  8
0
 62
     0
 10
0.197319
 20
0.0386285
 30
0.0
 11
0.19336
 21
0.0386285
 31
0.0
  0
LINE
  8
0
 62
     0
 10
0.19336
 20
0.0386285
 30
0.0
 11
0.189833
 21
0.0386285
 31
0.0
  0
LINE
  8
0
 62
     0
 10
0.189833
 20
0.0386285
 30
0.0
 11
0.179254
 21
0.0430772
 31
0.0
  0
LINE
  8
0
 62
     0
 10
0.179254
 20
0.0430772
 30
0.0
 11
0.176486
 21
0.0507269
 31
0.0
  0
LINE
  8
0
 62
     0
 10
0.176486
 20
0.0507269
 30
0.0
 11
0.177354
 21
0.0517578
 31
0.0
  0
LINE
  8
0
 62
     0
 10
0.177354
 20
0.0517578
 30
0.0
 11
0.177843
 21
0.0523546
 31
0.0
  0
LINE
  8
0
 62
     0
 10
0.177843
 20
0.0523546
 30
0.0
 11
0.182183
 21
0.0690104
 31
0.0
  0
LINE
  8
0
 62
     0
 10
0.182183
 20
0.0690104
 30
0.0
 11
0.1824
 21
0.0710178
 31
0.0
  0
LINE
  8
0
 62
     0
 10
0.1824
 20
0.0710178
 30
0.0
 11
0.182562
 21
0.0730794
 31
0.0
  0
LINE
  8
0
 62
     0
 10
0.182562
 20
0.0730794
 30
0.0
 11
0.187717
 21
0.0904949
 31
0.0
  0
LINE
  8
0
 62
     0
 10
0.187717
 20
0.0904949
 30
0.0
 11
0.188368
 21
0.0912001
 31
0.0
  0
LINE
  8
0
 62
     0
 10
0.188368
 20
0.0912001
 30
0.0
 11
0.188965
 21
0.0919596
 31
0.0
  0
LINE
  8
0
 62
     0
 10
0.188965
 20
0.0919596
 30
0.0
 11
0.196343
 21
0.107259
 31
0.0
  0
LINE
  8
0
 62
     0
 10
0.196343
 20
0.107259
 30
0.0
 11
0.196886
 21
0.108941
 31
0.0
  0
LINE
  8
0
 62
     0
 10
0.196886
 20
0.108941
 30
0.0
 11
0.197428
 21
0.110677
 31
0.0
  0
LINE
  8
0
 62
     0
 10
0.197428
 20
0.110677
 30
0.0
 11
0.202908
 21
0.124132
 31
0.0
  0
LINE
  8
0
 62
     0
 10
0.202908
 20
0.124132
 30
0.0
 11
0.203233
 21
0.124566
 31
0.0
  0
LINE
  8
0
 62
     0
 10
0.203233
 20
0.124566
 30
0.0
 11
0.20356
 21
0.125
 31
0.0
  0
LINE
  8
0
 62
     0
 10
0.20356
 20
0.125
 30
0.0
 11
0.207411
 21
0.138509
 31
0.0
  0
LINE
  8
0
 62
     0
 10
0.207411
 20
0.138509
 30
0.0
 11
0.207682
 21
0.140192
 31
0.0
  0
LINE
  8
0
 62
     0
 10
0.207682
 20
0.140192
 30
0.0
 11
0.208876
 21
0.147949
 31
0.0
  0
LINE
  8
0
 62
     0
 10
0.208876
 20
0.147949
 30
0.0
 11
0.217339
 21
0.181858
 31
0.0
  0
LINE
  8
0
 62
     0
 10
0.217339
 20
0.181858
 30
0.0
 11
0.227593
 21
0.205404
 31
0.0
  0
LINE
  8
0
 62
     0
 10
0.227593
 20
0.205404
 30
0.0
 11
0.229764
 21
0.207954
 31
0.0
  0
LINE
  8
0
 62
     0
 10
0.229764
 20
0.207954
 30
0.0
 11
0.231174
 21
0.20969
 31
0.0
  0
LINE
  8
0
 62
     0
 10
0.231174
 20
0.20969
 30
0.0
 11
0.235135
 21
0.217665
 31
0.0
  0
LINE
  8
0
 62
     0
 10
0.235135
 20
0.217665
 30
0.0
 11
0.235622
 21
0.228353
 31
0.0
  0
LINE
  8
0
 62
     0
 10
0.235622
 20
0.228353
 30
0.0
 11
0.235351
 21
0.231392
 31
0.0
  0
LINE
  8
0
 62
     0
 10
0.235351
 20
0.231392
 30
0.0
 11
0.235135
 21
0.233453
 31
0.0
  0
LINE
  8
0
 62
     0
 10
0.235135
 20
0.233453
 30
0.0
 11
0.230903
 21
0.254557
 31
0.0
  0
LINE
  8
0
 62
     0
 10
0.230903
 20
0.254557
 30
0.0
 11
0.230469
 21
0.255806
 31
0.0
  0
LINE
  8
0
 62
     0
 10
0.230469
 20
0.255806
 30
0.0
 11
0.229167
 21
0.259332
 31
0.0
  0
LINE
  8
0
 62
     0
 10
0.229167
 20
0.259332
 30
0.0
 11
0.222493
 21
0.269965
 31
0.0
  0
LINE
  8
0
 62
     0
 10
0.222493
 20
0.269965
 30
0.0
 11
0.207519
 21
0.289876
 31
0.0
  0
LINE
  8
0
 62
     0
 10
0.207519
 20
0.289876
 30
0.0
 11
0.187338
 21
0.313206
 31
0.0
  0
LINE
  8
0
 62
     0
 10
0.187338
 20
0.313206
 30
0.0
 11
0.169922
 21
0.331706
 31
0.0
  0
LINE
  8
0
 62
     0
 10
0.169922
 20
0.331706
 30
0.0
 11
0.163954
 21
0.337619
 31
0.0
  0
LINE
  8
0
 62
     0
 10
0.163954
 20
0.337619
 30
0.0
 11
0.159939
 21
0.341581
 31
0.0
  0
LINE
  8
0
 62
     0
 10
0.159939
 20
0.341581
 30
0.0
 11
0.143175
 21
0.358724
 31
0.0
  0
LINE
  8
0
 62
     0
 10
0.143175
 20
0.358724
 30
0.0
 11
0.13406
 21
0.368599
 31
0.0
  0
LINE
  8
0
 62
     0
 10
0.13406
 20
0.368599
 30
0.0
 11
0.133898
 21
0.368924
 31
0.0
  0
LINE
  8
0
 62
     0
 10
0.133898
 20
0.368924
 30
0.0
 11
0.133735
 21
0.369303
 31
0.0
  0
LINE
  8
0
 62
     0
 10
0.133735
 20
0.369303
 30
0.0
 11
0.124674
 21
0.377767
 31
0.0
  0
LINE
  8
0
 62
     0
 10
0.124674
 20
0.377767
 30
0.0
 11
0.123427
 21
0.378743
 31
0.0
  0
LINE
  8
0
 62
     0
 10
0.123427
 20
0.378743
 30
0.0
 11
0.122125
 21
0.379775
 31
0.0
  0
LINE
  8
0
 62
     0
 10
0.122125
 20
0.379775
 30
0.0
 11
0.108995
 21
0.391385
 31
0.0
  0
LINE
  8
0
 62
     0
 10
0.108995
 20
0.391385
 30
0.0
 11
0.0911458
 21
0.408149
 31
0.0
  0
LINE
  8
0
 62
     0
 10
0.0911458
 20
0.408149
 30
0.0
 11
0.0875108
 21
0.411675
 31
0.0
  0
LINE
  8
0
 62
     0
 10
0.0875108
 20
0.411675
 30
0.0
 11
0.0838217
 21
0.415256
 31
0.0
  0
LINE
  8
0
 62
     0
 10
0.0838217
 20
0.415256
 30
0.0
 11
0.0632053
 21
0.433431
 31
0.0
  0
LINE
  8
0
 62
     0
 10
0.0632053
 20
0.433431
 30
0.0
 11
0.0447592
 21
0.447808
 31
0.0
  0
LINE
  8
0
 62
     0
 10
0.0447592
 20
0.447808
 30
0.0
 11
0.0422092
 21
0.449436
 31
0.0
  0
LINE
  8
0
 62
     0
 10
0.0422092
 20
0.449436
 30
0.0
 11
0.039605
 21
0.451118
 31
0.0
  0
LINE
  8
0
 62
     0
 10
0.039605
 20
0.451118
 30
0.0
 11
0.0269097
 21
0.459744
 31
0.0
  0
LINE
  8
0
 62
     0
 10
0.0269097
 20
0.459744
 30
0.0
 11
0.0174696
 21
0.466851
 31
0.0
  0
LINE
  8
0
 62
     0
 10
0.0174696
 20
0.466851
 30
0.0
 11
0.0165474
 21
0.467665
 31
0.0
  0
LINE
  8
0
 62
     0
 10
0.0165474
 20
0.467665
 30
0.0
 11
0.0152994
 21
0.46875
 31
0.0
  0
LINE
  8
0
 62
     0
 10
0.0152994
 20
0.46875
 30
0.0
 11
0.0123698
 21
0.472711
 31
0.0
  0
LINE
  8
0
 62
     0
 10
0.0123698
 20
0.472711
 30
0.0
 11
0.0102539
 21
0.483399
 31
0.0
  0
LINE
  8
0
 62
     0
 10
0.0102539
 20
0.483399
 30
0.0
 11
0.00944011
 21
0.507921
 31
0.0
  0
LINE
  8
0
 62
     0
 10
0.00944011
 20
0.507921
 30
0.0
 11
0.00938585
 21
0.542697
 31
0.0
  0
LINE
  8
0
 62
     0
 10
0.00938585
 20
0.542697
 30
0.0
 11
0.00938585
 21
0.554254
 31
0.0
  0
LINE
  8
0
 62
     0
 10
0.00938585
 20
0.554254
 30
0.0
 11
0.00938585
 21
0.556478
 31
0.0
  0
LINE
  8
0
 62
     0
 10
0.00938585
 20
0.556478
 30
0.0
 11
0.00944011
 21
0.562989
 31
0.0
  0
LINE
  8
0
 62
     0
 10
0.00944011
 20
0.562989
 30
0.0
 11
0.00965712
 21
0.583279
 31
0.0
  0
LINE
  8
0
 62
     0
 10
0.00965712
 20
0.583279
 30
0.0
 11
0.00992839
 21
0.612088
 31
0.0
  0
LINE
  8
0
 62
     0
 10
0.00992839
 20
0.612088
 30
0.0
 11
0.0101997
 21
0.637858
 31
0.0
  0
LINE
  8
0
 62
     0
 10
0.0101997
 20
0.637858
 30
0.0
 11
0.0103082
 21
0.646431
 31
0.0
  0
LINE
  8
0
 62
     0
 10
0.0103082
 20
0.646431
 30
0.0
 11
0.0104167
 21
0.659071
 31
0.0
  0
LINE
  8
0
 62
     0
 10
0.0104167
 20
0.659071
 30
0.0
 11
0.0109592
 21
0.696832
 31
0.0
  0
LINE
  8
0
 62
     0
 10
0.0109592
 20
0.696832
 30
0.0
 11
0.0120985
 21
0.724989
 31
0.0
  0
LINE
  8
0
 62
     0
 10
0.0120985
 20
0.724989
 30
0.0
 11
0.0145942
 21
0.740451
 31
0.0
  0
LINE
  8
0
 62
     0
 10
0.0145942
 20
0.740451
 30
0.0
 11
0.0179579
 21
0.749675
 31
0.0
  0
LINE
  8
0
 62
     0
 10
0.0179579
 20
0.749675
 30
0.0
 11
0.01926
 21
0.752658
 31
0.0
  0
LINE
  8
0
 62
     0
 10
0.01926
 20
0.752658
 30
0.0
 11
0.0206164
 21
0.75586
 31
0.0
  0
LINE
  8
0
 62
     0
 10
0.0206164
 20
0.75586
 30
0.0
 11
0.0356446
 21
0.776639
 31
0.0
  0
LINE
  8
0
 62
     0
 10
0.0356446
 20
0.776639
 30
0.0
 11
0.0373264
 21
0.777669
 31
0.0
  0
LINE
  8
0
 62
     0
 10
0.0373264
 20
0.777669
 30
0.0
 11
0.0386828
 21
0.778537
 31
0.0
  0
LINE
  8
0
 62
     0
 10
0.0386828
 20
0.778537
 30
0.0
 11
0.0592449
 21
0.792751
 31
0.0
  0
LINE
  8
0
 62
     0
 10
0.0592449
 20
0.792751
 30
0.0
 11
0.0611436
 21
0.794108
 31
0.0
  0
LINE
  8
0
 62
     0
 10
0.0611436
 20
0.794108
 30
0.0
 11
0.0630425
 21
0.795518
 31
0.0
  0
LINE
  8
0
 62
     0
 10
0.0630425
 20
0.795518
 30
0.0
 11
0.0725911
 21
0.801324
 31
0.0
  0
LINE
  8
0
 62
     0
 10
0.0725911
 20
0.801324
 30
0.0
 11
0.0786133
 21
0.804254
 31
0.0
  0
LINE
  8
0
 62
     0
 10
0.0786133
 20
0.804254
 30
0.0
 11
0.0806749
 21
0.804254
 31
0.0
  0
LINE
  8
0
 62
     0
 10
0.0806749
 20
0.804254
 30
0.0
 11
0.0852865
 21
0.804254
 31
0.0
  0
LINE
  8
0
 62
     0
 10
0.0852865
 20
0.804254
 30
0.0
 11
0.0974935
 21
0.809679
 31
0.0
  0
LINE
  8
0
 62
     0
 10
0.0974935
 20
0.809679
 30
0.0
 11
0.0992839
 21
0.810493
 31
0.0
  0
LINE
  8
0
 62
     0
 10
0.0992839
 20
0.810493
 30
0.0
 11
0.10102
 21
0.811361
 31
0.0
  0
LINE
  8
0
 62
     0
 10
0.10102
 20
0.811361
 30
0.0
 11
0.112413
 21
0.816732
 31
0.0
  0
LINE
  8
0
 62
     0
 10
0.112413
 20
0.816732
 30
0.0
 11
0.116265
 21
0.816732
 31
0.0
  0
LINE
  8
0
 62
     0
 10
0.116265
 20
0.816732
 30
0.0
 11
0.117839
 21
0.816732
 31
0.0
  0
LINE
  8
0
 62
     0
 10
0.117839
 20
0.816732
 30
0.0
 11
0.122721
 21
0.819988
 31
0.0
  0
LINE
  8
0
 62
     0
 10
0.122721
 20
0.819988
 30
0.0
 11
0.130914
 21
0.826226
 31
0.0
  0
LINE
  8
0
 62
     0
 10
0.130914
 20
0.826226
 30
0.0
 11
0.132596
 21
0.827692
 31
0.0
  0
LINE
  8
0
 62
     0
 10
0.132596
 20
0.827692
 30
0.0
 11
0.134277
 21
0.82921
 31
0.0
  0
LINE
  8
0
 62
     0
 10
0.134277
 20
0.82921
 30
0.0
 11
0.14285
 21
0.835449
 31
0.0
  0
LINE
  8
0
 62
     0
 10
0.14285
 20
0.835449
 30
0.0
 11
0.148492
 21
0.838596
 31
0.0
  0
LINE
  8
0
 62
     0
 10
0.148492
 20
0.838596
 30
0.0
 11
0.15039
 21
0.838596
 31
0.0
  0
LINE
  8
0
 62
     0
 10
0.15039
 20
0.838596
 30
0.0
 11
0.152181
 21
0.838596
 31
0.0
  0
LINE
  8
0
 62
     0
 10
0.152181
 20
0.838596
 30
0.0
 11
0.157335
 21
0.841037
 31
0.0
  0
LINE
  8
0
 62
     0
 10
0.157335
 20
0.841037
 30
0.0
 11
0.157607
 21
0.841417
 31
0.0
  0
LINE
  8
0
 62
     0
 10
0.157607
 20
0.841417
 30
0.0
 11
0.157824
 21
0.841797
 31
0.0
  0
LINE
  8
0
 62
     0
 10
0.157824
 20
0.841797
 30
0.0
 11
0.166504
 21
0.845975
 31
0.0
  0
LINE
  8
0
 62
     0
 10
0.166504
 20
0.845975
 30
0.0
 11
0.167643
 21
0.846246
 31
0.0
  0
LINE
  8
0
 62
     0
 10
0.167643
 20
0.846246
 30
0.0
 11
0.168782
 21
0.846571
 31
0.0
  0
LINE
  8
0
 62
     0
 10
0.168782
 20
0.846571
 30
0.0
 11
0.183376
 21
0.856338
 31
0.0
  0
LINE
  8
0
 62
     0
 10
0.183376
 20
0.856338
 30
0.0
 11
0.184571
 21
0.857585
 31
0.0
  0
LINE
  8
0
 62
     0
 10
0.184571
 20
0.857585
 30
0.0
 11
0.186035
 21
0.859213
 31
0.0
  0
LINE
  8
0
 62
     0
 10
0.186035
 20
0.859213
 30
0.0
 11
0.206054
 21
0.869249
 31
0.0
  0
LINE
  8
0
 62
     0
 10
0.206054
 20
0.869249
 30
0.0
 11
0.208768
 21
0.869738
 31
0.0
  0
LINE
  8
0
 62
     0
 10
0.208768
 20
0.869738
 30
0.0
 11
0.211046
 21
0.870226
 31
0.0
  0
LINE
  8
0
 62
     0
 10
0.211046
 20
0.870226
 30
0.0
 11
0.231663
 21
0.879503
 31
0.0
  0
LINE
  8
0
 62
     0
 10
0.231663
 20
0.879503
 30
0.0
 11
0.232964
 21
0.880643
 31
0.0
  0
LINE
  8
0
 62
     0
 10
0.232964
 20
0.880643
 30
0.0
 11
0.234104
 21
0.881782
 31
0.0
  0
LINE
  8
0
 62
     0
 10
0.234104
 20
0.881782
 30
0.0
 11
0.242785
 21
0.888618
 31
0.0
  0
LINE
  8
0
 62
     0
 10
0.242785
 20
0.888618
 30
0.0
 11
0.245714
 21
0.888618
 31
0.0
  0
LINE
  8
0
 62
     0
 10
0.245714
 20
0.888618
 30
0.0
 11
0.248101
 21
0.888618
 31
0.0
  0
LINE
  8
0
 62
     0
 10
0.248101
 20
0.888618
 30
0.0
 11
0.254557
 21
0.89605
 31
0.0
  0
LINE
  8
0
 62
     0
 10
0.254557
 20
0.89605
 30
0.0
 11
0.255317
 21
0.89719
 31
0.0
  0
LINE
  8
0
 62
     0
 10
0.255317
 20
0.89719
 30
0.0
 11
0.256076
 21
0.898383
 31
0.0
  0
LINE
  8
0
 62
     0
 10
0.256076
 20
0.898383
 30
0.0
 11
0.2653
 21
0.909179
 31
0.0
  0
LINE
  8
0
 62
     0
 10
0.2653
 20
0.909179
 30
0.0
 11
0.26606
 21
0.909668
 31
0.0
  0
LINE
  8
0
 62
     0
 10
0.26606
 20
0.909668
 30
0.0
 11
0.268554
 21
0.911567
 31
0.0
  0
LINE
  8
0
 62
     0
 10
0.268554
 20
0.911567
 30
0.0
 11
0.278917
 21
0.929904
 31
0.0
  0
LINE
  8
0
 62
     0
 10
0.278917
 20
0.929904
 30
0.0
 11
0.284343
 21
0.954264
 31
0.0
  0
LINE
  8
0
 62
     0
 10
0.284343
 20
0.954264
 30
0.0
 11
0.284343
 21
0.959147
 31
0.0
  0
LINE
  8
0
 62
     0
 10
0.284343
 20
0.959147
 30
0.0
 11
0.284343
 21
0.967176
 31
0.0
  0
LINE
  8
0
 62
     0
 10
0.284343
 20
0.967176
 30
0.0
 11
0.280219
 21
0.991157
 31
0.0
  0
LINE
  8
0
 62
     0
 10
0.280219
 20
0.991157
 30
0.0
 11
0.268229
 21
1.00716
 31
0.0
  0
LINE
  8
0
 62
     0
 10
0.268229
 20
1.00716
 30
0.0
 11
0.264324
 21
1.00998
 31
0.0
  0
LINE
  8
0
 62
     0
 10
0.264324
 20
1.00998
 30
0.0
 11
0.262424
 21
1.01134
 31
0.0
  0
LINE
  8
0
 62
     0
 10
0.262424
 20
1.01134
 30
0.0
 11
0.253581
 21
1.01698
 31
0.0
  0
LINE
  8
0
 62
     0
 10
0.253581
 20
1.01698
 30
0.0
 11
0.248807
 21
1.01986
 31
0.0
  0
LINE
  8
0
 62
     0
 10
0.248807
 20
1.01986
 30
0.0
 11
0.247233
 21
1.01986
 31
0.0
  0
LINE
  8
0
 62
     0
 10
0.247233
 20
1.01986
 30
0.0
 11
0.244846
 21
1.01986
 31
0.0
  0
LINE
  8
0
 62
     0
 10
0.244846
 20
1.01986
 30
0.0
 11
0.237739
 21
1.02224
 31
0.0
  0
LINE
  8
0
 62
     0
 10
0.237739
 20
1.02224
 30
0.0
 11
0.222928
 21
1.0268
 31
0.0
  0
LINE
  8
0
 62
     0
 10
0.222928
 20
1.0268
 30
0.0
 11
0.219618
 21
1.02789
 31
0.0
  0
LINE
  8
0
 62
     0
 10
0.219618
 20
1.02789
 30
0.0
 11
0.216254
 21
1.02902
 31
0.0
  0
LINE
  8
0
 62
     0
 10
0.216254
 20
1.02902
 30
0.0
 11
0.200087
 21
1.03396
 31
0.0
  0
LINE
  8
0
 62
     0
 10
0.200087
 20
1.03396
 30
0.0
 11
0.188314
 21
1.03695
 31
0.0
  0
LINE
  8
0
 62
     0
 10
0.188314
 20
1.03695
 30
0.0
 11
0.187229
 21
1.03706
 31
0.0
  0
LINE
  8
0
 62
     0
 10
0.187229
 20
1.03706
 30
0.0
 11
0.186089
 21
1.03722
 31
0.0
  0
LINE
  8
0
 62
     0
 10
0.186089
 20
1.03722
 30
0.0
 11
0.176107
 21
1.03982
 31
0.0
  0
LINE
  8
0
 62
     0
 10
0.176107
 20
1.03982
 30
0.0
 11
0.163194
 21
1.04395
 31
0.0
  0
LINE
  8
0
 62
     0
 10
0.163194
 20
1.04395
 30
0.0
 11
0.160699
 21
1.04481
 31
0.0
  0
LINE
  8
0
 62
     0
 10
0.160699
 20
1.04481
 30
0.0
 11
0.158149
 21
1.04574
 31
0.0
  0
LINE
  8
0
 62
     0
 10
0.158149
 20
1.04574
 30
0.0
 11
0.127604
 21
1.0555
 31
0.0
  0
LINE
  8
0
 62
     0
 10
0.127604
 20
1.0555
 30
0.0
 11
0.125326
 21
1.05615
 31
0.0
  0
LINE
  8
0
 62
     0
 10
0.125326
 20
1.05615
 30
0.0
 11
0.122993
 21
1.0568
 31
0.0
  0
LINE
  8
0
 62
     0
 10
0.122993
 20
1.0568
 30
0.0
 11
0.102593
 21
1.06478
 31
0.0
  0
LINE
  8
0
 62
     0
 10
0.102593
 20
1.06478
 30
0.0
 11
0.101671
 21
1.06538
 31
0.0
  0
LINE
  8
0
 62
     0
 10
0.101671
 20
1.06538
 30
0.0
 11
0.100694
 21
1.06603
 31
0.0
  0
LINE
  8
0
 62
     0
 10
0.100694
 20
1.06603
 30
0.0
 11
0.0932075
 21
1.06831
 31
0.0
  0
LINE
  8
0
 62
     0
 10
0.0932075
 20
1.06831
 30
0.0
 11
0.0929904
 21
1.06803
 31
0.0
  0
LINE
  8
0
 62
     0
 10
0.0929904
 20
1.06803
 30
0.0
 11
0.0927192
 21
1.06782
 31
0.0
  0
LINE
  8
0
 62
     0
 10
0.0927192
 20
1.06782
 30
0.0
 11
0.0848525
 21
1.06972
 31
0.0
  0
LINE
  8
0
 62
     0
 10
0.0848525
 20
1.06972
 30
0.0
 11
0.0838758
 21
1.07026
 31
0.0
  0
LINE
  8
0
 62
     0
 10
0.0838758
 20
1.07026
 30
0.0
 11
0.082845
 21
1.07086
 31
0.0
  0
LINE
  8
0
 62
     0
 10
0.082845
 20
1.07086
 30
0.0
 11
0.0751953
 21
1.07449
 31
0.0
  0
LINE
  8
0
 62
     0
 10
0.0751953
 20
1.07449
 30
0.0
 11
0.0749783
 21
1.07449
 31
0.0
  0
LINE
  8
0
 62
     0
 10
0.0749783
 20
1.07449
 30
0.0
 11
0.0731337
 21
1.07471
 31
0.0
  0
LINE
  8
0
 62
     0
 10
0.0731337
 20
1.07471
 30
0.0
 11
0.0551215
 21
1.08415
 31
0.0
  0
LINE
  8
0
 62
     0
 10
0.0551215
 20
1.08415
 30
0.0
 11
0.0363499
 21
1.09793
 31
0.0
  0
LINE
  8
0
 62
     0
 10
0.0363499
 20
1.09793
 30
0.0
 11
0.0341254
 21
1.10026
 31
0.0
  0
LINE
  8
0
 62
     0
 10
0.0341254
 20
1.10026
 30
0.0
 11
0.0307075
 21
1.10395
 31
0.0
  0
LINE
  8
0
 62
     0
 10
0.0307075
 20
1.10395
 30
0.0
 11
0.0211589
 21
1.11551
 31
0.0
  0
LINE
  8
0
 62
     0
 10
0.0211589
 20
1.11551
 30
0.0
 11
0.0133464
 21
1.12907
 31
0.0
  0
LINE
  8
0
 62
     0
 10
0.0133464
 20
1.12907
 30
0.0
 11
0.0093316
 21
1.14431
 31
0.0
  0
LINE
  8
0
 62
     0
 10
0.0093316
 20
1.14431
 30
0.0
 11
0.00797526
 21
1.15945
 31
0.0
  0
LINE
  8
0
 62
     0
 10
0.00797526
 20
1.15945
 30
0.0
 11
0.00786675
 21
1.1645
 31
0.0
  0
LINE
  8
0
 62
     0
 10
0.00786675
 20
1.1645
 30
0.0
 11
0.007704
 21
1.16846
 31
0.0
  0
LINE
  8
0
 62
     0
 10
0.007704
 20
1.16846
 30
0.0
 11
0.00661893
 21
1.1945
 31
0.0
  0
LINE
  8
0
 62
     0
 10
0.00661893
 20
1.1945
 30
0.0
 11
0.00531685
 21
1.22163
 31
0.0
  0
LINE
  8
0
 62
     0
 10
0.00531685
 20
1.22163
 30
0.0
 11
0.00509983
 21
1.22613
 31
0.0
  0
LINE
  8
0
 62
     0
 10
0.00509983
 20
1.22613
 30
0.0
 11
0.00434028
 21
1.23882
 31
0.0
  0
LINE
  8
0
 62
     0
 10
0.00434028
 20
1.23882
 30
0.0
 11
0.00254992
 21
1.27696
 31
0.0
  0
LINE
  8
0
 62
     0
 10
0.00254992
 20
1.27696
 30
0.0
 11
0.00135634
 21
1.31532
 31
0.0
  0
LINE
  8
0
 62
     0
 10
0.00135634
 20
1.31532
 30
0.0
 11
0.0015191
 21
1.33957
 31
0.0
  0
LINE
  8
0
 62
     0
 10
0.0015191
 20
1.33957
 30
0.0
 11
0.00271268
 21
1.34798
 31
0.0
  0
LINE
  8
0
 62
     0
 10
0.00271268
 20
1.34798
 30
0.0
 11
0.00314671
 21
1.34798
 31
0.0
  0
LINE
  8
0
 62
     0
 10
0.00314671
 20
1.34798
 30
0.0
 11
0.00390625
 21
1.34798
 31
0.0
  0
LINE
  8
0
 62
     0
 10
0.00390625
 20
1.34798
 30
0.0
 11
0.00623915
 21
1.35373
 31
0.0
  0
LINE
  8
0
 62
     0
 10
0.00623915
 20
1.35373
 30
0.0
 11
0.00623915
 21
1.35563
 31
0.0
  0
LINE
  8
0
 62
     0
 10
0.00623915
 20
1.35563
 30
0.0
 11
0.00623915
 21
1.35802
 31
0.0
  0
LINE
  8
0
 62
     0
 10
0.00623915
 20
1.35802
 30
0.0
 11
0.00895182
 21
1.36491
 31
0.0
  0
LINE
  8
0
 62
     0
 10
0.00895182
 20
1.36491
 30
0.0
 11
0.00938585
 21
1.36518
 31
0.0
  0
LINE
  8
0
 62
     0
 10
0.00938585
 20
1.36518
 30
0.0
 11
0.00976563
 21
1.36545
 31
0.0
  0
LINE
  8
0
 62
     0
 10
0.00976563
 20
1.36545
 30
0.0
 11
0.0124783
 21
1.37098
 31
0.0
  0
LINE
  8
0
 62
     0
 10
0.0124783
 20
1.37098
 30
0.0
 11
0.0124783
 21
1.37277
 31
0.0
  0
LINE
  8
0
 62
     0
 10
0.0124783
 20
1.37277
 30
0.0
 11
0.0124783
 21
1.37619
 31
0.0
  0
LINE
  8
0
 62
     0
 10
0.0124783
 20
1.37619
 30
0.0
 11
0.0179579
 21
1.38536
 31
0.0
  0
LINE
  8
0
 62
     0
 10
0.0179579
 20
1.38536
 30
0.0
 11
0.018826
 21
1.38645
 31
0.0
  0
LINE
  8
0
 62
     0
 10
0.018826
 20
1.38645
 30
0.0
 11
0.0204536
 21
1.38856
 31
0.0
  0
LINE
  8
0
 62
     0
 10
0.0204536
 20
1.38856
 30
0.0
 11
0.0309787
 21
1.39768
 31
0.0
  0
LINE
  8
0
 62
     0
 10
0.0309787
 20
1.39768
 30
0.0
 11
0.0521918
 21
1.41465
 31
0.0
  0
LINE
  8
0
 62
     0
 10
0.0521918
 20
1.41465
 30
0.0
 11
0.0747071
 21
1.43132
 31
0.0
  0
LINE
  8
0
 62
     0
 10
0.0747071
 20
1.43132
 30
0.0
 11
0.0872396
 21
1.43994
 31
0.0
  0
LINE
  8
0
 62
     0
 10
0.0872396
 20
1.43994
 30
0.0
 11
0.0906033
 21
1.44162
 31
0.0
  0
LINE
  8
0
 62
     0
 10
0.0906033
 20
1.44162
 30
0.0
 11
0.0916883
 21
1.44222
 31
0.0
  0
LINE
  8
0
 62
     0
 10
0.0916883
 20
1.44222
 30
0.0
 11
0.103841
 21
1.4521
 31
0.0
  0
LINE
  8
0
 62
     0
 10
0.103841
 20
1.4521
 30
0.0
 11
0.104709
 21
1.45313
 31
0.0
  0
LINE
  8
0
 62
     0
 10
0.104709
 20
1.45313
 30
0.0
 11
0.106337
 21
1.45514
 31
0.0
  0
LINE
  8
0
 62
     0
 10
0.106337
 20
1.45514
 30
0.0
 11
0.139649
 21
1.47597
 31
0.0
  0
LINE
  8
0
 62
     0
 10
0.139649
 20
1.47597
 30
0.0
 11
0.144532
 21
1.47803
 31
0.0
  0
LINE
  8
0
 62
     0
 10
0.144532
 20
1.47803
 30
0.0
 11
0.146104
 21
1.47874
 31
0.0
  0
LINE
  8
0
 62
     0
 10
0.146104
 20
1.47874
 30
0.0
 11
0.15625
 21
1.4841
 31
0.0
  0
LINE
  8
0
 62
     0
 10
0.15625
 20
1.4841
 30
0.0
 11
0.15625
 21
1.48583
 31
0.0
  0
LINE
  8
0
 62
     0
 10
0.15625
 20
1.48583
 30
0.0
 11
0.15625
 21
1.48654
 31
0.0
  0
LINE
  8
0
 62
     0
 10
0.15625
 20
1.48654
 30
0.0
 11
0.159179
 21
1.48861
 31
0.0
  0
LINE
  8
0
 62
     0
 10
0.159179
 20
1.48861
 30
0.0
 11
0.160157
 21
1.48861
 31
0.0
  0
LINE
  8
0
 62
     0
 10
0.160157
 20
1.48861
 30
0.0
 11
0.162001
 21
1.48867
 31
0.0
  0
LINE
  8
0
 62
     0
 10
0.162001
 20
1.48867
 30
0.0
 11
0.168186
 21
1.49615
 31
0.0
  0
LINE
  8
0
 62
     0
 10
0.168186
 20
1.49615
 30
0.0
 11
0.17844
 21
1.51329
 31
0.0
  0
LINE
  8
0
 62
     0
 10
0.17844
 20
1.51329
 30
0.0
 11
0.186849
 21
1.53213
 31
0.0
  0
LINE
  8
0
 62
     0
 10
0.186849
 20
1.53213
 30
0.0
 11
0.189833
 21
1.54238
 31
0.0
  0
LINE
  8
0
 62
     0
 10
0.189833
 20
1.54238
 30
0.0
 11
0.189182
 21
1.54454
 31
0.0
  0
LINE
  8
0
 62
     0
 10
0.189182
 20
1.54454
 30
0.0
 11
0.188911
 21
1.54536
 31
0.0
  0
LINE
  8
0
 62
     0
 10
0.188911
 20
1.54536
 30
0.0
 11
0.18061
 21
1.55817
 31
0.0
  0
LINE
  8
0
 62
     0
 10
0.18061
 20
1.55817
 30
0.0
 11
0.179579
 21
1.55935
 31
0.0
  0
LINE
  8
0
 62
     0
 10
0.179579
 20
1.55935
 30
0.0
 11
0.178494
 21
1.5606
 31
0.0
  0
LINE
  8
0
 62
     0
 10
0.178494
 20
1.5606
 30
0.0
 11
0.171875
 21
1.56922
 31
0.0
  0
LINE
  8
0
 62
     0
 10
0.171875
 20
1.56922
 30
0.0
 11
0.171875
 21
1.5721
 31
0.0
  0
LINE
  8
0
 62
     0
 10
0.171875
 20
1.5721
 30
0.0
 11
0.171875
 21
1.57428
 31
0.0
  0
LINE
  8
0
 62
     0
 10
0.171875
 20
1.57428
 30
0.0
 11
0.1639
 21
1.58008
 31
0.0
  0
LINE
  8
0
 62
     0
 10
0.1639
 20
1.58008
 30
0.0
 11
0.162651
 21
1.58074
 31
0.0
  0
LINE
  8
0
 62
     0
 10
0.162651
 20
1.58074
 30
0.0
 11
0.16135
 21
1.58138
 31
0.0
  0
LINE
  8
0
 62
     0
 10
0.16135
 20
1.58138
 30
0.0
 11
0.151258
 21
1.58886
 31
0.0
  0
LINE
  8
0
 62
     0
 10
0.151258
 20
1.58886
 30
0.0
 11
0.150933
 21
1.58942
 31
0.0
  0
LINE
  8
0
 62
     0
 10
0.150933
 20
1.58942
 30
0.0
 11
0.150174
 21
1.59056
 31
0.0
  0
LINE
  8
0
 62
     0
 10
0.150174
 20
1.59056
 30
0.0
 11
0.129829
 21
1.60406
 31
0.0
  0
LINE
  8
0
 62
     0
 10
0.129829
 20
1.60406
 30
0.0
 11
0.126573
 21
1.60558
 31
0.0
  0
LINE
  8
0
 62
     0
 10
0.126573
 20
1.60558
 30
0.0
 11
0.125271
 21
1.60618
 31
0.0
  0
LINE
  8
0
 62
     0
 10
0.125271
 20
1.60618
 30
0.0
 11
0.110406
 21
1.61719
 31
0.0
  0
LINE
  8
0
 62
     0
 10
0.110406
 20
1.61719
 30
0.0
 11
0.109375
 21
1.61833
 31
0.0
  0
LINE
  8
0
 62
     0
 10
0.109375
 20
1.61833
 30
0.0
 11
0.10829
 21
1.61951
 31
0.0
  0
LINE
  8
0
 62
     0
 10
0.10829
 20
1.61951
 30
0.0
 11
0.0978733
 21
1.62782
 31
0.0
  0
LINE
  8
0
 62
     0
 10
0.0978733
 20
1.62782
 30
0.0
 11
0.0840386
 21
1.63721
 31
0.0
  0
LINE
  8
0
 62
     0
 10
0.0840386
 20
1.63721
 30
0.0
 11
0.0812717
 21
1.63883
 31
0.0
  0
LINE
  8
0
 62
     0
 10
0.0812717
 20
1.63883
 30
0.0
 11
0.0784506
 21
1.64051
 31
0.0
  0
LINE
  8
0
 62
     0
 10
0.0784506
 20
1.64051
 30
0.0
 11
0.0593533
 21
1.65343
 31
0.0
  0
LINE
  8
0
 62
     0
 10
0.0593533
 20
1.65343
 30
0.0
 11
0.0387912
 21
1.66862
 31
0.0
  0
LINE
  8
0
 62
     0
 10
0.0387912
 20
1.66862
 30
0.0
 11
0.0352647
 21
1.67144
 31
0.0
  0
LINE
  8
0
 62
     0
 10
0.0352647
 20
1.67144
 30
0.0
 11
0.0297851
 21
1.67583
 31
0.0
  0
LINE
  8
0
 62
     0
 10
0.0297851
 20
1.67583
 30
0.0
 11
0.0138889
 21
1.69038
 31
0.0
  0
LINE
  8
0
 62
     0
 10
0.0138889
 20
1.69038
 30
0.0
 11
0.00813803
 21
1.70111
 31
0.0
  0
LINE
  8
0
 62
     0
 10
0.00813803
 20
1.70111
 30
0.0
 11
0.00775825
 21
1.70356
 31
0.0
  0
LINE
  8
0
 62
     0
 10
0.00775825
 20
1.70356
 30
0.0
 11
0.00748699
 21
1.70518
 31
0.0
  0
LINE
  8
0
 62
     0
 10
0.00748699
 20
1.70518
 30
0.0
 11
0.00330946
 21
1.72136
 31
0.0
  0
LINE
  8
0
 62
     0
 10
0.00330946
 20
1.72136
 30
0.0
 11
0.00292969
 21
1.72233
 31
0.0
  0
LINE
  8
0
 62
     0
 10
0.00292969
 20
1.72233
 30
0.0
 11
0.00249567
 21
1.72336
 31
0.0
  0
LINE
  8
0
 62
     0
 10
0.00249567
 20
1.72336
 30
0.0
 11
0.000813803
 21
1.73318
 31
0.0
  0
LINE
  8
0
 62
     0
 10
0.000813803
 20
1.73318
 30
0.0
 11
0
 21
1.74511
 31
0.0
  0
LINE
  8
0
 62
     0
 10
0
 20
1.74511
 30
0.0
 11
0
 21
1.74908
 31
0.0
  0
LINE
  8
0
 62
     0
 10
0
 20
1.74908
 30
0.0
 11
0
 21
1.76867
 31
0.0
  0
LINE
  8
0
 62
     0
 10
0
 20
1.76867
 30
0.0
 11
0.0211046
 21
1.77393
 31
0.0
  0
LINE
  8
0
 62
     0
 10
0.0211046
 20
1.77393
 30
0.0
 11
0.0322265
 21
1.77675
 31
0.0
  0
LINE
  8
0
 62
     0
 10
0.0322265
 20
1.77675
 30
0.0
 11
0.123861
 21
1.787
 31
0.0
  0
LINE
  8
0
 62
     0
 10
0.123861
 20
1.787
 30
0.0
 11
0.244249
 21
1.79167
 31
0.0
  0
LINE
  8
0
 62
     0
 10
0.244249
 20
1.79167
 30
0.0
 11
0.284397
 21
1.79167
 31
0.0
  0
LINE
  8
0
 62
     0
 10
0.284397
 20
1.79167
 30
0.0
 11
0.302735
 21
1.79167
 31
0.0
  0
LINE
  8
0
 62
     0
 10
0.302735
 20
1.79167
 30
0.0
 11
0.35791
 21
1.79021
 31
0.0
  0
LINE
  8
0
 62
     0
 10
0.35791
 20
1.79021
 30
0.0
 11
0.416992
 21
1.78554
 31
0.0
  0
LINE
  8
0
 62
     0
 10
0.416992
 20
1.78554
 30
0.0
 11
0.463053
 21
1.77761
 31
0.0
  0
LINE
  8
0
 62
     0
 10
0.463053
 20
1.77761
 30
0.0
 11
0.489367
 21
1.76986
 31
0.0
  0
LINE
  8
0
 62
     0
 10
0.489367
 20
1.76986
 30
0.0
 11
0.497667
 21
1.76611
 31
0.0
  0
LINE
  8
0
 62
     0
 10
0.497667
 20
1.76611
 30
0.0
 11
0.512587
 21
1.75939
 31
0.0
  0
LINE
  8
0
 62
     0
 10
0.512587
 20
1.75939
 30
0.0
 11
0.511068
 21
1.62386
 31
0.0
  0
LINE
  8
0
 62
     0
 10
0.511068
 20
1.62386
 30
0.0
 11
0.510906
 21
1.60926
 31
0.0
  0
LINE
  8
0
 62
     0
 10
0.510906
 20
1.60926
 30
0.0
 11
0.510146
 21
1.56549
 31
0.0
  0
LINE
  8
0
 62
     0
 10
0.510146
 20
1.56549
 30
0.0
 11
0.509006
 21
1.52035
 31
0.0
  0
LINE
  8
0
 62
     0
 10
0.509006
 20
1.52035
 30
0.0
 11
0.507596
 21
1.4899
 31
0.0
  0
LINE
  8
0
 62
     0
 10
0.507596
 20
1.4899
 30
0.0
 11
0.506565
 21
1.47738
 31
0.0
  0
LINE
  8
0
 62
     0
 10
0.506565
 20
1.47738
 30
0.0
 11
0.506022
 21
1.47526
 31
0.0
  0
LINE
  8
0
 62
     0
 10
0.506022
 20
1.47526
 30
0.0
 11
0.504557
 21
1.46989
 31
0.0
  0
LINE
  8
0
 62
     0
 10
0.504557
 20
1.46989
 30
0.0
 11
0.490506
 21
1.44558
 31
0.0
  0
LINE
  8
0
 62
     0
 10
0.490506
 20
1.44558
 30
0.0
 11
0.469129
 21
1.42703
 31
0.0
  0
LINE
  8
0
 62
     0
 10
0.469129
 20
1.42703
 30
0.0
 11
0.464085
 21
1.42449
 31
0.0
  0
LINE
  8
0
 62
     0
 10
0.464085
 20
1.42449
 30
0.0
 11
0.462782
 21
1.42389
 31
0.0
  0
LINE
  8
0
 62
     0
 10
0.462782
 20
1.42389
 30
0.0
 11
0.450087
 21
1.41672
 31
0.0
  0
LINE
  8
0
 62
     0
 10
0.450087
 20
1.41672
 30
0.0
 11
0.433106
 21
1.40668
 31
0.0
  0
LINE
  8
0
 62
     0
 10
0.433106
 20
1.40668
 30
0.0
 11
0.429688
 21
1.40457
 31
0.0
  0
LINE
  8
0
 62
     0
 10
0.429688
 20
1.40457
 30
0.0
 11
0.426215
 21
1.4025
 31
0.0
  0
LINE
  8
0
 62
     0
 10
0.426215
 20
1.4025
 30
0.0
 11
0.404676
 21
1.38992
 31
0.0
  0
LINE
  8
0
 62
     0
 10
0.404676
 20
1.38992
 30
0.0
 11
0.383083
 21
1.37793
 31
0.0
  0
LINE
  8
0
 62
     0
 10
0.383083
 20
1.37793
 30
0.0
 11
0.379665
 21
1.37608
 31
0.0
  0
LINE
  8
0
 62
     0
 10
0.379665
 20
1.37608
 30
0.0
 11
0.376193
 21
1.37429
 31
0.0
  0
LINE
  8
0
 62
     0
 10
0.376193
 20
1.37429
 30
0.0
 11
0.361546
 21
1.36616
 31
0.0
  0
LINE
  8
0
 62
     0
 10
0.361546
 20
1.36616
 30
0.0
 11
0.353353
 21
1.36089
 31
0.0
  0
LINE
  8
0
 62
     0
 10
0.353353
 20
1.36089
 30
0.0
 11
0.353136
 21
1.36057
 31
0.0
  0
LINE
  8
0
 62
     0
 10
0.353136
 20
1.36057
 30
0.0
 11
0.352919
 21
1.36024
 31
0.0
  0
LINE
  8
0
 62
     0
 10
0.352919
 20
1.36024
 30
0.0
 11
0.33941
 21
1.35205
 31
0.0
  0
LINE
  8
0
 62
     0
 10
0.33941
 20
1.35205
 30
0.0
 11
0.337511
 21
1.35107
 31
0.0
  0
LINE
  8
0
 62
     0
 10
0.337511
 20
1.35107
 30
0.0
 11
0.335558
 21
1.3501
 31
0.0
  0
LINE
  8
0
 62
     0
 10
0.335558
 20
1.3501
 30
0.0
 11
0.312608
 21
1.33523
 31
0.0
  0
LINE
  8
0
 62
     0
 10
0.312608
 20
1.33523
 30
0.0
 11
0.310926
 21
1.33382
 31
0.0
  0
LINE
  8
0
 62
     0
 10
0.310926
 20
1.33382
 30
0.0
 11
0.30919
 21
1.33241
 31
0.0
  0
LINE
  8
0
 62
     0
 10
0.30919
 20
1.33241
 30
0.0
 11
0.296386
 21
1.3233
 31
0.0
  0
LINE
  8
0
 62
     0
 10
0.296386
 20
1.3233
 30
0.0
 11
0.281685
 21
1.31386
 31
0.0
  0
LINE
  8
0
 62
     0
 10
0.281685
 20
1.31386
 30
0.0
 11
0.279025
 21
1.31228
 31
0.0
  0
LINE
  8
0
 62
     0
 10
0.279025
 20
1.31228
 30
0.0
 11
0.273329
 21
1.30897
 31
0.0
  0
LINE
  8
0
 62
     0
 10
0.273329
 20
1.30897
 30
0.0
 11
0.255968
 21
1.29498
 31
0.0
  0
LINE
  8
0
 62
     0
 10
0.255968
 20
1.29498
 30
0.0
 11
0.25
 21
1.28109
 31
0.0
  0
LINE
  8
0
 62
     0
 10
0.25
 20
1.28109
 30
0.0
 11
0.25
 21
1.27642
 31
0.0
  0
LINE
  8
0
 62
     0
 10
0.25
 20
1.27642
 30
0.0
 11
0.25
 21
1.27365
 31
0.0
  0
LINE
  8
0
 62
     0
 10
0.25
 20
1.27365
 30
0.0
 11
0.252712
 21
1.26519
 31
0.0
  0
LINE
  8
0
 62
     0
 10
0.252712
 20
1.26519
 30
0.0
 11
0.261014
 21
1.2551
 31
0.0
  0
LINE
  8
0
 62
     0
 10
0.261014
 20
1.2551
 30
0.0
 11
0.263781
 21
1.25244
 31
0.0
  0
LINE
  8
0
 62
     0
 10
0.263781
 20
1.25244
 30
0.0
 11
0.265679
 21
1.25065
 31
0.0
  0
LINE
  8
0
 62
     0
 10
0.265679
 20
1.25065
 30
0.0
 11
0.276258
 21
1.24251
 31
0.0
  0
LINE
  8
0
 62
     0
 10
0.276258
 20
1.24251
 30
0.0
 11
0.285699
 21
1.23747
 31
0.0
  0
LINE
  8
0
 62
     0
 10
0.285699
 20
1.23747
 30
0.0
 11
0.287001
 21
1.23714
 31
0.0
  0
LINE
  8
0
 62
     0
 10
0.287001
 20
1.23714
 30
0.0
 11
0.288303
 21
1.23687
 31
0.0
  0
LINE
  8
0
 62
     0
 10
0.288303
 20
1.23687
 30
0.0
 11
0.299262
 21
1.23166
 31
0.0
  0
LINE
  8
0
 62
     0
 10
0.299262
 20
1.23166
 30
0.0
 11
0.29975
 21
1.23107
 31
0.0
  0
LINE
  8
0
 62
     0
 10
0.29975
 20
1.23107
 30
0.0
 11
0.300185
 21
1.23052
 31
0.0
  0
LINE
  8
0
 62
     0
 10
0.300185
 20
1.23052
 30
0.0
 11
0.314561
 21
1.22233
 31
0.0
  0
LINE
  8
0
 62
     0
 10
0.314561
 20
1.22233
 30
0.0
 11
0.316407
 21
1.22157
 31
0.0
  0
LINE
  8
0
 62
     0
 10
0.316407
 20
1.22157
 30
0.0
 11
0.318197
 21
1.22081
 31
0.0
  0
LINE
  8
0
 62
     0
 10
0.318197
 20
1.22081
 30
0.0
 11
0.331272
 21
1.21506
 31
0.0
  0
LINE
  8
0
 62
     0
 10
0.331272
 20
1.21506
 30
0.0
 11
0.345811
 21
1.20828
 31
0.0
  0
LINE
  8
0
 62
     0
 10
0.345811
 20
1.20828
 30
0.0
 11
0.348415
 21
1.20703
 31
0.0
  0
LINE
  8
0
 62
     0
 10
0.348415
 20
1.20703
 30
0.0
 11
0.353244
 21
1.2047
 31
0.0
  0
LINE
  8
0
 62
     0
 10
0.353244
 20
1.2047
 30
0.0
 11
0.368001
 21
1.19819
 31
0.0
  0
LINE
  8
0
 62
     0
 10
0.368001
 20
1.19819
 30
0.0
 11
0.387696
 21
1.19027
 31
0.0
  0
LINE
  8
0
 62
     0
 10
0.387696
 20
1.19027
 30
0.0
 11
0.404081
 21
1.18457
 31
0.0
  0
LINE
  8
0
 62
     0
 10
0.404081
 20
1.18457
 30
0.0
 11
0.411242
 21
1.18235
 31
0.0
  0
LINE
  8
0
 62
     0
 10
0.411242
 20
1.18235
 30
0.0
 11
0.413683
 21
1.18235
 31
0.0
  0
LINE
  8
0
 62
     0
 10
0.413683
 20
1.18235
 30
0.0
 11
0.418186
 21
1.18235
 31
0.0
  0
LINE
  8
0
 62
     0
 10
0.418186
 20
1.18235
 30
0.0
 11
0.430067
 21
1.17703
 31
0.0
  0
LINE
  8
0
 62
     0
 10
0.430067
 20
1.17703
 30
0.0
 11
0.431858
 21
1.17616
 31
0.0
  0
LINE
  8
0
 62
     0
 10
0.431858
 20
1.17616
 30
0.0
 11
0.433594
 21
1.17535
 31
0.0
  0
LINE
  8
0
 62
     0
 10
0.433594
 20
1.17535
 30
0.0
 11
0.45356
 21
1.16829
 31
0.0
  0
LINE
  8
0
 62
     0
 10
0.45356
 20
1.16829
 30
0.0
 11
0.454969
 21
1.16802
 31
0.0
  0
LINE
  8
0
 62
     0
 10
0.454969
 20
1.16802
 30
0.0
 11
0.456381
 21
1.16781
 31
0.0
  0
LINE
  8
0
 62
     0
 10
0.456381
 20
1.16781
 30
0.0
 11
0.474012
 21
1.15967
 31
0.0
  0
LINE
  8
0
 62
     0
 10
0.474012
 20
1.15967
 30
0.0
 11
0.475424
 21
1.15864
 31
0.0
  0
LINE
  8
0
 62
     0
 10
0.475424
 20
1.15864
 30
0.0
 11
0.476779
 21
1.15761
 31
0.0
  0
LINE
  8
0
 62
     0
 10
0.476779
 20
1.15761
 30
0.0
 11
0.488336
 21
1.1511
 31
0.0
  0
LINE
  8
0
 62
     0
 10
0.488336
 20
1.1511
 30
0.0
 11
0.492188
 21
1.1511
 31
0.0
  0
LINE
  8
0
 62
     0
 10
0.492188
 20
1.1511
 30
0.0
 11
0.495551
 21
1.1511
 31
0.0
  0
LINE
  8
0
 62
     0
 10
0.495551
 20
1.1511
 30
0.0
 11
0.504665
 21
1.14567
 31
0.0
  0
LINE
  8
0
 62
     0
 10
0.504665
 20
1.14567
 30
0.0
 11
0.505643
 21
1.1448
 31
0.0
  0
LINE
  8
0
 62
     0
 10
0.505643
 20
1.1448
 30
0.0
 11
0.507161
 21
1.14334
 31
0.0
  0
LINE
  8
0
 62
     0
 10
0.507161
 20
1.14334
 30
0.0
 11
0.511176
 21
1.13477
 31
0.0
  0
LINE
  8
0
 62
     0
 10
0.511176
 20
1.13477
 30
0.0
 11
0.511393
 21
1.11475
 31
0.0
  0
LINE
  8
0
 62
     0
 10
0.511393
 20
1.11475
 30
0.0
 11
0.511176
 21
1.10807
 31
0.0
  0
LINE
  8
0
 62
     0
 10
0.511176
 20
1.10807
 30
0.0
 11
0.511014
 21
1.1039
 31
0.0
  0
LINE
  8
0
 62
     0
 10
0.511014
 20
1.1039
 30
0.0
 11
0.509657
 21
1.08502
 31
0.0
  0
LINE
  8
0
 62
     0
 10
0.509657
 20
1.08502
 30
0.0
 11
0.508029
 21
1.07297
 31
0.0
  0
LINE
  8
0
 62
     0
 10
0.508029
 20
1.07297
 30
0.0
 11
0.507758
 21
1.07221
 31
0.0
  0
LINE
  8
0
 62
     0
 10
0.507758
 20
1.07221
 30
0.0
 11
0.507379
 21
1.0714
 31
0.0
  0
LINE
  8
0
 62
     0
 10
0.507379
 20
1.0714
 30
0.0
 11
0.508843
 21
1.06673
 31
0.0
  0
LINE
  8
0
 62
     0
 10
0.508843
 20
1.06673
 30
0.0
 11
0.509332
 21
1.06673
 31
0.0
  0
LINE
  8
0
 62
     0
 10
0.509332
 20
1.06673
 30
0.0
 11
0.509711
 21
1.06673
 31
0.0
  0
LINE
  8
0
 62
     0
 10
0.509711
 20
1.06673
 30
0.0
 11
0.511014
 21
1.06158
 31
0.0
  0
LINE
  8
0
 62
     0
 10
0.511014
 20
1.06158
 30
0.0
 11
0.511882
 21
1.04389
 31
0.0
  0
LINE
  8
0
 62
     0
 10
0.511882
 20
1.04389
 30
0.0
 11
0.511882
 21
1.01047
 31
0.0
  0
LINE
  8
0
 62
     0
 10
0.511882
 20
1.01047
 30
0.0
 11
0.511339
 21
0.971246
 31
0.0
  0
LINE
  8
0
 62
     0
 10
0.511339
 20
0.971246
 30
0.0
 11
0.511122
 21
0.958171
 31
0.0
  0
LINE
  8
0
 62
     0
 10
0.511122
 20
0.958171
 30
0.0
 11
0.510851
 21
0.94439
 31
0.0
  0
LINE
  8
0
 62
     0
 10
0.510851
 20
0.94439
 30
0.0
 11
0.510092
 21
0.902886
 31
0.0
  0
LINE
  8
0
 62
     0
 10
0.510092
 20
0.902886
 30
0.0
 11
0.509278
 21
0.862358
 31
0.0
  0
LINE
  8
0
 62
     0
 10
0.509278
 20
0.862358
 30
0.0
 11
0.508464
 21
0.834039
 31
0.0
  0
LINE
  8
0
 62
     0
 10
0.508464
 20
0.834039
 30
0.0
 11
0.507433
 21
0.815321
 31
0.0
  0
LINE
  8
0
 62
     0
 10
0.507433
 20
0.815321
 30
0.0
 11
0.505968
 21
0.803657
 31
0.0
  0
LINE
  8
0
 62
     0
 10
0.505968
 20
0.803657
 30
0.0
 11
0.503851
 21
0.796496
 31
0.0
  0
LINE
  8
0
 62
     0
 10
0.503851
 20
0.796496
 30
0.0
 11
0.500868
 21
0.791178
 31
0.0
  0
LINE
  8
0
 62
     0
 10
0.500868
 20
0.791178
 30
0.0
 11
0.497775
 21
0.786729
 31
0.0
  0
LINE
  8
0
 62
     0
 10
0.497775
 20
0.786729
 30
0.0
 11
0.496799
 21
0.785211
 31
0.0
  0
LINE
  8
0
 62
     0
 10
0.496799
 20
0.785211
 30
0.0
 11
0.495281
 21
0.782932
 31
0.0
  0
LINE
  8
0
 62
     0
 10
0.495281
 20
0.782932
 30
0.0
 11
0.487901
 21
0.771376
 31
0.0
  0
LINE
  8
0
 62
     0
 10
0.487901
 20
0.771376
 30
0.0
 11
0.482314
 21
0.762315
 31
0.0
  0
LINE
  8
0
 62
     0
 10
0.482314
 20
0.762315
 30
0.0
 11
0.481771
 21
0.761285
 31
0.0
  0
LINE
  8
0
 62
     0
 10
0.481771
 20
0.761285
 30
0.0
 11
0.481174
 21
0.760308
 31
0.0
  0
LINE
  8
0
 62
     0
 10
0.481174
 20
0.760308
 30
0.0
 11
0.471354
 21
0.751519
 31
0.0
  0
LINE
  8
0
 62
     0
 10
0.471354
 20
0.751519
 30
0.0
 11
0.470378
 21
0.751139
 31
0.0
  0
LINE
  8
0
 62
     0
 10
0.470378
 20
0.751139
 30
0.0
 11
0.469347
 21
0.75076
 31
0.0
  0
LINE
  8
0
 62
     0
 10
0.469347
 20
0.75076
 30
0.0
 11
0.461317
 21
0.745551
 31
0.0
  0
LINE
  8
0
 62
     0
 10
0.461317
 20
0.745551
 30
0.0
 11
0.461046
 21
0.745063
 31
0.0
  0
LINE
  8
0
 62
     0
 10
0.461046
 20
0.745063
 30
0.0
 11
0.460721
 21
0.744629
 31
0.0
  0
LINE
  8
0
 62
     0
 10
0.460721
 20
0.744629
 30
0.0
 11
0.454156
 21
0.741754
 31
0.0
  0
LINE
  8
0
 62
     0
 10
0.454156
 20
0.741754
 30
0.0
 11
0.451986
 21
0.741754
 31
0.0
  0
LINE
  8
0
 62
     0
 10
0.451986
 20
0.741754
 30
0.0
 11
0.44949
 21
0.741754
 31
0.0
  0
LINE
  8
0
 62
     0
 10
0.44949
 20
0.741754
 30
0.0
 11
0.442437
 21
0.739529
 31
0.0
  0
LINE
  8
0
 62
     0
 10
0.442437
 20
0.739529
 30
0.0
 11
0.442057
 21
0.73915
 31
0.0
  0
LINE
  8
0
 62
     0
 10
0.442057
 20
0.73915
 30
0.0
 11
0.441624
 21
0.738824
 31
0.0
  0
LINE
  8
0
 62
     0
 10
0.441624
 20
0.738824
 30
0.0
 11
0.427626
 21
0.733344
 31
0.0
  0
LINE
  8
0
 62
     0
 10
0.427626
 20
0.733344
 30
0.0
 11
0.425836
 21
0.732801
 31
0.0
  0
LINE
  8
0
 62
     0
 10
0.425836
 20
0.732801
 30
0.0
 11
0.42399
 21
0.732314
 31
0.0
  0
LINE
  8
0
 62
     0
 10
0.42399
 20
0.732314
 30
0.0
 11
0.409776
 21
0.723742
 31
0.0
  0
LINE
  8
0
 62
     0
 10
0.409776
 20
0.723742
 30
0.0
 11
0.409343
 21
0.722874
 31
0.0
  0
LINE
  8
0
 62
     0
 10
0.409343
 20
0.722874
 30
0.0
 11
0.408854
 21
0.72206
 31
0.0
  0
LINE
  8
0
 62
     0
 10
0.408854
 20
0.72206
 30
0.0
 11
0.403646
 21
0.716743
 31
0.0
  0
LINE
  8
0
 62
     0
 10
0.403646
 20
0.716743
 30
0.0
 11
0.401964
 21
0.716743
 31
0.0
  0
LINE
  8
0
 62
     0
 10
0.401964
 20
0.716743
 30
0.0
 11
0.399522
 21
0.716743
 31
0.0
  0
LINE
  8
0
 62
     0
 10
0.399522
 20
0.716743
 30
0.0
 11
0.393067
 21
0.711535
 31
0.0
  0
LINE
  8
0
 62
     0
 10
0.393067
 20
0.711535
 30
0.0
 11
0.392361
 21
0.710667
 31
0.0
  0
LINE
  8
0
 62
     0
 10
0.392361
 20
0.710667
 30
0.0
 11
0.391601
 21
0.709853
 31
0.0
  0
LINE
  8
0
 62
     0
 10
0.391601
 20
0.709853
 30
0.0
 11
0.379124
 21
0.702908
 31
0.0
  0
LINE
  8
0
 62
     0
 10
0.379124
 20
0.702908
 30
0.0
 11
0.377929
 21
0.702636
 31
0.0
  0
LINE
  8
0
 62
     0
 10
0.377929
 20
0.702636
 30
0.0
 11
0.376682
 21
0.702365
 31
0.0
  0
LINE
  8
0
 62
     0
 10
0.376682
 20
0.702365
 30
0.0
 11
0.362739
 21
0.695747
 31
0.0
  0
LINE
  8
0
 62
     0
 10
0.362739
 20
0.695747
 30
0.0
 11
0.361762
 21
0.694933
 31
0.0
  0
LINE
  8
0
 62
     0
 10
0.361762
 20
0.694933
 30
0.0
 11
0.360732
 21
0.694174
 31
0.0
  0
LINE
  8
0
 62
     0
 10
0.360732
 20
0.694174
 30
0.0
 11
0.341417
 21
0.687283
 31
0.0
  0
LINE
  8
0
 62
     0
 10
0.341417
 20
0.687283
 30
0.0
 11
0.339356
 21
0.686957
 31
0.0
  0
LINE
  8
0
 62
     0
 10
0.339356
 20
0.686957
 30
0.0
 11
0.33686
 21
0.686578
 31
0.0
  0
LINE
  8
0
 62
     0
 10
0.33686
 20
0.686578
 30
0.0
 11
0.315701
 21
0.677192
 31
0.0
  0
LINE
  8
0
 62
     0
 10
0.315701
 20
0.677192
 30
0.0
 11
0.314074
 21
0.675672
 31
0.0
  0
LINE
  8
0
 62
     0
 10
0.314074
 20
0.675672
 30
0.0
 11
0.312662
 21
0.674479
 31
0.0
  0
LINE
  8
0
 62
     0
 10
0.312662
 20
0.674479
 30
0.0
 11
0.29476
 21
0.662924
 31
0.0
  0
LINE
  8
0
 62
     0
 10
0.29476
 20
0.662924
 30
0.0
 11
0.293349
 21
0.662272
 31
0.0
  0
LINE
  8
0
 62
     0
 10
0.293349
 20
0.662272
 30
0.0
 11
0.290636
 21
0.661133
 31
0.0
  0
LINE
  8
0
 62
     0
 10
0.290636
 20
0.661133
 30
0.0
 11
0.278592
 21
0.652453
 31
0.0
  0
LINE
  8
0
 62
     0
 10
0.278592
 20
0.652453
 30
0.0
 11
0.271864
 21
0.644314
 31
0.0
  0
LINE
  8
0
 62
     0
 10
0.271864
 20
0.644314
 30
0.0
 11
0.271864
 21
0.641601
 31
0.0
  0
LINE
  8
0
 62
     0
 10
0.271864
 20
0.641601
 30
0.0
 11
0.271864
 21
0.640082
 31
0.0
  0
LINE
  8
0
 62
     0
 10
0.271864
 20
0.640082
 30
0.0
 11
0.265082
 21
0.635906
 31
0.0
  0
LINE
  8
0
 62
     0
 10
0.265082
 20
0.635906
 30
0.0
 11
0.264051
 21
0.635471
 31
0.0
  0
LINE
  8
0
 62
     0
 10
0.264051
 20
0.635471
 30
0.0
 11
0.262967
 21
0.635092
 31
0.0
  0
LINE
  8
0
 62
     0
 10
0.262967
 20
0.635092
 30
0.0
 11
0.255968
 21
0.629124
 31
0.0
  0
LINE
  8
0
 62
     0
 10
0.255968
 20
0.629124
 30
0.0
 11
0.255914
 21
0.628526
 31
0.0
  0
LINE
  8
0
 62
     0
 10
0.255914
 20
0.628526
 30
0.0
 11
0.255317
 21
0.621365
 31
0.0
  0
LINE
  8
0
 62
     0
 10
0.255317
 20
0.621365
 30
0.0
 11
0.262967
 21
0.582628
 31
0.0
  0
LINE
  8
0
 62
     0
 10
0.262967
 20
0.582628
 30
0.0
 11
0.281088
 21
0.549696
 31
0.0
  0
LINE
  8
0
 62
     0
 10
0.281088
 20
0.549696
 30
0.0
 11
0.285807
 21
0.54541
 31
0.0
  0
LINE
  8
0
 62
     0
 10
0.285807
 20
0.54541
 30
0.0
 11
0.287272
 21
0.544054
 31
0.0
  0
LINE
  8
0
 62
     0
 10
0.287272
 20
0.544054
 30
0.0
 11
0.30051
 21
0.528103
 31
0.0
  0
LINE
  8
0
 62
     0
 10
0.30051
 20
0.528103
 30
0.0
 11
0.301161
 21
0.52691
 31
0.0
  0
LINE
  8
0
 62
     0
 10
0.301161
 20
0.52691
 30
0.0
 11
0.301758
 21
0.525771
 31
0.0
  0
LINE
  8
0
 62
     0
 10
0.301758
 20
0.525771
 30
0.0
 11
0.316569
 21
0.510254
 31
0.0
  0
LINE
  8
0
 62
     0
 10
0.316569
 20
0.510254
 30
0.0
 11
0.318306
 21
0.508951
 31
0.0
  0
LINE
  8
0
 62
     0
 10
0.318306
 20
0.508951
 30
0.0
 11
0.320042
 21
0.507704
 31
0.0
  0
LINE
  8
0
 62
     0
 10
0.320042
 20
0.507704
 30
0.0
 11
0.334364
 21
0.492839
 31
0.0
  0
LINE
  8
0
 62
     0
 10
0.334364
 20
0.492839
 30
0.0
 11
0.334907
 21
0.491754
 31
0.0
  0
LINE
  8
0
 62
     0
 10
0.334907
 20
0.491754
 30
0.0
 11
0.335449
 21
0.490722
 31
0.0
  0
LINE
  8
0
 62
     0
 10
0.335449
 20
0.490722
 30
0.0
 11
0.340929
 21
0.482585
 31
0.0
  0
LINE
  8
0
 62
     0
 10
0.340929
 20
0.482585
 30
0.0
 11
0.348415
 21
0.473144
 31
0.0
  0
LINE
  8
0
 62
     0
 10
0.348415
 20
0.473144
 30
0.0
 11
0.349935
 21
0.471408
 31
0.0
  0
LINE
  8
0
 62
     0
 10
0.349935
 20
0.471408
 30
0.0
 11
0.3514
 21
0.469726
 31
0.0
  0
LINE
  8
0
 62
     0
 10
0.3514
 20
0.469726
 30
0.0
 11
0.370335
 21
0.447103
 31
0.0
  0
LINE
  8
0
 62
     0
 10
0.370335
 20
0.447103
 30
0.0
 11
0.371853
 21
0.445204
 31
0.0
  0
LINE
  8
0
 62
     0
 10
0.371853
 20
0.445204
 30
0.0
 11
0.373318
 21
0.44336
 31
0.0
  0
LINE
  8
0
 62
     0
 10
0.373318
 20
0.44336
 30
0.0
 11
0.38086
 21
0.434571
 31
0.0
  0
LINE
  8
0
 62
     0
 10
0.38086
 20
0.434571
 30
0.0
 11
0.38661
 21
0.428549
 31
0.0
  0
LINE
  8
0
 62
     0
 10
0.38661
 20
0.428549
 30
0.0
 11
0.387261
 21
0.42806
 31
0.0
  0
LINE
  8
0
 62
     0
 10
0.387261
 20
0.42806
 30
0.0
 11
0.390408
 21
0.425564
 31
0.0
  0
LINE
  8
0
 62
     0
 10
0.390408
 20
0.425564
 30
0.0
 11
0.399414
 21
0.416992
 31
0.0
  0
LINE
  8
0
 62
     0
 10
0.399414
 20
0.416992
 30
0.0
 11
0.413954
 21
0.402072
 31
0.0
  0
LINE
  8
0
 62
     0
 10
0.413954
 20
0.402072
 30
0.0
 11
0.426107
 21
0.388456
 31
0.0
  0
LINE
  8
0
 62
     0
 10
0.426107
 20
0.388456
 30
0.0
 11
0.431261
 21
0.382867
 31
0.0
  0
LINE
  8
0
 62
     0
 10
0.431261
 20
0.382867
 30
0.0
 11
0.431261
 21
0.380968
 31
0.0
  0
LINE
  8
0
 62
     0
 10
0.431261
 20
0.380968
 30
0.0
 11
0.431261
 21
0.377983
 31
0.0
  0
LINE
  8
0
 62
     0
 10
0.431261
 20
0.377983
 30
0.0
 11
0.436632
 21
0.370117
 31
0.0
  0
LINE
  8
0
 62
     0
 10
0.436632
 20
0.370117
 30
0.0
 11
0.4375
 21
0.369032
 31
0.0
  0
LINE
  8
0
 62
     0
 10
0.4375
 20
0.369032
 30
0.0
 11
0.438314
 21
0.367947
 31
0.0
  0
LINE
  8
0
 62
     0
 10
0.438314
 20
0.367947
 30
0.0
 11
0.443739
 21
0.361165
 31
0.0
  0
LINE
  8
0
 62
     0
 10
0.443739
 20
0.361165
 30
0.0
 11
0.443739
 21
0.358886
 31
0.0
  0
LINE
  8
0
 62
     0
 10
0.443739
 20
0.358886
 30
0.0
 11
0.443739
 21
0.355903
 31
0.0
  0
LINE
  8
0
 62
     0
 10
0.443739
 20
0.355903
 30
0.0
 11
0.447428
 21
0.348253
 31
0.0
  0
LINE
  8
0
 62
     0
 10
0.447428
 20
0.348253
 30
0.0
 11
0.448025
 21
0.346897
 31
0.0
  0
LINE
  8
0
 62
     0
 10
0.448025
 20
0.346897
 30
0.0
 11
0.449599
 21
0.343207
 31
0.0
  0
LINE
  8
0
 62
     0
 10
0.449599
 20
0.343207
 30
0.0
 11
0.4528
 21
0.328993
 31
0.0
  0
LINE
  8
0
 62
     0
 10
0.4528
 20
0.328993
 30
0.0
 11
0.456814
 21
0.302843
 31
0.0
  0
LINE
  8
0
 62
     0
 10
0.456814
 20
0.302843
 30
0.0
 11
0.459039
 21
0.276801
 31
0.0
  0
LINE
  8
0
 62
     0
 10
0.459039
 20
0.276801
 30
0.0
 11
0.45931
 21
0.262642
 31
0.0
  0
LINE
  8
0
 62
     0
 10
0.45931
 20
0.262642
 30
0.0
 11
0.458604
 21
0.258951
 31
0.0
  0
LINE
  8
0
 62
     0
 10
0.458604
 20
0.258951
 30
0.0
 11
0.458225
 21
0.257269
 31
0.0
  0
LINE
  8
0
 62
     0
 10
0.458225
 20
0.257269
 30
0.0
 11
0.456108
 21
0.241644
 31
0.0
  0
LINE
  8
0
 62
     0
 10
0.456108
 20
0.241644
 30
0.0
 11
0.456108
 21
0.236382
 31
0.0
  0
LINE
  8
0
 62
     0
 10
0.456108
 20
0.236382
 30
0.0
 11
0.456054
 21
0.235026
 31
0.0
  0
LINE
  8
0
 62
     0
 10
0.456054
 20
0.235026
 30
0.0
 11
0.453396
 21
0.224772
 31
0.0
  0
LINE
  8
0
 62
     0
 10
0.453396
 20
0.224772
 30
0.0
 11
0.453017
 21
0.224501
 31
0.0
  0
LINE
  8
0
 62
     0
 10
0.453017
 20
0.224501
 30
0.0
 11
0.452582
 21
0.224283
 31
0.0
  0
LINE
  8
0
 62
     0
 10
0.452582
 20
0.224283
 30
0.0
 11
0.449978
 21
0.217774
 31
0.0
  0
LINE
  8
0
 62
     0
 10
0.449978
 20
0.217774
 30
0.0
 11
0.449978
 21
0.215603
 31
0.0
  0
LINE
  8
0
 62
     0
 10
0.449978
 20
0.215603
 30
0.0
 11
0.449978
 21
0.213108
 31
0.0
  0
LINE
  8
0
 62
     0
 10
0.449978
 20
0.213108
 30
0.0
 11
0.447646
 21
0.206054
 31
0.0
  0
LINE
  8
0
 62
     0
 10
0.447646
 20
0.206054
 30
0.0
 11
0.447265
 21
0.205621
 31
0.0
  0
LINE
  8
0
 62
     0
 10
0.447265
 20
0.205621
 30
0.0
 11
0.446886
 21
0.20524
 31
0.0
  0
LINE
  8
0
 62
     0
 10
0.446886
 20
0.20524
 30
0.0
 11
0.443739
 21
0.198514
 31
0.0
  0
LINE
  8
0
 62
     0
 10
0.443739
 20
0.198514
 30
0.0
 11
0.439888
 21
0.187879
 31
0.0
  0
LINE
  8
0
 62
     0
 10
0.439888
 20
0.187879
 30
0.0
 11
0.439182
 21
0.185493
 31
0.0
  0
LINE
  8
0
 62
     0
 10
0.439182
 20
0.185493
 30
0.0
 11
0.438422
 21
0.18316
 31
0.0
  0
LINE
  8
0
 62
     0
 10
0.438422
 20
0.18316
 30
0.0
 11
0.434896
 21
0.171983
 31
0.0
  0
LINE
  8
0
 62
     0
 10
0.434896
 20
0.171983
 30
0.0
 11
0.432237
 21
0.164279
 31
0.0
  0
LINE
  8
0
 62
     0
 10
0.432237
 20
0.164279
 30
0.0
 11
0.432021
 21
0.163629
 31
0.0
  0
LINE
  8
0
 62
     0
 10
0.432021
 20
0.163629
 30
0.0
 11
0.431749
 21
0.162978
 31
0.0
  0
LINE
  8
0
 62
     0
 10
0.431749
 20
0.162978
 30
0.0
 11
0.429417
 21
0.152453
 31
0.0
  0
LINE
  8
0
 62
     0
 10
0.429417
 20
0.152453
 30
0.0
 11
0.429308
 21
0.151367
 31
0.0
  0
LINE
  8
0
 62
     0
 10
0.429308
 20
0.151367
 30
0.0
 11
0.429144
 21
0.150336
 31
0.0
  0
LINE
  8
0
 62
     0
 10
0.429144
 20
0.150336
 30
0.0
 11
0.425293
 21
0.141928
 31
0.0
  0
LINE
  8
0
 62
     0
 10
0.425293
 20
0.141928
 30
0.0
 11
0.424804
 21
0.141601
 31
0.0
  0
LINE
  8
0
 62
     0
 10
0.424804
 20
0.141601
 30
0.0
 11
0.424263
 21
0.141331
 31
0.0
  0
LINE
  8
0
 62
     0
 10
0.424263
 20
0.141331
 30
0.0
 11
0.420301
 21
0.12793
 31
0.0
  0
LINE
  8
0
 62
     0
 10
0.420301
 20
0.12793
 30
0.0
 11
0.420193
 21
0.126085
 31
0.0
  0
LINE
  8
0
 62
     0
 10
0.420193
 20
0.126085
 30
0.0
 11
0.420031
 21
0.124295
 31
0.0
  0
LINE
  8
0
 62
     0
 10
0.420031
 20
0.124295
 30
0.0
 11
0.416288
 21
0.109972
 31
0.0
  0
LINE
  8
0
 62
     0
 10
0.416288
 20
0.109972
 30
0.0
 11
0.415853
 21
0.109483
 31
0.0
  0
LINE
  8
0
 62
     0
 10
0.415853
 20
0.109483
 30
0.0
 11
0.415365
 21
0.109049
 31
0.0
  0
LINE
  8
0
 62
     0
 10
0.415365
 20
0.109049
 30
0.0
 11
0.412489
 21
0.103733
 31
0.0
  0
LINE
  8
0
 62
     0
 10
0.412489
 20
0.103733
 30
0.0
 11
0.412489
 21
0.101942
 31
0.0
  0
LINE
  8
0
 62
     0
 10
0.412489
 20
0.101942
 30
0.0
 11
0.412489
 21
0.0997721
 31
0.0
  0
LINE
  8
0
 62
     0
 10
0.412489
 20
0.0997721
 30
0.0
 11
0.409722
 21
0.093099
 31
0.0
  0
LINE
  8
0
 62
     0
 10
0.409722
 20
0.093099
 30
0.0
 11
0.404351
 21
0.0804579
 31
0.0
  0
LINE
  8
0
 62
     0
 10
0.404351
 20
0.0804579
 30
0.0
 11
0.403103
 21
0.077691
 31
0.0
  0
LINE
  8
0
 62
     0
 10
0.403103
 20
0.077691
 30
0.0
 11
0.401801
 21
0.074924
 31
0.0
  0
LINE
  8
0
 62
     0
 10
0.401801
 20
0.074924
 30
0.0
 11
0.396485
 21
0.0617404
 31
0.0
  0
LINE
  8
0
 62
     0
 10
0.396485
 20
0.0617404
 30
0.0
 11
0.393772
 21
0.0540365
 31
0.0
  0
LINE
  8
0
 62
     0
 10
0.393772
 20
0.0540365
 30
0.0
 11
0.393772
 21
0.0514324
 31
0.0
  0
LINE
  8
0
 62
     0
 10
0.393772
 20
0.0514324
 30
0.0
 11
0.393772
 21
0.0494792
 31
0.0
  0
LINE
  8
0
 62
     0
 10
0.393772
 20
0.0494792
 30
0.0
 11
0.391222
 21
0.0437283
 31
0.0
  0
LINE
  8
0
 62
     0
 10
0.391222
 20
0.0437283
 30
0.0
 11
0.390842
 21
0.0434571
 31
0.0
  0
LINE
  8
0
 62
     0
 10
0.390842
 20
0.0434571
 30
0.0
 11
0.390408
 21
0.04324
 31
0.0
  0
LINE
  8
0
 62
     0
 10
0.390408
 20
0.04324
 30
0.0
 11
0.386339
 21
0.0342882
 31
0.0
  0
LINE
  8
0
 62
     0
 10
0.386339
 20
0.0342882
 30
0.0
 11
0.386122
 21
0.0330946
 31
0.0
  0
LINE
  8
0
 62
     0
 10
0.386122
 20
0.0330946
 30
0.0
 11
0.385417
 21
0.0300022
 31
0.0
  0
LINE
  8
0
 62
     0
 10
0.385417
 20
0.0300022
 30
0.0
 11
0.373264
 21
0.0171442
 31
0.0
  0
LINE
  8
0
 62
     0
 10
0.373264
 20
0.0171442
 30
0.0
 11
0.355469
 21
0.0104709
 31
0.0
  0
LINE
  8
0
 62
     0
 10
0.355469
 20
0.0104709
 30
0.0
 11
0.349556
 21
0.0104709
 31
0.0
  0
LINE
  8
0
 62
     0
 10
0.349556
 20
0.0104709
 30
0.0
 11
0.345594
 21
0.0104709
 31
0.0
  0
LINE
  8
0
 62
     0
 10
0.345594
 20
0.0104709
 30
0.0
 11
0.333985
 21
0.0118815
 31
0.0
  0
LINE
  8
0
 62
     0
 10
0.333985
 20
0.0118815
 30
0.0
 11
0.333768
 21
0.0120985
 31
0.0
  0
ENDSEC
  0
EOF
