  0
SECTION
  2
HEADER
  9
$ACADVER
  1
AC1009
  9
$FILLMODE
 70
 0
  9
$SPLFRAME
 70
 1
  9
$EXTMIN
 10
0
 20
0
 30
0.0
  9
$EXTMAX
 10
41.6667
 20
41.6667
 30
0.0
  0
ENDSEC
  0
SECTION
  2
TABLES
  0
TABLE
  2
LAYER
 70
1
  0
LAYER
  2
0
 70
     0
 62
     7
  6
CONTINUOUS
  0
ENDTAB
  0
ENDSEC
  0
SECTION
  2
ENTITIES
  0
LINE
  8
0
 62
     0
 10
0.367296
 20
0.132704
 30
0.0
 11
0.359267
 21
0.124729
 31
0.0
  0
LINE
  8
0
 62
     0
 10
0.359267
 20
0.124729
 30
0.0
 11
0.335775
 21
0.100206
 31
0.0
  0
LINE
  8
0
 62
     0
 10
0.335775
 20
0.100206
 30
0.0
 11
0.319499
 21
0.0793728
 31
0.0
  0
LINE
  8
0
 62
     0
 10
0.319499
 20
0.0793728
 30
0.0
 11
0.315321
 21
0.0651042
 31
0.0
  0
LINE
  8
0
 62
     0
 10
0.315321
 20
0.0651042
 30
0.0
 11
0.318576
 21
0.0551215
 31
0.0
  0
LINE
  8
0
 62
     0
 10
0.318576
 20
0.0551215
 30
0.0
 11
0.320421
 21
0.0521918
 31
0.0
  0
LINE
  8
0
 62
     0
 10
0.320421
 20
0.0521918
 30
0.0
 11
0.323676
 21
0.0469293
 31
0.0
  0
LINE
  8
0
 62
     0
 10
0.323676
 20
0.0469293
 30
0.0
 11
0.331272
 21
0.0296767
 31
0.0
  0
LINE
  8
0
 62
     0
 10
0.331272
 20
0.0296767
 30
0.0
 11
0.32449
 21
0.0170899
 31
0.0
  0
LINE
  8
0
 62
     0
 10
0.32449
 20
0.0170899
 30
0.0
 11
0.294108
 21
0.0116102
 31
0.0
  0
LINE
  8
0
 62
     0
 10
0.294108
 20
0.0116102
 30
0.0
 11
0.249294
 21
0.0104167
 31
0.0
  0
LINE
  8
0
 62
     0
 10
0.249294
 20
0.0104167
 30
0.0
 11
0.234375
 21
0.0104167
 31
0.0
  0
LINE
  8
0
 62
     0
 10
0.234375
 20
0.0104167
 30
0.0
 11
0.224718
 21
0.0104167
 31
0.0
  0
LINE
  8
0
 62
     0
 10
0.224718
 20
0.0104167
 30
0.0
 11
0.19591
 21
0.0111762
 31
0.0
  0
LINE
  8
0
 62
     0
 10
0.19591
 20
0.0111762
 30
0.0
 11
0.164442
 21
0.0132378
 31
0.0
  0
LINE
  8
0
 62
     0
 10
0.164442
 20
0.0132378
 30
0.0
 11
0.143175
 21
0.0162761
 31
0.0
  0
LINE
  8
0
 62
     0
 10
0.143175
 20
0.0162761
 30
0.0
 11
0.135417
 21
0.0190429
 31
0.0
  0
LINE
  8
0
 62
     0
 10
0.135417
 20
0.0190429
 30
0.0
 11
0.135417
 21
0.0199653
 31
0.0
  0
LINE
  8
0
 62
     0
 10
0.135417
 20
0.0199653
 30
0.0
 11
0.135417
 21
0.0253364
 31
0.0
  0
LINE
  8
0
 62
     0
 10
0.135417
 20
0.0253364
 30
0.0
 11
0.141656
 21
0.0412869
 31
0.0
  0
LINE
  8
0
 62
     0
 10
0.141656
 20
0.0412869
 30
0.0
 11
0.153754
 21
0.0723199
 31
0.0
  0
LINE
  8
0
 62
     0
 10
0.153754
 20
0.0723199
 30
0.0
 11
0.156685
 21
0.0791015
 31
0.0
  0
LINE
  8
0
 62
     0
 10
0.156685
 20
0.0791015
 30
0.0
 11
0.15956
 21
0.0859375
 31
0.0
  0
LINE
  8
0
 62
     0
 10
0.15956
 20
0.0859375
 30
0.0
 11
0.170247
 21
0.117839
 31
0.0
  0
LINE
  8
0
 62
     0
 10
0.170247
 20
0.117839
 30
0.0
 11
0.173719
 21
0.139594
 31
0.0
  0
LINE
  8
0
 62
     0
 10
0.173719
 20
0.139594
 30
0.0
 11
0.173068
 21
0.141331
 31
0.0
  0
LINE
  8
0
 62
     0
 10
0.173068
 20
0.141331
 30
0.0
 11
0.172364
 21
0.143175
 31
0.0
  0
LINE
  8
0
 62
     0
 10
0.172364
 20
0.143175
 30
0.0
 11
0.14784
 21
0.152561
 31
0.0
  0
LINE
  8
0
 62
     0
 10
0.14784
 20
0.152561
 30
0.0
 11
0.102865
 21
0.160482
 31
0.0
  0
LINE
  8
0
 62
     0
 10
0.102865
 20
0.160482
 30
0.0
 11
0.0919054
 21
0.161567
 31
0.0
  0
LINE
  8
0
 62
     0
 10
0.0919054
 20
0.161567
 30
0.0
 11
0.0843099
 21
0.162326
 31
0.0
  0
LINE
  8
0
 62
     0
 10
0.0843099
 20
0.162326
 30
0.0
 11
0.0616863
 21
0.165474
 31
0.0
  0
LINE
  8
0
 62
     0
 10
0.0616863
 20
0.165474
 30
0.0
 11
0.0357531
 21
0.17041
 31
0.0
  0
LINE
  8
0
 62
     0
 10
0.0357531
 20
0.17041
 30
0.0
 11
0.0169271
 21
0.175782
 31
0.0
  0
LINE
  8
0
 62
     0
 10
0.0169271
 20
0.175782
 30
0.0
 11
0.00900608
 21
0.179362
 31
0.0
  0
LINE
  8
0
 62
     0
 10
0.00900608
 20
0.179362
 30
0.0
 11
0.00797526
 21
0.180935
 31
0.0
  0
LINE
  8
0
 62
     0
 10
0.00797526
 20
0.180935
 30
0.0
 11
0.00477431
 21
0.185872
 31
0.0
  0
LINE
  8
0
 62
     0
 10
0.00477431
 20
0.185872
 30
0.0
 11
0.00135634
 21
0.207844
 31
0.0
  0
LINE
  8
0
 62
     0
 10
0.00135634
 20
0.207844
 30
0.0
 11
0.000379775
 21
0.248643
 31
0.0
  0
LINE
  8
0
 62
     0
 10
0.000379775
 20
0.248643
 30
0.0
 11
0.00450304
 21
0.287869
 31
0.0
  0
LINE
  8
0
 62
     0
 10
0.00450304
 20
0.287869
 30
0.0
 11
0.00949436
 21
0.307183
 31
0.0
  0
LINE
  8
0
 62
     0
 10
0.00949436
 20
0.307183
 30
0.0
 11
0.0130208
 21
0.30995
 31
0.0
  0
LINE
  8
0
 62
     0
 10
0.0130208
 20
0.30995
 30
0.0
 11
0.0148112
 21
0.311415
 31
0.0
  0
LINE
  8
0
 62
     0
 10
0.0148112
 20
0.311415
 30
0.0
 11
0.0258789
 21
0.314561
 31
0.0
  0
LINE
  8
0
 62
     0
 10
0.0258789
 20
0.314561
 30
0.0
 11
0.0512696
 21
0.31939
 31
0.0
  0
LINE
  8
0
 62
     0
 10
0.0512696
 20
0.31939
 30
0.0
 11
0.0855035
 21
0.323893
 31
0.0
  0
LINE
  8
0
 62
     0
 10
0.0855035
 20
0.323893
 30
0.0
 11
0.115126
 21
0.326714
 31
0.0
  0
LINE
  8
0
 62
     0
 10
0.115126
 20
0.326714
 30
0.0
 11
0.125
 21
0.327419
 31
0.0
  0
LINE
  8
0
 62
     0
 10
0.125
 20
0.327419
 30
0.0
 11
0.136827
 21
0.328287
 31
0.0
  0
LINE
  8
0
 62
     0
 10
0.136827
 20
0.328287
 30
0.0
 11
0.172472
 21
0.330729
 31
0.0
  0
LINE
  8
0
 62
     0
 10
0.172472
 20
0.330729
 30
0.0
 11
0.207411
 21
0.333876
 31
0.0
  0
LINE
  8
0
 62
     0
 10
0.207411
 20
0.333876
 30
0.0
 11
0.231663
 21
0.338433
 31
0.0
  0
LINE
  8
0
 62
     0
 10
0.231663
 20
0.338433
 30
0.0
 11
0.247125
 21
0.346029
 31
0.0
  0
LINE
  8
0
 62
     0
 10
0.247125
 20
0.346029
 30
0.0
 11
0.25586
 21
0.358182
 31
0.0
  0
LINE
  8
0
 62
     0
 10
0.25586
 20
0.358182
 30
0.0
 11
0.259657
 21
0.376519
 31
0.0
  0
LINE
  8
0
 62
     0
 10
0.259657
 20
0.376519
 30
0.0
 11
0.260525
 21
0.402615
 31
0.0
  0
LINE
  8
0
 62
     0
 10
0.260525
 20
0.402615
 30
0.0
 11
0.260417
 21
0.429144
 31
0.0
  0
LINE
  8
0
 62
     0
 10
0.260417
 20
0.429144
 30
0.0
 11
0.260417
 21
0.437989
 31
0.0
  0
LINE
  8
0
 62
     0
 10
0.260417
 20
0.437989
 30
0.0
 11
0.260417
 21
0.446615
 31
0.0
  0
LINE
  8
0
 62
     0
 10
0.260417
 20
0.446615
 30
0.0
 11
0.260742
 21
0.472385
 31
0.0
  0
LINE
  8
0
 62
     0
 10
0.260742
 20
0.472385
 30
0.0
 11
0.260417
 21
0.497396
 31
0.0
  0
LINE
  8
0
 62
     0
 10
0.260417
 20
0.497396
 30
0.0
 11
0.257596
 21
0.514919
 31
0.0
  0
LINE
  8
0
 62
     0
 10
0.257596
 20
0.514919
 30
0.0
 11
0.250271
 21
0.526747
 31
0.0
  0
LINE
  8
0
 62
     0
 10
0.250271
 20
0.526747
 30
0.0
 11
0.2366
 21
0.534722
 31
0.0
  0
LINE
  8
0
 62
     0
 10
0.2366
 20
0.534722
 30
0.0
 11
0.214572
 21
0.540582
 31
0.0
  0
LINE
  8
0
 62
     0
 10
0.214572
 20
0.540582
 30
0.0
 11
0.182346
 21
0.546169
 31
0.0
  0
LINE
  8
0
 62
     0
 10
0.182346
 20
0.546169
 30
0.0
 11
0.149089
 21
0.551486
 31
0.0
  0
LINE
  8
0
 62
     0
 10
0.149089
 20
0.551486
 30
0.0
 11
0.138021
 21
0.553276
 31
0.0
  0
LINE
  8
0
 62
     0
 10
0.138021
 20
0.553276
 30
0.0
 11
0.127387
 21
0.555067
 31
0.0
  0
LINE
  8
0
 62
     0
 10
0.127387
 20
0.555067
 30
0.0
 11
0.0955946
 21
0.560981
 31
0.0
  0
LINE
  8
0
 62
     0
 10
0.0955946
 20
0.560981
 30
0.0
 11
0.0730794
 21
0.568143
 31
0.0
  0
LINE
  8
0
 62
     0
 10
0.0730794
 20
0.568143
 30
0.0
 11
0.0640733
 21
0.578179
 31
0.0
  0
LINE
  8
0
 62
     0
 10
0.0640733
 20
0.578179
 30
0.0
 11
0.0625
 21
0.590494
 31
0.0
  0
LINE
  8
0
 62
     0
 10
0.0625
 20
0.590494
 30
0.0
 11
0.0625
 21
0.594564
 31
0.0
  0
LINE
  8
0
 62
     0
 10
0.0625
 20
0.594564
 30
0.0
 11
0.0625
 21
0.605903
 31
0.0
  0
LINE
  8
0
 62
     0
 10
0.0625
 20
0.605903
 30
0.0
 11
0.0555556
 21
0.639811
 31
0.0
  0
LINE
  8
0
 62
     0
 10
0.0555556
 20
0.639811
 30
0.0
 11
0.0413411
 21
0.65625
 31
0.0
  0
LINE
  8
0
 62
     0
 10
0.0413411
 20
0.65625
 30
0.0
 11
0.0366211
 21
0.65625
 31
0.0
  0
LINE
  8
0
 62
     0
 10
0.0366211
 20
0.65625
 30
0.0
 11
0.0328776
 21
0.65625
 31
0.0
  0
LINE
  8
0
 62
     0
 10
0.0328776
 20
0.65625
 30
0.0
 11
0.0218099
 21
0.661025
 31
0.0
  0
LINE
  8
0
 62
     0
 10
0.0218099
 20
0.661025
 30
0.0
 11
0.0101454
 21
0.673122
 31
0.0
  0
LINE
  8
0
 62
     0
 10
0.0101454
 20
0.673122
 30
0.0
 11
0.00368924
 21
0.68929
 31
0.0
  0
LINE
  8
0
 62
     0
 10
0.00368924
 20
0.68929
 30
0.0
 11
0.00330946
 21
0.702365
 31
0.0
  0
LINE
  8
0
 62
     0
 10
0.00330946
 20
0.702365
 30
0.0
 11
0.00455729
 21
0.706272
 31
0.0
  0
LINE
  8
0
 62
     0
 10
0.00455729
 20
0.706272
 30
0.0
 11
0.0053711
 21
0.708985
 31
0.0
  0
LINE
  8
0
 62
     0
 10
0.0053711
 20
0.708985
 30
0.0
 11
0.0165474
 21
0.723687
 31
0.0
  0
LINE
  8
0
 62
     0
 10
0.0165474
 20
0.723687
 30
0.0
 11
0.0330946
 21
0.736165
 31
0.0
  0
LINE
  8
0
 62
     0
 10
0.0330946
 20
0.736165
 30
0.0
 11
0.0366754
 21
0.737793
 31
0.0
  0
LINE
  8
0
 62
     0
 10
0.0366754
 20
0.737793
 30
0.0
 11
0.0426432
 21
0.74056
 31
0.0
  0
LINE
  8
0
 62
     0
 10
0.0426432
 20
0.74056
 30
0.0
 11
0.0572374
 21
0.756131
 31
0.0
  0
LINE
  8
0
 62
     0
 10
0.0572374
 20
0.756131
 30
0.0
 11
0.0630968
 21
0.783311
 31
0.0
  0
LINE
  8
0
 62
     0
 10
0.0630968
 20
0.783311
 30
0.0
 11
0.0543619
 21
0.815918
 31
0.0
  0
LINE
  8
0
 62
     0
 10
0.0543619
 20
0.815918
 30
0.0
 11
0.0380317
 21
0.842828
 31
0.0
  0
LINE
  8
0
 62
     0
 10
0.0380317
 20
0.842828
 30
0.0
 11
0.03125
 21
0.850532
 31
0.0
  0
LINE
  8
0
 62
     0
 10
0.03125
 20
0.850532
 30
0.0
 11
0.0268554
 21
0.855578
 31
0.0
  0
LINE
  8
0
 62
     0
 10
0.0268554
 20
0.855578
 30
0.0
 11
0.0147026
 21
0.871474
 31
0.0
  0
LINE
  8
0
 62
     0
 10
0.0147026
 20
0.871474
 30
0.0
 11
0.00526258
 21
0.891114
 31
0.0
  0
LINE
  8
0
 62
     0
 10
0.00526258
 20
0.891114
 30
0.0
 11
0.000976563
 21
0.91569
 31
0.0
  0
LINE
  8
0
 62
     0
 10
0.000976563
 20
0.91569
 30
0.0
 11
0
 21
0.942329
 31
0.0
  0
LINE
  8
0
 62
     0
 10
0
 20
0.942329
 30
0.0
 11
0
 21
0.951172
 31
0.0
  0
LINE
  8
0
 62
     0
 10
0
 20
0.951172
 30
0.0
 11
0
 21
0.960883
 31
0.0
  0
LINE
  8
0
 62
     0
 10
0
 20
0.960883
 30
0.0
 11
0.000976563
 21
0.989854
 31
0.0
  0
LINE
  8
0
 62
     0
 10
0.000976563
 20
0.989854
 30
0.0
 11
0.007704
 21
1.01649
 31
0.0
  0
LINE
  8
0
 62
     0
 10
0.007704
 20
1.01649
 30
0.0
 11
0.0260417
 21
1.04357
 31
0.0
  0
LINE
  8
0
 62
     0
 10
0.0260417
 20
1.04357
 30
0.0
 11
0.0526258
 21
1.07351
 31
0.0
  0
LINE
  8
0
 62
     0
 10
0.0526258
 20
1.07351
 30
0.0
 11
0.0616863
 21
1.08328
 31
0.0
  0
LINE
  8
0
 62
     0
 10
0.0616863
 20
1.08328
 30
0.0
 11
0.0692275
 21
1.09152
 31
0.0
  0
LINE
  8
0
 62
     0
 10
0.0692275
 20
1.09152
 30
0.0
 11
0.0913629
 21
1.11692
 31
0.0
  0
LINE
  8
0
 62
     0
 10
0.0913629
 20
1.11692
 30
0.0
 11
0.108724
 21
1.1403
 31
0.0
  0
LINE
  8
0
 62
     0
 10
0.108724
 20
1.1403
 30
0.0
 11
0.115614
 21
1.15647
 31
0.0
  0
LINE
  8
0
 62
     0
 10
0.115614
 20
1.15647
 30
0.0
 11
0.115072
 21
1.1658
 31
0.0
  0
LINE
  8
0
 62
     0
 10
0.115072
 20
1.1658
 30
0.0
 11
0.11377
 21
1.16824
 31
0.0
  0
LINE
  8
0
 62
     0
 10
0.11377
 20
1.16824
 30
0.0
 11
0.111003
 21
1.17334
 31
0.0
  0
LINE
  8
0
 62
     0
 10
0.111003
 20
1.17334
 30
0.0
 11
0.105306
 21
1.18989
 31
0.0
  0
LINE
  8
0
 62
     0
 10
0.105306
 20
1.18989
 30
0.0
 11
0.113336
 21
1.20199
 31
0.0
  0
LINE
  8
0
 62
     0
 10
0.113336
 20
1.20199
 30
0.0
 11
0.143935
 21
1.20719
 31
0.0
  0
LINE
  8
0
 62
     0
 10
0.143935
 20
1.20719
 30
0.0
 11
0.188314
 21
1.20833
 31
0.0
  0
LINE
  8
0
 62
     0
 10
0.188314
 20
1.20833
 30
0.0
 11
0.203125
 21
1.20833
 31
0.0
  0
LINE
  8
0
 62
     0
 10
0.203125
 20
1.20833
 30
0.0
 11
0.213433
 21
1.20833
 31
0.0
  0
LINE
  8
0
 62
     0
 10
0.213433
 20
1.20833
 30
0.0
 11
0.244521
 21
1.20763
 31
0.0
  0
LINE
  8
0
 62
     0
 10
0.244521
 20
1.20763
 30
0.0
 11
0.275663
 21
1.20546
 31
0.0
  0
LINE
  8
0
 62
     0
 10
0.275663
 20
1.20546
 30
0.0
 11
0.295247
 21
1.20204
 31
0.0
  0
LINE
  8
0
 62
     0
 10
0.295247
 20
1.20204
 30
0.0
 11
0.302083
 21
1.19862
 31
0.0
  0
LINE
  8
0
 62
     0
 10
0.302083
 20
1.19862
 30
0.0
 11
0.302083
 21
1.19748
 31
0.0
  0
LINE
  8
0
 62
     0
 10
0.302083
 20
1.19748
 30
0.0
 11
0.302083
 21
1.1926
 31
0.0
  0
LINE
  8
0
 62
     0
 10
0.302083
 20
1.1926
 30
0.0
 11
0.295953
 21
1.1779
 31
0.0
  0
LINE
  8
0
 62
     0
 10
0.295953
 20
1.1779
 30
0.0
 11
0.284071
 21
1.15148
 31
0.0
  0
LINE
  8
0
 62
     0
 10
0.284071
 20
1.15148
 30
0.0
 11
0.28125
 21
1.14583
 31
0.0
  0
LINE
  8
0
 62
     0
 10
0.28125
 20
1.14583
 30
0.0
 11
0.278212
 21
1.13992
 31
0.0
  0
LINE
  8
0
 62
     0
 10
0.278212
 20
1.13992
 30
0.0
 11
0.269532
 21
1.12185
 31
0.0
  0
LINE
  8
0
 62
     0
 10
0.269532
 20
1.12185
 30
0.0
 11
0.262207
 21
1.10314
 31
0.0
  0
LINE
  8
0
 62
     0
 10
0.262207
 20
1.10314
 30
0.0
 11
0.259874
 21
1.08881
 31
0.0
  0
LINE
  8
0
 62
     0
 10
0.259874
 20
1.08881
 30
0.0
 11
0.263021
 21
1.07823
 31
0.0
  0
LINE
  8
0
 62
     0
 10
0.263021
 20
1.07823
 30
0.0
 11
0.27219
 21
1.07048
 31
0.0
  0
LINE
  8
0
 62
     0
 10
0.27219
 20
1.07048
 30
0.0
 11
0.287924
 21
1.06478
 31
0.0
  0
LINE
  8
0
 62
     0
 10
0.287924
 20
1.06478
 30
0.0
 11
0.31071
 21
1.06033
 31
0.0
  0
LINE
  8
0
 62
     0
 10
0.31071
 20
1.06033
 30
0.0
 11
0.333496
 21
1.05724
 31
0.0
  0
LINE
  8
0
 62
     0
 10
0.333496
 20
1.05724
 30
0.0
 11
0.341146
 21
1.05632
 31
0.0
  0
LINE
  8
0
 62
     0
 10
0.341146
 20
1.05632
 30
0.0
 11
0.421875
 21
1.04688
 31
0.0
  0
LINE
  8
0
 62
     0
 10
0.421875
 20
1.04688
 30
0.0
 11
0.424968
 21
0.976563
 31
0.0
  0
LINE
  8
0
 62
     0
 10
0.424968
 20
0.976563
 30
0.0
 11
0.425347
 21
0.966906
 31
0.0
  0
LINE
  8
0
 62
     0
 10
0.425347
 20
0.966906
 30
0.0
 11
0.426215
 21
0.926594
 31
0.0
  0
LINE
  8
0
 62
     0
 10
0.426215
 20
0.926594
 30
0.0
 11
0.425347
 21
0.905274
 31
0.0
  0
LINE
  8
0
 62
     0
 10
0.425347
 20
0.905274
 30
0.0
 11
0.424968
 21
0.905111
 31
0.0
  0
LINE
  8
0
 62
     0
 10
0.424968
 20
0.905111
 30
0.0
 11
0.424533
 21
0.904949
 31
0.0
  0
LINE
  8
0
 62
     0
 10
0.424533
 20
0.904949
 30
0.0
 11
0.414279
 21
0.903754
 31
0.0
  0
LINE
  8
0
 62
     0
 10
0.414279
 20
0.903754
 30
0.0
 11
0.387587
 21
0.900825
 31
0.0
  0
LINE
  8
0
 62
     0
 10
0.387587
 20
0.900825
 30
0.0
 11
0.348796
 21
0.89681
 31
0.0
  0
LINE
  8
0
 62
     0
 10
0.348796
 20
0.89681
 30
0.0
 11
0.313747
 21
0.893283
 31
0.0
  0
LINE
  8
0
 62
     0
 10
0.313747
 20
0.893283
 30
0.0
 11
0.302083
 21
0.89209
 31
0.0
  0
LINE
  8
0
 62
     0
 10
0.302083
 20
0.89209
 30
0.0
 11
0.182292
 21
0.880208
 31
0.0
  0
LINE
  8
0
 62
     0
 10
0.182292
 20
0.880208
 30
0.0
 11
0.176324
 21
0.689128
 31
0.0
  0
LINE
  8
0
 62
     0
 10
0.176324
 20
0.689128
 30
0.0
 11
0.2366
 21
0.677463
 31
0.0
  0
LINE
  8
0
 62
     0
 10
0.2366
 20
0.677463
 30
0.0
 11
0.248156
 21
0.675239
 31
0.0
  0
LINE
  8
0
 62
     0
 10
0.248156
 20
0.675239
 30
0.0
 11
0.282932
 21
0.668565
 31
0.0
  0
LINE
  8
0
 62
     0
 10
0.282932
 20
0.668565
 30
0.0
 11
0.317057
 21
0.661621
 31
0.0
  0
LINE
  8
0
 62
     0
 10
0.317057
 20
0.661621
 30
0.0
 11
0.340983
 21
0.655817
 31
0.0
  0
LINE
  8
0
 62
     0
 10
0.340983
 20
0.655817
 30
0.0
 11
0.3565
 21
0.650228
 31
0.0
  0
LINE
  8
0
 62
     0
 10
0.3565
 20
0.650228
 30
0.0
 11
0.36556
 21
0.643881
 31
0.0
  0
LINE
  8
0
 62
     0
 10
0.36556
 20
0.643881
 30
0.0
 11
0.370063
 21
0.635851
 31
0.0
  0
LINE
  8
0
 62
     0
 10
0.370063
 20
0.635851
 30
0.0
 11
0.371907
 21
0.625271
 31
0.0
  0
LINE
  8
0
 62
     0
 10
0.371907
 20
0.625271
 30
0.0
 11
0.372721
 21
0.614637
 31
0.0
  0
LINE
  8
0
 62
     0
 10
0.372721
 20
0.614637
 30
0.0
 11
0.373047
 21
0.611111
 31
0.0
  0
LINE
  8
0
 62
     0
 10
0.373047
 20
0.611111
 30
0.0
 11
0.373643
 21
0.603515
 31
0.0
  0
LINE
  8
0
 62
     0
 10
0.373643
 20
0.603515
 30
0.0
 11
0.380914
 21
0.578125
 31
0.0
  0
LINE
  8
0
 62
     0
 10
0.380914
 20
0.578125
 30
0.0
 11
0.396756
 21
0.564128
 31
0.0
  0
LINE
  8
0
 62
     0
 10
0.396756
 20
0.564128
 30
0.0
 11
0.401693
 21
0.562229
 31
0.0
  0
LINE
  8
0
 62
     0
 10
0.401693
 20
0.562229
 30
0.0
 11
0.407226
 21
0.560167
 31
0.0
  0
LINE
  8
0
 62
     0
 10
0.407226
 20
0.560167
 30
0.0
 11
0.421169
 21
0.546658
 31
0.0
  0
LINE
  8
0
 62
     0
 10
0.421169
 20
0.546658
 30
0.0
 11
0.428114
 21
0.523926
 31
0.0
  0
LINE
  8
0
 62
     0
 10
0.428114
 20
0.523926
 30
0.0
 11
0.42231
 21
0.500868
 31
0.0
  0
LINE
  8
0
 62
     0
 10
0.42231
 20
0.500868
 30
0.0
 11
0.409071
 21
0.486654
 31
0.0
  0
LINE
  8
0
 62
     0
 10
0.409071
 20
0.486654
 30
0.0
 11
0.403646
 21
0.484267
 31
0.0
  0
LINE
  8
0
 62
     0
 10
0.403646
 20
0.484267
 30
0.0
 11
0.397461
 21
0.481608
 31
0.0
  0
LINE
  8
0
 62
     0
 10
0.397461
 20
0.481608
 30
0.0
 11
0.382921
 21
0.464518
 31
0.0
  0
LINE
  8
0
 62
     0
 10
0.382921
 20
0.464518
 30
0.0
 11
0.375379
 21
0.433974
 31
0.0
  0
LINE
  8
0
 62
     0
 10
0.375379
 20
0.433974
 30
0.0
 11
0.381131
 21
0.399849
 31
0.0
  0
LINE
  8
0
 62
     0
 10
0.381131
 20
0.399849
 30
0.0
 11
0.394206
 21
0.375706
 31
0.0
  0
LINE
  8
0
 62
     0
 10
0.394206
 20
0.375706
 30
0.0
 11
0.400444
 21
0.369467
 31
0.0
  0
LINE
  8
0
 62
     0
 10
0.400444
 20
0.369467
 30
0.0
 11
0.404243
 21
0.365668
 31
0.0
  0
LINE
  8
0
 62
     0
 10
0.404243
 20
0.365668
 30
0.0
 11
0.414551
 21
0.352974
 31
0.0
  0
LINE
  8
0
 62
     0
 10
0.414551
 20
0.352974
 30
0.0
 11
0.422635
 21
0.334744
 31
0.0
  0
LINE
  8
0
 62
     0
 10
0.422635
 20
0.334744
 30
0.0
 11
0.426215
 21
0.308376
 31
0.0
  0
LINE
  8
0
 62
     0
 10
0.426215
 20
0.308376
 30
0.0
 11
0.427083
 21
0.277832
 31
0.0
  0
LINE
  8
0
 62
     0
 10
0.427083
 20
0.277832
 30
0.0
 11
0.427083
 21
0.267632
 31
0.0
  0
LINE
  8
0
 62
     0
 10
0.427083
 20
0.267632
 30
0.0
 11
0.427083
 21
0.192492
 31
0.0
  0
LINE
  8
0
 62
     0
 10
0.427083
 20
0.192492
 30
0.0
 11
0.367296
 21
0.132704
 31
0.0
  0
ENDSEC
  0
EOF
