  0
SECTION
  2
HEADER
  9
$ACADVER
  1
AC1009
  9
$FILLMODE
 70
 0
  9
$SPLFRAME
 70
 1
  9
$EXTMIN
 10
0
 20
0
 30
0.0
  9
$EXTMAX
 10
41.6667
 20
41.6667
 30
0.0
  0
ENDSEC
  0
SECTION
  2
TABLES
  0
TABLE
  2
LAYER
 70
1
  0
LAYER
  2
0
 70
     0
 62
     7
  6
CONTINUOUS
  0
ENDTAB
  0
ENDSEC
  0
SECTION
  2
ENTITIES
  0
LINE
  8
0
 62
     0
 10
0.65625
 20
4.94683
 30
0.0
 11
1.3125
 21
4.93539
 31
0.0
  0
LINE
  8
0
 62
     0
 10
1.3125
 20
4.93539
 30
0.0
 11
1.32373
 21
4.04878
 31
0.0
  0
LINE
  8
0
 62
     0
 10
1.32373
 20
4.04878
 30
0.0
 11
1.32433
 21
4.00017
 31
0.0
  0
LINE
  8
0
 62
     0
 10
1.32433
 20
4.00017
 30
0.0
 11
1.32541
 21
3.85422
 31
0.0
  0
LINE
  8
0
 62
     0
 10
1.32541
 20
3.85422
 30
0.0
 11
1.32541
 21
3.67686
 31
0.0
  0
LINE
  8
0
 62
     0
 10
1.32541
 20
3.67686
 30
0.0
 11
1.32373
 21
3.51867
 31
0.0
  0
LINE
  8
0
 62
     0
 10
1.32373
 20
3.51867
 30
0.0
 11
1.32048
 21
3.38157
 31
0.0
  0
LINE
  8
0
 62
     0
 10
1.32048
 20
3.38157
 30
0.0
 11
1.3157
 21
3.26758
 31
0.0
  0
LINE
  8
0
 62
     0
 10
1.3157
 20
3.26758
 30
0.0
 11
1.30946
 21
3.1786
 31
0.0
  0
LINE
  8
0
 62
     0
 10
1.30946
 20
3.1786
 30
0.0
 11
1.30187
 21
3.1166
 31
0.0
  0
LINE
  8
0
 62
     0
 10
1.30187
 20
3.1166
 30
0.0
 11
1.29682
 21
3.09088
 31
0.0
  0
LINE
  8
0
 62
     0
 10
1.29682
 20
3.09088
 30
0.0
 11
1.29291
 21
3.0835
 31
0.0
  0
LINE
  8
0
 62
     0
 10
1.29291
 20
3.0835
 30
0.0
 11
1.28727
 21
3.07297
 31
0.0
  0
LINE
  8
0
 62
     0
 10
1.28727
 20
3.07297
 30
0.0
 11
1.25922
 21
3.04725
 31
0.0
  0
LINE
  8
0
 62
     0
 10
1.25922
 20
3.04725
 30
0.0
 11
1.19878
 21
3.00672
 31
0.0
  0
LINE
  8
0
 62
     0
 10
1.19878
 20
3.00672
 30
0.0
 11
1.12001
 21
2.96679
 31
0.0
  0
LINE
  8
0
 62
     0
 10
1.12001
 20
2.96679
 30
0.0
 11
1.05409
 21
2.93989
 31
0.0
  0
LINE
  8
0
 62
     0
 10
1.05409
 20
2.93989
 30
0.0
 11
1.03163
 21
2.93246
 31
0.0
  0
LINE
  8
0
 62
     0
 10
1.03163
 20
2.93246
 30
0.0
 11
0.996365
 21
2.92085
 31
0.0
  0
LINE
  8
0
 62
     0
 10
0.996365
 20
2.92085
 30
0.0
 11
0.892632
 21
2.87978
 31
0.0
  0
LINE
  8
0
 62
     0
 10
0.892632
 20
2.87978
 30
0.0
 11
0.773981
 21
2.81982
 31
0.0
  0
LINE
  8
0
 62
     0
 10
0.773981
 20
2.81982
 30
0.0
 11
0.675185
 21
2.75201
 31
0.0
  0
LINE
  8
0
 62
     0
 10
0.675185
 20
2.75201
 30
0.0
 11
0.59554
 21
2.67572
 31
0.0
  0
LINE
  8
0
 62
     0
 10
0.59554
 20
2.67572
 30
0.0
 11
0.534668
 21
2.59033
 31
0.0
  0
LINE
  8
0
 62
     0
 10
0.534668
 20
2.59033
 30
0.0
 11
0.491863
 21
2.49511
 31
0.0
  0
LINE
  8
0
 62
     0
 10
0.491863
 20
2.49511
 30
0.0
 11
0.466635
 21
2.38954
 31
0.0
  0
LINE
  8
0
 62
     0
 10
0.466635
 20
2.38954
 30
0.0
 11
0.458442
 21
2.30208
 31
0.0
  0
LINE
  8
0
 62
     0
 10
0.458442
 20
2.30208
 30
0.0
 11
0.458496
 21
2.27289
 31
0.0
  0
LINE
  8
0
 62
     0
 10
0.458496
 20
2.27289
 30
0.0
 11
0.458496
 21
2.24013
 31
0.0
  0
LINE
  8
0
 62
     0
 10
0.458496
 20
2.24013
 30
0.0
 11
0.480414
 21
2.14165
 31
0.0
  0
LINE
  8
0
 62
     0
 10
0.480414
 20
2.14165
 30
0.0
 11
0.546278
 21
2.00717
 31
0.0
  0
LINE
  8
0
 62
     0
 10
0.546278
 20
2.00717
 30
0.0
 11
0.65625
 21
1.86888
 31
0.0
  0
LINE
  8
0
 62
     0
 10
0.65625
 20
1.86888
 30
0.0
 11
0.770182
 21
1.7595
 31
0.0
  0
LINE
  8
0
 62
     0
 10
0.770182
 20
1.7595
 30
0.0
 11
0.810818
 21
1.72618
 31
0.0
  0
LINE
  8
0
 62
     0
 10
0.810818
 20
1.72618
 30
0.0
 11
0.835938
 21
1.70563
 31
0.0
  0
LINE
  8
0
 62
     0
 10
0.835938
 20
1.70563
 30
0.0
 11
0.908475
 21
1.64019
 31
0.0
  0
LINE
  8
0
 62
     0
 10
0.908475
 20
1.64019
 30
0.0
 11
0.989204
 21
1.5549
 31
0.0
  0
LINE
  8
0
 62
     0
 10
0.989204
 20
1.5549
 30
0.0
 11
1.0542
 21
1.46789
 31
0.0
  0
LINE
  8
0
 62
     0
 10
1.0542
 20
1.46789
 30
0.0
 11
1.10471
 21
1.37641
 31
0.0
  0
LINE
  8
0
 62
     0
 10
1.10471
 20
1.37641
 30
0.0
 11
1.14182
 21
1.27794
 31
0.0
  0
LINE
  8
0
 62
     0
 10
1.14182
 20
1.27794
 30
0.0
 11
1.16683
 21
1.16987
 31
0.0
  0
LINE
  8
0
 62
     0
 10
1.16683
 20
1.16987
 30
0.0
 11
1.18083
 21
1.04964
 31
0.0
  0
LINE
  8
0
 62
     0
 10
1.18083
 20
1.04964
 30
0.0
 11
1.18517
 21
0.948351
 31
0.0
  0
LINE
  8
0
 62
     0
 10
1.18517
 20
0.948351
 30
0.0
 11
1.18517
 21
0.914551
 31
0.0
  0
LINE
  8
0
 62
     0
 10
1.18517
 20
0.914551
 30
0.0
 11
1.18511
 21
0.872558
 31
0.0
  0
LINE
  8
0
 62
     0
 10
1.18511
 20
0.872558
 30
0.0
 11
1.17969
 21
0.746419
 31
0.0
  0
LINE
  8
0
 62
     0
 10
1.17969
 20
0.746419
 30
0.0
 11
1.16043
 21
0.606119
 31
0.0
  0
LINE
  8
0
 62
     0
 10
1.16043
 20
0.606119
 30
0.0
 11
1.12229
 21
0.469021
 31
0.0
  0
LINE
  8
0
 62
     0
 10
1.12229
 20
0.469021
 30
0.0
 11
1.07682
 21
0.349556
 31
0.0
  0
LINE
  8
0
 62
     0
 10
1.07682
 20
0.349556
 30
0.0
 11
1.06011
 21
0.310385
 31
0.0
  0
LINE
  8
0
 62
     0
 10
1.06011
 20
0.310385
 30
0.0
 11
0.935439
 21
0.0187175
 31
0.0
  0
LINE
  8
0
 62
     0
 10
0.935439
 20
0.0187175
 30
0.0
 11
0.634386
 21
0.00645617
 31
0.0
  0
LINE
  8
0
 62
     0
 10
0.634386
 20
0.00645617
 30
0.0
 11
0.598199
 21
0.00499132
 31
0.0
  0
LINE
  8
0
 62
     0
 10
0.598199
 20
0.00499132
 30
0.0
 11
0.489583
 21
0.00330946
 31
0.0
  0
LINE
  8
0
 62
     0
 10
0.489583
 20
0.00330946
 30
0.0
 11
0.396918
 21
0.00878907
 31
0.0
  0
LINE
  8
0
 62
     0
 10
0.396918
 20
0.00878907
 30
0.0
 11
0.347765
 21
0.0241971
 31
0.0
  0
LINE
  8
0
 62
     0
 10
0.347765
 20
0.0241971
 30
0.0
 11
0.333333
 21
0.0441624
 31
0.0
  0
LINE
  8
0
 62
     0
 10
0.333333
 20
0.0441624
 30
0.0
 11
0.333333
 21
0.0507813
 31
0.0
  0
LINE
  8
0
 62
     0
 10
0.333333
 20
0.0507813
 30
0.0
 11
0.333333
 21
0.0635308
 31
0.0
  0
LINE
  8
0
 62
     0
 10
0.333333
 20
0.0635308
 30
0.0
 11
0.34809
 21
0.101725
 31
0.0
  0
LINE
  8
0
 62
     0
 10
0.34809
 20
0.101725
 30
0.0
 11
0.3884
 21
0.198676
 31
0.0
  0
LINE
  8
0
 62
     0
 10
0.3884
 20
0.198676
 30
0.0
 11
0.448025
 21
0.327636
 31
0.0
  0
LINE
  8
0
 62
     0
 10
0.448025
 20
0.327636
 30
0.0
 11
0.502171
 21
0.43826
 31
0.0
  0
LINE
  8
0
 62
     0
 10
0.502171
 20
0.43826
 30
0.0
 11
0.520833
 21
0.474772
 31
0.0
  0
LINE
  8
0
 62
     0
 10
0.520833
 20
0.474772
 30
0.0
 11
0.539606
 21
0.511556
 31
0.0
  0
LINE
  8
0
 62
     0
 10
0.539606
 20
0.511556
 30
0.0
 11
0.593588
 21
0.623101
 31
0.0
  0
LINE
  8
0
 62
     0
 10
0.593588
 20
0.623101
 30
0.0
 11
0.653212
 21
0.755371
 31
0.0
  0
LINE
  8
0
 62
     0
 10
0.653212
 20
0.755371
 30
0.0
 11
0.693522
 21
0.857096
 31
0.0
  0
LINE
  8
0
 62
     0
 10
0.693522
 20
0.857096
 30
0.0
 11
0.708333
 21
0.89974
 31
0.0
  0
LINE
  8
0
 62
     0
 10
0.708333
 20
0.89974
 30
0.0
 11
0.708333
 21
0.9139
 31
0.0
  0
LINE
  8
0
 62
     0
 10
0.708333
 20
0.9139
 30
0.0
 11
0.708333
 21
0.943901
 31
0.0
  0
LINE
  8
0
 62
     0
 10
0.708333
 20
0.943901
 30
0.0
 11
0.676107
 21
1.03391
 31
0.0
  0
LINE
  8
0
 62
     0
 10
0.676107
 20
1.03391
 30
0.0
 11
0.587944
 21
1.15272
 31
0.0
  0
LINE
  8
0
 62
     0
 10
0.587944
 20
1.15272
 30
0.0
 11
0.456435
 21
1.25749
 31
0.0
  0
LINE
  8
0
 62
     0
 10
0.456435
 20
1.25749
 30
0.0
 11
0.336535
 21
1.32069
 31
0.0
  0
LINE
  8
0
 62
     0
 10
0.336535
 20
1.32069
 30
0.0
 11
0.294379
 21
1.33529
 31
0.0
  0
LINE
  8
0
 62
     0
 10
0.294379
 20
1.33529
 30
0.0
 11
0.271485
 21
1.34321
 31
0.0
  0
LINE
  8
0
 62
     0
 10
0.271485
 20
1.34321
 30
0.0
 11
0.203776
 21
1.3699
 31
0.0
  0
LINE
  8
0
 62
     0
 10
0.203776
 20
1.3699
 30
0.0
 11
0.12462
 21
1.40614
 31
0.0
  0
LINE
  8
0
 62
     0
 10
0.12462
 20
1.40614
 30
0.0
 11
0.0653754
 21
1.43972
 31
0.0
  0
LINE
  8
0
 62
     0
 10
0.0653754
 20
1.43972
 30
0.0
 11
0.0391168
 21
1.45904
 31
0.0
  0
LINE
  8
0
 62
     0
 10
0.0391168
 20
1.45904
 30
0.0
 11
0.0345594
 21
1.46625
 31
0.0
  0
LINE
  8
0
 62
     0
 10
0.0345594
 20
1.46625
 30
0.0
 11
0.0305447
 21
1.4726
 31
0.0
  0
LINE
  8
0
 62
     0
 10
0.0305447
 20
1.4726
 30
0.0
 11
0.0261501
 21
1.49631
 31
0.0
  0
LINE
  8
0
 62
     0
 10
0.0261501
 20
1.49631
 30
0.0
 11
0.0190429
 21
1.55539
 31
0.0
  0
LINE
  8
0
 62
     0
 10
0.0190429
 20
1.55539
 30
0.0
 11
0.0131293
 21
1.63926
 31
0.0
  0
LINE
  8
0
 62
     0
 10
0.0131293
 20
1.63926
 30
0.0
 11
0.00846354
 21
1.74397
 31
0.0
  0
LINE
  8
0
 62
     0
 10
0.00846354
 20
1.74397
 30
0.0
 11
0.00493707
 21
1.86535
 31
0.0
  0
LINE
  8
0
 62
     0
 10
0.00493707
 20
1.86535
 30
0.0
 11
0.00260417
 21
1.99918
 31
0.0
  0
LINE
  8
0
 62
     0
 10
0.00260417
 20
1.99918
 30
0.0
 11
0.00146485
 21
2.1415
 31
0.0
  0
LINE
  8
0
 62
     0
 10
0.00146485
 20
2.1415
 30
0.0
 11
0.00146485
 21
2.28808
 31
0.0
  0
LINE
  8
0
 62
     0
 10
0.00146485
 20
2.28808
 30
0.0
 11
0.00254992
 21
2.43485
 31
0.0
  0
LINE
  8
0
 62
     0
 10
0.00254992
 20
2.43485
 30
0.0
 11
0.00477431
 21
2.57764
 31
0.0
  0
LINE
  8
0
 62
     0
 10
0.00477431
 20
2.57764
 30
0.0
 11
0.00813803
 21
2.7124
 31
0.0
  0
LINE
  8
0
 62
     0
 10
0.00813803
 20
2.7124
 30
0.0
 11
0.0125326
 21
2.83501
 31
0.0
  0
LINE
  8
0
 62
     0
 10
0.0125326
 20
2.83501
 30
0.0
 11
0.0180122
 21
2.94129
 31
0.0
  0
LINE
  8
0
 62
     0
 10
0.0180122
 20
2.94129
 30
0.0
 11
0.0245768
 21
3.02718
 31
0.0
  0
LINE
  8
0
 62
     0
 10
0.0245768
 20
3.02718
 30
0.0
 11
0.0321724
 21
3.08854
 31
0.0
  0
LINE
  8
0
 62
     0
 10
0.0321724
 20
3.08854
 30
0.0
 11
0.0368924
 21
3.11404
 31
0.0
  0
LINE
  8
0
 62
     0
 10
0.0368924
 20
3.11404
 30
0.0
 11
0.0407986
 21
3.12125
 31
0.0
  0
LINE
  8
0
 62
     0
 10
0.0407986
 20
3.12125
 30
0.0
 11
0.0461154
 21
3.13124
 31
0.0
  0
LINE
  8
0
 62
     0
 10
0.0461154
 20
3.13124
 30
0.0
 11
0.0725911
 21
3.15549
 31
0.0
  0
LINE
  8
0
 62
     0
 10
0.0725911
 20
3.15549
 30
0.0
 11
0.128472
 21
3.18994
 31
0.0
  0
LINE
  8
0
 62
     0
 10
0.128472
 20
3.18994
 30
0.0
 11
0.202365
 21
3.22151
 31
0.0
  0
LINE
  8
0
 62
     0
 10
0.202365
 20
3.22151
 30
0.0
 11
0.266276
 21
3.24181
 31
0.0
  0
LINE
  8
0
 62
     0
 10
0.266276
 20
3.24181
 30
0.0
 11
0.287978
 21
3.24701
 31
0.0
  0
LINE
  8
0
 62
     0
 10
0.287978
 20
3.24701
 30
0.0
 11
0.319011
 21
3.25444
 31
0.0
  0
LINE
  8
0
 62
     0
 10
0.319011
 20
3.25444
 30
0.0
 11
0.410047
 21
3.28554
 31
0.0
  0
LINE
  8
0
 62
     0
 10
0.410047
 20
3.28554
 30
0.0
 11
0.516331
 21
3.3374
 31
0.0
  0
LINE
  8
0
 62
     0
 10
0.516331
 20
3.3374
 30
0.0
 11
0.606825
 21
3.40076
 31
0.0
  0
LINE
  8
0
 62
     0
 10
0.606825
 20
3.40076
 30
0.0
 11
0.681424
 21
3.47379
 31
0.0
  0
LINE
  8
0
 62
     0
 10
0.681424
 20
3.47379
 30
0.0
 11
0.740072
 21
3.55453
 31
0.0
  0
LINE
  8
0
 62
     0
 10
0.740072
 20
3.55453
 30
0.0
 11
0.782769
 21
3.64111
 31
0.0
  0
LINE
  8
0
 62
     0
 10
0.782769
 20
3.64111
 30
0.0
 11
0.809407
 21
3.73167
 31
0.0
  0
LINE
  8
0
 62
     0
 10
0.809407
 20
3.73167
 30
0.0
 11
0.819988
 21
3.82433
 31
0.0
  0
LINE
  8
0
 62
     0
 10
0.819988
 20
3.82433
 30
0.0
 11
0.814453
 21
3.91715
 31
0.0
  0
LINE
  8
0
 62
     0
 10
0.814453
 20
3.91715
 30
0.0
 11
0.792697
 21
4.00836
 31
0.0
  0
LINE
  8
0
 62
     0
 10
0.792697
 20
4.00836
 30
0.0
 11
0.754719
 21
4.09597
 31
0.0
  0
LINE
  8
0
 62
     0
 10
0.754719
 20
4.09597
 30
0.0
 11
0.700467
 21
4.17817
 31
0.0
  0
LINE
  8
0
 62
     0
 10
0.700467
 20
4.17817
 30
0.0
 11
0.629829
 21
4.25299
 31
0.0
  0
LINE
  8
0
 62
     0
 10
0.629829
 20
4.25299
 30
0.0
 11
0.54286
 21
4.31863
 31
0.0
  0
LINE
  8
0
 62
     0
 10
0.54286
 20
4.31863
 30
0.0
 11
0.439453
 21
4.37321
 31
0.0
  0
LINE
  8
0
 62
     0
 10
0.439453
 20
4.37321
 30
0.0
 11
0.350097
 21
4.40657
 31
0.0
  0
LINE
  8
0
 62
     0
 10
0.350097
 20
4.40657
 30
0.0
 11
0.319553
 21
4.41476
 31
0.0
  0
LINE
  8
0
 62
     0
 10
0.319553
 20
4.41476
 30
0.0
 11
0.296983
 21
4.42085
 31
0.0
  0
LINE
  8
0
 62
     0
 10
0.296983
 20
4.42085
 30
0.0
 11
0.230035
 21
4.44135
 31
0.0
  0
LINE
  8
0
 62
     0
 10
0.230035
 20
4.44135
 30
0.0
 11
0.158257
 21
4.46907
 31
0.0
  0
LINE
  8
0
 62
     0
 10
0.158257
 20
4.46907
 30
0.0
 11
0.102431
 21
4.50006
 31
0.0
  0
LINE
  8
0
 62
     0
 10
0.102431
 20
4.50006
 30
0.0
 11
0.0607639
 21
4.53614
 31
0.0
  0
LINE
  8
0
 62
     0
 10
0.0607639
 20
4.53614
 30
0.0
 11
0.0314671
 21
4.57949
 31
0.0
  0
LINE
  8
0
 62
     0
 10
0.0314671
 20
4.57949
 30
0.0
 11
0.0128038
 21
4.63206
 31
0.0
  0
LINE
  8
0
 62
     0
 10
0.0128038
 20
4.63206
 30
0.0
 11
0.00287543
 21
4.69581
 31
0.0
  0
LINE
  8
0
 62
     0
 10
0.00287543
 20
4.69581
 30
0.0
 11
0
 21
4.75353
 31
0.0
  0
LINE
  8
0
 62
     0
 10
0
 20
4.75353
 30
0.0
 11
0
 21
4.77274
 31
0.0
  0
LINE
  8
0
 62
     0
 10
0
 20
4.77274
 30
0.0
 11
0
 21
4.95833
 31
0.0
  0
LINE
  8
0
 62
     0
 10
0
 20
4.95833
 30
0.0
 11
0.65625
 21
4.94683
 31
0.0
  0
ENDSEC
  0
EOF
