<?xml version="1.0" encoding="UTF-8" standalone="no"?>
<!-- Created with Inkscape (http://www.inkscape.org/) -->

<svg
   xmlns:dc="http://purl.org/dc/elements/1.1/"
   xmlns:cc="http://creativecommons.org/ns#"
   xmlns:rdf="http://www.w3.org/1999/02/22-rdf-syntax-ns#"
   xmlns:svg="http://www.w3.org/2000/svg"
   xmlns="http://www.w3.org/2000/svg"
   xmlns:sodipodi="http://sodipodi.sourceforge.net/DTD/sodipodi-0.dtd"
   xmlns:inkscape="http://www.inkscape.org/namespaces/inkscape"
   id="svg2"
   version="1.1"
   inkscape:version="0.48.4 r9939"
   width="127.26186"
   height="475.6879"
   sodipodi:docname="Selection_076.png">
  <metadata
     id="metadata8">
    <rdf:RDF>
      <cc:Work
         rdf:about="">
        <dc:format>image/svg+xml</dc:format>
        <dc:type
           rdf:resource="http://purl.org/dc/dcmitype/StillImage" />
        <dc:title></dc:title>
      </cc:Work>
    </rdf:RDF>
  </metadata>
  <defs
     id="defs6" />
  <sodipodi:namedview
     pagecolor="#ffffff"
     bordercolor="#666666"
     borderopacity="1"
     objecttolerance="10"
     gridtolerance="10"
     guidetolerance="10"
     inkscape:pageopacity="0"
     inkscape:pageshadow="2"
     inkscape:window-width="1855"
     inkscape:window-height="1056"
     id="namedview4"
     showgrid="false"
     fit-margin-top="0"
     fit-margin-left="0"
     fit-margin-right="0"
     fit-margin-bottom="0"
     inkscape:zoom="1.03"
     inkscape:cx="23.849154"
     inkscape:cy="236.03896"
     inkscape:window-x="65"
     inkscape:window-y="24"
     inkscape:window-maximized="1"
     inkscape:current-layer="svg2" />
  <path
     style="fill:#000000"
     d="m 63,1.10157 63,1.10157 1.07988,85.113707 c 0.6579,51.853543 -0.49955,88.064903 -2.96192,92.665893 -2.22299,4.1537 -13.50894,10.67912 -25.079884,14.50095 -38.228768,12.62678 -55.060881,31.99587 -55.023125,63.31635 0.02,16.61552 11.17726,33.92789 33.825937,52.48677 27.275732,22.35041 35.982292,41.22844 35.935082,77.9163 -0.0312,24.35465 -2.29079,35.26901 -12.00692,58.00001 l -11.968318,28 -28.900364,1.17524 C 38.654987,476.28296 32,475.30356 32,471.126 c 0,-2.9852 8.099999,-21.30184 18,-40.70364 9.9,-19.4018 18,-38.37205 18,-42.15609 C 68,373.38739 50.427447,355.50081 28.259024,347.81501 16.301488,343.66937 5.079052,338.01073 3.320276,335.24029 -1.286304,327.98399 -0.750036,185.07867 3.916496,176.35917 6.179928,172.12991 16.196104,167.03485 27.647164,164.28779 94.180856,148.3266 96.30072,69.83254 30.674828,52.17969 5.338296,45.36436 0,39.38408 0,17.81586 L 0,0 63,1.10157 z"
     id="path2987"
     inkscape:connector-curvature="0" />
</svg>
