  0
SECTION
  2
HEADER
  9
$ACADVER
  1
AC1009
  9
$FILLMODE
 70
 0
  9
$SPLFRAME
 70
 1
  9
$EXTMIN
 10
0
 20
0
 30
0.0
  9
$EXTMAX
 10
41.6667
 20
41.6667
 30
0.0
  0
ENDSEC
  0
SECTION
  2
TABLES
  0
TABLE
  2
LAYER
 70
1
  0
LAYER
  2
0
 70
     0
 62
     7
  6
CONTINUOUS
  0
ENDTAB
  0
ENDSEC
  0
SECTION
  2
ENTITIES
  0
LINE
  8
0
 62
     0
 10
1.06266
 20
0.0183376
 30
0.0
 11
1.06006
 21
0.0198025
 31
0.0
  0
LINE
  8
0
 62
     0
 10
1.06006
 20
0.0198025
 30
0.0
 11
1.0434
 21
0.0249567
 31
0.0
  0
LINE
  8
0
 62
     0
 10
1.0434
 20
0.0249567
 30
0.0
 11
1.02637
 21
0.0264757
 31
0.0
  0
LINE
  8
0
 62
     0
 10
1.02637
 20
0.0264757
 30
0.0
 11
1.0236
 21
0.0260417
 31
0.0
  0
LINE
  8
0
 62
     0
 10
1.0236
 20
0.0260417
 30
0.0
 11
1.01552
 21
0.0249024
 31
0.0
  0
LINE
  8
0
 62
     0
 10
1.01552
 20
0.0249024
 30
0.0
 11
0.99056
 21
0.0265842
 31
0.0
  0
LINE
  8
0
 62
     0
 10
0.99056
 20
0.0265842
 30
0.0
 11
0.956054
 21
0.0365126
 31
0.0
  0
LINE
  8
0
 62
     0
 10
0.956054
 20
0.0365126
 30
0.0
 11
0.922364
 21
0.0549588
 31
0.0
  0
LINE
  8
0
 62
     0
 10
0.922364
 20
0.0549588
 30
0.0
 11
0.8986
 21
0.0736762
 31
0.0
  0
LINE
  8
0
 62
     0
 10
0.8986
 20
0.0736762
 30
0.0
 11
0.891656
 21
0.0808376
 31
0.0
  0
LINE
  8
0
 62
     0
 10
0.891656
 20
0.0808376
 30
0.0
 11
0.885796
 21
0.086914
 31
0.0
  0
LINE
  8
0
 62
     0
 10
0.885796
 20
0.086914
 30
0.0
 11
0.868978
 21
0.105794
 31
0.0
  0
LINE
  8
0
 62
     0
 10
0.868978
 20
0.105794
 30
0.0
 11
0.857856
 21
0.128418
 31
0.0
  0
LINE
  8
0
 62
     0
 10
0.857856
 20
0.128418
 30
0.0
 11
0.854981
 21
0.161404
 31
0.0
  0
LINE
  8
0
 62
     0
 10
0.854981
 20
0.161404
 30
0.0
 11
0.8565
 21
0.20356
 31
0.0
  0
LINE
  8
0
 62
     0
 10
0.8565
 20
0.20356
 30
0.0
 11
0.857206
 21
0.217557
 31
0.0
  0
LINE
  8
0
 62
     0
 10
0.857206
 20
0.217557
 30
0.0
 11
0.858886
 21
0.251139
 31
0.0
  0
LINE
  8
0
 62
     0
 10
0.858886
 20
0.251139
 30
0.0
 11
0.862088
 21
0.351887
 31
0.0
  0
LINE
  8
0
 62
     0
 10
0.862088
 20
0.351887
 30
0.0
 11
0.859158
 21
0.439128
 31
0.0
  0
LINE
  8
0
 62
     0
 10
0.859158
 20
0.439128
 30
0.0
 11
0.84706
 21
0.492893
 31
0.0
  0
LINE
  8
0
 62
     0
 10
0.84706
 20
0.492893
 30
0.0
 11
0.831381
 21
0.51964
 31
0.0
  0
LINE
  8
0
 62
     0
 10
0.831381
 20
0.51964
 30
0.0
 11
0.824328
 21
0.526585
 31
0.0
  0
LINE
  8
0
 62
     0
 10
0.824328
 20
0.526585
 30
0.0
 11
0.815701
 21
0.535101
 31
0.0
  0
LINE
  8
0
 62
     0
 10
0.815701
 20
0.535101
 30
0.0
 11
0.797906
 21
0.573785
 31
0.0
  0
LINE
  8
0
 62
     0
 10
0.797906
 20
0.573785
 30
0.0
 11
0.774794
 21
0.646647
 31
0.0
  0
LINE
  8
0
 62
     0
 10
0.774794
 20
0.646647
 30
0.0
 11
0.761501
 21
0.719239
 31
0.0
  0
LINE
  8
0
 62
     0
 10
0.761501
 20
0.719239
 30
0.0
 11
0.760146
 21
0.757215
 31
0.0
  0
LINE
  8
0
 62
     0
 10
0.760146
 20
0.757215
 30
0.0
 11
0.764649
 21
0.765246
 31
0.0
  0
LINE
  8
0
 62
     0
 10
0.764649
 20
0.765246
 30
0.0
 11
0.765842
 21
0.767469
 31
0.0
  0
LINE
  8
0
 62
     0
 10
0.765842
 20
0.767469
 30
0.0
 11
0.768446
 21
0.778971
 31
0.0
  0
LINE
  8
0
 62
     0
 10
0.768446
 20
0.778971
 30
0.0
 11
0.772244
 21
0.804471
 31
0.0
  0
LINE
  8
0
 62
     0
 10
0.772244
 20
0.804471
 30
0.0
 11
0.775499
 21
0.838108
 31
0.0
  0
LINE
  8
0
 62
     0
 10
0.775499
 20
0.838108
 30
0.0
 11
0.777507
 21
0.866754
 31
0.0
  0
LINE
  8
0
 62
     0
 10
0.777507
 20
0.866754
 30
0.0
 11
0.77794
 21
0.876247
 31
0.0
  0
LINE
  8
0
 62
     0
 10
0.77794
 20
0.876247
 30
0.0
 11
0.778375
 21
0.885796
 31
0.0
  0
LINE
  8
0
 62
     0
 10
0.778375
 20
0.885796
 30
0.0
 11
0.780653
 21
0.914387
 31
0.0
  0
LINE
  8
0
 62
     0
 10
0.780653
 20
0.914387
 30
0.0
 11
0.784776
 21
0.948025
 31
0.0
  0
LINE
  8
0
 62
     0
 10
0.784776
 20
0.948025
 30
0.0
 11
0.789822
 21
0.973469
 31
0.0
  0
LINE
  8
0
 62
     0
 10
0.789822
 20
0.973469
 30
0.0
 11
0.793403
 21
0.984918
 31
0.0
  0
LINE
  8
0
 62
     0
 10
0.793403
 20
0.984918
 30
0.0
 11
0.795193
 21
0.987087
 31
0.0
  0
LINE
  8
0
 62
     0
 10
0.795193
 20
0.987087
 30
0.0
 11
0.799479
 21
0.992404
 31
0.0
  0
LINE
  8
0
 62
     0
 10
0.799479
 20
0.992404
 30
0.0
 11
0.809787
 21
1.01052
 31
0.0
  0
LINE
  8
0
 62
     0
 10
0.809787
 20
1.01052
 30
0.0
 11
0.821397
 21
1.03977
 31
0.0
  0
LINE
  8
0
 62
     0
 10
0.821397
 20
1.03977
 30
0.0
 11
0.829753
 21
1.07248
 31
0.0
  0
LINE
  8
0
 62
     0
 10
0.829753
 20
1.07248
 30
0.0
 11
0.83469
 21
1.10639
 31
0.0
  0
LINE
  8
0
 62
     0
 10
0.83469
 20
1.10639
 30
0.0
 11
0.835938
 21
1.13921
 31
0.0
  0
LINE
  8
0
 62
     0
 10
0.835938
 20
1.13921
 30
0.0
 11
0.833333
 21
1.16862
 31
0.0
  0
LINE
  8
0
 62
     0
 10
0.833333
 20
1.16862
 30
0.0
 11
0.826606
 21
1.19238
 31
0.0
  0
LINE
  8
0
 62
     0
 10
0.826606
 20
1.19238
 30
0.0
 11
0.819174
 21
1.20513
 31
0.0
  0
LINE
  8
0
 62
     0
 10
0.819174
 20
1.20513
 30
0.0
 11
0.815647
 21
1.20806
 31
0.0
  0
LINE
  8
0
 62
     0
 10
0.815647
 20
1.20806
 30
0.0
 11
0.809679
 21
1.213
 31
0.0
  0
LINE
  8
0
 62
     0
 10
0.809679
 20
1.213
 30
0.0
 11
0.781413
 21
1.22065
 31
0.0
  0
LINE
  8
0
 62
     0
 10
0.781413
 20
1.22065
 30
0.0
 11
0.727701
 21
1.22776
 31
0.0
  0
LINE
  8
0
 62
     0
 10
0.727701
 20
1.22776
 30
0.0
 11
0.674696
 21
1.22814
 31
0.0
  0
LINE
  8
0
 62
     0
 10
0.674696
 20
1.22814
 30
0.0
 11
0.647569
 21
1.22439
 31
0.0
  0
LINE
  8
0
 62
     0
 10
0.647569
 20
1.22439
 30
0.0
 11
0.642578
 21
1.22022
 31
0.0
  0
LINE
  8
0
 62
     0
 10
0.642578
 20
1.22022
 30
0.0
 11
0.639594
 21
1.21777
 31
0.0
  0
LINE
  8
0
 62
     0
 10
0.639594
 20
1.21777
 30
0.0
 11
0.628797
 21
1.21267
 31
0.0
  0
LINE
  8
0
 62
     0
 10
0.628797
 20
1.21267
 30
0.0
 11
0.622342
 21
1.21728
 31
0.0
  0
LINE
  8
0
 62
     0
 10
0.622342
 20
1.21728
 30
0.0
 11
0.62169
 21
1.21929
 31
0.0
  0
LINE
  8
0
 62
     0
 10
0.62169
 20
1.21929
 30
0.0
 11
0.620985
 21
1.22141
 31
0.0
  0
LINE
  8
0
 62
     0
 10
0.620985
 20
1.22141
 30
0.0
 11
0.610026
 21
1.22466
 31
0.0
  0
LINE
  8
0
 62
     0
 10
0.610026
 20
1.22466
 30
0.0
 11
0.589031
 21
1.2175
 31
0.0
  0
LINE
  8
0
 62
     0
 10
0.589031
 20
1.2175
 30
0.0
 11
0.583225
 21
1.21446
 31
0.0
  0
LINE
  8
0
 62
     0
 10
0.583225
 20
1.21446
 30
0.0
 11
0.577636
 21
1.21159
 31
0.0
  0
LINE
  8
0
 62
     0
 10
0.577636
 20
1.21159
 30
0.0
 11
0.544706
 21
1.2028
 31
0.0
  0
LINE
  8
0
 62
     0
 10
0.544706
 20
1.2028
 30
0.0
 11
0.506293
 21
1.20177
 31
0.0
  0
LINE
  8
0
 62
     0
 10
0.506293
 20
1.20177
 30
0.0
 11
0.497939
 21
1.20275
 31
0.0
  0
LINE
  8
0
 62
     0
 10
0.497939
 20
1.20275
 30
0.0
 11
0.483018
 21
1.20454
 31
0.0
  0
LINE
  8
0
 62
     0
 10
0.483018
 20
1.20454
 30
0.0
 11
0.43929
 21
1.21788
 31
0.0
  0
LINE
  8
0
 62
     0
 10
0.43929
 20
1.21788
 30
0.0
 11
0.365722
 21
1.24805
 31
0.0
  0
LINE
  8
0
 62
     0
 10
0.365722
 20
1.24805
 30
0.0
 11
0.29031
 21
1.28716
 31
0.0
  0
LINE
  8
0
 62
     0
 10
0.29031
 20
1.28716
 30
0.0
 11
0.24159
 21
1.31749
 31
0.0
  0
LINE
  8
0
 62
     0
 10
0.24159
 20
1.31749
 30
0.0
 11
0.226508
 21
1.32905
 31
0.0
  0
LINE
  8
0
 62
     0
 10
0.226508
 20
1.32905
 30
0.0
 11
0.221192
 21
1.33312
 31
0.0
  0
LINE
  8
0
 62
     0
 10
0.221192
 20
1.33312
 30
0.0
 11
0.204915
 21
1.34478
 31
0.0
  0
LINE
  8
0
 62
     0
 10
0.204915
 20
1.34478
 30
0.0
 11
0.18495
 21
1.3578
 31
0.0
  0
LINE
  8
0
 62
     0
 10
0.18495
 20
1.3578
 30
0.0
 11
0.168946
 21
1.3667
 31
0.0
  0
LINE
  8
0
 62
     0
 10
0.168946
 20
1.3667
 30
0.0
 11
0.161025
 21
1.37006
 31
0.0
  0
LINE
  8
0
 62
     0
 10
0.161025
 20
1.37006
 30
0.0
 11
0.159017
 21
1.37017
 31
0.0
  0
LINE
  8
0
 62
     0
 10
0.159017
 20
1.37017
 30
0.0
 11
0.156956
 21
1.37028
 31
0.0
  0
LINE
  8
0
 62
     0
 10
0.156956
 20
1.37028
 30
0.0
 11
0.145236
 21
1.37934
 31
0.0
  0
LINE
  8
0
 62
     0
 10
0.145236
 20
1.37934
 30
0.0
 11
0.134549
 21
1.39615
 31
0.0
  0
LINE
  8
0
 62
     0
 10
0.134549
 20
1.39615
 30
0.0
 11
0.13303
 21
1.40018
 31
0.0
  0
LINE
  8
0
 62
     0
 10
0.13303
 20
1.40018
 30
0.0
 11
0.13151
 21
1.40419
 31
0.0
  0
LINE
  8
0
 62
     0
 10
0.13151
 20
1.40419
 30
0.0
 11
0.120171
 21
1.42079
 31
0.0
  0
LINE
  8
0
 62
     0
 10
0.120171
 20
1.42079
 30
0.0
 11
0.108724
 21
1.42936
 31
0.0
  0
LINE
  8
0
 62
     0
 10
0.108724
 20
1.42936
 30
0.0
 11
0.104926
 21
1.42936
 31
0.0
  0
LINE
  8
0
 62
     0
 10
0.104926
 20
1.42936
 30
0.0
 11
0.101346
 21
1.42936
 31
0.0
  0
LINE
  8
0
 62
     0
 10
0.101346
 20
1.42936
 30
0.0
 11
0.0907118
 21
1.43625
 31
0.0
  0
LINE
  8
0
 62
     0
 10
0.0907118
 20
1.43625
 30
0.0
 11
0.0814887
 21
1.44954
 31
0.0
  0
LINE
  8
0
 62
     0
 10
0.0814887
 20
1.44954
 30
0.0
 11
0.0804579
 21
1.45275
 31
0.0
  0
LINE
  8
0
 62
     0
 10
0.0804579
 20
1.45275
 30
0.0
 11
0.0794271
 21
1.45594
 31
0.0
  0
LINE
  8
0
 62
     0
 10
0.0794271
 20
1.45594
 30
0.0
 11
0.0720486
 21
1.46924
 31
0.0
  0
LINE
  8
0
 62
     0
 10
0.0720486
 20
1.46924
 30
0.0
 11
0.0647244
 21
1.47607
 31
0.0
  0
LINE
  8
0
 62
     0
 10
0.0647244
 20
1.47607
 30
0.0
 11
0.0623372
 21
1.47607
 31
0.0
  0
LINE
  8
0
 62
     0
 10
0.0623372
 20
1.47607
 30
0.0
 11
0.058214
 21
1.47607
 31
0.0
  0
LINE
  8
0
 62
     0
 10
0.058214
 20
1.47607
 30
0.0
 11
0.0460069
 21
1.49137
 31
0.0
  0
LINE
  8
0
 62
     0
 10
0.0460069
 20
1.49137
 30
0.0
 11
0.0296224
 21
1.5319
 31
0.0
  0
LINE
  8
0
 62
     0
 10
0.0296224
 20
1.5319
 30
0.0
 11
0.0156793
 21
1.58979
 31
0.0
  0
LINE
  8
0
 62
     0
 10
0.0156793
 20
1.58979
 30
0.0
 11
0.00802951
 21
1.64031
 31
0.0
  0
LINE
  8
0
 62
     0
 10
0.00802951
 20
1.64031
 30
0.0
 11
0.00661893
 21
1.65717
 31
0.0
  0
LINE
  8
0
 62
     0
 10
0.00661893
 20
1.65717
 30
0.0
 11
0.00526258
 21
1.67279
 31
0.0
  0
LINE
  8
0
 62
     0
 10
0.00526258
 20
1.67279
 30
0.0
 11
0.00211589
 21
1.71972
 31
0.0
  0
LINE
  8
0
 62
     0
 10
0.00211589
 20
1.71972
 30
0.0
 11
0.000162761
 21
1.78483
 31
0.0
  0
LINE
  8
0
 62
     0
 10
0.000162761
 20
1.78483
 30
0.0
 11
0.000379775
 21
1.87375
 31
0.0
  0
LINE
  8
0
 62
     0
 10
0.000379775
 20
1.87375
 30
0.0
 11
0.00200737
 21
1.97424
 31
0.0
  0
LINE
  8
0
 62
     0
 10
0.00200737
 20
1.97424
 30
0.0
 11
0.00265842
 21
2.00765
 31
0.0
  0
LINE
  8
0
 62
     0
 10
0.00265842
 20
2.00765
 30
0.0
 11
0.00282118
 21
2.01844
 31
0.0
  0
LINE
  8
0
 62
     0
 10
0.00282118
 20
2.01844
 30
0.0
 11
0.00325521
 21
2.05078
 31
0.0
  0
LINE
  8
0
 62
     0
 10
0.00325521
 20
2.05078
 30
0.0
 11
0.00352647
 21
2.0905
 31
0.0
  0
LINE
  8
0
 62
     0
 10
0.00352647
 20
2.0905
 30
0.0
 11
0.00341797
 21
2.1224
 31
0.0
  0
LINE
  8
0
 62
     0
 10
0.00341797
 20
2.1224
 30
0.0
 11
0.00314671
 21
2.13797
 31
0.0
  0
LINE
  8
0
 62
     0
 10
0.00314671
 20
2.13797
 30
0.0
 11
0.00292969
 21
2.14199
 31
0.0
  0
LINE
  8
0
 62
     0
 10
0.00292969
 20
2.14199
 30
0.0
 11
0.00265842
 21
2.146
 31
0.0
  0
LINE
  8
0
 62
     0
 10
0.00265842
 20
2.146
 30
0.0
 11
0.00374349
 21
2.18147
 31
0.0
  0
LINE
  8
0
 62
     0
 10
0.00374349
 20
2.18147
 30
0.0
 11
0.00716146
 21
2.22661
 31
0.0
  0
LINE
  8
0
 62
     0
 10
0.00716146
 20
2.22661
 30
0.0
 11
0.00813803
 21
2.2354
 31
0.0
  0
LINE
  8
0
 62
     0
 10
0.00813803
 20
2.2354
 30
0.0
 11
0.0092231
 21
2.24544
 31
0.0
  0
LINE
  8
0
 62
     0
 10
0.0092231
 20
2.24544
 30
0.0
 11
0.0129666
 21
2.2755
 31
0.0
  0
LINE
  8
0
 62
     0
 10
0.0129666
 20
2.2755
 30
0.0
 11
0.0195856
 21
2.31847
 31
0.0
  0
LINE
  8
0
 62
     0
 10
0.0195856
 20
2.31847
 30
0.0
 11
0.0294596
 21
2.37408
 31
0.0
  0
LINE
  8
0
 62
     0
 10
0.0294596
 20
2.37408
 30
0.0
 11
0.0405274
 21
2.4324
 31
0.0
  0
LINE
  8
0
 62
     0
 10
0.0405274
 20
2.4324
 30
0.0
 11
0.0443251
 21
2.45176
 31
0.0
  0
LINE
  8
0
 62
     0
 10
0.0443251
 20
2.45176
 30
0.0
 11
0.0453017
 21
2.45692
 31
0.0
  0
LINE
  8
0
 62
     0
 10
0.0453017
 20
2.45692
 30
0.0
 11
0.0454101
 21
2.47597
 31
0.0
  0
LINE
  8
0
 62
     0
 10
0.0454101
 20
2.47597
 30
0.0
 11
0.0422635
 21
2.52317
 31
0.0
  0
LINE
  8
0
 62
     0
 10
0.0422635
 20
2.52317
 30
0.0
 11
0.0341797
 21
2.60183
 31
0.0
  0
LINE
  8
0
 62
     0
 10
0.0341797
 20
2.60183
 30
0.0
 11
0.0239258
 21
2.69065
 31
0.0
  0
LINE
  8
0
 62
     0
 10
0.0239258
 20
2.69065
 30
0.0
 11
0.0203993
 21
2.72021
 31
0.0
  0
LINE
  8
0
 62
     0
 10
0.0203993
 20
2.72021
 30
0.0
 11
0.0192057
 21
2.73019
 31
0.0
  0
LINE
  8
0
 62
     0
 10
0.0192057
 20
2.73019
 30
0.0
 11
0.016059
 21
2.76004
 31
0.0
  0
LINE
  8
0
 62
     0
 10
0.016059
 20
2.76004
 30
0.0
 11
0.0147569
 21
2.78825
 31
0.0
  0
LINE
  8
0
 62
     0
 10
0.0147569
 20
2.78825
 30
0.0
 11
0.0166015
 21
2.8131
 31
0.0
  0
LINE
  8
0
 62
     0
 10
0.0166015
 20
2.8131
 30
0.0
 11
0.0202908
 21
2.8355
 31
0.0
  0
LINE
  8
0
 62
     0
 10
0.0202908
 20
2.8355
 30
0.0
 11
0.0217014
 21
2.84289
 31
0.0
  0
LINE
  8
0
 62
     0
 10
0.0217014
 20
2.84289
 30
0.0
 11
0.0227322
 21
2.84853
 31
0.0
  0
LINE
  8
0
 62
     0
 10
0.0227322
 20
2.84853
 30
0.0
 11
0.0250108
 21
2.86594
 31
0.0
  0
LINE
  8
0
 62
     0
 10
0.0250108
 20
2.86594
 30
0.0
 11
0.0284289
 21
2.89849
 31
0.0
  0
LINE
  8
0
 62
     0
 10
0.0284289
 20
2.89849
 30
0.0
 11
0.0314671
 21
2.93614
 31
0.0
  0
LINE
  8
0
 62
     0
 10
0.0314671
 20
2.93614
 30
0.0
 11
0.0332574
 21
2.965
 31
0.0
  0
LINE
  8
0
 62
     0
 10
0.0332574
 20
2.965
 30
0.0
 11
0.0337457
 21
2.97461
 31
0.0
  0
LINE
  8
0
 62
     0
 10
0.0337457
 20
2.97461
 30
0.0
 11
0.0343967
 21
2.98964
 31
0.0
  0
LINE
  8
0
 62
     0
 10
0.0343967
 20
2.98964
 30
0.0
 11
0.040039
 21
3.03456
 31
0.0
  0
LINE
  8
0
 62
     0
 10
0.040039
 20
3.03456
 30
0.0
 11
0.0533311
 21
3.08512
 31
0.0
  0
LINE
  8
0
 62
     0
 10
0.0533311
 20
3.08512
 30
0.0
 11
0.0742188
 21
3.12804
 31
0.0
  0
LINE
  8
0
 62
     0
 10
0.0742188
 20
3.12804
 30
0.0
 11
0.0952692
 21
3.15662
 31
0.0
  0
LINE
  8
0
 62
     0
 10
0.0952692
 20
3.15662
 30
0.0
 11
0.103407
 21
3.16504
 31
0.0
  0
LINE
  8
0
 62
     0
 10
0.103407
 20
3.16504
 30
0.0
 11
0.105035
 21
3.16678
 31
0.0
  0
LINE
  8
0
 62
     0
 10
0.105035
 20
3.16678
 30
0.0
 11
0.120551
 21
3.18528
 31
0.0
  0
LINE
  8
0
 62
     0
 10
0.120551
 20
3.18528
 30
0.0
 11
0.140733
 21
3.21094
 31
0.0
  0
LINE
  8
0
 62
     0
 10
0.140733
 20
3.21094
 30
0.0
 11
0.144749
 21
3.21625
 31
0.0
  0
LINE
  8
0
 62
     0
 10
0.144749
 20
3.21625
 30
0.0
 11
0.148546
 21
3.22136
 31
0.0
  0
LINE
  8
0
 62
     0
 10
0.148546
 20
3.22136
 30
0.0
 11
0.160915
 21
3.236
 31
0.0
  0
LINE
  8
0
 62
     0
 10
0.160915
 20
3.236
 30
0.0
 11
0.183376
 21
3.26112
 31
0.0
  0
LINE
  8
0
 62
     0
 10
0.183376
 20
3.26112
 30
0.0
 11
0.209147
 21
3.28842
 31
0.0
  0
LINE
  8
0
 62
     0
 10
0.209147
 20
3.28842
 30
0.0
 11
0.228624
 21
3.30821
 31
0.0
  0
LINE
  8
0
 62
     0
 10
0.228624
 20
3.30821
 30
0.0
 11
0.235243
 21
3.31461
 31
0.0
  0
LINE
  8
0
 62
     0
 10
0.235243
 20
3.31461
 30
0.0
 11
0.241265
 21
3.32053
 31
0.0
  0
LINE
  8
0
 62
     0
 10
0.241265
 20
3.32053
 30
0.0
 11
0.25906
 21
3.33876
 31
0.0
  0
LINE
  8
0
 62
     0
 10
0.25906
 20
3.33876
 30
0.0
 11
0.278538
 21
3.36029
 31
0.0
  0
LINE
  8
0
 62
     0
 10
0.278538
 20
3.36029
 30
0.0
 11
0.291721
 21
3.3769
 31
0.0
  0
LINE
  8
0
 62
     0
 10
0.291721
 20
3.3769
 30
0.0
 11
0.296604
 21
3.3839
 31
0.0
  0
LINE
  8
0
 62
     0
 10
0.296604
 20
3.3839
 30
0.0
 11
0.296604
 21
3.38618
 31
0.0
  0
LINE
  8
0
 62
     0
 10
0.296604
 20
3.38618
 30
0.0
 11
0.296604
 21
3.38938
 31
0.0
  0
LINE
  8
0
 62
     0
 10
0.296604
 20
3.38938
 30
0.0
 11
0.30344
 21
3.39882
 31
0.0
  0
LINE
  8
0
 62
     0
 10
0.30344
 20
3.39882
 30
0.0
 11
0.316732
 21
3.4106
 31
0.0
  0
LINE
  8
0
 62
     0
 10
0.316732
 20
3.4106
 30
0.0
 11
0.319988
 21
3.4126
 31
0.0
  0
LINE
  8
0
 62
     0
 10
0.319988
 20
3.4126
 30
0.0
 11
0.323188
 21
3.41461
 31
0.0
  0
LINE
  8
0
 62
     0
 10
0.323188
 20
3.41461
 30
0.0
 11
0.336426
 21
3.42751
 31
0.0
  0
LINE
  8
0
 62
     0
 10
0.336426
 20
3.42751
 30
0.0
 11
0.343317
 21
3.43901
 31
0.0
  0
LINE
  8
0
 62
     0
 10
0.343317
 20
3.43901
 30
0.0
 11
0.343317
 21
3.44282
 31
0.0
  0
LINE
  8
0
 62
     0
 10
0.343317
 20
3.44282
 30
0.0
 11
0.343317
 21
3.44851
 31
0.0
  0
LINE
  8
0
 62
     0
 10
0.343317
 20
3.44851
 30
0.0
 11
0.349175
 21
3.46556
 31
0.0
  0
LINE
  8
0
 62
     0
 10
0.349175
 20
3.46556
 30
0.0
 11
0.360622
 21
3.49278
 31
0.0
  0
LINE
  8
0
 62
     0
 10
0.360622
 20
3.49278
 30
0.0
 11
0.36339
 21
3.49821
 31
0.0
  0
LINE
  8
0
 62
     0
 10
0.36339
 20
3.49821
 30
0.0
 11
0.366103
 21
3.50369
 31
0.0
  0
LINE
  8
0
 62
     0
 10
0.366103
 20
3.50369
 30
0.0
 11
0.378039
 21
3.54546
 31
0.0
  0
LINE
  8
0
 62
     0
 10
0.378039
 20
3.54546
 30
0.0
 11
0.384928
 21
3.59413
 31
0.0
  0
LINE
  8
0
 62
     0
 10
0.384928
 20
3.59413
 30
0.0
 11
0.3852
 21
3.60308
 31
0.0
  0
LINE
  8
0
 62
     0
 10
0.3852
 20
3.60308
 30
0.0
 11
0.385417
 21
3.61203
 31
0.0
  0
LINE
  8
0
 62
     0
 10
0.385417
 20
3.61203
 30
0.0
 11
0.389865
 21
3.65565
 31
0.0
  0
LINE
  8
0
 62
     0
 10
0.389865
 20
3.65565
 30
0.0
 11
0.397026
 21
3.68761
 31
0.0
  0
LINE
  8
0
 62
     0
 10
0.397026
 20
3.68761
 30
0.0
 11
0.398654
 21
3.69069
 31
0.0
  0
LINE
  8
0
 62
     0
 10
0.398654
 20
3.69069
 30
0.0
 11
0.400228
 21
3.69379
 31
0.0
  0
LINE
  8
0
 62
     0
 10
0.400228
 20
3.69379
 30
0.0
 11
0.403321
 21
3.70682
 31
0.0
  0
LINE
  8
0
 62
     0
 10
0.403321
 20
3.70682
 30
0.0
 11
0.407335
 21
3.73394
 31
0.0
  0
LINE
  8
0
 62
     0
 10
0.407335
 20
3.73394
 30
0.0
 11
0.410319
 21
3.76839
 31
0.0
  0
LINE
  8
0
 62
     0
 10
0.410319
 20
3.76839
 30
0.0
 11
0.411675
 21
3.79688
 31
0.0
  0
LINE
  8
0
 62
     0
 10
0.411675
 20
3.79688
 30
0.0
 11
0.411838
 21
3.80632
 31
0.0
  0
LINE
  8
0
 62
     0
 10
0.411838
 20
3.80632
 30
0.0
 11
0.41211
 21
3.82394
 31
0.0
  0
LINE
  8
0
 62
     0
 10
0.41211
 20
3.82394
 30
0.0
 11
0.415474
 21
3.87685
 31
0.0
  0
LINE
  8
0
 62
     0
 10
0.415474
 20
3.87685
 30
0.0
 11
0.424642
 21
3.92839
 31
0.0
  0
LINE
  8
0
 62
     0
 10
0.424642
 20
3.92839
 30
0.0
 11
0.440267
 21
3.96457
 31
0.0
  0
LINE
  8
0
 62
     0
 10
0.440267
 20
3.96457
 30
0.0
 11
0.456706
 21
3.9841
 31
0.0
  0
LINE
  8
0
 62
     0
 10
0.456706
 20
3.9841
 30
0.0
 11
0.463433
 21
3.98888
 31
0.0
  0
LINE
  8
0
 62
     0
 10
0.463433
 20
3.98888
 30
0.0
 11
0.481119
 21
4.00163
 31
0.0
  0
LINE
  8
0
 62
     0
 10
0.481119
 20
4.00163
 30
0.0
 11
0.544814
 21
4.02522
 31
0.0
  0
LINE
  8
0
 62
     0
 10
0.544814
 20
4.02522
 30
0.0
 11
0.675726
 21
4.05024
 31
0.0
  0
LINE
  8
0
 62
     0
 10
0.675726
 20
4.05024
 30
0.0
 11
0.86225
 21
4.06472
 31
0.0
  0
LINE
  8
0
 62
     0
 10
0.86225
 20
4.06472
 30
0.0
 11
1.04845
 21
4.06944
 31
0.0
  0
LINE
  8
0
 62
     0
 10
1.04845
 20
4.06944
 30
0.0
 11
1.11051
 21
4.06944
 31
0.0
  0
LINE
  8
0
 62
     0
 10
1.11051
 20
4.06944
 30
0.0
 11
1.14459
 21
4.0695
 31
0.0
  0
LINE
  8
0
 62
     0
 10
1.14459
 20
4.0695
 30
0.0
 11
1.24691
 21
4.06907
 31
0.0
  0
LINE
  8
0
 62
     0
 10
1.24691
 20
4.06907
 30
0.0
 11
1.32075
 21
4.06581
 31
0.0
  0
LINE
  8
0
 62
     0
 10
1.32075
 20
4.06581
 30
0.0
 11
1.35715
 21
4.05713
 31
0.0
  0
LINE
  8
0
 62
     0
 10
1.35715
 20
4.05713
 30
0.0
 11
1.37549
 21
4.04492
 31
0.0
  0
LINE
  8
0
 62
     0
 10
1.37549
 20
4.04492
 30
0.0
 11
1.38108
 21
4.04021
 31
0.0
  0
LINE
  8
0
 62
     0
 10
1.38108
 20
4.04021
 30
0.0
 11
1.3858
 21
4.03624
 31
0.0
  0
LINE
  8
0
 62
     0
 10
1.3858
 20
4.03624
 30
0.0
 11
1.39888
 21
4.02279
 31
0.0
  0
LINE
  8
0
 62
     0
 10
1.39888
 20
4.02279
 30
0.0
 11
1.41069
 21
4.00358
 31
0.0
  0
LINE
  8
0
 62
     0
 10
1.41069
 20
4.00358
 30
0.0
 11
1.41846
 21
3.97868
 31
0.0
  0
LINE
  8
0
 62
     0
 10
1.41846
 20
3.97868
 30
0.0
 11
1.4229
 21
3.95258
 31
0.0
  0
LINE
  8
0
 62
     0
 10
1.4229
 20
3.95258
 30
0.0
 11
1.42393
 21
3.94379
 31
0.0
  0
LINE
  8
0
 62
     0
 10
1.42393
 20
3.94379
 30
0.0
 11
1.42806
 21
3.90913
 31
0.0
  0
LINE
  8
0
 62
     0
 10
1.42806
 20
3.90913
 30
0.0
 11
1.43294
 21
3.80419
 31
0.0
  0
LINE
  8
0
 62
     0
 10
1.43294
 20
3.80419
 30
0.0
 11
1.43349
 21
3.63536
 31
0.0
  0
LINE
  8
0
 62
     0
 10
1.43349
 20
3.63536
 30
0.0
 11
1.42622
 21
3.47244
 31
0.0
  0
LINE
  8
0
 62
     0
 10
1.42622
 20
3.47244
 30
0.0
 11
1.41775
 21
3.38049
 31
0.0
  0
LINE
  8
0
 62
     0
 10
1.41775
 20
3.38049
 30
0.0
 11
1.41189
 21
3.35064
 31
0.0
  0
LINE
  8
0
 62
     0
 10
1.41189
 20
3.35064
 30
0.0
 11
1.41124
 21
3.34739
 31
0.0
  0
LINE
  8
0
 62
     0
 10
1.41124
 20
3.34739
 30
0.0
 11
1.40582
 21
3.33826
 31
0.0
  0
LINE
  8
0
 62
     0
 10
1.40582
 20
3.33826
 30
0.0
 11
1.3929
 21
3.3221
 31
0.0
  0
LINE
  8
0
 62
     0
 10
1.3929
 20
3.3221
 30
0.0
 11
1.375
 21
3.30431
 31
0.0
  0
LINE
  8
0
 62
     0
 10
1.375
 20
3.30431
 30
0.0
 11
1.35943
 21
3.29101
 31
0.0
  0
LINE
  8
0
 62
     0
 10
1.35943
 20
3.29101
 30
0.0
 11
1.354
 21
3.28694
 31
0.0
  0
LINE
  8
0
 62
     0
 10
1.354
 20
3.28694
 30
0.0
 11
1.34668
 21
3.28147
 31
0.0
  0
LINE
  8
0
 62
     0
 10
1.34668
 20
3.28147
 30
0.0
 11
1.30968
 21
3.24837
 31
0.0
  0
LINE
  8
0
 62
     0
 10
1.30968
 20
3.24837
 30
0.0
 11
1.28109
 21
3.21642
 31
0.0
  0
LINE
  8
0
 62
     0
 10
1.28109
 20
3.21642
 30
0.0
 11
1.27794
 21
3.21149
 31
0.0
  0
LINE
  8
0
 62
     0
 10
1.27794
 20
3.21149
 30
0.0
 11
1.27479
 21
3.2066
 31
0.0
  0
LINE
  8
0
 62
     0
 10
1.27479
 20
3.2066
 30
0.0
 11
1.25738
 21
3.17964
 31
0.0
  0
LINE
  8
0
 62
     0
 10
1.25738
 20
3.17964
 30
0.0
 11
1.24219
 21
3.15614
 31
0.0
  0
LINE
  8
0
 62
     0
 10
1.24219
 20
3.15614
 30
0.0
 11
1.24018
 21
3.153
 31
0.0
  0
LINE
  8
0
 62
     0
 10
1.24018
 20
3.153
 30
0.0
 11
1.23812
 21
3.14985
 31
0.0
  0
LINE
  8
0
 62
     0
 10
1.23812
 20
3.14985
 30
0.0
 11
1.22678
 21
3.13456
 31
0.0
  0
LINE
  8
0
 62
     0
 10
1.22678
 20
3.13456
 30
0.0
 11
1.20139
 21
3.10118
 31
0.0
  0
LINE
  8
0
 62
     0
 10
1.20139
 20
3.10118
 30
0.0
 11
1.16753
 21
3.05767
 31
0.0
  0
LINE
  8
0
 62
     0
 10
1.16753
 20
3.05767
 30
0.0
 11
1.13862
 21
3.02089
 31
0.0
  0
LINE
  8
0
 62
     0
 10
1.13862
 20
3.02089
 30
0.0
 11
1.12896
 21
3.00868
 31
0.0
  0
LINE
  8
0
 62
     0
 10
1.12896
 20
3.00868
 30
0.0
 11
1.11947
 21
2.99675
 31
0.0
  0
LINE
  8
0
 62
     0
 10
1.11947
 20
2.99675
 30
0.0
 11
1.09152
 21
2.96035
 31
0.0
  0
LINE
  8
0
 62
     0
 10
1.09152
 20
2.96035
 30
0.0
 11
1.06087
 21
2.91857
 31
0.0
  0
LINE
  8
0
 62
     0
 10
1.06087
 20
2.91857
 30
0.0
 11
1.04015
 21
2.88775
 31
0.0
  0
LINE
  8
0
 62
     0
 10
1.04015
 20
2.88775
 30
0.0
 11
1.03255
 21
2.87625
 31
0.0
  0
LINE
  8
0
 62
     0
 10
1.03255
 20
2.87625
 30
0.0
 11
1.03255
 21
2.8724
 31
0.0
  0
LINE
  8
0
 62
     0
 10
1.03255
 20
2.8724
 30
0.0
 11
1.03255
 21
2.86778
 31
0.0
  0
LINE
  8
0
 62
     0
 10
1.03255
 20
2.86778
 30
0.0
 11
1.02322
 21
2.85394
 31
0.0
  0
LINE
  8
0
 62
     0
 10
1.02322
 20
2.85394
 30
0.0
 11
0.994358
 21
2.81776
 31
0.0
  0
LINE
  8
0
 62
     0
 10
0.994358
 20
2.81776
 30
0.0
 11
0.944336
 21
2.7621
 31
0.0
  0
LINE
  8
0
 62
     0
 10
0.944336
 20
2.7621
 30
0.0
 11
0.889919
 21
2.70426
 31
0.0
  0
LINE
  8
0
 62
     0
 10
0.889919
 20
2.70426
 30
0.0
 11
0.871636
 21
2.68517
 31
0.0
  0
LINE
  8
0
 62
     0
 10
0.871636
 20
2.68517
 30
0.0
 11
0.860026
 21
2.67312
 31
0.0
  0
LINE
  8
0
 62
     0
 10
0.860026
 20
2.67312
 30
0.0
 11
0.820529
 21
2.62571
 31
0.0
  0
LINE
  8
0
 62
     0
 10
0.820529
 20
2.62571
 30
0.0
 11
0.749567
 21
2.53608
 31
0.0
  0
LINE
  8
0
 62
     0
 10
0.749567
 20
2.53608
 30
0.0
 11
0.677572
 21
2.44081
 31
0.0
  0
LINE
  8
0
 62
     0
 10
0.677572
 20
2.44081
 30
0.0
 11
0.636501
 21
2.384
 31
0.0
  0
LINE
  8
0
 62
     0
 10
0.636501
 20
2.384
 30
0.0
 11
0.623699
 21
2.36447
 31
0.0
  0
LINE
  8
0
 62
     0
 10
0.623699
 20
2.36447
 30
0.0
 11
0.619683
 21
2.3584
 31
0.0
  0
LINE
  8
0
 62
     0
 10
0.619683
 20
2.3584
 30
0.0
 11
0.597168
 21
2.32493
 31
0.0
  0
LINE
  8
0
 62
     0
 10
0.597168
 20
2.32493
 30
0.0
 11
0.577149
 21
2.2959
 31
0.0
  0
LINE
  8
0
 62
     0
 10
0.577149
 20
2.2959
 30
0.0
 11
0.574382
 21
2.29199
 31
0.0
  0
LINE
  8
0
 62
     0
 10
0.574382
 20
2.29199
 30
0.0
 11
0.567329
 21
2.28222
 31
0.0
  0
LINE
  8
0
 62
     0
 10
0.567329
 20
2.28222
 30
0.0
 11
0.551975
 21
2.24843
 31
0.0
  0
LINE
  8
0
 62
     0
 10
0.551975
 20
2.24843
 30
0.0
 11
0.530111
 21
2.1869
 31
0.0
  0
LINE
  8
0
 62
     0
 10
0.530111
 20
2.1869
 30
0.0
 11
0.513456
 21
2.12289
 31
0.0
  0
LINE
  8
0
 62
     0
 10
0.513456
 20
2.12289
 30
0.0
 11
0.50689
 21
2.08469
 31
0.0
  0
LINE
  8
0
 62
     0
 10
0.50689
 20
2.08469
 30
0.0
 11
0.50689
 21
2.07194
 31
0.0
  0
LINE
  8
0
 62
     0
 10
0.50689
 20
2.07194
 30
0.0
 11
0.50689
 21
2.05963
 31
0.0
  0
LINE
  8
0
 62
     0
 10
0.50689
 20
2.05963
 30
0.0
 11
0.50331
 21
2.02268
 31
0.0
  0
LINE
  8
0
 62
     0
 10
0.50331
 20
2.02268
 30
0.0
 11
0.496419
 21
1.97407
 31
0.0
  0
LINE
  8
0
 62
     0
 10
0.496419
 20
1.97407
 30
0.0
 11
0.494792
 21
1.96539
 31
0.0
  0
LINE
  8
0
 62
     0
 10
0.494792
 20
1.96539
 30
0.0
 11
0.493272
 21
1.95757
 31
0.0
  0
LINE
  8
0
 62
     0
 10
0.493272
 20
1.95757
 30
0.0
 11
0.490614
 21
1.93365
 31
0.0
  0
LINE
  8
0
 62
     0
 10
0.490614
 20
1.93365
 30
0.0
 11
0.488444
 21
1.89426
 31
0.0
  0
LINE
  8
0
 62
     0
 10
0.488444
 20
1.89426
 30
0.0
 11
0.48839
 21
1.85189
 31
0.0
  0
LINE
  8
0
 62
     0
 10
0.48839
 20
1.85189
 30
0.0
 11
0.489637
 21
1.82135
 31
0.0
  0
LINE
  8
0
 62
     0
 10
0.489637
 20
1.82135
 30
0.0
 11
0.490506
 21
1.81119
 31
0.0
  0
LINE
  8
0
 62
     0
 10
0.490506
 20
1.81119
 30
0.0
 11
0.491319
 21
1.80138
 31
0.0
  0
LINE
  8
0
 62
     0
 10
0.491319
 20
1.80138
 30
0.0
 11
0.494575
 21
1.77197
 31
0.0
  0
LINE
  8
0
 62
     0
 10
0.494575
 20
1.77197
 30
0.0
 11
0.500435
 21
1.74175
 31
0.0
  0
LINE
  8
0
 62
     0
 10
0.500435
 20
1.74175
 30
0.0
 11
0.509874
 21
1.71935
 31
0.0
  0
LINE
  8
0
 62
     0
 10
0.509874
 20
1.71935
 30
0.0
 11
0.524685
 21
1.70335
 31
0.0
  0
LINE
  8
0
 62
     0
 10
0.524685
 20
1.70335
 30
0.0
 11
0.546604
 21
1.69254
 31
0.0
  0
LINE
  8
0
 62
     0
 10
0.546604
 20
1.69254
 30
0.0
 11
0.577474
 21
1.68565
 31
0.0
  0
LINE
  8
0
 62
     0
 10
0.577474
 20
1.68565
 30
0.0
 11
0.619086
 21
1.68126
 31
0.0
  0
LINE
  8
0
 62
     0
 10
0.619086
 20
1.68126
 30
0.0
 11
0.659668
 21
1.67876
 31
0.0
  0
LINE
  8
0
 62
     0
 10
0.659668
 20
1.67876
 30
0.0
 11
0.673232
 21
1.67811
 31
0.0
  0
LINE
  8
0
 62
     0
 10
0.673232
 20
1.67811
 30
0.0
 11
0.793078
 21
1.67231
 31
0.0
  0
LINE
  8
0
 62
     0
 10
0.793078
 20
1.67231
 30
0.0
 11
0.894694
 21
1.77279
 31
0.0
  0
LINE
  8
0
 62
     0
 10
0.894694
 20
1.77279
 30
0.0
 11
0.904622
 21
1.78267
 31
0.0
  0
LINE
  8
0
 62
     0
 10
0.904622
 20
1.78267
 30
0.0
 11
0.934842
 21
1.81185
 31
0.0
  0
LINE
  8
0
 62
     0
 10
0.934842
 20
1.81185
 30
0.0
 11
0.969185
 21
1.84381
 31
0.0
  0
LINE
  8
0
 62
     0
 10
0.969185
 20
1.84381
 30
0.0
 11
0.994032
 21
1.86535
 31
0.0
  0
LINE
  8
0
 62
     0
 10
0.994032
 20
1.86535
 30
0.0
 11
1.00277
 21
1.87326
 31
0.0
  0
LINE
  8
0
 62
     0
 10
1.00277
 20
1.87326
 30
0.0
 11
1.0057
 21
1.87326
 31
0.0
  0
LINE
  8
0
 62
     0
 10
1.0057
 20
1.87326
 30
0.0
 11
1.0076
 21
1.87326
 31
0.0
  0
LINE
  8
0
 62
     0
 10
1.0076
 20
1.87326
 30
0.0
 11
1.0134
 21
1.87706
 31
0.0
  0
LINE
  8
0
 62
     0
 10
1.0134
 20
1.87706
 30
0.0
 11
1.02762
 21
1.88726
 31
0.0
  0
LINE
  8
0
 62
     0
 10
1.02762
 20
1.88726
 30
0.0
 11
1.04617
 21
1.90246
 31
0.0
  0
LINE
  8
0
 62
     0
 10
1.04617
 20
1.90246
 30
0.0
 11
1.06201
 21
1.91624
 31
0.0
  0
LINE
  8
0
 62
     0
 10
1.06201
 20
1.91624
 30
0.0
 11
1.06717
 21
1.9209
 31
0.0
  0
LINE
  8
0
 62
     0
 10
1.06717
 20
1.9209
 30
0.0
 11
1.07758
 21
1.93044
 31
0.0
  0
LINE
  8
0
 62
     0
 10
1.07758
 20
1.93044
 30
0.0
 11
1.1097
 21
1.95806
 31
0.0
  0
LINE
  8
0
 62
     0
 10
1.1097
 20
1.95806
 30
0.0
 11
1.14301
 21
1.97911
 31
0.0
  0
LINE
  8
0
 62
     0
 10
1.14301
 20
1.97911
 30
0.0
 11
1.18028
 21
1.99007
 31
0.0
  0
LINE
  8
0
 62
     0
 10
1.18028
 20
1.99007
 30
0.0
 11
1.22119
 21
1.99567
 31
0.0
  0
LINE
  8
0
 62
     0
 10
1.22119
 20
1.99567
 30
0.0
 11
1.23492
 21
1.99701
 31
0.0
  0
LINE
  8
0
 62
     0
 10
1.23492
 20
1.99701
 30
0.0
 11
1.24555
 21
1.9981
 31
0.0
  0
LINE
  8
0
 62
     0
 10
1.24555
 20
1.9981
 30
0.0
 11
1.27778
 21
1.99972
 31
0.0
  0
LINE
  8
0
 62
     0
 10
1.27778
 20
1.99972
 30
0.0
 11
1.31348
 21
1.99778
 31
0.0
  0
LINE
  8
0
 62
     0
 10
1.31348
 20
1.99778
 30
0.0
 11
1.34294
 21
1.9904
 31
0.0
  0
LINE
  8
0
 62
     0
 10
1.34294
 20
1.9904
 30
0.0
 11
1.36702
 21
1.97694
 31
0.0
  0
LINE
  8
0
 62
     0
 10
1.36702
 20
1.97694
 30
0.0
 11
1.38672
 21
1.95665
 31
0.0
  0
LINE
  8
0
 62
     0
 10
1.38672
 20
1.95665
 30
0.0
 11
1.40294
 21
1.92887
 31
0.0
  0
LINE
  8
0
 62
     0
 10
1.40294
 20
1.92887
 30
0.0
 11
1.41661
 21
1.89279
 31
0.0
  0
LINE
  8
0
 62
     0
 10
1.41661
 20
1.89279
 30
0.0
 11
1.42606
 21
1.8591
 31
0.0
  0
LINE
  8
0
 62
     0
 10
1.42606
 20
1.8591
 30
0.0
 11
1.42871
 21
1.84771
 31
0.0
  0
LINE
  8
0
 62
     0
 10
1.42871
 20
1.84771
 30
0.0
 11
1.43197
 21
1.83361
 31
0.0
  0
LINE
  8
0
 62
     0
 10
1.43197
 20
1.83361
 30
0.0
 11
1.43414
 21
1.78939
 31
0.0
  0
LINE
  8
0
 62
     0
 10
1.43414
 20
1.78939
 30
0.0
 11
1.43793
 21
1.68061
 31
0.0
  0
LINE
  8
0
 62
     0
 10
1.43793
 20
1.68061
 30
0.0
 11
1.44011
 21
1.53939
 31
0.0
  0
LINE
  8
0
 62
     0
 10
1.44011
 20
1.53939
 30
0.0
 11
1.4406
 21
1.38357
 31
0.0
  0
LINE
  8
0
 62
     0
 10
1.4406
 20
1.38357
 30
0.0
 11
1.43956
 21
1.23117
 31
0.0
  0
LINE
  8
0
 62
     0
 10
1.43956
 20
1.23117
 30
0.0
 11
1.43696
 21
1.10015
 31
0.0
  0
LINE
  8
0
 62
     0
 10
1.43696
 20
1.10015
 30
0.0
 11
1.43289
 21
1.00836
 31
0.0
  0
LINE
  8
0
 62
     0
 10
1.43289
 20
1.00836
 30
0.0
 11
1.42865
 21
0.973742
 31
0.0
  0
LINE
  8
0
 62
     0
 10
1.42865
 20
0.973742
 30
0.0
 11
1.42731
 21
0.973742
 31
0.0
  0
LINE
  8
0
 62
     0
 10
1.42731
 20
0.973742
 30
0.0
 11
1.42557
 21
0.973742
 31
0.0
  0
LINE
  8
0
 62
     0
 10
1.42557
 20
0.973742
 30
0.0
 11
1.42046
 21
0.965169
 31
0.0
  0
LINE
  8
0
 62
     0
 10
1.42046
 20
0.965169
 30
0.0
 11
1.42014
 21
0.948568
 31
0.0
  0
LINE
  8
0
 62
     0
 10
1.42014
 20
0.948568
 30
0.0
 11
1.42096
 21
0.944553
 31
0.0
  0
LINE
  8
0
 62
     0
 10
1.42096
 20
0.944553
 30
0.0
 11
1.42193
 21
0.939453
 31
0.0
  0
LINE
  8
0
 62
     0
 10
1.42193
 20
0.939453
 30
0.0
 11
1.42111
 21
0.92231
 31
0.0
  0
LINE
  8
0
 62
     0
 10
1.42111
 20
0.92231
 30
0.0
 11
1.41233
 21
0.91531
 31
0.0
  0
LINE
  8
0
 62
     0
 10
1.41233
 20
0.91531
 30
0.0
 11
1.4094
 21
0.91531
 31
0.0
  0
LINE
  8
0
 62
     0
 10
1.4094
 20
0.91531
 30
0.0
 11
1.40674
 21
0.91531
 31
0.0
  0
LINE
  8
0
 62
     0
 10
1.40674
 20
0.91531
 30
0.0
 11
1.39893
 21
0.910753
 31
0.0
  0
LINE
  8
0
 62
     0
 10
1.39893
 20
0.910753
 30
0.0
 11
1.39751
 21
0.901585
 31
0.0
  0
LINE
  8
0
 62
     0
 10
1.39751
 20
0.901585
 30
0.0
 11
1.39839
 21
0.899306
 31
0.0
  0
LINE
  8
0
 62
     0
 10
1.39839
 20
0.899306
 30
0.0
 11
1.39919
 21
0.897136
 31
0.0
  0
LINE
  8
0
 62
     0
 10
1.39919
 20
0.897136
 30
0.0
 11
1.39324
 21
0.876465
 31
0.0
  0
LINE
  8
0
 62
     0
 10
1.39324
 20
0.876465
 30
0.0
 11
1.37668
 21
0.849283
 31
0.0
  0
LINE
  8
0
 62
     0
 10
1.37668
 20
0.849283
 30
0.0
 11
1.37229
 21
0.843858
 31
0.0
  0
LINE
  8
0
 62
     0
 10
1.37229
 20
0.843858
 30
0.0
 11
1.36491
 21
0.834853
 31
0.0
  0
LINE
  8
0
 62
     0
 10
1.36491
 20
0.834853
 30
0.0
 11
1.34646
 21
0.804742
 31
0.0
  0
LINE
  8
0
 62
     0
 10
1.34646
 20
0.804742
 30
0.0
 11
1.33333
 21
0.765192
 31
0.0
  0
LINE
  8
0
 62
     0
 10
1.33333
 20
0.765192
 30
0.0
 11
1.33263
 21
0.723796
 31
0.0
  0
LINE
  8
0
 62
     0
 10
1.33263
 20
0.723796
 30
0.0
 11
1.34006
 21
0.689942
 31
0.0
  0
LINE
  8
0
 62
     0
 10
1.34006
 20
0.689942
 30
0.0
 11
1.34408
 21
0.679199
 31
0.0
  0
LINE
  8
0
 62
     0
 10
1.34408
 20
0.679199
 30
0.0
 11
1.34966
 21
0.664117
 31
0.0
  0
LINE
  8
0
 62
     0
 10
1.34966
 20
0.664117
 30
0.0
 11
1.35813
 21
0.601129
 31
0.0
  0
LINE
  8
0
 62
     0
 10
1.35813
 20
0.601129
 30
0.0
 11
1.36583
 21
0.48291
 31
0.0
  0
LINE
  8
0
 62
     0
 10
1.36583
 20
0.48291
 30
0.0
 11
1.36589
 21
0.362685
 31
0.0
  0
LINE
  8
0
 62
     0
 10
1.36589
 20
0.362685
 30
0.0
 11
1.36165
 21
0.296386
 31
0.0
  0
LINE
  8
0
 62
     0
 10
1.36165
 20
0.296386
 30
0.0
 11
1.3571
 21
0.278646
 31
0.0
  0
LINE
  8
0
 62
     0
 10
1.3571
 20
0.278646
 30
0.0
 11
1.35541
 21
0.272244
 31
0.0
  0
LINE
  8
0
 62
     0
 10
1.35541
 20
0.272244
 30
0.0
 11
1.34912
 21
0.228733
 31
0.0
  0
LINE
  8
0
 62
     0
 10
1.34912
 20
0.228733
 30
0.0
 11
1.34673
 21
0.182238
 31
0.0
  0
LINE
  8
0
 62
     0
 10
1.34673
 20
0.182238
 30
0.0
 11
1.34706
 21
0.174262
 31
0.0
  0
LINE
  8
0
 62
     0
 10
1.34706
 20
0.174262
 30
0.0
 11
1.34738
 21
0.1639
 31
0.0
  0
LINE
  8
0
 62
     0
 10
1.34738
 20
0.1639
 30
0.0
 11
1.34625
 21
0.132596
 31
0.0
  0
LINE
  8
0
 62
     0
 10
1.34625
 20
0.132596
 30
0.0
 11
1.34044
 21
0.0978733
 31
0.0
  0
LINE
  8
0
 62
     0
 10
1.34044
 20
0.0978733
 30
0.0
 11
1.3291
 21
0.0696615
 31
0.0
  0
LINE
  8
0
 62
     0
 10
1.3291
 20
0.0696615
 30
0.0
 11
1.31169
 21
0.0475261
 31
0.0
  0
LINE
  8
0
 62
     0
 10
1.31169
 20
0.0475261
 30
0.0
 11
1.28771
 21
0.0309244
 31
0.0
  0
LINE
  8
0
 62
     0
 10
1.28771
 20
0.0309244
 30
0.0
 11
1.25657
 21
0.0194228
 31
0.0
  0
LINE
  8
0
 62
     0
 10
1.25657
 20
0.0194228
 30
0.0
 11
1.21783
 21
0.0124783
 31
0.0
  0
LINE
  8
0
 62
     0
 10
1.21783
 20
0.0124783
 30
0.0
 11
1.18267
 21
0.00976563
 31
0.0
  0
LINE
  8
0
 62
     0
 10
1.18267
 20
0.00976563
 30
0.0
 11
1.17095
 21
0.00954861
 31
0.0
  0
LINE
  8
0
 62
     0
 10
1.17095
 20
0.00954861
 30
0.0
 11
1.16189
 21
0.00938585
 31
0.0
  0
LINE
  8
0
 62
     0
 10
1.16189
 20
0.00938585
 30
0.0
 11
1.13471
 21
0.00971137
 31
0.0
  0
LINE
  8
0
 62
     0
 10
1.13471
 20
0.00971137
 30
0.0
 11
1.10221
 21
0.0114475
 31
0.0
  0
LINE
  8
0
 62
     0
 10
1.10221
 20
0.0114475
 30
0.0
 11
1.07699
 21
0.0144314
 31
0.0
  0
LINE
  8
0
 62
     0
 10
1.07699
 20
0.0144314
 30
0.0
 11
1.06521
 21
0.0169271
 31
0.0
  0
LINE
  8
0
 62
     0
 10
1.06521
 20
0.0169271
 30
0.0
 11
1.06266
 21
0.0183376
 31
0.0
  0
ENDSEC
  0
EOF
