<?xml version="1.0" encoding="UTF-8" standalone="no"?>
<!-- Created with Inkscape (http://www.inkscape.org/) -->

<svg
   xmlns:dc="http://purl.org/dc/elements/1.1/"
   xmlns:cc="http://creativecommons.org/ns#"
   xmlns:rdf="http://www.w3.org/1999/02/22-rdf-syntax-ns#"
   xmlns:svg="http://www.w3.org/2000/svg"
   xmlns="http://www.w3.org/2000/svg"
   xmlns:sodipodi="http://sodipodi.sourceforge.net/DTD/sodipodi-0.dtd"
   xmlns:inkscape="http://www.inkscape.org/namespaces/inkscape"
   id="svg2989"
   version="1.1"
   inkscape:version="0.48.3.1 r9886"
   width="184"
   height="400"
   sodipodi:docname="profile.svg">
  <metadata
     id="metadata2995">
    <rdf:RDF>
      <cc:Work
         rdf:about="">
        <dc:format>image/svg+xml</dc:format>
        <dc:type
           rdf:resource="http://purl.org/dc/dcmitype/StillImage" />
        <dc:title />
      </cc:Work>
    </rdf:RDF>
  </metadata>
  <defs
     id="defs2993" />
  <sodipodi:namedview
     pagecolor="#ffffff"
     bordercolor="#666666"
     borderopacity="1"
     objecttolerance="10"
     gridtolerance="10"
     guidetolerance="10"
     inkscape:pageopacity="0"
     inkscape:pageshadow="2"
     inkscape:window-width="1551"
     inkscape:window-height="876"
     id="namedview2991"
     showgrid="false"
     inkscape:zoom="1.668772"
     inkscape:cx="92"
     inkscape:cy="200"
     inkscape:window-x="49"
     inkscape:window-y="24"
     inkscape:window-maximized="1"
     inkscape:current-layer="svg2989" />
  <path
     style="fill:#000000"
     d="m 121.84033,394.46417 c -0.99393,-0.55623 -2.68121,-0.88806 -3.74949,-0.7374 -4.0397,0.56972 -9.02312,-1.49968 -12.66836,-5.26063 -3.77027,-3.88992 -3.77516,-3.90934 -3.30411,-13.12571 1.06182,-20.77547 0.4999,-26.0564 -3.156646,-29.66623 -3.313,-3.27068 -7.454883,-19.83084 -5.73057,-22.91203 0.4728,-0.84484 1.04784,-5.64013 1.27786,-10.6562 0.23001,-5.01606 0.97453,-9.80491 1.65448,-10.64188 4.111466,-5.06092 5.347486,-18.40382 1.96489,-21.21113 -2.27662,-1.88942 -14.695236,-2.76036 -16.617082,-1.16538 -1.132864,0.9402 -1.712216,0.96523 -2.005083,0.0866 -0.279823,-0.83949 -1.463009,-0.69028 -3.690709,0.46547 -2.143755,1.11219 -4.978799,1.50115 -8.189431,1.12355 -5.97132,-0.70222 -19.186787,-6.85188 -26.056861,-12.12519 -2.775694,-2.13057 -5.690038,-3.90726 -6.476339,-3.94822 -0.78629,-0.0409 -1.909308,-1.33613 -2.495602,-2.87819 -0.586282,-1.54205 -1.801465,-2.80373 -2.700397,-2.80373 -0.898932,0 -1.954773,-1.00934 -2.34632,-2.24298 -0.391535,-1.23365 -1.175784,-2.24299 -1.742754,-2.24299 -1.985356,0 -4.598591,-8.49128 -5.349756,-17.38314 -0.738278,-8.7392 -0.783362,-12.72775 -0.380332,-33.64477 0.106991,-5.55139 0.119776,-11.35512 0.02849,-12.89717 -0.09129,-1.54205 0.134781,-5.57943 0.502407,-8.97194 0.578813,-5.34126 1.189432,-8.99508 3.470515,-20.76688 0.38318,-1.97741 -0.128198,-7.71697 -2.296458,-25.77507 -0.743146,-6.18927 -0.731606,-7.29056 0.123465,-11.77567 0.411588,-2.15887 0.932532,-7.8476 1.157649,-12.6416 0.391996,-8.3477 2.403785,-13.847307 6.68782,-18.282463 0.639901,-0.662488 2.425138,-2.87535 3.96719,-4.91746 1.542053,-2.042113 5.453258,-6.29207 8.691568,-9.444344 3.23831,-3.152275 5.887837,-6.243248 5.887837,-6.868828 0,-0.62558 1.009343,-1.767764 2.242985,-2.538185 1.233642,-0.770422 2.242985,-2.075962 2.242985,-2.9012 0,-0.825237 0.866892,-3.218151 1.926422,-5.317586 1.05953,-2.099436 2.002504,-6.628168 2.095486,-10.06385 0.09297,-3.435682 0.673838,-7.22072 1.290794,-8.411195 0.616966,-1.190475 1.185361,-6.186266 1.263114,-11.101758 0.164187,-10.379932 1.477522,-15.026378 4.95351,-17.524935 7.512307,-5.3998977 26.136801,-7.7184837 62.122763,-7.7337407 22.53048,-0.0095 22.63805,0.0021 25.97168,2.80713 2.73681,2.3028767 3.48764,3.9907477 4.11581,9.2523147 1.731,14.498806 1.10143,45.489955 -1.15682,56.946141 -0.24789,1.257501 -2.74871,4.008198 -5.5574,6.11266 -2.80869,2.104461 -6.09459,5.365306 -7.30198,7.24632 -1.20741,1.881012 -2.83776,4.40723 -3.62299,5.613799 -0.78523,1.206569 -5.59123,7.44179 -10.68,13.85605 -5.08878,6.41426 -9.25232,12.30142 -9.25232,13.08259 0,1.31175 -4.6197,6.68513 -15.44976,17.97029 -4.448472,4.63541 -18.867761,23.28546 -23.802485,30.78638 -1.542053,2.34395 -3.672664,5.47585 -4.734695,6.95978 -2.694644,3.76507 -6.480232,16.1059 -6.480232,21.12523 0,2.30274 -0.522032,6.90521 -1.16006,10.22771 -0.64912,3.38019 -0.829501,9.90136 -0.409547,14.80569 0.969912,11.32688 1.929248,12.02581 17.537352,12.77689 l 11.508825,0.55382 9.754132,-9.64588 c 5.36477,-5.30523 10.15938,-9.64588 10.65468,-9.64588 0.4953,0 3.15218,-2.0582 5.90418,-4.57377 6.61151,-6.04351 7.43457,-6.41687 16.10396,-7.30508 11.98436,-1.22783 15.6463,1.59387 18.60349,14.33489 1.613,6.94954 1.48589,83.89889 -0.13858,83.89889 -0.62891,0 -0.9023,1.26168 -0.60752,2.80374 0.37487,1.961 0.0411,2.80373 -1.11073,2.80373 -0.93384,0 -1.39137,0.66539 -1.0569,1.53701 0.32439,0.84536 -0.80303,3.24255 -2.50538,5.32709 -4.11849,5.0431 -4.93863,9.83048 -2.7079,15.80685 2.16218,5.79277 3.00147,31.64093 1.24848,38.4504 -0.63517,2.46728 -1.06861,6.97696 -0.96322,10.02151 0.40232,11.62101 -3.80853,15.55964 -16.9059,15.813 -4.7228,0.0914 -9.40013,-0.28899 -10.39406,-0.84522 z"
     id="path2999"
     inkscape:connector-curvature="0" />
</svg>
