  0
SECTION
  2
HEADER
  9
$ACADVER
  1
AC1009
  9
$FILLMODE
 70
 0
  9
$SPLFRAME
 70
 1
  9
$EXTMIN
 10
0
 20
0
 30
0.0
  9
$EXTMAX
 10
41.6667
 20
41.6667
 30
0.0
  0
ENDSEC
  0
SECTION
  2
TABLES
  0
TABLE
  2
LAYER
 70
1
  0
LAYER
  2
0
 70
     0
 62
     7
  6
CONTINUOUS
  0
ENDTAB
  0
ENDSEC
  0
SECTION
  2
ENTITIES
  0
LINE
  8
0
 62
     0
 10
0.266276
 20
0.00672743
 30
0.0
 11
0.262804
 21
0.00726997
 31
0.0
  0
LINE
  8
0
 62
     0
 10
0.262804
 20
0.00726997
 30
0.0
 11
0.242079
 21
0.0133464
 31
0.0
  0
LINE
  8
0
 62
     0
 10
0.242079
 20
0.0133464
 30
0.0
 11
0.222331
 21
0.0220811
 31
0.0
  0
LINE
  8
0
 62
     0
 10
0.222331
 20
0.0220811
 30
0.0
 11
0.219401
 21
0.0239258
 31
0.0
  0
LINE
  8
0
 62
     0
 10
0.219401
 20
0.0239258
 30
0.0
 11
0.216417
 21
0.0258247
 31
0.0
  0
LINE
  8
0
 62
     0
 10
0.216417
 20
0.0258247
 30
0.0
 11
0.193414
 21
0.0368924
 31
0.0
  0
LINE
  8
0
 62
     0
 10
0.193414
 20
0.0368924
 30
0.0
 11
0.166342
 21
0.0474718
 31
0.0
  0
LINE
  8
0
 62
     0
 10
0.166342
 20
0.0474718
 30
0.0
 11
0.16135
 21
0.0490451
 31
0.0
  0
LINE
  8
0
 62
     0
 10
0.16135
 20
0.0490451
 30
0.0
 11
0.156304
 21
0.0506728
 31
0.0
  0
LINE
  8
0
 62
     0
 10
0.156304
 20
0.0506728
 30
0.0
 11
0.122287
 21
0.0687392
 31
0.0
  0
LINE
  8
0
 62
     0
 10
0.122287
 20
0.0687392
 30
0.0
 11
0.0857747
 21
0.0943468
 31
0.0
  0
LINE
  8
0
 62
     0
 10
0.0857747
 20
0.0943468
 30
0.0
 11
0.0795356
 21
0.0997179
 31
0.0
  0
LINE
  8
0
 62
     0
 10
0.0795356
 20
0.0997179
 30
0.0
 11
0.0735135
 21
0.104926
 31
0.0
  0
LINE
  8
0
 62
     0
 10
0.0735135
 20
0.104926
 30
0.0
 11
0.0562608
 21
0.121419
 31
0.0
  0
LINE
  8
0
 62
     0
 10
0.0562608
 20
0.121419
 30
0.0
 11
0.0416667
 21
0.140246
 31
0.0
  0
LINE
  8
0
 62
     0
 10
0.0416667
 20
0.140246
 30
0.0
 11
0.0333117
 21
0.160157
 31
0.0
  0
LINE
  8
0
 62
     0
 10
0.0333117
 20
0.160157
 30
0.0
 11
0.0295682
 21
0.178928
 31
0.0
  0
LINE
  8
0
 62
     0
 10
0.0295682
 20
0.178928
 30
0.0
 11
0.0288629
 21
0.185221
 31
0.0
  0
LINE
  8
0
 62
     0
 10
0.0288629
 20
0.185221
 30
0.0
 11
0.0281033
 21
0.191624
 31
0.0
  0
LINE
  8
0
 62
     0
 10
0.0281033
 20
0.191624
 30
0.0
 11
0.0211046
 21
0.229221
 31
0.0
  0
LINE
  8
0
 62
     0
 10
0.0211046
 20
0.229221
 30
0.0
 11
0.0118815
 21
0.26454
 31
0.0
  0
LINE
  8
0
 62
     0
 10
0.0118815
 20
0.26454
 30
0.0
 11
0.0100369
 21
0.269803
 31
0.0
  0
LINE
  8
0
 62
     0
 10
0.0100369
 20
0.269803
 30
0.0
 11
0.00651042
 21
0.279731
 31
0.0
  0
LINE
  8
0
 62
     0
 10
0.00651042
 20
0.279731
 30
0.0
 11
0.00119358
 21
0.311307
 31
0.0
  0
LINE
  8
0
 62
     0
 10
0.00119358
 20
0.311307
 30
0.0
 11
0.000813803
 21
0.359864
 31
0.0
  0
LINE
  8
0
 62
     0
 10
0.000813803
 20
0.359864
 30
0.0
 11
0.00857206
 21
0.412761
 31
0.0
  0
LINE
  8
0
 62
     0
 10
0.00857206
 20
0.412761
 30
0.0
 11
0.0195313
 21
0.453776
 31
0.0
  0
LINE
  8
0
 62
     0
 10
0.0195313
 20
0.453776
 30
0.0
 11
0.0243599
 21
0.467014
 31
0.0
  0
LINE
  8
0
 62
     0
 10
0.0243599
 20
0.467014
 30
0.0
 11
0.027181
 21
0.474881
 31
0.0
  0
LINE
  8
0
 62
     0
 10
0.027181
 20
0.474881
 30
0.0
 11
0.0407986
 21
0.523926
 31
0.0
  0
LINE
  8
0
 62
     0
 10
0.0407986
 20
0.523926
 30
0.0
 11
0.05051
 21
0.5727
 31
0.0
  0
LINE
  8
0
 62
     0
 10
0.05051
 20
0.5727
 30
0.0
 11
0.0513781
 21
0.580404
 31
0.0
  0
LINE
  8
0
 62
     0
 10
0.0513781
 20
0.580404
 30
0.0
 11
0.0523546
 21
0.589193
 31
0.0
  0
LINE
  8
0
 62
     0
 10
0.0523546
 20
0.589193
 30
0.0
 11
0.0662978
 21
0.641385
 31
0.0
  0
LINE
  8
0
 62
     0
 10
0.0662978
 20
0.641385
 30
0.0
 11
0.0903863
 21
0.69911
 31
0.0
  0
LINE
  8
0
 62
     0
 10
0.0903863
 20
0.69911
 30
0.0
 11
0.0964085
 21
0.710613
 31
0.0
  0
LINE
  8
0
 62
     0
 10
0.0964085
 20
0.710613
 30
0.0
 11
0.102322
 21
0.721951
 31
0.0
  0
LINE
  8
0
 62
     0
 10
0.102322
 20
0.721951
 30
0.0
 11
0.12066
 21
0.755751
 31
0.0
  0
LINE
  8
0
 62
     0
 10
0.12066
 20
0.755751
 30
0.0
 11
0.142144
 21
0.79031
 31
0.0
  0
LINE
  8
0
 62
     0
 10
0.142144
 20
0.79031
 30
0.0
 11
0.163683
 21
0.815972
 31
0.0
  0
LINE
  8
0
 62
     0
 10
0.163683
 20
0.815972
 30
0.0
 11
0.18826
 21
0.83431
 31
0.0
  0
LINE
  8
0
 62
     0
 10
0.18826
 20
0.83431
 30
0.0
 11
0.218696
 21
0.847006
 31
0.0
  0
LINE
  8
0
 62
     0
 10
0.218696
 20
0.847006
 30
0.0
 11
0.258029
 21
0.855794
 31
0.0
  0
LINE
  8
0
 62
     0
 10
0.258029
 20
0.855794
 30
0.0
 11
0.309082
 21
0.862196
 31
0.0
  0
LINE
  8
0
 62
     0
 10
0.309082
 20
0.862196
 30
0.0
 11
0.358399
 21
0.86659
 31
0.0
  0
LINE
  8
0
 62
     0
 10
0.358399
 20
0.86659
 30
0.0
 11
0.374892
 21
0.867893
 31
0.0
  0
LINE
  8
0
 62
     0
 10
0.374892
 20
0.867893
 30
0.0
 11
0.383301
 21
0.868599
 31
0.0
  0
LINE
  8
0
 62
     0
 10
0.383301
 20
0.868599
 30
0.0
 11
0.408638
 21
0.870931
 31
0.0
  0
LINE
  8
0
 62
     0
 10
0.408638
 20
0.870931
 30
0.0
 11
0.439074
 21
0.874132
 31
0.0
  0
LINE
  8
0
 62
     0
 10
0.439074
 20
0.874132
 30
0.0
 11
0.462728
 21
0.877225
 31
0.0
  0
LINE
  8
0
 62
     0
 10
0.462728
 20
0.877225
 30
0.0
 11
0.473904
 21
0.879015
 31
0.0
  0
LINE
  8
0
 62
     0
 10
0.473904
 20
0.879015
 30
0.0
 11
0.4764
 21
0.879719
 31
0.0
  0
LINE
  8
0
 62
     0
 10
0.4764
 20
0.879719
 30
0.0
 11
0.478842
 21
0.880425
 31
0.0
  0
LINE
  8
0
 62
     0
 10
0.478842
 20
0.880425
 30
0.0
 11
0.497612
 21
0.884874
 31
0.0
  0
LINE
  8
0
 62
     0
 10
0.497612
 20
0.884874
 30
0.0
 11
0.519314
 21
0.889324
 31
0.0
  0
LINE
  8
0
 62
     0
 10
0.519314
 20
0.889324
 30
0.0
 11
0.523275
 21
0.890028
 31
0.0
  0
LINE
  8
0
 62
     0
 10
0.523275
 20
0.890028
 30
0.0
 11
0.528049
 21
0.890896
 31
0.0
  0
LINE
  8
0
 62
     0
 10
0.528049
 20
0.890896
 30
0.0
 11
0.541992
 21
0.896539
 31
0.0
  0
LINE
  8
0
 62
     0
 10
0.541992
 20
0.896539
 30
0.0
 11
0.569607
 21
0.909776
 31
0.0
  0
LINE
  8
0
 62
     0
 10
0.569607
 20
0.909776
 30
0.0
 11
0.60281
 21
0.927897
 31
0.0
  0
LINE
  8
0
 62
     0
 10
0.60281
 20
0.927897
 30
0.0
 11
0.638292
 21
0.948839
 31
0.0
  0
LINE
  8
0
 62
     0
 10
0.638292
 20
0.948839
 30
0.0
 11
0.672851
 21
0.970594
 31
0.0
  0
LINE
  8
0
 62
     0
 10
0.672851
 20
0.970594
 30
0.0
 11
0.703179
 21
0.991211
 31
0.0
  0
LINE
  8
0
 62
     0
 10
0.703179
 20
0.991211
 30
0.0
 11
0.726019
 21
1.00868
 31
0.0
  0
LINE
  8
0
 62
     0
 10
0.726019
 20
1.00868
 30
0.0
 11
0.735949
 21
1.01742
 31
0.0
  0
LINE
  8
0
 62
     0
 10
0.735949
 20
1.01742
 30
0.0
 11
0.738172
 21
1.021
 31
0.0
  0
LINE
  8
0
 62
     0
 10
0.738172
 20
1.021
 30
0.0
 11
0.739746
 21
1.0236
 31
0.0
  0
LINE
  8
0
 62
     0
 10
0.739746
 20
1.0236
 30
0.0
 11
0.742079
 21
1.03304
 31
0.0
  0
LINE
  8
0
 62
     0
 10
0.742079
 20
1.03304
 30
0.0
 11
0.74159
 21
1.05062
 31
0.0
  0
LINE
  8
0
 62
     0
 10
0.74159
 20
1.05062
 30
0.0
 11
0.736382
 21
1.07563
 31
0.0
  0
LINE
  8
0
 62
     0
 10
0.736382
 20
1.07563
 30
0.0
 11
0.728896
 21
1.10151
 31
0.0
  0
LINE
  8
0
 62
     0
 10
0.728896
 20
1.10151
 30
0.0
 11
0.726183
 21
1.11003
 31
0.0
  0
LINE
  8
0
 62
     0
 10
0.726183
 20
1.11003
 30
0.0
 11
0.703179
 21
1.18137
 31
0.0
  0
LINE
  8
0
 62
     0
 10
0.703179
 20
1.18137
 30
0.0
 11
0.622396
 21
1.22022
 31
0.0
  0
LINE
  8
0
 62
     0
 10
0.622396
 20
1.22022
 30
0.0
 11
0.611274
 21
1.22559
 31
0.0
  0
LINE
  8
0
 62
     0
 10
0.611274
 20
1.22559
 30
0.0
 11
0.577365
 21
1.24051
 31
0.0
  0
LINE
  8
0
 62
     0
 10
0.577365
 20
1.24051
 30
0.0
 11
0.540419
 21
1.25288
 31
0.0
  0
LINE
  8
0
 62
     0
 10
0.540419
 20
1.25288
 30
0.0
 11
0.502442
 21
1.2596
 31
0.0
  0
LINE
  8
0
 62
     0
 10
0.502442
 20
1.2596
 30
0.0
 11
0.466471
 21
1.26248
 31
0.0
  0
LINE
  8
0
 62
     0
 10
0.466471
 20
1.26248
 30
0.0
 11
0.454482
 21
1.26297
 31
0.0
  0
LINE
  8
0
 62
     0
 10
0.454482
 20
1.26297
 30
0.0
 11
0.444879
 21
1.2634
 31
0.0
  0
LINE
  8
0
 62
     0
 10
0.444879
 20
1.2634
 30
0.0
 11
0.416124
 21
1.26514
 31
0.0
  0
LINE
  8
0
 62
     0
 10
0.416124
 20
1.26514
 30
0.0
 11
0.386936
 21
1.26861
 31
0.0
  0
LINE
  8
0
 62
     0
 10
0.386936
 20
1.26861
 30
0.0
 11
0.365668
 21
1.27474
 31
0.0
  0
LINE
  8
0
 62
     0
 10
0.365668
 20
1.27474
 30
0.0
 11
0.351074
 21
1.28483
 31
0.0
  0
LINE
  8
0
 62
     0
 10
0.351074
 20
1.28483
 30
0.0
 11
0.341906
 21
1.30018
 31
0.0
  0
LINE
  8
0
 62
     0
 10
0.341906
 20
1.30018
 30
0.0
 11
0.336968
 21
1.32216
 31
0.0
  0
LINE
  8
0
 62
     0
 10
0.336968
 20
1.32216
 30
0.0
 11
0.335015
 21
1.35205
 31
0.0
  0
LINE
  8
0
 62
     0
 10
0.335015
 20
1.35205
 30
0.0
 11
0.334799
 21
1.3814
 31
0.0
  0
LINE
  8
0
 62
     0
 10
0.334799
 20
1.3814
 30
0.0
 11
0.334853
 21
1.39117
 31
0.0
  0
LINE
  8
0
 62
     0
 10
0.334853
 20
1.39117
 30
0.0
 11
0.335124
 21
1.43539
 31
0.0
  0
LINE
  8
0
 62
     0
 10
0.335124
 20
1.43539
 30
0.0
 11
0.337944
 21
1.56788
 31
0.0
  0
LINE
  8
0
 62
     0
 10
0.337944
 20
1.56788
 30
0.0
 11
0.345324
 21
1.68722
 31
0.0
  0
LINE
  8
0
 62
     0
 10
0.345324
 20
1.68722
 30
0.0
 11
0.358399
 21
1.76264
 31
0.0
  0
LINE
  8
0
 62
     0
 10
0.358399
 20
1.76264
 30
0.0
 11
0.371636
 21
1.79764
 31
0.0
  0
LINE
  8
0
 62
     0
 10
0.371636
 20
1.79764
 30
0.0
 11
0.378635
 21
1.80746
 31
0.0
  0
LINE
  8
0
 62
     0
 10
0.378635
 20
1.80746
 30
0.0
 11
0.381456
 21
1.81147
 31
0.0
  0
LINE
  8
0
 62
     0
 10
0.381456
 20
1.81147
 30
0.0
 11
0.394857
 21
1.84338
 31
0.0
  0
LINE
  8
0
 62
     0
 10
0.394857
 20
1.84338
 30
0.0
 11
0.404135
 21
1.88157
 31
0.0
  0
LINE
  8
0
 62
     0
 10
0.404135
 20
1.88157
 30
0.0
 11
0.404893
 21
1.88872
 31
0.0
  0
LINE
  8
0
 62
     0
 10
0.404893
 20
1.88872
 30
0.0
 11
0.406901
 21
1.90782
 31
0.0
  0
LINE
  8
0
 62
     0
 10
0.406901
 20
1.90782
 30
0.0
 11
0.416612
 21
1.96474
 31
0.0
  0
LINE
  8
0
 62
     0
 10
0.416612
 20
1.96474
 30
0.0
 11
0.435221
 21
2.04758
 31
0.0
  0
LINE
  8
0
 62
     0
 10
0.435221
 20
2.04758
 30
0.0
 11
0.456868
 21
2.12261
 31
0.0
  0
LINE
  8
0
 62
     0
 10
0.456868
 20
2.12261
 30
0.0
 11
0.471408
 21
2.16303
 31
0.0
  0
LINE
  8
0
 62
     0
 10
0.471408
 20
2.16303
 30
0.0
 11
0.477919
 21
2.17518
 31
0.0
  0
LINE
  8
0
 62
     0
 10
0.477919
 20
2.17518
 30
0.0
 11
0.481337
 21
2.18164
 31
0.0
  0
LINE
  8
0
 62
     0
 10
0.481337
 20
2.18164
 30
0.0
 11
0.497179
 21
2.2226
 31
0.0
  0
LINE
  8
0
 62
     0
 10
0.497179
 20
2.2226
 30
0.0
 11
0.507704
 21
2.26394
 31
0.0
  0
LINE
  8
0
 62
     0
 10
0.507704
 20
2.26394
 30
0.0
 11
0.508518
 21
2.27061
 31
0.0
  0
LINE
  8
0
 62
     0
 10
0.508518
 20
2.27061
 30
0.0
 11
0.509278
 21
2.27729
 31
0.0
  0
LINE
  8
0
 62
     0
 10
0.509278
 20
2.27729
 30
0.0
 11
0.515517
 21
2.31054
 31
0.0
  0
LINE
  8
0
 62
     0
 10
0.515517
 20
2.31054
 30
0.0
 11
0.522949
 21
2.33572
 31
0.0
  0
LINE
  8
0
 62
     0
 10
0.522949
 20
2.33572
 30
0.0
 11
0.52436
 21
2.33832
 31
0.0
  0
LINE
  8
0
 62
     0
 10
0.52436
 20
2.33832
 30
0.0
 11
0.525717
 21
2.34099
 31
0.0
  0
LINE
  8
0
 62
     0
 10
0.525717
 20
2.34099
 30
0.0
 11
0.530544
 21
2.35058
 31
0.0
  0
LINE
  8
0
 62
     0
 10
0.530544
 20
2.35058
 30
0.0
 11
0.539876
 21
2.36985
 31
0.0
  0
LINE
  8
0
 62
     0
 10
0.539876
 20
2.36985
 30
0.0
 11
0.551053
 21
2.39339
 31
0.0
  0
LINE
  8
0
 62
     0
 10
0.551053
 20
2.39339
 30
0.0
 11
0.55995
 21
2.41228
 31
0.0
  0
LINE
  8
0
 62
     0
 10
0.55995
 20
2.41228
 30
0.0
 11
0.562879
 21
2.41857
 31
0.0
  0
LINE
  8
0
 62
     0
 10
0.562879
 20
2.41857
 30
0.0
 11
0.569174
 21
2.43229
 31
0.0
  0
LINE
  8
0
 62
     0
 10
0.569174
 20
2.43229
 30
0.0
 11
0.592014
 21
2.47157
 31
0.0
  0
LINE
  8
0
 62
     0
 10
0.592014
 20
2.47157
 30
0.0
 11
0.624457
 21
2.51286
 31
0.0
  0
LINE
  8
0
 62
     0
 10
0.624457
 20
2.51286
 30
0.0
 11
0.658746
 21
2.54101
 31
0.0
  0
LINE
  8
0
 62
     0
 10
0.658746
 20
2.54101
 30
0.0
 11
0.684571
 21
2.553
 31
0.0
  0
LINE
  8
0
 62
     0
 10
0.684571
 20
2.553
 30
0.0
 11
0.693576
 21
2.55447
 31
0.0
  0
LINE
  8
0
 62
     0
 10
0.693576
 20
2.55447
 30
0.0
 11
0.69846
 21
2.55528
 31
0.0
  0
LINE
  8
0
 62
     0
 10
0.69846
 20
2.55528
 30
0.0
 11
0.714735
 21
2.55713
 31
0.0
  0
LINE
  8
0
 62
     0
 10
0.714735
 20
2.55713
 30
0.0
 11
0.746149
 21
2.56006
 31
0.0
  0
LINE
  8
0
 62
     0
 10
0.746149
 20
2.56006
 30
0.0
 11
0.783583
 21
2.56287
 31
0.0
  0
LINE
  8
0
 62
     0
 10
0.783583
 20
2.56287
 30
0.0
 11
0.812989
 21
2.56472
 31
0.0
  0
LINE
  8
0
 62
     0
 10
0.812989
 20
2.56472
 30
0.0
 11
0.822808
 21
2.56521
 31
0.0
  0
LINE
  8
0
 62
     0
 10
0.822808
 20
2.56521
 30
0.0
 11
0.832628
 21
2.56575
 31
0.0
  0
LINE
  8
0
 62
     0
 10
0.832628
 20
2.56575
 30
0.0
 11
0.862196
 21
2.56803
 31
0.0
  0
LINE
  8
0
 62
     0
 10
0.862196
 20
2.56803
 30
0.0
 11
0.900119
 21
2.57194
 31
0.0
  0
LINE
  8
0
 62
     0
 10
0.900119
 20
2.57194
 30
0.0
 11
0.932292
 21
2.5765
 31
0.0
  0
LINE
  8
0
 62
     0
 10
0.932292
 20
2.5765
 30
0.0
 11
0.949219
 21
2.57964
 31
0.0
  0
LINE
  8
0
 62
     0
 10
0.949219
 20
2.57964
 30
0.0
 11
0.954428
 21
2.58117
 31
0.0
  0
LINE
  8
0
 62
     0
 10
0.954428
 20
2.58117
 30
0.0
 11
0.963325
 21
2.58376
 31
0.0
  0
LINE
  8
0
 62
     0
 10
0.963325
 20
2.58376
 30
0.0
 11
1.01921
 21
2.59446
 31
0.0
  0
LINE
  8
0
 62
     0
 10
1.01921
 20
2.59446
 30
0.0
 11
1.0823
 21
2.60092
 31
0.0
  0
LINE
  8
0
 62
     0
 10
1.0823
 20
2.60092
 30
0.0
 11
1.09478
 21
2.6014
 31
0.0
  0
LINE
  8
0
 62
     0
 10
1.09478
 20
2.6014
 30
0.0
 11
1.09809
 21
2.60157
 31
0.0
  0
LINE
  8
0
 62
     0
 10
1.09809
 20
2.60157
 30
0.0
 11
1.10807
 21
2.60525
 31
0.0
  0
LINE
  8
0
 62
     0
 10
1.10807
 20
2.60525
 30
0.0
 11
1.12554
 21
2.61501
 31
0.0
  0
LINE
  8
0
 62
     0
 10
1.12554
 20
2.61501
 30
0.0
 11
1.14551
 21
2.62929
 31
0.0
  0
LINE
  8
0
 62
     0
 10
1.14551
 20
2.62929
 30
0.0
 11
1.1665
 21
2.64665
 31
0.0
  0
LINE
  8
0
 62
     0
 10
1.1665
 20
2.64665
 30
0.0
 11
1.18685
 21
2.66581
 31
0.0
  0
LINE
  8
0
 62
     0
 10
1.18685
 20
2.66581
 30
0.0
 11
1.20513
 21
2.68533
 31
0.0
  0
LINE
  8
0
 62
     0
 10
1.20513
 20
2.68533
 30
0.0
 11
1.21962
 21
2.70383
 31
0.0
  0
LINE
  8
0
 62
     0
 10
1.21962
 20
2.70383
 30
0.0
 11
1.22711
 21
2.71571
 31
0.0
  0
LINE
  8
0
 62
     0
 10
1.22711
 20
2.71571
 30
0.0
 11
1.2289
 21
2.71994
 31
0.0
  0
LINE
  8
0
 62
     0
 10
1.2289
 20
2.71994
 30
0.0
 11
1.23085
 21
2.72467
 31
0.0
  0
LINE
  8
0
 62
     0
 10
1.23085
 20
2.72467
 30
0.0
 11
1.23617
 21
2.75299
 31
0.0
  0
LINE
  8
0
 62
     0
 10
1.23617
 20
2.75299
 30
0.0
 11
1.23519
 21
2.78472
 31
0.0
  0
LINE
  8
0
 62
     0
 10
1.23519
 20
2.78472
 30
0.0
 11
1.23405
 21
2.79113
 31
0.0
  0
LINE
  8
0
 62
     0
 10
1.23405
 20
2.79113
 30
0.0
 11
1.23275
 21
2.79829
 31
0.0
  0
LINE
  8
0
 62
     0
 10
1.23275
 20
2.79829
 30
0.0
 11
1.22814
 21
2.81956
 31
0.0
  0
LINE
  8
0
 62
     0
 10
1.22814
 20
2.81956
 30
0.0
 11
1.22135
 21
2.83518
 31
0.0
  0
LINE
  8
0
 62
     0
 10
1.22135
 20
2.83518
 30
0.0
 11
1.20991
 21
2.84293
 31
0.0
  0
LINE
  8
0
 62
     0
 10
1.20991
 20
2.84293
 30
0.0
 11
1.19504
 21
2.84663
 31
0.0
  0
LINE
  8
0
 62
     0
 10
1.19504
 20
2.84663
 30
0.0
 11
1.19005
 21
2.8475
 31
0.0
  0
LINE
  8
0
 62
     0
 10
1.19005
 20
2.8475
 30
0.0
 11
1.18647
 21
2.84814
 31
0.0
  0
LINE
  8
0
 62
     0
 10
1.18647
 20
2.84814
 30
0.0
 11
1.17453
 21
2.85135
 31
0.0
  0
LINE
  8
0
 62
     0
 10
1.17453
 20
2.85135
 30
0.0
 11
1.15153
 21
2.8584
 31
0.0
  0
LINE
  8
0
 62
     0
 10
1.15153
 20
2.8584
 30
0.0
 11
1.12419
 21
2.86762
 31
0.0
  0
LINE
  8
0
 62
     0
 10
1.12419
 20
2.86762
 30
0.0
 11
1.1027
 21
2.87532
 31
0.0
  0
LINE
  8
0
 62
     0
 10
1.1027
 20
2.87532
 30
0.0
 11
1.09559
 21
2.87799
 31
0.0
  0
LINE
  8
0
 62
     0
 10
1.09559
 20
2.87799
 30
0.0
 11
1.08849
 21
2.88064
 31
0.0
  0
LINE
  8
0
 62
     0
 10
1.08849
 20
2.88064
 30
0.0
 11
1.06711
 21
2.88835
 31
0.0
  0
LINE
  8
0
 62
     0
 10
1.06711
 20
2.88835
 30
0.0
 11
1.04015
 21
2.89746
 31
0.0
  0
LINE
  8
0
 62
     0
 10
1.04015
 20
2.89746
 30
0.0
 11
1.0178
 21
2.9044
 31
0.0
  0
LINE
  8
0
 62
     0
 10
1.0178
 20
2.9044
 30
0.0
 11
1.0064
 21
2.9075
 31
0.0
  0
LINE
  8
0
 62
     0
 10
1.0064
 20
2.9075
 30
0.0
 11
1.00309
 21
2.9081
 31
0.0
  0
LINE
  8
0
 62
     0
 10
1.00309
 20
2.9081
 30
0.0
 11
0.984754
 21
2.91146
 31
0.0
  0
LINE
  8
0
 62
     0
 10
0.984754
 20
2.91146
 30
0.0
 11
0.930556
 21
2.92606
 31
0.0
  0
LINE
  8
0
 62
     0
 10
0.930556
 20
2.92606
 30
0.0
 11
0.865506
 21
2.95068
 31
0.0
  0
LINE
  8
0
 62
     0
 10
0.865506
 20
2.95068
 30
0.0
 11
0.815375
 21
2.97857
 31
0.0
  0
LINE
  8
0
 62
     0
 10
0.815375
 20
2.97857
 30
0.0
 11
0.792046
 21
2.99799
 31
0.0
  0
LINE
  8
0
 62
     0
 10
0.792046
 20
2.99799
 30
0.0
 11
0.787706
 21
3.00624
 31
0.0
  0
LINE
  8
0
 62
     0
 10
0.787706
 20
3.00624
 30
0.0
 11
0.783746
 21
3.01378
 31
0.0
  0
LINE
  8
0
 62
     0
 10
0.783746
 20
3.01378
 30
0.0
 11
0.780653
 21
3.04308
 31
0.0
  0
LINE
  8
0
 62
     0
 10
0.780653
 20
3.04308
 30
0.0
 11
0.782281
 21
3.09858
 31
0.0
  0
LINE
  8
0
 62
     0
 10
0.782281
 20
3.09858
 30
0.0
 11
0.791233
 21
3.15799
 31
0.0
  0
LINE
  8
0
 62
     0
 10
0.791233
 20
3.15799
 30
0.0
 11
0.80089
 21
3.19504
 31
0.0
  0
LINE
  8
0
 62
     0
 10
0.80089
 20
3.19504
 30
0.0
 11
0.806153
 21
3.20643
 31
0.0
  0
LINE
  8
0
 62
     0
 10
0.806153
 20
3.20643
 30
0.0
 11
0.809082
 21
3.21289
 31
0.0
  0
LINE
  8
0
 62
     0
 10
0.809082
 20
3.21289
 30
0.0
 11
0.821343
 21
3.24576
 31
0.0
  0
LINE
  8
0
 62
     0
 10
0.821343
 20
3.24576
 30
0.0
 11
0.827746
 21
3.27154
 31
0.0
  0
LINE
  8
0
 62
     0
 10
0.827746
 20
3.27154
 30
0.0
 11
0.8278
 21
3.27442
 31
0.0
  0
LINE
  8
0
 62
     0
 10
0.8278
 20
3.27442
 30
0.0
 11
0.8278
 21
3.27735
 31
0.0
  0
LINE
  8
0
 62
     0
 10
0.8278
 20
3.27735
 30
0.0
 11
0.832465
 21
3.29585
 31
0.0
  0
LINE
  8
0
 62
     0
 10
0.832465
 20
3.29585
 30
0.0
 11
0.841308
 21
3.31456
 31
0.0
  0
LINE
  8
0
 62
     0
 10
0.841308
 20
3.31456
 30
0.0
 11
0.843425
 21
3.31754
 31
0.0
  0
LINE
  8
0
 62
     0
 10
0.843425
 20
3.31754
 30
0.0
 11
0.84554
 21
3.32058
 31
0.0
  0
LINE
  8
0
 62
     0
 10
0.84554
 20
3.32058
 30
0.0
 11
0.851074
 21
3.33018
 31
0.0
  0
LINE
  8
0
 62
     0
 10
0.851074
 20
3.33018
 30
0.0
 11
0.852974
 21
3.34033
 31
0.0
  0
LINE
  8
0
 62
     0
 10
0.852974
 20
3.34033
 30
0.0
 11
0.848687
 21
3.35129
 31
0.0
  0
LINE
  8
0
 62
     0
 10
0.848687
 20
3.35129
 30
0.0
 11
0.840713
 21
3.36262
 31
0.0
  0
LINE
  8
0
 62
     0
 10
0.840713
 20
3.36262
 30
0.0
 11
0.83789
 21
3.36621
 31
0.0
  0
LINE
  8
0
 62
     0
 10
0.83789
 20
3.36621
 30
0.0
 11
0.833496
 21
3.37175
 31
0.0
  0
LINE
  8
0
 62
     0
 10
0.833496
 20
3.37175
 30
0.0
 11
0.824328
 21
3.39139
 31
0.0
  0
LINE
  8
0
 62
     0
 10
0.824328
 20
3.39139
 30
0.0
 11
0.814888
 21
3.43138
 31
0.0
  0
LINE
  8
0
 62
     0
 10
0.814888
 20
3.43138
 30
0.0
 11
0.808322
 21
3.49388
 31
0.0
  0
LINE
  8
0
 62
     0
 10
0.808322
 20
3.49388
 30
0.0
 11
0.804417
 21
3.56347
 31
0.0
  0
LINE
  8
0
 62
     0
 10
0.804417
 20
3.56347
 30
0.0
 11
0.803494
 21
3.58664
 31
0.0
  0
LINE
  8
0
 62
     0
 10
0.803494
 20
3.58664
 30
0.0
 11
0.803114
 21
3.59603
 31
0.0
  0
LINE
  8
0
 62
     0
 10
0.803114
 20
3.59603
 30
0.0
 11
0.802463
 21
3.62424
 31
0.0
  0
LINE
  8
0
 62
     0
 10
0.802463
 20
3.62424
 30
0.0
 11
0.803276
 21
3.65462
 31
0.0
  0
LINE
  8
0
 62
     0
 10
0.803276
 20
3.65462
 30
0.0
 11
0.806532
 21
3.67914
 31
0.0
  0
LINE
  8
0
 62
     0
 10
0.806532
 20
3.67914
 30
0.0
 11
0.812825
 21
3.69928
 31
0.0
  0
LINE
  8
0
 62
     0
 10
0.812825
 20
3.69928
 30
0.0
 11
0.822808
 21
3.71642
 31
0.0
  0
LINE
  8
0
 62
     0
 10
0.822808
 20
3.71642
 30
0.0
 11
0.837076
 21
3.73199
 31
0.0
  0
LINE
  8
0
 62
     0
 10
0.837076
 20
3.73199
 30
0.0
 11
0.856228
 21
3.74744
 31
0.0
  0
LINE
  8
0
 62
     0
 10
0.856228
 20
3.74744
 30
0.0
 11
0.874621
 21
3.76014
 31
0.0
  0
LINE
  8
0
 62
     0
 10
0.874621
 20
3.76014
 30
0.0
 11
0.880914
 21
3.76417
 31
0.0
  0
LINE
  8
0
 62
     0
 10
0.880914
 20
3.76417
 30
0.0
 11
0.893337
 21
3.77219
 31
0.0
  0
LINE
  8
0
 62
     0
 10
0.893337
 20
3.77219
 30
0.0
 11
0.928982
 21
3.79878
 31
0.0
  0
LINE
  8
0
 62
     0
 10
0.928982
 20
3.79878
 30
0.0
 11
0.96186
 21
3.83171
 31
0.0
  0
LINE
  8
0
 62
     0
 10
0.96186
 20
3.83171
 30
0.0
 11
0.981988
 21
3.86621
 31
0.0
  0
LINE
  8
0
 62
     0
 10
0.981988
 20
3.86621
 30
0.0
 11
0.990614
 21
3.89546
 31
0.0
  0
LINE
  8
0
 62
     0
 10
0.990614
 20
3.89546
 30
0.0
 11
0.991971
 21
3.90539
 31
0.0
  0
LINE
  8
0
 62
     0
 10
0.991971
 20
3.90539
 30
0.0
 11
0.992676
 21
3.91103
 31
0.0
  0
LINE
  8
0
 62
     0
 10
0.992676
 20
3.91103
 30
0.0
 11
0.993761
 21
3.92806
 31
0.0
  0
LINE
  8
0
 62
     0
 10
0.993761
 20
3.92806
 30
0.0
 11
0.991265
 21
3.9451
 31
0.0
  0
LINE
  8
0
 62
     0
 10
0.991265
 20
3.9451
 30
0.0
 11
0.983182
 21
3.96035
 31
0.0
  0
LINE
  8
0
 62
     0
 10
0.983182
 20
3.96035
 30
0.0
 11
0.972168
 21
3.97358
 31
0.0
  0
LINE
  8
0
 62
     0
 10
0.972168
 20
3.97358
 30
0.0
 11
0.968261
 21
3.97765
 31
0.0
  0
LINE
  8
0
 62
     0
 10
0.968261
 20
3.97765
 30
0.0
 11
0.962674
 21
3.98346
 31
0.0
  0
LINE
  8
0
 62
     0
 10
0.962674
 20
3.98346
 30
0.0
 11
0.94949
 21
4.00424
 31
0.0
  0
LINE
  8
0
 62
     0
 10
0.94949
 20
4.00424
 30
0.0
 11
0.938531
 21
4.03478
 31
0.0
  0
LINE
  8
0
 62
     0
 10
0.938531
 20
4.03478
 30
0.0
 11
0.936143
 21
4.06538
 31
0.0
  0
LINE
  8
0
 62
     0
 10
0.936143
 20
4.06538
 30
0.0
 11
0.940158
 21
4.08621
 31
0.0
  0
LINE
  8
0
 62
     0
 10
0.940158
 20
4.08621
 30
0.0
 11
0.943251
 21
4.09224
 31
0.0
  0
LINE
  8
0
 62
     0
 10
0.943251
 20
4.09224
 30
0.0
 11
0.944336
 21
4.09446
 31
0.0
  0
LINE
  8
0
 62
     0
 10
0.944336
 20
4.09446
 30
0.0
 11
0.950956
 21
4.11708
 31
0.0
  0
LINE
  8
0
 62
     0
 10
0.950956
 20
4.11708
 30
0.0
 11
0.957249
 21
4.148
 31
0.0
  0
LINE
  8
0
 62
     0
 10
0.957249
 20
4.148
 30
0.0
 11
0.958225
 21
4.15435
 31
0.0
  0
LINE
  8
0
 62
     0
 10
0.958225
 20
4.15435
 30
0.0
 11
0.959039
 21
4.15989
 31
0.0
  0
LINE
  8
0
 62
     0
 10
0.959039
 20
4.15989
 30
0.0
 11
0.961914
 21
4.17632
 31
0.0
  0
LINE
  8
0
 62
     0
 10
0.961914
 20
4.17632
 30
0.0
 11
0.966581
 21
4.1951
 31
0.0
  0
LINE
  8
0
 62
     0
 10
0.966581
 20
4.1951
 30
0.0
 11
0.973361
 21
4.21229
 31
0.0
  0
LINE
  8
0
 62
     0
 10
0.973361
 20
4.21229
 30
0.0
 11
0.98329
 21
4.22971
 31
0.0
  0
LINE
  8
0
 62
     0
 10
0.98329
 20
4.22971
 30
0.0
 11
0.997504
 21
4.24892
 31
0.0
  0
LINE
  8
0
 62
     0
 10
0.997504
 20
4.24892
 30
0.0
 11
1.01709
 21
4.27171
 31
0.0
  0
LINE
  8
0
 62
     0
 10
1.01709
 20
4.27171
 30
0.0
 11
1.04324
 21
4.29964
 31
0.0
  0
LINE
  8
0
 62
     0
 10
1.04324
 20
4.29964
 30
0.0
 11
1.06852
 21
4.32579
 31
0.0
  0
LINE
  8
0
 62
     0
 10
1.06852
 20
4.32579
 30
0.0
 11
1.07699
 21
4.33442
 31
0.0
  0
LINE
  8
0
 62
     0
 10
1.07699
 20
4.33442
 30
0.0
 11
1.08588
 21
4.34358
 31
0.0
  0
LINE
  8
0
 62
     0
 10
1.08588
 20
4.34358
 30
0.0
 11
1.11225
 21
4.37147
 31
0.0
  0
LINE
  8
0
 62
     0
 10
1.11225
 20
4.37147
 30
0.0
 11
1.1422
 21
4.40474
 31
0.0
  0
LINE
  8
0
 62
     0
 10
1.1422
 20
4.40474
 30
0.0
 11
1.16368
 21
4.4305
 31
0.0
  0
LINE
  8
0
 62
     0
 10
1.16368
 20
4.4305
 30
0.0
 11
1.17253
 21
4.44254
 31
0.0
  0
LINE
  8
0
 62
     0
 10
1.17253
 20
4.44254
 30
0.0
 11
1.1735
 21
4.44515
 31
0.0
  0
LINE
  8
0
 62
     0
 10
1.1735
 20
4.44515
 30
0.0
 11
1.17459
 21
4.44824
 31
0.0
  0
LINE
  8
0
 62
     0
 10
1.17459
 20
4.44824
 30
0.0
 11
1.17247
 21
4.46853
 31
0.0
  0
LINE
  8
0
 62
     0
 10
1.17247
 20
4.46853
 30
0.0
 11
1.16059
 21
4.49393
 31
0.0
  0
LINE
  8
0
 62
     0
 10
1.16059
 20
4.49393
 30
0.0
 11
1.15685
 21
4.49946
 31
0.0
  0
LINE
  8
0
 62
     0
 10
1.15685
 20
4.49946
 30
0.0
 11
1.15354
 21
4.50429
 31
0.0
  0
LINE
  8
0
 62
     0
 10
1.15354
 20
4.50429
 30
0.0
 11
1.14111
 21
4.53114
 31
0.0
  0
LINE
  8
0
 62
     0
 10
1.14111
 20
4.53114
 30
0.0
 11
1.13623
 21
4.55479
 31
0.0
  0
LINE
  8
0
 62
     0
 10
1.13623
 20
4.55479
 30
0.0
 11
1.13677
 21
4.558
 31
0.0
  0
LINE
  8
0
 62
     0
 10
1.13677
 20
4.558
 30
0.0
 11
1.13726
 21
4.56136
 31
0.0
  0
LINE
  8
0
 62
     0
 10
1.13726
 20
4.56136
 30
0.0
 11
1.13563
 21
4.57497
 31
0.0
  0
LINE
  8
0
 62
     0
 10
1.13563
 20
4.57497
 30
0.0
 11
1.12929
 21
4.58208
 31
0.0
  0
LINE
  8
0
 62
     0
 10
1.12929
 20
4.58208
 30
0.0
 11
1.12744
 21
4.58214
 31
0.0
  0
LINE
  8
0
 62
     0
 10
1.12744
 20
4.58214
 30
0.0
 11
1.11252
 21
4.58296
 31
0.0
  0
LINE
  8
0
 62
     0
 10
1.11252
 20
4.58296
 30
0.0
 11
1.06793
 21
4.58703
 31
0.0
  0
LINE
  8
0
 62
     0
 10
1.06793
 20
4.58703
 30
0.0
 11
1.02078
 21
4.5956
 31
0.0
  0
LINE
  8
0
 62
     0
 10
1.02078
 20
4.5956
 30
0.0
 11
0.976725
 21
4.61029
 31
0.0
  0
LINE
  8
0
 62
     0
 10
0.976725
 20
4.61029
 30
0.0
 11
0.938965
 21
4.62728
 31
0.0
  0
LINE
  8
0
 62
     0
 10
0.938965
 20
4.62728
 30
0.0
 11
0.92665
 21
4.63346
 31
0.0
  0
LINE
  8
0
 62
     0
 10
0.92665
 20
4.63346
 30
0.0
 11
0.916233
 21
4.63867
 31
0.0
  0
LINE
  8
0
 62
     0
 10
0.916233
 20
4.63867
 30
0.0
 11
0.885633
 21
4.65539
 31
0.0
  0
LINE
  8
0
 62
     0
 10
0.885633
 20
4.65539
 30
0.0
 11
0.856662
 21
4.67426
 31
0.0
  0
LINE
  8
0
 62
     0
 10
0.856662
 20
4.67426
 30
0.0
 11
0.83686
 21
4.69239
 31
0.0
  0
LINE
  8
0
 62
     0
 10
0.83686
 20
4.69239
 30
0.0
 11
0.826226
 21
4.70665
 31
0.0
  0
LINE
  8
0
 62
     0
 10
0.826226
 20
4.70665
 30
0.0
 11
0.82346
 21
4.71181
 31
0.0
  0
LINE
  8
0
 62
     0
 10
0.82346
 20
4.71181
 30
0.0
 11
0.818414
 21
4.72114
 31
0.0
  0
LINE
  8
0
 62
     0
 10
0.818414
 20
4.72114
 30
0.0
 11
0.795953
 21
4.74567
 31
0.0
  0
LINE
  8
0
 62
     0
 10
0.795953
 20
4.74567
 30
0.0
 11
0.773762
 21
4.74181
 31
0.0
  0
LINE
  8
0
 62
     0
 10
0.773762
 20
4.74181
 30
0.0
 11
0.769476
 21
4.73747
 31
0.0
  0
LINE
  8
0
 62
     0
 10
0.769476
 20
4.73747
 30
0.0
 11
0.767958
 21
4.736
 31
0.0
  0
LINE
  8
0
 62
     0
 10
0.767958
 20
4.736
 30
0.0
 11
0.759224
 21
4.73562
 31
0.0
  0
LINE
  8
0
 62
     0
 10
0.759224
 20
4.73562
 30
0.0
 11
0.740614
 21
4.73996
 31
0.0
  0
LINE
  8
0
 62
     0
 10
0.740614
 20
4.73996
 30
0.0
 11
0.715712
 21
4.7494
 31
0.0
  0
LINE
  8
0
 62
     0
 10
0.715712
 20
4.7494
 30
0.0
 11
0.686578
 21
4.76303
 31
0.0
  0
LINE
  8
0
 62
     0
 10
0.686578
 20
4.76303
 30
0.0
 11
0.655274
 21
4.77962
 31
0.0
  0
LINE
  8
0
 62
     0
 10
0.655274
 20
4.77962
 30
0.0
 11
0.623969
 21
4.79829
 31
0.0
  0
LINE
  8
0
 62
     0
 10
0.623969
 20
4.79829
 30
0.0
 11
0.594726
 21
4.81787
 31
0.0
  0
LINE
  8
0
 62
     0
 10
0.594726
 20
4.81787
 30
0.0
 11
0.575629
 21
4.83219
 31
0.0
  0
LINE
  8
0
 62
     0
 10
0.575629
 20
4.83219
 30
0.0
 11
0.569661
 21
4.83735
 31
0.0
  0
LINE
  8
0
 62
     0
 10
0.569661
 20
4.83735
 30
0.0
 11
0.56326
 21
4.84283
 31
0.0
  0
LINE
  8
0
 62
     0
 10
0.56326
 20
4.84283
 30
0.0
 11
0.528592
 21
4.88286
 31
0.0
  0
LINE
  8
0
 62
     0
 10
0.528592
 20
4.88286
 30
0.0
 11
0.497558
 21
4.93028
 31
0.0
  0
LINE
  8
0
 62
     0
 10
0.497558
 20
4.93028
 30
0.0
 11
0.493001
 21
4.9394
 31
0.0
  0
LINE
  8
0
 62
     0
 10
0.493001
 20
4.9394
 30
0.0
 11
0.489367
 21
4.94661
 31
0.0
  0
LINE
  8
0
 62
     0
 10
0.489367
 20
4.94661
 30
0.0
 11
0.477647
 21
4.96783
 31
0.0
  0
LINE
  8
0
 62
     0
 10
0.477647
 20
4.96783
 30
0.0
 11
0.459581
 21
4.99789
 31
0.0
  0
LINE
  8
0
 62
     0
 10
0.459581
 20
4.99789
 30
0.0
 11
0.440972
 21
5.0261
 31
0.0
  0
LINE
  8
0
 62
     0
 10
0.440972
 20
5.0261
 30
0.0
 11
0.428549
 21
5.04329
 31
0.0
  0
LINE
  8
0
 62
     0
 10
0.428549
 20
5.04329
 30
0.0
 11
0.424154
 21
5.04872
 31
0.0
  0
LINE
  8
0
 62
     0
 10
0.424154
 20
5.04872
 30
0.0
 11
0.417101
 21
5.05735
 31
0.0
  0
LINE
  8
0
 62
     0
 10
0.417101
 20
5.05735
 30
0.0
 11
0.395454
 21
5.09233
 31
0.0
  0
LINE
  8
0
 62
     0
 10
0.395454
 20
5.09233
 30
0.0
 11
0.388346
 21
5.12414
 31
0.0
  0
LINE
  8
0
 62
     0
 10
0.388346
 20
5.12414
 30
0.0
 11
0.388618
 21
5.13113
 31
0.0
  0
LINE
  8
0
 62
     0
 10
0.388618
 20
5.13113
 30
0.0
 11
0.388943
 21
5.14057
 31
0.0
  0
LINE
  8
0
 62
     0
 10
0.388943
 20
5.14057
 30
0.0
 11
0.39285
 21
5.16878
 31
0.0
  0
LINE
  8
0
 62
     0
 10
0.39285
 20
5.16878
 30
0.0
 11
0.402181
 21
5.20335
 31
0.0
  0
LINE
  8
0
 62
     0
 10
0.402181
 20
5.20335
 30
0.0
 11
0.41569
 21
5.23247
 31
0.0
  0
LINE
  8
0
 62
     0
 10
0.41569
 20
5.23247
 30
0.0
 11
0.427572
 21
5.24924
 31
0.0
  0
LINE
  8
0
 62
     0
 10
0.427572
 20
5.24924
 30
0.0
 11
0.432563
 21
5.25369
 31
0.0
  0
LINE
  8
0
 62
     0
 10
0.432563
 20
5.25369
 30
0.0
 11
0.435385
 21
5.25624
 31
0.0
  0
LINE
  8
0
 62
     0
 10
0.435385
 20
5.25624
 30
0.0
 11
0.446994
 21
5.27106
 31
0.0
  0
LINE
  8
0
 62
     0
 10
0.446994
 20
5.27106
 30
0.0
 11
0.453017
 21
5.28293
 31
0.0
  0
LINE
  8
0
 62
     0
 10
0.453017
 20
5.28293
 30
0.0
 11
0.453017
 21
5.28683
 31
0.0
  0
LINE
  8
0
 62
     0
 10
0.453017
 20
5.28683
 30
0.0
 11
0.453017
 21
5.28933
 31
0.0
  0
LINE
  8
0
 62
     0
 10
0.453017
 20
5.28933
 30
0.0
 11
0.457682
 21
5.29682
 31
0.0
  0
LINE
  8
0
 62
     0
 10
0.457682
 20
5.29682
 30
0.0
 11
0.470215
 21
5.31342
 31
0.0
  0
LINE
  8
0
 62
     0
 10
0.470215
 20
5.31342
 30
0.0
 11
0.488226
 21
5.33415
 31
0.0
  0
LINE
  8
0
 62
     0
 10
0.488226
 20
5.33415
 30
0.0
 11
0.509278
 21
5.35667
 31
0.0
  0
LINE
  8
0
 62
     0
 10
0.509278
 20
5.35667
 30
0.0
 11
0.531033
 21
5.37842
 31
0.0
  0
LINE
  8
0
 62
     0
 10
0.531033
 20
5.37842
 30
0.0
 11
0.551161
 21
5.39697
 31
0.0
  0
LINE
  8
0
 62
     0
 10
0.551161
 20
5.39697
 30
0.0
 11
0.567219
 21
5.40994
 31
0.0
  0
LINE
  8
0
 62
     0
 10
0.567219
 20
5.40994
 30
0.0
 11
0.574436
 21
5.41476
 31
0.0
  0
LINE
  8
0
 62
     0
 10
0.574436
 20
5.41476
 30
0.0
 11
0.576878
 21
5.41476
 31
0.0
  0
LINE
  8
0
 62
     0
 10
0.576878
 20
5.41476
 30
0.0
 11
0.580404
 21
5.41476
 31
0.0
  0
LINE
  8
0
 62
     0
 10
0.580404
 20
5.41476
 30
0.0
 11
0.591092
 21
5.42111
 31
0.0
  0
LINE
  8
0
 62
     0
 10
0.591092
 20
5.42111
 30
0.0
 11
0.609267
 21
5.43343
 31
0.0
  0
LINE
  8
0
 62
     0
 10
0.609267
 20
5.43343
 30
0.0
 11
0.613064
 21
5.43636
 31
0.0
  0
LINE
  8
0
 62
     0
 10
0.613064
 20
5.43636
 30
0.0
 11
0.618707
 21
5.44081
 31
0.0
  0
LINE
  8
0
 62
     0
 10
0.618707
 20
5.44081
 30
0.0
 11
0.633137
 21
5.45774
 31
0.0
  0
LINE
  8
0
 62
     0
 10
0.633137
 20
5.45774
 30
0.0
 11
0.631728
 21
5.47424
 31
0.0
  0
LINE
  8
0
 62
     0
 10
0.631728
 20
5.47424
 30
0.0
 11
0.629449
 21
5.47846
 31
0.0
  0
LINE
  8
0
 62
     0
 10
0.629449
 20
5.47846
 30
0.0
 11
0.627929
 21
5.48128
 31
0.0
  0
LINE
  8
0
 62
     0
 10
0.627929
 20
5.48128
 30
0.0
 11
0.619954
 21
5.50722
 31
0.0
  0
LINE
  8
0
 62
     0
 10
0.619954
 20
5.50722
 30
0.0
 11
0.61339
 21
5.54075
 31
0.0
  0
LINE
  8
0
 62
     0
 10
0.61339
 20
5.54075
 30
0.0
 11
0.612576
 21
5.54736
 31
0.0
  0
LINE
  8
0
 62
     0
 10
0.612576
 20
5.54736
 30
0.0
 11
0.611708
 21
5.55404
 31
0.0
  0
LINE
  8
0
 62
     0
 10
0.611708
 20
5.55404
 30
0.0
 11
0.601074
 21
5.59521
 31
0.0
  0
LINE
  8
0
 62
     0
 10
0.601074
 20
5.59521
 30
0.0
 11
0.585286
 21
5.63585
 31
0.0
  0
LINE
  8
0
 62
     0
 10
0.585286
 20
5.63585
 30
0.0
 11
0.581922
 21
5.64219
 31
0.0
  0
LINE
  8
0
 62
     0
 10
0.581922
 20
5.64219
 30
0.0
 11
0.578504
 21
5.6486
 31
0.0
  0
LINE
  8
0
 62
     0
 10
0.578504
 20
5.6486
 30
0.0
 11
0.564399
 21
5.68246
 31
0.0
  0
LINE
  8
0
 62
     0
 10
0.564399
 20
5.68246
 30
0.0
 11
0.557183
 21
5.70594
 31
0.0
  0
LINE
  8
0
 62
     0
 10
0.557183
 20
5.70594
 30
0.0
 11
0.557183
 21
5.71376
 31
0.0
  0
LINE
  8
0
 62
     0
 10
0.557183
 20
5.71376
 30
0.0
 11
0.557183
 21
5.71756
 31
0.0
  0
LINE
  8
0
 62
     0
 10
0.557183
 20
5.71756
 30
0.0
 11
0.554308
 21
5.72894
 31
0.0
  0
LINE
  8
0
 62
     0
 10
0.554308
 20
5.72894
 30
0.0
 11
0.546442
 21
5.75168
 31
0.0
  0
LINE
  8
0
 62
     0
 10
0.546442
 20
5.75168
 30
0.0
 11
0.534885
 21
5.77892
 31
0.0
  0
LINE
  8
0
 62
     0
 10
0.534885
 20
5.77892
 30
0.0
 11
0.524468
 21
5.80051
 31
0.0
  0
LINE
  8
0
 62
     0
 10
0.524468
 20
5.80051
 30
0.0
 11
0.520725
 21
5.80757
 31
0.0
  0
LINE
  8
0
 62
     0
 10
0.520725
 20
5.80757
 30
0.0
 11
0.51709
 21
5.81446
 31
0.0
  0
LINE
  8
0
 62
     0
 10
0.51709
 20
5.81446
 30
0.0
 11
0.506565
 21
5.83518
 31
0.0
  0
LINE
  8
0
 62
     0
 10
0.506565
 20
5.83518
 30
0.0
 11
0.494954
 21
5.85949
 31
0.0
  0
LINE
  8
0
 62
     0
 10
0.494954
 20
5.85949
 30
0.0
 11
0.487142
 21
5.87788
 31
0.0
  0
LINE
  8
0
 62
     0
 10
0.487142
 20
5.87788
 30
0.0
 11
0.484267
 21
5.88531
 31
0.0
  0
LINE
  8
0
 62
     0
 10
0.484267
 20
5.88531
 30
0.0
 11
0.484267
 21
5.88775
 31
0.0
  0
LINE
  8
0
 62
     0
 10
0.484267
 20
5.88775
 30
0.0
 11
0.484267
 21
5.89214
 31
0.0
  0
LINE
  8
0
 62
     0
 10
0.484267
 20
5.89214
 30
0.0
 11
0.47054
 21
5.90517
 31
0.0
  0
LINE
  8
0
 62
     0
 10
0.47054
 20
5.90517
 30
0.0
 11
0.435221
 21
5.92828
 31
0.0
  0
LINE
  8
0
 62
     0
 10
0.435221
 20
5.92828
 30
0.0
 11
0.386882
 21
5.95226
 31
0.0
  0
LINE
  8
0
 62
     0
 10
0.386882
 20
5.95226
 30
0.0
 11
0.347547
 21
5.96804
 31
0.0
  0
LINE
  8
0
 62
     0
 10
0.347547
 20
5.96804
 30
0.0
 11
0.334147
 21
5.97222
 31
0.0
  0
LINE
  8
0
 62
     0
 10
0.334147
 20
5.97222
 30
0.0
 11
0.32449
 21
5.97526
 31
0.0
  0
LINE
  8
0
 62
     0
 10
0.32449
 20
5.97526
 30
0.0
 11
0.279568
 21
5.99582
 31
0.0
  0
LINE
  8
0
 62
     0
 10
0.279568
 20
5.99582
 30
0.0
 11
0.242839
 21
6.02149
 31
0.0
  0
LINE
  8
0
 62
     0
 10
0.242839
 20
6.02149
 30
0.0
 11
0.23725
 21
6.02707
 31
0.0
  0
LINE
  8
0
 62
     0
 10
0.23725
 20
6.02707
 30
0.0
 11
0.232314
 21
6.03201
 31
0.0
  0
LINE
  8
0
 62
     0
 10
0.232314
 20
6.03201
 30
0.0
 11
0.206922
 21
6.05296
 31
0.0
  0
LINE
  8
0
 62
     0
 10
0.206922
 20
6.05296
 30
0.0
 11
0.186524
 21
6.06483
 31
0.0
  0
LINE
  8
0
 62
     0
 10
0.186524
 20
6.06483
 30
0.0
 11
0.184136
 21
6.06515
 31
0.0
  0
LINE
  8
0
 62
     0
 10
0.184136
 20
6.06515
 30
0.0
 11
0.179308
 21
6.06586
 31
0.0
  0
LINE
  8
0
 62
     0
 10
0.179308
 20
6.06586
 30
0.0
 11
0.165853
 21
6.0746
 31
0.0
  0
LINE
  8
0
 62
     0
 10
0.165853
 20
6.0746
 30
0.0
 11
0.153754
 21
6.09625
 31
0.0
  0
LINE
  8
0
 62
     0
 10
0.153754
 20
6.09625
 30
0.0
 11
0.148112
 21
6.12924
 31
0.0
  0
LINE
  8
0
 62
     0
 10
0.148112
 20
6.12924
 30
0.0
 11
0.148167
 21
6.16194
 31
0.0
  0
LINE
  8
0
 62
     0
 10
0.148167
 20
6.16194
 30
0.0
 11
0.149197
 21
6.17275
 31
0.0
  0
LINE
  8
0
 62
     0
 10
0.149197
 20
6.17275
 30
0.0
 11
0.149957
 21
6.18099
 31
0.0
  0
LINE
  8
0
 62
     0
 10
0.149957
 20
6.18099
 30
0.0
 11
0.151258
 21
6.21013
 31
0.0
  0
LINE
  8
0
 62
     0
 10
0.151258
 20
6.21013
 30
0.0
 11
0.152886
 21
6.26768
 31
0.0
  0
LINE
  8
0
 62
     0
 10
0.152886
 20
6.26768
 30
0.0
 11
0.153917
 21
6.33757
 31
0.0
  0
LINE
  8
0
 62
     0
 10
0.153917
 20
6.33757
 30
0.0
 11
0.154189
 21
6.39339
 31
0.0
  0
LINE
  8
0
 62
     0
 10
0.154189
 20
6.39339
 30
0.0
 11
0.154189
 21
6.41194
 31
0.0
  0
LINE
  8
0
 62
     0
 10
0.154189
 20
6.41194
 30
0.0
 11
0.154135
 21
6.42931
 31
0.0
  0
LINE
  8
0
 62
     0
 10
0.154135
 20
6.42931
 30
0.0
 11
0.154568
 21
6.48128
 31
0.0
  0
LINE
  8
0
 62
     0
 10
0.154568
 20
6.48128
 30
0.0
 11
0.156142
 21
6.53728
 31
0.0
  0
LINE
  8
0
 62
     0
 10
0.156142
 20
6.53728
 30
0.0
 11
0.158529
 21
6.57428
 31
0.0
  0
LINE
  8
0
 62
     0
 10
0.158529
 20
6.57428
 30
0.0
 11
0.161621
 21
6.58649
 31
0.0
  0
LINE
  8
0
 62
     0
 10
0.161621
 20
6.58649
 30
0.0
 11
0.161621
 21
6.58649
 31
0.0
  0
LINE
  8
0
 62
     0
 10
0.161621
 20
6.58649
 30
0.0
 11
0.162706
 21
6.58583
 31
0.0
  0
LINE
  8
0
 62
     0
 10
0.162706
 20
6.58583
 30
0.0
 11
0.180556
 21
6.58778
 31
0.0
  0
LINE
  8
0
 62
     0
 10
0.180556
 20
6.58778
 30
0.0
 11
0.208712
 21
6.59549
 31
0.0
  0
LINE
  8
0
 62
     0
 10
0.208712
 20
6.59549
 30
0.0
 11
0.214953
 21
6.59771
 31
0.0
  0
LINE
  8
0
 62
     0
 10
0.214953
 20
6.59771
 30
0.0
 11
0.229383
 21
6.60286
 31
0.0
  0
LINE
  8
0
 62
     0
 10
0.229383
 20
6.60286
 30
0.0
 11
0.328125
 21
6.62793
 31
0.0
  0
LINE
  8
0
 62
     0
 10
0.328125
 20
6.62793
 30
0.0
 11
0.438151
 21
6.64703
 31
0.0
  0
LINE
  8
0
 62
     0
 10
0.438151
 20
6.64703
 30
0.0
 11
0.458225
 21
6.64919
 31
0.0
  0
LINE
  8
0
 62
     0
 10
0.458225
 20
6.64919
 30
0.0
 11
0.466797
 21
6.65012
 31
0.0
  0
LINE
  8
0
 62
     0
 10
0.466797
 20
6.65012
 30
0.0
 11
0.509278
 21
6.65506
 31
0.0
  0
LINE
  8
0
 62
     0
 10
0.509278
 20
6.65506
 30
0.0
 11
0.540961
 21
6.65918
 31
0.0
  0
LINE
  8
0
 62
     0
 10
0.540961
 20
6.65918
 30
0.0
 11
0.544217
 21
6.65967
 31
0.0
  0
LINE
  8
0
 62
     0
 10
0.544217
 20
6.65967
 30
0.0
 11
0.567383
 21
6.66336
 31
0.0
  0
LINE
  8
0
 62
     0
 10
0.567383
 20
6.66336
 30
0.0
 11
0.637858
 21
6.66878
 31
0.0
  0
LINE
  8
0
 62
     0
 10
0.637858
 20
6.66878
 30
0.0
 11
0.778537
 21
6.67529
 31
0.0
  0
LINE
  8
0
 62
     0
 10
0.778537
 20
6.67529
 30
0.0
 11
0.950629
 21
6.67919
 31
0.0
  0
LINE
  8
0
 62
     0
 10
0.950629
 20
6.67919
 30
0.0
 11
1.13851
 21
6.68056
 31
0.0
  0
LINE
  8
0
 62
     0
 10
1.13851
 20
6.68056
 30
0.0
 11
1.32655
 21
6.67936
 31
0.0
  0
LINE
  8
0
 62
     0
 10
1.32655
 20
6.67936
 30
0.0
 11
1.49908
 21
6.67557
 31
0.0
  0
LINE
  8
0
 62
     0
 10
1.49908
 20
6.67557
 30
0.0
 11
1.64046
 21
6.66917
 31
0.0
  0
LINE
  8
0
 62
     0
 10
1.64046
 20
6.66917
 30
0.0
 11
1.71164
 21
6.66379
 31
0.0
  0
LINE
  8
0
 62
     0
 10
1.71164
 20
6.66379
 30
0.0
 11
1.73508
 21
6.6601
 31
0.0
  0
LINE
  8
0
 62
     0
 10
1.73508
 20
6.6601
 30
0.0
 11
1.73856
 21
6.65956
 31
0.0
  0
LINE
  8
0
 62
     0
 10
1.73856
 20
6.65956
 30
0.0
 11
1.77115
 21
6.65522
 31
0.0
  0
LINE
  8
0
 62
     0
 10
1.77115
 20
6.65522
 30
0.0
 11
1.81386
 21
6.65001
 31
0.0
  0
LINE
  8
0
 62
     0
 10
1.81386
 20
6.65001
 30
0.0
 11
1.82243
 21
6.64903
 31
0.0
  0
LINE
  8
0
 62
     0
 10
1.82243
 20
6.64903
 30
0.0
 11
1.83094
 21
6.64806
 31
0.0
  0
LINE
  8
0
 62
     0
 10
1.83094
 20
6.64806
 30
0.0
 11
1.87256
 21
6.64274
 31
0.0
  0
LINE
  8
0
 62
     0
 10
1.87256
 20
6.64274
 30
0.0
 11
1.90283
 21
6.63813
 31
0.0
  0
LINE
  8
0
 62
     0
 10
1.90283
 20
6.63813
 30
0.0
 11
1.90576
 21
6.63753
 31
0.0
  0
LINE
  8
0
 62
     0
 10
1.90576
 20
6.63753
 30
0.0
 11
1.90864
 21
6.63693
 31
0.0
  0
LINE
  8
0
 62
     0
 10
1.90864
 20
6.63693
 30
0.0
 11
1.93143
 21
6.63271
 31
0.0
  0
LINE
  8
0
 62
     0
 10
1.93143
 20
6.63271
 30
0.0
 11
1.95839
 21
6.62804
 31
0.0
  0
LINE
  8
0
 62
     0
 10
1.95839
 20
6.62804
 30
0.0
 11
1.96343
 21
6.62722
 31
0.0
  0
LINE
  8
0
 62
     0
 10
1.96343
 20
6.62722
 30
0.0
 11
1.96843
 21
6.62642
 31
0.0
  0
LINE
  8
0
 62
     0
 10
1.96843
 20
6.62642
 30
0.0
 11
2.00558
 21
6.61643
 31
0.0
  0
LINE
  8
0
 62
     0
 10
2.00558
 20
6.61643
 30
0.0
 11
2.04807
 21
6.60183
 31
0.0
  0
LINE
  8
0
 62
     0
 10
2.04807
 20
6.60183
 30
0.0
 11
2.05578
 21
6.59874
 31
0.0
  0
LINE
  8
0
 62
     0
 10
2.05578
 20
6.59874
 30
0.0
 11
2.1116
 21
6.57622
 31
0.0
  0
LINE
  8
0
 62
     0
 10
2.1116
 20
6.57622
 30
0.0
 11
2.11567
 21
6.32101
 31
0.0
  0
LINE
  8
0
 62
     0
 10
2.11567
 20
6.32101
 30
0.0
 11
2.11604
 21
6.29536
 31
0.0
  0
LINE
  8
0
 62
     0
 10
2.11604
 20
6.29536
 30
0.0
 11
2.11757
 21
6.21826
 31
0.0
  0
LINE
  8
0
 62
     0
 10
2.11757
 20
6.21826
 30
0.0
 11
2.11985
 21
6.12701
 31
0.0
  0
LINE
  8
0
 62
     0
 10
2.11985
 20
6.12701
 30
0.0
 11
2.12213
 21
6.05729
 31
0.0
  0
LINE
  8
0
 62
     0
 10
2.12213
 20
6.05729
 30
0.0
 11
2.12354
 21
6.02539
 31
0.0
  0
LINE
  8
0
 62
     0
 10
2.12354
 20
6.02539
 30
0.0
 11
2.12418
 21
6.01893
 31
0.0
  0
LINE
  8
0
 62
     0
 10
2.12418
 20
6.01893
 30
0.0
 11
2.12646
 21
5.99479
 31
0.0
  0
LINE
  8
0
 62
     0
 10
2.12646
 20
5.99479
 30
0.0
 11
2.13243
 21
5.92215
 31
0.0
  0
LINE
  8
0
 62
     0
 10
2.13243
 20
5.92215
 30
0.0
 11
2.13721
 21
5.84418
 31
0.0
  0
LINE
  8
0
 62
     0
 10
2.13721
 20
5.84418
 30
0.0
 11
2.13835
 21
5.78874
 31
0.0
  0
LINE
  8
0
 62
     0
 10
2.13835
 20
5.78874
 30
0.0
 11
2.13721
 21
5.76454
 31
0.0
  0
LINE
  8
0
 62
     0
 10
2.13721
 20
5.76454
 30
0.0
 11
2.13569
 21
5.75965
 31
0.0
  0
LINE
  8
0
 62
     0
 10
2.13569
 20
5.75965
 30
0.0
 11
2.13406
 21
5.75461
 31
0.0
  0
LINE
  8
0
 62
     0
 10
2.13406
 20
5.75461
 30
0.0
 11
2.12472
 21
5.74078
 31
0.0
  0
LINE
  8
0
 62
     0
 10
2.12472
 20
5.74078
 30
0.0
 11
2.10547
 21
5.72607
 31
0.0
  0
LINE
  8
0
 62
     0
 10
2.10547
 20
5.72607
 30
0.0
 11
2.07844
 21
5.71593
 31
0.0
  0
LINE
  8
0
 62
     0
 10
2.07844
 20
5.71593
 30
0.0
 11
2.05285
 21
5.71121
 31
0.0
  0
LINE
  8
0
 62
     0
 10
2.05285
 20
5.71121
 30
0.0
 11
2.04428
 21
5.71056
 31
0.0
  0
LINE
  8
0
 62
     0
 10
2.04428
 20
5.71056
 30
0.0
 11
2.03885
 21
5.71018
 31
0.0
  0
LINE
  8
0
 62
     0
 10
2.03885
 20
5.71018
 30
0.0
 11
2.01335
 21
5.70649
 31
0.0
  0
LINE
  8
0
 62
     0
 10
2.01335
 20
5.70649
 30
0.0
 11
1.99571
 21
5.70188
 31
0.0
  0
LINE
  8
0
 62
     0
 10
1.99571
 20
5.70188
 30
0.0
 11
1.99425
 21
5.70096
 31
0.0
  0
LINE
  8
0
 62
     0
 10
1.99425
 20
5.70096
 30
0.0
 11
1.99278
 21
5.70008
 31
0.0
  0
LINE
  8
0
 62
     0
 10
1.99278
 20
5.70008
 30
0.0
 11
1.97119
 21
5.69499
 31
0.0
  0
LINE
  8
0
 62
     0
 10
1.97119
 20
5.69499
 30
0.0
 11
1.93799
 21
5.69054
 31
0.0
  0
LINE
  8
0
 62
     0
 10
1.93799
 20
5.69054
 30
0.0
 11
1.93072
 21
5.68989
 31
0.0
  0
LINE
  8
0
 62
     0
 10
1.93072
 20
5.68989
 30
0.0
 11
1.9209
 21
5.68907
 31
0.0
  0
LINE
  8
0
 62
     0
 10
1.9209
 20
5.68907
 30
0.0
 11
1.8915
 21
5.68533
 31
0.0
  0
LINE
  8
0
 62
     0
 10
1.8915
 20
5.68533
 30
0.0
 11
1.86322
 21
5.6754
 31
0.0
  0
LINE
  8
0
 62
     0
 10
1.86322
 20
5.6754
 30
0.0
 11
1.83361
 21
5.65343
 31
0.0
  0
LINE
  8
0
 62
     0
 10
1.83361
 20
5.65343
 30
0.0
 11
1.80122
 21
5.62304
 31
0.0
  0
LINE
  8
0
 62
     0
 10
1.80122
 20
5.62304
 30
0.0
 11
1.79064
 21
5.61274
 31
0.0
  0
LINE
  8
0
 62
     0
 10
1.79064
 20
5.61274
 30
0.0
 11
1.78358
 21
5.60596
 31
0.0
  0
LINE
  8
0
 62
     0
 10
1.78358
 20
5.60596
 30
0.0
 11
1.76264
 21
5.58529
 31
0.0
  0
LINE
  8
0
 62
     0
 10
1.76264
 20
5.58529
 30
0.0
 11
1.74224
 21
5.56381
 31
0.0
  0
LINE
  8
0
 62
     0
 10
1.74224
 20
5.56381
 30
0.0
 11
1.72917
 21
5.5465
 31
0.0
  0
LINE
  8
0
 62
     0
 10
1.72917
 20
5.5465
 30
0.0
 11
1.72299
 21
5.53168
 31
0.0
  0
LINE
  8
0
 62
     0
 10
1.72299
 20
5.53168
 30
0.0
 11
1.72336
 21
5.51753
 31
0.0
  0
LINE
  8
0
 62
     0
 10
1.72336
 20
5.51753
 30
0.0
 11
1.72999
 21
5.50239
 31
0.0
  0
LINE
  8
0
 62
     0
 10
1.72999
 20
5.50239
 30
0.0
 11
1.74251
 21
5.48443
 31
0.0
  0
LINE
  8
0
 62
     0
 10
1.74251
 20
5.48443
 30
0.0
 11
1.75603
 21
5.4675
 31
0.0
  0
LINE
  8
0
 62
     0
 10
1.75603
 20
5.4675
 30
0.0
 11
1.76058
 21
5.46186
 31
0.0
  0
LINE
  8
0
 62
     0
 10
1.76058
 20
5.46186
 30
0.0
 11
1.76546
 21
5.45589
 31
0.0
  0
LINE
  8
0
 62
     0
 10
1.76546
 20
5.45589
 30
0.0
 11
1.77979
 21
5.43744
 31
0.0
  0
LINE
  8
0
 62
     0
 10
1.77979
 20
5.43744
 30
0.0
 11
1.79719
 21
5.41379
 31
0.0
  0
LINE
  8
0
 62
     0
 10
1.79719
 20
5.41379
 30
0.0
 11
1.81082
 21
5.39367
 31
0.0
  0
LINE
  8
0
 62
     0
 10
1.81082
 20
5.39367
 30
0.0
 11
1.81733
 21
5.38303
 31
0.0
  0
LINE
  8
0
 62
     0
 10
1.81733
 20
5.38303
 30
0.0
 11
1.81885
 21
5.37972
 31
0.0
  0
LINE
  8
0
 62
     0
 10
1.81885
 20
5.37972
 30
0.0
 11
1.82167
 21
5.37354
 31
0.0
  0
LINE
  8
0
 62
     0
 10
1.82167
 20
5.37354
 30
0.0
 11
1.83524
 21
5.35726
 31
0.0
  0
LINE
  8
0
 62
     0
 10
1.83524
 20
5.35726
 30
0.0
 11
1.86436
 21
5.33535
 31
0.0
  0
LINE
  8
0
 62
     0
 10
1.86436
 20
5.33535
 30
0.0
 11
1.90804
 21
5.3131
 31
0.0
  0
LINE
  8
0
 62
     0
 10
1.90804
 20
5.3131
 30
0.0
 11
1.95281
 21
5.29482
 31
0.0
  0
LINE
  8
0
 62
     0
 10
1.95281
 20
5.29482
 30
0.0
 11
1.96793
 21
5.28933
 31
0.0
  0
LINE
  8
0
 62
     0
 10
1.96793
 20
5.28933
 30
0.0
 11
1.97846
 21
5.28554
 31
0.0
  0
LINE
  8
0
 62
     0
 10
1.97846
 20
5.28554
 30
0.0
 11
2.00999
 21
5.27333
 31
0.0
  0
LINE
  8
0
 62
     0
 10
2.00999
 20
5.27333
 30
0.0
 11
2.03331
 21
5.25988
 31
0.0
  0
LINE
  8
0
 62
     0
 10
2.03331
 20
5.25988
 30
0.0
 11
2.04574
 21
5.24219
 31
0.0
  0
LINE
  8
0
 62
     0
 10
2.04574
 20
5.24219
 30
0.0
 11
2.05296
 21
5.22081
 31
0.0
  0
LINE
  8
0
 62
     0
 10
2.05296
 20
5.22081
 30
0.0
 11
2.05501
 21
5.2136
 31
0.0
  0
LINE
  8
0
 62
     0
 10
2.05501
 20
5.2136
 30
0.0
 11
2.05789
 21
5.2034
 31
0.0
  0
LINE
  8
0
 62
     0
 10
2.05789
 20
5.2034
 30
0.0
 11
2.07118
 21
5.17404
 31
0.0
  0
LINE
  8
0
 62
     0
 10
2.07118
 20
5.17404
 30
0.0
 11
2.09424
 21
5.1404
 31
0.0
  0
LINE
  8
0
 62
     0
 10
2.09424
 20
5.1404
 30
0.0
 11
2.12061
 21
5.11664
 31
0.0
  0
LINE
  8
0
 62
     0
 10
2.12061
 20
5.11664
 30
0.0
 11
2.14019
 21
5.10726
 31
0.0
  0
LINE
  8
0
 62
     0
 10
2.14019
 20
5.10726
 30
0.0
 11
2.14686
 21
5.10688
 31
0.0
  0
LINE
  8
0
 62
     0
 10
2.14686
 20
5.10688
 30
0.0
 11
2.15315
 21
5.10656
 31
0.0
  0
LINE
  8
0
 62
     0
 10
2.15315
 20
5.10656
 30
0.0
 11
2.17204
 21
5.1034
 31
0.0
  0
LINE
  8
0
 62
     0
 10
2.17204
 20
5.1034
 30
0.0
 11
2.18956
 21
5.09549
 31
0.0
  0
LINE
  8
0
 62
     0
 10
2.18956
 20
5.09549
 30
0.0
 11
2.20101
 21
5.08192
 31
0.0
  0
LINE
  8
0
 62
     0
 10
2.20101
 20
5.08192
 30
0.0
 11
2.20688
 21
5.06679
 31
0.0
  0
LINE
  8
0
 62
     0
 10
2.20688
 20
5.06679
 30
0.0
 11
2.20801
 21
5.06153
 31
0.0
  0
LINE
  8
0
 62
     0
 10
2.20801
 20
5.06153
 30
0.0
 11
2.20947
 21
5.05485
 31
0.0
  0
LINE
  8
0
 62
     0
 10
2.20947
 20
5.05485
 30
0.0
 11
2.21121
 21
5.03407
 31
0.0
  0
LINE
  8
0
 62
     0
 10
2.21121
 20
5.03407
 30
0.0
 11
2.20822
 21
5.01096
 31
0.0
  0
LINE
  8
0
 62
     0
 10
2.20822
 20
5.01096
 30
0.0
 11
2.19949
 21
4.99354
 31
0.0
  0
LINE
  8
0
 62
     0
 10
2.19949
 20
4.99354
 30
0.0
 11
2.18929
 21
4.98465
 31
0.0
  0
LINE
  8
0
 62
     0
 10
2.18929
 20
4.98465
 30
0.0
 11
2.18539
 21
4.98313
 31
0.0
  0
LINE
  8
0
 62
     0
 10
2.18539
 20
4.98313
 30
0.0
 11
2.18306
 21
4.98226
 31
0.0
  0
LINE
  8
0
 62
     0
 10
2.18306
 20
4.98226
 30
0.0
 11
2.15479
 21
4.97711
 31
0.0
  0
LINE
  8
0
 62
     0
 10
2.15479
 20
4.97711
 30
0.0
 11
2.11376
 21
4.97222
 31
0.0
  0
LINE
  8
0
 62
     0
 10
2.11376
 20
4.97222
 30
0.0
 11
2.10504
 21
4.97151
 31
0.0
  0
LINE
  8
0
 62
     0
 10
2.10504
 20
4.97151
 30
0.0
 11
2.09511
 21
4.97076
 31
0.0
  0
LINE
  8
0
 62
     0
 10
2.09511
 20
4.97076
 30
0.0
 11
2.06549
 21
4.96772
 31
0.0
  0
LINE
  8
0
 62
     0
 10
2.06549
 20
4.96772
 30
0.0
 11
2.03461
 21
4.96272
 31
0.0
  0
LINE
  8
0
 62
     0
 10
2.03461
 20
4.96272
 30
0.0
 11
2.01133
 21
4.95557
 31
0.0
  0
LINE
  8
0
 62
     0
 10
2.01133
 20
4.95557
 30
0.0
 11
1.99442
 21
4.94521
 31
0.0
  0
LINE
  8
0
 62
     0
 10
1.99442
 20
4.94521
 30
0.0
 11
1.98258
 21
4.9305
 31
0.0
  0
LINE
  8
0
 62
     0
 10
1.98258
 20
4.9305
 30
0.0
 11
1.97472
 21
4.91054
 31
0.0
  0
LINE
  8
0
 62
     0
 10
1.97472
 20
4.91054
 30
0.0
 11
1.96957
 21
4.88422
 31
0.0
  0
LINE
  8
0
 62
     0
 10
1.96957
 20
4.88422
 30
0.0
 11
1.96674
 21
4.85894
 31
0.0
  0
LINE
  8
0
 62
     0
 10
1.96674
 20
4.85894
 30
0.0
 11
1.96604
 21
4.85047
 31
0.0
  0
LINE
  8
0
 62
     0
 10
1.96604
 20
4.85047
 30
0.0
 11
1.96533
 21
4.84229
 31
0.0
  0
LINE
  8
0
 62
     0
 10
1.96533
 20
4.84229
 30
0.0
 11
1.96446
 21
4.8176
 31
0.0
  0
LINE
  8
0
 62
     0
 10
1.96446
 20
4.8176
 30
0.0
 11
1.96696
 21
4.79156
 31
0.0
  0
LINE
  8
0
 62
     0
 10
1.96696
 20
4.79156
 30
0.0
 11
1.97467
 21
4.76665
 31
0.0
  0
LINE
  8
0
 62
     0
 10
1.97467
 20
4.76665
 30
0.0
 11
1.98503
 21
4.74431
 31
0.0
  0
LINE
  8
0
 62
     0
 10
1.98503
 20
4.74431
 30
0.0
 11
1.98882
 21
4.73703
 31
0.0
  0
LINE
  8
0
 62
     0
 10
1.98882
 20
4.73703
 30
0.0
 11
1.99262
 21
4.72976
 31
0.0
  0
LINE
  8
0
 62
     0
 10
1.99262
 20
4.72976
 30
0.0
 11
2.00722
 21
4.6959
 31
0.0
  0
LINE
  8
0
 62
     0
 10
2.00722
 20
4.6959
 30
0.0
 11
2.01297
 21
4.67333
 31
0.0
  0
LINE
  8
0
 62
     0
 10
2.01297
 20
4.67333
 30
0.0
 11
2.01238
 21
4.67165
 31
0.0
  0
LINE
  8
0
 62
     0
 10
2.01238
 20
4.67165
 30
0.0
 11
2.0115
 21
4.66932
 31
0.0
  0
LINE
  8
0
 62
     0
 10
2.0115
 20
4.66932
 30
0.0
 11
2.01346
 21
4.66069
 31
0.0
  0
LINE
  8
0
 62
     0
 10
2.01346
 20
4.66069
 30
0.0
 11
2.02001
 21
4.64117
 31
0.0
  0
LINE
  8
0
 62
     0
 10
2.02001
 20
4.64117
 30
0.0
 11
2.03076
 21
4.61567
 31
0.0
  0
LINE
  8
0
 62
     0
 10
2.03076
 20
4.61567
 30
0.0
 11
2.04438
 21
4.58675
 31
0.0
  0
LINE
  8
0
 62
     0
 10
2.04438
 20
4.58675
 30
0.0
 11
2.05957
 21
4.55718
 31
0.0
  0
LINE
  8
0
 62
     0
 10
2.05957
 20
4.55718
 30
0.0
 11
2.07508
 21
4.52951
 31
0.0
  0
LINE
  8
0
 62
     0
 10
2.07508
 20
4.52951
 30
0.0
 11
2.08957
 21
4.50635
 31
0.0
  0
LINE
  8
0
 62
     0
 10
2.08957
 20
4.50635
 30
0.0
 11
2.09836
 21
4.49397
 31
0.0
  0
LINE
  8
0
 62
     0
 10
2.09836
 20
4.49397
 30
0.0
 11
2.10178
 21
4.49029
 31
0.0
  0
LINE
  8
0
 62
     0
 10
2.10178
 20
4.49029
 30
0.0
 11
2.10471
 21
4.48708
 31
0.0
  0
LINE
  8
0
 62
     0
 10
2.10471
 20
4.48708
 30
0.0
 11
2.12278
 21
4.47374
 31
0.0
  0
LINE
  8
0
 62
     0
 10
2.12278
 20
4.47374
 30
0.0
 11
2.13792
 21
4.46685
 31
0.0
  0
LINE
  8
0
 62
     0
 10
2.13792
 20
4.46685
 30
0.0
 11
2.14301
 21
4.46685
 31
0.0
  0
LINE
  8
0
 62
     0
 10
2.14301
 20
4.46685
 30
0.0
 11
2.14806
 21
4.46685
 31
0.0
  0
LINE
  8
0
 62
     0
 10
2.14806
 20
4.46685
 30
0.0
 11
2.16325
 21
4.46349
 31
0.0
  0
LINE
  8
0
 62
     0
 10
2.16325
 20
4.46349
 30
0.0
 11
2.18138
 21
4.45692
 31
0.0
  0
LINE
  8
0
 62
     0
 10
2.18138
 20
4.45692
 30
0.0
 11
2.18435
 21
4.45529
 31
0.0
  0
LINE
  8
0
 62
     0
 10
2.18435
 20
4.45529
 30
0.0
 11
2.18728
 21
4.45372
 31
0.0
  0
LINE
  8
0
 62
     0
 10
2.18728
 20
4.45372
 30
0.0
 11
2.20101
 21
4.45042
 31
0.0
  0
LINE
  8
0
 62
     0
 10
2.20101
 20
4.45042
 30
0.0
 11
2.23053
 21
4.44564
 31
0.0
  0
LINE
  8
0
 62
     0
 10
2.23053
 20
4.44564
 30
0.0
 11
2.26867
 21
4.44151
 31
0.0
  0
LINE
  8
0
 62
     0
 10
2.26867
 20
4.44151
 30
0.0
 11
2.30063
 21
4.43913
 31
0.0
  0
LINE
  8
0
 62
     0
 10
2.30063
 20
4.43913
 30
0.0
 11
2.31131
 21
4.43858
 31
0.0
  0
LINE
  8
0
 62
     0
 10
2.31131
 20
4.43858
 30
0.0
 11
2.3259
 21
4.43793
 31
0.0
  0
LINE
  8
0
 62
     0
 10
2.3259
 20
4.43793
 30
0.0
 11
2.36974
 21
4.43479
 31
0.0
  0
LINE
  8
0
 62
     0
 10
2.36974
 20
4.43479
 30
0.0
 11
2.41575
 21
4.4279
 31
0.0
  0
LINE
  8
0
 62
     0
 10
2.41575
 20
4.4279
 30
0.0
 11
2.45188
 21
4.41564
 31
0.0
  0
LINE
  8
0
 62
     0
 10
2.45188
 20
4.41564
 30
0.0
 11
2.48062
 21
4.39551
 31
0.0
  0
LINE
  8
0
 62
     0
 10
2.48062
 20
4.39551
 30
0.0
 11
2.50456
 21
4.36513
 31
0.0
  0
LINE
  8
0
 62
     0
 10
2.50456
 20
4.36513
 30
0.0
 11
2.52615
 21
4.32206
 31
0.0
  0
LINE
  8
0
 62
     0
 10
2.52615
 20
4.32206
 30
0.0
 11
2.5479
 21
4.26389
 31
0.0
  0
LINE
  8
0
 62
     0
 10
2.5479
 20
4.26389
 30
0.0
 11
2.56651
 21
4.20714
 31
0.0
  0
LINE
  8
0
 62
     0
 10
2.56651
 20
4.20714
 30
0.0
 11
2.57249
 21
4.18815
 31
0.0
  0
LINE
  8
0
 62
     0
 10
2.57249
 20
4.18815
 30
0.0
 11
2.58029
 21
4.16319
 31
0.0
  0
LINE
  8
0
 62
     0
 10
2.58029
 20
4.16319
 30
0.0
 11
2.60189
 21
4.08757
 31
0.0
  0
LINE
  8
0
 62
     0
 10
2.60189
 20
4.08757
 30
0.0
 11
2.60678
 21
4.02599
 31
0.0
  0
LINE
  8
0
 62
     0
 10
2.60678
 20
4.02599
 30
0.0
 11
2.58263
 21
3.97894
 31
0.0
  0
LINE
  8
0
 62
     0
 10
2.58263
 20
3.97894
 30
0.0
 11
2.53999
 21
3.9356
 31
0.0
  0
LINE
  8
0
 62
     0
 10
2.53999
 20
3.9356
 30
0.0
 11
2.52518
 21
3.92176
 31
0.0
  0
LINE
  8
0
 62
     0
 10
2.52518
 20
3.92176
 30
0.0
 11
2.51633
 21
3.91357
 31
0.0
  0
LINE
  8
0
 62
     0
 10
2.51633
 20
3.91357
 30
0.0
 11
2.4891
 21
3.88965
 31
0.0
  0
LINE
  8
0
 62
     0
 10
2.4891
 20
3.88965
 30
0.0
 11
2.45296
 21
3.85997
 31
0.0
  0
LINE
  8
0
 62
     0
 10
2.45296
 20
3.85997
 30
0.0
 11
2.42106
 21
3.83615
 31
0.0
  0
LINE
  8
0
 62
     0
 10
2.42106
 20
3.83615
 30
0.0
 11
2.40354
 21
3.82438
 31
0.0
  0
LINE
  8
0
 62
     0
 10
2.40354
 20
3.82438
 30
0.0
 11
2.39757
 21
3.82135
 31
0.0
  0
LINE
  8
0
 62
     0
 10
2.39757
 20
3.82135
 30
0.0
 11
2.38596
 21
3.81549
 31
0.0
  0
LINE
  8
0
 62
     0
 10
2.38596
 20
3.81549
 30
0.0
 11
2.35167
 21
3.79688
 31
0.0
  0
LINE
  8
0
 62
     0
 10
2.35167
 20
3.79688
 30
0.0
 11
2.31108
 21
3.77285
 31
0.0
  0
LINE
  8
0
 62
     0
 10
2.31108
 20
3.77285
 30
0.0
 11
2.2775
 21
3.75038
 31
0.0
  0
LINE
  8
0
 62
     0
 10
2.2775
 20
3.75038
 30
0.0
 11
2.25846
 21
3.73589
 31
0.0
  0
LINE
  8
0
 62
     0
 10
2.25846
 20
3.73589
 30
0.0
 11
2.25261
 21
3.73053
 31
0.0
  0
LINE
  8
0
 62
     0
 10
2.25261
 20
3.73053
 30
0.0
 11
2.23633
 21
3.71576
 31
0.0
  0
LINE
  8
0
 62
     0
 10
2.23633
 20
3.71576
 30
0.0
 11
2.13553
 21
3.64947
 31
0.0
  0
LINE
  8
0
 62
     0
 10
2.13553
 20
3.64947
 30
0.0
 11
2.0084
 21
3.59332
 31
0.0
  0
LINE
  8
0
 62
     0
 10
2.0084
 20
3.59332
 30
0.0
 11
1.97906
 21
3.58356
 31
0.0
  0
LINE
  8
0
 62
     0
 10
1.97906
 20
3.58356
 30
0.0
 11
1.95372
 21
3.57519
 31
0.0
  0
LINE
  8
0
 62
     0
 10
1.95372
 20
3.57519
 30
0.0
 11
1.87722
 21
3.55186
 31
0.0
  0
LINE
  8
0
 62
     0
 10
1.87722
 20
3.55186
 30
0.0
 11
1.79368
 21
3.53028
 31
0.0
  0
LINE
  8
0
 62
     0
 10
1.79368
 20
3.53028
 30
0.0
 11
1.72706
 21
3.5185
 31
0.0
  0
LINE
  8
0
 62
     0
 10
1.72706
 20
3.5185
 30
0.0
 11
1.68864
 21
3.51551
 31
0.0
  0
LINE
  8
0
 62
     0
 10
1.68864
 20
3.51551
 30
0.0
 11
1.67594
 21
3.51617
 31
0.0
  0
LINE
  8
0
 62
     0
 10
1.67594
 20
3.51617
 30
0.0
 11
1.67003
 21
3.5165
 31
0.0
  0
LINE
  8
0
 62
     0
 10
1.67003
 20
3.5165
 30
0.0
 11
1.65218
 21
3.51622
 31
0.0
  0
LINE
  8
0
 62
     0
 10
1.65218
 20
3.51622
 30
0.0
 11
1.63499
 21
3.51156
 31
0.0
  0
LINE
  8
0
 62
     0
 10
1.63499
 20
3.51156
 30
0.0
 11
1.61957
 21
3.49989
 31
0.0
  0
LINE
  8
0
 62
     0
 10
1.61957
 20
3.49989
 30
0.0
 11
1.60558
 21
3.48415
 31
0.0
  0
LINE
  8
0
 62
     0
 10
1.60558
 20
3.48415
 30
0.0
 11
1.60124
 21
3.47868
 31
0.0
  0
LINE
  8
0
 62
     0
 10
1.60124
 20
3.47868
 30
0.0
 11
1.59332
 21
3.46886
 31
0.0
  0
LINE
  8
0
 62
     0
 10
1.59332
 20
3.46886
 30
0.0
 11
1.5721
 21
3.43733
 31
0.0
  0
LINE
  8
0
 62
     0
 10
1.5721
 20
3.43733
 30
0.0
 11
1.55263
 21
3.39854
 31
0.0
  0
LINE
  8
0
 62
     0
 10
1.55263
 20
3.39854
 30
0.0
 11
1.54378
 21
3.36464
 31
0.0
  0
LINE
  8
0
 62
     0
 10
1.54378
 20
3.36464
 30
0.0
 11
1.544
 21
3.34386
 31
0.0
  0
LINE
  8
0
 62
     0
 10
1.544
 20
3.34386
 30
0.0
 11
1.54633
 21
3.33778
 31
0.0
  0
LINE
  8
0
 62
     0
 10
1.54633
 20
3.33778
 30
0.0
 11
1.54938
 21
3.32975
 31
0.0
  0
LINE
  8
0
 62
     0
 10
1.54938
 20
3.32975
 30
0.0
 11
1.57232
 21
3.31082
 31
0.0
  0
LINE
  8
0
 62
     0
 10
1.57232
 20
3.31082
 30
0.0
 11
1.62657
 21
3.28717
 31
0.0
  0
LINE
  8
0
 62
     0
 10
1.62657
 20
3.28717
 30
0.0
 11
1.70589
 21
3.26796
 31
0.0
  0
LINE
  8
0
 62
     0
 10
1.70589
 20
3.26796
 30
0.0
 11
1.78174
 21
3.25657
 31
0.0
  0
LINE
  8
0
 62
     0
 10
1.78174
 20
3.25657
 30
0.0
 11
1.80718
 21
3.25407
 31
0.0
  0
LINE
  8
0
 62
     0
 10
1.80718
 20
3.25407
 30
0.0
 11
1.81506
 21
3.25331
 31
0.0
  0
LINE
  8
0
 62
     0
 10
1.81506
 20
3.25331
 30
0.0
 11
1.86751
 21
3.24821
 31
0.0
  0
LINE
  8
0
 62
     0
 10
1.86751
 20
3.24821
 30
0.0
 11
1.92285
 21
3.24289
 31
0.0
  0
LINE
  8
0
 62
     0
 10
1.92285
 20
3.24289
 30
0.0
 11
1.93218
 21
3.24197
 31
0.0
  0
LINE
  8
0
 62
     0
 10
1.93218
 20
3.24197
 30
0.0
 11
1.94146
 21
3.2411
 31
0.0
  0
LINE
  8
0
 62
     0
 10
1.94146
 20
3.2411
 30
0.0
 11
1.98281
 21
3.23475
 31
0.0
  0
LINE
  8
0
 62
     0
 10
1.98281
 20
3.23475
 30
0.0
 11
2.00814
 21
3.22771
 31
0.0
  0
LINE
  8
0
 62
     0
 10
2.00814
 20
3.22771
 30
0.0
 11
2.0095
 21
3.22646
 31
0.0
  0
LINE
  8
0
 62
     0
 10
2.0095
 20
3.22646
 30
0.0
 11
2.01303
 21
3.22314
 31
0.0
  0
LINE
  8
0
 62
     0
 10
2.01303
 20
3.22314
 30
0.0
 11
2.01742
 21
3.20096
 31
0.0
  0
LINE
  8
0
 62
     0
 10
2.01742
 20
3.20096
 30
0.0
 11
2.01992
 21
3.1511
 31
0.0
  0
LINE
  8
0
 62
     0
 10
2.01992
 20
3.1511
 30
0.0
 11
2.01699
 21
3.08708
 31
0.0
  0
LINE
  8
0
 62
     0
 10
2.01699
 20
3.08708
 30
0.0
 11
2.0115
 21
3.03586
 31
0.0
  0
LINE
  8
0
 62
     0
 10
2.0115
 20
3.03586
 30
0.0
 11
2.00879
 21
3.01893
 31
0.0
  0
LINE
  8
0
 62
     0
 10
2.00879
 20
3.01893
 30
0.0
 11
2.00537
 21
2.99832
 31
0.0
  0
LINE
  8
0
 62
     0
 10
2.00537
 20
2.99832
 30
0.0
 11
1.97999
 21
2.8904
 31
0.0
  0
LINE
  8
0
 62
     0
 10
1.97999
 20
2.8904
 30
0.0
 11
1.93864
 21
2.75944
 31
0.0
  0
LINE
  8
0
 62
     0
 10
1.93864
 20
2.75944
 30
0.0
 11
1.92731
 21
2.72726
 31
0.0
  0
LINE
  8
0
 62
     0
 10
1.92731
 20
2.72726
 30
0.0
 11
1.9209
 21
2.70921
 31
0.0
  0
LINE
  8
0
 62
     0
 10
1.9209
 20
2.70921
 30
0.0
 11
1.90246
 21
2.65451
 31
0.0
  0
LINE
  8
0
 62
     0
 10
1.90246
 20
2.65451
 30
0.0
 11
1.88444
 21
2.59565
 31
0.0
  0
LINE
  8
0
 62
     0
 10
1.88444
 20
2.59565
 30
0.0
 11
1.87337
 21
2.55171
 31
0.0
  0
LINE
  8
0
 62
     0
 10
1.87337
 20
2.55171
 30
0.0
 11
1.86968
 21
2.53054
 31
0.0
  0
LINE
  8
0
 62
     0
 10
1.86968
 20
2.53054
 30
0.0
 11
1.86968
 21
2.52349
 31
0.0
  0
LINE
  8
0
 62
     0
 10
1.86968
 20
2.52349
 30
0.0
 11
1.86968
 21
2.51736
 31
0.0
  0
LINE
  8
0
 62
     0
 10
1.86968
 20
2.51736
 30
0.0
 11
1.86524
 21
2.49892
 31
0.0
  0
LINE
  8
0
 62
     0
 10
1.86524
 20
2.49892
 30
0.0
 11
1.85661
 21
2.4751
 31
0.0
  0
LINE
  8
0
 62
     0
 10
1.85661
 20
2.4751
 30
0.0
 11
1.85454
 21
2.47092
 31
0.0
  0
LINE
  8
0
 62
     0
 10
1.85454
 20
2.47092
 30
0.0
 11
1.85243
 21
2.46679
 31
0.0
  0
LINE
  8
0
 62
     0
 10
1.85243
 20
2.46679
 30
0.0
 11
1.84771
 21
2.45307
 31
0.0
  0
LINE
  8
0
 62
     0
 10
1.84771
 20
2.45307
 30
0.0
 11
1.84028
 21
2.42676
 31
0.0
  0
LINE
  8
0
 62
     0
 10
1.84028
 20
2.42676
 30
0.0
 11
1.83322
 21
2.39556
 31
0.0
  0
LINE
  8
0
 62
     0
 10
1.83322
 20
2.39556
 30
0.0
 11
1.82861
 21
2.37121
 31
0.0
  0
LINE
  8
0
 62
     0
 10
1.82861
 20
2.37121
 30
0.0
 11
1.82736
 21
2.36301
 31
0.0
  0
LINE
  8
0
 62
     0
 10
1.82736
 20
2.36301
 30
0.0
 11
1.82607
 21
2.35476
 31
0.0
  0
LINE
  8
0
 62
     0
 10
1.82607
 20
2.35476
 30
0.0
 11
1.82113
 21
2.33003
 31
0.0
  0
LINE
  8
0
 62
     0
 10
1.82113
 20
2.33003
 30
0.0
 11
1.81304
 21
2.29747
 31
0.0
  0
LINE
  8
0
 62
     0
 10
1.81304
 20
2.29747
 30
0.0
 11
1.80419
 21
2.26915
 31
0.0
  0
LINE
  8
0
 62
     0
 10
1.80419
 20
2.26915
 30
0.0
 11
1.79824
 21
2.25358
 31
0.0
  0
LINE
  8
0
 62
     0
 10
1.79824
 20
2.25358
 30
0.0
 11
1.79563
 21
2.24869
 31
0.0
  0
LINE
  8
0
 62
     0
 10
1.79563
 20
2.24869
 30
0.0
 11
1.79292
 21
2.24365
 31
0.0
  0
LINE
  8
0
 62
     0
 10
1.79292
 20
2.24365
 30
0.0
 11
1.78168
 21
2.21397
 31
0.0
  0
LINE
  8
0
 62
     0
 10
1.78168
 20
2.21397
 30
0.0
 11
1.77593
 21
2.19006
 31
0.0
  0
LINE
  8
0
 62
     0
 10
1.77593
 20
2.19006
 30
0.0
 11
1.77593
 21
2.18201
 31
0.0
  0
LINE
  8
0
 62
     0
 10
1.77593
 20
2.18201
 30
0.0
 11
1.77593
 21
2.1735
 31
0.0
  0
LINE
  8
0
 62
     0
 10
1.77593
 20
2.1735
 30
0.0
 11
1.76676
 21
2.14794
 31
0.0
  0
LINE
  8
0
 62
     0
 10
1.76676
 20
2.14794
 30
0.0
 11
1.74468
 21
2.10471
 31
0.0
  0
LINE
  8
0
 62
     0
 10
1.74468
 20
2.10471
 30
0.0
 11
1.71767
 21
2.06581
 31
0.0
  0
LINE
  8
0
 62
     0
 10
1.71767
 20
2.06581
 30
0.0
 11
1.70036
 21
2.04731
 31
0.0
  0
LINE
  8
0
 62
     0
 10
1.70036
 20
2.04731
 30
0.0
 11
1.69385
 21
2.04471
 31
0.0
  0
LINE
  8
0
 62
     0
 10
1.69385
 20
2.04471
 30
0.0
 11
1.69151
 21
2.04378
 31
0.0
  0
LINE
  8
0
 62
     0
 10
1.69151
 20
2.04378
 30
0.0
 11
1.67301
 21
2.04178
 31
0.0
  0
LINE
  8
0
 62
     0
 10
1.67301
 20
2.04178
 30
0.0
 11
1.62885
 21
2.03874
 31
0.0
  0
LINE
  8
0
 62
     0
 10
1.62885
 20
2.03874
 30
0.0
 11
1.56782
 21
2.03597
 31
0.0
  0
LINE
  8
0
 62
     0
 10
1.56782
 20
2.03597
 30
0.0
 11
1.51421
 21
2.03418
 31
0.0
  0
LINE
  8
0
 62
     0
 10
1.51421
 20
2.03418
 30
0.0
 11
1.49636
 21
2.03375
 31
0.0
  0
LINE
  8
0
 62
     0
 10
1.49636
 20
2.03375
 30
0.0
 11
1.47862
 21
2.03336
 31
0.0
  0
LINE
  8
0
 62
     0
 10
1.47862
 20
2.03336
 30
0.0
 11
1.4254
 21
2.03162
 31
0.0
  0
LINE
  8
0
 62
     0
 10
1.4254
 20
2.03162
 30
0.0
 11
1.36578
 21
2.02886
 31
0.0
  0
LINE
  8
0
 62
     0
 10
1.36578
 20
2.02886
 30
0.0
 11
1.32362
 21
2.02588
 31
0.0
  0
LINE
  8
0
 62
     0
 10
1.32362
 20
2.02588
 30
0.0
 11
1.30675
 21
2.02393
 31
0.0
  0
LINE
  8
0
 62
     0
 10
1.30675
 20
2.02393
 30
0.0
 11
1.30534
 21
2.023
 31
0.0
  0
LINE
  8
0
 62
     0
 10
1.30534
 20
2.023
 30
0.0
 11
1.30387
 21
2.02214
 31
0.0
  0
LINE
  8
0
 62
     0
 10
1.30387
 20
2.02214
 30
0.0
 11
1.29411
 21
2.02067
 31
0.0
  0
LINE
  8
0
 62
     0
 10
1.29411
 20
2.02067
 30
0.0
 11
1.27121
 21
2.01887
 31
0.0
  0
LINE
  8
0
 62
     0
 10
1.27121
 20
2.01887
 30
0.0
 11
1.24002
 21
2.01796
 31
0.0
  0
LINE
  8
0
 62
     0
 10
1.24002
 20
2.01796
 30
0.0
 11
1.21284
 21
2.0179
 31
0.0
  0
LINE
  8
0
 62
     0
 10
1.21284
 20
2.0179
 30
0.0
 11
1.20383
 21
2.01801
 31
0.0
  0
LINE
  8
0
 62
     0
 10
1.20383
 20
2.01801
 30
0.0
 11
1.19504
 21
2.01818
 31
0.0
  0
LINE
  8
0
 62
     0
 10
1.19504
 20
2.01818
 30
0.0
 11
1.16873
 21
2.01801
 31
0.0
  0
LINE
  8
0
 62
     0
 10
1.16873
 20
2.01801
 30
0.0
 11
1.14014
 21
2.01628
 31
0.0
  0
LINE
  8
0
 62
     0
 10
1.14014
 20
2.01628
 30
0.0
 11
1.11659
 21
2.01215
 31
0.0
  0
LINE
  8
0
 62
     0
 10
1.11659
 20
2.01215
 30
0.0
 11
1.09679
 21
2.00499
 31
0.0
  0
LINE
  8
0
 62
     0
 10
1.09679
 20
2.00499
 30
0.0
 11
1.07932
 21
1.99408
 31
0.0
  0
LINE
  8
0
 62
     0
 10
1.07932
 20
1.99408
 30
0.0
 11
1.06282
 21
1.97874
 31
0.0
  0
LINE
  8
0
 62
     0
 10
1.06282
 20
1.97874
 30
0.0
 11
1.0459
 21
1.95833
 31
0.0
  0
LINE
  8
0
 62
     0
 10
1.0459
 20
1.95833
 30
0.0
 11
1.03168
 21
1.93881
 31
0.0
  0
LINE
  8
0
 62
     0
 10
1.03168
 20
1.93881
 30
0.0
 11
1.02718
 21
1.93218
 31
0.0
  0
LINE
  8
0
 62
     0
 10
1.02718
 20
1.93218
 30
0.0
 11
0.997233
 21
1.88867
 31
0.0
  0
LINE
  8
0
 62
     0
 10
0.997233
 20
1.88867
 30
0.0
 11
1.01514
 21
1.84289
 31
0.0
  0
LINE
  8
0
 62
     0
 10
1.01514
 20
1.84289
 30
0.0
 11
1.01921
 21
1.83247
 31
0.0
  0
LINE
  8
0
 62
     0
 10
1.01921
 20
1.83247
 30
0.0
 11
1.0344
 21
1.80236
 31
0.0
  0
LINE
  8
0
 62
     0
 10
1.0344
 20
1.80236
 30
0.0
 11
1.05626
 21
1.77436
 31
0.0
  0
LINE
  8
0
 62
     0
 10
1.05626
 20
1.77436
 30
0.0
 11
1.08198
 21
1.75776
 31
0.0
  0
LINE
  8
0
 62
     0
 10
1.08198
 20
1.75776
 30
0.0
 11
1.10514
 21
1.75174
 31
0.0
  0
LINE
  8
0
 62
     0
 10
1.10514
 20
1.75174
 30
0.0
 11
1.11296
 21
1.75131
 31
0.0
  0
LINE
  8
0
 62
     0
 10
1.11296
 20
1.75131
 30
0.0
 11
1.11811
 21
1.75103
 31
0.0
  0
LINE
  8
0
 62
     0
 10
1.11811
 20
1.75103
 30
0.0
 11
1.155
 21
1.74219
 31
0.0
  0
LINE
  8
0
 62
     0
 10
1.155
 20
1.74219
 30
0.0
 11
1.19602
 21
1.72657
 31
0.0
  0
LINE
  8
0
 62
     0
 10
1.19602
 20
1.72657
 30
0.0
 11
1.20329
 21
1.72293
 31
0.0
  0
LINE
  8
0
 62
     0
 10
1.20329
 20
1.72293
 30
0.0
 11
1.2105
 21
1.71929
 31
0.0
  0
LINE
  8
0
 62
     0
 10
1.2105
 20
1.71929
 30
0.0
 11
1.25483
 21
1.70236
 31
0.0
  0
LINE
  8
0
 62
     0
 10
1.25483
 20
1.70236
 30
0.0
 11
1.29818
 21
1.69086
 31
0.0
  0
LINE
  8
0
 62
     0
 10
1.29818
 20
1.69086
 30
0.0
 11
1.30496
 21
1.68994
 31
0.0
  0
LINE
  8
0
 62
     0
 10
1.30496
 20
1.68994
 30
0.0
 11
1.31169
 21
1.68907
 31
0.0
  0
LINE
  8
0
 62
     0
 10
1.31169
 20
1.68907
 30
0.0
 11
1.34554
 21
1.68218
 31
0.0
  0
LINE
  8
0
 62
     0
 10
1.34554
 20
1.68218
 30
0.0
 11
1.37147
 21
1.67415
 31
0.0
  0
LINE
  8
0
 62
     0
 10
1.37147
 20
1.67415
 30
0.0
 11
1.37424
 21
1.67264
 31
0.0
  0
LINE
  8
0
 62
     0
 10
1.37424
 20
1.67264
 30
0.0
 11
1.37701
 21
1.67117
 31
0.0
  0
LINE
  8
0
 62
     0
 10
1.37701
 20
1.67117
 30
0.0
 11
1.39936
 21
1.66368
 31
0.0
  0
LINE
  8
0
 62
     0
 10
1.39936
 20
1.66368
 30
0.0
 11
1.42637
 21
1.65767
 31
0.0
  0
LINE
  8
0
 62
     0
 10
1.42637
 20
1.65767
 30
0.0
 11
1.43147
 21
1.65696
 31
0.0
  0
LINE
  8
0
 62
     0
 10
1.43147
 20
1.65696
 30
0.0
 11
1.43658
 21
1.65631
 31
0.0
  0
LINE
  8
0
 62
     0
 10
1.43658
 20
1.65631
 30
0.0
 11
1.46989
 21
1.64507
 31
0.0
  0
LINE
  8
0
 62
     0
 10
1.46989
 20
1.64507
 30
0.0
 11
1.50456
 21
1.62739
 31
0.0
  0
LINE
  8
0
 62
     0
 10
1.50456
 20
1.62739
 30
0.0
 11
1.51031
 21
1.62343
 31
0.0
  0
LINE
  8
0
 62
     0
 10
1.51031
 20
1.62343
 30
0.0
 11
1.516
 21
1.61951
 31
0.0
  0
LINE
  8
0
 62
     0
 10
1.516
 20
1.61951
 30
0.0
 11
1.54812
 21
1.59819
 31
0.0
  0
LINE
  8
0
 62
     0
 10
1.54812
 20
1.59819
 30
0.0
 11
1.57667
 21
1.57997
 31
0.0
  0
LINE
  8
0
 62
     0
 10
1.57667
 20
1.57997
 30
0.0
 11
1.58063
 21
1.57753
 31
0.0
  0
LINE
  8
0
 62
     0
 10
1.58063
 20
1.57753
 30
0.0
 11
1.58453
 21
1.57514
 31
0.0
  0
LINE
  8
0
 62
     0
 10
1.58453
 20
1.57514
 30
0.0
 11
1.60775
 21
1.55501
 31
0.0
  0
LINE
  8
0
 62
     0
 10
1.60775
 20
1.55501
 30
0.0
 11
1.62944
 21
1.52994
 31
0.0
  0
LINE
  8
0
 62
     0
 10
1.62944
 20
1.52994
 30
0.0
 11
1.63271
 21
1.52512
 31
0.0
  0
LINE
  8
0
 62
     0
 10
1.63271
 20
1.52512
 30
0.0
 11
1.63574
 21
1.52056
 31
0.0
  0
LINE
  8
0
 62
     0
 10
1.63574
 20
1.52056
 30
0.0
 11
1.64501
 21
1.50678
 31
0.0
  0
LINE
  8
0
 62
     0
 10
1.64501
 20
1.50678
 30
0.0
 11
1.66135
 21
1.48275
 31
0.0
  0
LINE
  8
0
 62
     0
 10
1.66135
 20
1.48275
 30
0.0
 11
1.67947
 21
1.45606
 31
0.0
  0
LINE
  8
0
 62
     0
 10
1.67947
 20
1.45606
 30
0.0
 11
1.69288
 21
1.43647
 31
0.0
  0
LINE
  8
0
 62
     0
 10
1.69288
 20
1.43647
 30
0.0
 11
1.69737
 21
1.4299
 31
0.0
  0
LINE
  8
0
 62
     0
 10
1.69737
 20
1.4299
 30
0.0
 11
1.70269
 21
1.4221
 31
0.0
  0
LINE
  8
0
 62
     0
 10
1.70269
 20
1.4221
 30
0.0
 11
1.71789
 21
1.39794
 31
0.0
  0
LINE
  8
0
 62
     0
 10
1.71789
 20
1.39794
 30
0.0
 11
1.73025
 21
1.37267
 31
0.0
  0
LINE
  8
0
 62
     0
 10
1.73025
 20
1.37267
 30
0.0
 11
1.73606
 21
1.34977
 31
0.0
  0
LINE
  8
0
 62
     0
 10
1.73606
 20
1.34977
 30
0.0
 11
1.73725
 21
1.33105
 31
0.0
  0
LINE
  8
0
 62
     0
 10
1.73725
 20
1.33105
 30
0.0
 11
1.73708
 21
1.32482
 31
0.0
  0
LINE
  8
0
 62
     0
 10
1.73708
 20
1.32482
 30
0.0
 11
1.7366
 21
1.31022
 31
0.0
  0
LINE
  8
0
 62
     0
 10
1.7366
 20
1.31022
 30
0.0
 11
1.73112
 21
1.26595
 31
0.0
  0
LINE
  8
0
 62
     0
 10
1.73112
 20
1.26595
 30
0.0
 11
1.71847
 21
1.18973
 31
0.0
  0
LINE
  8
0
 62
     0
 10
1.71847
 20
1.18973
 30
0.0
 11
1.70281
 21
1.11534
 31
0.0
  0
LINE
  8
0
 62
     0
 10
1.70281
 20
1.11534
 30
0.0
 11
1.69222
 21
1.07416
 31
0.0
  0
LINE
  8
0
 62
     0
 10
1.69222
 20
1.07416
 30
0.0
 11
1.68772
 21
1.06201
 31
0.0
  0
LINE
  8
0
 62
     0
 10
1.68772
 20
1.06201
 30
0.0
 11
1.68571
 21
1.0568
 31
0.0
  0
LINE
  8
0
 62
     0
 10
1.68571
 20
1.0568
 30
0.0
 11
1.67996
 21
1.03993
 31
0.0
  0
LINE
  8
0
 62
     0
 10
1.67996
 20
1.03993
 30
0.0
 11
1.66949
 21
1.00776
 31
0.0
  0
LINE
  8
0
 62
     0
 10
1.66949
 20
1.00776
 30
0.0
 11
1.65767
 21
0.969781
 31
0.0
  0
LINE
  8
0
 62
     0
 10
1.65767
 20
0.969781
 30
0.0
 11
1.64871
 21
0.940267
 31
0.0
  0
LINE
  8
0
 62
     0
 10
1.64871
 20
0.940267
 30
0.0
 11
1.64583
 21
0.930393
 31
0.0
  0
LINE
  8
0
 62
     0
 10
1.64583
 20
0.930393
 30
0.0
 11
1.63949
 21
0.908908
 31
0.0
  0
LINE
  8
0
 62
     0
 10
1.63949
 20
0.908908
 30
0.0
 11
1.61914
 21
0.844726
 31
0.0
  0
LINE
  8
0
 62
     0
 10
1.61914
 20
0.844726
 30
0.0
 11
1.5925
 21
0.767036
 31
0.0
  0
LINE
  8
0
 62
     0
 10
1.5925
 20
0.767036
 30
0.0
 11
1.56885
 21
0.705567
 31
0.0
  0
LINE
  8
0
 62
     0
 10
1.56885
 20
0.705567
 30
0.0
 11
1.55572
 21
0.67589
 31
0.0
  0
LINE
  8
0
 62
     0
 10
1.55572
 20
0.67589
 30
0.0
 11
1.55117
 21
0.668457
 31
0.0
  0
LINE
  8
0
 62
     0
 10
1.55117
 20
0.668457
 30
0.0
 11
1.54921
 21
0.665419
 31
0.0
  0
LINE
  8
0
 62
     0
 10
1.54921
 20
0.665419
 30
0.0
 11
1.537
 21
0.634765
 31
0.0
  0
LINE
  8
0
 62
     0
 10
1.537
 20
0.634765
 30
0.0
 11
1.52453
 21
0.593533
 31
0.0
  0
LINE
  8
0
 62
     0
 10
1.52453
 20
0.593533
 30
0.0
 11
1.52251
 21
0.585124
 31
0.0
  0
LINE
  8
0
 62
     0
 10
1.52251
 20
0.585124
 30
0.0
 11
1.52046
 21
0.576768
 31
0.0
  0
LINE
  8
0
 62
     0
 10
1.52046
 20
0.576768
 30
0.0
 11
1.51411
 21
0.551594
 31
0.0
  0
LINE
  8
0
 62
     0
 10
1.51411
 20
0.551594
 30
0.0
 11
1.50222
 21
0.505371
 31
0.0
  0
LINE
  8
0
 62
     0
 10
1.50222
 20
0.505371
 30
0.0
 11
1.48839
 21
0.452528
 31
0.0
  0
LINE
  8
0
 62
     0
 10
1.48839
 20
0.452528
 30
0.0
 11
1.47781
 21
0.412489
 31
0.0
  0
LINE
  8
0
 62
     0
 10
1.47781
 20
0.412489
 30
0.0
 11
1.47428
 21
0.399143
 31
0.0
  0
LINE
  8
0
 62
     0
 10
1.47428
 20
0.399143
 30
0.0
 11
1.47076
 21
0.386014
 31
0.0
  0
LINE
  8
0
 62
     0
 10
1.47076
 20
0.386014
 30
0.0
 11
1.46029
 21
0.346462
 31
0.0
  0
LINE
  8
0
 62
     0
 10
1.46029
 20
0.346462
 30
0.0
 11
1.44689
 21
0.295301
 31
0.0
  0
LINE
  8
0
 62
     0
 10
1.44689
 20
0.295301
 30
0.0
 11
1.43554
 21
0.251628
 31
0.0
  0
LINE
  8
0
 62
     0
 10
1.43554
 20
0.251628
 30
0.0
 11
1.42969
 21
0.228461
 31
0.0
  0
LINE
  8
0
 62
     0
 10
1.42969
 20
0.228461
 30
0.0
 11
1.4279
 21
0.221137
 31
0.0
  0
LINE
  8
0
 62
     0
 10
1.4279
 20
0.221137
 30
0.0
 11
1.42611
 21
0.213867
 31
0.0
  0
LINE
  8
0
 62
     0
 10
1.42611
 20
0.213867
 30
0.0
 11
1.41357
 21
0.176378
 31
0.0
  0
LINE
  8
0
 62
     0
 10
1.41357
 20
0.176378
 30
0.0
 11
1.3999
 21
0.146701
 31
0.0
  0
LINE
  8
0
 62
     0
 10
1.3999
 20
0.146701
 30
0.0
 11
1.39751
 21
0.143283
 31
0.0
  0
LINE
  8
0
 62
     0
 10
1.39751
 20
0.143283
 30
0.0
 11
1.39507
 21
0.139865
 31
0.0
  0
LINE
  8
0
 62
     0
 10
1.39507
 20
0.139865
 30
0.0
 11
1.3852
 21
0.117622
 31
0.0
  0
LINE
  8
0
 62
     0
 10
1.3852
 20
0.117622
 30
0.0
 11
1.3801
 21
0.0974393
 31
0.0
  0
LINE
  8
0
 62
     0
 10
1.3801
 20
0.0974393
 30
0.0
 11
1.3801
 21
0.0906575
 31
0.0
  0
LINE
  8
0
 62
     0
 10
1.3801
 20
0.0906575
 30
0.0
 11
1.3801
 21
0.0857747
 31
0.0
  0
LINE
  8
0
 62
     0
 10
1.3801
 20
0.0857747
 30
0.0
 11
1.37706
 21
0.0710721
 31
0.0
  0
LINE
  8
0
 62
     0
 10
1.37706
 20
0.0710721
 30
0.0
 11
1.36475
 21
0.0585394
 31
0.0
  0
LINE
  8
0
 62
     0
 10
1.36475
 20
0.0585394
 30
0.0
 11
1.33838
 21
0.05051
 31
0.0
  0
LINE
  8
0
 62
     0
 10
1.33838
 20
0.05051
 30
0.0
 11
1.30447
 21
0.0455729
 31
0.0
  0
LINE
  8
0
 62
     0
 10
1.30447
 20
0.0455729
 30
0.0
 11
1.29313
 21
0.0443251
 31
0.0
  0
LINE
  8
0
 62
     0
 10
1.29313
 20
0.0443251
 30
0.0
 11
1.28103
 21
0.0430772
 31
0.0
  0
LINE
  8
0
 62
     0
 10
1.28103
 20
0.0430772
 30
0.0
 11
1.2449
 21
0.038954
 31
0.0
  0
LINE
  8
0
 62
     0
 10
1.2449
 20
0.038954
 30
0.0
 11
1.21012
 21
0.0345053
 31
0.0
  0
LINE
  8
0
 62
     0
 10
1.21012
 20
0.0345053
 30
0.0
 11
1.18392
 21
0.030165
 31
0.0
  0
LINE
  8
0
 62
     0
 10
1.18392
 20
0.030165
 30
0.0
 11
1.16694
 21
0.0266928
 31
0.0
  0
LINE
  8
0
 62
     0
 10
1.16694
 20
0.0266928
 30
0.0
 11
1.16135
 21
0.0253364
 31
0.0
  0
LINE
  8
0
 62
     0
 10
1.16135
 20
0.0253364
 30
0.0
 11
1.15777
 21
0.0245226
 31
0.0
  0
LINE
  8
0
 62
     0
 10
1.15777
 20
0.0245226
 30
0.0
 11
1.12408
 21
0.0225151
 31
0.0
  0
LINE
  8
0
 62
     0
 10
1.12408
 20
0.0225151
 30
0.0
 11
1.04194
 21
0.0193143
 31
0.0
  0
LINE
  8
0
 62
     0
 10
1.04194
 20
0.0193143
 30
0.0
 11
0.927083
 21
0.0161133
 31
0.0
  0
LINE
  8
0
 62
     0
 10
0.927083
 20
0.0161133
 30
0.0
 11
0.825412
 21
0.0139974
 31
0.0
  0
LINE
  8
0
 62
     0
 10
0.825412
 20
0.0139974
 30
0.0
 11
0.791558
 21
0.0134006
 31
0.0
  0
LINE
  8
0
 62
     0
 10
0.791558
 20
0.0134006
 30
0.0
 11
0.756619
 21
0.0128581
 31
0.0
  0
LINE
  8
0
 62
     0
 10
0.756619
 20
0.0128581
 30
0.0
 11
0.65191
 21
0.0110677
 31
0.0
  0
LINE
  8
0
 62
     0
 10
0.65191
 20
0.0110677
 30
0.0
 11
0.525825
 21
0.00873481
 31
0.0
  0
LINE
  8
0
 62
     0
 10
0.525825
 20
0.00873481
 30
0.0
 11
0.427138
 21
0.00678168
 31
0.0
  0
LINE
  8
0
 62
     0
 10
0.427138
 20
0.00678168
 30
0.0
 11
0.380425
 21
0.00569661
 31
0.0
  0
LINE
  8
0
 62
     0
 10
0.380425
 20
0.00569661
 30
0.0
 11
0.369683
 21
0.0053711
 31
0.0
  0
LINE
  8
0
 62
     0
 10
0.369683
 20
0.0053711
 30
0.0
 11
0.358942
 21
0.00504557
 31
0.0
  0
LINE
  8
0
 62
     0
 10
0.358942
 20
0.00504557
 30
0.0
 11
0.307075
 21
0.00482856
 31
0.0
  0
LINE
  8
0
 62
     0
 10
0.307075
 20
0.00482856
 30
0.0
 11
0.269749
 21
0.00623915
 31
0.0
  0
LINE
  8
0
 62
     0
 10
0.269749
 20
0.00623915
 30
0.0
 11
0.266276
 21
0.00672743
 31
0.0
  0
ENDSEC
  0
EOF
