<?xml version="1.0" encoding="UTF-8" standalone="no"?>
<!-- Created with Inkscape (http://www.inkscape.org/) -->

<svg
   xmlns:dc="http://purl.org/dc/elements/1.1/"
   xmlns:cc="http://creativecommons.org/ns#"
   xmlns:rdf="http://www.w3.org/1999/02/22-rdf-syntax-ns#"
   xmlns:svg="http://www.w3.org/2000/svg"
   xmlns="http://www.w3.org/2000/svg"
   xmlns:sodipodi="http://sodipodi.sourceforge.net/DTD/sodipodi-0.dtd"
   xmlns:inkscape="http://www.inkscape.org/namespaces/inkscape"
   id="svg2"
   version="1.1"
   inkscape:version="0.91 r13725"
   width="250.38351"
   height="640.88422"
   viewBox="0 0 250.38351 640.88422"
   sodipodi:docname="AB-V14.svg">
  <metadata
     id="metadata8">
    <rdf:RDF>
      <cc:Work
         rdf:about="">
        <dc:format>image/svg+xml</dc:format>
        <dc:type
           rdf:resource="http://purl.org/dc/dcmitype/StillImage" />
        <dc:title></dc:title>
      </cc:Work>
    </rdf:RDF>
  </metadata>
  <defs
     id="defs6" />
  <sodipodi:namedview
     pagecolor="#ffffff"
     bordercolor="#666666"
     borderopacity="1"
     objecttolerance="10"
     gridtolerance="10"
     guidetolerance="10"
     inkscape:pageopacity="0"
     inkscape:pageshadow="2"
     inkscape:window-width="3742"
     inkscape:window-height="2124"
     id="namedview4"
     showgrid="false"
     fit-margin-top="0"
     fit-margin-left="0"
     fit-margin-right="0"
     fit-margin-bottom="0"
     inkscape:zoom="1.18"
     inkscape:cx="-711.7804"
     inkscape:cy="426.41952"
     inkscape:window-x="98"
     inkscape:window-y="36"
     inkscape:window-maximized="1"
     inkscape:current-layer="svg2" />
  <path
     style="fill:#000000"
     d="m 25.564118,640.68766 c -1.33466,-0.19665 -3.35966,-0.94067 -4.5,-1.65339 -1.14033,-0.71272 -3.64834,-1.79594 -5.57334,-2.40716 -1.925,-0.61122 -5.45888,-2.80182 -7.8530598,-4.868 -3.62843,-3.13132 -4.43863,-4.49737 -4.86703,-8.20609 -0.28267,-2.44717 -1.09656,-6.10071 -1.80864995,-8.11896 -1.66837,-4.72867 -1.13945,-12.01618 1.37422995,-18.9344 1.09594,-3.01628 2.2648,-7.91381 2.59747,-10.88341 0.37658,-3.36153 2.00808,-8.07916 4.32288,-12.5 6.8331298,-13.05002 7.7700698,-13.57934 26.7341568,-15.10319 4.4,-0.35356 8.78364,-0.86424 9.74142,-1.13485 0.95779,-0.27061 2.98279,-0.71605 4.5,-0.98985 3.39221,-0.61219 19.18362,-10.23503 20.63176,-12.57241 0.78262,-1.26321 0.48684,-3.45735 -1.15202,-8.54583 l -2.20498,-6.84627 -7.75809,-3.73332 c -6.65669,-3.20331 -8.94512,-3.78554 -16.11936,-4.10115 -11.08113,-0.48748 -11.55781,-0.99858 -11.48145,-12.31051 0.18127,-26.85312 1.10142,-35.60752 4.20017,-39.96118 1.09696,-1.54119 2.23125,-5.05217 2.52065,-7.80217 0.91225,-8.66857 4.52072,-22.82473 7.00987,-27.5 1.31771,-2.475 2.64056,-6.59729 2.93966,-9.16065 0.2991,-2.56335 0.98363,-5.48835 1.52119,-6.5 0.53755,-1.01164 2.2001,-4.47904 3.69456,-7.70532 3.459,-7.46741 8.12541,-12.3174 12.55087,-13.04463 1.87316,-0.30782 7.45575,-0.77243 12.40575,-1.03248 4.95,-0.26005 10.63641,-0.94878 12.63646,-1.53052 3.42091,-0.99501 8.682545,-1.75386 13.472755,-1.94308 2.75442,-0.10881 11.31648,-7.67697 12.8729,-11.3786 0.7575,-1.80157 0.94348,-4.37737 0.49365,-6.83726 -0.85052,-4.65115 -0.98219,-4.81973 -4.22359,-5.40751 -1.37127,-0.24866 -5.45118,-1.56548 -9.06648,-2.92628 -3.6153,-1.36079 -7.611075,-2.66361 -8.879485,-2.89516 -9.43793,-1.72285 -18.88849,-6.02876 -20.67466,-9.41989 -1.51582,-2.87785 -0.4617,-14.34743 1.7663,-19.21862 1.13202,-2.475 2.06811,-5.41237 2.08019,-6.52749 0.0121,-1.11513 0.68797,-2.97836 1.50199,-4.14053 1.33466,-1.9055 1.28235,-2.36435 -0.53264,-4.67173 -2.04507,-2.59988 -2.73484,-7.01744 -3.30405,-21.16025 -0.42952,-10.67214 0.35495,-12.4702 7.43534,-17.04221 7.23608,-4.67254 9.92905,-8.09656 10.66123,-13.55536 0.4591,-3.42285 0.12868,-4.43015 -2.27681,-6.94094 -2.85924,-2.98441 -3.94684,-7.95929 -2.40376,-10.99524 0.42875,-0.84356 1.07705,-3.52837 1.44066,-5.96625 0.92038,-6.17091 1.6975,-7.34905 11.401965,-17.28586 4.71924,-4.83223 8.88748,-9.61591 9.26277,-10.6304 0.43341,-1.17164 -0.14941,-3.07378 -1.59765,-5.21414 -1.25399,-1.85328 -2.12241,-4.3821 -1.92981,-5.6196 0.20127,-1.29322 -0.1787,-2.2787 -0.89354,-2.3175 -8.793625,-0.47721 -12.088665,-1.31979 -19.274235,-4.92864 -6.13833,-3.08289 -8.47275,-4.85442 -9.90747,-7.51853 -1.92317,-3.57111 -3.38268,-4.26468 -5.18392,-2.46344 -1.35805,1.35805 -13.46526,-4.69271 -19.18333,-9.58716 -2.44662,-2.09421 -5.59985,-6.29567 -7.35519,-9.80024 -1.68992,-3.37397 -4.66619,-8.09691 -6.61394,-10.49543 -2.69031,-3.31293 -3.50929,-5.2141 -3.40791,-7.91107 0.18443,-4.90577 1.88673,-9.65057 4.21991,-11.76206 1.07929,-0.97675 1.96235,-2.41049 1.96235,-3.18609 0,-1.48898 10.44612,-12.27984 11.88753,-12.27984 0.46352,0 2.02728,-0.93175 3.47504,-2.07055 2.17358,-1.70975 2.44824,-2.41444 1.57614,-4.04398 -0.58088,-1.08538 -1.312,-4.06254 -1.62471,-6.61591 -0.31271,-2.55337 -1.63629,-6.65061 -2.94128,-9.104973 -1.305,-2.45436 -2.37272,-5.54534 -2.37272,-6.86885 0,-1.32352 -1.575,-5.37431 -3.5,-9.00177 -1.925,-3.62746 -3.5,-7.09334 -3.5,-7.70195 0,-1.65556 -7.73935,-6.00935 -14.41461,-8.10898 -3.69981,-1.16373 -7.155977,-3.12029 -9.301097,-5.26542 -1.87746,-1.87746 -4.17197,-3.52213 -5.09892,-3.65482 -2.72127,-0.38955 -3.93185,-4.11638 -3.35557,-10.33027 0.29239,-3.15289 0.50916,-13.48521 0.48171,-22.96071 -0.0275,-9.47552 0.2933,-17.0160685 0.71281,-16.7568085 0.4195,0.25927 2.72314,-0.22553 5.11921,-1.07732 5.54709,-1.97198 15.653247,-4.10961 23.356467,-4.9403 3.3,-0.35585 7.01524,-0.80905 8.25608,-1.00709 16.62014,-2.65260999 97.419145,-2.68209999 114.322935,-0.0417 1.33155,0.20799 5.10521,0.6866 8.38593,1.0636 3.28072,0.37699 6.88072,0.87412 8,1.10473 1.11928,0.23061 3.61006,0.67581 5.53506,0.98933 1.925,0.31353 5.91279,1.54288 8.86176,2.7319 l 5.36177,2.1618505 0.39078,24.500008 c 0.21492,13.475 0.58277,26.525 0.81743,29 1.27376,13.43455 1.69858,23.01404 1.10372,24.88828 -0.85116,2.68178 -3.95916,4.3524 -8.77671,4.71769 -2.07645,0.15745 -4.23613,0.57103 -4.79929,0.91908 -0.56315,0.34805 -3.30872,0.82753 -6.10126,1.06551 -6.22862,0.53081 -6.56219,0.71451 -13.44559,7.404743 -8.17569,7.94626 -8.1827,7.98141 -2.88723,14.48282 2.4985,3.06748 5.01574,6.6154 5.59388,7.88428 1.35155,2.96632 5.53623,5.50493 14.31128,8.68181 6.91285,2.5027 7.04928,2.62128 8.3616,7.26766 1.48918,5.27258 5.61059,10.06273 8.81424,10.24445 3.78415,0.21464 5.19434,1.25986 5.87384,4.35364 0.82303,3.74721 -0.0309,6.70365 -2.17385,7.52597 -0.88963,0.34138 -4.36,0.84379 -7.71194,1.11646 -11.34813,0.92315 -12.52905,1.9514 -13.34375,11.61863 -0.41254,4.89532 -0.0786,6.55892 2.18583,10.88959 1.47002,2.81136 2.4869,5.63532 2.25973,6.27548 -0.52785,1.48745 5.86338,14.45089 8.5854,17.41391 1.13684,1.2375 2.91813,2.25 3.95842,2.25 1.04028,0 2.82581,0.50007 3.96784,1.11126 1.14203,0.6112 6.62494,1.33121 12.18426,1.60003 16.76566,0.81071 18.22923,2.21397 25.07714,24.04402 5.15434,16.4312 5.13196,16.5572 -4.54205,25.571 -4.44001,4.13701 -9.95251,8.47705 -12.25,9.64455 -6.14294,3.12161 -11.35538,6.38694 -13.91669,8.71812 -6.23614,5.67581 -14.98196,10.37418 -26.26056,14.10752 -14.25824,4.71962 -23.49728,6.77352 -29.09984,6.46909 -3.66631,-0.19922 -4.42459,0.18134 -7.17101,3.59889 -4.31407,5.36829 -6.36779,10.64066 -5.26976,13.5287 1.37777,3.62382 10.8138,6.65197 25.04061,8.03587 3.025,0.29426 8.425,0.81685 12,1.16133 3.575,0.34448 6.91421,1.01427 7.42046,1.48843 1.36351,1.27707 1.32849,11.37681 -0.0691,19.92119 -1.2953,7.91919 -3.45834,15.66224 -7.82188,28 -3.59556,10.1664 -5.52948,17.00892 -5.52948,19.56427 0,1.17064 -0.6542,3.43981 -1.45378,5.0426 -0.79957,1.60279 -1.97371,6.26523 -2.60919,10.36098 -0.63547,4.09576 -2.00627,9.03436 -3.04622,10.97467 -1.03995,1.94031 -1.89081,4.82164 -1.89081,6.40296 0,3.20655 -5.37129,12.18911 -7.88188,13.18108 -0.88997,0.35164 -9.41992,0.82474 -18.95544,1.05133 -9.53553,0.2266 -17.78795,0.6905 -18.33871,1.03089 -0.55077,0.34038 -4.93608,0.55609 -9.74514,0.47934 -9.92798,-0.15845 -11.81217,0.75703 -16.961345,8.2411 l -2.87425,4.17758 1.71725,4.39213 c 2.36813,6.05685 5.045235,8.56276 9.392695,8.79207 1.99183,0.10506 5.89338,1.33211 8.67012,2.72679 2.77674,1.39468 7.16994,2.81999 9.76266,3.16735 2.59272,0.34737 5.58552,1.09359 6.65067,1.65827 1.06514,0.56468 3.5385,1.24257 5.49635,1.50641 1.95784,0.26385 5.36136,1.71131 7.56337,3.21658 2.20201,1.50527 5.24117,3.48901 6.7537,4.40831 1.51253,0.91929 3.76253,3.18419 5,5.0331 1.23747,1.84891 4.03025,5.96242 6.20618,9.14112 3.22133,4.70588 3.93013,6.57973 3.81571,10.08752 -0.18271,5.60149 -2.99914,20.57861 -4.74391,25.22703 -0.75073,2.00008 -2.56021,7.6865 -4.02107,12.6365 -3.28835,11.14223 -7.32109,22.30326 -9.08676,25.14849 -0.73331,1.18168 -1.97163,4.78168 -2.75183,8 -0.7802,3.21833 -2.86179,11.25151 -4.62575,17.85151 -1.76397,6.6 -3.76944,14.29079 -4.45659,17.09063 -0.68716,2.79985 -2.00012,6.16248 -2.9177,7.47251 -0.91758,1.31003 -1.66833,3.5836 -1.66833,5.05238 0,3.0688 -1.14225,3.67736 -8.34794,4.44759 -7.24262,0.77417 -9.78575,1.14049 -12.65206,1.8224 -1.375,0.32712 -17.350005,0.84162 -35.500005,1.14333 -18.15,0.30171 -36.375,0.65033 -40.5,0.7747 -4.125,0.12438 -8.591997,0.0652 -9.926657,-0.1314 z"
     id="path4138"
     inkscape:connector-curvature="0" />
</svg>
