<?xml version="1.0" encoding="UTF-8" standalone="no"?>
<!-- Created with Inkscape (http://www.inkscape.org/) -->

<svg
   xmlns:dc="http://purl.org/dc/elements/1.1/"
   xmlns:cc="http://creativecommons.org/ns#"
   xmlns:rdf="http://www.w3.org/1999/02/22-rdf-syntax-ns#"
   xmlns:svg="http://www.w3.org/2000/svg"
   xmlns="http://www.w3.org/2000/svg"
   xmlns:sodipodi="http://sodipodi.sourceforge.net/DTD/sodipodi-0.dtd"
   xmlns:inkscape="http://www.inkscape.org/namespaces/inkscape"
   id="svg2"
   version="1.1"
   inkscape:version="0.48.4 r9939"
   width="149.89513"
   height="514.04669"
   sodipodi:docname="ABUS_C83.svg">
  <metadata
     id="metadata8">
    <rdf:RDF>
      <cc:Work
         rdf:about="">
        <dc:format>image/svg+xml</dc:format>
        <dc:type
           rdf:resource="http://purl.org/dc/dcmitype/StillImage" />
        <dc:title />
      </cc:Work>
    </rdf:RDF>
  </metadata>
  <defs
     id="defs6" />
  <sodipodi:namedview
     pagecolor="#ffffff"
     bordercolor="#666666"
     borderopacity="1"
     objecttolerance="10"
     gridtolerance="10"
     guidetolerance="10"
     inkscape:pageopacity="0"
     inkscape:pageshadow="2"
     inkscape:window-width="1855"
     inkscape:window-height="1056"
     id="namedview4"
     showgrid="false"
     inkscape:zoom="1.1835262"
     inkscape:cx="74.520941"
     inkscape:cy="256.86875"
     inkscape:window-x="65"
     inkscape:window-y="24"
     inkscape:window-maximized="1"
     inkscape:current-layer="svg2"
     fit-margin-top="0"
     fit-margin-left="0"
     fit-margin-right="0"
     fit-margin-bottom="0" />
  <path
     style="fill:#000000"
     d="m 25.217961,512.86798 c 2.46969,-5.65143 8.01099,-19.59191 10.21174,-25.69006 1.48865,-4.125 3.63253,-9.525 4.76415,-12 1.13163,-2.475 2.22863,-5.98862 2.43777,-7.80804 0.20914,-1.81942 1.6974,-5.25968 3.30725,-7.64502 1.60985,-2.38534 2.927,-4.99221 2.927,-5.79303 0,-1.69829 4.53639,-10.53073 6.59093,-12.83265 0.77499,-0.86831 1.40907,-2.74434 1.40907,-4.16896 0,-2.58489 2.42098,-7.97743 4.70751,-10.48561 0.66413,-0.72851 0.97095,-1.94103 0.68183,-2.69448 -0.28913,-0.75345 -0.0647,-1.65484 0.49881,-2.00308 0.56348,-0.34825 0.77101,-1.29377 0.46119,-2.10116 -0.30983,-0.80738 -0.12269,-1.46797 0.41586,-1.46797 0.88617,0 1.77594,-3.55389 2.82598,-11.28738 0.20816,-1.53306 0.81219,-3.59781 1.3423,-4.58833 0.96382,-1.80091 0.45393,-5.73984 -0.98696,-7.62429 -0.42054,-0.55 -1.70514,-3.79709 -2.85466,-7.21576 -1.93501,-5.7547 -7.63351,-13.28424 -10.05376,-13.28424 -0.49238,0 -1.63497,-0.73973 -2.53908,-1.64384 -2.5687,-2.5687 -8.45231,-6.35616 -9.87395,-6.35616 -0.70736,0 -3.49988,-1.12312 -6.20559,-2.49581 -2.70571,-1.3727 -5.62213,-2.4977 -6.48092,-2.5 -0.85879,-0.002 -2.44697,-0.82919 -3.5293,-1.83753 -1.08232,-1.00834 -3.55728,-2.09127 -5.49991,-2.40652 -4.67809,-0.75915 -12.9093503,-6.35764 -12.9093503,-8.7803 0,-1.03316 -1.37347,-3.16209 -3.05215,-4.73095 -2.72985,-2.55126 -3.09286999,-3.58621 -3.43775999,-9.80069 -0.90172,-16.24806 -0.0853,-40.80534 1.42792999,-42.9482 0.38838,-0.55 0.40037,-6.85 0.0266,-14 -0.37373,-7.15 -0.27705,-20.44767 0.21483,-29.55037 0.49189,-9.10271 1.0453,-21.47771 1.2298,-27.5 0.1845,-6.0223 0.64499,-13.19963 1.0233,-15.94963 0.37832,-2.75 0.63639,-7.56144 0.57349,-10.69209 -0.14559,-7.24658 1.53054,-13.50158 4.03751,-15.06721 1.07602,-0.67199 1.9564003,-1.78855 1.9564003,-2.48125 0,-0.6927 0.7875,-1.27376 1.75,-1.29125 0.9625,-0.0175 2.62351,-0.6925 3.69113,-1.5 1.06762,-0.80751 2.70074,-1.4682 3.62916,-1.4682 3.29618,0 28.85794,-12.15823 31.3491,-14.91092 1.03093,-1.13917 3.94582,-3.27954 6.47752,-4.75638 6.28702,-3.66746 21.10309,-16.23464 21.10309,-17.89991 0,-0.74352 1.0975,-2.38256 2.43889,-3.64232 2.24894,-2.11208 2.41648,-2.91355 2.15111,-10.29047 -0.15827,-4.4 -0.80583,-10.21056 -1.43902,-12.91236 -1.21581,-5.18788 -5.62088,-13.587638 -7.12575,-13.587638 -0.48975,0 -1.15942,-0.84744 -1.48816,-1.8832 -0.97316,-3.06615 -10.0919,-12.1168 -12.20796,-12.1168 -1.07359,0 -2.89849,-0.8818 -4.05532,-1.95956 -1.15684,-1.07776 -3.37919,-2.277715 -4.93857,-2.666575 -1.55937,-0.38887 -4.81474,-1.75707 -7.23416,-3.04045 -2.41941,-1.28338 -5.42011,-2.33342 -6.66821,-2.33342 -3.20536,0 -5.43285,-1.00431 -5.43285,-2.449514 0,-1.635243 -5.29556,-4.194005 -11.5,-5.556682 -2.75,-0.603981 -6.53704,-2.361411 -8.41564,-3.9054 -2.78669,-2.290337 -3.4751203,-3.615712 -3.7386803,-7.197826 -0.17767,-2.414816 -0.80469,-9.340574 -1.39337,-15.390574 -0.58868,-6.05 -0.93128,-15.05 -0.76132,-19.999999 l 0.30901,-9.0000002 6.0000003,-1.10851 c 13.9673,-2.580483 34.71608,-4.18904598 58.5,-4.53525198 19.60293,-0.285346 51.002219,1.26760798 55.999999,2.76966398 2.475,0.743847 6.21545,1.35732 8.3121,1.363274 2.09666,0.006 6.04075,0.739777 8.76465,1.63072 l 4.95255,1.619897 -0.10846,87.1301072 c -0.0769,61.782478 -0.44525,88.730138 -1.26618,92.630098 -1.08865,5.17185 -3.59081,9.18292 -8.05494,12.91243 -1.04516,0.87316 -2.73266,2.37507 -3.75,3.33757 -1.01735,0.9625 -2.2742,1.75 -2.79302,1.75 -0.51881,0 -1.53131,0.80408 -2.25,1.78684 -1.7042,2.33039 -11.35935,7.00458 -15.73001,7.61512 -1.88282,0.263 -4.58282,1.33197 -6,2.37547 -1.41718,1.0435 -4.48016,2.19934 -6.80663,2.56853 -4.643779,0.73693 -12.054409,4.49888 -16.846499,8.552 -1.69204,1.43112 -4.62783,3.80827 -6.52398,5.28254 -1.89615,1.47428 -4.06391,4.39928 -4.81725,6.5 -0.75335,2.10073 -2.38633,6.0695 -3.62887,8.8195 -3.75333,8.30696 -4.45346,11.43965 -4.45346,19.92672 0,5.63332 0.46384,8.7905 1.51115,10.28574 0.83114,1.18661 6.12226,6.15496 11.75806,11.04079 19.05355,16.51803 21.541839,18.872 30.730789,29.07184 4.125,4.5788 7.83865,9.23361 8.25256,10.34402 0.4139,1.11042 2.3264,3.85763 4.25,6.10491 1.92359,2.24729 3.49744,5.07488 3.49744,6.28353 0,1.20866 0.675,2.75776 1.5,3.44245 0.825,0.68469 1.5,2.11153 1.5,3.17075 0,1.05922 0.9,3.78865 2,6.06539 1.1,2.27673 2.00277,4.6175 2.00616,5.20169 0.003,0.58419 0.60186,2.20361 1.32995,3.5987 0.72808,1.39508 1.38642,4.09508 1.46299,6 0.0766,1.90491 0.59863,5.86388 1.16015,8.79772 0.69626,3.63788 0.69488,5.94349 -0.004,7.25 -0.70185,1.31143 -0.69873,2.52591 0.01,3.85001 2.35419,4.39886 0.50628,23.63079 -2.89817,30.16238 -1.13666,2.18072 -2.06665,4.6322 -2.06665,5.44772 0,0.81553 -0.39506,2.26417 -0.87792,3.21921 -0.48285,0.95504 -1.59756,3.31143 -2.47714,5.23643 -0.87957,1.925 -2.79081,5.52482 -4.2472,7.99959 -1.45638,2.47478 -2.7487,4.94978 -2.87182,5.5 -0.12311,0.55023 -0.46541,1.67541 -0.76067,2.50041 -0.29526,0.825 -1.08629,3.525 -1.75783,6 -0.67155,2.475 -2.11102,6.3 -3.19883,8.5 -1.93384,3.91104 -5.39044,13.01676 -6.45333,17 -0.59389,2.22562 -2.91941,7.67673 -4.90607,11.5 -3.52873,6.79095 -5.462479,10.9909 -7.448979,16.17852 l -2.17447,5.67852 -35.49686,0.0115 c -27.07217,0.009 -35.37342,-0.27091 -34.97679,-1.17852 z"
     id="path2987"
     inkscape:connector-curvature="0" />
</svg>
