<?xml version="1.0" encoding="UTF-8" standalone="no"?>
<!-- Created with Inkscape (http://www.inkscape.org/) -->

<svg
   xmlns:dc="http://purl.org/dc/elements/1.1/"
   xmlns:cc="http://creativecommons.org/ns#"
   xmlns:rdf="http://www.w3.org/1999/02/22-rdf-syntax-ns#"
   xmlns:svg="http://www.w3.org/2000/svg"
   xmlns="http://www.w3.org/2000/svg"
   xmlns:sodipodi="http://sodipodi.sourceforge.net/DTD/sodipodi-0.dtd"
   xmlns:inkscape="http://www.inkscape.org/namespaces/inkscape"
   id="svg2"
   version="1.1"
   inkscape:version="0.48.4 r9939"
   width="380"
   height="800"
   sodipodi:docname="ABUS-V14-extracted.jpg">
  <metadata
     id="metadata8">
    <rdf:RDF>
      <cc:Work
         rdf:about="">
        <dc:format>image/svg+xml</dc:format>
        <dc:type
           rdf:resource="http://purl.org/dc/dcmitype/StillImage" />
        <dc:title></dc:title>
      </cc:Work>
    </rdf:RDF>
  </metadata>
  <defs
     id="defs6" />
  <sodipodi:namedview
     pagecolor="#ffffff"
     bordercolor="#666666"
     borderopacity="1"
     objecttolerance="10"
     gridtolerance="10"
     guidetolerance="10"
     inkscape:pageopacity="0"
     inkscape:pageshadow="2"
     inkscape:window-width="1855"
     inkscape:window-height="1056"
     id="namedview4"
     showgrid="false"
     inkscape:zoom="1.18"
     inkscape:cx="190"
     inkscape:cy="400"
     inkscape:window-x="65"
     inkscape:window-y="24"
     inkscape:window-maximized="1"
     inkscape:current-layer="svg2" />
  <path
     style="fill:#000000"
     d="m 96.805082,741.62712 c -1.02054,-1.12768 -3.07996,-2 -4.72174,-2 -2.02965,0 -4.55774,-1.42104 -8.34501,-4.69073 -4.96876,-4.28971 -5.43325,-5.04935 -5.43325,-8.88569 0,-2.30723 -0.67223,-5.4839 -1.49384,-7.05927 -2.86122,-5.48615 -1.7863,-15.32704 2.57791,-23.60074 0.50376,-0.95504 0.94882,-4.10504 0.98902,-7 0.0468,-3.37127 0.76187,-6.3421 1.98899,-8.26357 1.05374,-1.65 2.17832,-3.675 2.49906,-4.5 0.32074,-0.825 1.00177,-2.175 1.5134,-3 0.51163,-0.825 1.33488,-2.42531 1.82943,-3.55625 0.49456,-1.13093 2.49035,-3.26987 4.43508,-4.75319 3.20408,-2.44387 4.70396,-2.77828 15.983288,-3.56359 6.84608,-0.47665 13.06172,-1.25148 13.81254,-1.72184 0.75081,-0.47037 2.15688,-0.72494 3.12458,-0.56571 0.96771,0.15923 3.66771,-0.99102 6,-2.5561 2.3323,-1.56509 5.82229,-3.59003 7.75554,-4.49987 1.93325,-0.90984 4.55341,-2.75959 5.82258,-4.11057 2.12958,-2.26683 2.21763,-2.7925 1.14139,-6.81459 -0.64141,-2.39706 -1.57407,-5.13968 -2.07258,-6.09472 -0.49852,-0.95504 -0.90639,-2.32714 -0.90639,-3.04911 0,-0.72198 -1.6875,-1.92091 -3.75,-2.66429 -2.0625,-0.74339 -5.42856,-2.40879 -7.48013,-3.70089 -3.19971,-2.01522 -5.00945,-2.34928 -12.72695,-2.34928 -12.5426,0 -12.42863,0.21256 -11.6511,-21.72899 0.86028,-24.27689 1.32775,-27.65893 4.19537,-30.35292 1.99587,-1.87502 2.41281,-3.23885 2.41281,-7.8924 0,-3.09413 0.43749,-6.06318 0.97219,-6.59788 0.53471,-0.53471 1.49973,-4.56221 2.1445,-8.95 0.8556,-5.82255 1.94374,-9.10711 4.02781,-12.15799 2.1926,-3.20975 2.8555,-5.3287 2.8555,-9.12755 0,-3.13823 0.53884,-5.39458 1.47354,-6.17031 0.81044,-0.67261 1.78072,-2.86521 2.15616,-4.87244 0.76144,-4.07084 7.60256,-13.98914 10.19668,-14.78321 0.92049,-0.28177 2.45501,-0.92946 3.41005,-1.43931 0.95504,-0.50985 6.35504,-0.92977 12,-0.93316 7.14915,-0.004 11.13273,-0.45946 13.12788,-1.5 1.57537,-0.82161 5.40037,-1.52547 8.5,-1.56413 7.10351,-0.0886 7.84144,-0.41112 14.03994,-6.13655 5.37404,-4.96388 6.00052,-7.01931 4.47075,-14.66816 -0.50879,-2.54393 -1.1131,-3.12682 -3.25,-3.13477 -1.44375,-0.005 -4.99069,-1.11115 -7.8821,-2.45728 -2.8914,-1.34613 -8.02775,-2.94993 -11.41411,-3.564 -7.64915,-1.38705 -13.3573,-3.55313 -17.57879,-6.67065 -3.15014,-2.32634 -3.24904,-2.62129 -3.21873,-9.59919 0.0242,-5.58165 0.58388,-8.32249 2.49086,-12.19911 1.35277,-2.75 2.4637,-6.1824 2.46873,-7.62756 0.005,-1.44515 0.70163,-3.20227 1.54801,-3.9047 1.36341,-1.13153 1.26265,-1.57307 -0.88373,-3.87245 -2.2024,-2.35939 -2.48492,-3.74253 -3.10826,-15.21694 -0.92415,-17.01174 -0.47428,-19.02925 4.81634,-21.59964 8.83236,-4.29109 13.63678,-10.3433 13.63678,-17.1785 0,-2.15198 -0.8219,-3.54926 -3,-5.10021 -2.5503,-1.81597 -3,-2.79169 -3,-6.50908 0,-2.40509 0.38656,-4.61179 0.85901,-4.90379 0.47246,-0.29199 1.16209,-3.13105 1.53251,-6.30901 0.59401,-5.09622 1.17121,-6.25061 4.89099,-9.78186 2.31962,-2.20205 7.06041,-6.99695 10.53509,-10.65533 6.79169,-7.15075 6.83621,-7.40243 2.30912,-13.05589 -0.7553,-0.94323 -1.1552,-2.85573 -0.88867,-4.25 0.47427,-2.48096 0.35915,-2.53504 -5.3967,-2.53504 -4.97831,0 -7.2601,-0.69247 -14.86133,-4.51004 -4.93901,-2.48052 -8.98002,-5.13066 -8.98002,-5.88921 0,-0.75855 -0.87097,-2.44153 -1.93549,-3.73997 -1.78507,-2.17731 -2.06338,-2.23512 -3.58119,-0.74387 -1.51815,1.49158 -2.24014,1.31114 -9.31451,-2.32777 -8.68669,-4.46826 -14.58536,-9.65628 -16.81494,-14.78914 -0.83617,-1.925 -1.93393,-4.175 -2.43948,-5 -0.50554,-0.825 -1.3228,-2.4 -1.81614,-3.5 -0.49333,-1.1 -2.30382,-3.33277 -4.02331,-4.96172 -3.01732,-2.85843 -3.10386,-3.17228 -2.48138,-9 0.5085,-4.76062 1.25452,-6.68314 3.5257,-9.08589 1.58441,-1.67618 2.88074,-3.76853 2.88074,-4.64965 0,-1.81557 10.49787,-11.80274 12.40627,-11.80274 0.68481,0 2.23853,-1.05746 3.45273,-2.34991 1.95733,-2.08348 2.03378,-2.49419 0.67431,-3.62244 -1.0061,-0.83499 -1.53331,-3.00313 -1.53331,-6.3057 0,-3.87962 -0.59589,-5.81442 -2.6,-8.44194 -1.66005,-2.17644 -2.6,-4.67918 -2.6,-6.92284 0,-3.72831 -0.92157,-5.96146 -4.55,-11.02562 -1.2375,-1.72716 -2.25,-4.30832 -2.25,-5.73592 0,-1.46891 -0.56679,-2.59563 -1.30572,-2.59563 -0.71815,0 -2.82332,-1.11965 -4.67817,-2.48811 -1.85484,-1.36846 -4.97977,-2.7793 -6.94427,-3.1352 -5.37076,-0.973 -11.012908,-4.15324 -12.272348,-6.91742 -0.68203,-1.49689 -1.95775,-2.45927 -3.26,-2.45927 -1.17672,0 -2.67949,-0.54 -3.33949,-1.2 -1.52427,-1.52428 -1.60736,-14.4302 -0.0989,-15.36248 0.77719,-0.48033 0.88857,-5.4986 0.37863,-17.05902 l -0.72246,-16.3785 89.481798,0 c 49.21499,0 91.5696,0.28617 94.12137,0.63592 l 4.63957,0.63593 0.0948,20.11407 c 0.0851,18.06345 0.6489,29.58499 2.49345,50.95454 0.53295,6.17433 0.37002,7.0751 -1.67319,9.25 -1.77788,1.89246 -3.28656,2.40954 -7.03032,2.40954 -2.62166,0 -5.04478,0.45 -5.3847,1 -0.33992,0.55 -3.17898,1.0143 -6.30902,1.03178 -5.67011,0.0317 -5.71757,0.0574 -12.94098,7.00598 -3.9875,3.83581 -7.25,7.6869 -7.25,8.55797 0,0.87106 2.25,4.1082 5,7.19363 2.75,3.08543 5,6.25794 5,7.05001 0,2.74908 8.67365,7.65022 17,9.60604 4.44923,1.0451 4.51168,1.11791 5.53491,6.45417 0.79185,4.12955 1.55515,5.58959 3.25,6.21656 1.2183,0.45067 2.21509,1.50891 2.21509,2.35164 0,1.1171 1.06772,1.53222 3.94098,1.53222 4.5199,0 4.59256,0.0747 5.5193,5.67739 0.94882,5.73617 -1.29092,7.10492 -12.21028,7.46195 -4.5375,0.14835 -8.25,0.70476 -8.25,1.23646 0,0.53169 -0.63346,1.67715 -1.40769,2.54546 -2.06367,2.31444 -2.48246,14.38283 -0.58077,16.7365 2.7982,3.46328 3.78011,5.98134 3.30386,8.47266 -0.29346,1.53512 0.13032,2.9946 1.10419,3.80284 0.86922,0.7214 1.58041,1.9764 1.58041,2.78889 0,0.8125 1.4625,3.86356 3.25,6.78015 2.82362,4.60718 3.76827,5.38702 7.20039,5.94416 2.17271,0.35269 4.50375,1.10052 5.18009,1.66183 0.67634,0.56131 5.62702,1.0445 11.00151,1.07375 5.3745,0.0293 10.46846,0.41741 11.31991,0.86258 0.85146,0.44516 2.35592,1.06091 3.34325,1.36832 0.98734,0.30742 2.44302,2.1095 3.23485,4.00462 0.79183,1.89512 1.89652,3.72801 2.45485,4.07308 0.55833,0.34506 1.01792,1.83834 1.02131,3.31838 0.003,1.48004 0.67839,3.97992 1.5,5.55529 0.82161,1.57537 1.49384,3.91131 1.49384,5.19098 0,1.27967 0.45,2.60479 1,2.94471 0.55,0.33992 1,1.68992 1,3 0,1.31008 0.45,2.66008 1,3 0.55,0.33992 1,2.39943 1,4.5767 0,3.60018 -0.62485,4.54812 -6.90017,10.46793 -7.16189,6.75613 -13.41772,11.45537 -15.24992,11.45537 -0.58368,0 -2.39822,1.125 -4.03232,2.5 -1.63409,1.375 -3.52328,2.5 -4.19819,2.5 -0.67491,0 -2.75366,1.575 -4.61944,3.5 -1.86578,1.925 -3.90931,3.5 -4.54118,3.5 -0.63186,0 -1.96333,0.9 -2.95882,2 -0.99549,1.1 -2.36013,2 -3.03254,2 -0.67242,0 -1.78277,0.675 -2.46746,1.5 -0.68469,0.825 -1.97729,1.50277 -2.87244,1.50616 -0.89516,0.003 -2.88407,0.66156 -4.4198,1.46261 -1.53573,0.80105 -4.46073,1.76617 -6.5,2.14471 -2.03927,0.37854 -4.60776,1.26846 -5.70776,1.9776 -1.1,0.70914 -4.475,1.60113 -7.5,1.98219 -3.025,0.38107 -6.06138,1.13714 -6.7475,1.68016 -0.68613,0.54302 -3.99047,0.7889 -7.34299,0.54641 -5.5817,-0.40375 -6.16673,-0.25351 -6.94081,1.78249 -0.46493,1.22286 -1.32952,2.52264 -1.92131,2.88838 -1.54505,0.95489 -5.04739,8.11248 -5.04739,10.31514 0,5.55395 8.88464,8.65436 29.69407,10.36212 7.80674,0.64068 14.77791,1.5257 15.4915,1.96672 2.00609,1.23983 1.16747,18.81325 -1.30685,27.38531 -1.11131,3.85 -2.5197,8.8 -3.12976,11 -0.61007,2.2 -1.41948,4.45 -1.7987,5 -0.37921,0.55 -1.01123,2.8 -1.40448,5 -0.39326,2.2 -1.2743,4.675 -1.95787,5.5 -1.69559,2.04639 -3.58791,8.99036 -3.58791,13.16602 0,1.88869 -0.55174,3.98572 -1.22609,4.66007 -1.42365,1.42365 -3.61631,11.03957 -3.70971,16.26892 -0.0404,2.26272 -0.80539,4.26578 -2.0642,5.40499 -1.45619,1.31783 -2,3.07997 -2,6.48067 0,3.68911 -0.5254,5.16429 -2.5,7.01933 -1.375,1.29175 -2.5,2.87544 -2.5,3.51933 0,0.64388 -0.82293,1.91544 -1.82874,2.82568 -1.55997,1.41176 -4.49068,1.65499 -19.94098,1.65499 -12.06141,0 -18.33869,0.3664 -18.79008,1.09676 -0.46416,0.75102 -3.49857,0.8735 -9.62592,0.38854 -10.11466,-0.80055 -10.98573,-0.37827 -16.92873,8.20682 l -2.90199,4.19213 2.06281,5.30787 c 2.4776,6.3752 4.14476,7.80788 9.08574,7.80788 2.06242,0 4.02797,0.45 4.36789,1 0.33992,0.55 1.43079,1 2.42416,1 0.99337,0 2.95029,0.9 4.34871,2 1.76792,1.39064 4.05678,2 7.51241,2 3.19768,0 5.41374,0.53487 6.21472,1.5 0.72389,0.87223 2.90579,1.5 5.21348,1.5 3.09002,0 4.87381,0.77484 8.05755,3.5 2.24893,1.925 4.85456,3.5 5.79028,3.5 1.63808,0 6.93869,5.92723 6.93869,7.75896 0,0.49083 1.125,1.94929 2.5,3.24104 1.375,1.29175 2.5,2.80368 2.5,3.35986 0,0.55618 0.98185,2.05637 2.1819,3.33376 1.79915,1.91511 2.13851,3.32975 1.93456,8.06445 -0.27645,6.4179 -3.60053,22.88555 -4.96959,24.61961 -0.48735,0.61728 -1.21003,2.92232 -1.60597,5.12232 -0.39593,2.2 -1.07307,4.45 -1.50475,5 -0.43169,0.55 -1.02599,2.35 -1.32069,4 -0.88291,4.94342 -7.30509,22.3838 -8.93242,24.25732 -0.83253,0.95847 -1.79577,3.91723 -2.14052,6.57502 -0.34476,2.65779 -1.25001,6.25779 -2.01168,8 -0.76166,1.74221 -2.15832,6.99266 -3.10368,11.66766 -0.94536,4.675 -2.14127,9.01486 -2.65758,9.64412 -0.5163,0.62927 -1.20913,3.42719 -1.53961,6.2176 -0.36357,3.06975 -1.33726,5.73989 -2.46542,6.76086 -1.08459,0.98154 -1.86455,3.03542 -1.86455,4.90996 0,1.77242 -0.5625,3.66922 -1.25,4.21512 -0.6875,0.54591 -5.11566,1.22173 -9.84036,1.50183 -4.7247,0.2801 -9.5738,1.03559 -10.77579,1.67888 -1.56404,0.83704 -6.43473,0.97173 -17.13014,0.47369 -9.07845,-0.42275 -15.44695,-0.32171 -16.22421,0.2574 -0.75389,0.5617 -6.61981,0.71651 -14.2795,0.37685 -7.15,-0.31706 -14.575,-0.24067 -16.5,0.16976 -1.925,0.41042 -8.04276,0.75695 -13.59501,0.77007 -8.842848,0.0209 -10.319518,-0.22422 -11.904988,-1.97614 z"
     id="path2987"
     inkscape:connector-curvature="0" />
</svg>
