<?xml version="1.0" encoding="UTF-8" standalone="no"?>
<!-- Created with Inkscape (http://www.inkscape.org/) -->

<svg
   xmlns:dc="http://purl.org/dc/elements/1.1/"
   xmlns:cc="http://creativecommons.org/ns#"
   xmlns:rdf="http://www.w3.org/1999/02/22-rdf-syntax-ns#"
   xmlns:svg="http://www.w3.org/2000/svg"
   xmlns="http://www.w3.org/2000/svg"
   xmlns:sodipodi="http://sodipodi.sourceforge.net/DTD/sodipodi-0.dtd"
   xmlns:inkscape="http://www.inkscape.org/namespaces/inkscape"
   id="svg2"
   version="1.1"
   inkscape:version="0.48.4 r9939"
   width="336"
   height="760"
   sodipodi:docname="ABUSE20.jpg">
  <metadata
     id="metadata8">
    <rdf:RDF>
      <cc:Work
         rdf:about="">
        <dc:format>image/svg+xml</dc:format>
        <dc:type
           rdf:resource="http://purl.org/dc/dcmitype/StillImage" />
        <dc:title></dc:title>
      </cc:Work>
    </rdf:RDF>
  </metadata>
  <defs
     id="defs6" />
  <sodipodi:namedview
     pagecolor="#ffffff"
     bordercolor="#666666"
     borderopacity="1"
     objecttolerance="10"
     gridtolerance="10"
     guidetolerance="10"
     inkscape:pageopacity="0"
     inkscape:pageshadow="2"
     inkscape:window-width="1855"
     inkscape:window-height="1056"
     id="namedview4"
     showgrid="false"
     inkscape:zoom="0.87830105"
     inkscape:cx="168"
     inkscape:cy="380"
     inkscape:window-x="65"
     inkscape:window-y="24"
     inkscape:window-maximized="1"
     inkscape:current-layer="svg2" />
  <path
     style="fill:#000000"
     d="m 194.39644,657.40037 c -0.28666,-0.28666 -3.39916,-0.94771 -6.91666,-1.469 -3.51751,-0.52129 -8.64547,-1.39902 -11.39547,-1.95051 -2.75,-0.55149 -7.925,-1.49641 -11.5,-2.09982 -3.575,-0.60341 -7.88195,-1.51614 -9.571,-2.02829 -1.68905,-0.51215 -4.19054,-0.93118 -5.55887,-0.93118 -3.68317,0 -6.61167,-2.40157 -5.12009,-4.19882 0.646,-0.77838 1.37471,-3.55795 1.61937,-6.17683 0.24465,-2.61887 1.10472,-5.51821 1.91128,-6.44297 0.80655,-0.92476 2.03199,-3.48138 2.72321,-5.68138 0.69121,-2.2 1.60783,-4.45 2.03694,-5 0.4291,-0.55 1.06542,-2.8 1.41405,-5 1.56944,-9.90404 4.34631,-18.42172 7.07088,-21.68892 1.83609,-2.20178 2.15886,-3.56054 1.78164,-7.5 -0.25337,-2.6461 -0.95209,-6.16108 -1.5527,-7.81108 -1.63089,-4.48035 -10.86169,-15.83428 -21.29154,-26.18869 -5.09059,-5.05377 -9.41482,-9.562 -9.6094,-10.01828 -0.19457,-0.45627 -1.70377,-1.86564 -3.35377,-3.13193 -1.65,-1.26629 -6.825,-6.00791 -11.5,-10.53694 -4.675,-4.52902 -11.2,-9.96498 -14.5,-12.07991 -3.299998,-2.11492 -6.995728,-4.74027 -8.212738,-5.83409 -2.29159,-2.05965 -2.29771,-2.13407 -2.27951,-27.71016 5.9e-4,-0.825 0.13066,-14.1 0.28904,-29.5 0.28374,-27.58937 0.32587,-28.08799 2.87243,-34 1.74504,-4.05122 3.61939,-6.64959 5.77086,-8 1.752518,-1.1 5.186838,-3.4625 7.631808,-5.25 2.44498,-1.7875 5.257,-3.25 6.24893,-3.25 0.99194,0 3.66631,-0.9 5.94304,-2 2.27674,-1.1 4.72377,-2.00035 5.43783,-2.00078 0.71407,-4.3e-4 3.06755,-1.57543 5.22996,-3.5 2.16241,-1.92457 4.72335,-3.49922 5.69099,-3.49922 0.96763,0 2.00663,-0.40015 2.30889,-0.88922 0.30227,-0.48907 1.74736,-1.18985 3.21131,-1.55728 1.46396,-0.36743 3.90241,-1.99619 5.41878,-3.61946 1.91,-2.04467 4.29032,-3.2422 7.74781,-3.8979 2.95623,-0.56064 6.11019,-1.98391 7.7367,-3.49131 1.51025,-1.39966 3.34483,-2.54483 4.07684,-2.54483 0.73201,0 2.12098,-1.2375 3.0866,-2.75 0.96562,-1.5125 2.50894,-3.30857 3.42961,-3.99126 3.19413,-2.3685 5.86111,-9.57633 5.85524,-15.82446 -0.009,-9.21669 -1.35616,-12.63688 -6.40814,-16.26494 -2.42728,-1.74314 -4.88827,-3.16934 -5.46886,-3.16934 -0.5806,0 -4.55703,-1.15811 -8.83652,-2.57358 -4.2795,-1.41546 -8.94267,-2.7345 -10.36262,-2.93119 -1.41994,-0.19669 -5.24494,-1.30979 -8.5,-2.47355 -3.25505,-1.16377 -8.34271,-2.79993 -11.3059,-3.63593 -2.96319,-0.83599 -6.37411,-2.16636 -7.57983,-2.95638 -1.20571,-0.79001 -2.45524,-1.17335 -2.77673,-0.85186 -0.32149,0.32149 -1.63557,0.002 -2.92017,-0.71105 -1.28461,-0.71258 -2.56065,-1.31954 -2.83565,-1.34882 -2.37456,-0.25282 -10.23767,-5.21329 -13.074598,-8.24816 -7.27953,-7.78744 -8.00752,-9.8733 -8.4992,-24.35243 -0.24543,-7.22725 -0.63716,-13.44938 -0.87052,-13.82696 -0.23335,-0.37758 -0.51786,-7.82602 -0.63224,-16.55211 -0.11437,-8.72608 -0.58003,-17.47938 -1.0348,-19.45179 -0.62677,-2.71843 -0.47136,-3.85484 0.64226,-4.69643 0.80801,-0.61064 1.4691,-2.04658 1.4691,-3.19099 0,-1.1444 0.45,-2.35885 1,-2.69877 0.55,-0.33992 1,-1.43079 1,-2.42416 0,-0.99337 0.91029,-2.96336 2.02286,-4.37777 2.13293,-2.71158 18.718148,-15.4605 22.977138,-17.66232 1.375,-0.71086 3.4,-2.3655 4.5,-3.67699 2.11608,-2.52293 6.55955,-5.29774 12.75,-7.96199 2.0625,-0.88766 3.75,-2.01507 3.75,-2.50535 0,-0.49028 0.5625,-0.89264 1.25,-0.89412 2.36944,-0.005 10.179,-15.07028 9.28021,-17.90212 -0.32305,-1.01784 -1.69895,-3.14314 -3.05757,-4.7229 -1.35861,-1.57975 -2.47075,-3.39033 -2.47142,-4.0235 -6.7e-4,-0.63318 -1.57622,-2.0805 -3.50122,-3.21628 -1.925,-1.13578 -3.5,-2.53023 -3.5,-3.09877 0,-0.56855 -1.125,-1.03373 -2.5,-1.03373 -1.50329,0 -2.5,-0.57116 -2.5,-1.43261 0,-0.78794 -1.0125,-1.73685 -2.25,-2.10869 -1.2375,-0.37184 -3.825,-2.14976 -5.75,-3.95093 -1.925,-1.80116 -5.525,-4.51952 -8,-6.0408 -2.475,-1.52127 -4.77531,-3.18711 -5.1118,-3.70187 -0.3365,-0.51476 -0.94314,-0.84196 -1.3481,-0.72712 -1.32669,0.37621 -17.540098,-13.11448 -17.540098,-14.5946 0,-0.79386 -0.41801,-1.44338 -0.92891,-1.44338 -0.5109,0 -0.9362,-1.4625 -0.94512,-3.25 -0.009,-1.7875 -0.30474,-6.0625 -0.65741,-9.5 l -0.64121,-6.249996 82.098128,0 82.09812,0 -0.48413,43.540366 c -0.3081,27.70969 -0.89536,45.0676 -1.61519,47.74083 -1.8575,6.89822 -6.90005,12.99637 -13.42428,16.23452 -1.65,0.81894 -6.6,3.69035 -11,6.38092 -4.4,2.69056 -11.6,6.78787 -16,9.10512 -4.4,2.31724 -8.225,4.55436 -8.5,4.97137 -0.275,0.41701 -2.525,1.78326 -5,3.03612 -2.475,1.25285 -6.3,3.74266 -8.5,5.53291 -2.2,1.79024 -6.79483,4.88682 -10.21073,6.8813 -7.26551,4.24218 -9.28927,6.74113 -9.28927,11.47046 0,2.77234 0.86613,4.27881 4.4152,7.67942 2.42835,2.32677 5.77226,4.52856 7.4309,4.89286 1.65864,0.3643 3.49421,1.23892 4.07905,1.94361 0.58484,0.70469 2.97843,2.07323 5.3191,3.0412 2.34066,0.96797 6.95575,3.06145 10.25575,4.65218 7.88034,3.79864 18.71466,7.89681 20.87677,7.89681 0.94591,0 3.56729,0.89259 5.82527,1.98353 2.25799,1.09094 5.58504,2.2611 7.39345,2.60036 1.80841,0.33926 4.75166,1.69667 6.54055,3.01647 1.78888,1.3198 4.20524,2.39964 5.36968,2.39964 1.16444,0 3.09597,0.9119 4.29229,2.02644 2.00603,1.8689 2.14458,2.78237 1.78226,11.75 -0.21608,5.34796 -0.70818,10.51106 -1.09356,11.47356 -0.43495,1.08631 -0.24355,1.75 0.50467,1.75 0.92969,0 1.05817,7.94715 0.56176,34.75 -1.00435,54.22858 -0.5895,49.22302 -4.58583,55.33241 -1.90702,2.91536 -4.06636,6.3645 -4.79854,7.66476 -0.73218,1.30025 -2.37597,2.76131 -3.65286,3.24678 -1.2769,0.48548 -2.6169,1.36044 -2.97779,1.94437 -0.36088,0.58392 -1.6646,1.06168 -2.89714,1.06168 -1.23254,0 -2.66848,0.37414 -3.19098,0.83142 -0.5225,0.45728 -2.85516,1.37315 -5.18368,2.03525 -2.32853,0.66211 -4.70686,2.08797 -5.28519,3.16858 -0.57832,1.08061 -1.64092,1.96475 -2.36133,1.96475 -0.7204,0 -2.10123,0.87449 -3.0685,1.94332 -0.96728,1.06883 -3.04089,2.22494 -4.60803,2.56914 -1.56714,0.3442 -3.90087,1.45295 -5.18606,2.46388 -1.28519,1.01093 -4.50762,2.1636 -7.16095,2.5615 -3.16001,0.47387 -5.95292,1.71443 -8.09603,3.5961 -1.79947,1.57996 -4.78568,3.51396 -6.636,4.29778 -3.41804,1.44791 -6.86423,4.76369 -6.86423,6.60446 0,0.55733 -1.125,1.44105 -2.5,1.96382 -1.375,0.52277 -2.54559,1.52414 -2.60132,2.22525 -0.73024,9.18773 3.56739,21.14757 9.558,26.5989 1.92153,1.74855 4.13694,4.41593 4.92315,5.92752 0.78621,1.51158 3.24885,4.09833 5.47254,5.74833 2.22369,1.65 4.61599,4.125 5.31621,5.5 0.70023,1.375 2.86125,4.30237 4.80228,6.50527 1.94103,2.20291 5.10414,5.97323 7.02914,8.3785 1.925,2.40526 4.13676,4.87789 4.91502,5.49472 4.04484,3.20585 14.08498,13.94134 14.08498,15.06047 0,0.71023 0.9,2.43549 2,3.83391 1.1,1.39842 2,2.8536 2,3.23373 0,0.38013 0.61559,2.10915 1.36798,3.84227 2.06121,4.74799 4.31152,23.46589 3.38438,28.15113 -0.43534,2.2 -0.79709,5.44482 -0.80387,7.21072 -0.007,1.76589 -0.44798,3.47995 -0.98042,3.80901 -0.53244,0.32907 -0.96807,1.60675 -0.96807,2.83929 0,1.23254 -0.39469,2.66848 -0.87708,3.19098 -0.48239,0.5225 -1.64231,3.425 -2.5776,6.45 -0.93529,3.025 -1.96823,6.175 -2.29542,7 -0.32719,0.825 -0.7209,2.58523 -0.87491,3.91163 -0.15401,1.3264 -0.80103,2.73364 -1.43782,3.1272 -0.6368,0.39356 -1.30046,2.62812 -1.4748,4.96568 -0.17434,2.33755 -0.79969,4.73281 -1.38968,5.3228 -0.58998,0.58998 -1.07269,1.67646 -1.07269,2.41439 0,0.73794 -1.35,4.22917 -3,7.7583 -1.65,3.52913 -3,7.30881 -3,8.39928 0,1.09048 -0.41538,2.2394 -0.92306,2.55317 -0.50769,0.31377 -1.19415,1.80282 -1.52547,3.30902 -0.87127,3.96077 -6.16777,7.23853 -11.69668,7.23853 -2.4868,0 -4.756,-0.23454 -5.04266,-0.5212 z"
     id="path2987"
     inkscape:connector-curvature="0" />
</svg>
