<?xml version="1.0" encoding="UTF-8" standalone="no"?>
<!-- Created with Inkscape (http://www.inkscape.org/) -->

<svg
   xmlns:dc="http://purl.org/dc/elements/1.1/"
   xmlns:cc="http://creativecommons.org/ns#"
   xmlns:rdf="http://www.w3.org/1999/02/22-rdf-syntax-ns#"
   xmlns:svg="http://www.w3.org/2000/svg"
   xmlns="http://www.w3.org/2000/svg"
   xmlns:sodipodi="http://sodipodi.sourceforge.net/DTD/sodipodi-0.dtd"
   xmlns:inkscape="http://www.inkscape.org/namespaces/inkscape"
   id="svg2"
   version="1.1"
   inkscape:version="0.91 r13725"
   width="49.20591"
   height="170.99294"
   viewBox="0 0 49.20591 170.99294"
   sodipodi:docname="ABUSE20-new.svg">
  <metadata
     id="metadata8">
    <rdf:RDF>
      <cc:Work
         rdf:about="">
        <dc:format>image/svg+xml</dc:format>
        <dc:type
           rdf:resource="http://purl.org/dc/dcmitype/StillImage" />
        <dc:title></dc:title>
      </cc:Work>
    </rdf:RDF>
  </metadata>
  <defs
     id="defs6" />
  <sodipodi:namedview
     pagecolor="#ffffff"
     bordercolor="#666666"
     borderopacity="1"
     objecttolerance="10"
     gridtolerance="10"
     guidetolerance="10"
     inkscape:pageopacity="0"
     inkscape:pageshadow="2"
     inkscape:window-width="3742"
     inkscape:window-height="2124"
     id="namedview4"
     showgrid="false"
     fit-margin-top="0"
     fit-margin-left="0"
     fit-margin-right="0"
     fit-margin-bottom="0"
     inkscape:zoom="5.4346575"
     inkscape:cx="25.302013"
     inkscape:cy="70.997673"
     inkscape:window-x="98"
     inkscape:window-y="36"
     inkscape:window-maximized="1"
     inkscape:current-layer="svg2" />
  <path
     style="fill:#000000"
     d="m 32.043638,170.83657 c -0.086,-0.086 -1.01975,-0.28431 -2.075,-0.4407 -1.05525,-0.15639 -2.59364,-0.41971 -3.41864,-0.58515 -0.825,-0.16545 -2.3775,-0.44893 -3.45,-0.62995 -1.0725,-0.18102 -2.364583,-0.45484 -2.871298,-0.60849 -0.506715,-0.15364 -1.257162,-0.27935 -1.66766,-0.27935 -1.104952,0 -1.983503,-0.72047 -1.536028,-1.25965 0.1938,-0.23351 0.412414,-1.06738 0.48581,-1.85305 0.07339,-0.78566 0.331418,-1.65546 0.573384,-1.93289 0.241965,-0.27742 0.609599,-1.04441 0.816963,-1.70441 0.207363,-0.66 0.482351,-1.335 0.611083,-1.5 0.12873,-0.165 0.319626,-0.84 0.424215,-1.5 0.470832,-2.97121 1.303893,-5.52652 2.121261,-6.50668 0.55083,-0.66053 0.64766,-1.06816 0.5345,-2.25 -0.076,-0.79383 -0.28563,-1.84832 -0.46581,-2.34332 -0.48927,-1.3441 -3.258513,-4.75028 -6.387466,-7.85661 -1.527179,-1.51613 -2.824448,-2.8686 -2.882821,-3.00548 -0.05837,-0.13688 -0.511131,-0.55969 -1.006131,-0.93958 -0.495,-0.37989 -2.0474999,-1.80237 -3.4499999,-3.16108 -1.4025,-1.35871 -3.36,-2.9895 -4.35,-3.62398 -0.99,-0.63447 -2.09872,-1.42208 -2.463821,-1.75022 -0.687479,-0.6179 -0.689315,-0.64022 -0.683854,-8.31305 1.77e-4,-0.2475 0.0392,-4.23 0.08671,-8.85 0.08512,-8.27681 0.09776,-8.4264 0.861729,-10.200002 0.523511,-1.21537 1.085818,-1.994877 1.731259,-2.399997 0.525756,-0.33 1.556051,-1.038755 2.289544,-1.575005 0.733494,-0.53625 1.5771,-0.975 1.87468,-0.975 0.29758,0 1.099891,-0.27 1.782912,-0.6 0.6830219,-0.33 1.4171279,-0.600105 1.6313489,-0.600234 0.214221,-1.29e-4 0.920265,-0.472629 1.568988,-1.05 0.648723,-0.577371 1.417005,-1.049766 1.707295,-1.049766 0.290289,0 0.601991,-0.120045 0.692669,-0.266766 0.09068,-0.146721 0.524206,-0.356955 0.963393,-0.467184 0.439188,-0.110229 1.170722,-0.598857 1.625633,-1.085838 0.573001,-0.613401 1.287097,-0.97266 2.324343,-1.16937 0.886869,-0.168192 1.833059,-0.595173 2.321009,-1.047393 0.45308,-0.419898 1.00345,-0.763449 1.22305,-0.763449 0.21961,0 0.6363,-0.37125 0.92598,-0.825 0.28969,-0.45375 0.75269,-0.992571 1.02889,-1.197378 0.95824,-0.71055 1.75833,-2.872899 1.75657,-4.747338 -0.003,-2.765007 -0.40685,-3.791064 -1.92244,-4.879482 -0.72819,-0.522942 -1.46648,-0.950802 -1.64066,-0.950802 -0.17418,0 -1.36711,-0.347433 -2.650958,-0.772074 -1.28385,-0.424638 -2.682802,-0.82035 -3.108786,-0.879357 -0.425983,-0.05901 -1.573483,-0.392937 -2.55,-0.742065 -0.976516,-0.349131 -2.502813,-0.839979 -3.39177,-1.090779 -0.888957,-0.250797 -1.912234,-0.649908 -2.2739479,-0.886914 -0.361714,-0.237003 -0.736573,-0.352005 -0.83302,-0.255558 -0.09645,0.09645 -0.49067,6e-4 -0.876052,-0.213315 -0.385382,-0.213774 -0.768194,-0.395862 -0.850694,-0.404646 -0.712369,-0.07585 -3.0713,-1.563987 -3.92238,-2.474448 -2.047041,-2.189868 -2.428174,-3.120678 -2.524018,-6.164208 -0.04792,-1.521651 -0.16774,-4.184136 -0.266272,-5.916636 -0.410881,-7.22463 -0.4826851,-11.7 -0.187717,-11.7 0.165213,0 0.300387,-0.329532 0.300387,-0.732294 0,-0.402762 0.135,-0.81573 0.3,-0.917706 0.165,-0.101976 0.3,-0.429237 0.3,-0.727248 0,-0.298011 0.273086,-0.889008 0.606857,-1.313331 0.63988,-0.813474 5.615447,-4.63815 6.893143,-5.298696 0.4125,-0.213258 1.02,-0.70965 1.3499999,-1.103097 0.634825,-0.756879 1.967863,-1.589322 3.825,-2.388597 C 14.49375,29.845659 15,29.507436 15,29.360352 c 0,-0.147084 0.16875,-0.267792 0.375,-0.268236 0.710831,-0.0015 3.0537,-4.521083 2.784062,-5.370637 -0.09691,-0.305351 -0.509685,-0.942942 -0.917269,-1.416868 -0.407583,-0.473927 -0.741225,-1.026968 -0.741427,-1.228981 -2.01e-4,-0.202013 -0.398656,-0.57326 -0.885455,-0.824993 -0.486799,-0.251734 -0.993049,-0.626451 -1.125,-0.832704 C 14.209229,18.979196 13.409274,18.447636 12.15,17.86309 11.655,17.633315 10.9125,17.083228 10.5,16.640675 10.0875,16.198122 8.8725001,15.313246 7.8000001,14.674285 6.7275001,14.035323 4.7413501,12.6252 3.3863331,11.540678 1.2844491,9.8583824 0.8961691,9.4053864 0.7422341,8.4558734 0.6429941,7.8437528 0.4353971,7.0328248 0.2809011,6.6538108 0.1264051,6.2747972 0,5.1195704 0,4.0866404 L 0,2.2085861 2.0250001,1.7013785 C 6.2989541,0.63086928 15.633847,0.00249578 27.299998,4.8763283e-6 37.709328,-0.00221512 44.018548,0.75348308 47.777958,2.4527972 l 1.42795,0.6454596 -0.14465,13.0094462 c -0.092,8.275424 -0.26813,13.467998 -0.48397,14.269583 -0.55725,2.069466 -2.07002,3.898911 -4.02729,4.870356 -0.495,0.245682 -1.98,1.107105 -3.3,1.914276 -1.32,0.807168 -3.48,2.036361 -4.8,2.731536 -1.32,0.695172 -2.4675,1.366308 -2.55,1.491411 -0.0825,0.125103 -0.7575,0.534978 -1.5,0.910836 -0.7425,0.375855 -1.89,1.122798 -2.55,1.659873 -0.66,0.537072 -2.03845,1.466046 -3.06322,2.06439 -2.17965,1.272654 -2.78678,2.022339 -2.78678,3.441138 0,0.831702 0.25984,1.283643 1.32456,2.303826 0.72851,0.698031 1.73168,1.358568 2.22927,1.467858 0.49759,0.10929 1.04827,0.371676 1.22372,0.583083 0.17545,0.211407 0.89353,0.621969 1.59573,0.91236 0.7022,0.290391 2.08672,0.918435 3.07672,1.395654 2.3641,1.139592 5.6144,2.369043 6.26303,2.369043 0.28378,0 1.07019,0.267777 1.74758,0.595059 0.6774,0.327282 1.67552,0.67833 2.21804,0.780108 0.54252,0.101778 1.4255,0.509001 1.96216,0.904941 0.53667,0.39594 1.26158,0.719892 1.61091,0.719892 0.34933,0 0.92879,0.27357 1.28769,0.607932 0.6018,0.56067 0.64337,0.834711 0.53467,3.525 -0.0648,1.604388 -0.21245,3.153318 -0.32806,3.442068 -0.13049,0.325893 -0.0731,0.525 0.1514,0.525 0.2789,0 0.31745,2.384145 0.16852,10.425 -0.3013,16.268574 -0.17685,14.766906 -1.37574,16.599725 -0.57211,0.87461 -1.21991,1.909347 -1.43957,2.299427 -0.21965,0.39008 -0.71279,0.82839 -1.09585,0.97403 -0.38307,0.145652 -0.78507,0.408142 -0.89334,0.583322 -0.10827,0.17517 -0.49938,0.3185 -0.86914,0.3185 -0.36977,0 -0.80055,0.11224 -0.9573,0.24943 -0.15675,0.13718 -0.85655,0.41194 -1.5551,0.61057 -0.69856,0.19863 -1.41206,0.62639 -1.58556,0.95058 -0.17349,0.32418 -0.49227,0.58942 -0.7084,0.58942 -0.21612,0 -0.63037,0.26235 -0.92055,0.583 -0.29018,0.32064 -0.91226,0.66748 -1.38241,0.77074 -0.47014,0.10326 -1.17026,0.43588 -1.55581,0.73916 -0.38556,0.30328 -1.35229,0.64908 -2.14829,0.76845 -0.948,0.14216 -1.78588,0.51433 -2.42881,1.07883 -0.53984,0.47399 -1.4357,1.05419 -1.9908,1.28934 -1.02541,0.43437 -2.05927,1.4291 -2.05927,1.98133 0,0.1672 -0.3375,0.43232 -0.75,0.58915 -0.4125,0.15683 -0.76367,0.45724 -0.78039,0.66758 -0.21908,2.75631 1.07021,6.34427 2.8674,7.97967 0.57646,0.52456 1.24108,1.32477 1.47694,1.77825 0.23586,0.45348 0.97466,1.2295 1.64176,1.7245 0.66711,0.495 1.3848,1.2375 1.59487,1.65 0.21007,0.4125 0.85837,1.29071 1.44068,1.95158 0.58231,0.66087 1.53124,1.79197 2.10874,2.51355 0.5775,0.72158 1.24103,1.46337 1.47451,1.64842 1.21345,0.96175 4.22549,4.1824 4.22549,4.51814 0,0.21307 0.27,0.73064 0.6,1.15017 0.33,0.41953 0.6,0.85608 0.6,0.97012 0,0.11404 0.18468,0.63274 0.4104,1.15268 0.61836,1.4244 1.29345,7.03977 1.01531,8.44534 -0.1306,0.66 -0.23913,1.63345 -0.24116,2.16322 -0.002,0.52976 -0.13439,1.04398 -0.29413,1.1427 -0.15973,0.0987 -0.29042,0.48202 -0.29042,0.85179 0,0.36976 -0.1184,0.80054 -0.26312,0.95729 -0.14472,0.15675 -0.49269,1.0275 -0.77328,1.935 -0.28059,0.9075 -0.59047,1.8525 -0.68863,2.1 -0.0982,0.2475 -0.21627,0.77557 -0.26247,1.17349 -0.0462,0.39792 -0.24031,0.82009 -0.43135,0.93816 -0.19104,0.11807 -0.39013,0.78843 -0.44244,1.4897 -0.0523,0.70127 -0.2399,1.41985 -0.4169,1.59684 -0.17699,0.177 -0.32181,0.50294 -0.32181,0.72432 0,0.22138 -0.405,1.26875 -0.9,2.32749 -0.495,1.05874 -0.9,2.19264 -0.9,2.51978 0,0.32715 -0.12461,0.67182 -0.27692,0.76595 -0.1523,0.0941 -0.35824,0.54085 -0.45764,0.99271 -0.26138,1.18823 -1.85033,2.17156 -3.509,2.17156 -0.74604,0 -1.4268,-0.0704 -1.5128,-0.15636 z"
     id="path3338"
     inkscape:connector-curvature="0" />
</svg>
