  0
SECTION
  2
HEADER
  9
$ACADVER
  1
AC1009
  9
$FILLMODE
 70
 0
  9
$SPLFRAME
 70
 1
  9
$EXTMIN
 10
0
 20
0
 30
0.0
  9
$EXTMAX
 10
41.6667
 20
41.6667
 30
0.0
  0
ENDSEC
  0
SECTION
  2
TABLES
  0
TABLE
  2
LAYER
 70
1
  0
LAYER
  2
0
 70
     0
 62
     7
  6
CONTINUOUS
  0
ENDTAB
  0
ENDSEC
  0
SECTION
  2
ENTITIES
  0
LINE
  8
0
 62
     0
 10
0.828125
 20
0.011122
 30
0.0
 11
0.820204
 21
0.0123698
 31
0.0
  0
LINE
  8
0
 62
     0
 10
0.820204
 20
0.0123698
 30
0.0
 11
0.796007
 21
0.0154622
 31
0.0
  0
LINE
  8
0
 62
     0
 10
0.796007
 20
0.0154622
 30
0.0
 11
0.750922
 21
0.0206706
 31
0.0
  0
LINE
  8
0
 62
     0
 10
0.750922
 20
0.0206706
 30
0.0
 11
0.698839
 21
0.0262044
 31
0.0
  0
LINE
  8
0
 62
     0
 10
0.698839
 20
0.0262044
 30
0.0
 11
0.659071
 21
0.0301107
 31
0.0
  0
LINE
  8
0
 62
     0
 10
0.659071
 20
0.0301107
 30
0.0
 11
0.645833
 21
0.0313043
 31
0.0
  0
LINE
  8
0
 62
     0
 10
0.645833
 20
0.0313043
 30
0.0
 11
0.63265
 21
0.0324978
 31
0.0
  0
LINE
  8
0
 62
     0
 10
0.63265
 20
0.0324978
 30
0.0
 11
0.593261
 21
0.0366754
 31
0.0
  0
LINE
  8
0
 62
     0
 10
0.593261
 20
0.0366754
 30
0.0
 11
0.542643
 21
0.0427518
 31
0.0
  0
LINE
  8
0
 62
     0
 10
0.542643
 20
0.0427518
 30
0.0
 11
0.499675
 21
0.0487739
 31
0.0
  0
LINE
  8
0
 62
     0
 10
0.499675
 20
0.0487739
 30
0.0
 11
0.477106
 21
0.0525174
 31
0.0
  0
LINE
  8
0
 62
     0
 10
0.477106
 20
0.0525174
 30
0.0
 11
0.470161
 21
0.0540365
 31
0.0
  0
LINE
  8
0
 62
     0
 10
0.470161
 20
0.0540365
 30
0.0
 11
0.419488
 21
0.0653754
 31
0.0
  0
LINE
  8
0
 62
     0
 10
0.419488
 20
0.0653754
 30
0.0
 11
0.426432
 21
0.129123
 31
0.0
  0
LINE
  8
0
 62
     0
 10
0.426432
 20
0.129123
 30
0.0
 11
0.428494
 21
0.148275
 31
0.0
  0
LINE
  8
0
 62
     0
 10
0.428494
 20
0.148275
 30
0.0
 11
0.438803
 21
0.20524
 31
0.0
  0
LINE
  8
0
 62
     0
 10
0.438803
 20
0.20524
 30
0.0
 11
0.460938
 21
0.303982
 31
0.0
  0
LINE
  8
0
 62
     0
 10
0.460938
 20
0.303982
 30
0.0
 11
0.490451
 21
0.417697
 31
0.0
  0
LINE
  8
0
 62
     0
 10
0.490451
 20
0.417697
 30
0.0
 11
0.525174
 21
0.538738
 31
0.0
  0
LINE
  8
0
 62
     0
 10
0.525174
 20
0.538738
 30
0.0
 11
0.562717
 21
0.659451
 31
0.0
  0
LINE
  8
0
 62
     0
 10
0.562717
 20
0.659451
 30
0.0
 11
0.600857
 21
0.772136
 31
0.0
  0
LINE
  8
0
 62
     0
 10
0.600857
 20
0.772136
 30
0.0
 11
0.637261
 21
0.869194
 31
0.0
  0
LINE
  8
0
 62
     0
 10
0.637261
 20
0.869194
 30
0.0
 11
0.660753
 21
0.924968
 31
0.0
  0
LINE
  8
0
 62
     0
 10
0.660753
 20
0.924968
 30
0.0
 11
0.669706
 21
0.942925
 31
0.0
  0
LINE
  8
0
 62
     0
 10
0.669706
 20
0.942925
 30
0.0
 11
0.679904
 21
0.963542
 31
0.0
  0
LINE
  8
0
 62
     0
 10
0.679904
 20
0.963542
 30
0.0
 11
0.708604
 21
1.02631
 31
0.0
  0
LINE
  8
0
 62
     0
 10
0.708604
 20
1.02631
 30
0.0
 11
0.735135
 21
1.09592
 31
0.0
  0
LINE
  8
0
 62
     0
 10
0.735135
 20
1.09592
 30
0.0
 11
0.750325
 21
1.15495
 31
0.0
  0
LINE
  8
0
 62
     0
 10
0.750325
 20
1.15495
 30
0.0
 11
0.755208
 21
1.19352
 31
0.0
  0
LINE
  8
0
 62
     0
 10
0.755208
 20
1.19352
 30
0.0
 11
0.755208
 21
1.20638
 31
0.0
  0
LINE
  8
0
 62
     0
 10
0.755208
 20
1.20638
 30
0.0
 11
0.755208
 21
1.21452
 31
0.0
  0
LINE
  8
0
 62
     0
 10
0.755208
 20
1.21452
 30
0.0
 11
0.754069
 21
1.23893
 31
0.0
  0
LINE
  8
0
 62
     0
 10
0.754069
 20
1.23893
 30
0.0
 11
0.749511
 21
1.26264
 31
0.0
  0
LINE
  8
0
 62
     0
 10
0.749511
 20
1.26264
 30
0.0
 11
0.739746
 21
1.28299
 31
0.0
  0
LINE
  8
0
 62
     0
 10
0.739746
 20
1.28299
 30
0.0
 11
0.727431
 21
1.29997
 31
0.0
  0
LINE
  8
0
 62
     0
 10
0.727431
 20
1.29997
 30
0.0
 11
0.723036
 21
1.30534
 31
0.0
  0
LINE
  8
0
 62
     0
 10
0.723036
 20
1.30534
 30
0.0
 11
0.719185
 21
1.31
 31
0.0
  0
LINE
  8
0
 62
     0
 10
0.719185
 20
1.31
 30
0.0
 11
0.707194
 21
1.32341
 31
0.0
  0
LINE
  8
0
 62
     0
 10
0.707194
 20
1.32341
 30
0.0
 11
0.691678
 21
1.33816
 31
0.0
  0
LINE
  8
0
 62
     0
 10
0.691678
 20
1.33816
 30
0.0
 11
0.67475
 21
1.35032
 31
0.0
  0
LINE
  8
0
 62
     0
 10
0.67475
 20
1.35032
 30
0.0
 11
0.654949
 21
1.36051
 31
0.0
  0
LINE
  8
0
 62
     0
 10
0.654949
 20
1.36051
 30
0.0
 11
0.630697
 21
1.36947
 31
0.0
  0
LINE
  8
0
 62
     0
 10
0.630697
 20
1.36947
 30
0.0
 11
0.600424
 21
1.37782
 31
0.0
  0
LINE
  8
0
 62
     0
 10
0.600424
 20
1.37782
 30
0.0
 11
0.562554
 21
1.38628
 31
0.0
  0
LINE
  8
0
 62
     0
 10
0.562554
 20
1.38628
 30
0.0
 11
0.527344
 21
1.39333
 31
0.0
  0
LINE
  8
0
 62
     0
 10
0.527344
 20
1.39333
 30
0.0
 11
0.515625
 21
1.39551
 31
0.0
  0
LINE
  8
0
 62
     0
 10
0.515625
 20
1.39551
 30
0.0
 11
0.502007
 21
1.39811
 31
0.0
  0
LINE
  8
0
 62
     0
 10
0.502007
 20
1.39811
 30
0.0
 11
0.461262
 21
1.40625
 31
0.0
  0
LINE
  8
0
 62
     0
 10
0.461262
 20
1.40625
 30
0.0
 11
0.40191
 21
1.41862
 31
0.0
  0
LINE
  8
0
 62
     0
 10
0.40191
 20
1.41862
 30
0.0
 11
0.344726
 21
1.43121
 31
0.0
  0
LINE
  8
0
 62
     0
 10
0.344726
 20
1.43121
 30
0.0
 11
0.308757
 21
1.43946
 31
0.0
  0
LINE
  8
0
 62
     0
 10
0.308757
 20
1.43946
 30
0.0
 11
0.296875
 21
1.44233
 31
0.0
  0
LINE
  8
0
 62
     0
 10
0.296875
 20
1.44233
 30
0.0
 11
0.285915
 21
1.44499
 31
0.0
  0
LINE
  8
0
 62
     0
 10
0.285915
 20
1.44499
 30
0.0
 11
0.253147
 21
1.45281
 31
0.0
  0
LINE
  8
0
 62
     0
 10
0.253147
 20
1.45281
 30
0.0
 11
0.207303
 21
1.46337
 31
0.0
  0
LINE
  8
0
 62
     0
 10
0.207303
 20
1.46337
 30
0.0
 11
0.164714
 21
1.47282
 31
0.0
  0
LINE
  8
0
 62
     0
 10
0.164714
 20
1.47282
 30
0.0
 11
0.139378
 21
1.47825
 31
0.0
  0
LINE
  8
0
 62
     0
 10
0.139378
 20
1.47825
 30
0.0
 11
0.130914
 21
1.47993
 31
0.0
  0
LINE
  8
0
 62
     0
 10
0.130914
 20
1.47993
 30
0.0
 11
0.119629
 21
1.48221
 31
0.0
  0
LINE
  8
0
 62
     0
 10
0.119629
 20
1.48221
 30
0.0
 11
0.0725911
 21
1.49718
 31
0.0
  0
LINE
  8
0
 62
     0
 10
0.0725911
 20
1.49718
 30
0.0
 11
0.0373264
 21
1.51719
 31
0.0
  0
LINE
  8
0
 62
     0
 10
0.0373264
 20
1.51719
 30
0.0
 11
0.0319553
 21
1.52197
 31
0.0
  0
LINE
  8
0
 62
     0
 10
0.0319553
 20
1.52197
 30
0.0
 11
0
 21
1.55057
 31
0.0
  0
LINE
  8
0
 62
     0
 10
0
 20
1.55057
 30
0.0
 11
0
 21
2.29363
 31
0.0
  0
LINE
  8
0
 62
     0
 10
0
 20
2.29363
 30
0.0
 11
0
 21
2.34999
 31
0.0
  0
LINE
  8
0
 62
     0
 10
0
 20
2.34999
 30
0.0
 11
0.000108507
 21
2.51899
 31
0.0
  0
LINE
  8
0
 62
     0
 10
0.000108507
 20
2.51899
 30
0.0
 11
0.000542535
 21
2.69596
 31
0.0
  0
LINE
  8
0
 62
     0
 10
0.000542535
 20
2.69596
 30
0.0
 11
0.0014106
 21
2.83154
 31
0.0
  0
LINE
  8
0
 62
     0
 10
0.0014106
 20
2.83154
 30
0.0
 11
0.00298394
 21
2.93272
 31
0.0
  0
LINE
  8
0
 62
     0
 10
0.00298394
 20
2.93272
 30
0.0
 11
0.00531685
 21
3.00657
 31
0.0
  0
LINE
  8
0
 62
     0
 10
0.00531685
 20
3.00657
 30
0.0
 11
0.00862631
 21
3.06
 31
0.0
  0
LINE
  8
0
 62
     0
 10
0.00862631
 20
3.06
 30
0.0
 11
0.0130208
 21
3.10015
 31
0.0
  0
LINE
  8
0
 62
     0
 10
0.0130208
 20
3.10015
 30
0.0
 11
0.0170899
 21
3.12554
 31
0.0
  0
LINE
  8
0
 62
     0
 10
0.0170899
 20
3.12554
 30
0.0
 11
0.0187175
 21
3.1339
 31
0.0
  0
LINE
  8
0
 62
     0
 10
0.0187175
 20
3.1339
 30
0.0
 11
0.0207249
 21
3.14442
 31
0.0
  0
LINE
  8
0
 62
     0
 10
0.0207249
 20
3.14442
 30
0.0
 11
0.0275065
 21
3.17589
 31
0.0
  0
LINE
  8
0
 62
     0
 10
0.0275065
 20
3.17589
 30
0.0
 11
0.0378147
 21
3.21843
 31
0.0
  0
LINE
  8
0
 62
     0
 10
0.0378147
 20
3.21843
 30
0.0
 11
0.0482314
 21
3.25646
 31
0.0
  0
LINE
  8
0
 62
     0
 10
0.0482314
 20
3.25646
 30
0.0
 11
0.0549046
 21
3.27806
 31
0.0
  0
LINE
  8
0
 62
     0
 10
0.0549046
 20
3.27806
 30
0.0
 11
0.0575629
 21
3.28504
 31
0.0
  0
LINE
  8
0
 62
     0
 10
0.0575629
 20
3.28504
 30
0.0
 11
0.0646158
 21
3.30404
 31
0.0
  0
LINE
  8
0
 62
     0
 10
0.0646158
 20
3.30404
 30
0.0
 11
0.0910374
 21
3.35894
 31
0.0
  0
LINE
  8
0
 62
     0
 10
0.0910374
 20
3.35894
 30
0.0
 11
0.138292
 21
3.44358
 31
0.0
  0
LINE
  8
0
 62
     0
 10
0.138292
 20
3.44358
 30
0.0
 11
0.191135
 21
3.5255
 31
0.0
  0
LINE
  8
0
 62
     0
 10
0.191135
 20
3.5255
 30
0.0
 11
0.227919
 21
3.57563
 31
0.0
  0
LINE
  8
0
 62
     0
 10
0.227919
 20
3.57563
 30
0.0
 11
0.241536
 21
3.59115
 31
0.0
  0
LINE
  8
0
 62
     0
 10
0.241536
 20
3.59115
 30
0.0
 11
0.246853
 21
3.59728
 31
0.0
  0
LINE
  8
0
 62
     0
 10
0.246853
 20
3.59728
 30
0.0
 11
0.263238
 21
3.61518
 31
0.0
  0
LINE
  8
0
 62
     0
 10
0.263238
 20
3.61518
 30
0.0
 11
0.282553
 21
3.634
 31
0.0
  0
LINE
  8
0
 62
     0
 10
0.282553
 20
3.634
 30
0.0
 11
0.301432
 21
3.64844
 31
0.0
  0
LINE
  8
0
 62
     0
 10
0.301432
 20
3.64844
 30
0.0
 11
0.32156
 21
3.65924
 31
0.0
  0
LINE
  8
0
 62
     0
 10
0.32156
 20
3.65924
 30
0.0
 11
0.344889
 21
3.66726
 31
0.0
  0
LINE
  8
0
 62
     0
 10
0.344889
 20
3.66726
 30
0.0
 11
0.373264
 21
3.67324
 31
0.0
  0
LINE
  8
0
 62
     0
 10
0.373264
 20
3.67324
 30
0.0
 11
0.408475
 21
3.678
 31
0.0
  0
LINE
  8
0
 62
     0
 10
0.408475
 20
3.678
 30
0.0
 11
0.441407
 21
3.68137
 31
0.0
  0
LINE
  8
0
 62
     0
 10
0.441407
 20
3.68137
 30
0.0
 11
0.452419
 21
3.68235
 31
0.0
  0
LINE
  8
0
 62
     0
 10
0.452419
 20
3.68235
 30
0.0
 11
0.476129
 21
3.68451
 31
0.0
  0
LINE
  8
0
 62
     0
 10
0.476129
 20
3.68451
 30
0.0
 11
0.587185
 21
3.71875
 31
0.0
  0
LINE
  8
0
 62
     0
 10
0.587185
 20
3.71875
 30
0.0
 11
0.699382
 21
3.78971
 31
0.0
  0
LINE
  8
0
 62
     0
 10
0.699382
 20
3.78971
 30
0.0
 11
0.723687
 21
3.81017
 31
0.0
  0
LINE
  8
0
 62
     0
 10
0.723687
 20
3.81017
 30
0.0
 11
0.743599
 21
3.82699
 31
0.0
  0
LINE
  8
0
 62
     0
 10
0.743599
 20
3.82699
 30
0.0
 11
0.821615
 21
3.92215
 31
0.0
  0
LINE
  8
0
 62
     0
 10
0.821615
 20
3.92215
 30
0.0
 11
0.874621
 21
4.03831
 31
0.0
  0
LINE
  8
0
 62
     0
 10
0.874621
 20
4.03831
 30
0.0
 11
0.882053
 21
4.0656
 31
0.0
  0
LINE
  8
0
 62
     0
 10
0.882053
 20
4.0656
 30
0.0
 11
0.889594
 21
4.09332
 31
0.0
  0
LINE
  8
0
 62
     0
 10
0.889594
 20
4.09332
 30
0.0
 11
0.901801
 21
4.2175
 31
0.0
  0
LINE
  8
0
 62
     0
 10
0.901801
 20
4.2175
 30
0.0
 11
0.879992
 21
4.32335
 31
0.0
  0
LINE
  8
0
 62
     0
 10
0.879992
 20
4.32335
 30
0.0
 11
0.870551
 21
4.3419
 31
0.0
  0
LINE
  8
0
 62
     0
 10
0.870551
 20
4.3419
 30
0.0
 11
0.859375
 21
4.36376
 31
0.0
  0
LINE
  8
0
 62
     0
 10
0.859375
 20
4.36376
 30
0.0
 11
0.814671
 21
4.42356
 31
0.0
  0
LINE
  8
0
 62
     0
 10
0.814671
 20
4.42356
 30
0.0
 11
0.738661
 21
4.49208
 31
0.0
  0
LINE
  8
0
 62
     0
 10
0.738661
 20
4.49208
 30
0.0
 11
0.646376
 21
4.54471
 31
0.0
  0
LINE
  8
0
 62
     0
 10
0.646376
 20
4.54471
 30
0.0
 11
0.568414
 21
4.57286
 31
0.0
  0
LINE
  8
0
 62
     0
 10
0.568414
 20
4.57286
 30
0.0
 11
0.541667
 21
4.57861
 31
0.0
  0
LINE
  8
0
 62
     0
 10
0.541667
 20
4.57861
 30
0.0
 11
0.517958
 21
4.58376
 31
0.0
  0
LINE
  8
0
 62
     0
 10
0.517958
 20
4.58376
 30
0.0
 11
0.447863
 21
4.6034
 31
0.0
  0
LINE
  8
0
 62
     0
 10
0.447863
 20
4.6034
 30
0.0
 11
0.333985
 21
4.63926
 31
0.0
  0
LINE
  8
0
 62
     0
 10
0.333985
 20
4.63926
 30
0.0
 11
0.229438
 21
4.67632
 31
0.0
  0
LINE
  8
0
 62
     0
 10
0.229438
 20
4.67632
 30
0.0
 11
0.175944
 21
4.69775
 31
0.0
  0
LINE
  8
0
 62
     0
 10
0.175944
 20
4.69775
 30
0.0
 11
0.163846
 21
4.70469
 31
0.0
  0
LINE
  8
0
 62
     0
 10
0.163846
 20
4.70469
 30
0.0
 11
0.159071
 21
4.70742
 31
0.0
  0
LINE
  8
0
 62
     0
 10
0.159071
 20
4.70742
 30
0.0
 11
0.145887
 21
4.71729
 31
0.0
  0
LINE
  8
0
 62
     0
 10
0.145887
 20
4.71729
 30
0.0
 11
0.132487
 21
4.73346
 31
0.0
  0
LINE
  8
0
 62
     0
 10
0.132487
 20
4.73346
 30
0.0
 11
0.121257
 21
4.75706
 31
0.0
  0
LINE
  8
0
 62
     0
 10
0.121257
 20
4.75706
 30
0.0
 11
0.112359
 21
4.78315
 31
0.0
  0
LINE
  8
0
 62
     0
 10
0.112359
 20
4.78315
 30
0.0
 11
0.109809
 21
4.79189
 31
0.0
  0
LINE
  8
0
 62
     0
 10
0.109809
 20
4.79189
 30
0.0
 11
0.107368
 21
4.80007
 31
0.0
  0
LINE
  8
0
 62
     0
 10
0.107368
 20
4.80007
 30
0.0
 11
0.102268
 21
4.82519
 31
0.0
  0
LINE
  8
0
 62
     0
 10
0.102268
 20
4.82519
 30
0.0
 11
0.0934788
 21
4.87571
 31
0.0
  0
LINE
  8
0
 62
     0
 10
0.0934788
 20
4.87571
 30
0.0
 11
0.0843642
 21
4.93696
 31
0.0
  0
LINE
  8
0
 62
     0
 10
0.0843642
 20
4.93696
 30
0.0
 11
0.0756293
 21
5.00233
 31
0.0
  0
LINE
  8
0
 62
     0
 10
0.0756293
 20
5.00233
 30
0.0
 11
0.0681424
 21
5.06532
 31
0.0
  0
LINE
  8
0
 62
     0
 10
0.0681424
 20
5.06532
 30
0.0
 11
0.0627171
 21
5.11936
 31
0.0
  0
LINE
  8
0
 62
     0
 10
0.0627171
 20
5.11936
 30
0.0
 11
0.0602214
 21
5.15793
 31
0.0
  0
LINE
  8
0
 62
     0
 10
0.0602214
 20
5.15793
 30
0.0
 11
0.0592449
 21
5.17231
 31
0.0
  0
LINE
  8
0
 62
     0
 10
0.0592449
 20
5.17231
 30
0.0
 11
0.0614692
 21
5.17449
 31
0.0
  0
LINE
  8
0
 62
     0
 10
0.0614692
 20
5.17449
 30
0.0
 11
0.065701
 21
5.17876
 31
0.0
  0
LINE
  8
0
 62
     0
 10
0.065701
 20
5.17876
 30
0.0
 11
0.0879992
 21
5.18201
 31
0.0
  0
LINE
  8
0
 62
     0
 10
0.0879992
 20
5.18201
 30
0.0
 11
0.148167
 21
5.19021
 31
0.0
  0
LINE
  8
0
 62
     0
 10
0.148167
 20
5.19021
 30
0.0
 11
0.233778
 21
5.19851
 31
0.0
  0
LINE
  8
0
 62
     0
 10
0.233778
 20
5.19851
 30
0.0
 11
0.336589
 21
5.20638
 31
0.0
  0
LINE
  8
0
 62
     0
 10
0.336589
 20
5.20638
 30
0.0
 11
0.448351
 21
5.21322
 31
0.0
  0
LINE
  8
0
 62
     0
 10
0.448351
 20
5.21322
 30
0.0
 11
0.560872
 21
5.21847
 31
0.0
  0
LINE
  8
0
 62
     0
 10
0.560872
 20
5.21847
 30
0.0
 11
0.665907
 21
5.22163
 31
0.0
  0
LINE
  8
0
 62
     0
 10
0.665907
 20
5.22163
 30
0.0
 11
0.732856
 21
5.22233
 31
0.0
  0
LINE
  8
0
 62
     0
 10
0.732856
 20
5.22233
 30
0.0
 11
0.755208
 21
5.222
 31
0.0
  0
LINE
  8
0
 62
     0
 10
0.755208
 20
5.222
 30
0.0
 11
0.787978
 21
5.22157
 31
0.0
  0
LINE
  8
0
 62
     0
 10
0.787978
 20
5.22157
 30
0.0
 11
0.886447
 21
5.21837
 31
0.0
  0
LINE
  8
0
 62
     0
 10
0.886447
 20
5.21837
 30
0.0
 11
1.04937
 21
5.21115
 31
0.0
  0
LINE
  8
0
 62
     0
 10
1.04937
 20
5.21115
 30
0.0
 11
1.2239
 21
5.20139
 31
0.0
  0
LINE
  8
0
 62
     0
 10
1.2239
 20
5.20139
 30
0.0
 11
1.34869
 21
5.19314
 31
0.0
  0
LINE
  8
0
 62
     0
 10
1.34869
 20
5.19314
 30
0.0
 11
1.39025
 21
5.19
 31
0.0
  0
LINE
  8
0
 62
     0
 10
1.39025
 20
5.19
 30
0.0
 11
1.48887
 21
5.18251
 31
0.0
  0
LINE
  8
0
 62
     0
 10
1.48887
 20
5.18251
 30
0.0
 11
1.49756
 21
5.14606
 31
0.0
  0
LINE
  8
0
 62
     0
 10
1.49756
 20
5.14606
 30
0.0
 11
1.49957
 21
5.13747
 31
0.0
  0
LINE
  8
0
 62
     0
 10
1.49957
 20
5.13747
 30
0.0
 11
1.5019
 21
5.11074
 31
0.0
  0
LINE
  8
0
 62
     0
 10
1.5019
 20
5.11074
 30
0.0
 11
1.50569
 21
5.04611
 31
0.0
  0
LINE
  8
0
 62
     0
 10
1.50569
 20
5.04611
 30
0.0
 11
1.50896
 21
4.95589
 31
0.0
  0
LINE
  8
0
 62
     0
 10
1.50896
 20
4.95589
 30
0.0
 11
1.51167
 21
4.84375
 31
0.0
  0
LINE
  8
0
 62
     0
 10
1.51167
 20
4.84375
 30
0.0
 11
1.51378
 21
4.71349
 31
0.0
  0
LINE
  8
0
 62
     0
 10
1.51378
 20
4.71349
 30
0.0
 11
1.51535
 21
4.56874
 31
0.0
  0
LINE
  8
0
 62
     0
 10
1.51535
 20
4.56874
 30
0.0
 11
1.51633
 21
4.41331
 31
0.0
  0
LINE
  8
0
 62
     0
 10
1.51633
 20
4.41331
 30
0.0
 11
1.51676
 21
4.25082
 31
0.0
  0
LINE
  8
0
 62
     0
 10
1.51676
 20
4.25082
 30
0.0
 11
1.5166
 21
4.08501
 31
0.0
  0
LINE
  8
0
 62
     0
 10
1.5166
 20
4.08501
 30
0.0
 11
1.5159
 21
3.91971
 31
0.0
  0
LINE
  8
0
 62
     0
 10
1.5159
 20
3.91971
 30
0.0
 11
1.5146
 21
3.75846
 31
0.0
  0
LINE
  8
0
 62
     0
 10
1.5146
 20
3.75846
 30
0.0
 11
1.51269
 21
3.60508
 31
0.0
  0
LINE
  8
0
 62
     0
 10
1.51269
 20
3.60508
 30
0.0
 11
1.51019
 21
3.46332
 31
0.0
  0
LINE
  8
0
 62
     0
 10
1.51019
 20
3.46332
 30
0.0
 11
1.50711
 21
3.33681
 31
0.0
  0
LINE
  8
0
 62
     0
 10
1.50711
 20
3.33681
 30
0.0
 11
1.50347
 21
3.22933
 31
0.0
  0
LINE
  8
0
 62
     0
 10
1.50347
 20
3.22933
 30
0.0
 11
1.50054
 21
3.16575
 31
0.0
  0
LINE
  8
0
 62
     0
 10
1.50054
 20
3.16575
 30
0.0
 11
1.49924
 21
3.14453
 31
0.0
  0
LINE
  8
0
 62
     0
 10
1.49924
 20
3.14453
 30
0.0
 11
1.49826
 21
3.12907
 31
0.0
  0
LINE
  8
0
 62
     0
 10
1.49826
 20
3.12907
 30
0.0
 11
1.49474
 21
3.08251
 31
0.0
  0
LINE
  8
0
 62
     0
 10
1.49474
 20
3.08251
 30
0.0
 11
1.48947
 21
3.04785
 31
0.0
  0
LINE
  8
0
 62
     0
 10
1.48947
 20
3.04785
 30
0.0
 11
1.48074
 21
3.03088
 31
0.0
  0
LINE
  8
0
 62
     0
 10
1.48074
 20
3.03088
 30
0.0
 11
1.46989
 21
3.02344
 31
0.0
  0
LINE
  8
0
 62
     0
 10
1.46989
 20
3.02344
 30
0.0
 11
1.46599
 21
3.02165
 31
0.0
  0
LINE
  8
0
 62
     0
 10
1.46599
 20
3.02165
 30
0.0
 11
1.46235
 21
3.02001
 31
0.0
  0
LINE
  8
0
 62
     0
 10
1.46235
 20
3.02001
 30
0.0
 11
1.43881
 21
3.01628
 31
0.0
  0
LINE
  8
0
 62
     0
 10
1.43881
 20
3.01628
 30
0.0
 11
1.38433
 21
3.01036
 31
0.0
  0
LINE
  8
0
 62
     0
 10
1.38433
 20
3.01036
 30
0.0
 11
1.31044
 21
3.00467
 31
0.0
  0
LINE
  8
0
 62
     0
 10
1.31044
 20
3.00467
 30
0.0
 11
1.24637
 21
3.00088
 31
0.0
  0
LINE
  8
0
 62
     0
 10
1.24637
 20
3.00088
 30
0.0
 11
1.22504
 21
2.99989
 31
0.0
  0
LINE
  8
0
 62
     0
 10
1.22504
 20
2.99989
 30
0.0
 11
1.19043
 21
2.99837
 31
0.0
  0
LINE
  8
0
 62
     0
 10
1.19043
 20
2.99837
 30
0.0
 11
1.08675
 21
2.99224
 31
0.0
  0
LINE
  8
0
 62
     0
 10
1.08675
 20
2.99224
 30
0.0
 11
0.981446
 21
2.98324
 31
0.0
  0
LINE
  8
0
 62
     0
 10
0.981446
 20
2.98324
 30
0.0
 11
0.905871
 21
2.97244
 31
0.0
  0
LINE
  8
0
 62
     0
 10
0.905871
 20
2.97244
 30
0.0
 11
0.868544
 21
2.96403
 31
0.0
  0
LINE
  8
0
 62
     0
 10
0.868544
 20
2.96403
 30
0.0
 11
0.856771
 21
2.95953
 31
0.0
  0
LINE
  8
0
 62
     0
 10
0.856771
 20
2.95953
 30
0.0
 11
0.852701
 21
2.95801
 31
0.0
  0
LINE
  8
0
 62
     0
 10
0.852701
 20
2.95801
 30
0.0
 11
0.841308
 21
2.95139
 31
0.0
  0
LINE
  8
0
 62
     0
 10
0.841308
 20
2.95139
 30
0.0
 11
0.821669
 21
2.93756
 31
0.0
  0
LINE
  8
0
 62
     0
 10
0.821669
 20
2.93756
 30
0.0
 11
0.799425
 21
2.9196
 31
0.0
  0
LINE
  8
0
 62
     0
 10
0.799425
 20
2.9196
 30
0.0
 11
0.776313
 21
2.89908
 31
0.0
  0
LINE
  8
0
 62
     0
 10
0.776313
 20
2.89908
 30
0.0
 11
0.753851
 21
2.8775
 31
0.0
  0
LINE
  8
0
 62
     0
 10
0.753851
 20
2.8775
 30
0.0
 11
0.733832
 21
2.85639
 31
0.0
  0
LINE
  8
0
 62
     0
 10
0.733832
 20
2.85639
 30
0.0
 11
0.717882
 21
2.83735
 31
0.0
  0
LINE
  8
0
 62
     0
 10
0.717882
 20
2.83735
 30
0.0
 11
0.709744
 21
2.8259
 31
0.0
  0
LINE
  8
0
 62
     0
 10
0.709744
 20
2.8259
 30
0.0
 11
0.707628
 21
2.82178
 31
0.0
  0
LINE
  8
0
 62
     0
 10
0.707628
 20
2.82178
 30
0.0
 11
0.70101
 21
2.80903
 31
0.0
  0
LINE
  8
0
 62
     0
 10
0.70101
 20
2.80903
 30
0.0
 11
0.678982
 21
2.7194
 31
0.0
  0
LINE
  8
0
 62
     0
 10
0.678982
 20
2.7194
 30
0.0
 11
0.670899
 21
2.59044
 31
0.0
  0
LINE
  8
0
 62
     0
 10
0.670899
 20
2.59044
 30
0.0
 11
0.671278
 21
2.55806
 31
0.0
  0
LINE
  8
0
 62
     0
 10
0.671278
 20
2.55806
 30
0.0
 11
0.67155
 21
2.52914
 31
0.0
  0
LINE
  8
0
 62
     0
 10
0.67155
 20
2.52914
 30
0.0
 11
0.676432
 21
2.44239
 31
0.0
  0
LINE
  8
0
 62
     0
 10
0.676432
 20
2.44239
 30
0.0
 11
0.691678
 21
2.35753
 31
0.0
  0
LINE
  8
0
 62
     0
 10
0.691678
 20
2.35753
 30
0.0
 11
0.720865
 21
2.28993
 31
0.0
  0
LINE
  8
0
 62
     0
 10
0.720865
 20
2.28993
 30
0.0
 11
0.755154
 21
2.24083
 31
0.0
  0
LINE
  8
0
 62
     0
 10
0.755154
 20
2.24083
 30
0.0
 11
0.768121
 21
2.22575
 31
0.0
  0
LINE
  8
0
 62
     0
 10
0.768121
 20
2.22575
 30
0.0
 11
0.783529
 21
2.20785
 31
0.0
  0
LINE
  8
0
 62
     0
 10
0.783529
 20
2.20785
 30
0.0
 11
0.832303
 21
2.15603
 31
0.0
  0
LINE
  8
0
 62
     0
 10
0.832303
 20
2.15603
 30
0.0
 11
0.906033
 21
2.08333
 31
0.0
  0
LINE
  8
0
 62
     0
 10
0.906033
 20
2.08333
 30
0.0
 11
0.977919
 21
2.0185
 31
0.0
  0
LINE
  8
0
 62
     0
 10
0.977919
 20
2.0185
 30
0.0
 11
1.02116
 21
1.98292
 31
0.0
  0
LINE
  8
0
 62
     0
 10
1.02116
 20
1.98292
 30
0.0
 11
1.03646
 21
1.97233
 31
0.0
  0
LINE
  8
0
 62
     0
 10
1.03646
 20
1.97233
 30
0.0
 11
1.0427
 21
1.96799
 31
0.0
  0
LINE
  8
0
 62
     0
 10
1.0427
 20
1.96799
 30
0.0
 11
1.06022
 21
1.95296
 31
0.0
  0
LINE
  8
0
 62
     0
 10
1.06022
 20
1.95296
 30
0.0
 11
1.09397
 21
1.92165
 31
0.0
  0
LINE
  8
0
 62
     0
 10
1.09397
 20
1.92165
 30
0.0
 11
1.13422
 21
1.88194
 31
0.0
  0
LINE
  8
0
 62
     0
 10
1.13422
 20
1.88194
 30
0.0
 11
1.17768
 21
1.83735
 31
0.0
  0
LINE
  8
0
 62
     0
 10
1.17768
 20
1.83735
 30
0.0
 11
1.22098
 21
1.79135
 31
0.0
  0
LINE
  8
0
 62
     0
 10
1.22098
 20
1.79135
 30
0.0
 11
1.26069
 21
1.74744
 31
0.0
  0
LINE
  8
0
 62
     0
 10
1.26069
 20
1.74744
 30
0.0
 11
1.29357
 21
1.70921
 31
0.0
  0
LINE
  8
0
 62
     0
 10
1.29357
 20
1.70921
 30
0.0
 11
1.31087
 21
1.68761
 31
0.0
  0
LINE
  8
0
 62
     0
 10
1.31087
 20
1.68761
 30
0.0
 11
1.31613
 21
1.68007
 31
0.0
  0
LINE
  8
0
 62
     0
 10
1.31613
 20
1.68007
 30
0.0
 11
1.32791
 21
1.66325
 31
0.0
  0
LINE
  8
0
 62
     0
 10
1.32791
 20
1.66325
 30
0.0
 11
1.35682
 21
1.60818
 31
0.0
  0
LINE
  8
0
 62
     0
 10
1.35682
 20
1.60818
 30
0.0
 11
1.39697
 21
1.51318
 31
0.0
  0
LINE
  8
0
 62
     0
 10
1.39697
 20
1.51318
 30
0.0
 11
1.43224
 21
1.40679
 31
0.0
  0
LINE
  8
0
 62
     0
 10
1.43224
 20
1.40679
 30
0.0
 11
1.45301
 21
1.32731
 31
0.0
  0
LINE
  8
0
 62
     0
 10
1.45301
 20
1.32731
 30
0.0
 11
1.45828
 21
1.30046
 31
0.0
  0
LINE
  8
0
 62
     0
 10
1.45828
 20
1.30046
 30
0.0
 11
1.46132
 21
1.28483
 31
0.0
  0
LINE
  8
0
 62
     0
 10
1.46132
 20
1.28483
 30
0.0
 11
1.46994
 21
1.23774
 31
0.0
  0
LINE
  8
0
 62
     0
 10
1.46994
 20
1.23774
 30
0.0
 11
1.47635
 21
1.18571
 31
0.0
  0
LINE
  8
0
 62
     0
 10
1.47635
 20
1.18571
 30
0.0
 11
1.47564
 21
1.13791
 31
0.0
  0
LINE
  8
0
 62
     0
 10
1.47564
 20
1.13791
 30
0.0
 11
1.46604
 21
1.08762
 31
0.0
  0
LINE
  8
0
 62
     0
 10
1.46604
 20
1.08762
 30
0.0
 11
1.44575
 21
1.02821
 31
0.0
  0
LINE
  8
0
 62
     0
 10
1.44575
 20
1.02821
 30
0.0
 11
1.41292
 21
0.953125
 31
0.0
  0
LINE
  8
0
 62
     0
 10
1.41292
 20
0.953125
 30
0.0
 11
1.36583
 21
0.85574
 31
0.0
  0
LINE
  8
0
 62
     0
 10
1.36583
 20
0.85574
 30
0.0
 11
1.31847
 21
0.76096
 31
0.0
  0
LINE
  8
0
 62
     0
 10
1.31847
 20
0.76096
 30
0.0
 11
1.30263
 21
0.729383
 31
0.0
  0
LINE
  8
0
 62
     0
 10
1.30263
 20
0.729383
 30
0.0
 11
1.29004
 21
0.704482
 31
0.0
  0
LINE
  8
0
 62
     0
 10
1.29004
 20
0.704482
 30
0.0
 11
1.25293
 21
0.62934
 31
0.0
  0
LINE
  8
0
 62
     0
 10
1.25293
 20
0.62934
 30
0.0
 11
1.20492
 21
0.530219
 31
0.0
  0
LINE
  8
0
 62
     0
 10
1.20492
 20
0.530219
 30
0.0
 11
1.16395
 21
0.443414
 31
0.0
  0
LINE
  8
0
 62
     0
 10
1.16395
 20
0.443414
 30
0.0
 11
1.14236
 21
0.396213
 31
0.0
  0
LINE
  8
0
 62
     0
 10
1.14236
 20
0.396213
 30
0.0
 11
1.13563
 21
0.380425
 31
0.0
  0
LINE
  8
0
 62
     0
 10
1.13563
 20
0.380425
 30
0.0
 11
1.12343
 21
0.352106
 31
0.0
  0
LINE
  8
0
 62
     0
 10
1.12343
 20
0.352106
 30
0.0
 11
1.08458
 21
0.267958
 31
0.0
  0
LINE
  8
0
 62
     0
 10
1.08458
 20
0.267958
 30
0.0
 11
1.03038
 21
0.157986
 31
0.0
  0
LINE
  8
0
 62
     0
 10
1.03038
 20
0.157986
 30
0.0
 11
0.983453
 21
0.0710178
 31
0.0
  0
LINE
  8
0
 62
     0
 10
0.983453
 20
0.0710178
 30
0.0
 11
0.959907
 21
0.0324436
 31
0.0
  0
LINE
  8
0
 62
     0
 10
0.959907
 20
0.0324436
 30
0.0
 11
0.954318
 21
0.0273981
 31
0.0
  0
LINE
  8
0
 62
     0
 10
0.954318
 20
0.0273981
 30
0.0
 11
0.949869
 21
0.0233832
 31
0.0
  0
LINE
  8
0
 62
     0
 10
0.949869
 20
0.0233832
 30
0.0
 11
0.933757
 21
0.0143772
 31
0.0
  0
LINE
  8
0
 62
     0
 10
0.933757
 20
0.0143772
 30
0.0
 11
0.906901
 21
0.00743272
 31
0.0
  0
LINE
  8
0
 62
     0
 10
0.906901
 20
0.00743272
 30
0.0
 11
0.872233
 21
0.00645617
 31
0.0
  0
LINE
  8
0
 62
     0
 10
0.872233
 20
0.00645617
 30
0.0
 11
0.839031
 21
0.00949436
 31
0.0
  0
LINE
  8
0
 62
     0
 10
0.839031
 20
0.00949436
 30
0.0
 11
0.828125
 21
0.011122
 31
0.0
  0
ENDSEC
  0
EOF
