  0
SECTION
  2
HEADER
  9
$ACADVER
  1
AC1009
  9
$FILLMODE
 70
 0
  9
$SPLFRAME
 70
 1
  9
$EXTMIN
 10
0
 20
0
 30
0.0
  9
$EXTMAX
 10
41.6667
 20
41.6667
 30
0.0
  0
ENDSEC
  0
SECTION
  2
TABLES
  0
TABLE
  2
LAYER
 70
1
  0
LAYER
  2
0
 70
     0
 62
     7
  6
CONTINUOUS
  0
ENDTAB
  0
ENDSEC
  0
SECTION
  2
ENTITIES
  0
LINE
  8
0
 62
     0
 10
0.324707
 20
0.00585938
 30
0.0
 11
0.298665
 21
0.0131836
 31
0.0
  0
LINE
  8
0
 62
     0
 10
0.298665
 20
0.0131836
 30
0.0
 11
0.295464
 21
0.216635
 31
0.0
  0
LINE
  8
0
 62
     0
 10
0.295464
 20
0.216635
 30
0.0
 11
0.292318
 21
0.420085
 31
0.0
  0
LINE
  8
0
 62
     0
 10
0.292318
 20
0.420085
 30
0.0
 11
0.326118
 21
0.453179
 31
0.0
  0
LINE
  8
0
 62
     0
 10
0.326118
 20
0.453179
 30
0.0
 11
0.330729
 21
0.457736
 31
0.0
  0
LINE
  8
0
 62
     0
 10
0.330729
 20
0.457736
 30
0.0
 11
0.352701
 21
0.476563
 31
0.0
  0
LINE
  8
0
 62
     0
 10
0.352701
 20
0.476563
 30
0.0
 11
0.365126
 21
0.486219
 31
0.0
  0
LINE
  8
0
 62
     0
 10
0.365126
 20
0.486219
 30
0.0
 11
0.369303
 21
0.486219
 31
0.0
  0
LINE
  8
0
 62
     0
 10
0.369303
 20
0.486219
 30
0.0
 11
0.372885
 21
0.486219
 31
0.0
  0
LINE
  8
0
 62
     0
 10
0.372885
 20
0.486219
 30
0.0
 11
0.383681
 21
0.49235
 31
0.0
  0
LINE
  8
0
 62
     0
 10
0.383681
 20
0.49235
 30
0.0
 11
0.401531
 21
0.504178
 31
0.0
  0
LINE
  8
0
 62
     0
 10
0.401531
 20
0.504178
 30
0.0
 11
0.405165
 21
0.507053
 31
0.0
  0
LINE
  8
0
 62
     0
 10
0.405165
 20
0.507053
 30
0.0
 11
0.4088
 21
0.509928
 31
0.0
  0
LINE
  8
0
 62
     0
 10
0.4088
 20
0.509928
 30
0.0
 11
0.429363
 21
0.52181
 31
0.0
  0
LINE
  8
0
 62
     0
 10
0.429363
 20
0.52181
 30
0.0
 11
0.445096
 21
0.527886
 31
0.0
  0
LINE
  8
0
 62
     0
 10
0.445096
 20
0.527886
 30
0.0
 11
0.450358
 21
0.527886
 31
0.0
  0
LINE
  8
0
 62
     0
 10
0.450358
 20
0.527886
 30
0.0
 11
0.456381
 21
0.527886
 31
0.0
  0
LINE
  8
0
 62
     0
 10
0.456381
 20
0.527886
 30
0.0
 11
0.474447
 21
0.538194
 31
0.0
  0
LINE
  8
0
 62
     0
 10
0.474447
 20
0.538194
 30
0.0
 11
0.501085
 21
0.55816
 31
0.0
  0
LINE
  8
0
 62
     0
 10
0.501085
 20
0.55816
 30
0.0
 11
0.506239
 21
0.562935
 31
0.0
  0
LINE
  8
0
 62
     0
 10
0.506239
 20
0.562935
 30
0.0
 11
0.514324
 21
0.570583
 31
0.0
  0
LINE
  8
0
 62
     0
 10
0.514324
 20
0.570583
 30
0.0
 11
0.534125
 21
0.598307
 31
0.0
  0
LINE
  8
0
 62
     0
 10
0.534125
 20
0.598307
 30
0.0
 11
0.544868
 21
0.634603
 31
0.0
  0
LINE
  8
0
 62
     0
 10
0.544868
 20
0.634603
 30
0.0
 11
0.538357
 21
0.670085
 31
0.0
  0
LINE
  8
0
 62
     0
 10
0.538357
 20
0.670085
 30
0.0
 11
0.521756
 21
0.696181
 31
0.0
  0
LINE
  8
0
 62
     0
 10
0.521756
 20
0.696181
 30
0.0
 11
0.51454
 21
0.703125
 31
0.0
  0
LINE
  8
0
 62
     0
 10
0.51454
 20
0.703125
 30
0.0
 11
0.497017
 21
0.719997
 31
0.0
  0
LINE
  8
0
 62
     0
 10
0.497017
 20
0.719997
 30
0.0
 11
0.442708
 21
0.768772
 31
0.0
  0
LINE
  8
0
 62
     0
 10
0.442708
 20
0.768772
 30
0.0
 11
0.368218
 21
0.831
 31
0.0
  0
LINE
  8
0
 62
     0
 10
0.368218
 20
0.831
 30
0.0
 11
0.301107
 21
0.88189
 31
0.0
  0
LINE
  8
0
 62
     0
 10
0.301107
 20
0.88189
 30
0.0
 11
0.263889
 21
0.90701
 31
0.0
  0
LINE
  8
0
 62
     0
 10
0.263889
 20
0.90701
 30
0.0
 11
0.251303
 21
0.913357
 31
0.0
  0
LINE
  8
0
 62
     0
 10
0.251303
 20
0.913357
 30
0.0
 11
0.244846
 21
0.916667
 31
0.0
  0
LINE
  8
0
 62
     0
 10
0.244846
 20
0.916667
 30
0.0
 11
0.226183
 21
0.927897
 31
0.0
  0
LINE
  8
0
 62
     0
 10
0.226183
 20
0.927897
 30
0.0
 11
0.200683
 21
0.945583
 31
0.0
  0
LINE
  8
0
 62
     0
 10
0.200683
 20
0.945583
 30
0.0
 11
0.177626
 21
0.964301
 31
0.0
  0
LINE
  8
0
 62
     0
 10
0.177626
 20
0.964301
 30
0.0
 11
0.164117
 21
0.977106
 31
0.0
  0
LINE
  8
0
 62
     0
 10
0.164117
 20
0.977106
 30
0.0
 11
0.160157
 21
0.981771
 31
0.0
  0
LINE
  8
0
 62
     0
 10
0.160157
 20
0.981771
 30
0.0
 11
0.12679
 21
1.02083
 31
0.0
  0
LINE
  8
0
 62
     0
 10
0.12679
 20
1.02083
 30
0.0
 11
0.12679
 21
1.2468
 31
0.0
  0
LINE
  8
0
 62
     0
 10
0.12679
 20
1.2468
 30
0.0
 11
0.12679
 21
1.27897
 31
0.0
  0
LINE
  8
0
 62
     0
 10
0.12679
 20
1.27897
 30
0.0
 11
0.127224
 21
1.37538
 31
0.0
  0
LINE
  8
0
 62
     0
 10
0.127224
 20
1.37538
 30
0.0
 11
0.129937
 21
1.44564
 31
0.0
  0
LINE
  8
0
 62
     0
 10
0.129937
 20
1.44564
 30
0.0
 11
0.136882
 21
1.47922
 31
0.0
  0
LINE
  8
0
 62
     0
 10
0.136882
 20
1.47922
 30
0.0
 11
0.146322
 21
1.49365
 31
0.0
  0
LINE
  8
0
 62
     0
 10
0.146322
 20
1.49365
 30
0.0
 11
0.150228
 21
1.49772
 31
0.0
  0
LINE
  8
0
 62
     0
 10
0.150228
 20
1.49772
 30
0.0
 11
0.158963
 21
1.50706
 31
0.0
  0
LINE
  8
0
 62
     0
 10
0.158963
 20
1.50706
 30
0.0
 11
0.187283
 21
1.53304
 31
0.0
  0
LINE
  8
0
 62
     0
 10
0.187283
 20
1.53304
 30
0.0
 11
0.232206
 21
1.56901
 31
0.0
  0
LINE
  8
0
 62
     0
 10
0.232206
 20
1.56901
 30
0.0
 11
0.281033
 21
1.60275
 31
0.0
  0
LINE
  8
0
 62
     0
 10
0.281033
 20
1.60275
 30
0.0
 11
0.317383
 21
1.62478
 31
0.0
  0
LINE
  8
0
 62
     0
 10
0.317383
 20
1.62478
 30
0.0
 11
0.329915
 21
1.63135
 31
0.0
  0
LINE
  8
0
 62
     0
 10
0.329915
 20
1.63135
 30
0.0
 11
0.356174
 21
1.64524
 31
0.0
  0
LINE
  8
0
 62
     0
 10
0.356174
 20
1.64524
 30
0.0
 11
0.433431
 21
1.69
 31
0.0
  0
LINE
  8
0
 62
     0
 10
0.433431
 20
1.69
 30
0.0
 11
0.502929
 21
1.74001
 31
0.0
  0
LINE
  8
0
 62
     0
 10
0.502929
 20
1.74001
 30
0.0
 11
0.54476
 21
1.78717
 31
0.0
  0
LINE
  8
0
 62
     0
 10
0.54476
 20
1.78717
 30
0.0
 11
0.562446
 21
1.82406
 31
0.0
  0
LINE
  8
0
 62
     0
 10
0.562446
 20
1.82406
 30
0.0
 11
0.565483
 21
1.83697
 31
0.0
  0
LINE
  8
0
 62
     0
 10
0.565483
 20
1.83697
 30
0.0
 11
0.567165
 21
1.8444
 31
0.0
  0
LINE
  8
0
 62
     0
 10
0.567165
 20
1.8444
 30
0.0
 11
0.571994
 21
1.88803
 31
0.0
  0
LINE
  8
0
 62
     0
 10
0.571994
 20
1.88803
 30
0.0
 11
0.571343
 21
1.93033
 31
0.0
  0
LINE
  8
0
 62
     0
 10
0.571343
 20
1.93033
 30
0.0
 11
0.570367
 21
1.93713
 31
0.0
  0
LINE
  8
0
 62
     0
 10
0.570367
 20
1.93713
 30
0.0
 11
0.569282
 21
1.94433
 31
0.0
  0
LINE
  8
0
 62
     0
 10
0.569282
 20
1.94433
 30
0.0
 11
0.563476
 21
1.9656
 31
0.0
  0
LINE
  8
0
 62
     0
 10
0.563476
 20
1.9656
 30
0.0
 11
0.548286
 21
1.99388
 31
0.0
  0
LINE
  8
0
 62
     0
 10
0.548286
 20
1.99388
 30
0.0
 11
0.518826
 21
2.0306
 31
0.0
  0
LINE
  8
0
 62
     0
 10
0.518826
 20
2.0306
 30
0.0
 11
0.481554
 21
2.07129
 31
0.0
  0
LINE
  8
0
 62
     0
 10
0.481554
 20
2.07129
 30
0.0
 11
0.468967
 21
2.08458
 31
0.0
  0
LINE
  8
0
 62
     0
 10
0.468967
 20
2.08458
 30
0.0
 11
0.457465
 21
2.09674
 31
0.0
  0
LINE
  8
0
 62
     0
 10
0.457465
 20
2.09674
 30
0.0
 11
0.422364
 21
2.13238
 31
0.0
  0
LINE
  8
0
 62
     0
 10
0.422364
 20
2.13238
 30
0.0
 11
0.388835
 21
2.16308
 31
0.0
  0
LINE
  8
0
 62
     0
 10
0.388835
 20
2.16308
 30
0.0
 11
0.364908
 21
2.17953
 31
0.0
  0
LINE
  8
0
 62
     0
 10
0.364908
 20
2.17953
 30
0.0
 11
0.351563
 21
2.1844
 31
0.0
  0
LINE
  8
0
 62
     0
 10
0.351563
 20
2.1844
 30
0.0
 11
0.347114
 21
2.18446
 31
0.0
  0
LINE
  8
0
 62
     0
 10
0.347114
 20
2.18446
 30
0.0
 11
0.343317
 21
2.18451
 31
0.0
  0
LINE
  8
0
 62
     0
 10
0.343317
 20
2.18451
 30
0.0
 11
0.310926
 21
2.19049
 31
0.0
  0
LINE
  8
0
 62
     0
 10
0.310926
 20
2.19049
 30
0.0
 11
0.270508
 21
2.20171
 31
0.0
  0
LINE
  8
0
 62
     0
 10
0.270508
 20
2.20171
 30
0.0
 11
0.26275
 21
2.20437
 31
0.0
  0
LINE
  8
0
 62
     0
 10
0.26275
 20
2.20437
 30
0.0
 11
0.25255
 21
2.2079
 31
0.0
  0
LINE
  8
0
 62
     0
 10
0.25255
 20
2.2079
 30
0.0
 11
0.223036
 21
2.22168
 31
0.0
  0
LINE
  8
0
 62
     0
 10
0.223036
 20
2.22168
 30
0.0
 11
0.200358
 21
2.24388
 31
0.0
  0
LINE
  8
0
 62
     0
 10
0.200358
 20
2.24388
 30
0.0
 11
0.190864
 21
2.27772
 31
0.0
  0
LINE
  8
0
 62
     0
 10
0.190864
 20
2.27772
 30
0.0
 11
0.189942
 21
2.31694
 31
0.0
  0
LINE
  8
0
 62
     0
 10
0.189942
 20
2.31694
 30
0.0
 11
0.190593
 21
2.32997
 31
0.0
  0
LINE
  8
0
 62
     0
 10
0.190593
 20
2.32997
 30
0.0
 11
0.191297
 21
2.34549
 31
0.0
  0
LINE
  8
0
 62
     0
 10
0.191297
 20
2.34549
 30
0.0
 11
0.188097
 21
2.39231
 31
0.0
  0
LINE
  8
0
 62
     0
 10
0.188097
 20
2.39231
 30
0.0
 11
0.174371
 21
2.43804
 31
0.0
  0
LINE
  8
0
 62
     0
 10
0.174371
 20
2.43804
 30
0.0
 11
0.149849
 21
2.46619
 31
0.0
  0
LINE
  8
0
 62
     0
 10
0.149849
 20
2.46619
 30
0.0
 11
0.123806
 21
2.47581
 31
0.0
  0
LINE
  8
0
 62
     0
 10
0.123806
 20
2.47581
 30
0.0
 11
0.115126
 21
2.47581
 31
0.0
  0
LINE
  8
0
 62
     0
 10
0.115126
 20
2.47581
 30
0.0
 11
0.108941
 21
2.47581
 31
0.0
  0
LINE
  8
0
 62
     0
 10
0.108941
 20
2.47581
 30
0.0
 11
0.090549
 21
2.48128
 31
0.0
  0
LINE
  8
0
 62
     0
 10
0.090549
 20
2.48128
 30
0.0
 11
0.0764432
 21
2.49333
 31
0.0
  0
LINE
  8
0
 62
     0
 10
0.0764432
 20
2.49333
 30
0.0
 11
0.0747071
 21
2.49664
 31
0.0
  0
LINE
  8
0
 62
     0
 10
0.0747071
 20
2.49664
 30
0.0
 11
0.0731337
 21
2.49951
 31
0.0
  0
LINE
  8
0
 62
     0
 10
0.0731337
 20
2.49951
 30
0.0
 11
0.0611436
 21
2.51139
 31
0.0
  0
LINE
  8
0
 62
     0
 10
0.0611436
 20
2.51139
 30
0.0
 11
0.0484483
 21
2.51747
 31
0.0
  0
LINE
  8
0
 62
     0
 10
0.0484483
 20
2.51747
 30
0.0
 11
0.0442165
 21
2.51747
 31
0.0
  0
LINE
  8
0
 62
     0
 10
0.0442165
 20
2.51747
 30
0.0
 11
0.0418294
 21
2.51747
 31
0.0
  0
LINE
  8
0
 62
     0
 10
0.0418294
 20
2.51747
 30
0.0
 11
0.0347222
 21
2.51942
 31
0.0
  0
LINE
  8
0
 62
     0
 10
0.0347222
 20
2.51942
 30
0.0
 11
0.0272894
 21
2.52772
 31
0.0
  0
LINE
  8
0
 62
     0
 10
0.0272894
 20
2.52772
 30
0.0
 11
0.0215929
 21
2.54601
 31
0.0
  0
LINE
  8
0
 62
     0
 10
0.0215929
 20
2.54601
 30
0.0
 11
0.0172526
 21
2.57807
 31
0.0
  0
LINE
  8
0
 62
     0
 10
0.0172526
 20
2.57807
 30
0.0
 11
0.0138346
 21
2.6275
 31
0.0
  0
LINE
  8
0
 62
     0
 10
0.0138346
 20
2.6275
 30
0.0
 11
0.011122
 21
2.69803
 31
0.0
  0
LINE
  8
0
 62
     0
 10
0.011122
 20
2.69803
 30
0.0
 11
0.00868056
 21
2.79335
 31
0.0
  0
LINE
  8
0
 62
     0
 10
0.00868056
 20
2.79335
 30
0.0
 11
0.00678168
 21
2.88624
 31
0.0
  0
LINE
  8
0
 62
     0
 10
0.00678168
 20
2.88624
 30
0.0
 11
0.00623915
 21
2.91715
 31
0.0
  0
LINE
  8
0
 62
     0
 10
0.00623915
 20
2.91715
 30
0.0
 11
0
 21
3.24914
 31
0.0
  0
LINE
  8
0
 62
     0
 10
0
 20
3.24914
 30
0.0
 11
0.0394422
 21
3.28956
 31
0.0
  0
LINE
  8
0
 62
     0
 10
0.0394422
 20
3.28956
 30
0.0
 11
0.0448676
 21
3.29514
 31
0.0
  0
LINE
  8
0
 62
     0
 10
0.0448676
 20
3.29514
 30
0.0
 11
0.0708008
 21
3.31808
 31
0.0
  0
LINE
  8
0
 62
     0
 10
0.0708008
 20
3.31808
 30
0.0
 11
0.0857747
 21
3.32997
 31
0.0
  0
LINE
  8
0
 62
     0
 10
0.0857747
 20
3.32997
 30
0.0
 11
0.0908203
 21
3.32997
 31
0.0
  0
LINE
  8
0
 62
     0
 10
0.0908203
 20
3.32997
 30
0.0
 11
0.0960286
 21
3.32997
 31
0.0
  0
LINE
  8
0
 62
     0
 10
0.0960286
 20
3.32997
 30
0.0
 11
0.111708
 21
3.33561
 31
0.0
  0
LINE
  8
0
 62
     0
 10
0.111708
 20
3.33561
 30
0.0
 11
0.145128
 21
3.35161
 31
0.0
  0
LINE
  8
0
 62
     0
 10
0.145128
 20
3.35161
 30
0.0
 11
0.188857
 21
3.37685
 31
0.0
  0
LINE
  8
0
 62
     0
 10
0.188857
 20
3.37685
 30
0.0
 11
0.227865
 21
3.40153
 31
0.0
  0
LINE
  8
0
 62
     0
 10
0.227865
 20
3.40153
 30
0.0
 11
0.240668
 21
3.41004
 31
0.0
  0
LINE
  8
0
 62
     0
 10
0.240668
 20
3.41004
 30
0.0
 11
0.24745
 21
3.41461
 31
0.0
  0
LINE
  8
0
 62
     0
 10
0.24745
 20
3.41461
 30
0.0
 11
0.268446
 21
3.42751
 31
0.0
  0
LINE
  8
0
 62
     0
 10
0.268446
 20
3.42751
 30
0.0
 11
0.29465
 21
3.44179
 31
0.0
  0
LINE
  8
0
 62
     0
 10
0.29465
 20
3.44179
 30
0.0
 11
0.316189
 21
3.45144
 31
0.0
  0
LINE
  8
0
 62
     0
 10
0.316189
 20
3.45144
 30
0.0
 11
0.326714
 21
3.45497
 31
0.0
  0
LINE
  8
0
 62
     0
 10
0.326714
 20
3.45497
 30
0.0
 11
0.33024
 21
3.45497
 31
0.0
  0
LINE
  8
0
 62
     0
 10
0.33024
 20
3.45497
 30
0.0
 11
0.336751
 21
3.45497
 31
0.0
  0
LINE
  8
0
 62
     0
 10
0.336751
 20
3.45497
 30
0.0
 11
0.356392
 21
3.46115
 31
0.0
  0
LINE
  8
0
 62
     0
 10
0.356392
 20
3.46115
 30
0.0
 11
0.374024
 21
3.48062
 31
0.0
  0
LINE
  8
0
 62
     0
 10
0.374024
 20
3.48062
 30
0.0
 11
0.384006
 21
3.51508
 31
0.0
  0
LINE
  8
0
 62
     0
 10
0.384006
 20
3.51508
 30
0.0
 11
0.387207
 21
3.55339
 31
0.0
  0
LINE
  8
0
 62
     0
 10
0.387207
 20
3.55339
 30
0.0
 11
0.387207
 21
3.56614
 31
0.0
  0
LINE
  8
0
 62
     0
 10
0.387207
 20
3.56614
 30
0.0
 11
0.387207
 21
3.57476
 31
0.0
  0
LINE
  8
0
 62
     0
 10
0.387207
 20
3.57476
 30
0.0
 11
0.38661
 21
3.60047
 31
0.0
  0
LINE
  8
0
 62
     0
 10
0.38661
 20
3.60047
 30
0.0
 11
0.383518
 21
3.62674
 31
0.0
  0
LINE
  8
0
 62
     0
 10
0.383518
 20
3.62674
 30
0.0
 11
0.375976
 21
3.64632
 31
0.0
  0
LINE
  8
0
 62
     0
 10
0.375976
 20
3.64632
 30
0.0
 11
0.361979
 21
3.6606
 31
0.0
  0
LINE
  8
0
 62
     0
 10
0.361979
 20
3.6606
 30
0.0
 11
0.339681
 21
3.67074
 31
0.0
  0
LINE
  8
0
 62
     0
 10
0.339681
 20
3.67074
 30
0.0
 11
0.307021
 21
3.67817
 31
0.0
  0
LINE
  8
0
 62
     0
 10
0.307021
 20
3.67817
 30
0.0
 11
0.262044
 21
3.68419
 31
0.0
  0
LINE
  8
0
 62
     0
 10
0.262044
 20
3.68419
 30
0.0
 11
0.217611
 21
3.68869
 31
0.0
  0
LINE
  8
0
 62
     0
 10
0.217611
 20
3.68869
 30
0.0
 11
0.202854
 21
3.69006
 31
0.0
  0
LINE
  8
0
 62
     0
 10
0.202854
 20
3.69006
 30
0.0
 11
0.185058
 21
3.69174
 31
0.0
  0
LINE
  8
0
 62
     0
 10
0.185058
 20
3.69174
 30
0.0
 11
0.131727
 21
3.69754
 31
0.0
  0
LINE
  8
0
 62
     0
 10
0.131727
 20
3.69754
 30
0.0
 11
0.085829
 21
3.70454
 31
0.0
  0
LINE
  8
0
 62
     0
 10
0.085829
 20
3.70454
 30
0.0
 11
0.059299
 21
3.71224
 31
0.0
  0
LINE
  8
0
 62
     0
 10
0.059299
 20
3.71224
 30
0.0
 11
0.0486654
 21
3.71875
 31
0.0
  0
LINE
  8
0
 62
     0
 10
0.0486654
 20
3.71875
 30
0.0
 11
0.046441
 21
3.72185
 31
0.0
  0
LINE
  8
0
 62
     0
 10
0.046441
 20
3.72185
 30
0.0
 11
0.0428603
 21
3.72672
 31
0.0
  0
LINE
  8
0
 62
     0
 10
0.0428603
 20
3.72672
 30
0.0
 11
0.0378689
 21
3.74631
 31
0.0
  0
LINE
  8
0
 62
     0
 10
0.0378689
 20
3.74631
 30
0.0
 11
0.0336914
 21
3.78608
 31
0.0
  0
LINE
  8
0
 62
     0
 10
0.0336914
 20
3.78608
 30
0.0
 11
0.0341797
 21
3.83421
 31
0.0
  0
LINE
  8
0
 62
     0
 10
0.0341797
 20
3.83421
 30
0.0
 11
0.0375435
 21
3.87158
 31
0.0
  0
LINE
  8
0
 62
     0
 10
0.0375435
 20
3.87158
 30
0.0
 11
0.039605
 21
3.88385
 31
0.0
  0
LINE
  8
0
 62
     0
 10
0.039605
 20
3.88385
 30
0.0
 11
0.0405274
 21
3.88949
 31
0.0
  0
LINE
  8
0
 62
     0
 10
0.0405274
 20
3.88949
 30
0.0
 11
0.0444336
 21
3.90619
 31
0.0
  0
LINE
  8
0
 62
     0
 10
0.0444336
 20
3.90619
 30
0.0
 11
0.0545247
 21
3.91928
 31
0.0
  0
LINE
  8
0
 62
     0
 10
0.0545247
 20
3.91928
 30
0.0
 11
0.0773113
 21
3.92806
 31
0.0
  0
LINE
  8
0
 62
     0
 10
0.0773113
 20
3.92806
 30
0.0
 11
0.109429
 21
3.93528
 31
0.0
  0
LINE
  8
0
 62
     0
 10
0.109429
 20
3.93528
 30
0.0
 11
0.120226
 21
3.93744
 31
0.0
  0
LINE
  8
0
 62
     0
 10
0.120226
 20
3.93744
 30
0.0
 11
0.167914
 21
3.94732
 31
0.0
  0
LINE
  8
0
 62
     0
 10
0.167914
 20
3.94732
 30
0.0
 11
0.312989
 21
3.96718
 31
0.0
  0
LINE
  8
0
 62
     0
 10
0.312989
 20
3.96718
 30
0.0
 11
0.52029
 21
3.98346
 31
0.0
  0
LINE
  8
0
 62
     0
 10
0.52029
 20
3.98346
 30
0.0
 11
0.707194
 21
3.98481
 31
0.0
  0
LINE
  8
0
 62
     0
 10
0.707194
 20
3.98481
 30
0.0
 11
0.808051
 21
3.9776
 31
0.0
  0
LINE
  8
0
 62
     0
 10
0.808051
 20
3.9776
 30
0.0
 11
0.838813
 21
3.96962
 31
0.0
  0
LINE
  8
0
 62
     0
 10
0.838813
 20
3.96962
 30
0.0
 11
0.847439
 21
3.96739
 31
0.0
  0
LINE
  8
0
 62
     0
 10
0.847439
 20
3.96739
 30
0.0
 11
0.873753
 21
3.96213
 31
0.0
  0
LINE
  8
0
 62
     0
 10
0.873753
 20
3.96213
 30
0.0
 11
0.921604
 21
3.954
 31
0.0
  0
LINE
  8
0
 62
     0
 10
0.921604
 20
3.954
 30
0.0
 11
0.976074
 21
3.94618
 31
0.0
  0
LINE
  8
0
 62
     0
 10
0.976074
 20
3.94618
 30
0.0
 11
1.01714
 21
3.94108
 31
0.0
  0
LINE
  8
0
 62
     0
 10
1.01714
 20
3.94108
 30
0.0
 11
1.03087
 21
3.93961
 31
0.0
  0
LINE
  8
0
 62
     0
 10
1.03087
 20
3.93961
 30
0.0
 11
1.0434
 21
3.93832
 31
0.0
  0
LINE
  8
0
 62
     0
 10
1.0434
 20
3.93832
 30
0.0
 11
1.081
 21
3.93403
 31
0.0
  0
LINE
  8
0
 62
     0
 10
1.081
 20
3.93403
 30
0.0
 11
1.12299
 21
3.92854
 31
0.0
  0
LINE
  8
0
 62
     0
 10
1.12299
 20
3.92854
 30
0.0
 11
1.15229
 21
3.92383
 31
0.0
  0
LINE
  8
0
 62
     0
 10
1.15229
 20
3.92383
 30
0.0
 11
1.16385
 21
3.92133
 31
0.0
  0
LINE
  8
0
 62
     0
 10
1.16385
 20
3.92133
 30
0.0
 11
1.16466
 21
3.92051
 31
0.0
  0
LINE
  8
0
 62
     0
 10
1.16466
 20
3.92051
 30
0.0
 11
1.16808
 21
3.91715
 31
0.0
  0
LINE
  8
0
 62
     0
 10
1.16808
 20
3.91715
 30
0.0
 11
1.17627
 21
3.88092
 31
0.0
  0
LINE
  8
0
 62
     0
 10
1.17627
 20
3.88092
 30
0.0
 11
1.18853
 21
3.8004
 31
0.0
  0
LINE
  8
0
 62
     0
 10
1.18853
 20
3.8004
 30
0.0
 11
1.19802
 21
3.70583
 31
0.0
  0
LINE
  8
0
 62
     0
 10
1.19802
 20
3.70583
 30
0.0
 11
1.20171
 21
3.64453
 31
0.0
  0
LINE
  8
0
 62
     0
 10
1.20171
 20
3.64453
 30
0.0
 11
1.2015
 21
3.62408
 31
0.0
  0
LINE
  8
0
 62
     0
 10
1.2015
 20
3.62408
 30
0.0
 11
1.20128
 21
3.60531
 31
0.0
  0
LINE
  8
0
 62
     0
 10
1.20128
 20
3.60531
 30
0.0
 11
1.19743
 21
3.54889
 31
0.0
  0
LINE
  8
0
 62
     0
 10
1.19743
 20
3.54889
 30
0.0
 11
1.18452
 21
3.49729
 31
0.0
  0
LINE
  8
0
 62
     0
 10
1.18452
 20
3.49729
 30
0.0
 11
1.15902
 21
3.46061
 31
0.0
  0
LINE
  8
0
 62
     0
 10
1.15902
 20
3.46061
 30
0.0
 11
1.1282
 21
3.43653
 31
0.0
  0
LINE
  8
0
 62
     0
 10
1.1282
 20
3.43653
 30
0.0
 11
1.11708
 21
3.4299
 31
0.0
  0
LINE
  8
0
 62
     0
 10
1.11708
 20
3.4299
 30
0.0
 11
1.11019
 21
3.42589
 31
0.0
  0
LINE
  8
0
 62
     0
 10
1.11019
 20
3.42589
 30
0.0
 11
1.09022
 21
3.4126
 31
0.0
  0
LINE
  8
0
 62
     0
 10
1.09022
 20
3.4126
 30
0.0
 11
1.07292
 21
3.39654
 31
0.0
  0
LINE
  8
0
 62
     0
 10
1.07292
 20
3.39654
 30
0.0
 11
1.06185
 21
3.37765
 31
0.0
  0
LINE
  8
0
 62
     0
 10
1.06185
 20
3.37765
 30
0.0
 11
1.05523
 21
3.35835
 31
0.0
  0
LINE
  8
0
 62
     0
 10
1.05523
 20
3.35835
 30
0.0
 11
1.05355
 21
3.35178
 31
0.0
  0
LINE
  8
0
 62
     0
 10
1.05355
 20
3.35178
 30
0.0
 11
1.0498
 21
3.33757
 31
0.0
  0
LINE
  8
0
 62
     0
 10
1.0498
 20
3.33757
 30
0.0
 11
1.0376
 21
3.29519
 31
0.0
  0
LINE
  8
0
 62
     0
 10
1.0376
 20
3.29519
 30
0.0
 11
1.02322
 21
3.25521
 31
0.0
  0
LINE
  8
0
 62
     0
 10
1.02322
 20
3.25521
 30
0.0
 11
1.00792
 21
3.22629
 31
0.0
  0
LINE
  8
0
 62
     0
 10
1.00792
 20
3.22629
 30
0.0
 11
0.994358
 21
3.20822
 31
0.0
  0
LINE
  8
0
 62
     0
 10
0.994358
 20
3.20822
 30
0.0
 11
0.989258
 21
3.20275
 31
0.0
  0
LINE
  8
0
 62
     0
 10
0.989258
 20
3.20275
 30
0.0
 11
0.985026
 21
3.19824
 31
0.0
  0
LINE
  8
0
 62
     0
 10
0.985026
 20
3.19824
 30
0.0
 11
0.971571
 21
3.18549
 31
0.0
  0
LINE
  8
0
 62
     0
 10
0.971571
 20
3.18549
 30
0.0
 11
0.953504
 21
3.17731
 31
0.0
  0
LINE
  8
0
 62
     0
 10
0.953504
 20
3.17731
 30
0.0
 11
0.924317
 21
3.17606
 31
0.0
  0
LINE
  8
0
 62
     0
 10
0.924317
 20
3.17606
 30
0.0
 11
0.886068
 21
3.17865
 31
0.0
  0
LINE
  8
0
 62
     0
 10
0.886068
 20
3.17865
 30
0.0
 11
0.873372
 21
3.17964
 31
0.0
  0
LINE
  8
0
 62
     0
 10
0.873372
 20
3.17964
 30
0.0
 11
0.861436
 21
3.18061
 31
0.0
  0
LINE
  8
0
 62
     0
 10
0.861436
 20
3.18061
 30
0.0
 11
0.825683
 21
3.18289
 31
0.0
  0
LINE
  8
0
 62
     0
 10
0.825683
 20
3.18289
 30
0.0
 11
0.79655
 21
3.18229
 31
0.0
  0
LINE
  8
0
 62
     0
 10
0.79655
 20
3.18229
 30
0.0
 11
0.778646
 21
3.17703
 31
0.0
  0
LINE
  8
0
 62
     0
 10
0.778646
 20
3.17703
 30
0.0
 11
0.768067
 21
3.16922
 31
0.0
  0
LINE
  8
0
 62
     0
 10
0.768067
 20
3.16922
 30
0.0
 11
0.765028
 21
3.16613
 31
0.0
  0
LINE
  8
0
 62
     0
 10
0.765028
 20
3.16613
 30
0.0
 11
0.762153
 21
3.16331
 31
0.0
  0
LINE
  8
0
 62
     0
 10
0.762153
 20
3.16331
 30
0.0
 11
0.74159
 21
3.14942
 31
0.0
  0
LINE
  8
0
 62
     0
 10
0.74159
 20
3.14942
 30
0.0
 11
0.718371
 21
3.13911
 31
0.0
  0
LINE
  8
0
 62
     0
 10
0.718371
 20
3.13911
 30
0.0
 11
0.714247
 21
3.13807
 31
0.0
  0
LINE
  8
0
 62
     0
 10
0.714247
 20
3.13807
 30
0.0
 11
0.695421
 21
3.13351
 31
0.0
  0
LINE
  8
0
 62
     0
 10
0.695421
 20
3.13351
 30
0.0
 11
0.639324
 21
3.11871
 31
0.0
  0
LINE
  8
0
 62
     0
 10
0.639324
 20
3.11871
 30
0.0
 11
0.596789
 21
3.10335
 31
0.0
  0
LINE
  8
0
 62
     0
 10
0.596789
 20
3.10335
 30
0.0
 11
0.57666
 21
3.08686
 31
0.0
  0
LINE
  8
0
 62
     0
 10
0.57666
 20
3.08686
 30
0.0
 11
0.569824
 21
3.06999
 31
0.0
  0
LINE
  8
0
 62
     0
 10
0.569824
 20
3.06999
 30
0.0
 11
0.568739
 21
3.06413
 31
0.0
  0
LINE
  8
0
 62
     0
 10
0.568739
 20
3.06413
 30
0.0
 11
0.565864
 21
3.04889
 31
0.0
  0
LINE
  8
0
 62
     0
 10
0.565864
 20
3.04889
 30
0.0
 11
0.563043
 21
3.00201
 31
0.0
  0
LINE
  8
0
 62
     0
 10
0.563043
 20
3.00201
 30
0.0
 11
0.565972
 21
2.93197
 31
0.0
  0
LINE
  8
0
 62
     0
 10
0.565972
 20
2.93197
 30
0.0
 11
0.576606
 21
2.86393
 31
0.0
  0
LINE
  8
0
 62
     0
 10
0.576606
 20
2.86393
 30
0.0
 11
0.588162
 21
2.82096
 31
0.0
  0
LINE
  8
0
 62
     0
 10
0.588162
 20
2.82096
 30
0.0
 11
0.593967
 21
2.80746
 31
0.0
  0
LINE
  8
0
 62
     0
 10
0.593967
 20
2.80746
 30
0.0
 11
0.596843
 21
2.80078
 31
0.0
  0
LINE
  8
0
 62
     0
 10
0.596843
 20
2.80078
 30
0.0
 11
0.608128
 21
2.78185
 31
0.0
  0
LINE
  8
0
 62
     0
 10
0.608128
 20
2.78185
 30
0.0
 11
0.630533
 21
2.75071
 31
0.0
  0
LINE
  8
0
 62
     0
 10
0.630533
 20
2.75071
 30
0.0
 11
0.659614
 21
2.7161
 31
0.0
  0
LINE
  8
0
 62
     0
 10
0.659614
 20
2.7161
 30
0.0
 11
0.68495
 21
2.68875
 31
0.0
  0
LINE
  8
0
 62
     0
 10
0.68495
 20
2.68875
 30
0.0
 11
0.693739
 21
2.67996
 31
0.0
  0
LINE
  8
0
 62
     0
 10
0.693739
 20
2.67996
 30
0.0
 11
0.703831
 21
2.66986
 31
0.0
  0
LINE
  8
0
 62
     0
 10
0.703831
 20
2.66986
 30
0.0
 11
0.734972
 21
2.64019
 31
0.0
  0
LINE
  8
0
 62
     0
 10
0.734972
 20
2.64019
 30
0.0
 11
0.765517
 21
2.61501
 31
0.0
  0
LINE
  8
0
 62
     0
 10
0.765517
 20
2.61501
 30
0.0
 11
0.79031
 21
2.60097
 31
0.0
  0
LINE
  8
0
 62
     0
 10
0.79031
 20
2.60097
 30
0.0
 11
0.808376
 21
2.59532
 31
0.0
  0
LINE
  8
0
 62
     0
 10
0.808376
 20
2.59532
 30
0.0
 11
0.814561
 21
2.59435
 31
0.0
  0
LINE
  8
0
 62
     0
 10
0.814561
 20
2.59435
 30
0.0
 11
0.82156
 21
2.59326
 31
0.0
  0
LINE
  8
0
 62
     0
 10
0.82156
 20
2.59326
 30
0.0
 11
0.852322
 21
2.58182
 31
0.0
  0
LINE
  8
0
 62
     0
 10
0.852322
 20
2.58182
 30
0.0
 11
0.87755
 21
2.56244
 31
0.0
  0
LINE
  8
0
 62
     0
 10
0.87755
 20
2.56244
 30
0.0
 11
0.881836
 21
2.55735
 31
0.0
  0
LINE
  8
0
 62
     0
 10
0.881836
 20
2.55735
 30
0.0
 11
0.885308
 21
2.55322
 31
0.0
  0
LINE
  8
0
 62
     0
 10
0.885308
 20
2.55322
 30
0.0
 11
0.910374
 21
2.53157
 31
0.0
  0
LINE
  8
0
 62
     0
 10
0.910374
 20
2.53157
 30
0.0
 11
0.938206
 21
2.51417
 31
0.0
  0
LINE
  8
0
 62
     0
 10
0.938206
 20
2.51417
 30
0.0
 11
0.943143
 21
2.5121
 31
0.0
  0
LINE
  8
0
 62
     0
 10
0.943143
 20
2.5121
 30
0.0
 11
0.979004
 21
2.49713
 31
0.0
  0
LINE
  8
0
 62
     0
 10
0.979004
 20
2.49713
 30
0.0
 11
0.979004
 21
2.34847
 31
0.0
  0
LINE
  8
0
 62
     0
 10
0.979004
 20
2.34847
 30
0.0
 11
0.979004
 21
2.30897
 31
0.0
  0
LINE
  8
0
 62
     0
 10
0.979004
 20
2.30897
 30
0.0
 11
0.980143
 21
2.19038
 31
0.0
  0
LINE
  8
0
 62
     0
 10
0.980143
 20
2.19038
 30
0.0
 11
0.984158
 21
2.08703
 31
0.0
  0
LINE
  8
0
 62
     0
 10
0.984158
 20
2.08703
 30
0.0
 11
0.991536
 21
2.03022
 31
0.0
  0
LINE
  8
0
 62
     0
 10
0.991536
 20
2.03022
 30
0.0
 11
0.999403
 21
2.01232
 31
0.0
  0
LINE
  8
0
 62
     0
 10
0.999403
 20
2.01232
 30
0.0
 11
1.00288
 21
2.01178
 31
0.0
  0
LINE
  8
0
 62
     0
 10
1.00288
 20
2.01178
 30
0.0
 11
1.00505
 21
2.0115
 31
0.0
  0
LINE
  8
0
 62
     0
 10
1.00505
 20
2.0115
 30
0.0
 11
1.01367
 21
2.00825
 31
0.0
  0
LINE
  8
0
 62
     0
 10
1.01367
 20
2.00825
 30
0.0
 11
1.03141
 21
2.00032
 31
0.0
  0
LINE
  8
0
 62
     0
 10
1.03141
 20
2.00032
 30
0.0
 11
1.0536
 21
1.98921
 31
0.0
  0
LINE
  8
0
 62
     0
 10
1.0536
 20
1.98921
 30
0.0
 11
1.07189
 21
1.97944
 31
0.0
  0
LINE
  8
0
 62
     0
 10
1.07189
 20
1.97944
 30
0.0
 11
1.07791
 21
1.97601
 31
0.0
  0
LINE
  8
0
 62
     0
 10
1.07791
 20
1.97601
 30
0.0
 11
1.08496
 21
1.97206
 31
0.0
  0
LINE
  8
0
 62
     0
 10
1.08496
 20
1.97206
 30
0.0
 11
1.10563
 21
1.95921
 31
0.0
  0
LINE
  8
0
 62
     0
 10
1.10563
 20
1.95921
 30
0.0
 11
1.12397
 21
1.94493
 31
0.0
  0
LINE
  8
0
 62
     0
 10
1.12397
 20
1.94493
 30
0.0
 11
1.13406
 21
1.93224
 31
0.0
  0
LINE
  8
0
 62
     0
 10
1.13406
 20
1.93224
 30
0.0
 11
1.13721
 21
1.92296
 31
0.0
  0
LINE
  8
0
 62
     0
 10
1.13721
 20
1.92296
 30
0.0
 11
1.13721
 21
1.91982
 31
0.0
  0
LINE
  8
0
 62
     0
 10
1.13721
 20
1.91982
 30
0.0
 11
1.13721
 21
1.91407
 31
0.0
  0
LINE
  8
0
 62
     0
 10
1.13721
 20
1.91407
 30
0.0
 11
1.14209
 21
1.89675
 31
0.0
  0
LINE
  8
0
 62
     0
 10
1.14209
 20
1.89675
 30
0.0
 11
1.15164
 21
1.87646
 31
0.0
  0
LINE
  8
0
 62
     0
 10
1.15164
 20
1.87646
 30
0.0
 11
1.15397
 21
1.87315
 31
0.0
  0
LINE
  8
0
 62
     0
 10
1.15397
 20
1.87315
 30
0.0
 11
1.15657
 21
1.86942
 31
0.0
  0
LINE
  8
0
 62
     0
 10
1.15657
 20
1.86942
 30
0.0
 11
1.16211
 21
1.85656
 31
0.0
  0
LINE
  8
0
 62
     0
 10
1.16211
 20
1.85656
 30
0.0
 11
1.16661
 21
1.83231
 31
0.0
  0
LINE
  8
0
 62
     0
 10
1.16661
 20
1.83231
 30
0.0
 11
1.16797
 21
1.79492
 31
0.0
  0
LINE
  8
0
 62
     0
 10
1.16797
 20
1.79492
 30
0.0
 11
1.16716
 21
1.7531
 31
0.0
  0
LINE
  8
0
 62
     0
 10
1.16716
 20
1.7531
 30
0.0
 11
1.16667
 21
1.73915
 31
0.0
  0
LINE
  8
0
 62
     0
 10
1.16667
 20
1.73915
 30
0.0
 11
1.1626
 21
1.62912
 31
0.0
  0
LINE
  8
0
 62
     0
 10
1.1626
 20
1.62912
 30
0.0
 11
1.12126
 21
1.59326
 31
0.0
  0
LINE
  8
0
 62
     0
 10
1.12126
 20
1.59326
 30
0.0
 11
1.11556
 21
1.58832
 31
0.0
  0
LINE
  8
0
 62
     0
 10
1.11556
 20
1.58832
 30
0.0
 11
1.0752
 21
1.5599
 31
0.0
  0
LINE
  8
0
 62
     0
 10
1.0752
 20
1.5599
 30
0.0
 11
1.03049
 21
1.53381
 31
0.0
  0
LINE
  8
0
 62
     0
 10
1.03049
 20
1.53381
 30
0.0
 11
1.02262
 21
1.53
 31
0.0
  0
LINE
  8
0
 62
     0
 10
1.02262
 20
1.53
 30
0.0
 11
1.0147
 21
1.52626
 31
0.0
  0
LINE
  8
0
 62
     0
 10
1.0147
 20
1.52626
 30
0.0
 11
0.969889
 21
1.50288
 31
0.0
  0
LINE
  8
0
 62
     0
 10
0.969889
 20
1.50288
 30
0.0
 11
0.929363
 21
1.47954
 31
0.0
  0
LINE
  8
0
 62
     0
 10
0.929363
 20
1.47954
 30
0.0
 11
0.923665
 21
1.47586
 31
0.0
  0
LINE
  8
0
 62
     0
 10
0.923665
 20
1.47586
 30
0.0
 11
0.917914
 21
1.47222
 31
0.0
  0
LINE
  8
0
 62
     0
 10
0.917914
 20
1.47222
 30
0.0
 11
0.885037
 21
1.45253
 31
0.0
  0
LINE
  8
0
 62
     0
 10
0.885037
 20
1.45253
 30
0.0
 11
0.855035
 21
1.43608
 31
0.0
  0
LINE
  8
0
 62
     0
 10
0.855035
 20
1.43608
 30
0.0
 11
0.850749
 21
1.43397
 31
0.0
  0
LINE
  8
0
 62
     0
 10
0.850749
 20
1.43397
 30
0.0
 11
0.846408
 21
1.43192
 31
0.0
  0
LINE
  8
0
 62
     0
 10
0.846408
 20
1.43192
 30
0.0
 11
0.832682
 21
1.42464
 31
0.0
  0
LINE
  8
0
 62
     0
 10
0.832682
 20
1.42464
 30
0.0
 11
0.80664
 21
1.41049
 31
0.0
  0
LINE
  8
0
 62
     0
 10
0.80664
 20
1.41049
 30
0.0
 11
0.77615
 21
1.39339
 31
0.0
  0
LINE
  8
0
 62
     0
 10
0.77615
 20
1.39339
 30
0.0
 11
0.752496
 21
1.37988
 31
0.0
  0
LINE
  8
0
 62
     0
 10
0.752496
 20
1.37988
 30
0.0
 11
0.744683
 21
1.37533
 31
0.0
  0
LINE
  8
0
 62
     0
 10
0.744683
 20
1.37533
 30
0.0
 11
0.737033
 21
1.37093
 31
0.0
  0
LINE
  8
0
 62
     0
 10
0.737033
 20
1.37093
 30
0.0
 11
0.714031
 21
1.35796
 31
0.0
  0
LINE
  8
0
 62
     0
 10
0.714031
 20
1.35796
 30
0.0
 11
0.686035
 21
1.34277
 31
0.0
  0
LINE
  8
0
 62
     0
 10
0.686035
 20
1.34277
 30
0.0
 11
0.663683
 21
1.33143
 31
0.0
  0
LINE
  8
0
 62
     0
 10
0.663683
 20
1.33143
 30
0.0
 11
0.652832
 21
1.32644
 31
0.0
  0
LINE
  8
0
 62
     0
 10
0.652832
 20
1.32644
 30
0.0
 11
0.650174
 21
1.32557
 31
0.0
  0
LINE
  8
0
 62
     0
 10
0.650174
 20
1.32557
 30
0.0
 11
0.643067
 21
1.32335
 31
0.0
  0
LINE
  8
0
 62
     0
 10
0.643067
 20
1.32335
 30
0.0
 11
0.623643
 21
1.3106
 31
0.0
  0
LINE
  8
0
 62
     0
 10
0.623643
 20
1.3106
 30
0.0
 11
0.599121
 21
1.28651
 31
0.0
  0
LINE
  8
0
 62
     0
 10
0.599121
 20
1.28651
 30
0.0
 11
0.582357
 21
1.26036
 31
0.0
  0
LINE
  8
0
 62
     0
 10
0.582357
 20
1.26036
 30
0.0
 11
0.577582
 21
1.2436
 31
0.0
  0
LINE
  8
0
 62
     0
 10
0.577582
 20
1.2436
 30
0.0
 11
0.579047
 21
1.23899
 31
0.0
  0
LINE
  8
0
 62
     0
 10
0.579047
 20
1.23899
 30
0.0
 11
0.580892
 21
1.23313
 31
0.0
  0
LINE
  8
0
 62
     0
 10
0.580892
 20
1.23313
 30
0.0
 11
0.59451
 21
1.21804
 31
0.0
  0
LINE
  8
0
 62
     0
 10
0.59451
 20
1.21804
 30
0.0
 11
0.629069
 21
1.18435
 31
0.0
  0
LINE
  8
0
 62
     0
 10
0.629069
 20
1.18435
 30
0.0
 11
0.677518
 21
1.14209
 31
0.0
  0
LINE
  8
0
 62
     0
 10
0.677518
 20
1.14209
 30
0.0
 11
0.734592
 21
1.09543
 31
0.0
  0
LINE
  8
0
 62
     0
 10
0.734592
 20
1.09543
 30
0.0
 11
0.795085
 21
1.0485
 31
0.0
  0
LINE
  8
0
 62
     0
 10
0.795085
 20
1.0485
 30
0.0
 11
0.853733
 21
1.00553
 31
0.0
  0
LINE
  8
0
 62
     0
 10
0.853733
 20
1.00553
 30
0.0
 11
0.905274
 21
0.970649
 31
0.0
  0
LINE
  8
0
 62
     0
 10
0.905274
 20
0.970649
 30
0.0
 11
0.934299
 21
0.952962
 31
0.0
  0
LINE
  8
0
 62
     0
 10
0.934299
 20
0.952962
 30
0.0
 11
0.944499
 21
0.948025
 31
0.0
  0
LINE
  8
0
 62
     0
 10
0.944499
 20
0.948025
 30
0.0
 11
0.9509
 21
0.944933
 31
0.0
  0
LINE
  8
0
 62
     0
 10
0.9509
 20
0.944933
 30
0.0
 11
0.969672
 21
0.934299
 31
0.0
  0
LINE
  8
0
 62
     0
 10
0.969672
 20
0.934299
 30
0.0
 11
0.999892
 21
0.915419
 31
0.0
  0
LINE
  8
0
 62
     0
 10
0.999892
 20
0.915419
 30
0.0
 11
1.03125
 21
0.893935
 31
0.0
  0
LINE
  8
0
 62
     0
 10
1.03125
 20
0.893935
 30
0.0
 11
1.05295
 21
0.877929
 31
0.0
  0
LINE
  8
0
 62
     0
 10
1.05295
 20
0.877929
 30
0.0
 11
1.06
 21
0.872287
 31
0.0
  0
LINE
  8
0
 62
     0
 10
1.06
 20
0.872287
 30
0.0
 11
1.06798
 21
0.86594
 31
0.0
  0
LINE
  8
0
 62
     0
 10
1.06798
 20
0.86594
 30
0.0
 11
1.09136
 21
0.845811
 31
0.0
  0
LINE
  8
0
 62
     0
 10
1.09136
 20
0.845811
 30
0.0
 11
1.11518
 21
0.819715
 31
0.0
  0
LINE
  8
0
 62
     0
 10
1.11518
 20
0.819715
 30
0.0
 11
1.13243
 21
0.789442
 31
0.0
  0
LINE
  8
0
 62
     0
 10
1.13243
 20
0.789442
 30
0.0
 11
1.14399
 21
0.750379
 31
0.0
  0
LINE
  8
0
 62
     0
 10
1.14399
 20
0.750379
 30
0.0
 11
1.15077
 21
0.697863
 31
0.0
  0
LINE
  8
0
 62
     0
 10
1.15077
 20
0.697863
 30
0.0
 11
1.15375
 21
0.627279
 31
0.0
  0
LINE
  8
0
 62
     0
 10
1.15375
 20
0.627279
 30
0.0
 11
1.15386
 21
0.533963
 31
0.0
  0
LINE
  8
0
 62
     0
 10
1.15386
 20
0.533963
 30
0.0
 11
1.15256
 21
0.443468
 31
0.0
  0
LINE
  8
0
 62
     0
 10
1.15256
 20
0.443468
 30
0.0
 11
1.15202
 21
0.413303
 31
0.0
  0
LINE
  8
0
 62
     0
 10
1.15202
 20
0.413303
 30
0.0
 11
1.15148
 21
0.384278
 31
0.0
  0
LINE
  8
0
 62
     0
 10
1.15148
 20
0.384278
 30
0.0
 11
1.14974
 21
0.297146
 31
0.0
  0
LINE
  8
0
 62
     0
 10
1.14974
 20
0.297146
 30
0.0
 11
1.14757
 21
0.192654
 31
0.0
  0
LINE
  8
0
 62
     0
 10
1.14757
 20
0.192654
 30
0.0
 11
1.14573
 21
0.11122
 31
0.0
  0
LINE
  8
0
 62
     0
 10
1.14573
 20
0.11122
 30
0.0
 11
1.1448
 21
0.072971
 31
0.0
  0
LINE
  8
0
 62
     0
 10
1.1448
 20
0.072971
 30
0.0
 11
1.14453
 21
0.0643446
 31
0.0
  0
LINE
  8
0
 62
     0
 10
1.14453
 20
0.0643446
 30
0.0
 11
1.14242
 21
0.00184463
 31
0.0
  0
LINE
  8
0
 62
     0
 10
1.14242
 20
0.00184463
 30
0.0
 11
0.746582
 21
0.000217014
 31
0.0
  0
LINE
  8
0
 62
     0
 10
0.746582
 20
0.000217014
 30
0.0
 11
0.707628
 21
5.42535e-05
 31
0.0
  0
LINE
  8
0
 62
     0
 10
0.707628
 20
5.42535e-05
 30
0.0
 11
0.590821
 21
0.000162761
 31
0.0
  0
LINE
  8
0
 62
     0
 10
0.590821
 20
0.000162761
 30
0.0
 11
0.459364
 21
0.00119358
 31
0.0
  0
LINE
  8
0
 62
     0
 10
0.459364
 20
0.00119358
 30
0.0
 11
0.366049
 21
0.00320096
 31
0.0
  0
LINE
  8
0
 62
     0
 10
0.366049
 20
0.00320096
 30
0.0
 11
0.328287
 21
0.00488282
 31
0.0
  0
LINE
  8
0
 62
     0
 10
0.328287
 20
0.00488282
 30
0.0
 11
0.324707
 21
0.00585938
 31
0.0
  0
ENDSEC
  0
EOF
