<?xml version="1.0" encoding="UTF-8" standalone="no"?>
<!-- Created with Inkscape (http://www.inkscape.org/) -->

<svg
   xmlns:dc="http://purl.org/dc/elements/1.1/"
   xmlns:cc="http://creativecommons.org/ns#"
   xmlns:rdf="http://www.w3.org/1999/02/22-rdf-syntax-ns#"
   xmlns:svg="http://www.w3.org/2000/svg"
   xmlns="http://www.w3.org/2000/svg"
   xmlns:sodipodi="http://sodipodi.sourceforge.net/DTD/sodipodi-0.dtd"
   xmlns:inkscape="http://www.inkscape.org/namespaces/inkscape"
   id="svg2"
   version="1.1"
   inkscape:version="0.48.4 r9939"
   width="145.61369"
   height="500.74765"
   sodipodi:docname="BKS_PZ88.pbm">
  <metadata
     id="metadata8">
    <rdf:RDF>
      <cc:Work
         rdf:about="">
        <dc:format>image/svg+xml</dc:format>
        <dc:type
           rdf:resource="http://purl.org/dc/dcmitype/StillImage" />
        <dc:title></dc:title>
      </cc:Work>
    </rdf:RDF>
  </metadata>
  <defs
     id="defs6" />
  <sodipodi:namedview
     pagecolor="#ffffff"
     bordercolor="#666666"
     borderopacity="1"
     objecttolerance="10"
     gridtolerance="10"
     guidetolerance="10"
     inkscape:pageopacity="0"
     inkscape:pageshadow="2"
     inkscape:window-width="1855"
     inkscape:window-height="1056"
     id="namedview4"
     showgrid="false"
     fit-margin-top="0"
     fit-margin-left="0"
     fit-margin-right="0"
     fit-margin-bottom="0"
     inkscape:zoom="1.3191874"
     inkscape:cx="74.000005"
     inkscape:cy="251.19129"
     inkscape:window-x="65"
     inkscape:window-y="24"
     inkscape:window-maximized="1"
     inkscape:current-layer="svg2" />
  <path
     style="fill:#000000"
     d="M 79.5,500.26458 C 76.475,499.8041 68.6,498.93232 62,498.3273 55.4,497.72229 47.81086,496.73961 45.13524,496.14357 l -4.86477,-1.08371 0.66625,-6.12272 C 42.6711,472.99845 56.70412,426.06057 64.29308,410.81441 70.1097,399.12886 72.5,391.76157 72.5,385.51942 c 0,-4.9499 -0.42965,-6.27057 -3.08999,-9.49803 -4.20357,-5.09965 -6.58146,-6.13338 -19.91001,-8.65537 -6.325,-1.1968 -15.775,-3.2197 -21,-4.49533 -5.225,-1.27564 -12.39344,-2.90132 -15.92987,-3.61262 -4.32789,-0.8705 -7.43353,-2.19009 -9.5,-4.03655 L 0,352.47826 0,281.14634 c 0,-64.48712 0.17227,-72.22753 1.79523,-80.6653 0.98738,-5.13335 2.66712,-11.66371 3.73277,-14.51191 3.06525,-8.19261 11.71643,-22.58864 17.65812,-29.38406 6.02272,-6.88809 7.72533,-7.62437 20.24836,-8.75619 9.10712,-0.8231 16.71401,-4.40837 26.0397,-12.27301 7.65044,-6.45185 12.35237,-14.03478 15.2037,-24.51944 C 87.57103,100.39798 87.20587,91.641691 83.57176,84.512269 77.87971,73.345563 66.03582,64.819365 52,61.784344 42.54352,59.739529 20.385,52.347048 15.73148,49.684511 13.04671,48.148403 12.12017,46.653523 10.5436,41.314407 8.84418,35.559218 5.03719,5.4438931 5.9,4.5810779 7.6859,2.7951785 52.35438,-0.26501112 72.5,0.01838268 86.42856,0.21431928 113.55756,1.5836195 133.46561,3.0955401 l 9.4656,0.7188673 0.83494,3.4999996 c 2.37285,9.946773 2.49552,155.192013 0.16229,192.145003 -0.63866,10.11483 -0.79778,10.70225 -3.19483,11.79442 -1.38749,0.63218 -11.79515,1.57166 -23.12815,2.08774 -19.949965,0.90847 -30.62562,2.07951 -35.35706,3.8784 -3.25777,1.2386 -12.56255,9.83437 -14.31597,13.22511 -2.53019,4.89285 -3.63226,12.88404 -3.49134,25.31608 0.19691,17.37286 1.9325,23.32725 9.29811,31.89968 7.11261,8.27798 19.608615,20.0788 25.760805,24.32768 4.541955,3.13681 22.669635,22.07984 26.850575,28.05828 5.06238,7.23883 11.09122,23.33909 13.64625,36.44288 3.5119,18.01118 3.45667,18.21375 -14.94594,54.82473 -6.22031,12.375 -13.43448,27.45 -16.03148,33.5 C 103.1433,478.50349 93.762595,496.769 91.614455,498.70418 89.31532,500.7754 85.81631,501.22609 79.5,500.26458 z"
     id="path2987"
     inkscape:connector-curvature="0" />
</svg>
