<?xml version="1.0" encoding="UTF-8" standalone="no"?>
<!-- Created with Inkscape (http://www.inkscape.org/) -->

<svg
   xmlns:dc="http://purl.org/dc/elements/1.1/"
   xmlns:cc="http://creativecommons.org/ns#"
   xmlns:rdf="http://www.w3.org/1999/02/22-rdf-syntax-ns#"
   xmlns:svg="http://www.w3.org/2000/svg"
   xmlns="http://www.w3.org/2000/svg"
   xmlns:sodipodi="http://sodipodi.sourceforge.net/DTD/sodipodi-0.dtd"
   xmlns:inkscape="http://www.inkscape.org/namespaces/inkscape"
   id="svg2"
   version="1.1"
   inkscape:version="0.48.4 r9939"
   width="115.34884"
   height="382.66489"
   sodipodi:docname="BKS.pbm">
  <metadata
     id="metadata8">
    <rdf:RDF>
      <cc:Work
         rdf:about="">
        <dc:format>image/svg+xml</dc:format>
        <dc:type
           rdf:resource="http://purl.org/dc/dcmitype/StillImage" />
        <dc:title></dc:title>
      </cc:Work>
    </rdf:RDF>
  </metadata>
  <defs
     id="defs6" />
  <sodipodi:namedview
     pagecolor="#ffffff"
     bordercolor="#666666"
     borderopacity="1"
     objecttolerance="10"
     gridtolerance="10"
     guidetolerance="10"
     inkscape:pageopacity="0"
     inkscape:pageshadow="2"
     inkscape:window-width="1855"
     inkscape:window-height="1056"
     id="namedview4"
     showgrid="false"
     fit-margin-top="0"
     fit-margin-left="0"
     fit-margin-right="0"
     fit-margin-bottom="0"
     inkscape:zoom="1.1318945"
     inkscape:cx="61.437486"
     inkscape:cy="188.47436"
     inkscape:window-x="65"
     inkscape:window-y="24"
     inkscape:window-maximized="1"
     inkscape:current-layer="svg2" />
  <path
     style="fill:#000000"
     d="m 31.17054,382.10374 -2.5,-0.70022 -0.30514,-19.53352 -0.30513,-19.53351 3.24497,-3.17256 c 1.78474,-1.74491 3.65107,-3.17256 4.14741,-3.17256 0.49633,0 2.04659,-0.9 3.44502,-2 1.39842,-1.1 3.34986,-2 4.33652,-2 0.98667,0 3.40098,-1.51563 5.36514,-3.36808 4.66652,-4.40109 4.96422,-9.4448 0.79439,-13.45884 -8.59397,-8.2729 -20.42915,-17.72479 -25.27108,-20.18217 -3.05135,-1.54861 -6.98885,-4.5026 -8.75,-6.56441 l -3.2021,-3.74875 0,-21.69285 c 0,-21.11924 0.0595,-21.75625 2.25,-24.09042 4.08479,-4.35269 11.16044,-9.61424 17.25,-12.82733 15.71682,-8.29284 21.0452,-12.94427 22.61409,-19.74107 0.65819,-2.85144 0.86112,-7.0057 0.46972,-9.61575 -0.6051,-4.03508 -1.79194,-5.76065 -9.7343,-14.15285 -6.93641,-7.32928 -9.6635,-9.56509 -11.69734,-9.59013 -1.4587,-0.018 -5.10268,-0.8786 -8.09775,-1.91254 -6.33813,-2.18802 -7.32117,-3.89833 -6.92879,-12.05481 0.43266,-8.99377 -2.15822,-14 -7.24544,-14 -1.78637,0 -3.1997,-0.72848 -3.88019,-2 -0.58871,-1.1 -1.90446,-2 -2.9239,-2 -2.71778,0 -2.97566,-2.71341 -3.64679,-38.37051 L 0,70.750338 3.78822,66.870852 c 2.08351,-2.133717 4.30275,-3.879486 4.93163,-3.879486 1.778,0 7.33815,-2.972491 14.3868,-7.69128 3.53986,-2.369796 7.40761,-4.30872 8.59501,-4.30872 3.92764,0 5.46888,-3.008066 5.46888,-10.673753 0,-9.918522 -0.54453,-10.284609 -17.69677,-11.89769 C 8.51751,27.389543 5.48421,26.773244 4.45734,25.368915 3.09897,23.511239 2.78091,15.980876 3.80039,9.8153074 c 0.60425,-3.6544 0.64985,-3.684717 7.73899,-5.145486 22.25794,-4.58641196 57.18128,-6.147595 68.98681,-3.08393 3.37939,0.876988 11.676346,2.171488 18.437676,2.876665 6.761334,0.705178 12.541884,1.53069 12.845674,1.834473 1.30796,1.307963 3.62623,19.9632196 3.53679,28.4607556 -0.12121,11.515465 -1.51818,14.726416 -8.10874,18.637985 -4.1903,2.486993 -5.06628,3.564864 -6.0952,7.5 -2.237754,8.558324 -3.464804,11.401421 -6.175324,14.308228 -2.68901,2.883749 -2.74849,2.895599 -11.122796,2.216111 -7.58622,-0.615541 -8.61551,-0.48697 -10.4018,1.299324 -1.09036,1.090356 -3.2851,2.30115 -4.8772,2.690655 -12.08944,2.957651 -13.30283,3.574473 -13.96394,7.098481 -1.32108,7.04199 -0.18932,18.578321 2.41753,24.642371 1.22351,2.84614 4.95287,7.60937 9.58251,12.239 6.19037,6.19037 8.31551,7.69714 11.59585,8.22169 2.70175,0.43203 4.81675,1.59339 6.46152,3.54809 1.3448,1.59821 3.993246,3.55269 5.885436,4.3433 l 3.44033,1.43746 -9.1e-4,14.27545 c -0.002,24.09833 0.56364,32.06668 2.29243,32.32042 0.83142,0.12202 4.072824,1.66728 7.203094,3.4339 4.20166,2.37127 5.69142,3.7832 5.69142,5.39407 0,1.20012 0.72476,3.21677 1.61057,4.48145 1.3033,1.86072 1.53597,4.31483 1.21953,12.8632 l -0.39104,10.56379 -3.96953,3.4428 c -2.18324,1.89354 -6.44453,4.62528 -9.469534,6.07054 -3.025,1.44526 -7.3,3.78395 -9.5,5.19708 -2.199996,1.41314 -5.349996,3.22403 -6.999996,4.02422 -1.65,0.80018 -6.23204,3.33393 -10.18231,5.63055 -3.95027,2.29662 -8.03354,4.44584 -9.07393,4.77605 -3.27799,1.0404 -7.50353,6.18357 -6.82827,8.31112 1.07051,3.37288 27.06866,24.07138 35.084506,27.93263 2.75,1.32469 7.74037,4.59594 11.089714,7.26945 9.07766,7.24598 9.48535,9.28019 8.83128,44.06417 -0.28441,15.125 -0.60798,30.2 -0.71905,33.5 l -0.20194,6 -38,0.1563 c -20.9,0.086 -39.125,-0.1588 -40.5,-0.54393 z"
     id="path2987"
     inkscape:connector-curvature="0" />
</svg>
