  0
SECTION
  2
HEADER
  9
$ACADVER
  1
AC1009
  9
$FILLMODE
 70
 0
  9
$SPLFRAME
 70
 1
  9
$EXTMIN
 10
0
 20
0
 30
0.0
  9
$EXTMAX
 10
41.6667
 20
41.6667
 30
0.0
  0
ENDSEC
  0
SECTION
  2
TABLES
  0
TABLE
  2
LAYER
 70
1
  0
LAYER
  2
0
 70
     0
 62
     7
  6
CONTINUOUS
  0
ENDTAB
  0
ENDSEC
  0
SECTION
  2
ENTITIES
  0
LINE
  8
0
 62
     0
 10
0.122721
 20
0.00439453
 30
0.0
 11
0.117242
 21
0.00504557
 31
0.0
  0
LINE
  8
0
 62
     0
 10
0.117242
 20
0.00504557
 30
0.0
 11
0.101617
 21
0.0129666
 31
0.0
  0
LINE
  8
0
 62
     0
 10
0.101617
 20
0.0129666
 30
0.0
 11
0.0896268
 21
0.0378147
 31
0.0
  0
LINE
  8
0
 62
     0
 10
0.0896268
 20
0.0378147
 30
0.0
 11
0.084961
 21
0.0871311
 31
0.0
  0
LINE
  8
0
 62
     0
 10
0.084961
 20
0.0871311
 30
0.0
 11
0.0851779
 21
0.148492
 31
0.0
  0
LINE
  8
0
 62
     0
 10
0.0851779
 20
0.148492
 30
0.0
 11
0.0857747
 21
0.168892
 31
0.0
  0
LINE
  8
0
 62
     0
 10
0.0857747
 20
0.168892
 30
0.0
 11
0.0859918
 21
0.177572
 31
0.0
  0
LINE
  8
0
 62
     0
 10
0.0859918
 20
0.177572
 30
0.0
 11
0.0866428
 21
0.203668
 31
0.0
  0
LINE
  8
0
 62
     0
 10
0.0866428
 20
0.203668
 30
0.0
 11
0.0884332
 21
0.23036
 31
0.0
  0
LINE
  8
0
 62
     0
 10
0.0884332
 20
0.23036
 30
0.0
 11
0.093099
 21
0.252387
 31
0.0
  0
LINE
  8
0
 62
     0
 10
0.093099
 20
0.252387
 30
0.0
 11
0.102702
 21
0.273275
 31
0.0
  0
LINE
  8
0
 62
     0
 10
0.102702
 20
0.273275
 30
0.0
 11
0.119303
 21
0.296386
 31
0.0
  0
LINE
  8
0
 62
     0
 10
0.119303
 20
0.296386
 30
0.0
 11
0.145019
 21
0.325196
 31
0.0
  0
LINE
  8
0
 62
     0
 10
0.145019
 20
0.325196
 30
0.0
 11
0.181803
 21
0.363118
 31
0.0
  0
LINE
  8
0
 62
     0
 10
0.181803
 20
0.363118
 30
0.0
 11
0.219293
 21
0.400987
 31
0.0
  0
LINE
  8
0
 62
     0
 10
0.219293
 20
0.400987
 30
0.0
 11
0.231771
 21
0.413574
 31
0.0
  0
LINE
  8
0
 62
     0
 10
0.231771
 20
0.413574
 30
0.0
 11
0.237631
 21
0.419542
 31
0.0
  0
LINE
  8
0
 62
     0
 10
0.237631
 20
0.419542
 30
0.0
 11
0.254992
 21
0.437608
 31
0.0
  0
LINE
  8
0
 62
     0
 10
0.254992
 20
0.437608
 30
0.0
 11
0.274035
 21
0.458062
 31
0.0
  0
LINE
  8
0
 62
     0
 10
0.274035
 20
0.458062
 30
0.0
 11
0.286893
 21
0.472874
 31
0.0
  0
LINE
  8
0
 62
     0
 10
0.286893
 20
0.472874
 30
0.0
 11
0.291667
 21
0.478082
 31
0.0
  0
LINE
  8
0
 62
     0
 10
0.291667
 20
0.478082
 30
0.0
 11
0.291667
 21
0.479818
 31
0.0
  0
LINE
  8
0
 62
     0
 10
0.291667
 20
0.479818
 30
0.0
 11
0.291667
 21
0.481392
 31
0.0
  0
LINE
  8
0
 62
     0
 10
0.291667
 20
0.481392
 30
0.0
 11
0.295518
 21
0.486003
 31
0.0
  0
LINE
  8
0
 62
     0
 10
0.295518
 20
0.486003
 30
0.0
 11
0.306153
 21
0.498589
 31
0.0
  0
LINE
  8
0
 62
     0
 10
0.306153
 20
0.498589
 30
0.0
 11
0.321886
 21
0.515787
 31
0.0
  0
LINE
  8
0
 62
     0
 10
0.321886
 20
0.515787
 30
0.0
 11
0.336262
 21
0.530817
 31
0.0
  0
LINE
  8
0
 62
     0
 10
0.336262
 20
0.530817
 30
0.0
 11
0.341146
 21
0.535753
 31
0.0
  0
LINE
  8
0
 62
     0
 10
0.341146
 20
0.535753
 30
0.0
 11
0.347222
 21
0.541992
 31
0.0
  0
LINE
  8
0
 62
     0
 10
0.347222
 20
0.541992
 30
0.0
 11
0.365289
 21
0.560926
 31
0.0
  0
LINE
  8
0
 62
     0
 10
0.365289
 20
0.560926
 30
0.0
 11
0.394422
 21
0.592285
 31
0.0
  0
LINE
  8
0
 62
     0
 10
0.394422
 20
0.592285
 30
0.0
 11
0.424914
 21
0.62576
 31
0.0
  0
LINE
  8
0
 62
     0
 10
0.424914
 20
0.62576
 30
0.0
 11
0.446126
 21
0.649468
 31
0.0
  0
LINE
  8
0
 62
     0
 10
0.446126
 20
0.649468
 30
0.0
 11
0.453125
 21
0.657443
 31
0.0
  0
LINE
  8
0
 62
     0
 10
0.453125
 20
0.657443
 30
0.0
 11
0.467882
 21
0.674317
 31
0.0
  0
LINE
  8
0
 62
     0
 10
0.467882
 20
0.674317
 30
0.0
 11
0.520182
 21
0.731228
 31
0.0
  0
LINE
  8
0
 62
     0
 10
0.520182
 20
0.731228
 30
0.0
 11
0.617458
 21
0.834961
 31
0.0
  0
LINE
  8
0
 62
     0
 10
0.617458
 20
0.834961
 30
0.0
 11
0.721571
 21
0.944065
 31
0.0
  0
LINE
  8
0
 62
     0
 10
0.721571
 20
0.944065
 30
0.0
 11
0.78711
 21
1.01172
 31
0.0
  0
LINE
  8
0
 62
     0
 10
0.78711
 20
1.01172
 30
0.0
 11
0.809299
 21
1.03396
 31
0.0
  0
LINE
  8
0
 62
     0
 10
0.809299
 20
1.03396
 30
0.0
 11
0.817925
 21
1.0427
 31
0.0
  0
LINE
  8
0
 62
     0
 10
0.817925
 20
1.0427
 30
0.0
 11
0.841906
 21
1.07091
 31
0.0
  0
LINE
  8
0
 62
     0
 10
0.841906
 20
1.07091
 30
0.0
 11
0.868381
 21
1.11041
 31
0.0
  0
LINE
  8
0
 62
     0
 10
0.868381
 20
1.11041
 30
0.0
 11
0.889811
 21
1.1543
 31
0.0
  0
LINE
  8
0
 62
     0
 10
0.889811
 20
1.1543
 30
0.0
 11
0.903429
 21
1.19162
 31
0.0
  0
LINE
  8
0
 62
     0
 10
0.903429
 20
1.19162
 30
0.0
 11
0.907118
 21
1.20426
 31
0.0
  0
LINE
  8
0
 62
     0
 10
0.907118
 20
1.20426
 30
0.0
 11
0.908962
 21
1.21072
 31
0.0
  0
LINE
  8
0
 62
     0
 10
0.908962
 20
1.21072
 30
0.0
 11
0.920518
 21
1.24354
 31
0.0
  0
LINE
  8
0
 62
     0
 10
0.920518
 20
1.24354
 30
0.0
 11
0.931967
 21
1.26915
 31
0.0
  0
LINE
  8
0
 62
     0
 10
0.931967
 20
1.26915
 30
0.0
 11
0.933811
 21
1.27203
 31
0.0
  0
LINE
  8
0
 62
     0
 10
0.933811
 20
1.27203
 30
0.0
 11
0.935926
 21
1.27544
 31
0.0
  0
LINE
  8
0
 62
     0
 10
0.935926
 20
1.27544
 30
0.0
 11
0.942762
 21
1.3093
 31
0.0
  0
LINE
  8
0
 62
     0
 10
0.942762
 20
1.3093
 30
0.0
 11
0.94439
 21
1.36393
 31
0.0
  0
LINE
  8
0
 62
     0
 10
0.94439
 20
1.36393
 30
0.0
 11
0.943901
 21
1.37771
 31
0.0
  0
LINE
  8
0
 62
     0
 10
0.943901
 20
1.37771
 30
0.0
 11
0.943468
 21
1.38943
 31
0.0
  0
LINE
  8
0
 62
     0
 10
0.943468
 20
1.38943
 30
0.0
 11
0.940918
 21
1.42458
 31
0.0
  0
LINE
  8
0
 62
     0
 10
0.940918
 20
1.42458
 30
0.0
 11
0.934463
 21
1.46197
 31
0.0
  0
LINE
  8
0
 62
     0
 10
0.934463
 20
1.46197
 30
0.0
 11
0.92231
 21
1.49881
 31
0.0
  0
LINE
  8
0
 62
     0
 10
0.92231
 20
1.49881
 30
0.0
 11
0.907443
 21
1.53282
 31
0.0
  0
LINE
  8
0
 62
     0
 10
0.907443
 20
1.53282
 30
0.0
 11
0.902181
 21
1.54394
 31
0.0
  0
LINE
  8
0
 62
     0
 10
0.902181
 20
1.54394
 30
0.0
 11
0.892578
 21
1.56407
 31
0.0
  0
LINE
  8
0
 62
     0
 10
0.892578
 20
1.56407
 30
0.0
 11
0.857096
 21
1.62125
 31
0.0
  0
LINE
  8
0
 62
     0
 10
0.857096
 20
1.62125
 30
0.0
 11
0.8023
 21
1.6849
 31
0.0
  0
LINE
  8
0
 62
     0
 10
0.8023
 20
1.6849
 30
0.0
 11
0.739094
 21
1.73367
 31
0.0
  0
LINE
  8
0
 62
     0
 10
0.739094
 20
1.73367
 30
0.0
 11
0.687121
 21
1.76025
 31
0.0
  0
LINE
  8
0
 62
     0
 10
0.687121
 20
1.76025
 30
0.0
 11
0.668892
 21
1.76622
 31
0.0
  0
LINE
  8
0
 62
     0
 10
0.668892
 20
1.76622
 30
0.0
 11
0.661458
 21
1.76867
 31
0.0
  0
LINE
  8
0
 62
     0
 10
0.661458
 20
1.76867
 30
0.0
 11
0.639268
 21
1.77621
 31
0.0
  0
LINE
  8
0
 62
     0
 10
0.639268
 20
1.77621
 30
0.0
 11
0.610297
 21
1.78646
 31
0.0
  0
LINE
  8
0
 62
     0
 10
0.610297
 20
1.78646
 30
0.0
 11
0.58534
 21
1.79574
 31
0.0
  0
LINE
  8
0
 62
     0
 10
0.58534
 20
1.79574
 30
0.0
 11
0.571994
 21
1.801
 31
0.0
  0
LINE
  8
0
 62
     0
 10
0.571994
 20
1.801
 30
0.0
 11
0.567708
 21
1.80285
 31
0.0
  0
LINE
  8
0
 62
     0
 10
0.567708
 20
1.80285
 30
0.0
 11
0.563368
 21
1.80474
 31
0.0
  0
LINE
  8
0
 62
     0
 10
0.563368
 20
1.80474
 30
0.0
 11
0.527126
 21
1.81749
 31
0.0
  0
LINE
  8
0
 62
     0
 10
0.527126
 20
1.81749
 30
0.0
 11
0.482096
 21
1.831
 31
0.0
  0
LINE
  8
0
 62
     0
 10
0.482096
 20
1.831
 30
0.0
 11
0.473469
 21
1.83328
 31
0.0
  0
LINE
  8
0
 62
     0
 10
0.473469
 20
1.83328
 30
0.0
 11
0.464789
 21
1.83561
 31
0.0
  0
LINE
  8
0
 62
     0
 10
0.464789
 20
1.83561
 30
0.0
 11
0.409397
 21
1.85281
 31
0.0
  0
LINE
  8
0
 62
     0
 10
0.409397
 20
1.85281
 30
0.0
 11
0.353028
 21
1.8725
 31
0.0
  0
LINE
  8
0
 62
     0
 10
0.353028
 20
1.8725
 30
0.0
 11
0.343912
 21
1.87608
 31
0.0
  0
LINE
  8
0
 62
     0
 10
0.343912
 20
1.87608
 30
0.0
 11
0.337131
 21
1.87875
 31
0.0
  0
LINE
  8
0
 62
     0
 10
0.337131
 20
1.87875
 30
0.0
 11
0.316732
 21
1.88624
 31
0.0
  0
LINE
  8
0
 62
     0
 10
0.316732
 20
1.88624
 30
0.0
 11
0.291992
 21
1.89453
 31
0.0
  0
LINE
  8
0
 62
     0
 10
0.291992
 20
1.89453
 30
0.0
 11
0.272515
 21
1.90018
 31
0.0
  0
LINE
  8
0
 62
     0
 10
0.272515
 20
1.90018
 30
0.0
 11
0.263781
 21
1.90218
 31
0.0
  0
LINE
  8
0
 62
     0
 10
0.263781
 20
1.90218
 30
0.0
 11
0.260906
 21
1.90218
 31
0.0
  0
LINE
  8
0
 62
     0
 10
0.260906
 20
1.90218
 30
0.0
 11
0.2551
 21
1.90218
 31
0.0
  0
LINE
  8
0
 62
     0
 10
0.2551
 20
1.90218
 30
0.0
 11
0.237847
 21
1.90831
 31
0.0
  0
LINE
  8
0
 62
     0
 10
0.237847
 20
1.90831
 30
0.0
 11
0.210938
 21
1.92019
 31
0.0
  0
LINE
  8
0
 62
     0
 10
0.210938
 20
1.92019
 30
0.0
 11
0.205621
 21
1.92301
 31
0.0
  0
LINE
  8
0
 62
     0
 10
0.205621
 20
1.92301
 30
0.0
 11
0.20025
 21
1.92589
 31
0.0
  0
LINE
  8
0
 62
     0
 10
0.20025
 20
1.92589
 30
0.0
 11
0.169162
 21
1.93778
 31
0.0
  0
LINE
  8
0
 62
     0
 10
0.169162
 20
1.93778
 30
0.0
 11
0.144422
 21
1.94385
 31
0.0
  0
LINE
  8
0
 62
     0
 10
0.144422
 20
1.94385
 30
0.0
 11
0.136176
 21
1.94385
 31
0.0
  0
LINE
  8
0
 62
     0
 10
0.136176
 20
1.94385
 30
0.0
 11
0.128906
 21
1.94385
 31
0.0
  0
LINE
  8
0
 62
     0
 10
0.128906
 20
1.94385
 30
0.0
 11
0.107205
 21
1.95128
 31
0.0
  0
LINE
  8
0
 62
     0
 10
0.107205
 20
1.95128
 30
0.0
 11
0.08648
 21
1.97071
 31
0.0
  0
LINE
  8
0
 62
     0
 10
0.08648
 20
1.97071
 30
0.0
 11
0.082194
 21
1.97667
 31
0.0
  0
LINE
  8
0
 62
     0
 10
0.082194
 20
1.97667
 30
0.0
 11
0.0784506
 21
1.98193
 31
0.0
  0
LINE
  8
0
 62
     0
 10
0.0784506
 20
1.98193
 30
0.0
 11
0.0694988
 21
1.99924
 31
0.0
  0
LINE
  8
0
 62
     0
 10
0.0694988
 20
1.99924
 30
0.0
 11
0.061415
 21
2.03108
 31
0.0
  0
LINE
  8
0
 62
     0
 10
0.061415
 20
2.03108
 30
0.0
 11
0.0559353
 21
2.08458
 31
0.0
  0
LINE
  8
0
 62
     0
 10
0.0559353
 20
2.08458
 30
0.0
 11
0.0521918
 21
2.15018
 31
0.0
  0
LINE
  8
0
 62
     0
 10
0.0521918
 20
2.15018
 30
0.0
 11
0.051161
 21
2.17199
 31
0.0
  0
LINE
  8
0
 62
     0
 10
0.051161
 20
2.17199
 30
0.0
 11
0.050076
 21
2.19433
 31
0.0
  0
LINE
  8
0
 62
     0
 10
0.050076
 20
2.19433
 30
0.0
 11
0.0482856
 21
2.27115
 31
0.0
  0
LINE
  8
0
 62
     0
 10
0.0482856
 20
2.27115
 30
0.0
 11
0.0462782
 21
2.4209
 31
0.0
  0
LINE
  8
0
 62
     0
 10
0.0462782
 20
2.4209
 30
0.0
 11
0.0453017
 21
2.60097
 31
0.0
  0
LINE
  8
0
 62
     0
 10
0.0453017
 20
2.60097
 30
0.0
 11
0.0453017
 21
2.74354
 31
0.0
  0
LINE
  8
0
 62
     0
 10
0.0453017
 20
2.74354
 30
0.0
 11
0.0455186
 21
2.79101
 31
0.0
  0
LINE
  8
0
 62
     0
 10
0.0455186
 20
2.79101
 30
0.0
 11
0.0456814
 21
2.83539
 31
0.0
  0
LINE
  8
0
 62
     0
 10
0.0456814
 20
2.83539
 30
0.0
 11
0.0458442
 21
2.96858
 31
0.0
  0
LINE
  8
0
 62
     0
 10
0.0458442
 20
2.96858
 30
0.0
 11
0.0452474
 21
3.11447
 31
0.0
  0
LINE
  8
0
 62
     0
 10
0.0452474
 20
3.11447
 30
0.0
 11
0.0438368
 21
3.21371
 31
0.0
  0
LINE
  8
0
 62
     0
 10
0.0438368
 20
3.21371
 30
0.0
 11
0.0425347
 21
3.2506
 31
0.0
  0
LINE
  8
0
 62
     0
 10
0.0425347
 20
3.2506
 30
0.0
 11
0.0417751
 21
3.25108
 31
0.0
  0
LINE
  8
0
 62
     0
 10
0.0417751
 20
3.25108
 30
0.0
 11
0.0405817
 21
3.25185
 31
0.0
  0
LINE
  8
0
 62
     0
 10
0.0405817
 20
3.25185
 30
0.0
 11
0.0401476
 21
3.28569
 31
0.0
  0
LINE
  8
0
 62
     0
 10
0.0401476
 20
3.28569
 30
0.0
 11
0.0388456
 21
3.37636
 31
0.0
  0
LINE
  8
0
 62
     0
 10
0.0388456
 20
3.37636
 30
0.0
 11
0.0379775
 21
3.50683
 31
0.0
  0
LINE
  8
0
 62
     0
 10
0.0379775
 20
3.50683
 30
0.0
 11
0.0374892
 21
3.66081
 31
0.0
  0
LINE
  8
0
 62
     0
 10
0.0374892
 20
3.66081
 30
0.0
 11
0.0374349
 21
3.822
 31
0.0
  0
LINE
  8
0
 62
     0
 10
0.0374349
 20
3.822
 30
0.0
 11
0.0378689
 21
3.97407
 31
0.0
  0
LINE
  8
0
 62
     0
 10
0.0378689
 20
3.97407
 30
0.0
 11
0.0387912
 21
4.10086
 31
0.0
  0
LINE
  8
0
 62
     0
 10
0.0387912
 20
4.10086
 30
0.0
 11
0.039605
 21
4.16471
 31
0.0
  0
LINE
  8
0
 62
     0
 10
0.039605
 20
4.16471
 30
0.0
 11
0.0402561
 21
4.18593
 31
0.0
  0
LINE
  8
0
 62
     0
 10
0.0402561
 20
4.18593
 30
0.0
 11
0.0404189
 21
4.19287
 31
0.0
  0
LINE
  8
0
 62
     0
 10
0.0404189
 20
4.19287
 30
0.0
 11
0.0421007
 21
4.21371
 31
0.0
  0
LINE
  8
0
 62
     0
 10
0.0421007
 20
4.21371
 30
0.0
 11
0.0479601
 21
4.23193
 31
0.0
  0
LINE
  8
0
 62
     0
 10
0.0479601
 20
4.23193
 30
0.0
 11
0.0610351
 21
4.24631
 31
0.0
  0
LINE
  8
0
 62
     0
 10
0.0610351
 20
4.24631
 30
0.0
 11
0.0787218
 21
4.25868
 31
0.0
  0
LINE
  8
0
 62
     0
 10
0.0787218
 20
4.25868
 30
0.0
 11
0.0847982
 21
4.26247
 31
0.0
  0
LINE
  8
0
 62
     0
 10
0.0847982
 20
4.26247
 30
0.0
 11
0.0907118
 21
4.26622
 31
0.0
  0
LINE
  8
0
 62
     0
 10
0.0907118
 20
4.26622
 30
0.0
 11
0.124729
 21
4.28478
 31
0.0
  0
LINE
  8
0
 62
     0
 10
0.124729
 20
4.28478
 30
0.0
 11
0.155817
 21
4.29861
 31
0.0
  0
LINE
  8
0
 62
     0
 10
0.155817
 20
4.29861
 30
0.0
 11
0.160319
 21
4.30003
 31
0.0
  0
LINE
  8
0
 62
     0
 10
0.160319
 20
4.30003
 30
0.0
 11
0.169325
 21
4.3029
 31
0.0
  0
LINE
  8
0
 62
     0
 10
0.169325
 20
4.3029
 30
0.0
 11
0.195801
 21
4.31321
 31
0.0
  0
LINE
  8
0
 62
     0
 10
0.195801
 20
4.31321
 30
0.0
 11
0.228028
 21
4.32844
 31
0.0
  0
LINE
  8
0
 62
     0
 10
0.228028
 20
4.32844
 30
0.0
 11
0.251357
 21
4.34272
 31
0.0
  0
LINE
  8
0
 62
     0
 10
0.251357
 20
4.34272
 30
0.0
 11
0.260417
 21
4.35053
 31
0.0
  0
LINE
  8
0
 62
     0
 10
0.260417
 20
4.35053
 30
0.0
 11
0.260417
 21
4.35308
 31
0.0
  0
LINE
  8
0
 62
     0
 10
0.260417
 20
4.35308
 30
0.0
 11
0.260417
 21
4.35417
 31
0.0
  0
LINE
  8
0
 62
     0
 10
0.260417
 20
4.35417
 30
0.0
 11
0.263564
 21
4.35726
 31
0.0
  0
LINE
  8
0
 62
     0
 10
0.263564
 20
4.35726
 30
0.0
 11
0.269803
 21
4.35596
 31
0.0
  0
LINE
  8
0
 62
     0
 10
0.269803
 20
4.35596
 30
0.0
 11
0.271322
 21
4.35504
 31
0.0
  0
LINE
  8
0
 62
     0
 10
0.271322
 20
4.35504
 30
0.0
 11
0.272786
 21
4.35411
 31
0.0
  0
LINE
  8
0
 62
     0
 10
0.272786
 20
4.35411
 30
0.0
 11
0.292589
 21
4.35667
 31
0.0
  0
LINE
  8
0
 62
     0
 10
0.292589
 20
4.35667
 30
0.0
 11
0.322103
 21
4.36703
 31
0.0
  0
LINE
  8
0
 62
     0
 10
0.322103
 20
4.36703
 30
0.0
 11
0.328504
 21
4.37001
 31
0.0
  0
LINE
  8
0
 62
     0
 10
0.328504
 20
4.37001
 30
0.0
 11
0.334853
 21
4.37304
 31
0.0
  0
LINE
  8
0
 62
     0
 10
0.334853
 20
4.37304
 30
0.0
 11
0.365397
 21
4.38542
 31
0.0
  0
LINE
  8
0
 62
     0
 10
0.365397
 20
4.38542
 30
0.0
 11
0.383247
 21
4.39176
 31
0.0
  0
LINE
  8
0
 62
     0
 10
0.383247
 20
4.39176
 30
0.0
 11
0.389214
 21
4.39176
 31
0.0
  0
LINE
  8
0
 62
     0
 10
0.389214
 20
4.39176
 30
0.0
 11
0.392632
 21
4.39176
 31
0.0
  0
LINE
  8
0
 62
     0
 10
0.392632
 20
4.39176
 30
0.0
 11
0.40294
 21
4.39606
 31
0.0
  0
LINE
  8
0
 62
     0
 10
0.40294
 20
4.39606
 30
0.0
 11
0.414063
 21
4.40435
 31
0.0
  0
LINE
  8
0
 62
     0
 10
0.414063
 20
4.40435
 30
0.0
 11
0.415744
 21
4.40631
 31
0.0
  0
LINE
  8
0
 62
     0
 10
0.415744
 20
4.40631
 30
0.0
 11
0.417372
 21
4.40831
 31
0.0
  0
LINE
  8
0
 62
     0
 10
0.417372
 20
4.40831
 30
0.0
 11
0.435221
 21
4.41868
 31
0.0
  0
LINE
  8
0
 62
     0
 10
0.435221
 20
4.41868
 30
0.0
 11
0.460015
 21
4.42692
 31
0.0
  0
LINE
  8
0
 62
     0
 10
0.460015
 20
4.42692
 30
0.0
 11
0.465169
 21
4.42785
 31
0.0
  0
LINE
  8
0
 62
     0
 10
0.465169
 20
4.42785
 30
0.0
 11
0.470269
 21
4.42882
 31
0.0
  0
LINE
  8
0
 62
     0
 10
0.470269
 20
4.42882
 30
0.0
 11
0.496528
 21
4.43528
 31
0.0
  0
LINE
  8
0
 62
     0
 10
0.496528
 20
4.43528
 30
0.0
 11
0.517199
 21
4.44211
 31
0.0
  0
LINE
  8
0
 62
     0
 10
0.517199
 20
4.44211
 30
0.0
 11
0.519532
 21
4.44325
 31
0.0
  0
LINE
  8
0
 62
     0
 10
0.519532
 20
4.44325
 30
0.0
 11
0.52181
 21
4.44444
 31
0.0
  0
LINE
  8
0
 62
     0
 10
0.52181
 20
4.44444
 30
0.0
 11
0.543674
 21
4.45535
 31
0.0
  0
LINE
  8
0
 62
     0
 10
0.543674
 20
4.45535
 30
0.0
 11
0.572374
 21
4.46962
 31
0.0
  0
LINE
  8
0
 62
     0
 10
0.572374
 20
4.46962
 30
0.0
 11
0.578125
 21
4.47244
 31
0.0
  0
LINE
  8
0
 62
     0
 10
0.578125
 20
4.47244
 30
0.0
 11
0.583822
 21
4.47532
 31
0.0
  0
LINE
  8
0
 62
     0
 10
0.583822
 20
4.47532
 30
0.0
 11
0.615722
 21
4.4891
 31
0.0
  0
LINE
  8
0
 62
     0
 10
0.615722
 20
4.4891
 30
0.0
 11
0.643881
 21
4.49897
 31
0.0
  0
LINE
  8
0
 62
     0
 10
0.643881
 20
4.49897
 30
0.0
 11
0.647732
 21
4.49983
 31
0.0
  0
LINE
  8
0
 62
     0
 10
0.647732
 20
4.49983
 30
0.0
 11
0.666069
 21
4.50418
 31
0.0
  0
LINE
  8
0
 62
     0
 10
0.666069
 20
4.50418
 30
0.0
 11
0.721517
 21
4.53282
 31
0.0
  0
LINE
  8
0
 62
     0
 10
0.721517
 20
4.53282
 30
0.0
 11
0.815701
 21
4.59347
 31
0.0
  0
LINE
  8
0
 62
     0
 10
0.815701
 20
4.59347
 30
0.0
 11
0.904297
 21
4.66342
 31
0.0
  0
LINE
  8
0
 62
     0
 10
0.904297
 20
4.66342
 30
0.0
 11
0.950575
 21
4.70747
 31
0.0
  0
LINE
  8
0
 62
     0
 10
0.950575
 20
4.70747
 30
0.0
 11
0.961535
 21
4.72407
 31
0.0
  0
LINE
  8
0
 62
     0
 10
0.961535
 20
4.72407
 30
0.0
 11
0.968913
 21
4.73529
 31
0.0
  0
LINE
  8
0
 62
     0
 10
0.968913
 20
4.73529
 30
0.0
 11
0.990668
 21
4.76932
 31
0.0
  0
LINE
  8
0
 62
     0
 10
0.990668
 20
4.76932
 30
0.0
 11
1.00884
 21
4.80007
 31
0.0
  0
LINE
  8
0
 62
     0
 10
1.00884
 20
4.80007
 30
0.0
 11
1.01818
 21
4.82047
 31
0.0
  0
LINE
  8
0
 62
     0
 10
1.01818
 20
4.82047
 30
0.0
 11
1.02083
 21
4.831
 31
0.0
  0
LINE
  8
0
 62
     0
 10
1.02083
 20
4.831
 30
0.0
 11
1.02083
 21
4.83447
 31
0.0
  0
LINE
  8
0
 62
     0
 10
1.02083
 20
4.83447
 30
0.0
 11
1.02083
 21
4.83908
 31
0.0
  0
LINE
  8
0
 62
     0
 10
1.02083
 20
4.83908
 30
0.0
 11
1.02528
 21
4.85292
 31
0.0
  0
LINE
  8
0
 62
     0
 10
1.02528
 20
4.85292
 30
0.0
 11
1.03396
 21
4.87093
 31
0.0
  0
LINE
  8
0
 62
     0
 10
1.03396
 20
4.87093
 30
0.0
 11
1.03608
 21
4.87414
 31
0.0
  0
LINE
  8
0
 62
     0
 10
1.03608
 20
4.87414
 30
0.0
 11
1.04221
 21
4.88357
 31
0.0
  0
LINE
  8
0
 62
     0
 10
1.04221
 20
4.88357
 30
0.0
 11
1.05452
 21
4.91829
 31
0.0
  0
LINE
  8
0
 62
     0
 10
1.05452
 20
4.91829
 30
0.0
 11
1.07096
 21
4.98415
 31
0.0
  0
LINE
  8
0
 62
     0
 10
1.07096
 20
4.98415
 30
0.0
 11
1.08236
 21
5.05664
 31
0.0
  0
LINE
  8
0
 62
     0
 10
1.08236
 20
5.05664
 30
0.0
 11
1.0861
 21
5.1046
 31
0.0
  0
LINE
  8
0
 62
     0
 10
1.0861
 20
5.1046
 30
0.0
 11
1.08561
 21
5.1205
 31
0.0
  0
LINE
  8
0
 62
     0
 10
1.08561
 20
5.1205
 30
0.0
 11
1.08496
 21
5.139
 31
0.0
  0
LINE
  8
0
 62
     0
 10
1.08496
 20
5.139
 30
0.0
 11
1.074
 21
5.19417
 31
0.0
  0
LINE
  8
0
 62
     0
 10
1.074
 20
5.19417
 30
0.0
 11
1.0465
 21
5.2691
 31
0.0
  0
LINE
  8
0
 62
     0
 10
1.0465
 20
5.2691
 30
0.0
 11
1.007
 21
5.33697
 31
0.0
  0
LINE
  8
0
 62
     0
 10
1.007
 20
5.33697
 30
0.0
 11
0.972874
 21
5.37819
 31
0.0
  0
LINE
  8
0
 62
     0
 10
0.972874
 20
5.37819
 30
0.0
 11
0.959472
 21
5.38943
 31
0.0
  0
LINE
  8
0
 62
     0
 10
0.959472
 20
5.38943
 30
0.0
 11
0.939019
 21
5.40653
 31
0.0
  0
LINE
  8
0
 62
     0
 10
0.939019
 20
5.40653
 30
0.0
 11
0.875325
 21
5.45475
 31
0.0
  0
LINE
  8
0
 62
     0
 10
0.875325
 20
5.45475
 30
0.0
 11
0.792697
 21
5.50971
 31
0.0
  0
LINE
  8
0
 62
     0
 10
0.792697
 20
5.50971
 30
0.0
 11
0.717665
 21
5.55057
 31
0.0
  0
LINE
  8
0
 62
     0
 10
0.717665
 20
5.55057
 30
0.0
 11
0.672038
 21
5.56972
 31
0.0
  0
LINE
  8
0
 62
     0
 10
0.672038
 20
5.56972
 30
0.0
 11
0.65625
 21
5.57362
 31
0.0
  0
LINE
  8
0
 62
     0
 10
0.65625
 20
5.57362
 30
0.0
 11
0.648546
 21
5.57553
 31
0.0
  0
LINE
  8
0
 62
     0
 10
0.648546
 20
5.57553
 30
0.0
 11
0.617839
 21
5.5841
 31
0.0
  0
LINE
  8
0
 62
     0
 10
0.617839
 20
5.5841
 30
0.0
 11
0.55995
 21
5.60081
 31
0.0
  0
LINE
  8
0
 62
     0
 10
0.55995
 20
5.60081
 30
0.0
 11
0.499403
 21
5.61876
 31
0.0
  0
LINE
  8
0
 62
     0
 10
0.499403
 20
5.61876
 30
0.0
 11
0.464301
 21
5.62944
 31
0.0
  0
LINE
  8
0
 62
     0
 10
0.464301
 20
5.62944
 30
0.0
 11
0.453125
 21
5.63303
 31
0.0
  0
LINE
  8
0
 62
     0
 10
0.453125
 20
5.63303
 30
0.0
 11
0.448785
 21
5.63444
 31
0.0
  0
LINE
  8
0
 62
     0
 10
0.448785
 20
5.63444
 30
0.0
 11
0.432726
 21
5.63943
 31
0.0
  0
LINE
  8
0
 62
     0
 10
0.432726
 20
5.63943
 30
0.0
 11
0.400444
 21
5.64931
 31
0.0
  0
LINE
  8
0
 62
     0
 10
0.400444
 20
5.64931
 30
0.0
 11
0.360568
 21
5.66129
 31
0.0
  0
LINE
  8
0
 62
     0
 10
0.360568
 20
5.66129
 30
0.0
 11
0.328396
 21
5.6709
 31
0.0
  0
LINE
  8
0
 62
     0
 10
0.328396
 20
5.6709
 30
0.0
 11
0.317708
 21
5.67404
 31
0.0
  0
LINE
  8
0
 62
     0
 10
0.317708
 20
5.67404
 30
0.0
 11
0.30664
 21
5.67736
 31
0.0
  0
LINE
  8
0
 62
     0
 10
0.30664
 20
5.67736
 30
0.0
 11
0.273546
 21
5.68733
 31
0.0
  0
LINE
  8
0
 62
     0
 10
0.273546
 20
5.68733
 30
0.0
 11
0.23036
 21
5.70068
 31
0.0
  0
LINE
  8
0
 62
     0
 10
0.23036
 20
5.70068
 30
0.0
 11
0.193033
 21
5.71257
 31
0.0
  0
LINE
  8
0
 62
     0
 10
0.193033
 20
5.71257
 30
0.0
 11
0.173068
 21
5.71913
 31
0.0
  0
LINE
  8
0
 62
     0
 10
0.173068
 20
5.71913
 30
0.0
 11
0.166667
 21
5.72136
 31
0.0
  0
LINE
  8
0
 62
     0
 10
0.166667
 20
5.72136
 30
0.0
 11
0.160211
 21
5.72364
 31
0.0
  0
LINE
  8
0
 62
     0
 10
0.160211
 20
5.72364
 30
0.0
 11
0.121311
 21
5.73617
 31
0.0
  0
LINE
  8
0
 62
     0
 10
0.121311
 20
5.73617
 30
0.0
 11
0.0838217
 21
5.74713
 31
0.0
  0
LINE
  8
0
 62
     0
 10
0.0838217
 20
5.74713
 30
0.0
 11
0.078125
 21
5.74858
 31
0.0
  0
LINE
  8
0
 62
     0
 10
0.078125
 20
5.74858
 30
0.0
 11
0.0717774
 21
5.75022
 31
0.0
  0
LINE
  8
0
 62
     0
 10
0.0717774
 20
5.75022
 30
0.0
 11
0.0530057
 21
5.75564
 31
0.0
  0
LINE
  8
0
 62
     0
 10
0.0530057
 20
5.75564
 30
0.0
 11
0.0339085
 21
5.76324
 31
0.0
  0
LINE
  8
0
 62
     0
 10
0.0339085
 20
5.76324
 30
0.0
 11
0.0200738
 21
5.77333
 31
0.0
  0
LINE
  8
0
 62
     0
 10
0.0200738
 20
5.77333
 30
0.0
 11
0.0106337
 21
5.78792
 31
0.0
  0
LINE
  8
0
 62
     0
 10
0.0106337
 20
5.78792
 30
0.0
 11
0.00472006
 21
5.80892
 31
0.0
  0
LINE
  8
0
 62
     0
 10
0.00472006
 20
5.80892
 30
0.0
 11
0.0015191
 21
5.83817
 31
0.0
  0
LINE
  8
0
 62
     0
 10
0.0015191
 20
5.83817
 30
0.0
 11
0.000217014
 21
5.87771
 31
0.0
  0
LINE
  8
0
 62
     0
 10
0.000217014
 20
5.87771
 30
0.0
 11
0
 21
5.91644
 31
0.0
  0
LINE
  8
0
 62
     0
 10
0
 20
5.91644
 30
0.0
 11
0
 21
5.92936
 31
0.0
  0
LINE
  8
0
 62
     0
 10
0
 20
5.92936
 30
0.0
 11
0
 21
5.94613
 31
0.0
  0
LINE
  8
0
 62
     0
 10
0
 20
5.94613
 30
0.0
 11
0.000651042
 21
5.99642
 31
0.0
  0
LINE
  8
0
 62
     0
 10
0.000651042
 20
5.99642
 30
0.0
 11
0.00303819
 21
6.04036
 31
0.0
  0
LINE
  8
0
 62
     0
 10
0.00303819
 20
6.04036
 30
0.0
 11
0.00743272
 21
6.06554
 31
0.0
  0
LINE
  8
0
 62
     0
 10
0.00743272
 20
6.06554
 30
0.0
 11
0.0119358
 21
6.07476
 31
0.0
  0
LINE
  8
0
 62
     0
 10
0.0119358
 20
6.07476
 30
0.0
 11
0.0143772
 21
6.07617
 31
0.0
  0
LINE
  8
0
 62
     0
 10
0.0143772
 20
6.07617
 30
0.0
 11
0.0180664
 21
6.07835
 31
0.0
  0
LINE
  8
0
 62
     0
 10
0.0180664
 20
6.07835
 30
0.0
 11
0.0287001
 21
6.08589
 31
0.0
  0
LINE
  8
0
 62
     0
 10
0.0287001
 20
6.08589
 30
0.0
 11
0.0466581
 21
6.10015
 31
0.0
  0
LINE
  8
0
 62
     0
 10
0.0466581
 20
6.10015
 30
0.0
 11
0.0666233
 21
6.11724
 31
0.0
  0
LINE
  8
0
 62
     0
 10
0.0666233
 20
6.11724
 30
0.0
 11
0.0868056
 21
6.13564
 31
0.0
  0
LINE
  8
0
 62
     0
 10
0.0868056
 20
6.13564
 30
0.0
 11
0.105469
 21
6.15369
 31
0.0
  0
LINE
  8
0
 62
     0
 10
0.105469
 20
6.15369
 30
0.0
 11
0.120931
 21
6.16982
 31
0.0
  0
LINE
  8
0
 62
     0
 10
0.120931
 20
6.16982
 30
0.0
 11
0.13151
 21
6.1824
 31
0.0
  0
LINE
  8
0
 62
     0
 10
0.13151
 20
6.1824
 30
0.0
 11
0.135417
 21
6.18793
 31
0.0
  0
LINE
  8
0
 62
     0
 10
0.135417
 20
6.18793
 30
0.0
 11
0.135417
 21
6.18972
 31
0.0
  0
LINE
  8
0
 62
     0
 10
0.135417
 20
6.18972
 30
0.0
 11
0.135417
 21
6.19228
 31
0.0
  0
LINE
  8
0
 62
     0
 10
0.135417
 20
6.19228
 30
0.0
 11
0.143175
 21
6.19987
 31
0.0
  0
LINE
  8
0
 62
     0
 10
0.143175
 20
6.19987
 30
0.0
 11
0.172581
 21
6.20871
 31
0.0
  0
LINE
  8
0
 62
     0
 10
0.172581
 20
6.20871
 30
0.0
 11
0.23291
 21
6.21815
 31
0.0
  0
LINE
  8
0
 62
     0
 10
0.23291
 20
6.21815
 30
0.0
 11
0.308214
 21
6.22732
 31
0.0
  0
LINE
  8
0
 62
     0
 10
0.308214
 20
6.22732
 30
0.0
 11
0.333333
 21
6.23014
 31
0.0
  0
LINE
  8
0
 62
     0
 10
0.333333
 20
6.23014
 30
0.0
 11
0.347439
 21
6.23172
 31
0.0
  0
LINE
  8
0
 62
     0
 10
0.347439
 20
6.23172
 30
0.0
 11
0.389865
 21
6.23654
 31
0.0
  0
LINE
  8
0
 62
     0
 10
0.389865
 20
6.23654
 30
0.0
 11
0.447592
 21
6.24322
 31
0.0
  0
LINE
  8
0
 62
     0
 10
0.447592
 20
6.24322
 30
0.0
 11
0.499729
 21
6.24924
 31
0.0
  0
LINE
  8
0
 62
     0
 10
0.499729
 20
6.24924
 30
0.0
 11
0.529568
 21
6.25276
 31
0.0
  0
LINE
  8
0
 62
     0
 10
0.529568
 20
6.25276
 30
0.0
 11
0.539497
 21
6.25396
 31
0.0
  0
LINE
  8
0
 62
     0
 10
0.539497
 20
6.25396
 30
0.0
 11
0.564399
 21
6.257
 31
0.0
  0
LINE
  8
0
 62
     0
 10
0.564399
 20
6.257
 30
0.0
 11
0.657389
 21
6.26101
 31
0.0
  0
LINE
  8
0
 62
     0
 10
0.657389
 20
6.26101
 30
0.0
 11
0.827094
 21
6.26383
 31
0.0
  0
LINE
  8
0
 62
     0
 10
0.827094
 20
6.26383
 30
0.0
 11
0.996744
 21
6.26232
 31
0.0
  0
LINE
  8
0
 62
     0
 10
0.996744
 20
6.26232
 30
0.0
 11
1.08968
 21
6.25906
 31
0.0
  0
LINE
  8
0
 62
     0
 10
1.08968
 20
6.25906
 30
0.0
 11
1.11458
 21
6.25624
 31
0.0
  0
LINE
  8
0
 62
     0
 10
1.11458
 20
6.25624
 30
0.0
 11
1.12532
 21
6.25504
 31
0.0
  0
LINE
  8
0
 62
     0
 10
1.12532
 20
6.25504
 30
0.0
 11
1.19423
 21
6.24849
 31
0.0
  0
LINE
  8
0
 62
     0
 10
1.19423
 20
6.24849
 30
0.0
 11
1.26454
 21
6.24294
 31
0.0
  0
LINE
  8
0
 62
     0
 10
1.26454
 20
6.24294
 30
0.0
 11
1.27604
 21
6.24219
 31
0.0
  0
LINE
  8
0
 62
     0
 10
1.27604
 20
6.24219
 30
0.0
 11
1.28749
 21
6.24149
 31
0.0
  0
LINE
  8
0
 62
     0
 10
1.28749
 20
6.24149
 30
0.0
 11
1.36089
 21
6.23687
 31
0.0
  0
LINE
  8
0
 62
     0
 10
1.36089
 20
6.23687
 30
0.0
 11
1.43571
 21
6.23215
 31
0.0
  0
LINE
  8
0
 62
     0
 10
1.43571
 20
6.23215
 30
0.0
 11
1.44792
 21
6.23139
 31
0.0
  0
LINE
  8
0
 62
     0
 10
1.44792
 20
6.23139
 30
0.0
 11
1.45779
 21
6.23079
 31
0.0
  0
LINE
  8
0
 62
     0
 10
1.45779
 20
6.23079
 30
0.0
 11
1.48753
 21
6.22765
 31
0.0
  0
LINE
  8
0
 62
     0
 10
1.48753
 20
6.22765
 30
0.0
 11
1.52994
 21
6.22131
 31
0.0
  0
LINE
  8
0
 62
     0
 10
1.52994
 20
6.22131
 30
0.0
 11
1.5701
 21
6.21338
 31
0.0
  0
LINE
  8
0
 62
     0
 10
1.5701
 20
6.21338
 30
0.0
 11
1.59483
 21
6.20731
 31
0.0
  0
LINE
  8
0
 62
     0
 10
1.59483
 20
6.20731
 30
0.0
 11
1.60292
 21
6.20469
 31
0.0
  0
LINE
  8
0
 62
     0
 10
1.60292
 20
6.20469
 30
0.0
 11
1.61203
 21
6.20176
 31
0.0
  0
LINE
  8
0
 62
     0
 10
1.61203
 20
6.20176
 30
0.0
 11
1.66151
 21
6.18967
 31
0.0
  0
LINE
  8
0
 62
     0
 10
1.66151
 20
6.18967
 30
0.0
 11
1.69726
 21
6.18343
 31
0.0
  0
LINE
  8
0
 62
     0
 10
1.69726
 20
6.18343
 30
0.0
 11
1.70921
 21
6.18343
 31
0.0
  0
LINE
  8
0
 62
     0
 10
1.70921
 20
6.18343
 30
0.0
 11
1.71815
 21
6.18343
 31
0.0
  0
LINE
  8
0
 62
     0
 10
1.71815
 20
6.18343
 30
0.0
 11
1.74511
 21
6.1799
 31
0.0
  0
LINE
  8
0
 62
     0
 10
1.74511
 20
6.1799
 30
0.0
 11
1.77186
 21
6.17307
 31
0.0
  0
LINE
  8
0
 62
     0
 10
1.77186
 20
6.17307
 30
0.0
 11
1.77556
 21
6.17139
 31
0.0
  0
LINE
  8
0
 62
     0
 10
1.77556
 20
6.17139
 30
0.0
 11
1.80208
 21
6.15929
 31
0.0
  0
LINE
  8
0
 62
     0
 10
1.80208
 20
6.15929
 30
0.0
 11
1.803
 21
5.40836
 31
0.0
  0
LINE
  8
0
 62
     0
 10
1.803
 20
5.40836
 30
0.0
 11
1.803
 21
5.36908
 31
0.0
  0
LINE
  8
0
 62
     0
 10
1.803
 20
5.36908
 30
0.0
 11
1.80322
 21
5.25119
 31
0.0
  0
LINE
  8
0
 62
     0
 10
1.80322
 20
5.25119
 30
0.0
 11
1.80365
 21
5.09233
 31
0.0
  0
LINE
  8
0
 62
     0
 10
1.80365
 20
5.09233
 30
0.0
 11
1.80425
 21
4.93619
 31
0.0
  0
LINE
  8
0
 62
     0
 10
1.80425
 20
4.93619
 30
0.0
 11
1.8049
 21
4.78706
 31
0.0
  0
LINE
  8
0
 62
     0
 10
1.8049
 20
4.78706
 30
0.0
 11
1.80567
 21
4.64925
 31
0.0
  0
LINE
  8
0
 62
     0
 10
1.80567
 20
4.64925
 30
0.0
 11
1.80647
 21
4.52724
 31
0.0
  0
LINE
  8
0
 62
     0
 10
1.80647
 20
4.52724
 30
0.0
 11
1.80735
 21
4.42529
 31
0.0
  0
LINE
  8
0
 62
     0
 10
1.80735
 20
4.42529
 30
0.0
 11
1.808
 21
4.36714
 31
0.0
  0
LINE
  8
0
 62
     0
 10
1.808
 20
4.36714
 30
0.0
 11
1.80826
 21
4.34771
 31
0.0
  0
LINE
  8
0
 62
     0
 10
1.80826
 20
4.34771
 30
0.0
 11
1.81267
 21
4.03797
 31
0.0
  0
LINE
  8
0
 62
     0
 10
1.81267
 20
4.03797
 30
0.0
 11
1.77354
 21
4.0134
 31
0.0
  0
LINE
  8
0
 62
     0
 10
1.77354
 20
4.0134
 30
0.0
 11
1.76813
 21
4.01004
 31
0.0
  0
LINE
  8
0
 62
     0
 10
1.76813
 20
4.01004
 30
0.0
 11
1.74126
 21
3.99576
 31
0.0
  0
LINE
  8
0
 62
     0
 10
1.74126
 20
3.99576
 30
0.0
 11
1.72086
 21
3.98796
 31
0.0
  0
LINE
  8
0
 62
     0
 10
1.72086
 20
3.98796
 30
0.0
 11
1.71875
 21
3.98779
 31
0.0
  0
LINE
  8
0
 62
     0
 10
1.71875
 20
3.98779
 30
0.0
 11
1.71181
 21
3.98736
 31
0.0
  0
LINE
  8
0
 62
     0
 10
1.71181
 20
3.98736
 30
0.0
 11
1.68994
 21
3.98318
 31
0.0
  0
LINE
  8
0
 62
     0
 10
1.68994
 20
3.98318
 30
0.0
 11
1.65278
 21
3.97407
 31
0.0
  0
LINE
  8
0
 62
     0
 10
1.65278
 20
3.97407
 30
0.0
 11
1.61882
 21
3.96365
 31
0.0
  0
LINE
  8
0
 62
     0
 10
1.61882
 20
3.96365
 30
0.0
 11
1.60215
 21
3.95719
 31
0.0
  0
LINE
  8
0
 62
     0
 10
1.60215
 20
3.95719
 30
0.0
 11
1.59939
 21
3.95497
 31
0.0
  0
LINE
  8
0
 62
     0
 10
1.59939
 20
3.95497
 30
0.0
 11
1.59787
 21
3.95378
 31
0.0
  0
LINE
  8
0
 62
     0
 10
1.59787
 20
3.95378
 30
0.0
 11
1.57667
 21
3.9471
 31
0.0
  0
LINE
  8
0
 62
     0
 10
1.57667
 20
3.9471
 30
0.0
 11
1.54432
 21
3.94108
 31
0.0
  0
LINE
  8
0
 62
     0
 10
1.54432
 20
3.94108
 30
0.0
 11
1.53733
 21
3.94021
 31
0.0
  0
LINE
  8
0
 62
     0
 10
1.53733
 20
3.94021
 30
0.0
 11
1.53028
 21
3.9394
 31
0.0
  0
LINE
  8
0
 62
     0
 10
1.53028
 20
3.9394
 30
0.0
 11
1.49799
 21
3.93278
 31
0.0
  0
LINE
  8
0
 62
     0
 10
1.49799
 20
3.93278
 30
0.0
 11
1.47683
 21
3.92492
 31
0.0
  0
LINE
  8
0
 62
     0
 10
1.47683
 20
3.92492
 30
0.0
 11
1.47537
 21
3.92339
 31
0.0
  0
LINE
  8
0
 62
     0
 10
1.47537
 20
3.92339
 30
0.0
 11
1.47385
 21
3.92193
 31
0.0
  0
LINE
  8
0
 62
     0
 10
1.47385
 20
3.92193
 30
0.0
 11
1.46192
 21
3.91581
 31
0.0
  0
LINE
  8
0
 62
     0
 10
1.46192
 20
3.91581
 30
0.0
 11
1.44906
 21
3.9126
 31
0.0
  0
LINE
  8
0
 62
     0
 10
1.44906
 20
3.9126
 30
0.0
 11
1.44482
 21
3.9126
 31
0.0
  0
LINE
  8
0
 62
     0
 10
1.44482
 20
3.9126
 30
0.0
 11
1.43892
 21
3.9126
 31
0.0
  0
LINE
  8
0
 62
     0
 10
1.43892
 20
3.9126
 30
0.0
 11
1.42117
 21
3.90847
 31
0.0
  0
LINE
  8
0
 62
     0
 10
1.42117
 20
3.90847
 30
0.0
 11
1.39671
 21
3.90039
 31
0.0
  0
LINE
  8
0
 62
     0
 10
1.39671
 20
3.90039
 30
0.0
 11
1.39219
 21
3.89844
 31
0.0
  0
LINE
  8
0
 62
     0
 10
1.39219
 20
3.89844
 30
0.0
 11
1.38102
 21
3.89367
 31
0.0
  0
LINE
  8
0
 62
     0
 10
1.38102
 20
3.89367
 30
0.0
 11
1.34744
 21
3.87956
 31
0.0
  0
LINE
  8
0
 62
     0
 10
1.34744
 20
3.87956
 30
0.0
 11
1.31738
 21
3.86794
 31
0.0
  0
LINE
  8
0
 62
     0
 10
1.31738
 20
3.86794
 30
0.0
 11
1.29747
 21
3.86208
 31
0.0
  0
LINE
  8
0
 62
     0
 10
1.29747
 20
3.86208
 30
0.0
 11
1.28689
 21
3.86046
 31
0.0
  0
LINE
  8
0
 62
     0
 10
1.28689
 20
3.86046
 30
0.0
 11
1.28337
 21
3.86046
 31
0.0
  0
LINE
  8
0
 62
     0
 10
1.28337
 20
3.86046
 30
0.0
 11
1.27799
 21
3.86046
 31
0.0
  0
LINE
  8
0
 62
     0
 10
1.27799
 20
3.86046
 30
0.0
 11
1.26204
 21
3.8559
 31
0.0
  0
LINE
  8
0
 62
     0
 10
1.26204
 20
3.8559
 30
0.0
 11
1.23985
 21
3.847
 31
0.0
  0
LINE
  8
0
 62
     0
 10
1.23985
 20
3.847
 30
0.0
 11
1.23579
 21
3.84483
 31
0.0
  0
LINE
  8
0
 62
     0
 10
1.23579
 20
3.84483
 30
0.0
 11
1.23166
 21
3.84272
 31
0.0
  0
LINE
  8
0
 62
     0
 10
1.23166
 20
3.84272
 30
0.0
 11
1.20888
 21
3.83388
 31
0.0
  0
LINE
  8
0
 62
     0
 10
1.20888
 20
3.83388
 30
0.0
 11
1.19179
 21
3.82926
 31
0.0
  0
LINE
  8
0
 62
     0
 10
1.19179
 20
3.82926
 30
0.0
 11
1.18614
 21
3.82926
 31
0.0
  0
LINE
  8
0
 62
     0
 10
1.18614
 20
3.82926
 30
0.0
 11
1.18132
 21
3.82926
 31
0.0
  0
LINE
  8
0
 62
     0
 10
1.18132
 20
3.82926
 30
0.0
 11
1.16688
 21
3.8265
 31
0.0
  0
LINE
  8
0
 62
     0
 10
1.16688
 20
3.8265
 30
0.0
 11
1.15077
 21
3.82107
 31
0.0
  0
LINE
  8
0
 62
     0
 10
1.15077
 20
3.82107
 30
0.0
 11
1.14827
 21
3.81972
 31
0.0
  0
LINE
  8
0
 62
     0
 10
1.14827
 20
3.81972
 30
0.0
 11
1.14578
 21
3.81842
 31
0.0
  0
LINE
  8
0
 62
     0
 10
1.14578
 20
3.81842
 30
0.0
 11
1.12174
 21
3.80686
 31
0.0
  0
LINE
  8
0
 62
     0
 10
1.12174
 20
3.80686
 30
0.0
 11
1.08973
 21
3.79215
 31
0.0
  0
LINE
  8
0
 62
     0
 10
1.08973
 20
3.79215
 30
0.0
 11
1.08333
 21
3.78928
 31
0.0
  0
LINE
  8
0
 62
     0
 10
1.08333
 20
3.78928
 30
0.0
 11
1.07688
 21
3.78646
 31
0.0
  0
LINE
  8
0
 62
     0
 10
1.07688
 20
3.78646
 30
0.0
 11
1.03678
 21
3.76286
 31
0.0
  0
LINE
  8
0
 62
     0
 10
1.03678
 20
3.76286
 30
0.0
 11
0.997017
 21
3.73406
 31
0.0
  0
LINE
  8
0
 62
     0
 10
0.997017
 20
3.73406
 30
0.0
 11
0.990722
 21
3.72857
 31
0.0
  0
LINE
  8
0
 62
     0
 10
0.990722
 20
3.72857
 30
0.0
 11
0.983399
 21
3.72222
 31
0.0
  0
LINE
  8
0
 62
     0
 10
0.983399
 20
3.72222
 30
0.0
 11
0.961806
 21
3.70258
 31
0.0
  0
LINE
  8
0
 62
     0
 10
0.961806
 20
3.70258
 30
0.0
 11
0.93164
 21
3.6741
 31
0.0
  0
LINE
  8
0
 62
     0
 10
0.93164
 20
3.6741
 30
0.0
 11
0.901801
 21
3.64475
 31
0.0
  0
LINE
  8
0
 62
     0
 10
0.901801
 20
3.64475
 30
0.0
 11
0.873861
 21
3.61621
 31
0.0
  0
LINE
  8
0
 62
     0
 10
0.873861
 20
3.61621
 30
0.0
 11
0.849393
 21
3.59011
 31
0.0
  0
LINE
  8
0
 62
     0
 10
0.849393
 20
3.59011
 30
0.0
 11
0.829915
 21
3.56803
 31
0.0
  0
LINE
  8
0
 62
     0
 10
0.829915
 20
3.56803
 30
0.0
 11
0.817111
 21
3.55176
 31
0.0
  0
LINE
  8
0
 62
     0
 10
0.817111
 20
3.55176
 30
0.0
 11
0.8125
 21
3.54503
 31
0.0
  0
LINE
  8
0
 62
     0
 10
0.8125
 20
3.54503
 30
0.0
 11
0.8125
 21
3.54275
 31
0.0
  0
LINE
  8
0
 62
     0
 10
0.8125
 20
3.54275
 30
0.0
 11
0.8125
 21
3.53754
 31
0.0
  0
LINE
  8
0
 62
     0
 10
0.8125
 20
3.53754
 30
0.0
 11
0.806315
 21
3.52181
 31
0.0
  0
LINE
  8
0
 62
     0
 10
0.806315
 20
3.52181
 30
0.0
 11
0.794379
 21
3.49365
 31
0.0
  0
LINE
  8
0
 62
     0
 10
0.794379
 20
3.49365
 30
0.0
 11
0.791504
 21
3.48762
 31
0.0
  0
LINE
  8
0
 62
     0
 10
0.791504
 20
3.48762
 30
0.0
 11
0.788574
 21
3.48167
 31
0.0
  0
LINE
  8
0
 62
     0
 10
0.788574
 20
3.48167
 30
0.0
 11
0.777126
 21
3.44851
 31
0.0
  0
LINE
  8
0
 62
     0
 10
0.777126
 20
3.44851
 30
0.0
 11
0.771864
 21
3.41932
 31
0.0
  0
LINE
  8
0
 62
     0
 10
0.771864
 20
3.41932
 30
0.0
 11
0.772081
 21
3.41536
 31
0.0
  0
LINE
  8
0
 62
     0
 10
0.772081
 20
3.41536
 30
0.0
 11
0.772299
 21
3.4114
 31
0.0
  0
LINE
  8
0
 62
     0
 10
0.772299
 20
3.4114
 30
0.0
 11
0.769694
 21
3.38644
 31
0.0
  0
LINE
  8
0
 62
     0
 10
0.769694
 20
3.38644
 30
0.0
 11
0.763456
 21
3.36133
 31
0.0
  0
LINE
  8
0
 62
     0
 10
0.763456
 20
3.36133
 30
0.0
 11
0.761828
 21
3.35726
 31
0.0
  0
LINE
  8
0
 62
     0
 10
0.761828
 20
3.35726
 30
0.0
 11
0.757488
 21
3.34657
 31
0.0
  0
LINE
  8
0
 62
     0
 10
0.757488
 20
3.34657
 30
0.0
 11
0.752388
 21
3.29937
 31
0.0
  0
LINE
  8
0
 62
     0
 10
0.752388
 20
3.29937
 30
0.0
 11
0.749892
 21
3.2111
 31
0.0
  0
LINE
  8
0
 62
     0
 10
0.749892
 20
3.2111
 30
0.0
 11
0.754015
 21
3.1244
 31
0.0
  0
LINE
  8
0
 62
     0
 10
0.754015
 20
3.1244
 30
0.0
 11
0.759983
 21
3.07969
 31
0.0
  0
LINE
  8
0
 62
     0
 10
0.759983
 20
3.07969
 30
0.0
 11
0.76454
 21
3.07096
 31
0.0
  0
LINE
  8
0
 62
     0
 10
0.76454
 20
3.07096
 30
0.0
 11
0.766547
 21
3.06711
 31
0.0
  0
LINE
  8
0
 62
     0
 10
0.766547
 20
3.06711
 30
0.0
 11
0.777018
 21
3.03347
 31
0.0
  0
LINE
  8
0
 62
     0
 10
0.777018
 20
3.03347
 30
0.0
 11
0.78559
 21
2.99104
 31
0.0
  0
LINE
  8
0
 62
     0
 10
0.78559
 20
2.99104
 30
0.0
 11
0.786621
 21
2.98275
 31
0.0
  0
LINE
  8
0
 62
     0
 10
0.786621
 20
2.98275
 30
0.0
 11
0.787651
 21
2.9745
 31
0.0
  0
LINE
  8
0
 62
     0
 10
0.787651
 20
2.9745
 30
0.0
 11
0.79541
 21
2.9381
 31
0.0
  0
LINE
  8
0
 62
     0
 10
0.79541
 20
2.9381
 30
0.0
 11
0.804363
 21
2.91613
 31
0.0
  0
LINE
  8
0
 62
     0
 10
0.804363
 20
2.91613
 30
0.0
 11
0.806044
 21
2.91504
 31
0.0
  0
LINE
  8
0
 62
     0
 10
0.806044
 20
2.91504
 30
0.0
 11
0.807671
 21
2.91401
 31
0.0
  0
LINE
  8
0
 62
     0
 10
0.807671
 20
2.91401
 30
0.0
 11
0.822049
 21
2.89442
 31
0.0
  0
LINE
  8
0
 62
     0
 10
0.822049
 20
2.89442
 30
0.0
 11
0.840332
 21
2.86262
 31
0.0
  0
LINE
  8
0
 62
     0
 10
0.840332
 20
2.86262
 30
0.0
 11
0.843913
 21
2.85547
 31
0.0
  0
LINE
  8
0
 62
     0
 10
0.843913
 20
2.85547
 30
0.0
 11
0.850478
 21
2.84229
 31
0.0
  0
LINE
  8
0
 62
     0
 10
0.850478
 20
2.84229
 30
0.0
 11
0.875
 21
2.80507
 31
0.0
  0
LINE
  8
0
 62
     0
 10
0.875
 20
2.80507
 30
0.0
 11
0.918403
 21
2.75028
 31
0.0
  0
LINE
  8
0
 62
     0
 10
0.918403
 20
2.75028
 30
0.0
 11
0.967393
 21
2.69883
 31
0.0
  0
LINE
  8
0
 62
     0
 10
0.967393
 20
2.69883
 30
0.0
 11
1.0025
 21
2.66758
 31
0.0
  0
LINE
  8
0
 62
     0
 10
1.0025
 20
2.66758
 30
0.0
 11
1.01519
 21
2.65853
 31
0.0
  0
LINE
  8
0
 62
     0
 10
1.01519
 20
2.65853
 30
0.0
 11
1.02094
 21
2.6544
 31
0.0
  0
LINE
  8
0
 62
     0
 10
1.02094
 20
2.6544
 30
0.0
 11
1.04986
 21
2.63232
 31
0.0
  0
LINE
  8
0
 62
     0
 10
1.04986
 20
2.63232
 30
0.0
 11
1.07178
 21
2.61399
 31
0.0
  0
LINE
  8
0
 62
     0
 10
1.07178
 20
2.61399
 30
0.0
 11
1.07411
 21
2.61165
 31
0.0
  0
LINE
  8
0
 62
     0
 10
1.07411
 20
2.61165
 30
0.0
 11
1.07639
 21
2.60938
 31
0.0
  0
LINE
  8
0
 62
     0
 10
1.07639
 20
2.60938
 30
0.0
 11
1.09288
 21
2.59526
 31
0.0
  0
LINE
  8
0
 62
     0
 10
1.09288
 20
2.59526
 30
0.0
 11
1.11111
 21
2.58143
 31
0.0
  0
LINE
  8
0
 62
     0
 10
1.11111
 20
2.58143
 30
0.0
 11
1.11437
 21
2.57926
 31
0.0
  0
LINE
  8
0
 62
     0
 10
1.11437
 20
2.57926
 30
0.0
 11
1.11757
 21
2.57715
 31
0.0
  0
LINE
  8
0
 62
     0
 10
1.11757
 20
2.57715
 30
0.0
 11
1.14393
 21
2.55849
 31
0.0
  0
LINE
  8
0
 62
     0
 10
1.14393
 20
2.55849
 30
0.0
 11
1.17605
 21
2.53494
 31
0.0
  0
LINE
  8
0
 62
     0
 10
1.17605
 20
2.53494
 30
0.0
 11
1.18218
 21
2.53033
 31
0.0
  0
LINE
  8
0
 62
     0
 10
1.18218
 20
2.53033
 30
0.0
 11
1.18826
 21
2.52576
 31
0.0
  0
LINE
  8
0
 62
     0
 10
1.18826
 20
2.52576
 30
0.0
 11
1.22613
 21
2.50022
 31
0.0
  0
LINE
  8
0
 62
     0
 10
1.22613
 20
2.50022
 30
0.0
 11
1.26356
 21
2.47771
 31
0.0
  0
LINE
  8
0
 62
     0
 10
1.26356
 20
2.47771
 30
0.0
 11
1.26948
 21
2.47461
 31
0.0
  0
LINE
  8
0
 62
     0
 10
1.26948
 20
2.47461
 30
0.0
 11
1.27534
 21
2.47157
 31
0.0
  0
LINE
  8
0
 62
     0
 10
1.27534
 20
2.47157
 30
0.0
 11
1.30762
 21
2.44943
 31
0.0
  0
LINE
  8
0
 62
     0
 10
1.30762
 20
2.44943
 30
0.0
 11
1.3355
 21
2.42475
 31
0.0
  0
LINE
  8
0
 62
     0
 10
1.3355
 20
2.42475
 30
0.0
 11
1.33919
 21
2.42036
 31
0.0
  0
LINE
  8
0
 62
     0
 10
1.33919
 20
2.42036
 30
0.0
 11
1.34538
 21
2.41303
 31
0.0
  0
LINE
  8
0
 62
     0
 10
1.34538
 20
2.41303
 30
0.0
 11
1.38487
 21
2.37967
 31
0.0
  0
LINE
  8
0
 62
     0
 10
1.38487
 20
2.37967
 30
0.0
 11
1.44054
 21
2.34771
 31
0.0
  0
LINE
  8
0
 62
     0
 10
1.44054
 20
2.34771
 30
0.0
 11
1.45481
 21
2.34104
 31
0.0
  0
LINE
  8
0
 62
     0
 10
1.45481
 20
2.34104
 30
0.0
 11
1.4579
 21
2.33963
 31
0.0
  0
LINE
  8
0
 62
     0
 10
1.4579
 20
2.33963
 30
0.0
 11
1.47939
 21
2.32226
 31
0.0
  0
LINE
  8
0
 62
     0
 10
1.47939
 20
2.32226
 30
0.0
 11
1.50282
 21
2.29719
 31
0.0
  0
LINE
  8
0
 62
     0
 10
1.50282
 20
2.29719
 30
0.0
 11
1.50689
 21
2.29189
 31
0.0
  0
LINE
  8
0
 62
     0
 10
1.50689
 20
2.29189
 30
0.0
 11
1.51096
 21
2.28662
 31
0.0
  0
LINE
  8
0
 62
     0
 10
1.51096
 20
2.28662
 30
0.0
 11
1.53771
 21
2.25325
 31
0.0
  0
LINE
  8
0
 62
     0
 10
1.53771
 20
2.25325
 30
0.0
 11
1.56565
 21
2.21989
 31
0.0
  0
LINE
  8
0
 62
     0
 10
1.56565
 20
2.21989
 30
0.0
 11
1.57032
 21
2.21451
 31
0.0
  0
LINE
  8
0
 62
     0
 10
1.57032
 20
2.21451
 30
0.0
 11
1.57493
 21
2.20921
 31
0.0
  0
LINE
  8
0
 62
     0
 10
1.57493
 20
2.20921
 30
0.0
 11
1.59418
 21
2.18371
 31
0.0
  0
LINE
  8
0
 62
     0
 10
1.59418
 20
2.18371
 30
0.0
 11
1.60417
 21
2.16889
 31
0.0
  0
LINE
  8
0
 62
     0
 10
1.60417
 20
2.16889
 30
0.0
 11
1.60417
 21
2.16396
 31
0.0
  0
LINE
  8
0
 62
     0
 10
1.60417
 20
2.16396
 30
0.0
 11
1.60417
 21
2.16189
 31
0.0
  0
LINE
  8
0
 62
     0
 10
1.60417
 20
2.16189
 30
0.0
 11
1.60883
 21
2.15565
 31
0.0
  0
LINE
  8
0
 62
     0
 10
1.60883
 20
2.15565
 30
0.0
 11
1.61724
 21
2.15218
 31
0.0
  0
LINE
  8
0
 62
     0
 10
1.61724
 20
2.15218
 30
0.0
 11
1.62007
 21
2.15218
 31
0.0
  0
LINE
  8
0
 62
     0
 10
1.62007
 20
2.15218
 30
0.0
 11
1.62358
 21
2.15218
 31
0.0
  0
LINE
  8
0
 62
     0
 10
1.62358
 20
2.15218
 30
0.0
 11
1.63428
 21
2.14421
 31
0.0
  0
LINE
  8
0
 62
     0
 10
1.63428
 20
2.14421
 30
0.0
 11
1.64481
 21
2.12869
 31
0.0
  0
LINE
  8
0
 62
     0
 10
1.64481
 20
2.12869
 30
0.0
 11
1.64626
 21
2.12494
 31
0.0
  0
LINE
  8
0
 62
     0
 10
1.64626
 20
2.12494
 30
0.0
 11
1.64768
 21
2.12121
 31
0.0
  0
LINE
  8
0
 62
     0
 10
1.64768
 20
2.12121
 30
0.0
 11
1.65972
 21
2.09771
 31
0.0
  0
LINE
  8
0
 62
     0
 10
1.65972
 20
2.09771
 30
0.0
 11
1.67469
 21
2.07406
 31
0.0
  0
LINE
  8
0
 62
     0
 10
1.67469
 20
2.07406
 30
0.0
 11
1.67763
 21
2.07026
 31
0.0
  0
LINE
  8
0
 62
     0
 10
1.67763
 20
2.07026
 30
0.0
 11
1.68479
 21
2.06087
 31
0.0
  0
LINE
  8
0
 62
     0
 10
1.68479
 20
2.06087
 30
0.0
 11
1.70628
 21
2.03256
 31
0.0
  0
LINE
  8
0
 62
     0
 10
1.70628
 20
2.03256
 30
0.0
 11
1.72928
 21
2.00142
 31
0.0
  0
LINE
  8
0
 62
     0
 10
1.72928
 20
2.00142
 30
0.0
 11
1.74744
 21
1.97575
 31
0.0
  0
LINE
  8
0
 62
     0
 10
1.74744
 20
1.97575
 30
0.0
 11
1.7615
 21
1.95426
 31
0.0
  0
LINE
  8
0
 62
     0
 10
1.7615
 20
1.95426
 30
0.0
 11
1.77214
 21
1.93582
 31
0.0
  0
LINE
  8
0
 62
     0
 10
1.77214
 20
1.93582
 30
0.0
 11
1.78017
 21
1.91922
 31
0.0
  0
LINE
  8
0
 62
     0
 10
1.78017
 20
1.91922
 30
0.0
 11
1.78629
 21
1.90321
 31
0.0
  0
LINE
  8
0
 62
     0
 10
1.78629
 20
1.90321
 30
0.0
 11
1.79015
 21
1.89079
 31
0.0
  0
LINE
  8
0
 62
     0
 10
1.79015
 20
1.89079
 30
0.0
 11
1.79129
 21
1.88656
 31
0.0
  0
LINE
  8
0
 62
     0
 10
1.79129
 20
1.88656
 30
0.0
 11
1.79318
 21
1.87939
 31
0.0
  0
LINE
  8
0
 62
     0
 10
1.79318
 20
1.87939
 30
0.0
 11
1.80376
 21
1.8464
 31
0.0
  0
LINE
  8
0
 62
     0
 10
1.80376
 20
1.8464
 30
0.0
 11
1.81287
 21
1.8246
 31
0.0
  0
LINE
  8
0
 62
     0
 10
1.81287
 20
1.8246
 30
0.0
 11
1.81413
 21
1.82297
 31
0.0
  0
LINE
  8
0
 62
     0
 10
1.81413
 20
1.82297
 30
0.0
 11
1.81874
 21
1.81694
 31
0.0
  0
LINE
  8
0
 62
     0
 10
1.81874
 20
1.81694
 30
0.0
 11
1.82628
 21
1.79394
 31
0.0
  0
LINE
  8
0
 62
     0
 10
1.82628
 20
1.79394
 30
0.0
 11
1.83594
 21
1.7455
 31
0.0
  0
LINE
  8
0
 62
     0
 10
1.83594
 20
1.7455
 30
0.0
 11
1.84289
 21
1.68371
 31
0.0
  0
LINE
  8
0
 62
     0
 10
1.84289
 20
1.68371
 30
0.0
 11
1.84694
 21
1.61442
 31
0.0
  0
LINE
  8
0
 62
     0
 10
1.84694
 20
1.61442
 30
0.0
 11
1.84782
 21
1.54372
 31
0.0
  0
LINE
  8
0
 62
     0
 10
1.84782
 20
1.54372
 30
0.0
 11
1.84538
 21
1.47749
 31
0.0
  0
LINE
  8
0
 62
     0
 10
1.84538
 20
1.47749
 30
0.0
 11
1.83942
 21
1.42165
 31
0.0
  0
LINE
  8
0
 62
     0
 10
1.83942
 20
1.42165
 30
0.0
 11
1.83339
 21
1.39154
 31
0.0
  0
LINE
  8
0
 62
     0
 10
1.83339
 20
1.39154
 30
0.0
 11
1.82969
 21
1.38222
 31
0.0
  0
LINE
  8
0
 62
     0
 10
1.82969
 20
1.38222
 30
0.0
 11
1.82731
 21
1.37636
 31
0.0
  0
LINE
  8
0
 62
     0
 10
1.82731
 20
1.37636
 30
0.0
 11
1.81749
 21
1.34511
 31
0.0
  0
LINE
  8
0
 62
     0
 10
1.81749
 20
1.34511
 30
0.0
 11
1.81239
 21
1.31923
 31
0.0
  0
LINE
  8
0
 62
     0
 10
1.81239
 20
1.31923
 30
0.0
 11
1.81239
 21
1.31603
 31
0.0
  0
LINE
  8
0
 62
     0
 10
1.81239
 20
1.31603
 30
0.0
 11
1.81233
 21
1.30843
 31
0.0
  0
LINE
  8
0
 62
     0
 10
1.81233
 20
1.30843
 30
0.0
 11
1.80078
 21
1.27441
 31
0.0
  0
LINE
  8
0
 62
     0
 10
1.80078
 20
1.27441
 30
0.0
 11
1.77268
 21
1.20888
 31
0.0
  0
LINE
  8
0
 62
     0
 10
1.77268
 20
1.20888
 30
0.0
 11
1.73774
 21
1.14014
 31
0.0
  0
LINE
  8
0
 62
     0
 10
1.73774
 20
1.14014
 30
0.0
 11
1.71485
 21
1.10064
 31
0.0
  0
LINE
  8
0
 62
     0
 10
1.71485
 20
1.10064
 30
0.0
 11
1.70574
 21
1.0887
 31
0.0
  0
LINE
  8
0
 62
     0
 10
1.70574
 20
1.0887
 30
0.0
 11
1.70176
 21
1.0836
 31
0.0
  0
LINE
  8
0
 62
     0
 10
1.70176
 20
1.0836
 30
0.0
 11
1.68549
 21
1.06011
 31
0.0
  0
LINE
  8
0
 62
     0
 10
1.68549
 20
1.06011
 30
0.0
 11
1.67708
 21
1.04389
 31
0.0
  0
LINE
  8
0
 62
     0
 10
1.67708
 20
1.04389
 30
0.0
 11
1.67708
 21
1.04389
 31
0.0
  0
LINE
  8
0
 62
     0
 10
1.67708
 20
1.04389
 30
0.0
 11
1.67708
 21
1.04015
 31
0.0
  0
LINE
  8
0
 62
     0
 10
1.67708
 20
1.04015
 30
0.0
 11
1.66792
 21
1.02892
 31
0.0
  0
LINE
  8
0
 62
     0
 10
1.66792
 20
1.02892
 30
0.0
 11
1.65018
 21
1.00781
 31
0.0
  0
LINE
  8
0
 62
     0
 10
1.65018
 20
1.00781
 30
0.0
 11
1.64589
 21
1.0032
 31
0.0
  0
LINE
  8
0
 62
     0
 10
1.64589
 20
1.0032
 30
0.0
 11
1.6416
 21
0.998643
 31
0.0
  0
LINE
  8
0
 62
     0
 10
1.6416
 20
0.998643
 30
0.0
 11
1.62381
 21
0.976346
 31
0.0
  0
LINE
  8
0
 62
     0
 10
1.62381
 20
0.976346
 30
0.0
 11
1.61464
 21
0.962999
 31
0.0
  0
LINE
  8
0
 62
     0
 10
1.61464
 20
0.962999
 30
0.0
 11
1.61464
 21
0.95855
 31
0.0
  0
LINE
  8
0
 62
     0
 10
1.61464
 20
0.95855
 30
0.0
 11
1.61458
 21
0.957032
 31
0.0
  0
LINE
  8
0
 62
     0
 10
1.61458
 20
0.957032
 30
0.0
 11
1.60693
 21
0.947103
 31
0.0
  0
LINE
  8
0
 62
     0
 10
1.60693
 20
0.947103
 30
0.0
 11
1.59213
 21
0.937011
 31
0.0
  0
LINE
  8
0
 62
     0
 10
1.59213
 20
0.937011
 30
0.0
 11
1.58854
 21
0.935331
 31
0.0
  0
LINE
  8
0
 62
     0
 10
1.58854
 20
0.935331
 30
0.0
 11
1.58496
 21
0.933703
 31
0.0
  0
LINE
  8
0
 62
     0
 10
1.58496
 20
0.933703
 30
0.0
 11
1.57015
 21
0.922906
 31
0.0
  0
LINE
  8
0
 62
     0
 10
1.57015
 20
0.922906
 30
0.0
 11
1.5625
 21
0.912869
 31
0.0
  0
LINE
  8
0
 62
     0
 10
1.5625
 20
0.912869
 30
0.0
 11
1.5625
 21
0.909506
 31
0.0
  0
LINE
  8
0
 62
     0
 10
1.5625
 20
0.909506
 30
0.0
 11
1.5625
 21
0.907661
 31
0.0
  0
LINE
  8
0
 62
     0
 10
1.5625
 20
0.907661
 30
0.0
 11
1.55892
 21
0.901964
 31
0.0
  0
LINE
  8
0
 62
     0
 10
1.55892
 20
0.901964
 30
0.0
 11
1.54932
 21
0.88954
 31
0.0
  0
LINE
  8
0
 62
     0
 10
1.54932
 20
0.88954
 30
0.0
 11
1.53532
 21
0.873915
 31
0.0
  0
LINE
  8
0
 62
     0
 10
1.53532
 20
0.873915
 30
0.0
 11
1.51872
 21
0.856717
 31
0.0
  0
LINE
  8
0
 62
     0
 10
1.51872
 20
0.856717
 30
0.0
 11
1.50114
 21
0.839735
 31
0.0
  0
LINE
  8
0
 62
     0
 10
1.50114
 20
0.839735
 30
0.0
 11
1.48426
 21
0.824544
 31
0.0
  0
LINE
  8
0
 62
     0
 10
1.48426
 20
0.824544
 30
0.0
 11
1.46972
 21
0.812879
 31
0.0
  0
LINE
  8
0
 62
     0
 10
1.46972
 20
0.812879
 30
0.0
 11
1.46208
 21
0.807563
 31
0.0
  0
LINE
  8
0
 62
     0
 10
1.46208
 20
0.807563
 30
0.0
 11
1.45931
 21
0.806369
 31
0.0
  0
LINE
  8
0
 62
     0
 10
1.45931
 20
0.806369
 30
0.0
 11
1.45589
 21
0.804958
 31
0.0
  0
LINE
  8
0
 62
     0
 10
1.45589
 20
0.804958
 30
0.0
 11
1.44038
 21
0.789931
 31
0.0
  0
LINE
  8
0
 62
     0
 10
1.44038
 20
0.789931
 30
0.0
 11
1.412
 21
0.758572
 31
0.0
  0
LINE
  8
0
 62
     0
 10
1.412
 20
0.758572
 30
0.0
 11
1.38623
 21
0.726346
 31
0.0
  0
LINE
  8
0
 62
     0
 10
1.38623
 20
0.726346
 30
0.0
 11
1.375
 21
0.712076
 31
0.0
  0
LINE
  8
0
 62
     0
 10
1.375
 20
0.712076
 30
0.0
 11
1.375
 21
0.707303
 31
0.0
  0
LINE
  8
0
 62
     0
 10
1.375
 20
0.707303
 30
0.0
 11
1.375
 21
0.704644
 31
0.0
  0
LINE
  8
0
 62
     0
 10
1.375
 20
0.704644
 30
0.0
 11
1.368
 21
0.696506
 31
0.0
  0
LINE
  8
0
 62
     0
 10
1.368
 20
0.696506
 30
0.0
 11
1.34896
 21
0.674533
 31
0.0
  0
LINE
  8
0
 62
     0
 10
1.34896
 20
0.674533
 30
0.0
 11
1.3208
 21
0.64464
 31
0.0
  0
LINE
  8
0
 62
     0
 10
1.3208
 20
0.64464
 30
0.0
 11
1.29514
 21
0.61849
 31
0.0
  0
LINE
  8
0
 62
     0
 10
1.29514
 20
0.61849
 30
0.0
 11
1.28646
 21
0.609918
 31
0.0
  0
LINE
  8
0
 62
     0
 10
1.28646
 20
0.609918
 30
0.0
 11
1.27778
 21
0.6014
 31
0.0
  0
LINE
  8
0
 62
     0
 10
1.27778
 20
0.6014
 30
0.0
 11
1.25206
 21
0.575467
 31
0.0
  0
LINE
  8
0
 62
     0
 10
1.25206
 20
0.575467
 30
0.0
 11
1.2239
 21
0.546169
 31
0.0
  0
LINE
  8
0
 62
     0
 10
1.2239
 20
0.546169
 30
0.0
 11
1.20486
 21
0.525065
 31
0.0
  0
LINE
  8
0
 62
     0
 10
1.20486
 20
0.525065
 30
0.0
 11
1.19792
 21
0.51774
 31
0.0
  0
LINE
  8
0
 62
     0
 10
1.19792
 20
0.51774
 30
0.0
 11
1.19792
 21
0.5153
 31
0.0
  0
LINE
  8
0
 62
     0
 10
1.19792
 20
0.5153
 30
0.0
 11
1.19792
 21
0.511774
 31
0.0
  0
LINE
  8
0
 62
     0
 10
1.19792
 20
0.511774
 30
0.0
 11
1.18945
 21
0.501139
 31
0.0
  0
LINE
  8
0
 62
     0
 10
1.18945
 20
0.501139
 30
0.0
 11
1.17318
 21
0.481608
 31
0.0
  0
LINE
  8
0
 62
     0
 10
1.17318
 20
0.481608
 30
0.0
 11
1.16927
 21
0.477376
 31
0.0
  0
LINE
  8
0
 62
     0
 10
1.16927
 20
0.477376
 30
0.0
 11
1.16531
 21
0.473199
 31
0.0
  0
LINE
  8
0
 62
     0
 10
1.16531
 20
0.473199
 30
0.0
 11
1.13737
 21
0.443143
 31
0.0
  0
LINE
  8
0
 62
     0
 10
1.13737
 20
0.443143
 30
0.0
 11
1.10639
 21
0.409614
 31
0.0
  0
LINE
  8
0
 62
     0
 10
1.10639
 20
0.409614
 30
0.0
 11
1.10097
 21
0.403646
 31
0.0
  0
LINE
  8
0
 62
     0
 10
1.10097
 20
0.403646
 30
0.0
 11
1.09549
 21
0.397732
 31
0.0
  0
LINE
  8
0
 62
     0
 10
1.09549
 20
0.397732
 30
0.0
 11
1.0701
 21
0.37321
 31
0.0
  0
LINE
  8
0
 62
     0
 10
1.0701
 20
0.37321
 30
0.0
 11
1.05626
 21
0.360514
 31
0.0
  0
LINE
  8
0
 62
     0
 10
1.05626
 20
0.360514
 30
0.0
 11
1.05165
 21
0.360514
 31
0.0
  0
LINE
  8
0
 62
     0
 10
1.05165
 20
0.360514
 30
0.0
 11
1.04801
 21
0.360514
 31
0.0
  0
LINE
  8
0
 62
     0
 10
1.04801
 20
0.360514
 30
0.0
 11
1.03727
 21
0.348742
 31
0.0
  0
LINE
  8
0
 62
     0
 10
1.03727
 20
0.348742
 30
0.0
 11
1.02002
 21
0.3259
 31
0.0
  0
LINE
  8
0
 62
     0
 10
1.02002
 20
0.3259
 30
0.0
 11
1.01655
 21
0.320367
 31
0.0
  0
LINE
  8
0
 62
     0
 10
1.01655
 20
0.320367
 30
0.0
 11
1.01302
 21
0.314833
 31
0.0
  0
LINE
  8
0
 62
     0
 10
1.01302
 20
0.314833
 30
0.0
 11
0.995876
 21
0.293946
 31
0.0
  0
LINE
  8
0
 62
     0
 10
0.995876
 20
0.293946
 30
0.0
 11
0.958333
 21
0.25179
 31
0.0
  0
LINE
  8
0
 62
     0
 10
0.958333
 20
0.25179
 30
0.0
 11
0.909289
 21
0.199599
 31
0.0
  0
LINE
  8
0
 62
     0
 10
0.909289
 20
0.199599
 30
0.0
 11
0.868001
 21
0.157226
 31
0.0
  0
LINE
  8
0
 62
     0
 10
0.868001
 20
0.157226
 30
0.0
 11
0.854058
 21
0.143283
 31
0.0
  0
LINE
  8
0
 62
     0
 10
0.854058
 20
0.143283
 30
0.0
 11
0.843207
 21
0.132487
 31
0.0
  0
LINE
  8
0
 62
     0
 10
0.843207
 20
0.132487
 30
0.0
 11
0.810656
 21
0.100152
 31
0.0
  0
LINE
  8
0
 62
     0
 10
0.810656
 20
0.100152
 30
0.0
 11
0.776801
 21
0.0671658
 31
0.0
  0
LINE
  8
0
 62
     0
 10
0.776801
 20
0.0671658
 30
0.0
 11
0.750706
 21
0.0428603
 31
0.0
  0
LINE
  8
0
 62
     0
 10
0.750706
 20
0.0428603
 30
0.0
 11
0.730524
 21
0.0259874
 31
0.0
  0
LINE
  8
0
 62
     0
 10
0.730524
 20
0.0259874
 30
0.0
 11
0.714464
 21
0.0151367
 31
0.0
  0
LINE
  8
0
 62
     0
 10
0.714464
 20
0.0151367
 30
0.0
 11
0.700792
 21
0.00889757
 31
0.0
  0
LINE
  8
0
 62
     0
 10
0.700792
 20
0.00889757
 30
0.0
 11
0.687771
 21
0.00596789
 31
0.0
  0
LINE
  8
0
 62
     0
 10
0.687771
 20
0.00596789
 30
0.0
 11
0.677083
 21
0.00499132
 31
0.0
  0
LINE
  8
0
 62
     0
 10
0.677083
 20
0.00499132
 30
0.0
 11
0.673557
 21
0.00488282
 31
0.0
  0
LINE
  8
0
 62
     0
 10
0.673557
 20
0.00488282
 30
0.0
 11
0.661133
 21
0.00450304
 31
0.0
  0
LINE
  8
0
 62
     0
 10
0.661133
 20
0.00450304
 30
0.0
 11
0.623861
 21
0.003852
 31
0.0
  0
LINE
  8
0
 62
     0
 10
0.623861
 20
0.003852
 30
0.0
 11
0.551432
 21
0.00309244
 31
0.0
  0
LINE
  8
0
 62
     0
 10
0.551432
 20
0.00309244
 30
0.0
 11
0.464789
 21
0.00254992
 31
0.0
  0
LINE
  8
0
 62
     0
 10
0.464789
 20
0.00254992
 30
0.0
 11
0.372721
 21
0.0023329
 31
0.0
  0
LINE
  8
0
 62
     0
 10
0.372721
 20
0.0023329
 30
0.0
 11
0.2838
 21
0.00238715
 31
0.0
  0
LINE
  8
0
 62
     0
 10
0.2838
 20
0.00238715
 30
0.0
 11
0.20676
 21
0.00276693
 31
0.0
  0
LINE
  8
0
 62
     0
 10
0.20676
 20
0.00276693
 30
0.0
 11
0.150119
 21
0.00341797
 31
0.0
  0
LINE
  8
0
 62
     0
 10
0.150119
 20
0.00341797
 30
0.0
 11
0.12934
 21
0.00363499
 31
0.0
  0
LINE
  8
0
 62
     0
 10
0.12934
 20
0.00363499
 30
0.0
 11
0.122721
 21
0.00439453
 31
0.0
  0
ENDSEC
  0
EOF
