<?xml version="1.0" encoding="UTF-8" standalone="no"?>
<!-- Created with Inkscape (http://www.inkscape.org/) -->

<svg
   xmlns:dc="http://purl.org/dc/elements/1.1/"
   xmlns:cc="http://creativecommons.org/ns#"
   xmlns:rdf="http://www.w3.org/1999/02/22-rdf-syntax-ns#"
   xmlns:svg="http://www.w3.org/2000/svg"
   xmlns="http://www.w3.org/2000/svg"
   xmlns:sodipodi="http://sodipodi.sourceforge.net/DTD/sodipodi-0.dtd"
   xmlns:inkscape="http://www.inkscape.org/namespaces/inkscape"
   id="svg2"
   version="1.1"
   inkscape:version="0.48.4 r9939"
   width="177.4025"
   height="601.11139"
   sodipodi:docname="CES-CE41-Threshold.pbm">
  <metadata
     id="metadata8">
    <rdf:RDF>
      <cc:Work
         rdf:about="">
        <dc:format>image/svg+xml</dc:format>
        <dc:type
           rdf:resource="http://purl.org/dc/dcmitype/StillImage" />
        <dc:title></dc:title>
      </cc:Work>
    </rdf:RDF>
  </metadata>
  <defs
     id="defs6" />
  <sodipodi:namedview
     pagecolor="#ffffff"
     bordercolor="#666666"
     borderopacity="1"
     objecttolerance="10"
     gridtolerance="10"
     guidetolerance="10"
     inkscape:pageopacity="0"
     inkscape:pageshadow="2"
     inkscape:window-width="1855"
     inkscape:window-height="1056"
     id="namedview4"
     showgrid="false"
     fit-margin-top="0"
     fit-margin-left="0"
     fit-margin-right="0"
     fit-margin-bottom="0"
     inkscape:zoom="1.1088186"
     inkscape:cx="-193.28242"
     inkscape:cy="326.54316"
     inkscape:window-x="65"
     inkscape:window-y="24"
     inkscape:window-maximized="1"
     inkscape:current-layer="svg2" />
  <path
     style="fill:#000000"
     d="M 11.78346,600.90897 C 8.4222,600.52144 7.8587,598.01441 8.23463,585.12004 8.53263,574.89873 7.60568,576.45238 22.25,561.62893 c 3.1625,-3.20118 5.75,-6.06334 5.75,-6.36035 0,-0.29701 2.1375,-2.71244 4.75,-5.36762 2.6125,-2.65518 7.45,-7.91319 10.75,-11.68446 5.66433,-6.47326 25.00551,-26.9165 34.19345,-36.14182 4.61071,-4.62946 7.39629,-9.48135 9.38834,-16.35252 0.71754,-2.475 1.87129,-5.40087 2.56389,-6.50194 0.81845,-1.30114 1.15694,-4.85302 0.96694,-10.14657 -0.25054,-6.98026 -0.8229,-9.26185 -4.00353,-15.95936 C 81.52338,442.40524 73.60015,434.85646 64.21384,431.77745 60.52123,430.56615 56.15,428.98249 54.5,428.2582 c -1.65,-0.72429 -5.72125,-2.03888 -9.04723,-2.92131 -3.32598,-0.88243 -8.92381,-2.73174 -12.43962,-4.10958 -3.51581,-1.37783 -7.10121,-2.50515 -7.96757,-2.50515 -0.86636,0 -3.2544,-0.9 -5.30676,-2 -2.05237,-1.1 -5.05256,-2 -6.6671,-2 -2.15164,0 -3.53473,-0.8415 -5.17945,-3.15129 -1.99708,-2.80465 -2.32501,-4.86712 -2.98123,-18.75 C 4.50551,384.24158 4.26193,357.50084 4.36975,333.397 4.47757,309.29315 4.31695,289.41807 4.01293,289.23015 3.55077,288.94452 3.42628,214.55092 3.86276,199.4847 c 0.12773,-4.40916 0.4241,-4.91854 4.27689,-7.3507 2.27681,-1.43728 5.53931,-3.05768 7.25,-3.60087 C 19.90929,187.09801 25,184.39787 25,183.43574 c 0,-0.45739 0.47114,-0.54044 1.04697,-0.18455 0.57584,0.35589 3.04593,-0.29256 5.4891,-1.44098 2.44318,-1.14843 5.06694,-2.08805 5.83059,-2.08805 0.76365,0 1.90958,-0.62793 2.54652,-1.39539 0.63694,-0.76747 2.77244,-1.69825 4.74556,-2.06841 1.97311,-0.37016 4.31958,-1.03566 5.21437,-1.47889 0.89479,-0.44323 3.42689,-1.70446 5.62689,-2.80272 2.2,-1.09827 5.20664,-2.28067 6.68142,-2.62756 7.04748,-1.65767 25.91873,-15.14125 30.12417,-21.52384 C 96.84093,140.94208 98,138.78384 98,137.22216 c 0,-0.8637 0.65964,-2.57711 1.46587,-3.80757 2.36413,-3.60812 4.98833,-16.66406 4.75291,-23.64675 C 103.91567,100.77707 98.54558,89.325037 92.11061,83.946427 81.50188,75.079227 69.73643,67.932759 63,66.264306 60.05383,65.53461 47.79463,61.948481 43.5,60.560058 41.85,60.026624 36,58.256681 30.5,56.62685 25,54.997019 18.475,52.952506 16,52.083489 13.525,51.214471 9.7,50.038282 7.5,49.469736 0.22557,47.589802 0,47.067903 0,32.116862 0,21.877019 0.31662,18.637758 1.37769,18.021849 4.43223,16.248825 13,8.2108119 13,7.1181639 c 0,-1.452308 3.1856,-2.102608 19,-3.878614 6.875,-0.772083 15.78174,-1.800305 19.79275,-2.28493802 9.5676,-1.156011 45.6544,-1.300811 55.20725,-0.221521 4.125,0.46604602 11.1,1.07421802 15.5,1.35149202 4.4,0.277275 11.82562,0.742145 16.50137,1.033046 4.67575,0.2909 11.37188,1.445924 14.88027,2.56672 3.5084,1.120796 8.09911,2.03781 10.20158,2.03781 2.10247,0 4.96885,0.522232 6.36973,1.160515 L 173,10.043189 l 0.0865,72.089488 c 0.0476,39.649213 0.27636,85.468963 0.50836,101.821663 l 0.42182,29.73218 -3.75836,2.36007 c -2.0671,1.29804 -4.43336,2.40364 -5.25836,2.45688 -2.66446,0.17197 -10.39031,2.29866 -11.46063,3.15477 -0.57165,0.45725 -3.25208,1.09389 -5.95651,1.41477 -2.70442,0.32088 -5.38192,1.04821 -5.95,1.61629 -0.56807,0.56807 -1.88735,1.03286 -2.93173,1.03286 -1.04438,0 -3.31688,0.61176 -5.05,1.35947 -6.85626,2.95795 -8.81264,3.64077 -10.44818,3.64669 -0.93662,0.003 -2.99189,0.67839 -4.56726,1.5 -1.57537,0.82161 -3.71897,1.49384 -4.76357,1.49384 -1.04459,0 -2.68065,0.41323 -3.63569,0.91829 -0.95504,0.50505 -3.76143,1.81883 -6.23643,2.91951 -2.475,1.10067 -6.4759,3.72494 -8.89089,5.83171 C 88.01161,249.58333 78,260.02153 78,261.22981 c 0,0.61418 -0.9076,2.99522 -2.0169,5.29119 -1.10929,2.29598 -1.94811,5.418 -1.86404,6.93783 0.0841,1.51983 -0.35832,4.03012 -0.9831,5.57843 -1.66203,4.11879 -1.47198,24.13443 0.26098,27.4856 0.76831,1.48576 1.72106,5.29557 2.11721,8.46624 0.39615,3.17068 1.23631,6.09521 1.86702,6.49896 0.63072,0.40376 2.26547,2.97892 3.63279,5.7226 2.90958,5.83838 10.69662,14.79021 16.44448,18.90426 2.22286,1.59101 4.76868,3.61601 5.65738,4.5 0.88871,0.88398 2.62785,2.28224 3.86476,3.10724 1.2369,0.825 4.16703,2.94092 6.51138,4.70205 2.34435,1.76112 6.11456,4.16741 8.37824,5.34731 2.26368,1.1799 5.27607,3.5242 6.69421,5.20955 2.37915,2.82747 5.6214,5.05194 11.09604,7.61288 1.18825,0.55584 3.43825,2.67811 5,4.71615 1.56175,2.03804 4.30205,5.38154 6.08955,7.42999 1.7875,2.04846 3.25,4.23243 3.25,4.85327 0,0.62084 0.68614,1.1288 1.52475,1.1288 0.83861,0 1.97207,1.17654 2.5188,2.61453 0.54672,1.438 1.90105,3.8005 3.00961,5.25 8.11858,10.61549 9.72028,13.20401 10.91227,17.63547 0.7397,2.75 1.72662,5.49796 2.19315,6.10657 3.41569,4.45594 4.48613,34.82563 1.49132,42.3104 -0.90745,2.26793 -1.65475,5.1269 -1.66068,6.35327 -0.0141,2.92156 -6.73164,17.23938 -10.23928,21.82415 -1.51247,1.97692 -2.74994,3.91382 -2.74994,4.30423 0,0.39042 -1.34792,2.14794 -2.99537,3.90561 -1.64746,1.75768 -2.99746,3.68604 -3,4.28525 -0.003,0.59922 -1.12963,1.60207 -2.50463,2.22857 -1.375,0.62649 -2.5,1.74271 -2.5,2.48049 0,1.16102 -7.89727,9.05388 -9.90496,9.89943 -1.30782,0.55079 -8.09504,8.52708 -8.09504,9.51322 0,0.53284 -3.825,4.73908 -8.5,9.34721 -4.675,4.60813 -8.5,8.69552 -8.5,9.08309 0,0.38756 -1.2375,2.02628 -2.75,3.64159 -1.5125,1.61532 -4.4629,4.79993 -6.55644,7.07693 -2.09354,2.27699 -4.22539,4.13999 -4.73745,4.13999 -0.51206,0 -2.02706,1.73624 -3.36666,3.8583 -1.3396,2.12207 -8.35897,9.77207 -15.59859,17 -12.47094,12.45081 -13.38186,13.14906 -17.3269,13.28177 -9.05827,0.30472 -50.3265,0.34119 -52.8805,0.0467 z"
     id="path2987"
     inkscape:connector-curvature="0" />
</svg>
