  0
SECTION
  2
HEADER
  9
$ACADVER
  1
AC1009
  9
$FILLMODE
 70
 0
  9
$SPLFRAME
 70
 1
  9
$EXTMIN
 10
0
 20
0
 30
0.0
  9
$EXTMAX
 10
41.6667
 20
41.6667
 30
0.0
  0
ENDSEC
  0
SECTION
  2
TABLES
  0
TABLE
  2
LAYER
 70
1
  0
LAYER
  2
0
 70
     0
 62
     7
  6
CONTINUOUS
  0
ENDTAB
  0
ENDSEC
  0
SECTION
  2
ENTITIES
  0
LINE
  8
0
 62
     0
 10
0.229601
 20
0.0166015
 30
0.0
 11
0.221083
 21
0.0177951
 31
0.0
  0
LINE
  8
0
 62
     0
 10
0.221083
 20
0.0177951
 30
0.0
 11
0.184625
 21
0.0291342
 31
0.0
  0
LINE
  8
0
 62
     0
 10
0.184625
 20
0.0291342
 30
0.0
 11
0.154297
 21
0.0484483
 31
0.0
  0
LINE
  8
0
 62
     0
 10
0.154297
 20
0.0484483
 30
0.0
 11
0.148872
 21
0.0536025
 31
0.0
  0
LINE
  8
0
 62
     0
 10
0.148872
 20
0.0536025
 30
0.0
 11
0.144206
 21
0.0580512
 31
0.0
  0
LINE
  8
0
 62
     0
 10
0.144206
 20
0.0580512
 30
0.0
 11
0.131239
 21
0.0723742
 31
0.0
  0
LINE
  8
0
 62
     0
 10
0.131239
 20
0.0723742
 30
0.0
 11
0.121853
 21
0.0917969
 31
0.0
  0
LINE
  8
0
 62
     0
 10
0.121853
 20
0.0917969
 30
0.0
 11
0.11811
 21
0.121311
 31
0.0
  0
LINE
  8
0
 62
     0
 10
0.11811
 20
0.121311
 30
0.0
 11
0.117459
 21
0.158094
 31
0.0
  0
LINE
  8
0
 62
     0
 10
0.117459
 20
0.158094
 30
0.0
 11
0.117459
 21
0.170356
 31
0.0
  0
LINE
  8
0
 62
     0
 10
0.117459
 20
0.170356
 30
0.0
 11
0.117459
 21
0.256944
 31
0.0
  0
LINE
  8
0
 62
     0
 10
0.117459
 20
0.256944
 30
0.0
 11
0.015191
 21
0.256944
 31
0.0
  0
LINE
  8
0
 62
     0
 10
0.015191
 20
0.256944
 30
0.0
 11
0.0122613
 21
0.764757
 31
0.0
  0
LINE
  8
0
 62
     0
 10
0.0122613
 20
0.764757
 30
0.0
 11
0.0118273
 21
0.836208
 31
0.0
  0
LINE
  8
0
 62
     0
 10
0.0118273
 20
0.836208
 30
0.0
 11
0.0107964
 21
1.05051
 31
0.0
  0
LINE
  8
0
 62
     0
 10
0.0107964
 20
1.05051
 30
0.0
 11
0.00971137
 21
1.33887
 31
0.0
  0
LINE
  8
0
 62
     0
 10
0.00971137
 20
1.33887
 30
0.0
 11
0.00900608
 21
1.62007
 31
0.0
  0
LINE
  8
0
 62
     0
 10
0.00900608
 20
1.62007
 30
0.0
 11
0.00873481
 21
1.8845
 31
0.0
  0
LINE
  8
0
 62
     0
 10
0.00873481
 20
1.8845
 30
0.0
 11
0.00884332
 21
2.1224
 31
0.0
  0
LINE
  8
0
 62
     0
 10
0.00884332
 20
2.1224
 30
0.0
 11
0.0093316
 21
2.32406
 31
0.0
  0
LINE
  8
0
 62
     0
 10
0.0093316
 20
2.32406
 30
0.0
 11
0.0101997
 21
2.47982
 31
0.0
  0
LINE
  8
0
 62
     0
 10
0.0101997
 20
2.47982
 30
0.0
 11
0.0110135
 21
2.5549
 31
0.0
  0
LINE
  8
0
 62
     0
 10
0.0110135
 20
2.5549
 30
0.0
 11
0.011556
 21
2.57986
 31
0.0
  0
LINE
  8
0
 62
     0
 10
0.011556
 20
2.57986
 30
0.0
 11
0.0120443
 21
2.60211
 31
0.0
  0
LINE
  8
0
 62
     0
 10
0.0120443
 20
2.60211
 30
0.0
 11
0.0118273
 21
2.71582
 31
0.0
  0
LINE
  8
0
 62
     0
 10
0.0118273
 20
2.71582
 30
0.0
 11
0.00857206
 21
2.80561
 31
0.0
  0
LINE
  8
0
 62
     0
 10
0.00857206
 20
2.80561
 30
0.0
 11
0.00754124
 21
2.81581
 31
0.0
  0
LINE
  8
0
 62
     0
 10
0.00754124
 20
2.81581
 30
0.0
 11
0
 21
2.89031
 31
0.0
  0
LINE
  8
0
 62
     0
 10
0
 20
2.89031
 30
0.0
 11
0.0428603
 21
2.91737
 31
0.0
  0
LINE
  8
0
 62
     0
 10
0.0428603
 20
2.91737
 30
0.0
 11
0.0857747
 21
2.94444
 31
0.0
  0
LINE
  8
0
 62
     0
 10
0.0857747
 20
2.94444
 30
0.0
 11
0.357476
 21
2.94444
 31
0.0
  0
LINE
  8
0
 62
     0
 10
0.357476
 20
2.94444
 30
0.0
 11
0.386068
 21
2.94444
 31
0.0
  0
LINE
  8
0
 62
     0
 10
0.386068
 20
2.94444
 30
0.0
 11
0.471951
 21
2.94374
 31
0.0
  0
LINE
  8
0
 62
     0
 10
0.471951
 20
2.94374
 30
0.0
 11
0.561524
 21
2.94157
 31
0.0
  0
LINE
  8
0
 62
     0
 10
0.561524
 20
2.94157
 30
0.0
 11
0.622017
 21
2.93815
 31
0.0
  0
LINE
  8
0
 62
     0
 10
0.622017
 20
2.93815
 30
0.0
 11
0.646213
 21
2.93533
 31
0.0
  0
LINE
  8
0
 62
     0
 10
0.646213
 20
2.93533
 30
0.0
 11
0.64936
 21
2.93365
 31
0.0
  0
LINE
  8
0
 62
     0
 10
0.64936
 20
2.93365
 30
0.0
 11
0.652994
 21
2.93169
 31
0.0
  0
LINE
  8
0
 62
     0
 10
0.652994
 20
2.93169
 30
0.0
 11
0.664931
 21
2.91601
 31
0.0
  0
LINE
  8
0
 62
     0
 10
0.664931
 20
2.91601
 30
0.0
 11
0.669542
 21
2.89035
 31
0.0
  0
LINE
  8
0
 62
     0
 10
0.669542
 20
2.89035
 30
0.0
 11
0.669542
 21
2.88178
 31
0.0
  0
LINE
  8
0
 62
     0
 10
0.669542
 20
2.88178
 30
0.0
 11
0.669542
 21
2.87153
 31
0.0
  0
LINE
  8
0
 62
     0
 10
0.669542
 20
2.87153
 30
0.0
 11
0.674154
 21
2.84065
 31
0.0
  0
LINE
  8
0
 62
     0
 10
0.674154
 20
2.84065
 30
0.0
 11
0.688097
 21
2.79563
 31
0.0
  0
LINE
  8
0
 62
     0
 10
0.688097
 20
2.79563
 30
0.0
 11
0.711481
 21
2.74658
 31
0.0
  0
LINE
  8
0
 62
     0
 10
0.711481
 20
2.74658
 30
0.0
 11
0.735622
 21
2.70617
 31
0.0
  0
LINE
  8
0
 62
     0
 10
0.735622
 20
2.70617
 30
0.0
 11
0.744412
 21
2.69319
 31
0.0
  0
LINE
  8
0
 62
     0
 10
0.744412
 20
2.69319
 30
0.0
 11
0.748481
 21
2.68718
 31
0.0
  0
LINE
  8
0
 62
     0
 10
0.748481
 20
2.68718
 30
0.0
 11
0.759765
 21
2.66835
 31
0.0
  0
LINE
  8
0
 62
     0
 10
0.759765
 20
2.66835
 30
0.0
 11
0.772407
 21
2.64399
 31
0.0
  0
LINE
  8
0
 62
     0
 10
0.772407
 20
2.64399
 30
0.0
 11
0.780979
 21
2.62289
 31
0.0
  0
LINE
  8
0
 62
     0
 10
0.780979
 20
2.62289
 30
0.0
 11
0.784125
 21
2.61165
 31
0.0
  0
LINE
  8
0
 62
     0
 10
0.784125
 20
2.61165
 30
0.0
 11
0.784125
 21
2.60786
 31
0.0
  0
LINE
  8
0
 62
     0
 10
0.784125
 20
2.60786
 30
0.0
 11
0.784125
 21
2.60275
 31
0.0
  0
LINE
  8
0
 62
     0
 10
0.784125
 20
2.60275
 30
0.0
 11
0.786567
 21
2.58746
 31
0.0
  0
LINE
  8
0
 62
     0
 10
0.786567
 20
2.58746
 30
0.0
 11
0.791396
 21
2.57661
 31
0.0
  0
LINE
  8
0
 62
     0
 10
0.791396
 20
2.57661
 30
0.0
 11
0.792589
 21
2.57585
 31
0.0
  0
LINE
  8
0
 62
     0
 10
0.792589
 20
2.57585
 30
0.0
 11
0.793728
 21
2.57514
 31
0.0
  0
LINE
  8
0
 62
     0
 10
0.793728
 20
2.57514
 30
0.0
 11
0.794325
 21
2.54915
 31
0.0
  0
LINE
  8
0
 62
     0
 10
0.794325
 20
2.54915
 30
0.0
 11
0.796007
 21
2.47461
 31
0.0
  0
LINE
  8
0
 62
     0
 10
0.796007
 20
2.47461
 30
0.0
 11
0.797581
 21
2.35736
 31
0.0
  0
LINE
  8
0
 62
     0
 10
0.797581
 20
2.35736
 30
0.0
 11
0.7991
 21
2.20269
 31
0.0
  0
LINE
  8
0
 62
     0
 10
0.7991
 20
2.20269
 30
0.0
 11
0.800347
 21
2.01568
 31
0.0
  0
LINE
  8
0
 62
     0
 10
0.800347
 20
2.01568
 30
0.0
 11
0.801432
 21
1.8016
 31
0.0
  0
LINE
  8
0
 62
     0
 10
0.801432
 20
1.8016
 30
0.0
 11
0.8023
 21
1.56554
 31
0.0
  0
LINE
  8
0
 62
     0
 10
0.8023
 20
1.56554
 30
0.0
 11
0.802735
 21
1.37592
 31
0.0
  0
LINE
  8
0
 62
     0
 10
0.802735
 20
1.37592
 30
0.0
 11
0.802843
 21
1.31272
 31
0.0
  0
LINE
  8
0
 62
     0
 10
0.802843
 20
1.31272
 30
0.0
 11
0.804633
 21
0.0548503
 31
0.0
  0
LINE
  8
0
 62
     0
 10
0.804633
 20
0.0548503
 30
0.0
 11
0.782118
 21
0.0309244
 31
0.0
  0
LINE
  8
0
 62
     0
 10
0.782118
 20
0.0309244
 30
0.0
 11
0.778429
 21
0.0270182
 31
0.0
  0
LINE
  8
0
 62
     0
 10
0.778429
 20
0.0270182
 30
0.0
 11
0.765136
 21
0.0171983
 31
0.0
  0
LINE
  8
0
 62
     0
 10
0.765136
 20
0.0171983
 30
0.0
 11
0.731662
 21
0.0101997
 31
0.0
  0
LINE
  8
0
 62
     0
 10
0.731662
 20
0.0101997
 30
0.0
 11
0.657661
 21
0.00797526
 31
0.0
  0
LINE
  8
0
 62
     0
 10
0.657661
 20
0.00797526
 30
0.0
 11
0.553819
 21
0.00819228
 31
0.0
  0
LINE
  8
0
 62
     0
 10
0.553819
 20
0.00819228
 30
0.0
 11
0.51926
 21
0.00835504
 31
0.0
  0
LINE
  8
0
 62
     0
 10
0.51926
 20
0.00835504
 30
0.0
 11
0.4949
 21
0.00851779
 31
0.0
  0
LINE
  8
0
 62
     0
 10
0.4949
 20
0.00851779
 30
0.0
 11
0.421983
 21
0.00944011
 31
0.0
  0
LINE
  8
0
 62
     0
 10
0.421983
 20
0.00944011
 30
0.0
 11
0.335015
 21
0.011339
 31
0.0
  0
LINE
  8
0
 62
     0
 10
0.335015
 20
0.011339
 30
0.0
 11
0.267686
 21
0.0138346
 31
0.0
  0
LINE
  8
0
 62
     0
 10
0.267686
 20
0.0138346
 30
0.0
 11
0.236382
 21
0.0156793
 31
0.0
  0
LINE
  8
0
 62
     0
 10
0.236382
 20
0.0156793
 30
0.0
 11
0.229601
 21
0.0166015
 31
0.0
  0
ENDSEC
  0
EOF
