<?xml version="1.0" encoding="UTF-8" standalone="no"?>
<!-- Created with Inkscape (http://www.inkscape.org/) -->

<svg
   xmlns:dc="http://purl.org/dc/elements/1.1/"
   xmlns:cc="http://creativecommons.org/ns#"
   xmlns:rdf="http://www.w3.org/1999/02/22-rdf-syntax-ns#"
   xmlns:svg="http://www.w3.org/2000/svg"
   xmlns="http://www.w3.org/2000/svg"
   xmlns:sodipodi="http://sodipodi.sourceforge.net/DTD/sodipodi-0.dtd"
   xmlns:inkscape="http://www.inkscape.org/namespaces/inkscape"
   id="svg2"
   version="1.1"
   inkscape:version="0.48.3.1 r9886"
   width="255"
   height="547"
   sodipodi:docname="IKON-SK6.jpg">
  <metadata
     id="metadata8">
    <rdf:RDF>
      <cc:Work
         rdf:about="">
        <dc:format>image/svg+xml</dc:format>
        <dc:type
           rdf:resource="http://purl.org/dc/dcmitype/StillImage" />
        <dc:title></dc:title>
      </cc:Work>
    </rdf:RDF>
  </metadata>
  <defs
     id="defs6" />
  <sodipodi:namedview
     pagecolor="#ffffff"
     bordercolor="#666666"
     borderopacity="1"
     objecttolerance="10"
     gridtolerance="10"
     guidetolerance="10"
     inkscape:pageopacity="0"
     inkscape:pageshadow="2"
     inkscape:window-width="1551"
     inkscape:window-height="876"
     id="namedview4"
     showgrid="false"
     inkscape:zoom="0.43144424"
     inkscape:cx="127.5"
     inkscape:cy="273.5"
     inkscape:window-x="49"
     inkscape:window-y="24"
     inkscape:window-maximized="1"
     inkscape:current-layer="svg2" />
  <path
     style="fill:#000000"
     d="m 114.36441,515.13 c -4.675,-2.34088 -8.5,-4.78665 -8.5,-5.43506 0,-0.6484 -0.49321,-1.5 -1.09603,-1.89243 -1.39881,-0.91064 -2.73162,-6.21353 -1.56169,-6.21353 0.48421,0 0.66532,-1.125 0.40247,-2.5 -0.26285,-1.375 -0.76294,-2.50062 -1.11133,-2.50137 -0.94107,-0.002 -0.7683,-35.29018 0.17996,-36.75569 0.49943,-0.77186 0.25985,-1.46948 -0.62069,-1.80737 -1.05968,-0.40664 -1.30335,-1.71019 -0.93333,-4.99294 0.37767,-3.35076 0.16157,-4.44431 -0.87931,-4.44946 -0.759033,-0.004 -2.450563,-1.57876 -3.758953,-3.5 -1.3084,-1.92124 -2.79746,-3.49317 -3.30902,-3.49317 -0.51156,0 -0.652,-0.45 -0.31208,-1 0.34026,-0.55055 -0.36761,-1 -1.57496,-1 -3.3327,0 -10.20842,-2.16155 -12.17504,-3.82751 -0.9625,-0.81536 -1.75,-1.14991 -1.75,-0.74345 0,0.40646 -1.71627,-0.62029 -3.81393,-2.28167 -2.09766,-1.66138 -5.13516,-3.60893 -6.75,-4.32788 -1.61484,-0.71896 -4.49889,-2.80284 -6.40899,-4.63086 l -3.47293,-3.32367 -0.16551,-24.68248 c -0.091,-13.57536 -0.36318,-28.73248 -0.60477,-33.68248 -0.2416,-4.95 -0.25543,-9.7259 -0.0307,-10.61312 0.39152,-1.54594 6.26928,-4.9408 10.99337,-6.34953 2.28753,-0.68214 9.34678,-1.43947 17.00172,-1.82397 2.33653,-0.11736 4.24903,-0.52372 4.25,-0.90301 9.8e-4,-0.3793 1.68927,-0.8293 3.75177,-1 l 3.75,-0.31037 0.27556,-15.78223 0.27555,-15.78222 -14.9552,0.44749 c -10.39412,0.31102 -16.2716,0.0588 -19.27148,-0.82694 -4.11545,-1.21515 -4.41697,-1.57179 -6.48051,-7.66527 -1.27023,-3.75089 -2.19946,-9.07587 -2.2495,-12.89083 -0.0469,-3.575 -0.25043,-7.7375 -0.45232,-9.25 -0.20189,-1.5125 -0.0478,-2.75 0.34241,-2.75 0.62122,0 2.04734,-1.05423 6.66487,-4.92689 0.63216,-0.53019 1.98216,-0.9789 3,-0.99714 1.01784,-0.0182 4.32562,-0.30737 7.35062,-0.64249 3.025,-0.33513 9.1,-0.72141 13.5,-0.8584 9.34084,-0.29081 16.255323,-1.37016 17.053783,-2.66209 0.31034,-0.50215 4.7002,-0.923 9.75524,-0.93523 11.8426,-0.0286 14.20609,-1.45434 13.38236,-8.07246 -0.30157,-2.42292 -0.693,-8.0053 -0.86984,-12.4053 -0.28699,-7.14028 -0.64394,-8.40299 -3.32154,-11.74997 -1.65,-2.06248 -3.5625,-3.74998 -4.25,-3.75 -0.6875,-2e-5 -1.25,-0.45003 -1.25,-1.00003 0,-0.55 -0.9,-1 -2,-1 -1.1,0 -2,-0.39873 -2,-0.88606 0,-1.45291 -7.16875,-4.40717 -11.253623,-4.63765 -2.08973,-0.11791 -4.57505,-0.87481 -5.52294,-1.68199 -1.65519,-1.40949 -14.37626,-4.94663 -22.72344,-6.31834 -2.2,-0.36153 -5.8,-1.47571 -8,-2.47596 -4.02122,-1.82829 -7.60088,-2.65943 -15,-3.4828 -10.00875,-1.11375 -16.48538,-2.89576 -17.05573,-4.6928 -0.31641,-0.99691 -1.22148,-2.45875 -2.01126,-3.24854 -1.15095,-1.15094 -1.44386,-5.4693 -1.4757,-21.75592 -0.0277,-14.17645 -0.46863,-21.9828 -1.45837,-25.81994 -0.78026,-3.025 -1.20635,-7.525 -0.94687,-10 0.65428,-6.24085 1.48534,-14.83064 1.83824,-19 0.29928,-3.53573 2.83049,-9.40039 4.50353,-10.43439 0.49943,-0.30867 5.08334,-0.81456 10.18646,-1.12421 5.10312,-0.30965 10.0681,-0.98564 11.03331,-1.5022 0.9652,-0.51656 4.68293,-0.9392 8.26163,-0.9392 3.5787,0 6.76538,-0.41851 7.08151,-0.93001 0.31613,-0.51151 3.02922,-1.23668 6.02909,-1.61149 2.99988,-0.37481 6.01179,-1.35318 6.69314,-2.17416 0.68136,-0.82098 2.2969,-1.89497 3.5901,-2.38664 1.2932,-0.49167 2.08448,-1.32563 1.7584,-1.85324 -0.32608,-0.5276 0.75341,-1.655472 2.39887,-2.506373 1.64546,-0.8509 4.04824,-2.603587 5.33952,-3.89486 1.29127,-1.291273 2.93405,-2.543196 3.65061,-2.782051 0.79445,-0.264817 1.49692,-2.761315 1.80021,-6.397727 0.27355,-3.279895 0.8992,-6.721362 1.390343,-7.647705 1.55753,-2.937708 1.03897,-9.373638 -0.896393,-11.125113 -1.74953,-1.583307 -7.72412,-2.982211 -11.71064,-2.741959 -1.1,0.06629 -4.925,0.0315 -8.5,-0.07731 -6.09091,-0.18539 -9.42628,-0.124862 -18,0.326649 -5.80107,0.305497 -8.69924,-0.891473 -9.53806,-3.939304 -2.46432,-8.954108 -2.32039,-38.800255 0.19927,-41.31991 0.58986,-0.58986 29.23178,-0.854202 75.331753,-0.695253 l 74.38004,0.256458 0.85655,3.5 c 0.4711,1.925 1.11251,4.175 1.42535,5 0.95928,2.529764 0.90389,21.980927 -0.0635,22.303126 -0.49974,0.166439 -0.8184,5.161428 -0.70813,11.099976 0.19089,10.280344 0.0807,10.924238 -2.30094,13.447128 -3.39725,3.598733 -7.61588,7.725196 -10.34142,10.115508 -1.97383,1.731047 -2.21282,2.745322 -1.89254,8.031878 0.20161,3.327851 0.62089,6.304968 0.93174,6.615815 0.76929,0.769289 -0.32993,7.656487 -1.41034,8.836567 -0.47838,0.5225 -0.86977,2.84853 -0.86977,5.16896 0,6.31009 -5.13124,14.42894 -10,15.8224 -12.64135,3.61801 -15.94576,4.84122 -17.39035,6.43748 -2.18981,2.41971 -16.81537,6.02058 -21.33534,5.25284 -1.83422,-0.31155 -6.45682,2.33845 -9.19862,5.27331 -1.33338,1.42725 -2.9588,2.59501 -3.61206,2.59501 -1.30572,0 -3.15298,9.86202 -2.65468,14.17259 0.49412,4.27437 4.45589,7.52255 8.90853,7.30393 2.08039,-0.10214 5.3274,0.51422 7.21558,1.36969 2.43934,1.10519 3.54351,1.22409 3.81461,0.41078 0.20985,-0.62955 1.05993,-0.88431 1.88907,-0.56614 0.82914,0.31817 5.41256,0.0716 10.18539,-0.54802 4.77283,-0.61958 13.62787,-1.28918 19.67787,-1.488 l 11,-0.36149 2.91358,3.0154 c 2.82064,2.91921 2.88335,3.19814 1.96597,8.74512 -0.52118,3.15136 -0.61546,6.97164 -0.20952,8.48953 0.40595,1.51788 0.41102,3.47907 0.0113,4.3582 -0.39974,0.87912 -0.61609,6.09841 -0.48077,11.59841 0.82922,33.70205 0.86173,33.84906 7.72226,34.9187 2.24247,0.34963 4.97721,0.7938 6.07721,0.98703 1.1,0.19324 4.925,0.69474 8.5,1.11446 3.575,0.41971 7.38763,1.37437 8.47251,2.12146 1.08487,0.74709 2.75126,1.35835 3.70308,1.35835 1.75274,0 3.13659,2.46937 6.24415,11.14221 2.19339,6.12149 0.70981,12.85656 -3.93365,17.85779 -1.78729,1.925 -3.77541,4.5251 -4.41803,5.77801 -0.64262,1.2529 -1.59583,2.01385 -2.11823,1.69098 -0.52244,-0.32286 -0.94986,0.11453 -0.94986,0.97199 0,0.89786 -0.85726,1.55902 -2.02144,1.55902 -1.18886,0 -2.49329,1.0356 -3.16706,2.51436 -0.81644,1.79191 -1.67229,2.34721 -2.97856,1.93262 -1.18668,-0.37664 -1.83294,-0.0838 -1.83294,0.83064 0,0.77682 -0.83543,2.16846 -1.85652,3.09253 -1.20349,1.08914 -1.69011,2.55067 -1.38342,4.15499 0.2602,1.36117 0.0154,2.47486 -0.54396,2.47486 -0.56079,0 -0.86872,1.59604 -0.68641,3.55766 1.0499,11.29655 0.84563,14.69473 -0.96282,16.0171 -1.26521,0.92514 -1.62573,2.05459 -1.1988,3.7556 0.98858,3.93882 -1.00851,8.20367 -3.95572,8.44758 -1.39852,0.11575 -5.79076,1.33151 -9.76053,2.70169 -3.96977,1.37018 -10.12792,2.66613 -13.68479,2.87989 -3.55687,0.21376 -7.25453,0.71846 -8.21703,1.12156 -1.08398,0.45397 -1.75,0.29002 -1.75,-0.4308 0,-0.76192 -0.77682,-0.61859 -2.25,0.41513 -1.77834,1.24786 -2.25982,2.56992 -2.29685,6.30671 -0.0258,2.60033 -0.66311,8.68141 -1.41631,13.51349 -1.33247,8.5483 -1.48902,8.88553 -5.7954,12.48447 -3.7693,3.15008 -5.26532,3.74614 -10.08369,4.01762 -3.11176,0.17533 -5.80775,0.74482 -5.99108,1.26554 -0.18334,0.52072 -0.94838,0.94676 -1.7001,0.94676 -2.42304,0 -2.33071,10.74134 0.13612,15.83589 1.21222,2.50349 1.90598,5.46934 1.63818,7.00331 -0.91057,5.2157 -0.5102,7.97382 1.5845,10.91556 1.8307,2.57097 2.79367,2.99789 6.97467,3.09209 6.79975,0.15319 11.64638,2.40248 13.18604,6.11954 2.18289,5.26996 2.81241,22.92208 0.86049,24.12843 -0.73111,0.45186 -0.70401,0.87526 0.0873,1.36434 0.65399,0.40418 0.8624,1.60725 0.48463,2.79751 -0.36455,1.14859 -0.62955,9.17327 -0.58888,17.83261 0.0594,12.65406 0.41297,16.49662 1.80123,19.57748 0.95001,2.10828 2.26555,6.53324 2.92342,9.83324 1.16003,5.81883 1.11381,6.12078 -1.53078,10 -1.4998,2.2 -2.54296,4.52709 -2.31812,5.17131 0.263,0.75356 -0.34007,0.97548 -1.6909,0.62223 -1.4492,-0.37897 -2.00904,-0.12224 -1.8071,0.82869 0.18393,0.86609 -0.40776,1.25706 -1.59319,1.05275 -1.367,-0.2356 -1.71951,0.10827 -1.28138,1.25 0.41555,1.08292 0.0275,1.57502 -1.2421,1.57502 -1.79828,0 -8.02771,2.18512 -11.13742,3.90672 -0.85067,0.47095 -5.57567,0.86396 -10.5,0.87336 -8.55284,0.0163 -9.33352,-0.17329 -17.45332,-4.23906 z"
     id="path2987"
     inkscape:connector-curvature="0" />
</svg>
