<?xml version="1.0" standalone="no"?>
<!DOCTYPE svg PUBLIC "-//W3C//DTD SVG 20010904//EN"
 "http://www.w3.org/TR/2001/REC-SVG-20010904/DTD/svg10.dtd">
<svg version="1.0" xmlns="http://www.w3.org/2000/svg"
 width="80.213603pt" height="241.305034pt" viewBox="0 0 80.213603 241.305034"
 preserveAspectRatio="xMidYMid meet">
<metadata>
Created by potrace 1.14, written by Peter Selinger 2001-2017
</metadata>
<g transform="translate(-51.102833,259.738693) scale(0.100000,-0.100000)"
fill="#000000" stroke="none">
<path d="M785 2590 c-16 -4 -64 -8 -105 -9 -64 -1 -79 -5 -102 -26 -27 -23
-28 -27 -28 -134 l0 -109 39 -34 c22 -18 61 -42 88 -52 52 -21 99 -52 151
-100 46 -42 43 -75 -9 -120 -42 -36 -73 -49 -141 -61 -74 -12 -127 -120 -116
-236 4 -35 14 -57 44 -94 21 -26 49 -51 62 -56 22 -9 28 -32 16 -75 -3 -12
-25 -36 -49 -54 -29 -22 -46 -44 -55 -73 -8 -23 -20 -55 -29 -72 -8 -17 -18
-76 -22 -140 -5 -60 -11 -138 -15 -172 -6 -59 -5 -64 29 -115 19 -29 49 -66
66 -82 17 -17 31 -35 31 -41 0 -7 7 -27 16 -44 14 -28 17 -72 17 -266 l1 -232
127 -6 c70 -4 173 -3 229 0 87 5 102 9 111 26 10 17 22 358 24 615 0 71 -1 75
-35 106 -36 33 -90 100 -90 111 0 4 -9 14 -20 23 -11 10 -23 33 -26 52 -6 34
-3 38 58 85 34 28 68 52 73 55 35 18 96 64 129 99 44 45 53 85 55 225 1 61 -2
71 -25 92 -14 13 -29 24 -35 24 -5 0 -9 5 -9 10 0 6 -11 23 -25 38 -31 34 -31
55 0 126 14 31 25 67 25 80 0 13 7 29 15 36 8 7 15 17 15 23 0 6 7 18 15 27
13 14 17 64 22 273 l6 256 -39 6 c-21 3 -48 10 -60 15 -25 10 -387 10 -429 0z"/>
</g>
</svg>
