  0
SECTION
  2
HEADER
  9
$ACADVER
  1
AC1009
  9
$FILLMODE
 70
 0
  9
$SPLFRAME
 70
 1
  9
$EXTMIN
 10
0
 20
0
 30
0.0
  9
$EXTMAX
 10
41.6667
 20
41.6667
 30
0.0
  0
ENDSEC
  0
SECTION
  2
TABLES
  0
TABLE
  2
LAYER
 70
1
  0
LAYER
  2
0
 70
     0
 62
     7
  6
CONTINUOUS
  0
ENDTAB
  0
ENDSEC
  0
SECTION
  2
ENTITIES
  0
LINE
  8
0
 62
     0
 10
0.380317
 20
3.35069
 30
0.0
 11
0.374729
 21
3.34933
 31
0.0
  0
LINE
  8
0
 62
     0
 10
0.374729
 20
3.34933
 30
0.0
 11
0.356119
 21
3.34663
 31
0.0
  0
LINE
  8
0
 62
     0
 10
0.356119
 20
3.34663
 30
0.0
 11
0.320367
 21
3.34293
 31
0.0
  0
LINE
  8
0
 62
     0
 10
0.320367
 20
3.34293
 30
0.0
 11
0.278103
 21
3.34
 31
0.0
  0
LINE
  8
0
 62
     0
 10
0.278103
 20
3.34
 30
0.0
 11
0.245389
 21
3.33849
 31
0.0
  0
LINE
  8
0
 62
     0
 10
0.245389
 20
3.33849
 30
0.0
 11
0.234483
 21
3.33822
 31
0.0
  0
LINE
  8
0
 62
     0
 10
0.234483
 20
3.33822
 30
0.0
 11
0.220649
 21
3.338
 31
0.0
  0
LINE
  8
0
 62
     0
 10
0.220649
 20
3.338
 30
0.0
 11
0.179308
 21
3.3361
 31
0.0
  0
LINE
  8
0
 62
     0
 10
0.179308
 20
3.3361
 30
0.0
 11
0.142253
 21
3.33057
 31
0.0
  0
LINE
  8
0
 62
     0
 10
0.142253
 20
3.33057
 30
0.0
 11
0.115885
 21
3.31988
 31
0.0
  0
LINE
  8
0
 62
     0
 10
0.115885
 20
3.31988
 30
0.0
 11
0.0981446
 21
3.30701
 31
0.0
  0
LINE
  8
0
 62
     0
 10
0.0981446
 20
3.30701
 30
0.0
 11
0.0928276
 21
3.30208
 31
0.0
  0
LINE
  8
0
 62
     0
 10
0.0928276
 20
3.30208
 30
0.0
 11
0.0896268
 21
3.29943
 31
0.0
  0
LINE
  8
0
 62
     0
 10
0.0896268
 20
3.29943
 30
0.0
 11
0.0803494
 21
3.29101
 31
0.0
  0
LINE
  8
0
 62
     0
 10
0.0803494
 20
3.29101
 30
0.0
 11
0.0709093
 21
3.28043
 31
0.0
  0
LINE
  8
0
 62
     0
 10
0.0709093
 20
3.28043
 30
0.0
 11
0.0640192
 21
3.26839
 31
0.0
  0
LINE
  8
0
 62
     0
 10
0.0640192
 20
3.26839
 30
0.0
 11
0.059299
 21
3.25282
 31
0.0
  0
LINE
  8
0
 62
     0
 10
0.059299
 20
3.25282
 30
0.0
 11
0.0563151
 21
3.23178
 31
0.0
  0
LINE
  8
0
 62
     0
 10
0.0563151
 20
3.23178
 30
0.0
 11
0.0546875
 21
3.20329
 31
0.0
  0
LINE
  8
0
 62
     0
 10
0.0546875
 20
3.20329
 30
0.0
 11
0.0540365
 21
3.16536
 31
0.0
  0
LINE
  8
0
 62
     0
 10
0.0540365
 20
3.16536
 30
0.0
 11
0.0539279
 21
3.12836
 31
0.0
  0
LINE
  8
0
 62
     0
 10
0.0539279
 20
3.12836
 30
0.0
 11
0.0539279
 21
3.116
 31
0.0
  0
LINE
  8
0
 62
     0
 10
0.0539279
 20
3.116
 30
0.0
 11
0.0539279
 21
2.96457
 31
0.0
  0
LINE
  8
0
 62
     0
 10
0.0539279
 20
2.96457
 30
0.0
 11
0.108073
 21
2.91737
 31
0.0
  0
LINE
  8
0
 62
     0
 10
0.108073
 20
2.91737
 30
0.0
 11
0.114475
 21
2.91211
 31
0.0
  0
LINE
  8
0
 62
     0
 10
0.114475
 20
2.91211
 30
0.0
 11
0.134766
 21
2.89751
 31
0.0
  0
LINE
  8
0
 62
     0
 10
0.134766
 20
2.89751
 30
0.0
 11
0.166558
 21
2.87711
 31
0.0
  0
LINE
  8
0
 62
     0
 10
0.166558
 20
2.87711
 30
0.0
 11
0.199653
 21
2.85883
 31
0.0
  0
LINE
  8
0
 62
     0
 10
0.199653
 20
2.85883
 30
0.0
 11
0.222439
 21
2.8481
 31
0.0
  0
LINE
  8
0
 62
     0
 10
0.222439
 20
2.8481
 30
0.0
 11
0.230306
 21
2.84517
 31
0.0
  0
LINE
  8
0
 62
     0
 10
0.230306
 20
2.84517
 30
0.0
 11
0.248318
 21
2.83789
 31
0.0
  0
LINE
  8
0
 62
     0
 10
0.248318
 20
2.83789
 30
0.0
 11
0.335124
 21
2.78976
 31
0.0
  0
LINE
  8
0
 62
     0
 10
0.335124
 20
2.78976
 30
0.0
 11
0.421983
 21
2.72293
 31
0.0
  0
LINE
  8
0
 62
     0
 10
0.421983
 20
2.72293
 30
0.0
 11
0.44005
 21
2.70628
 31
0.0
  0
LINE
  8
0
 62
     0
 10
0.44005
 20
2.70628
 30
0.0
 11
0.450032
 21
2.69715
 31
0.0
  0
LINE
  8
0
 62
     0
 10
0.450032
 20
2.69715
 30
0.0
 11
0.475151
 21
2.66444
 31
0.0
  0
LINE
  8
0
 62
     0
 10
0.475151
 20
2.66444
 30
0.0
 11
0.48481
 21
2.62451
 31
0.0
  0
LINE
  8
0
 62
     0
 10
0.48481
 20
2.62451
 30
0.0
 11
0.468912
 21
2.58382
 31
0.0
  0
LINE
  8
0
 62
     0
 10
0.468912
 20
2.58382
 30
0.0
 11
0.438857
 21
2.54949
 31
0.0
  0
LINE
  8
0
 62
     0
 10
0.438857
 20
2.54949
 30
0.0
 11
0.427518
 21
2.53961
 31
0.0
  0
LINE
  8
0
 62
     0
 10
0.427518
 20
2.53961
 30
0.0
 11
0.417535
 21
2.53108
 31
0.0
  0
LINE
  8
0
 62
     0
 10
0.417535
 20
2.53108
 30
0.0
 11
0.385579
 21
2.50765
 31
0.0
  0
LINE
  8
0
 62
     0
 10
0.385579
 20
2.50765
 30
0.0
 11
0.343099
 21
2.48475
 31
0.0
  0
LINE
  8
0
 62
     0
 10
0.343099
 20
2.48475
 30
0.0
 11
0.293892
 21
2.4681
 31
0.0
  0
LINE
  8
0
 62
     0
 10
0.293892
 20
2.4681
 30
0.0
 11
0.247342
 21
2.45763
 31
0.0
  0
LINE
  8
0
 62
     0
 10
0.247342
 20
2.45763
 30
0.0
 11
0.231717
 21
2.45486
 31
0.0
  0
LINE
  8
0
 62
     0
 10
0.231717
 20
2.45486
 30
0.0
 11
0.213053
 21
2.45188
 31
0.0
  0
LINE
  8
0
 62
     0
 10
0.213053
 20
2.45188
 30
0.0
 11
0.160969
 21
2.41932
 31
0.0
  0
LINE
  8
0
 62
     0
 10
0.160969
 20
2.41932
 30
0.0
 11
0.106825
 21
2.34517
 31
0.0
  0
LINE
  8
0
 62
     0
 10
0.106825
 20
2.34517
 30
0.0
 11
0.0748156
 21
2.24393
 31
0.0
  0
LINE
  8
0
 62
     0
 10
0.0748156
 20
2.24393
 30
0.0
 11
0.0678168
 21
2.15593
 31
0.0
  0
LINE
  8
0
 62
     0
 10
0.0678168
 20
2.15593
 30
0.0
 11
0.0705837
 21
2.12706
 31
0.0
  0
LINE
  8
0
 62
     0
 10
0.0705837
 20
2.12706
 30
0.0
 11
0.0715061
 21
2.1186
 31
0.0
  0
LINE
  8
0
 62
     0
 10
0.0715061
 20
2.1186
 30
0.0
 11
0.0765517
 21
2.09343
 31
0.0
  0
LINE
  8
0
 62
     0
 10
0.0765517
 20
2.09343
 30
0.0
 11
0.0875651
 21
2.06287
 31
0.0
  0
LINE
  8
0
 62
     0
 10
0.0875651
 20
2.06287
 30
0.0
 11
0.105306
 21
2.03179
 31
0.0
  0
LINE
  8
0
 62
     0
 10
0.105306
 20
2.03179
 30
0.0
 11
0.124729
 21
2.0051
 31
0.0
  0
LINE
  8
0
 62
     0
 10
0.124729
 20
2.0051
 30
0.0
 11
0.131673
 21
1.99653
 31
0.0
  0
LINE
  8
0
 62
     0
 10
0.131673
 20
1.99653
 30
0.0
 11
0.137153
 21
1.98975
 31
0.0
  0
LINE
  8
0
 62
     0
 10
0.137153
 20
1.98975
 30
0.0
 11
0.154893
 21
1.97011
 31
0.0
  0
LINE
  8
0
 62
     0
 10
0.154893
 20
1.97011
 30
0.0
 11
0.178874
 21
1.94672
 31
0.0
  0
LINE
  8
0
 62
     0
 10
0.178874
 20
1.94672
 30
0.0
 11
0.200846
 21
1.92876
 31
0.0
  0
LINE
  8
0
 62
     0
 10
0.200846
 20
1.92876
 30
0.0
 11
0.213271
 21
1.92046
 31
0.0
  0
LINE
  8
0
 62
     0
 10
0.213271
 20
1.92046
 30
0.0
 11
0.217828
 21
1.91872
 31
0.0
  0
LINE
  8
0
 62
     0
 10
0.217828
 20
1.91872
 30
0.0
 11
0.222928
 21
1.91667
 31
0.0
  0
LINE
  8
0
 62
     0
 10
0.222928
 20
1.91667
 30
0.0
 11
0.23649
 21
1.9056
 31
0.0
  0
LINE
  8
0
 62
     0
 10
0.23649
 20
1.9056
 30
0.0
 11
0.246582
 21
1.88439
 31
0.0
  0
LINE
  8
0
 62
     0
 10
0.246582
 20
1.88439
 30
0.0
 11
0.247831
 21
1.85433
 31
0.0
  0
LINE
  8
0
 62
     0
 10
0.247831
 20
1.85433
 30
0.0
 11
0.242731
 21
1.82433
 31
0.0
  0
LINE
  8
0
 62
     0
 10
0.242731
 20
1.82433
 30
0.0
 11
0.240018
 21
1.81456
 31
0.0
  0
LINE
  8
0
 62
     0
 10
0.240018
 20
1.81456
 30
0.0
 11
0.238986
 21
1.81054
 31
0.0
  0
LINE
  8
0
 62
     0
 10
0.238986
 20
1.81054
 30
0.0
 11
0.23226
 21
1.79937
 31
0.0
  0
LINE
  8
0
 62
     0
 10
0.23226
 20
1.79937
 30
0.0
 11
0.216906
 21
1.78022
 31
0.0
  0
LINE
  8
0
 62
     0
 10
0.216906
 20
1.78022
 30
0.0
 11
0.196072
 21
1.75956
 31
0.0
  0
LINE
  8
0
 62
     0
 10
0.196072
 20
1.75956
 30
0.0
 11
0.178222
 21
1.74431
 31
0.0
  0
LINE
  8
0
 62
     0
 10
0.178222
 20
1.74431
 30
0.0
 11
0.171983
 21
1.73958
 31
0.0
  0
LINE
  8
0
 62
     0
 10
0.171983
 20
1.73958
 30
0.0
 11
0.161893
 21
1.73199
 31
0.0
  0
LINE
  8
0
 62
     0
 10
0.161893
 20
1.73199
 30
0.0
 11
0.123318
 21
1.69254
 31
0.0
  0
LINE
  8
0
 62
     0
 10
0.123318
 20
1.69254
 30
0.0
 11
0.0986871
 21
1.64828
 31
0.0
  0
LINE
  8
0
 62
     0
 10
0.0986871
 20
1.64828
 30
0.0
 11
0.0955946
 21
1.63818
 31
0.0
  0
LINE
  8
0
 62
     0
 10
0.0955946
 20
1.63818
 30
0.0
 11
0.0927735
 21
1.63021
 31
0.0
  0
LINE
  8
0
 62
     0
 10
0.0927735
 20
1.63021
 30
0.0
 11
0.0759549
 21
1.58507
 31
0.0
  0
LINE
  8
0
 62
     0
 10
0.0759549
 20
1.58507
 30
0.0
 11
0.0583768
 21
1.54411
 31
0.0
  0
LINE
  8
0
 62
     0
 10
0.0583768
 20
1.54411
 30
0.0
 11
0.0552843
 21
1.53819
 31
0.0
  0
LINE
  8
0
 62
     0
 10
0.0552843
 20
1.53819
 30
0.0
 11
0.0525174
 21
1.53233
 31
0.0
  0
LINE
  8
0
 62
     0
 10
0.0525174
 20
1.53233
 30
0.0
 11
0.0466037
 21
1.51036
 31
0.0
  0
LINE
  8
0
 62
     0
 10
0.0466037
 20
1.51036
 30
0.0
 11
0.0379232
 21
1.4655
 31
0.0
  0
LINE
  8
0
 62
     0
 10
0.0379232
 20
1.4655
 30
0.0
 11
0.0302735
 21
1.40831
 31
0.0
  0
LINE
  8
0
 62
     0
 10
0.0302735
 20
1.40831
 30
0.0
 11
0.0257161
 21
1.35992
 31
0.0
  0
LINE
  8
0
 62
     0
 10
0.0257161
 20
1.35992
 30
0.0
 11
0.0247396
 21
1.34375
 31
0.0
  0
LINE
  8
0
 62
     0
 10
0.0247396
 20
1.34375
 30
0.0
 11
0.0230035
 21
1.32292
 31
0.0
  0
LINE
  8
0
 62
     0
 10
0.0230035
 20
1.32292
 30
0.0
 11
0.0137804
 21
1.21077
 31
0.0
  0
LINE
  8
0
 62
     0
 10
0.0137804
 20
1.21077
 30
0.0
 11
0.00526258
 21
1.1167
 31
0.0
  0
LINE
  8
0
 62
     0
 10
0.00526258
 20
1.1167
 30
0.0
 11
0.00390625
 21
1.10487
 31
0.0
  0
LINE
  8
0
 62
     0
 10
0.00390625
 20
1.10487
 30
0.0
 11
0.00265842
 21
1.09256
 31
0.0
  0
LINE
  8
0
 62
     0
 10
0.00265842
 20
1.09256
 30
0.0
 11
5.42535e-05
 21
1.05534
 31
0.0
  0
LINE
  8
0
 62
     0
 10
5.42535e-05
 20
1.05534
 30
0.0
 11
0.00320096
 21
1.02083
 31
0.0
  0
LINE
  8
0
 62
     0
 10
0.00320096
 20
1.02083
 30
0.0
 11
0.0167643
 21
0.988499
 31
0.0
  0
LINE
  8
0
 62
     0
 10
0.0167643
 20
0.988499
 30
0.0
 11
0.0371094
 21
0.955837
 31
0.0
  0
LINE
  8
0
 62
     0
 10
0.0371094
 20
0.955837
 30
0.0
 11
0.0442165
 21
0.94515
 31
0.0
  0
LINE
  8
0
 62
     0
 10
0.0442165
 20
0.94515
 30
0.0
 11
0.0494792
 21
0.937121
 31
0.0
  0
LINE
  8
0
 62
     0
 10
0.0494792
 20
0.937121
 30
0.0
 11
0.0662978
 21
0.913519
 31
0.0
  0
LINE
  8
0
 62
     0
 10
0.0662978
 20
0.913519
 30
0.0
 11
0.0910374
 21
0.881456
 31
0.0
  0
LINE
  8
0
 62
     0
 10
0.0910374
 20
0.881456
 30
0.0
 11
0.115234
 21
0.85281
 31
0.0
  0
LINE
  8
0
 62
     0
 10
0.115234
 20
0.85281
 30
0.0
 11
0.130425
 21
0.836372
 31
0.0
  0
LINE
  8
0
 62
     0
 10
0.130425
 20
0.836372
 30
0.0
 11
0.135851
 21
0.831272
 31
0.0
  0
LINE
  8
0
 62
     0
 10
0.135851
 20
0.831272
 30
0.0
 11
0.14171
 21
0.825358
 31
0.0
  0
LINE
  8
0
 62
     0
 10
0.14171
 20
0.825358
 30
0.0
 11
0.166233
 21
0.797092
 31
0.0
  0
LINE
  8
0
 62
     0
 10
0.166233
 20
0.797092
 30
0.0
 11
0.178928
 21
0.780003
 31
0.0
  0
LINE
  8
0
 62
     0
 10
0.178928
 20
0.780003
 30
0.0
 11
0.178928
 21
0.774306
 31
0.0
  0
LINE
  8
0
 62
     0
 10
0.178928
 20
0.774306
 30
0.0
 11
0.178928
 21
0.768013
 31
0.0
  0
LINE
  8
0
 62
     0
 10
0.178928
 20
0.768013
 30
0.0
 11
0.185331
 21
0.748969
 31
0.0
  0
LINE
  8
0
 62
     0
 10
0.185331
 20
0.748969
 30
0.0
 11
0.197971
 21
0.719129
 31
0.0
  0
LINE
  8
0
 62
     0
 10
0.197971
 20
0.719129
 30
0.0
 11
0.201118
 21
0.713217
 31
0.0
  0
LINE
  8
0
 62
     0
 10
0.201118
 20
0.713217
 30
0.0
 11
0.205296
 21
0.704807
 31
0.0
  0
LINE
  8
0
 62
     0
 10
0.205296
 20
0.704807
 30
0.0
 11
0.212999
 21
0.676975
 31
0.0
  0
LINE
  8
0
 62
     0
 10
0.212999
 20
0.676975
 30
0.0
 11
0.220215
 21
0.614963
 31
0.0
  0
LINE
  8
0
 62
     0
 10
0.220215
 20
0.614963
 30
0.0
 11
0.223796
 21
0.509711
 31
0.0
  0
LINE
  8
0
 62
     0
 10
0.223796
 20
0.509711
 30
0.0
 11
0.224772
 21
0.385254
 31
0.0
  0
LINE
  8
0
 62
     0
 10
0.224772
 20
0.385254
 30
0.0
 11
0.224772
 21
0.34375
 31
0.0
  0
LINE
  8
0
 62
     0
 10
0.224772
 20
0.34375
 30
0.0
 11
0.226129
 21
0.0215386
 31
0.0
  0
LINE
  8
0
 62
     0
 10
0.226129
 20
0.0215386
 30
0.0
 11
0.402507
 21
0.0131836
 31
0.0
  0
LINE
  8
0
 62
     0
 10
0.402507
 20
0.0131836
 30
0.0
 11
0.426812
 21
0.0118273
 31
0.0
  0
LINE
  8
0
 62
     0
 10
0.426812
 20
0.0118273
 30
0.0
 11
0.568793
 21
0.00954861
 31
0.0
  0
LINE
  8
0
 62
     0
 10
0.568793
 20
0.00954861
 30
0.0
 11
0.701118
 21
0.0121528
 31
0.0
  0
LINE
  8
0
 62
     0
 10
0.701118
 20
0.0121528
 30
0.0
 11
0.720594
 21
0.0131836
 31
0.0
  0
LINE
  8
0
 62
     0
 10
0.720594
 20
0.0131836
 30
0.0
 11
0.738932
 21
0.0142686
 31
0.0
  0
LINE
  8
0
 62
     0
 10
0.738932
 20
0.0142686
 30
0.0
 11
0.793892
 21
0.0184463
 31
0.0
  0
LINE
  8
0
 62
     0
 10
0.793892
 20
0.0184463
 30
0.0
 11
0.838271
 21
0.0250108
 31
0.0
  0
LINE
  8
0
 62
     0
 10
0.838271
 20
0.0250108
 30
0.0
 11
0.862358
 21
0.0347222
 31
0.0
  0
LINE
  8
0
 62
     0
 10
0.862358
 20
0.0347222
 30
0.0
 11
0.872558
 21
0.0451932
 31
0.0
  0
LINE
  8
0
 62
     0
 10
0.872558
 20
0.0451932
 30
0.0
 11
0.874729
 21
0.0493164
 31
0.0
  0
LINE
  8
0
 62
     0
 10
0.874729
 20
0.0493164
 30
0.0
 11
0.878201
 21
0.05523
 31
0.0
  0
LINE
  8
0
 62
     0
 10
0.878201
 20
0.05523
 30
0.0
 11
0.879992
 21
0.0781793
 31
0.0
  0
LINE
  8
0
 62
     0
 10
0.879992
 20
0.0781793
 30
0.0
 11
0.885363
 21
0.142578
 31
0.0
  0
LINE
  8
0
 62
     0
 10
0.885363
 20
0.142578
 30
0.0
 11
0.890625
 21
0.23584
 31
0.0
  0
LINE
  8
0
 62
     0
 10
0.890625
 20
0.23584
 30
0.0
 11
0.895562
 21
0.3514
 31
0.0
  0
LINE
  8
0
 62
     0
 10
0.895562
 20
0.3514
 30
0.0
 11
0.899957
 21
0.482639
 31
0.0
  0
LINE
  8
0
 62
     0
 10
0.899957
 20
0.482639
 30
0.0
 11
0.903646
 21
0.622775
 31
0.0
  0
LINE
  8
0
 62
     0
 10
0.903646
 20
0.622775
 30
0.0
 11
0.906413
 21
0.7653
 31
0.0
  0
LINE
  8
0
 62
     0
 10
0.906413
 20
0.7653
 30
0.0
 11
0.907824
 21
0.868978
 31
0.0
  0
LINE
  8
0
 62
     0
 10
0.907824
 20
0.868978
 30
0.0
 11
0.908094
 21
0.903483
 31
0.0
  0
LINE
  8
0
 62
     0
 10
0.908094
 20
0.903483
 30
0.0
 11
0.908094
 21
0.918132
 31
0.0
  0
LINE
  8
0
 62
     0
 10
0.908094
 20
0.918132
 30
0.0
 11
0.907118
 21
0.962022
 31
0.0
  0
LINE
  8
0
 62
     0
 10
0.907118
 20
0.962022
 30
0.0
 11
0.901476
 21
0.997939
 31
0.0
  0
LINE
  8
0
 62
     0
 10
0.901476
 20
0.997939
 30
0.0
 11
0.88699
 21
1.02344
 31
0.0
  0
LINE
  8
0
 62
     0
 10
0.88699
 20
1.02344
 30
0.0
 11
0.86659
 21
1.04416
 31
0.0
  0
LINE
  8
0
 62
     0
 10
0.86659
 20
1.04416
 30
0.0
 11
0.859483
 21
1.05067
 31
0.0
  0
LINE
  8
0
 62
     0
 10
0.859483
 20
1.05067
 30
0.0
 11
0.854383
 21
1.05534
 31
0.0
  0
LINE
  8
0
 62
     0
 10
0.854383
 20
1.05534
 30
0.0
 11
0.839735
 21
1.06988
 31
0.0
  0
LINE
  8
0
 62
     0
 10
0.839735
 20
1.06988
 30
0.0
 11
0.818847
 21
1.09196
 31
0.0
  0
LINE
  8
0
 62
     0
 10
0.818847
 20
1.09196
 30
0.0
 11
0.797906
 21
1.11561
 31
0.0
  0
LINE
  8
0
 62
     0
 10
0.797906
 20
1.11561
 30
0.0
 11
0.778213
 21
1.13927
 31
0.0
  0
LINE
  8
0
 62
     0
 10
0.778213
 20
1.13927
 30
0.0
 11
0.760796
 21
1.16146
 31
0.0
  0
LINE
  8
0
 62
     0
 10
0.760796
 20
1.16146
 30
0.0
 11
0.746962
 21
1.18077
 31
0.0
  0
LINE
  8
0
 62
     0
 10
0.746962
 20
1.18077
 30
0.0
 11
0.737793
 21
1.19575
 31
0.0
  0
LINE
  8
0
 62
     0
 10
0.737793
 20
1.19575
 30
0.0
 11
0.734483
 21
1.20258
 31
0.0
  0
LINE
  8
0
 62
     0
 10
0.734483
 20
1.20258
 30
0.0
 11
0.734483
 21
1.20486
 31
0.0
  0
LINE
  8
0
 62
     0
 10
0.734483
 20
1.20486
 30
0.0
 11
0.734483
 21
1.20823
 31
0.0
  0
LINE
  8
0
 62
     0
 10
0.734483
 20
1.20823
 30
0.0
 11
0.726292
 21
1.21826
 31
0.0
  0
LINE
  8
0
 62
     0
 10
0.726292
 20
1.21826
 30
0.0
 11
0.710504
 21
1.23372
 31
0.0
  0
LINE
  8
0
 62
     0
 10
0.710504
 20
1.23372
 30
0.0
 11
0.706706
 21
1.23682
 31
0.0
  0
LINE
  8
0
 62
     0
 10
0.706706
 20
1.23682
 30
0.0
 11
0.702854
 21
1.24029
 31
0.0
  0
LINE
  8
0
 62
     0
 10
0.702854
 20
1.24029
 30
0.0
 11
0.684462
 21
1.26828
 31
0.0
  0
LINE
  8
0
 62
     0
 10
0.684462
 20
1.26828
 30
0.0
 11
0.671604
 21
1.30246
 31
0.0
  0
LINE
  8
0
 62
     0
 10
0.671604
 20
1.30246
 30
0.0
 11
0.670574
 21
1.30903
 31
0.0
  0
LINE
  8
0
 62
     0
 10
0.670574
 20
1.30903
 30
0.0
 11
0.669271
 21
1.31624
 31
0.0
  0
LINE
  8
0
 62
     0
 10
0.669271
 20
1.31624
 30
0.0
 11
0.667697
 21
1.33822
 31
0.0
  0
LINE
  8
0
 62
     0
 10
0.667697
 20
1.33822
 30
0.0
 11
0.675944
 21
1.36133
 31
0.0
  0
LINE
  8
0
 62
     0
 10
0.675944
 20
1.36133
 30
0.0
 11
0.701606
 21
1.38775
 31
0.0
  0
LINE
  8
0
 62
     0
 10
0.701606
 20
1.38775
 30
0.0
 11
0.738607
 21
1.41749
 31
0.0
  0
LINE
  8
0
 62
     0
 10
0.738607
 20
1.41749
 30
0.0
 11
0.751139
 21
1.42708
 31
0.0
  0
LINE
  8
0
 62
     0
 10
0.751139
 20
1.42708
 30
0.0
 11
0.759711
 21
1.43419
 31
0.0
  0
LINE
  8
0
 62
     0
 10
0.759711
 20
1.43419
 30
0.0
 11
0.785915
 21
1.45486
 31
0.0
  0
LINE
  8
0
 62
     0
 10
0.785915
 20
1.45486
 30
0.0
 11
0.816894
 21
1.47831
 31
0.0
  0
LINE
  8
0
 62
     0
 10
0.816894
 20
1.47831
 30
0.0
 11
0.840386
 21
1.49528
 31
0.0
  0
LINE
  8
0
 62
     0
 10
0.840386
 20
1.49528
 30
0.0
 11
0.850803
 21
1.50244
 31
0.0
  0
LINE
  8
0
 62
     0
 10
0.850803
 20
1.50244
 30
0.0
 11
0.852539
 21
1.50347
 31
0.0
  0
LINE
  8
0
 62
     0
 10
0.852539
 20
1.50347
 30
0.0
 11
0.86339
 21
1.50906
 31
0.0
  0
LINE
  8
0
 62
     0
 10
0.86339
 20
1.50906
 30
0.0
 11
0.894586
 21
1.52869
 31
0.0
  0
LINE
  8
0
 62
     0
 10
0.894586
 20
1.52869
 30
0.0
 11
0.943143
 21
1.56338
 31
0.0
  0
LINE
  8
0
 62
     0
 10
0.943143
 20
1.56338
 30
0.0
 11
0.991157
 21
1.60249
 31
0.0
  0
LINE
  8
0
 62
     0
 10
0.991157
 20
1.60249
 30
0.0
 11
1.02208
 21
1.63081
 31
0.0
  0
LINE
  8
0
 62
     0
 10
1.02208
 20
1.63081
 30
0.0
 11
1.03168
 21
1.64094
 31
0.0
  0
LINE
  8
0
 62
     0
 10
1.03168
 20
1.64094
 30
0.0
 11
1.04221
 21
1.65175
 31
0.0
  0
LINE
  8
0
 62
     0
 10
1.04221
 20
1.65175
 30
0.0
 11
1.06901
 21
1.68881
 31
0.0
  0
LINE
  8
0
 62
     0
 10
1.06901
 20
1.68881
 30
0.0
 11
1.09174
 21
1.74772
 31
0.0
  0
LINE
  8
0
 62
     0
 10
1.09174
 20
1.74772
 30
0.0
 11
1.10352
 21
1.83137
 31
0.0
  0
LINE
  8
0
 62
     0
 10
1.10352
 20
1.83137
 30
0.0
 11
1.10764
 21
1.92296
 31
0.0
  0
LINE
  8
0
 62
     0
 10
1.10764
 20
1.92296
 30
0.0
 11
1.10807
 21
1.95344
 31
0.0
  0
LINE
  8
0
 62
     0
 10
1.10807
 20
1.95344
 30
0.0
 11
1.10824
 21
1.96636
 31
0.0
  0
LINE
  8
0
 62
     0
 10
1.10824
 20
1.96636
 30
0.0
 11
1.10769
 21
2.0051
 31
0.0
  0
LINE
  8
0
 62
     0
 10
1.10769
 20
2.0051
 30
0.0
 11
1.10319
 21
2.03819
 31
0.0
  0
LINE
  8
0
 62
     0
 10
1.10319
 20
2.03819
 30
0.0
 11
1.09245
 21
2.06093
 31
0.0
  0
LINE
  8
0
 62
     0
 10
1.09245
 20
2.06093
 30
0.0
 11
1.07845
 21
2.07661
 31
0.0
  0
LINE
  8
0
 62
     0
 10
1.07845
 20
2.07661
 30
0.0
 11
1.07335
 21
2.08128
 31
0.0
  0
LINE
  8
0
 62
     0
 10
1.07335
 20
2.08128
 30
0.0
 11
1.06624
 21
2.08703
 31
0.0
  0
LINE
  8
0
 62
     0
 10
1.06624
 20
2.08703
 30
0.0
 11
1.04281
 21
2.10172
 31
0.0
  0
LINE
  8
0
 62
     0
 10
1.04281
 20
2.10172
 30
0.0
 11
1.0115
 21
2.11806
 31
0.0
  0
LINE
  8
0
 62
     0
 10
1.0115
 20
2.11806
 30
0.0
 11
0.9815
 21
2.13476
 31
0.0
  0
LINE
  8
0
 62
     0
 10
0.9815
 20
2.13476
 30
0.0
 11
0.960721
 21
2.15007
 31
0.0
  0
LINE
  8
0
 62
     0
 10
0.960721
 20
2.15007
 30
0.0
 11
0.954915
 21
2.15614
 31
0.0
  0
LINE
  8
0
 62
     0
 10
0.954915
 20
2.15614
 30
0.0
 11
0.945801
 21
2.16612
 31
0.0
  0
LINE
  8
0
 62
     0
 10
0.945801
 20
2.16612
 30
0.0
 11
0.92399
 21
2.20096
 31
0.0
  0
LINE
  8
0
 62
     0
 10
0.92399
 20
2.20096
 30
0.0
 11
0.901258
 21
2.26079
 31
0.0
  0
LINE
  8
0
 62
     0
 10
0.901258
 20
2.26079
 30
0.0
 11
0.894694
 21
2.33029
 31
0.0
  0
LINE
  8
0
 62
     0
 10
0.894694
 20
2.33029
 30
0.0
 11
0.904785
 21
2.38693
 31
0.0
  0
LINE
  8
0
 62
     0
 10
0.904785
 20
2.38693
 30
0.0
 11
0.912272
 21
2.40397
 31
0.0
  0
LINE
  8
0
 62
     0
 10
0.912272
 20
2.40397
 30
0.0
 11
0.916504
 21
2.4209
 31
0.0
  0
LINE
  8
0
 62
     0
 10
0.916504
 20
2.4209
 30
0.0
 11
0.940375
 21
2.46892
 31
0.0
  0
LINE
  8
0
 62
     0
 10
0.940375
 20
2.46892
 30
0.0
 11
0.980469
 21
2.51139
 31
0.0
  0
LINE
  8
0
 62
     0
 10
0.980469
 20
2.51139
 30
0.0
 11
1.02702
 21
2.5459
 31
0.0
  0
LINE
  8
0
 62
     0
 10
1.02702
 20
2.5459
 30
0.0
 11
1.06402
 21
2.57547
 31
0.0
  0
LINE
  8
0
 62
     0
 10
1.06402
 20
2.57547
 30
0.0
 11
1.07476
 21
2.58681
 31
0.0
  0
LINE
  8
0
 62
     0
 10
1.07476
 20
2.58681
 30
0.0
 11
1.07926
 21
2.59169
 31
0.0
  0
LINE
  8
0
 62
     0
 10
1.07926
 20
2.59169
 30
0.0
 11
1.08615
 21
2.61344
 31
0.0
  0
LINE
  8
0
 62
     0
 10
1.08615
 20
2.61344
 30
0.0
 11
1.09418
 21
2.67486
 31
0.0
  0
LINE
  8
0
 62
     0
 10
1.09418
 20
2.67486
 30
0.0
 11
1.1001
 21
2.787
 31
0.0
  0
LINE
  8
0
 62
     0
 10
1.1001
 20
2.787
 30
0.0
 11
1.10422
 21
2.92128
 31
0.0
  0
LINE
  8
0
 62
     0
 10
1.10422
 20
2.92128
 30
0.0
 11
1.10531
 21
2.96599
 31
0.0
  0
LINE
  8
0
 62
     0
 10
1.10531
 20
2.96599
 30
0.0
 11
1.11366
 21
3.3215
 31
0.0
  0
LINE
  8
0
 62
     0
 10
1.11366
 20
3.3215
 30
0.0
 11
1.05946
 21
3.32986
 31
0.0
  0
LINE
  8
0
 62
     0
 10
1.05946
 20
3.32986
 30
0.0
 11
1.05214
 21
3.33094
 31
0.0
  0
LINE
  8
0
 62
     0
 10
1.05214
 20
3.33094
 30
0.0
 11
1.01307
 21
3.33925
 31
0.0
  0
LINE
  8
0
 62
     0
 10
1.01307
 20
3.33925
 30
0.0
 11
0.980251
 21
3.34896
 31
0.0
  0
LINE
  8
0
 62
     0
 10
0.980251
 20
3.34896
 30
0.0
 11
0.976129
 21
3.35069
 31
0.0
  0
LINE
  8
0
 62
     0
 10
0.976129
 20
3.35069
 30
0.0
 11
0.968587
 21
3.35374
 31
0.0
  0
LINE
  8
0
 62
     0
 10
0.968587
 20
3.35374
 30
0.0
 11
0.942925
 21
3.35525
 31
0.0
  0
LINE
  8
0
 62
     0
 10
0.942925
 20
3.35525
 30
0.0
 11
0.876574
 21
3.35851
 31
0.0
  0
LINE
  8
0
 62
     0
 10
0.876574
 20
3.35851
 30
0.0
 11
0.787706
 21
3.36046
 31
0.0
  0
LINE
  8
0
 62
     0
 10
0.787706
 20
3.36046
 30
0.0
 11
0.687067
 21
3.36111
 31
0.0
  0
LINE
  8
0
 62
     0
 10
0.687067
 20
3.36111
 30
0.0
 11
0.585286
 21
3.36046
 31
0.0
  0
LINE
  8
0
 62
     0
 10
0.585286
 20
3.36046
 30
0.0
 11
0.49311
 21
3.35851
 31
0.0
  0
LINE
  8
0
 62
     0
 10
0.49311
 20
3.35851
 30
0.0
 11
0.421224
 21
3.35525
 31
0.0
  0
LINE
  8
0
 62
     0
 10
0.421224
 20
3.35525
 30
0.0
 11
0.390246
 21
3.35308
 31
0.0
  0
LINE
  8
0
 62
     0
 10
0.390246
 20
3.35308
 30
0.0
 11
0.380317
 21
3.35069
 31
0.0
  0
ENDSEC
  0
EOF
