<?xml version="1.0" encoding="UTF-8" standalone="no"?>
<svg
   xmlns:dc="http://purl.org/dc/elements/1.1/"
   xmlns:cc="http://creativecommons.org/ns#"
   xmlns:rdf="http://www.w3.org/1999/02/22-rdf-syntax-ns#"
   xmlns:svg="http://www.w3.org/2000/svg"
   xmlns="http://www.w3.org/2000/svg"
   viewBox="0 0 292.37567 833.01288"
   height="833.01288"
   width="292.37567"
   id="svg2"
   version="1.1">
  <metadata
     id="metadata8">
    <rdf:RDF>
      <cc:Work
         rdf:about="">
        <dc:format>image/svg+xml</dc:format>
        <dc:type
           rdf:resource="http://purl.org/dc/dcmitype/StillImage" />
        <dc:title></dc:title>
      </cc:Work>
    </rdf:RDF>
  </metadata>
  <defs
     id="defs6" />
  <path
     id="path817"
     d="M 105.45623,831.5769 C 104.48663,830.4086 102.28455,830 96.95779,830 86.55261,830 82.18136,827.6985 80.46287,821.31528 79.74986,818.66687 78.80813,810.2 78.37013,802.5 c -0.83572,-14.6918 -1.57897,-20.67639 -2.98065,-24 -0.46391,-1.1 -1.07802,-6.22749 -1.36469,-11.39442 -0.28667,-5.16693 -0.99623,-9.86943 -1.5768,-10.45 -0.58057,-0.58057 -1.05558,-1.84268 -1.05558,-2.80469 0,-0.96201 -1.575,-2.95042 -3.5,-4.41869 -3.2793,-2.50124 -3.5,-3.02945 -3.5,-8.37657 0,-4.76225 -0.40527,-6.08773 -2.44813,-8.0069 -1.34647,-1.26494 -2.72539,-3.56229 -3.06428,-5.10521 -0.63292,-2.88167 -2.1638,-4.58646 -5.75116,-6.40448 -1.12764,-0.57147 -2.65646,-2.79983 -3.39738,-4.9519 -0.74092,-2.15207 -3.14531,-6.24364 -5.34309,-9.09237 -3.22662,-4.18231 -3.99596,-6.0004 -3.99596,-9.44324 0,-3.22907 -0.72799,-5.18289 -3,-8.05153 -1.65,-2.08329 -3,-4.2167 -3,-4.74089 0,-0.83813 -1.04203,-2.29547 -4.98146,-6.9669 -0.5602,-0.66429 -1.01854,-2.21467 -1.01854,-3.44528 0,-2.54781 -4.58773,-7.79953 -6.93709,-7.94112 -0.8596,-0.0518 -3.31452,-2.08291 -5.45537,-4.51355 -3.86876,-4.39244 -3.89296,-4.47255 -3.97416,-13.1558 -0.16296,-17.42801 2.51735,-85.78063 3.43007,-87.47289 0.5151,-0.95504 0.93655,-5.96244 0.93655,-11.12756 0,-6.99144 0.37117,-9.69917 1.45258,-10.59665 0.87621,-0.72719 1.57059,-3.4541 1.75,-6.87245 0.2762,-5.26254 0.48223,-5.68839 2.88744,-5.9679 2.21609,-0.25753 2.75749,-1.02649 3.75,-5.32629 0.63799,-2.76391 1.15998,-5.86986 1.15998,-6.90209 0,-2.19778 4.53336,-4.51945 10.69243,-5.47592 2.30584,-0.35808 4.72344,-1.29088 5.37245,-2.07288 0.649,-0.78201 1.95516,-1.42183 2.90258,-1.42183 0.94741,0 2.53705,-0.9 3.53254,-2 0.99549,-1.1 2.22214,-2 2.72589,-2 1.79946,0 15.77411,-13.49129 15.77411,-15.2285 0,-0.97433 0.3888,-1.7715 0.864,-1.7715 0.4752,0 2.1114,-1.8 3.636,-4 1.5246,-2.2 3.43585,-4 4.24722,-4 2.3431,0 10.99822,-7.77477 13.38736,-12.02566 1.26087,-2.24343 3.06042,-4.00224 4.272,-4.17531 1.53762,-0.21964 2.23761,-1.22827 2.63651,-3.79903 0.65683,-4.233 3.3182,-10.22503 5.25564,-11.83296 0.88231,-0.73225 1.66996,-4.23958 2.09403,-9.32455 0.37386,-4.48294 0.94803,-8.58488 1.27592,-9.11543 0.3279,-0.53054 0.5098,-8.29306 0.40423,-17.25004 -0.12481,-10.58993 0.1786,-16.51443 0.86757,-16.94024 0.58274,-0.36015 1.05952,-3.68826 1.05952,-7.3958 0,-3.70754 0.50975,-7.25073 1.13278,-7.87376 0.69212,-0.69212 0.80927,-1.8397 0.30116,-2.95 -0.45739,-0.99947 -1.39648,-7.89222 -2.08685,-15.31722 -2.08072,-22.37806 -3.11637,-29.23934 -5.28082,-34.98588 -1.13645,-3.01724 -2.06627,-6.12655 -2.06627,-6.90959 0,-1.98417 -10.77103,-13.22684 -14.73328,-15.37842 -1.7967,-0.97564 -3.26672,-2.1448 -3.26672,-2.59813 0,-0.97439 -1.67323,-1.67985 -26.5,-11.17283 -10.45,-3.99575 -19.15,-7.64528 -19.33333,-8.11007 C 36.37574,279.38028 35.40329,279 34.39806,279 31.09846,279 21.3154,274.72462 20.30807,272.84241 19.76575,271.82908 18.74132,271 18.03154,271 c -0.70978,0 -2.32487,-1.10103 -3.58909,-2.44673 -1.26422,-1.34571 -3.22117,-2.58321 -4.34877,-2.75 -2.0451996,-0.30253 -5.4896096,-5.02989 -5.6281796,-7.72453 -0.0402,-0.78169 -0.7032,-2.13169 -1.47333,-3 -3.31405001,-3.73653 -4.13581,-23.30979 -1.13687,-27.07874 2.58235,-3.24539 5.53711,-9.22038 5.53711,-11.19692 0,-1.14543 0.7875,-2.6581 1.75,-3.3615 1.4514396,-1.06072 1.8352996,-3.39921 2.2499996,-13.70718 l 0.5,-12.42829 3.62834,-4.40305 c 1.99558,-2.42168 5.75227,-6.65306 8.3482,-9.40306 5.95071,-6.3039 9.52346,-11.45554 9.52346,-13.73213 0,-0.97233 0.38352,-1.76787 0.85227,-1.76787 1.66321,0 12.14773,-10.27875 12.14773,-11.90933 0,-0.91148 6.67815,-8.29096 14.84033,-16.39884 12.81431,-12.72906 15.39126,-14.8406 18.87576,-15.46672 3.33026,-0.5984 5.13476,-1.94832 10.32654,-7.72511 3.46011,-3.85 6.89102,-7.35986 7.62424,-7.79969 0.78764,-0.47247 1.33313,-2.59984 1.33313,-5.19911 0,-6.27749 -3.82061,-9.00583 -13.84534,-9.88714 C 81.50713,83.2589 77.25199,82.46003 76.09121,81.8388 74.93043,81.21757 70.13583,80.37127 65.43655,79.95813 60.73727,79.545 55.09241,78.73434 52.89241,78.15668 c -4.89232,-1.2846 -23.51968,-3.8922 -29,-4.05963 -8.03526,-0.2455 -9.5,-0.9357 -9.5,-4.47651 0,-1.77129 -0.41582,-3.64804 -0.92405,-4.17054 -1.51809,-1.56073 -1.82115,-42.09359 -0.32595,-43.59489 0.6875,-0.69031 1.25,-3.1041 1.25,-5.36398 0,-2.25988 0.66069,-4.98238 1.4682,-6.05 0.8075,-1.06762 1.4825,-2.87519 1.5,-4.01682 0.0175,-1.14162 1.0733,-3.05412 2.34625,-4.25 L 22.02131,0 H 152.572 283.12269 l 2.72706,2.14511 c 2.10616,1.6567 2.63166,2.79512 2.30806,5 C 287.92735,8.7153 288.14001,10 288.63044,10 c 0.4904,0 0.85086,2.8125 0.80102,6.25 -0.16678,11.50321 1.21179,33.75 2.0914,33.75 1.21772,0 1.09325,15.74371 -0.13045,16.5 -1.36254,0.8421 -1.26516,7.10255 0.14562,9.36157 0.86569,1.38619 0.82421,4.7427 -0.16976,13.73644 -0.72346,6.54609 -1.49737,16.17106 -1.7198,21.38882 -0.22243,5.21775 -0.85068,9.76263 -1.3961,10.09972 -1.0403,0.64294 -2.66016,8.75179 -3.53263,17.68406 -0.75794,7.75969 -2.69512,8.8435 -29.82733,16.6879 -12.65,3.65733 -24.03367,7.07535 -25.29705,7.59559 -1.26338,0.52025 -4.01931,0.9459 -6.12428,0.9459 -3.88855,0 -12.05222,2.40962 -13.03785,3.8483 -0.29745,0.43417 -2.4351,1.53499 -4.75034,2.44626 -2.31524,0.91127 -6.2872,3.24278 -8.8266,5.18115 -2.53939,1.93836 -5.45605,3.52429 -6.48146,3.52429 -1.02541,0 -2.1425,0.45 -2.48242,1 -0.33992,0.55 -1.45366,1 -2.47499,1 -1.73934,0 -5.93516,4.65552 -8.77501,9.73643 -1.49225,2.66985 -1.6669,10.88788 -0.25,11.76357 0.55,0.33992 1,3.03992 1,6 0,2.96008 0.45,5.66008 1,6 0.55,0.33992 1.01952,1.60398 1.04337,2.80902 0.0408,2.06291 1.35952,4.57166 6.70289,12.75208 1.23545,1.89139 2.24795,4.40135 2.25,5.57769 0.002,1.43091 2.79239,4.57512 8.42943,9.5 4.63412,4.04866 8.45912,7.83543 8.5,8.41504 0.0409,0.57961 1.64931,2.58039 3.57431,4.44617 1.925,1.86578 3.5,3.89487 3.5,4.50908 0,0.6142 1.35,2.41012 3,3.99092 1.65,1.5808 3,3.62033 3,4.53229 0,0.91196 12.00111,13.74422 26.66913,28.51612 l 26.66914,26.858 0.0599,7.04679 c 0.0329,3.87574 -0.37467,30.4468 -0.90577,59.0468 -0.53109,28.6 -0.85329,56.44684 -0.71599,61.88186 0.15963,6.31888 -0.16413,10.38043 -0.89794,11.26461 -0.63116,0.76051 -1.37962,4.62591 -1.66323,8.58979 -0.29085,4.06504 -1.10411,7.7955 -1.86544,8.55682 -0.74237,0.74238 -1.34977,2.61253 -1.34977,4.1559 0,1.54337 -0.62077,3.32132 -1.37949,3.951 -0.75871,0.62968 -1.6349,2.42195 -1.94707,3.98282 -0.89431,4.47154 -5.27671,8.957 -9.48372,9.70674 -2.02935,0.36166 -4.67121,1.55127 -5.87081,2.64359 -2.07357,1.88812 -11.95514,4.7928 -17.31891,5.09087 -1.375,0.0764 -3.32016,1.15977 -4.32258,2.40746 -1.00245,1.2477 -2.61764,2.26854 -3.58935,2.26854 -1.72636,0 -5.92972,4.02542 -9.36912,8.97251 -2.51479,3.61716 -2.35055,13.40912 0.28102,16.75462 1.1,1.39842 2,4.0018 2,5.78528 0,1.78349 0.675,3.8029 1.5,4.48759 0.825,0.68469 1.5,1.91745 1.5,2.73947 0,0.82201 1.8,3.24141 4,5.37644 2.30886,2.24068 4.00623,4.8336 4.01474,6.13298 0.008,1.23811 0.65613,3.37611 1.44004,4.75111 0.78392,1.375 2.05757,3.85 2.83036,5.5 0.77278,1.65 2.14976,3.6176 3.05996,4.37244 0.91019,0.75485 1.6549,1.9226 1.6549,2.59502 0,0.67241 0.9,2.03705 2,3.03254 1.1,0.99549 2,3.02049 2,4.5 0,1.47951 0.9,3.50451 2,4.5 1.1,0.99549 2,2.33407 2,2.97463 0,0.64055 2.24598,4.05831 4.99106,7.59501 4.68411,6.03488 4.99508,6.79937 5.05644,12.43036 0.0818,7.50368 1.80671,12.71647 4.61612,13.94993 1.85282,0.81348 2.26276,2.06997 2.85382,8.74714 0.45134,5.09863 1.30463,8.5783 2.46549,10.05409 1.62079,2.0605 1.75261,4.73656 1.51486,30.75287 -0.14323,15.67278 -0.76122,31.19597 -1.37331,34.49597 -0.61209,3.3 -1.1155,8.4975 -1.11869,11.55 -0.003,3.0991 -0.55779,6.10199 -1.25579,6.79998 -0.94775,0.94773 -1.25,8.96326 -1.25,33.14981 0,24.18642 0.30225,32.20212 1.25,33.15002 2.36154,2.3619 0.85628,16.57724 -2.06466,19.49819 -0.37694,0.37693 -0.68534,1.30415 -0.68534,2.06048 0,0.75633 -0.88305,2.32299 -1.96233,3.48146 -1.73814,1.86568 -2.69952,2.03746 -8.41534,1.50371 -4.6715,-0.43623 -6.74918,-0.24573 -7.5258,0.69004 -2.50122,3.01379 -9.4349,3.36628 -70.16026,3.56681 -54.99792,0.18162 -61.70331,0.0351 -62.87245,-1.3736 z"
     style="fill:#000000" />
</svg>
