  0
SECTION
  2
HEADER
  9
$ACADVER
  1
AC1009
  9
$FILLMODE
 70
 0
  9
$SPLFRAME
 70
 1
  9
$EXTMIN
 10
0
 20
0
 30
0.0
  9
$EXTMAX
 10
41.6667
 20
41.6667
 30
0.0
  0
ENDSEC
  0
SECTION
  2
TABLES
  0
TABLE
  2
LAYER
 70
1
  0
LAYER
  2
0
 70
     0
 62
     7
  6
CONTINUOUS
  0
ENDTAB
  0
ENDSEC
  0
SECTION
  2
ENTITIES
  0
LINE
  8
0
 62
     0
 10
1.09853
 20
0.0182835
 30
0.0
 11
1.09652
 21
0.0207249
 31
0.0
  0
LINE
  8
0
 62
     0
 10
1.09652
 20
0.0207249
 30
0.0
 11
1.08816
 21
0.0260417
 31
0.0
  0
LINE
  8
0
 62
     0
 10
1.08816
 20
0.0260417
 30
0.0
 11
1.07123
 21
0.0310872
 31
0.0
  0
LINE
  8
0
 62
     0
 10
1.07123
 20
0.0310872
 30
0.0
 11
1.04579
 21
0.0339085
 31
0.0
  0
LINE
  8
0
 62
     0
 10
1.04579
 20
0.0339085
 30
0.0
 11
1.01893
 21
0.0347222
 31
0.0
  0
LINE
  8
0
 62
     0
 10
1.01893
 20
0.0347222
 30
0.0
 11
1.00998
 21
0.0347222
 31
0.0
  0
LINE
  8
0
 62
     0
 10
1.00998
 20
0.0347222
 30
0.0
 11
0.992458
 21
0.0347222
 31
0.0
  0
LINE
  8
0
 62
     0
 10
0.992458
 20
0.0347222
 30
0.0
 11
0.939887
 21
0.0395508
 31
0.0
  0
LINE
  8
0
 62
     0
 10
0.939887
 20
0.0395508
 30
0.0
 11
0.890136
 21
0.0550672
 31
0.0
  0
LINE
  8
0
 62
     0
 10
0.890136
 20
0.0550672
 30
0.0
 11
0.857314
 21
0.0830078
 31
0.0
  0
LINE
  8
0
 62
     0
 10
0.857314
 20
0.0830078
 30
0.0
 11
0.841092
 21
0.114149
 31
0.0
  0
LINE
  8
0
 62
     0
 10
0.841092
 20
0.114149
 30
0.0
 11
0.838162
 21
0.125163
 31
0.0
  0
LINE
  8
0
 62
     0
 10
0.838162
 20
0.125163
 30
0.0
 11
0.836262
 21
0.132107
 31
0.0
  0
LINE
  8
0
 62
     0
 10
0.836262
 20
0.132107
 30
0.0
 11
0.832249
 21
0.156196
 31
0.0
  0
LINE
  8
0
 62
     0
 10
0.832249
 20
0.156196
 30
0.0
 11
0.826172
 21
0.203504
 31
0.0
  0
LINE
  8
0
 62
     0
 10
0.826172
 20
0.203504
 30
0.0
 11
0.820583
 21
0.260633
 31
0.0
  0
LINE
  8
0
 62
     0
 10
0.820583
 20
0.260633
 30
0.0
 11
0.817165
 21
0.306044
 31
0.0
  0
LINE
  8
0
 62
     0
 10
0.817165
 20
0.306044
 30
0.0
 11
0.816351
 21
0.321181
 31
0.0
  0
LINE
  8
0
 62
     0
 10
0.816351
 20
0.321181
 30
0.0
 11
0.814942
 21
0.345921
 31
0.0
  0
LINE
  8
0
 62
     0
 10
0.814942
 20
0.345921
 30
0.0
 11
0.809842
 21
0.419976
 31
0.0
  0
LINE
  8
0
 62
     0
 10
0.809842
 20
0.419976
 30
0.0
 11
0.803006
 21
0.490614
 31
0.0
  0
LINE
  8
0
 62
     0
 10
0.803006
 20
0.490614
 30
0.0
 11
0.795085
 21
0.539063
 31
0.0
  0
LINE
  8
0
 62
     0
 10
0.795085
 20
0.539063
 30
0.0
 11
0.788519
 21
0.563531
 31
0.0
  0
LINE
  8
0
 62
     0
 10
0.788519
 20
0.563531
 30
0.0
 11
0.785319
 21
0.571181
 31
0.0
  0
LINE
  8
0
 62
     0
 10
0.785319
 20
0.571181
 30
0.0
 11
0.784071
 21
0.574056
 31
0.0
  0
LINE
  8
0
 62
     0
 10
0.784071
 20
0.574056
 30
0.0
 11
0.781467
 21
0.587022
 31
0.0
  0
LINE
  8
0
 62
     0
 10
0.781467
 20
0.587022
 30
0.0
 11
0.777507
 21
0.614692
 31
0.0
  0
LINE
  8
0
 62
     0
 10
0.777507
 20
0.614692
 30
0.0
 11
0.773872
 21
0.650282
 31
0.0
  0
LINE
  8
0
 62
     0
 10
0.773872
 20
0.650282
 30
0.0
 11
0.771647
 21
0.680012
 31
0.0
  0
LINE
  8
0
 62
     0
 10
0.771647
 20
0.680012
 30
0.0
 11
0.771104
 21
0.689888
 31
0.0
  0
LINE
  8
0
 62
     0
 10
0.771104
 20
0.689888
 30
0.0
 11
0.770562
 21
0.699653
 31
0.0
  0
LINE
  8
0
 62
     0
 10
0.770562
 20
0.699653
 30
0.0
 11
0.768121
 21
0.728787
 31
0.0
  0
LINE
  8
0
 62
     0
 10
0.768121
 20
0.728787
 30
0.0
 11
0.763997
 21
0.762261
 31
0.0
  0
LINE
  8
0
 62
     0
 10
0.763997
 20
0.762261
 30
0.0
 11
0.759332
 21
0.786783
 31
0.0
  0
LINE
  8
0
 62
     0
 10
0.759332
 20
0.786783
 30
0.0
 11
0.756131
 21
0.797254
 31
0.0
  0
LINE
  8
0
 62
     0
 10
0.756131
 20
0.797254
 30
0.0
 11
0.754665
 21
0.798719
 31
0.0
  0
LINE
  8
0
 62
     0
 10
0.754665
 20
0.798719
 30
0.0
 11
0.753147
 21
0.800239
 31
0.0
  0
LINE
  8
0
 62
     0
 10
0.753147
 20
0.800239
 30
0.0
 11
0.746853
 21
0.811903
 31
0.0
  0
LINE
  8
0
 62
     0
 10
0.746853
 20
0.811903
 30
0.0
 11
0.743653
 21
0.823947
 31
0.0
  0
LINE
  8
0
 62
     0
 10
0.743653
 20
0.823947
 30
0.0
 11
0.743653
 21
0.827963
 31
0.0
  0
LINE
  8
0
 62
     0
 10
0.743653
 20
0.827963
 30
0.0
 11
0.743653
 21
0.833225
 31
0.0
  0
LINE
  8
0
 62
     0
 10
0.743653
 20
0.833225
 30
0.0
 11
0.73291
 21
0.849012
 31
0.0
  0
LINE
  8
0
 62
     0
 10
0.73291
 20
0.849012
 30
0.0
 11
0.712185
 21
0.870171
 31
0.0
  0
LINE
  8
0
 62
     0
 10
0.712185
 20
0.870171
 30
0.0
 11
0.707194
 21
0.873969
 31
0.0
  0
LINE
  8
0
 62
     0
 10
0.707194
 20
0.873969
 30
0.0
 11
0.701986
 21
0.877983
 31
0.0
  0
LINE
  8
0
 62
     0
 10
0.701986
 20
0.877983
 30
0.0
 11
0.687067
 21
0.890788
 31
0.0
  0
LINE
  8
0
 62
     0
 10
0.687067
 20
0.890788
 30
0.0
 11
0.676161
 21
0.906521
 31
0.0
  0
LINE
  8
0
 62
     0
 10
0.676161
 20
0.906521
 30
0.0
 11
0.671604
 21
0.927789
 31
0.0
  0
LINE
  8
0
 62
     0
 10
0.671604
 20
0.927789
 30
0.0
 11
0.670736
 21
0.952854
 31
0.0
  0
LINE
  8
0
 62
     0
 10
0.670736
 20
0.952854
 30
0.0
 11
0.670736
 21
0.961208
 31
0.0
  0
LINE
  8
0
 62
     0
 10
0.670736
 20
0.961208
 30
0.0
 11
0.670736
 21
0.969021
 31
0.0
  0
LINE
  8
0
 62
     0
 10
0.670736
 20
0.969021
 30
0.0
 11
0.669706
 21
0.992404
 31
0.0
  0
LINE
  8
0
 62
     0
 10
0.669706
 20
0.992404
 30
0.0
 11
0.665961
 21
1.01405
 31
0.0
  0
LINE
  8
0
 62
     0
 10
0.665961
 20
1.01405
 30
0.0
 11
0.658203
 21
1.03017
 31
0.0
  0
LINE
  8
0
 62
     0
 10
0.658203
 20
1.03017
 30
0.0
 11
0.648762
 21
1.04134
 31
0.0
  0
LINE
  8
0
 62
     0
 10
0.648762
 20
1.04134
 30
0.0
 11
0.645236
 21
1.04465
 31
0.0
  0
LINE
  8
0
 62
     0
 10
0.645236
 20
1.04465
 30
0.0
 11
0.64171
 21
1.04796
 31
0.0
  0
LINE
  8
0
 62
     0
 10
0.64171
 20
1.04796
 30
0.0
 11
0.625325
 21
1.0702
 31
0.0
  0
LINE
  8
0
 62
     0
 10
0.625325
 20
1.0702
 30
0.0
 11
0.614204
 21
1.0938
 31
0.0
  0
LINE
  8
0
 62
     0
 10
0.614204
 20
1.0938
 30
0.0
 11
0.613336
 21
1.09782
 31
0.0
  0
LINE
  8
0
 62
     0
 10
0.613336
 20
1.09782
 30
0.0
 11
0.611654
 21
1.10536
 31
0.0
  0
LINE
  8
0
 62
     0
 10
0.611654
 20
1.10536
 30
0.0
 11
0.594889
 21
1.13536
 31
0.0
  0
LINE
  8
0
 62
     0
 10
0.594889
 20
1.13536
 30
0.0
 11
0.562771
 21
1.15983
 31
0.0
  0
LINE
  8
0
 62
     0
 10
0.562771
 20
1.15983
 30
0.0
 11
0.55344
 21
1.16455
 31
0.0
  0
LINE
  8
0
 62
     0
 10
0.55344
 20
1.16455
 30
0.0
 11
0.550456
 21
1.16607
 31
0.0
  0
LINE
  8
0
 62
     0
 10
0.550456
 20
1.16607
 30
0.0
 11
0.534179
 21
1.18414
 31
0.0
  0
LINE
  8
0
 62
     0
 10
0.534179
 20
1.18414
 30
0.0
 11
0.519911
 21
1.2105
 31
0.0
  0
LINE
  8
0
 62
     0
 10
0.519911
 20
1.2105
 30
0.0
 11
0.518013
 21
1.21609
 31
0.0
  0
LINE
  8
0
 62
     0
 10
0.518013
 20
1.21609
 30
0.0
 11
0.516222
 21
1.2213
 31
0.0
  0
LINE
  8
0
 62
     0
 10
0.516222
 20
1.2213
 30
0.0
 11
0.509278
 21
1.23622
 31
0.0
  0
LINE
  8
0
 62
     0
 10
0.509278
 20
1.23622
 30
0.0
 11
0.495876
 21
1.26074
 31
0.0
  0
LINE
  8
0
 62
     0
 10
0.495876
 20
1.26074
 30
0.0
 11
0.479656
 21
1.28668
 31
0.0
  0
LINE
  8
0
 62
     0
 10
0.479656
 20
1.28668
 30
0.0
 11
0.466906
 21
1.30496
 31
0.0
  0
LINE
  8
0
 62
     0
 10
0.466906
 20
1.30496
 30
0.0
 11
0.462403
 21
1.31082
 31
0.0
  0
LINE
  8
0
 62
     0
 10
0.462403
 20
1.31082
 30
0.0
 11
0.456976
 21
1.31782
 31
0.0
  0
LINE
  8
0
 62
     0
 10
0.456976
 20
1.31782
 30
0.0
 11
0.441678
 21
1.33957
 31
0.0
  0
LINE
  8
0
 62
     0
 10
0.441678
 20
1.33957
 30
0.0
 11
0.428928
 21
1.3629
 31
0.0
  0
LINE
  8
0
 62
     0
 10
0.428928
 20
1.3629
 30
0.0
 11
0.422472
 21
1.38482
 31
0.0
  0
LINE
  8
0
 62
     0
 10
0.422472
 20
1.38482
 30
0.0
 11
0.420736
 21
1.4031
 31
0.0
  0
LINE
  8
0
 62
     0
 10
0.420736
 20
1.4031
 30
0.0
 11
0.420736
 21
1.40918
 31
0.0
  0
LINE
  8
0
 62
     0
 10
0.420736
 20
1.40918
 30
0.0
 11
0.420736
 21
1.42003
 31
0.0
  0
LINE
  8
0
 62
     0
 10
0.420736
 20
1.42003
 30
0.0
 11
0.413954
 21
1.45253
 31
0.0
  0
LINE
  8
0
 62
     0
 10
0.413954
 20
1.45253
 30
0.0
 11
0.3954
 21
1.48562
 31
0.0
  0
LINE
  8
0
 62
     0
 10
0.3954
 20
1.48562
 30
0.0
 11
0.389486
 21
1.49306
 31
0.0
  0
LINE
  8
0
 62
     0
 10
0.389486
 20
1.49306
 30
0.0
 11
0.3852
 21
1.49849
 31
0.0
  0
LINE
  8
0
 62
     0
 10
0.3852
 20
1.49849
 30
0.0
 11
0.367404
 21
1.52388
 31
0.0
  0
LINE
  8
0
 62
     0
 10
0.367404
 20
1.52388
 30
0.0
 11
0.358236
 21
1.53782
 31
0.0
  0
LINE
  8
0
 62
     0
 10
0.358236
 20
1.53782
 30
0.0
 11
0.358236
 21
1.54243
 31
0.0
  0
LINE
  8
0
 62
     0
 10
0.358236
 20
1.54243
 30
0.0
 11
0.358236
 21
1.54449
 31
0.0
  0
LINE
  8
0
 62
     0
 10
0.358236
 20
1.54449
 30
0.0
 11
0.355849
 21
1.55062
 31
0.0
  0
LINE
  8
0
 62
     0
 10
0.355849
 20
1.55062
 30
0.0
 11
0.347657
 21
1.56375
 31
0.0
  0
LINE
  8
0
 62
     0
 10
0.347657
 20
1.56375
 30
0.0
 11
0.33176
 21
1.58442
 31
0.0
  0
LINE
  8
0
 62
     0
 10
0.33176
 20
1.58442
 30
0.0
 11
0.312771
 21
1.60742
 31
0.0
  0
LINE
  8
0
 62
     0
 10
0.312771
 20
1.60742
 30
0.0
 11
0.306369
 21
1.61501
 31
0.0
  0
LINE
  8
0
 62
     0
 10
0.306369
 20
1.61501
 30
0.0
 11
0.304904
 21
1.61675
 31
0.0
  0
LINE
  8
0
 62
     0
 10
0.304904
 20
1.61675
 30
0.0
 11
0.298828
 21
1.63075
 31
0.0
  0
LINE
  8
0
 62
     0
 10
0.298828
 20
1.63075
 30
0.0
 11
0.295736
 21
1.64589
 31
0.0
  0
LINE
  8
0
 62
     0
 10
0.295736
 20
1.64589
 30
0.0
 11
0.295736
 21
1.65087
 31
0.0
  0
LINE
  8
0
 62
     0
 10
0.295736
 20
1.65087
 30
0.0
 11
0.295736
 21
1.6569
 31
0.0
  0
LINE
  8
0
 62
     0
 10
0.295736
 20
1.6569
 30
0.0
 11
0.287869
 21
1.67486
 31
0.0
  0
LINE
  8
0
 62
     0
 10
0.287869
 20
1.67486
 30
0.0
 11
0.268772
 21
1.70171
 31
0.0
  0
LINE
  8
0
 62
     0
 10
0.268772
 20
1.70171
 30
0.0
 11
0.245063
 21
1.72385
 31
0.0
  0
LINE
  8
0
 62
     0
 10
0.245063
 20
1.72385
 30
0.0
 11
0.22895
 21
1.73329
 31
0.0
  0
LINE
  8
0
 62
     0
 10
0.22895
 20
1.73329
 30
0.0
 11
0.223469
 21
1.73361
 31
0.0
  0
LINE
  8
0
 62
     0
 10
0.223469
 20
1.73361
 30
0.0
 11
0.221192
 21
1.73378
 31
0.0
  0
LINE
  8
0
 62
     0
 10
0.221192
 20
1.73378
 30
0.0
 11
0.213921
 21
1.73768
 31
0.0
  0
LINE
  8
0
 62
     0
 10
0.213921
 20
1.73768
 30
0.0
 11
0.200032
 21
1.74789
 31
0.0
  0
LINE
  8
0
 62
     0
 10
0.200032
 20
1.74789
 30
0.0
 11
0.183649
 21
1.76269
 31
0.0
  0
LINE
  8
0
 62
     0
 10
0.183649
 20
1.76269
 30
0.0
 11
0.170736
 21
1.77604
 31
0.0
  0
LINE
  8
0
 62
     0
 10
0.170736
 20
1.77604
 30
0.0
 11
0.166667
 21
1.78065
 31
0.0
  0
LINE
  8
0
 62
     0
 10
0.166667
 20
1.78065
 30
0.0
 11
0.160644
 21
1.78749
 31
0.0
  0
LINE
  8
0
 62
     0
 10
0.160644
 20
1.78749
 30
0.0
 11
0.143283
 21
1.80865
 31
0.0
  0
LINE
  8
0
 62
     0
 10
0.143283
 20
1.80865
 30
0.0
 11
0.131131
 21
1.83242
 31
0.0
  0
LINE
  8
0
 62
     0
 10
0.131131
 20
1.83242
 30
0.0
 11
0.126411
 21
1.86458
 31
0.0
  0
LINE
  8
0
 62
     0
 10
0.126411
 20
1.86458
 30
0.0
 11
0.12538
 21
1.90446
 31
0.0
  0
LINE
  8
0
 62
     0
 10
0.12538
 20
1.90446
 30
0.0
 11
0.125271
 21
1.91769
 31
0.0
  0
LINE
  8
0
 62
     0
 10
0.125271
 20
1.91769
 30
0.0
 11
0.125054
 21
1.94032
 31
0.0
  0
LINE
  8
0
 62
     0
 10
0.125054
 20
1.94032
 30
0.0
 11
0.125922
 21
2.00825
 31
0.0
  0
LINE
  8
0
 62
     0
 10
0.125922
 20
2.00825
 30
0.0
 11
0.128798
 21
2.13417
 31
0.0
  0
LINE
  8
0
 62
     0
 10
0.128798
 20
2.13417
 30
0.0
 11
0.133301
 21
2.28114
 31
0.0
  0
LINE
  8
0
 62
     0
 10
0.133301
 20
2.28114
 30
0.0
 11
0.138889
 21
2.43474
 31
0.0
  0
LINE
  8
0
 62
     0
 10
0.138889
 20
2.43474
 30
0.0
 11
0.145019
 21
2.58068
 31
0.0
  0
LINE
  8
0
 62
     0
 10
0.145019
 20
2.58068
 30
0.0
 11
0.15115
 21
2.70458
 31
0.0
  0
LINE
  8
0
 62
     0
 10
0.15115
 20
2.70458
 30
0.0
 11
0.156629
 21
2.7921
 31
0.0
  0
LINE
  8
0
 62
     0
 10
0.156629
 20
2.7921
 30
0.0
 11
0.158637
 21
2.82443
 31
0.0
  0
LINE
  8
0
 62
     0
 10
0.158637
 20
2.82443
 30
0.0
 11
0.161025
 21
2.82883
 31
0.0
  0
LINE
  8
0
 62
     0
 10
0.161025
 20
2.82883
 30
0.0
 11
0.162326
 21
2.83132
 31
0.0
  0
LINE
  8
0
 62
     0
 10
0.162326
 20
2.83132
 30
0.0
 11
0.164768
 21
2.84364
 31
0.0
  0
LINE
  8
0
 62
     0
 10
0.164768
 20
2.84364
 30
0.0
 11
0.16786
 21
2.87039
 31
0.0
  0
LINE
  8
0
 62
     0
 10
0.16786
 20
2.87039
 30
0.0
 11
0.169922
 21
2.90539
 31
0.0
  0
LINE
  8
0
 62
     0
 10
0.169922
 20
2.90539
 30
0.0
 11
0.170736
 21
2.93494
 31
0.0
  0
LINE
  8
0
 62
     0
 10
0.170736
 20
2.93494
 30
0.0
 11
0.170736
 21
2.94476
 31
0.0
  0
LINE
  8
0
 62
     0
 10
0.170736
 20
2.94476
 30
0.0
 11
0.170736
 21
2.95643
 31
0.0
  0
LINE
  8
0
 62
     0
 10
0.170736
 20
2.95643
 30
0.0
 11
0.171496
 21
2.99143
 31
0.0
  0
LINE
  8
0
 62
     0
 10
0.171496
 20
2.99143
 30
0.0
 11
0.174046
 21
3.02376
 31
0.0
  0
LINE
  8
0
 62
     0
 10
0.174046
 20
3.02376
 30
0.0
 11
0.178765
 21
3.04422
 31
0.0
  0
LINE
  8
0
 62
     0
 10
0.178765
 20
3.04422
 30
0.0
 11
0.183485
 21
3.05317
 31
0.0
  0
LINE
  8
0
 62
     0
 10
0.183485
 20
3.05317
 30
0.0
 11
0.185872
 21
3.05512
 31
0.0
  0
LINE
  8
0
 62
     0
 10
0.185872
 20
3.05512
 30
0.0
 11
0.188151
 21
3.05701
 31
0.0
  0
LINE
  8
0
 62
     0
 10
0.188151
 20
3.05701
 30
0.0
 11
0.1977
 21
3.08046
 31
0.0
  0
LINE
  8
0
 62
     0
 10
0.1977
 20
3.08046
 30
0.0
 11
0.203614
 21
3.11783
 31
0.0
  0
LINE
  8
0
 62
     0
 10
0.203614
 20
3.11783
 30
0.0
 11
0.204101
 21
3.12674
 31
0.0
  0
LINE
  8
0
 62
     0
 10
0.204101
 20
3.12674
 30
0.0
 11
0.204482
 21
3.13488
 31
0.0
  0
LINE
  8
0
 62
     0
 10
0.204482
 20
3.13488
 30
0.0
 11
0.206489
 21
3.15918
 31
0.0
  0
LINE
  8
0
 62
     0
 10
0.206489
 20
3.15918
 30
0.0
 11
0.210829
 21
3.17731
 31
0.0
  0
LINE
  8
0
 62
     0
 10
0.210829
 20
3.17731
 30
0.0
 11
0.219293
 21
3.18571
 31
0.0
  0
LINE
  8
0
 62
     0
 10
0.219293
 20
3.18571
 30
0.0
 11
0.230414
 21
3.18847
 31
0.0
  0
LINE
  8
0
 62
     0
 10
0.230414
 20
3.18847
 30
0.0
 11
0.234213
 21
3.18892
 31
0.0
  0
LINE
  8
0
 62
     0
 10
0.234213
 20
3.18892
 30
0.0
 11
0.237793
 21
3.18935
 31
0.0
  0
LINE
  8
0
 62
     0
 10
0.237793
 20
3.18935
 30
0.0
 11
0.248535
 21
3.19243
 31
0.0
  0
LINE
  8
0
 62
     0
 10
0.248535
 20
3.19243
 30
0.0
 11
0.258464
 21
3.20085
 31
0.0
  0
LINE
  8
0
 62
     0
 10
0.258464
 20
3.20085
 30
0.0
 11
0.266004
 21
3.21724
 31
0.0
  0
LINE
  8
0
 62
     0
 10
0.266004
 20
3.21724
 30
0.0
 11
0.271701
 21
3.23753
 31
0.0
  0
LINE
  8
0
 62
     0
 10
0.271701
 20
3.23753
 30
0.0
 11
0.273275
 21
3.24436
 31
0.0
  0
LINE
  8
0
 62
     0
 10
0.273275
 20
3.24436
 30
0.0
 11
0.274903
 21
3.25157
 31
0.0
  0
LINE
  8
0
 62
     0
 10
0.274903
 20
3.25157
 30
0.0
 11
0.281739
 21
3.28711
 31
0.0
  0
LINE
  8
0
 62
     0
 10
0.281739
 20
3.28711
 30
0.0
 11
0.285319
 21
3.30903
 31
0.0
  0
LINE
  8
0
 62
     0
 10
0.285319
 20
3.30903
 30
0.0
 11
0.285319
 21
3.31629
 31
0.0
  0
LINE
  8
0
 62
     0
 10
0.285319
 20
3.31629
 30
0.0
 11
0.285319
 21
3.32064
 31
0.0
  0
LINE
  8
0
 62
     0
 10
0.285319
 20
3.32064
 30
0.0
 11
0.293674
 21
3.3335
 31
0.0
  0
LINE
  8
0
 62
     0
 10
0.293674
 20
3.3335
 30
0.0
 11
0.316949
 21
3.34967
 31
0.0
  0
LINE
  8
0
 62
     0
 10
0.316949
 20
3.34967
 30
0.0
 11
0.352214
 21
3.36344
 31
0.0
  0
LINE
  8
0
 62
     0
 10
0.352214
 20
3.36344
 30
0.0
 11
0.385471
 21
3.37158
 31
0.0
  0
LINE
  8
0
 62
     0
 10
0.385471
 20
3.37158
 30
0.0
 11
0.396701
 21
3.37332
 31
0.0
  0
LINE
  8
0
 62
     0
 10
0.396701
 20
3.37332
 30
0.0
 11
0.402669
 21
3.37429
 31
0.0
  0
LINE
  8
0
 62
     0
 10
0.402669
 20
3.37429
 30
0.0
 11
0.431153
 21
3.38249
 31
0.0
  0
LINE
  8
0
 62
     0
 10
0.431153
 20
3.38249
 30
0.0
 11
0.450956
 21
3.3929
 31
0.0
  0
LINE
  8
0
 62
     0
 10
0.450956
 20
3.3929
 30
0.0
 11
0.452692
 21
3.39492
 31
0.0
  0
LINE
  8
0
 62
     0
 10
0.452692
 20
3.39492
 30
0.0
 11
0.454372
 21
3.39697
 31
0.0
  0
LINE
  8
0
 62
     0
 10
0.454372
 20
3.39697
 30
0.0
 11
0.466581
 21
3.40539
 31
0.0
  0
LINE
  8
0
 62
     0
 10
0.466581
 20
3.40539
 30
0.0
 11
0.478787
 21
3.40972
 31
0.0
  0
LINE
  8
0
 62
     0
 10
0.478787
 20
3.40972
 30
0.0
 11
0.48291
 21
3.40972
 31
0.0
  0
LINE
  8
0
 62
     0
 10
0.48291
 20
3.40972
 30
0.0
 11
0.487414
 21
3.40972
 31
0.0
  0
LINE
  8
0
 62
     0
 10
0.487414
 20
3.40972
 30
0.0
 11
0.501085
 21
3.41585
 31
0.0
  0
LINE
  8
0
 62
     0
 10
0.501085
 20
3.41585
 30
0.0
 11
0.51709
 21
3.42774
 31
0.0
  0
LINE
  8
0
 62
     0
 10
0.51709
 20
3.42774
 30
0.0
 11
0.519694
 21
3.43056
 31
0.0
  0
LINE
  8
0
 62
     0
 10
0.519694
 20
3.43056
 30
0.0
 11
0.522244
 21
3.43343
 31
0.0
  0
LINE
  8
0
 62
     0
 10
0.522244
 20
3.43343
 30
0.0
 11
0.535807
 21
3.44532
 31
0.0
  0
LINE
  8
0
 62
     0
 10
0.535807
 20
3.44532
 30
0.0
 11
0.545031
 21
3.45139
 31
0.0
  0
LINE
  8
0
 62
     0
 10
0.545031
 20
3.45139
 30
0.0
 11
0.548122
 21
3.45139
 31
0.0
  0
LINE
  8
0
 62
     0
 10
0.548122
 20
3.45139
 30
0.0
 11
0.551215
 21
3.45139
 31
0.0
  0
LINE
  8
0
 62
     0
 10
0.551215
 20
3.45139
 30
0.0
 11
0.560547
 21
3.45747
 31
0.0
  0
LINE
  8
0
 62
     0
 10
0.560547
 20
3.45747
 30
0.0
 11
0.581651
 21
3.47364
 31
0.0
  0
LINE
  8
0
 62
     0
 10
0.581651
 20
3.47364
 30
0.0
 11
0.60829
 21
3.49685
 31
0.0
  0
LINE
  8
0
 62
     0
 10
0.60829
 20
3.49685
 30
0.0
 11
0.637261
 21
3.52393
 31
0.0
  0
LINE
  8
0
 62
     0
 10
0.637261
 20
3.52393
 30
0.0
 11
0.66531
 21
3.55192
 31
0.0
  0
LINE
  8
0
 62
     0
 10
0.66531
 20
3.55192
 30
0.0
 11
0.689344
 21
3.57764
 31
0.0
  0
LINE
  8
0
 62
     0
 10
0.689344
 20
3.57764
 30
0.0
 11
0.706108
 21
3.59804
 31
0.0
  0
LINE
  8
0
 62
     0
 10
0.706108
 20
3.59804
 30
0.0
 11
0.712403
 21
3.60704
 31
0.0
  0
LINE
  8
0
 62
     0
 10
0.712403
 20
3.60704
 30
0.0
 11
0.712403
 21
3.61003
 31
0.0
  0
LINE
  8
0
 62
     0
 10
0.712403
 20
3.61003
 30
0.0
 11
0.712403
 21
3.61333
 31
0.0
  0
LINE
  8
0
 62
     0
 10
0.712403
 20
3.61333
 30
0.0
 11
0.715007
 21
3.6231
 31
0.0
  0
LINE
  8
0
 62
     0
 10
0.715007
 20
3.6231
 30
0.0
 11
0.719781
 21
3.62847
 31
0.0
  0
LINE
  8
0
 62
     0
 10
0.719781
 20
3.62847
 30
0.0
 11
0.721408
 21
3.62847
 31
0.0
  0
LINE
  8
0
 62
     0
 10
0.721408
 20
3.62847
 30
0.0
 11
0.725097
 21
3.62847
 31
0.0
  0
LINE
  8
0
 62
     0
 10
0.725097
 20
3.62847
 30
0.0
 11
0.736219
 21
3.64074
 31
0.0
  0
LINE
  8
0
 62
     0
 10
0.736219
 20
3.64074
 30
0.0
 11
0.755317
 21
3.66444
 31
0.0
  0
LINE
  8
0
 62
     0
 10
0.755317
 20
3.66444
 30
0.0
 11
0.759278
 21
3.67014
 31
0.0
  0
LINE
  8
0
 62
     0
 10
0.759278
 20
3.67014
 30
0.0
 11
0.763237
 21
3.67589
 31
0.0
  0
LINE
  8
0
 62
     0
 10
0.763237
 20
3.67589
 30
0.0
 11
0.784179
 21
3.6996
 31
0.0
  0
LINE
  8
0
 62
     0
 10
0.784179
 20
3.6996
 30
0.0
 11
0.798665
 21
3.71181
 31
0.0
  0
LINE
  8
0
 62
     0
 10
0.798665
 20
3.71181
 30
0.0
 11
0.803549
 21
3.71181
 31
0.0
  0
LINE
  8
0
 62
     0
 10
0.803549
 20
3.71181
 30
0.0
 11
0.810656
 21
3.71181
 31
0.0
  0
LINE
  8
0
 62
     0
 10
0.810656
 20
3.71181
 30
0.0
 11
0.832086
 21
3.72521
 31
0.0
  0
LINE
  8
0
 62
     0
 10
0.832086
 20
3.72521
 30
0.0
 11
0.873047
 21
3.75786
 31
0.0
  0
LINE
  8
0
 62
     0
 10
0.873047
 20
3.75786
 30
0.0
 11
0.914117
 21
3.79883
 31
0.0
  0
LINE
  8
0
 62
     0
 10
0.914117
 20
3.79883
 30
0.0
 11
0.937121
 21
3.82676
 31
0.0
  0
LINE
  8
0
 62
     0
 10
0.937121
 20
3.82676
 30
0.0
 11
0.942979
 21
3.83708
 31
0.0
  0
LINE
  8
0
 62
     0
 10
0.942979
 20
3.83708
 30
0.0
 11
0.946235
 21
3.84293
 31
0.0
  0
LINE
  8
0
 62
     0
 10
0.946235
 20
3.84293
 30
0.0
 11
0.965386
 21
3.86692
 31
0.0
  0
LINE
  8
0
 62
     0
 10
0.965386
 20
3.86692
 30
0.0
 11
0.984321
 21
3.88015
 31
0.0
  0
LINE
  8
0
 62
     0
 10
0.984321
 20
3.88015
 30
0.0
 11
0.987468
 21
3.88058
 31
0.0
  0
LINE
  8
0
 62
     0
 10
0.987468
 20
3.88058
 30
0.0
 11
0.991482
 21
3.88118
 31
0.0
  0
LINE
  8
0
 62
     0
 10
0.991482
 20
3.88118
 30
0.0
 11
1.00564
 21
3.89117
 31
0.0
  0
LINE
  8
0
 62
     0
 10
1.00564
 20
3.89117
 30
0.0
 11
1.01389
 21
3.91347
 31
0.0
  0
LINE
  8
0
 62
     0
 10
1.01389
 20
3.91347
 30
0.0
 11
1.01497
 21
3.92014
 31
0.0
  0
LINE
  8
0
 62
     0
 10
1.01497
 20
3.92014
 30
0.0
 11
1.01633
 21
3.92914
 31
0.0
  0
LINE
  8
0
 62
     0
 10
1.01633
 20
3.92914
 30
0.0
 11
1.02355
 21
3.95568
 31
0.0
  0
LINE
  8
0
 62
     0
 10
1.02355
 20
3.95568
 30
0.0
 11
1.03733
 21
3.99203
 31
0.0
  0
LINE
  8
0
 62
     0
 10
1.03733
 20
3.99203
 30
0.0
 11
1.0536
 21
4.02328
 31
0.0
  0
LINE
  8
0
 62
     0
 10
1.0536
 20
4.02328
 30
0.0
 11
1.06483
 21
4.03939
 31
0.0
  0
LINE
  8
0
 62
     0
 10
1.06483
 20
4.03939
 30
0.0
 11
1.06972
 21
4.0434
 31
0.0
  0
LINE
  8
0
 62
     0
 10
1.06972
 20
4.0434
 30
0.0
 11
1.07199
 21
4.04536
 31
0.0
  0
LINE
  8
0
 62
     0
 10
1.07199
 20
4.04536
 30
0.0
 11
1.08236
 21
4.07497
 31
0.0
  0
LINE
  8
0
 62
     0
 10
1.08236
 20
4.07497
 30
0.0
 11
1.09039
 21
4.12728
 31
0.0
  0
LINE
  8
0
 62
     0
 10
1.09039
 20
4.12728
 30
0.0
 11
1.09152
 21
4.14051
 31
0.0
  0
LINE
  8
0
 62
     0
 10
1.09152
 20
4.14051
 30
0.0
 11
1.09223
 21
4.14899
 31
0.0
  0
LINE
  8
0
 62
     0
 10
1.09223
 20
4.14899
 30
0.0
 11
1.09473
 21
4.17432
 31
0.0
  0
LINE
  8
0
 62
     0
 10
1.09473
 20
4.17432
 30
0.0
 11
1.09831
 21
4.20344
 31
0.0
  0
LINE
  8
0
 62
     0
 10
1.09831
 20
4.20344
 30
0.0
 11
1.10183
 21
4.22493
 31
0.0
  0
LINE
  8
0
 62
     0
 10
1.10183
 20
4.22493
 30
0.0
 11
1.10395
 21
4.2341
 31
0.0
  0
LINE
  8
0
 62
     0
 10
1.10395
 20
4.2341
 30
0.0
 11
1.10482
 21
4.23546
 31
0.0
  0
LINE
  8
0
 62
     0
 10
1.10482
 20
4.23546
 30
0.0
 11
1.10563
 21
4.23687
 31
0.0
  0
LINE
  8
0
 62
     0
 10
1.10563
 20
4.23687
 30
0.0
 11
1.10704
 21
4.25276
 31
0.0
  0
LINE
  8
0
 62
     0
 10
1.10704
 20
4.25276
 30
0.0
 11
1.10862
 21
4.29243
 31
0.0
  0
LINE
  8
0
 62
     0
 10
1.10862
 20
4.29243
 30
0.0
 11
1.10927
 21
4.34853
 31
0.0
  0
LINE
  8
0
 62
     0
 10
1.10927
 20
4.34853
 30
0.0
 11
1.10916
 21
4.39854
 31
0.0
  0
LINE
  8
0
 62
     0
 10
1.10916
 20
4.39854
 30
0.0
 11
1.109
 21
4.41515
 31
0.0
  0
LINE
  8
0
 62
     0
 10
1.109
 20
4.41515
 30
0.0
 11
1.10878
 21
4.43354
 31
0.0
  0
LINE
  8
0
 62
     0
 10
1.10878
 20
4.43354
 30
0.0
 11
1.10883
 21
4.48867
 31
0.0
  0
LINE
  8
0
 62
     0
 10
1.10883
 20
4.48867
 30
0.0
 11
1.11035
 21
4.54313
 31
0.0
  0
LINE
  8
0
 62
     0
 10
1.11035
 20
4.54313
 30
0.0
 11
1.11339
 21
4.57775
 31
0.0
  0
LINE
  8
0
 62
     0
 10
1.11339
 20
4.57775
 30
0.0
 11
1.11627
 21
4.59056
 31
0.0
  0
LINE
  8
0
 62
     0
 10
1.11627
 20
4.59056
 30
0.0
 11
1.11806
 21
4.59164
 31
0.0
  0
LINE
  8
0
 62
     0
 10
1.11806
 20
4.59164
 30
0.0
 11
1.11957
 21
4.59261
 31
0.0
  0
LINE
  8
0
 62
     0
 10
1.11957
 20
4.59261
 30
0.0
 11
1.12581
 21
4.61708
 31
0.0
  0
LINE
  8
0
 62
     0
 10
1.12581
 20
4.61708
 30
0.0
 11
1.12907
 21
4.65582
 31
0.0
  0
LINE
  8
0
 62
     0
 10
1.12907
 20
4.65582
 30
0.0
 11
1.12907
 21
4.66868
 31
0.0
  0
LINE
  8
0
 62
     0
 10
1.12907
 20
4.66868
 30
0.0
 11
1.12907
 21
4.68197
 31
0.0
  0
LINE
  8
0
 62
     0
 10
1.12907
 20
4.68197
 30
0.0
 11
1.13254
 21
4.72174
 31
0.0
  0
LINE
  8
0
 62
     0
 10
1.13254
 20
4.72174
 30
0.0
 11
1.13927
 21
4.74908
 31
0.0
  0
LINE
  8
0
 62
     0
 10
1.13927
 20
4.74908
 30
0.0
 11
1.1409
 21
4.75071
 31
0.0
  0
LINE
  8
0
 62
     0
 10
1.1409
 20
4.75071
 30
0.0
 11
1.14269
 21
4.75256
 31
0.0
  0
LINE
  8
0
 62
     0
 10
1.14269
 20
4.75256
 30
0.0
 11
1.14714
 21
4.76443
 31
0.0
  0
LINE
  8
0
 62
     0
 10
1.14714
 20
4.76443
 30
0.0
 11
1.14534
 21
4.77854
 31
0.0
  0
LINE
  8
0
 62
     0
 10
1.14534
 20
4.77854
 30
0.0
 11
1.14404
 21
4.78142
 31
0.0
  0
LINE
  8
0
 62
     0
 10
1.14404
 20
4.78142
 30
0.0
 11
1.14285
 21
4.78401
 31
0.0
  0
LINE
  8
0
 62
     0
 10
1.14285
 20
4.78401
 30
0.0
 11
1.13959
 21
4.79986
 31
0.0
  0
LINE
  8
0
 62
     0
 10
1.13959
 20
4.79986
 30
0.0
 11
1.13406
 21
4.8361
 31
0.0
  0
LINE
  8
0
 62
     0
 10
1.13406
 20
4.8361
 30
0.0
 11
1.12804
 21
4.88488
 31
0.0
  0
LINE
  8
0
 62
     0
 10
1.12804
 20
4.88488
 30
0.0
 11
1.12359
 21
4.92697
 31
0.0
  0
LINE
  8
0
 62
     0
 10
1.12359
 20
4.92697
 30
0.0
 11
1.12229
 21
4.94097
 31
0.0
  0
LINE
  8
0
 62
     0
 10
1.12229
 20
4.94097
 30
0.0
 11
1.11887
 21
4.97775
 31
0.0
  0
LINE
  8
0
 62
     0
 10
1.11887
 20
4.97775
 30
0.0
 11
1.10769
 21
5.08789
 31
0.0
  0
LINE
  8
0
 62
     0
 10
1.10769
 20
5.08789
 30
0.0
 11
1.09511
 21
5.18821
 31
0.0
  0
LINE
  8
0
 62
     0
 10
1.09511
 20
5.18821
 30
0.0
 11
1.0823
 21
5.25603
 31
0.0
  0
LINE
  8
0
 62
     0
 10
1.0823
 20
5.25603
 30
0.0
 11
1.07178
 21
5.29335
 31
0.0
  0
LINE
  8
0
 62
     0
 10
1.07178
 20
5.29335
 30
0.0
 11
1.06728
 21
5.30539
 31
0.0
  0
LINE
  8
0
 62
     0
 10
1.06728
 20
5.30539
 30
0.0
 11
1.06429
 21
5.31326
 31
0.0
  0
LINE
  8
0
 62
     0
 10
1.06429
 20
5.31326
 30
0.0
 11
1.05203
 21
5.35015
 31
0.0
  0
LINE
  8
0
 62
     0
 10
1.05203
 20
5.35015
 30
0.0
 11
1.04574
 21
5.37061
 31
0.0
  0
LINE
  8
0
 62
     0
 10
1.04574
 20
5.37061
 30
0.0
 11
1.04574
 21
5.37739
 31
0.0
  0
LINE
  8
0
 62
     0
 10
1.04574
 20
5.37739
 30
0.0
 11
1.04574
 21
5.38037
 31
0.0
  0
LINE
  8
0
 62
     0
 10
1.04574
 20
5.38037
 30
0.0
 11
1.0408
 21
5.38932
 31
0.0
  0
LINE
  8
0
 62
     0
 10
1.0408
 20
5.38932
 30
0.0
 11
1.02756
 21
5.40799
 31
0.0
  0
LINE
  8
0
 62
     0
 10
1.02756
 20
5.40799
 30
0.0
 11
1.00803
 21
5.43126
 31
0.0
  0
LINE
  8
0
 62
     0
 10
1.00803
 20
5.43126
 30
0.0
 11
0.984483
 21
5.45687
 31
0.0
  0
LINE
  8
0
 62
     0
 10
0.984483
 20
5.45687
 30
0.0
 11
0.958931
 21
5.48253
 31
0.0
  0
LINE
  8
0
 62
     0
 10
0.958931
 20
5.48253
 30
0.0
 11
0.933649
 21
5.50603
 31
0.0
  0
LINE
  8
0
 62
     0
 10
0.933649
 20
5.50603
 30
0.0
 11
0.910699
 21
5.52512
 31
0.0
  0
LINE
  8
0
 62
     0
 10
0.910699
 20
5.52512
 30
0.0
 11
0.897136
 21
5.535
 31
0.0
  0
LINE
  8
0
 62
     0
 10
0.897136
 20
5.535
 30
0.0
 11
0.892307
 21
5.5376
 31
0.0
  0
LINE
  8
0
 62
     0
 10
0.892307
 20
5.5376
 30
0.0
 11
0.887588
 21
5.54015
 31
0.0
  0
LINE
  8
0
 62
     0
 10
0.887588
 20
5.54015
 30
0.0
 11
0.868218
 21
5.55317
 31
0.0
  0
LINE
  8
0
 62
     0
 10
0.868218
 20
5.55317
 30
0.0
 11
0.858236
 21
5.56179
 31
0.0
  0
LINE
  8
0
 62
     0
 10
0.858236
 20
5.56179
 30
0.0
 11
0.858236
 21
5.56461
 31
0.0
  0
LINE
  8
0
 62
     0
 10
0.858236
 20
5.56461
 30
0.0
 11
0.858236
 21
5.5656
 31
0.0
  0
LINE
  8
0
 62
     0
 10
0.858236
 20
5.5656
 30
0.0
 11
0.856933
 21
5.56853
 31
0.0
  0
LINE
  8
0
 62
     0
 10
0.856933
 20
5.56853
 30
0.0
 11
0.851454
 21
5.57324
 31
0.0
  0
LINE
  8
0
 62
     0
 10
0.851454
 20
5.57324
 30
0.0
 11
0.839085
 21
5.57986
 31
0.0
  0
LINE
  8
0
 62
     0
 10
0.839085
 20
5.57986
 30
0.0
 11
0.817165
 21
5.58957
 31
0.0
  0
LINE
  8
0
 62
     0
 10
0.817165
 20
5.58957
 30
0.0
 11
0.783149
 21
5.60346
 31
0.0
  0
LINE
  8
0
 62
     0
 10
0.783149
 20
5.60346
 30
0.0
 11
0.734429
 21
5.62261
 31
0.0
  0
LINE
  8
0
 62
     0
 10
0.734429
 20
5.62261
 30
0.0
 11
0.668294
 21
5.64811
 31
0.0
  0
LINE
  8
0
 62
     0
 10
0.668294
 20
5.64811
 30
0.0
 11
0.603678
 21
5.67285
 31
0.0
  0
LINE
  8
0
 62
     0
 10
0.603678
 20
5.67285
 30
0.0
 11
0.582194
 21
5.68104
 31
0.0
  0
LINE
  8
0
 62
     0
 10
0.582194
 20
5.68104
 30
0.0
 11
0.562825
 21
5.68847
 31
0.0
  0
LINE
  8
0
 62
     0
 10
0.562825
 20
5.68847
 30
0.0
 11
0.505046
 21
5.71115
 31
0.0
  0
LINE
  8
0
 62
     0
 10
0.505046
 20
5.71115
 30
0.0
 11
0.441407
 21
5.73708
 31
0.0
  0
LINE
  8
0
 62
     0
 10
0.441407
 20
5.73708
 30
0.0
 11
0.397786
 21
5.75618
 31
0.0
  0
LINE
  8
0
 62
     0
 10
0.397786
 20
5.75618
 30
0.0
 11
0.381293
 21
5.76432
 31
0.0
  0
LINE
  8
0
 62
     0
 10
0.381293
 20
5.76432
 30
0.0
 11
0.380806
 21
5.76551
 31
0.0
  0
LINE
  8
0
 62
     0
 10
0.380806
 20
5.76551
 30
0.0
 11
0.380317
 21
5.76676
 31
0.0
  0
LINE
  8
0
 62
     0
 10
0.380317
 20
5.76676
 30
0.0
 11
0.372721
 21
5.77175
 31
0.0
  0
LINE
  8
0
 62
     0
 10
0.372721
 20
5.77175
 30
0.0
 11
0.361871
 21
5.77431
 31
0.0
  0
LINE
  8
0
 62
     0
 10
0.361871
 20
5.77431
 30
0.0
 11
0.35829
 21
5.77431
 31
0.0
  0
LINE
  8
0
 62
     0
 10
0.35829
 20
5.77431
 30
0.0
 11
0.349283
 21
5.77431
 31
0.0
  0
LINE
  8
0
 62
     0
 10
0.349283
 20
5.77431
 30
0.0
 11
0.322319
 21
5.78157
 31
0.0
  0
LINE
  8
0
 62
     0
 10
0.322319
 20
5.78157
 30
0.0
 11
0.275933
 21
5.79904
 31
0.0
  0
LINE
  8
0
 62
     0
 10
0.275933
 20
5.79904
 30
0.0
 11
0.23405
 21
5.82021
 31
0.0
  0
LINE
  8
0
 62
     0
 10
0.23405
 20
5.82021
 30
0.0
 11
0.214139
 21
5.83356
 31
0.0
  0
LINE
  8
0
 62
     0
 10
0.214139
 20
5.83356
 30
0.0
 11
0.211535
 21
5.83843
 31
0.0
  0
LINE
  8
0
 62
     0
 10
0.211535
 20
5.83843
 30
0.0
 11
0.210124
 21
5.8411
 31
0.0
  0
LINE
  8
0
 62
     0
 10
0.210124
 20
5.8411
 30
0.0
 11
0.200304
 21
5.85206
 31
0.0
  0
LINE
  8
0
 62
     0
 10
0.200304
 20
5.85206
 30
0.0
 11
0.190918
 21
5.85764
 31
0.0
  0
LINE
  8
0
 62
     0
 10
0.190918
 20
5.85764
 30
0.0
 11
0.187825
 21
5.85764
 31
0.0
  0
LINE
  8
0
 62
     0
 10
0.187825
 20
5.85764
 30
0.0
 11
0.183649
 21
5.85764
 31
0.0
  0
LINE
  8
0
 62
     0
 10
0.183649
 20
5.85764
 30
0.0
 11
0.171278
 21
5.86513
 31
0.0
  0
LINE
  8
0
 62
     0
 10
0.171278
 20
5.86513
 30
0.0
 11
0.1537
 21
5.87967
 31
0.0
  0
LINE
  8
0
 62
     0
 10
0.1537
 20
5.87967
 30
0.0
 11
0.150444
 21
5.88314
 31
0.0
  0
LINE
  8
0
 62
     0
 10
0.150444
 20
5.88314
 30
0.0
 11
0.147136
 21
5.88667
 31
0.0
  0
LINE
  8
0
 62
     0
 10
0.147136
 20
5.88667
 30
0.0
 11
0.127224
 21
5.90207
 31
0.0
  0
LINE
  8
0
 62
     0
 10
0.127224
 20
5.90207
 30
0.0
 11
0.108073
 21
5.91135
 31
0.0
  0
LINE
  8
0
 62
     0
 10
0.108073
 20
5.91135
 30
0.0
 11
0.105143
 21
5.91178
 31
0.0
  0
LINE
  8
0
 62
     0
 10
0.105143
 20
5.91178
 30
0.0
 11
0.100369
 21
5.91249
 31
0.0
  0
LINE
  8
0
 62
     0
 10
0.100369
 20
5.91249
 30
0.0
 11
0.0871853
 21
5.92176
 31
0.0
  0
LINE
  8
0
 62
     0
 10
0.0871853
 20
5.92176
 30
0.0
 11
0.0683594
 21
5.94271
 31
0.0
  0
LINE
  8
0
 62
     0
 10
0.0683594
 20
5.94271
 30
0.0
 11
0.0532769
 21
5.96832
 31
0.0
  0
LINE
  8
0
 62
     0
 10
0.0532769
 20
5.96832
 30
0.0
 11
0.0467665
 21
5.98622
 31
0.0
  0
LINE
  8
0
 62
     0
 10
0.0467665
 20
5.98622
 30
0.0
 11
0.0464953
 21
5.99224
 31
0.0
  0
LINE
  8
0
 62
     0
 10
0.0464953
 20
5.99224
 30
0.0
 11
0.0463867
 21
5.99431
 31
0.0
  0
LINE
  8
0
 62
     0
 10
0.0463867
 20
5.99431
 30
0.0
 11
0.0416667
 21
6.00754
 31
0.0
  0
LINE
  8
0
 62
     0
 10
0.0416667
 20
6.00754
 30
0.0
 11
0.0331489
 21
6.02126
 31
0.0
  0
LINE
  8
0
 62
     0
 10
0.0331489
 20
6.02126
 30
0.0
 11
0.0311415
 21
6.02349
 31
0.0
  0
LINE
  8
0
 62
     0
 10
0.0311415
 20
6.02349
 30
0.0
 11
0.0225151
 21
6.03326
 31
0.0
  0
LINE
  8
0
 62
     0
 10
0.0225151
 20
6.03326
 30
0.0
 11
0.0103082
 21
6.0785
 31
0.0
  0
LINE
  8
0
 62
     0
 10
0.0103082
 20
6.0785
 30
0.0
 11
0.000542535
 21
6.16439
 31
0.0
  0
LINE
  8
0
 62
     0
 10
0.000542535
 20
6.16439
 30
0.0
 11
0.00309244
 21
6.25043
 31
0.0
  0
LINE
  8
0
 62
     0
 10
0.00309244
 20
6.25043
 30
0.0
 11
0.0115017
 21
6.29574
 31
0.0
  0
LINE
  8
0
 62
     0
 10
0.0115017
 20
6.29574
 30
0.0
 11
0.0193143
 21
6.30556
 31
0.0
  0
LINE
  8
0
 62
     0
 10
0.0193143
 20
6.30556
 30
0.0
 11
0.0248481
 21
6.31256
 31
0.0
  0
LINE
  8
0
 62
     0
 10
0.0248481
 20
6.31256
 30
0.0
 11
0.0396593
 21
6.33518
 31
0.0
  0
LINE
  8
0
 62
     0
 10
0.0396593
 20
6.33518
 30
0.0
 11
0.058214
 21
6.36887
 31
0.0
  0
LINE
  8
0
 62
     0
 10
0.058214
 20
6.36887
 30
0.0
 11
0.0717231
 21
6.40007
 31
0.0
  0
LINE
  8
0
 62
     0
 10
0.0717231
 20
6.40007
 30
0.0
 11
0.0769857
 21
6.41667
 31
0.0
  0
LINE
  8
0
 62
     0
 10
0.0769857
 20
6.41667
 30
0.0
 11
0.0769857
 21
6.42219
 31
0.0
  0
LINE
  8
0
 62
     0
 10
0.0769857
 20
6.42219
 30
0.0
 11
0.0769857
 21
6.42703
 31
0.0
  0
LINE
  8
0
 62
     0
 10
0.0769857
 20
6.42703
 30
0.0
 11
0.0823568
 21
6.44146
 31
0.0
  0
LINE
  8
0
 62
     0
 10
0.0823568
 20
6.44146
 30
0.0
 11
0.0927192
 21
6.4554
 31
0.0
  0
LINE
  8
0
 62
     0
 10
0.0927192
 20
6.4554
 30
0.0
 11
0.0952149
 21
6.45719
 31
0.0
  0
LINE
  8
0
 62
     0
 10
0.0952149
 20
6.45719
 30
0.0
 11
0.0981446
 21
6.45936
 31
0.0
  0
LINE
  8
0
 62
     0
 10
0.0981446
 20
6.45936
 30
0.0
 11
0.104655
 21
6.46913
 31
0.0
  0
LINE
  8
0
 62
     0
 10
0.104655
 20
6.46913
 30
0.0
 11
0.111003
 21
6.49251
 31
0.0
  0
LINE
  8
0
 62
     0
 10
0.111003
 20
6.49251
 30
0.0
 11
0.115289
 21
6.53396
 31
0.0
  0
LINE
  8
0
 62
     0
 10
0.115289
 20
6.53396
 30
0.0
 11
0.118001
 21
6.5835
 31
0.0
  0
LINE
  8
0
 62
     0
 10
0.118001
 20
6.5835
 30
0.0
 11
0.118652
 21
6.59999
 31
0.0
  0
LINE
  8
0
 62
     0
 10
0.118652
 20
6.59999
 30
0.0
 11
0.123861
 21
6.72944
 31
0.0
  0
LINE
  8
0
 62
     0
 10
0.123861
 20
6.72944
 30
0.0
 11
0.161675
 21
6.77533
 31
0.0
  0
LINE
  8
0
 62
     0
 10
0.161675
 20
6.77533
 30
0.0
 11
0.166233
 21
6.78087
 31
0.0
  0
LINE
  8
0
 62
     0
 10
0.166233
 20
6.78087
 30
0.0
 11
0.180176
 21
6.79725
 31
0.0
  0
LINE
  8
0
 62
     0
 10
0.180176
 20
6.79725
 30
0.0
 11
0.2028
 21
6.82303
 31
0.0
  0
LINE
  8
0
 62
     0
 10
0.2028
 20
6.82303
 30
0.0
 11
0.226508
 21
6.84944
 31
0.0
  0
LINE
  8
0
 62
     0
 10
0.226508
 20
6.84944
 30
0.0
 11
0.243056
 21
6.8674
 31
0.0
  0
LINE
  8
0
 62
     0
 10
0.243056
 20
6.8674
 30
0.0
 11
0.248643
 21
6.87326
 31
0.0
  0
LINE
  8
0
 62
     0
 10
0.248643
 20
6.87326
 30
0.0
 11
0.259332
 21
6.88465
 31
0.0
  0
LINE
  8
0
 62
     0
 10
0.259332
 20
6.88465
 30
0.0
 11
0.290256
 21
6.91997
 31
0.0
  0
LINE
  8
0
 62
     0
 10
0.290256
 20
6.91997
 30
0.0
 11
0.321451
 21
6.9605
 31
0.0
  0
LINE
  8
0
 62
     0
 10
0.321451
 20
6.9605
 30
0.0
 11
0.340983
 21
6.99322
 31
0.0
  0
LINE
  8
0
 62
     0
 10
0.340983
 20
6.99322
 30
0.0
 11
0.347819
 21
7.01058
 31
0.0
  0
LINE
  8
0
 62
     0
 10
0.347819
 20
7.01058
 30
0.0
 11
0.347819
 21
7.01633
 31
0.0
  0
LINE
  8
0
 62
     0
 10
0.347819
 20
7.01633
 30
0.0
 11
0.347819
 21
7.01958
 31
0.0
  0
LINE
  8
0
 62
     0
 10
0.347819
 20
7.01958
 30
0.0
 11
0.350424
 21
7.02935
 31
0.0
  0
LINE
  8
0
 62
     0
 10
0.350424
 20
7.02935
 30
0.0
 11
0.355143
 21
7.03472
 31
0.0
  0
LINE
  8
0
 62
     0
 10
0.355143
 20
7.03472
 30
0.0
 11
0.356717
 21
7.03472
 31
0.0
  0
LINE
  8
0
 62
     0
 10
0.356717
 20
7.03472
 30
0.0
 11
0.359267
 21
7.03472
 31
0.0
  0
LINE
  8
0
 62
     0
 10
0.359267
 20
7.03472
 30
0.0
 11
0.367079
 21
7.03939
 31
0.0
  0
LINE
  8
0
 62
     0
 10
0.367079
 20
7.03939
 30
0.0
 11
0.383735
 21
7.05176
 31
0.0
  0
LINE
  8
0
 62
     0
 10
0.383735
 20
7.05176
 30
0.0
 11
0.404351
 21
7.06956
 31
0.0
  0
LINE
  8
0
 62
     0
 10
0.404351
 20
7.06956
 30
0.0
 11
0.426432
 21
7.09044
 31
0.0
  0
LINE
  8
0
 62
     0
 10
0.426432
 20
7.09044
 30
0.0
 11
0.447754
 21
7.11208
 31
0.0
  0
LINE
  8
0
 62
     0
 10
0.447754
 20
7.11208
 30
0.0
 11
0.465875
 21
7.13226
 31
0.0
  0
LINE
  8
0
 62
     0
 10
0.465875
 20
7.13226
 30
0.0
 11
0.478461
 21
7.1486
 31
0.0
  0
LINE
  8
0
 62
     0
 10
0.478461
 20
7.1486
 30
0.0
 11
0.483236
 21
7.15625
 31
0.0
  0
LINE
  8
0
 62
     0
 10
0.483236
 20
7.15625
 30
0.0
 11
0.483236
 21
7.15881
 31
0.0
  0
LINE
  8
0
 62
     0
 10
0.483236
 20
7.15881
 30
0.0
 11
0.483236
 21
7.16351
 31
0.0
  0
LINE
  8
0
 62
     0
 10
0.483236
 20
7.16351
 30
0.0
 11
0.495389
 21
7.17763
 31
0.0
  0
LINE
  8
0
 62
     0
 10
0.495389
 20
7.17763
 30
0.0
 11
0.528646
 21
7.2161
 31
0.0
  0
LINE
  8
0
 62
     0
 10
0.528646
 20
7.2161
 30
0.0
 11
0.5778
 21
7.26861
 31
0.0
  0
LINE
  8
0
 62
     0
 10
0.5778
 20
7.26861
 30
0.0
 11
0.622667
 21
7.31456
 31
0.0
  0
LINE
  8
0
 62
     0
 10
0.622667
 20
7.31456
 30
0.0
 11
0.637858
 21
7.32958
 31
0.0
  0
LINE
  8
0
 62
     0
 10
0.637858
 20
7.32958
 30
0.0
 11
0.649143
 21
7.34082
 31
0.0
  0
LINE
  8
0
 62
     0
 10
0.649143
 20
7.34082
 30
0.0
 11
0.683106
 21
7.37435
 31
0.0
  0
LINE
  8
0
 62
     0
 10
0.683106
 20
7.37435
 30
0.0
 11
0.719726
 21
7.40983
 31
0.0
  0
LINE
  8
0
 62
     0
 10
0.719726
 20
7.40983
 30
0.0
 11
0.749132
 21
7.43718
 31
0.0
  0
LINE
  8
0
 62
     0
 10
0.749132
 20
7.43718
 30
0.0
 11
0.772569
 21
7.45747
 31
0.0
  0
LINE
  8
0
 62
     0
 10
0.772569
 20
7.45747
 30
0.0
 11
0.79145
 21
7.47185
 31
0.0
  0
LINE
  8
0
 62
     0
 10
0.79145
 20
7.47185
 30
0.0
 11
0.807183
 21
7.48144
 31
0.0
  0
LINE
  8
0
 62
     0
 10
0.807183
 20
7.48144
 30
0.0
 11
0.821072
 21
7.48742
 31
0.0
  0
LINE
  8
0
 62
     0
 10
0.821072
 20
7.48742
 30
0.0
 11
0.831054
 21
7.49013
 31
0.0
  0
LINE
  8
0
 62
     0
 10
0.831054
 20
7.49013
 30
0.0
 11
0.834472
 21
7.49072
 31
0.0
  0
LINE
  8
0
 62
     0
 10
0.834472
 20
7.49072
 30
0.0
 11
0.840494
 21
7.49181
 31
0.0
  0
LINE
  8
0
 62
     0
 10
0.840494
 20
7.49181
 30
0.0
 11
0.85829
 21
7.4975
 31
0.0
  0
LINE
  8
0
 62
     0
 10
0.85829
 20
7.4975
 30
0.0
 11
0.880968
 21
7.51074
 31
0.0
  0
LINE
  8
0
 62
     0
 10
0.880968
 20
7.51074
 30
0.0
 11
0.907281
 21
7.53412
 31
0.0
  0
LINE
  8
0
 62
     0
 10
0.907281
 20
7.53412
 30
0.0
 11
0.933539
 21
7.56174
 31
0.0
  0
LINE
  8
0
 62
     0
 10
0.933539
 20
7.56174
 30
0.0
 11
0.942057
 21
7.57118
 31
0.0
  0
LINE
  8
0
 62
     0
 10
0.942057
 20
7.57118
 30
0.0
 11
0.948568
 21
7.5785
 31
0.0
  0
LINE
  8
0
 62
     0
 10
0.948568
 20
7.5785
 30
0.0
 11
0.968587
 21
7.60015
 31
0.0
  0
LINE
  8
0
 62
     0
 10
0.968587
 20
7.60015
 30
0.0
 11
0.992404
 21
7.62517
 31
0.0
  0
LINE
  8
0
 62
     0
 10
0.992404
 20
7.62517
 30
0.0
 11
1.01085
 21
7.64344
 31
0.0
  0
LINE
  8
0
 62
     0
 10
1.01085
 20
7.64344
 30
0.0
 11
1.01953
 21
7.65132
 31
0.0
  0
LINE
  8
0
 62
     0
 10
1.01953
 20
7.65132
 30
0.0
 11
1.02143
 21
7.65246
 31
0.0
  0
LINE
  8
0
 62
     0
 10
1.02143
 20
7.65246
 30
0.0
 11
1.02349
 21
7.65369
 31
0.0
  0
LINE
  8
0
 62
     0
 10
1.02349
 20
7.65369
 30
0.0
 11
1.03147
 21
7.67122
 31
0.0
  0
LINE
  8
0
 62
     0
 10
1.03147
 20
7.67122
 30
0.0
 11
1.03532
 21
7.69775
 31
0.0
  0
LINE
  8
0
 62
     0
 10
1.03532
 20
7.69775
 30
0.0
 11
1.03532
 21
7.7066
 31
0.0
  0
LINE
  8
0
 62
     0
 10
1.03532
 20
7.7066
 30
0.0
 11
1.03532
 21
7.71724
 31
0.0
  0
LINE
  8
0
 62
     0
 10
1.03532
 20
7.71724
 30
0.0
 11
1.02745
 21
7.74903
 31
0.0
  0
LINE
  8
0
 62
     0
 10
1.02745
 20
7.74903
 30
0.0
 11
1.00233
 21
7.77919
 31
0.0
  0
LINE
  8
0
 62
     0
 10
1.00233
 20
7.77919
 30
0.0
 11
0.957682
 21
7.79883
 31
0.0
  0
LINE
  8
0
 62
     0
 10
0.957682
 20
7.79883
 30
0.0
 11
0.907824
 21
7.80811
 31
0.0
  0
LINE
  8
0
 62
     0
 10
0.907824
 20
7.80811
 30
0.0
 11
0.891114
 21
7.80957
 31
0.0
  0
LINE
  8
0
 62
     0
 10
0.891114
 20
7.80957
 30
0.0
 11
0.880588
 21
7.81049
 31
0.0
  0
LINE
  8
0
 62
     0
 10
0.880588
 20
7.81049
 30
0.0
 11
0.830567
 21
7.81782
 31
0.0
  0
LINE
  8
0
 62
     0
 10
0.830567
 20
7.81782
 30
0.0
 11
0.795628
 21
7.8265
 31
0.0
  0
LINE
  8
0
 62
     0
 10
0.795628
 20
7.8265
 30
0.0
 11
0.792643
 21
7.82807
 31
0.0
  0
LINE
  8
0
 62
     0
 10
0.792643
 20
7.82807
 30
0.0
 11
0.789606
 21
7.82969
 31
0.0
  0
LINE
  8
0
 62
     0
 10
0.789606
 20
7.82969
 30
0.0
 11
0.777072
 21
7.83328
 31
0.0
  0
LINE
  8
0
 62
     0
 10
0.777072
 20
7.83328
 30
0.0
 11
0.750922
 21
7.83871
 31
0.0
  0
LINE
  8
0
 62
     0
 10
0.750922
 20
7.83871
 30
0.0
 11
0.717882
 21
7.84369
 31
0.0
  0
LINE
  8
0
 62
     0
 10
0.717882
 20
7.84369
 30
0.0
 11
0.690701
 21
7.8469
 31
0.0
  0
LINE
  8
0
 62
     0
 10
0.690701
 20
7.8469
 30
0.0
 11
0.68164
 21
7.84765
 31
0.0
  0
LINE
  8
0
 62
     0
 10
0.68164
 20
7.84765
 30
0.0
 11
0.672146
 21
7.84853
 31
0.0
  0
LINE
  8
0
 62
     0
 10
0.672146
 20
7.84853
 30
0.0
 11
0.643772
 21
7.85157
 31
0.0
  0
LINE
  8
0
 62
     0
 10
0.643772
 20
7.85157
 30
0.0
 11
0.6065
 21
7.85639
 31
0.0
  0
LINE
  8
0
 62
     0
 10
0.6065
 20
7.85639
 30
0.0
 11
0.574164
 21
7.8616
 31
0.0
  0
LINE
  8
0
 62
     0
 10
0.574164
 20
7.8616
 30
0.0
 11
0.55664
 21
7.86496
 31
0.0
  0
LINE
  8
0
 62
     0
 10
0.55664
 20
7.86496
 30
0.0
 11
0.550944
 21
7.86643
 31
0.0
  0
LINE
  8
0
 62
     0
 10
0.550944
 20
7.86643
 30
0.0
 11
0.538194
 21
7.86979
 31
0.0
  0
LINE
  8
0
 62
     0
 10
0.538194
 20
7.86979
 30
0.0
 11
0.490235
 21
7.87847
 31
0.0
  0
LINE
  8
0
 62
     0
 10
0.490235
 20
7.87847
 30
0.0
 11
0.402181
 21
7.89199
 31
0.0
  0
LINE
  8
0
 62
     0
 10
0.402181
 20
7.89199
 30
0.0
 11
0.312989
 21
7.90326
 31
0.0
  0
LINE
  8
0
 62
     0
 10
0.312989
 20
7.90326
 30
0.0
 11
0.263129
 21
7.90826
 31
0.0
  0
LINE
  8
0
 62
     0
 10
0.263129
 20
7.90826
 30
0.0
 11
0.248861
 21
7.90869
 31
0.0
  0
LINE
  8
0
 62
     0
 10
0.248861
 20
7.90869
 30
0.0
 11
0.236165
 21
7.90912
 31
0.0
  0
LINE
  8
0
 62
     0
 10
0.236165
 20
7.90912
 30
0.0
 11
0.198079
 21
7.91189
 31
0.0
  0
LINE
  8
0
 62
     0
 10
0.198079
 20
7.91189
 30
0.0
 11
0.167969
 21
7.91917
 31
0.0
  0
LINE
  8
0
 62
     0
 10
0.167969
 20
7.91917
 30
0.0
 11
0.153592
 21
7.93289
 31
0.0
  0
LINE
  8
0
 62
     0
 10
0.153592
 20
7.93289
 30
0.0
 11
0.149903
 21
7.94976
 31
0.0
  0
LINE
  8
0
 62
     0
 10
0.149903
 20
7.94976
 30
0.0
 11
0.149903
 21
7.95535
 31
0.0
  0
LINE
  8
0
 62
     0
 10
0.149903
 20
7.95535
 30
0.0
 11
0.149903
 21
7.96203
 31
0.0
  0
LINE
  8
0
 62
     0
 10
0.149903
 20
7.96203
 30
0.0
 11
0.147081
 21
7.98199
 31
0.0
  0
LINE
  8
0
 62
     0
 10
0.147081
 20
7.98199
 30
0.0
 11
0.141601
 21
7.99744
 31
0.0
  0
LINE
  8
0
 62
     0
 10
0.141601
 20
7.99744
 30
0.0
 11
0.1403
 21
7.99881
 31
0.0
  0
LINE
  8
0
 62
     0
 10
0.1403
 20
7.99881
 30
0.0
 11
0.136664
 21
8.0025
 31
0.0
  0
LINE
  8
0
 62
     0
 10
0.136664
 20
8.0025
 30
0.0
 11
0.134928
 21
8.02235
 31
0.0
  0
LINE
  8
0
 62
     0
 10
0.134928
 20
8.02235
 30
0.0
 11
0.130859
 21
8.07443
 31
0.0
  0
LINE
  8
0
 62
     0
 10
0.130859
 20
8.07443
 30
0.0
 11
0.128147
 21
8.14551
 31
0.0
  0
LINE
  8
0
 62
     0
 10
0.128147
 20
8.14551
 30
0.0
 11
0.12679
 21
8.22613
 31
0.0
  0
LINE
  8
0
 62
     0
 10
0.12679
 20
8.22613
 30
0.0
 11
0.126899
 21
8.30664
 31
0.0
  0
LINE
  8
0
 62
     0
 10
0.126899
 20
8.30664
 30
0.0
 11
0.128581
 21
8.37765
 31
0.0
  0
LINE
  8
0
 62
     0
 10
0.128581
 20
8.37765
 30
0.0
 11
0.13189
 21
8.42958
 31
0.0
  0
LINE
  8
0
 62
     0
 10
0.13189
 20
8.42958
 30
0.0
 11
0.133355
 21
8.44937
 31
0.0
  0
LINE
  8
0
 62
     0
 10
0.133355
 20
8.44937
 30
0.0
 11
0.136882
 21
8.4529
 31
0.0
  0
LINE
  8
0
 62
     0
 10
0.136882
 20
8.4529
 30
0.0
 11
0.138672
 21
8.45469
 31
0.0
  0
LINE
  8
0
 62
     0
 10
0.138672
 20
8.45469
 30
0.0
 11
0.14605
 21
8.47472
 31
0.0
  0
LINE
  8
0
 62
     0
 10
0.14605
 20
8.47472
 30
0.0
 11
0.149903
 21
8.50028
 31
0.0
  0
LINE
  8
0
 62
     0
 10
0.149903
 20
8.50028
 30
0.0
 11
0.149903
 21
8.50879
 31
0.0
  0
LINE
  8
0
 62
     0
 10
0.149903
 20
8.50879
 30
0.0
 11
0.149903
 21
8.51785
 31
0.0
  0
LINE
  8
0
 62
     0
 10
0.149903
 20
8.51785
 30
0.0
 11
0.154351
 21
8.54497
 31
0.0
  0
LINE
  8
0
 62
     0
 10
0.154351
 20
8.54497
 30
0.0
 11
0.163086
 21
8.56901
 31
0.0
  0
LINE
  8
0
 62
     0
 10
0.163086
 20
8.56901
 30
0.0
 11
0.165201
 21
8.57178
 31
0.0
  0
LINE
  8
0
 62
     0
 10
0.165201
 20
8.57178
 30
0.0
 11
0.167264
 21
8.5746
 31
0.0
  0
LINE
  8
0
 62
     0
 10
0.167264
 20
8.5746
 30
0.0
 11
0.176107
 21
8.59244
 31
0.0
  0
LINE
  8
0
 62
     0
 10
0.176107
 20
8.59244
 30
0.0
 11
0.180772
 21
8.61068
 31
0.0
  0
LINE
  8
0
 62
     0
 10
0.180772
 20
8.61068
 30
0.0
 11
0.180826
 21
8.61367
 31
0.0
  0
LINE
  8
0
 62
     0
 10
0.180826
 20
8.61367
 30
0.0
 11
0.180881
 21
8.61664
 31
0.0
  0
LINE
  8
0
 62
     0
 10
0.180881
 20
8.61664
 30
0.0
 11
0.188151
 21
8.63558
 31
0.0
  0
LINE
  8
0
 62
     0
 10
0.188151
 20
8.63558
 30
0.0
 11
0.201932
 21
8.65483
 31
0.0
  0
LINE
  8
0
 62
     0
 10
0.201932
 20
8.65483
 30
0.0
 11
0.205296
 21
8.65793
 31
0.0
  0
LINE
  8
0
 62
     0
 10
0.205296
 20
8.65793
 30
0.0
 11
0.229383
 21
8.68056
 31
0.0
  0
LINE
  8
0
 62
     0
 10
0.229383
 20
8.68056
 30
0.0
 11
2.94922
 21
8.68056
 31
0.0
  0
LINE
  8
0
 62
     0
 10
2.94922
 20
8.68056
 30
0.0
 11
2.9776
 21
8.65821
 31
0.0
  0
LINE
  8
0
 62
     0
 10
2.9776
 20
8.65821
 30
0.0
 11
2.98307
 21
8.65392
 31
0.0
  0
LINE
  8
0
 62
     0
 10
2.98307
 20
8.65392
 30
0.0
 11
2.99908
 21
8.63433
 31
0.0
  0
LINE
  8
0
 62
     0
 10
2.99908
 20
8.63433
 30
0.0
 11
3.00244
 21
8.61187
 31
0.0
  0
LINE
  8
0
 62
     0
 10
3.00244
 20
8.61187
 30
0.0
 11
3.00163
 21
8.60612
 31
0.0
  0
LINE
  8
0
 62
     0
 10
3.00163
 20
8.60612
 30
0.0
 11
3.00103
 21
8.60206
 31
0.0
  0
LINE
  8
0
 62
     0
 10
3.00103
 20
8.60206
 30
0.0
 11
3.00125
 21
8.58518
 31
0.0
  0
LINE
  8
0
 62
     0
 10
3.00125
 20
8.58518
 30
0.0
 11
3.00521
 21
8.57639
 31
0.0
  0
LINE
  8
0
 62
     0
 10
3.00521
 20
8.57639
 30
0.0
 11
3.00657
 21
8.57639
 31
0.0
  0
LINE
  8
0
 62
     0
 10
3.00657
 20
8.57639
 30
0.0
 11
3.00808
 21
8.57639
 31
0.0
  0
LINE
  8
0
 62
     0
 10
3.00808
 20
8.57639
 30
0.0
 11
3.01281
 21
8.55729
 31
0.0
  0
LINE
  8
0
 62
     0
 10
3.01281
 20
8.55729
 30
0.0
 11
3.01503
 21
8.52024
 31
0.0
  0
LINE
  8
0
 62
     0
 10
3.01503
 20
8.52024
 30
0.0
 11
3.01492
 21
8.51129
 31
0.0
  0
LINE
  8
0
 62
     0
 10
3.01492
 20
8.51129
 30
0.0
 11
3.01454
 21
8.48497
 31
0.0
  0
LINE
  8
0
 62
     0
 10
3.01454
 20
8.48497
 30
0.0
 11
3.01628
 21
8.40582
 31
0.0
  0
LINE
  8
0
 62
     0
 10
3.01628
 20
8.40582
 30
0.0
 11
3.02171
 21
8.29058
 31
0.0
  0
LINE
  8
0
 62
     0
 10
3.02171
 20
8.29058
 30
0.0
 11
3.02914
 21
8.19781
 31
0.0
  0
LINE
  8
0
 62
     0
 10
3.02914
 20
8.19781
 30
0.0
 11
3.03478
 21
8.15972
 31
0.0
  0
LINE
  8
0
 62
     0
 10
3.03478
 20
8.15972
 30
0.0
 11
3.03668
 21
8.15972
 31
0.0
  0
LINE
  8
0
 62
     0
 10
3.03668
 20
8.15972
 30
0.0
 11
3.03765
 21
8.15972
 31
0.0
  0
LINE
  8
0
 62
     0
 10
3.03765
 20
8.15972
 30
0.0
 11
3.04075
 21
8.15267
 31
0.0
  0
LINE
  8
0
 62
     0
 10
3.04075
 20
8.15267
 30
0.0
 11
3.04357
 21
8.134
 31
0.0
  0
LINE
  8
0
 62
     0
 10
3.04357
 20
8.134
 30
0.0
 11
3.04514
 21
8.10742
 31
0.0
  0
LINE
  8
0
 62
     0
 10
3.04514
 20
8.10742
 30
0.0
 11
3.04551
 21
8.07676
 31
0.0
  0
LINE
  8
0
 62
     0
 10
3.04551
 20
8.07676
 30
0.0
 11
3.04465
 21
8.04574
 31
0.0
  0
LINE
  8
0
 62
     0
 10
3.04465
 20
8.04574
 30
0.0
 11
3.04264
 21
8.01807
 31
0.0
  0
LINE
  8
0
 62
     0
 10
3.04264
 20
8.01807
 30
0.0
 11
3.03956
 21
7.9975
 31
0.0
  0
LINE
  8
0
 62
     0
 10
3.03956
 20
7.9975
 30
0.0
 11
3.03717
 21
7.98899
 31
0.0
  0
LINE
  8
0
 62
     0
 10
3.03717
 20
7.98899
 30
0.0
 11
3.03532
 21
7.98785
 31
0.0
  0
LINE
  8
0
 62
     0
 10
3.03532
 20
7.98785
 30
0.0
 11
3.03217
 21
7.98589
 31
0.0
  0
LINE
  8
0
 62
     0
 10
3.03217
 20
7.98589
 30
0.0
 11
3.0275
 21
7.97222
 31
0.0
  0
LINE
  8
0
 62
     0
 10
3.0275
 20
7.97222
 30
0.0
 11
3.02522
 21
7.94467
 31
0.0
  0
LINE
  8
0
 62
     0
 10
3.02522
 20
7.94467
 30
0.0
 11
3.02838
 21
7.91428
 31
0.0
  0
LINE
  8
0
 62
     0
 10
3.02838
 20
7.91428
 30
0.0
 11
3.03353
 21
7.89561
 31
0.0
  0
LINE
  8
0
 62
     0
 10
3.03353
 20
7.89561
 30
0.0
 11
3.03683
 21
7.89035
 31
0.0
  0
LINE
  8
0
 62
     0
 10
3.03683
 20
7.89035
 30
0.0
 11
3.0389
 21
7.8871
 31
0.0
  0
LINE
  8
0
 62
     0
 10
3.0389
 20
7.8871
 30
0.0
 11
3.04183
 21
7.87511
 31
0.0
  0
LINE
  8
0
 62
     0
 10
3.04183
 20
7.87511
 30
0.0
 11
3.04324
 21
7.84853
 31
0.0
  0
LINE
  8
0
 62
     0
 10
3.04324
 20
7.84853
 30
0.0
 11
3.04101
 21
7.80712
 31
0.0
  0
LINE
  8
0
 62
     0
 10
3.04101
 20
7.80712
 30
0.0
 11
3.03674
 21
7.76221
 31
0.0
  0
LINE
  8
0
 62
     0
 10
3.03674
 20
7.76221
 30
0.0
 11
3.0351
 21
7.74724
 31
0.0
  0
LINE
  8
0
 62
     0
 10
3.0351
 20
7.74724
 30
0.0
 11
3.03321
 21
7.73019
 31
0.0
  0
LINE
  8
0
 62
     0
 10
3.03321
 20
7.73019
 30
0.0
 11
3.02414
 21
7.63064
 31
0.0
  0
LINE
  8
0
 62
     0
 10
3.02414
 20
7.63064
 30
0.0
 11
3.01774
 21
7.53808
 31
0.0
  0
LINE
  8
0
 62
     0
 10
3.01774
 20
7.53808
 30
0.0
 11
3.01719
 21
7.52447
 31
0.0
  0
LINE
  8
0
 62
     0
 10
3.01719
 20
7.52447
 30
0.0
 11
3.01676
 21
7.51476
 31
0.0
  0
LINE
  8
0
 62
     0
 10
3.01676
 20
7.51476
 30
0.0
 11
3.01471
 21
7.48563
 31
0.0
  0
LINE
  8
0
 62
     0
 10
3.01471
 20
7.48563
 30
0.0
 11
3.01112
 21
7.45281
 31
0.0
  0
LINE
  8
0
 62
     0
 10
3.01112
 20
7.45281
 30
0.0
 11
3.00694
 21
7.42953
 31
0.0
  0
LINE
  8
0
 62
     0
 10
3.00694
 20
7.42953
 30
0.0
 11
3.00401
 21
7.42014
 31
0.0
  0
LINE
  8
0
 62
     0
 10
3.00401
 20
7.42014
 30
0.0
 11
3.00261
 21
7.41922
 31
0.0
  0
LINE
  8
0
 62
     0
 10
3.00261
 20
7.41922
 30
0.0
 11
2.99989
 21
7.41758
 31
0.0
  0
LINE
  8
0
 62
     0
 10
2.99989
 20
7.41758
 30
0.0
 11
2.99354
 21
7.40072
 31
0.0
  0
LINE
  8
0
 62
     0
 10
2.99354
 20
7.40072
 30
0.0
 11
2.98356
 21
7.35954
 31
0.0
  0
LINE
  8
0
 62
     0
 10
2.98356
 20
7.35954
 30
0.0
 11
2.97385
 21
7.30214
 31
0.0
  0
LINE
  8
0
 62
     0
 10
2.97385
 20
7.30214
 30
0.0
 11
2.96744
 21
7.25185
 31
0.0
  0
LINE
  8
0
 62
     0
 10
2.96744
 20
7.25185
 30
0.0
 11
2.96582
 21
7.23503
 31
0.0
  0
LINE
  8
0
 62
     0
 10
2.96582
 20
7.23503
 30
0.0
 11
2.96511
 21
7.22819
 31
0.0
  0
LINE
  8
0
 62
     0
 10
2.96511
 20
7.22819
 30
0.0
 11
2.96175
 21
7.20774
 31
0.0
  0
LINE
  8
0
 62
     0
 10
2.96175
 20
7.20774
 30
0.0
 11
2.95367
 21
7.18528
 31
0.0
  0
LINE
  8
0
 62
     0
 10
2.95367
 20
7.18528
 30
0.0
 11
2.93853
 21
7.16607
 31
0.0
  0
LINE
  8
0
 62
     0
 10
2.93853
 20
7.16607
 30
0.0
 11
2.91347
 21
7.14844
 31
0.0
  0
LINE
  8
0
 62
     0
 10
2.91347
 20
7.14844
 30
0.0
 11
2.87554
 21
7.13081
 31
0.0
  0
LINE
  8
0
 62
     0
 10
2.87554
 20
7.13081
 30
0.0
 11
2.82178
 21
7.11149
 31
0.0
  0
LINE
  8
0
 62
     0
 10
2.82178
 20
7.11149
 30
0.0
 11
2.74924
 21
7.08882
 31
0.0
  0
LINE
  8
0
 62
     0
 10
2.74924
 20
7.08882
 30
0.0
 11
2.67865
 21
7.06803
 31
0.0
  0
LINE
  8
0
 62
     0
 10
2.67865
 20
7.06803
 30
0.0
 11
2.65511
 21
7.06119
 31
0.0
  0
LINE
  8
0
 62
     0
 10
2.65511
 20
7.06119
 30
0.0
 11
2.63135
 21
7.05436
 31
0.0
  0
LINE
  8
0
 62
     0
 10
2.63135
 20
7.05436
 30
0.0
 11
2.56017
 21
7.03353
 31
0.0
  0
LINE
  8
0
 62
     0
 10
2.56017
 20
7.03353
 30
0.0
 11
2.47889
 21
7.00939
 31
0.0
  0
LINE
  8
0
 62
     0
 10
2.47889
 20
7.00939
 30
0.0
 11
2.41976
 21
6.99138
 31
0.0
  0
LINE
  8
0
 62
     0
 10
2.41976
 20
6.99138
 30
0.0
 11
2.39486
 21
6.98346
 31
0.0
  0
LINE
  8
0
 62
     0
 10
2.39486
 20
6.98346
 30
0.0
 11
2.3916
 21
6.9821
 31
0.0
  0
LINE
  8
0
 62
     0
 10
2.3916
 20
6.9821
 30
0.0
 11
2.38829
 21
6.98074
 31
0.0
  0
LINE
  8
0
 62
     0
 10
2.38829
 20
6.98074
 30
0.0
 11
2.36301
 21
6.97515
 31
0.0
  0
LINE
  8
0
 62
     0
 10
2.36301
 20
6.97515
 30
0.0
 11
2.33658
 21
6.97222
 31
0.0
  0
LINE
  8
0
 62
     0
 10
2.33658
 20
6.97222
 30
0.0
 11
2.32781
 21
6.97222
 31
0.0
  0
LINE
  8
0
 62
     0
 10
2.32781
 20
6.97222
 30
0.0
 11
2.31858
 21
6.97222
 31
0.0
  0
LINE
  8
0
 62
     0
 10
2.31858
 20
6.97222
 30
0.0
 11
2.2909
 21
6.9681
 31
0.0
  0
LINE
  8
0
 62
     0
 10
2.2909
 20
6.9681
 30
0.0
 11
2.24854
 21
6.95779
 31
0.0
  0
LINE
  8
0
 62
     0
 10
2.24854
 20
6.95779
 30
0.0
 11
2.21181
 21
6.94472
 31
0.0
  0
LINE
  8
0
 62
     0
 10
2.21181
 20
6.94472
 30
0.0
 11
2.19456
 21
6.93587
 31
0.0
  0
LINE
  8
0
 62
     0
 10
2.19456
 20
6.93587
 30
0.0
 11
2.192
 21
6.93213
 31
0.0
  0
LINE
  8
0
 62
     0
 10
2.192
 20
6.93213
 30
0.0
 11
2.19119
 21
6.93104
 31
0.0
  0
LINE
  8
0
 62
     0
 10
2.19119
 20
6.93104
 30
0.0
 11
2.17512
 21
6.92128
 31
0.0
  0
LINE
  8
0
 62
     0
 10
2.17512
 20
6.92128
 30
0.0
 11
2.14854
 21
6.90901
 31
0.0
  0
LINE
  8
0
 62
     0
 10
2.14854
 20
6.90901
 30
0.0
 11
2.14253
 21
6.90663
 31
0.0
  0
LINE
  8
0
 62
     0
 10
2.14253
 20
6.90663
 30
0.0
 11
2.1365
 21
6.90429
 31
0.0
  0
LINE
  8
0
 62
     0
 10
2.1365
 20
6.90429
 30
0.0
 11
2.09744
 21
6.88368
 31
0.0
  0
LINE
  8
0
 62
     0
 10
2.09744
 20
6.88368
 30
0.0
 11
2.05718
 21
6.85775
 31
0.0
  0
LINE
  8
0
 62
     0
 10
2.05718
 20
6.85775
 30
0.0
 11
2.05057
 21
6.85271
 31
0.0
  0
LINE
  8
0
 62
     0
 10
2.05057
 20
6.85271
 30
0.0
 11
2.04394
 21
6.84765
 31
0.0
  0
LINE
  8
0
 62
     0
 10
2.04394
 20
6.84765
 30
0.0
 11
2.0109
 21
6.82676
 31
0.0
  0
LINE
  8
0
 62
     0
 10
2.0109
 20
6.82676
 30
0.0
 11
1.99001
 21
6.81597
 31
0.0
  0
LINE
  8
0
 62
     0
 10
1.99001
 20
6.81597
 30
0.0
 11
1.98307
 21
6.81597
 31
0.0
  0
LINE
  8
0
 62
     0
 10
1.98307
 20
6.81597
 30
0.0
 11
1.97917
 21
6.81597
 31
0.0
  0
LINE
  8
0
 62
     0
 10
1.97917
 20
6.81597
 30
0.0
 11
1.96744
 21
6.81293
 31
0.0
  0
LINE
  8
0
 62
     0
 10
1.96744
 20
6.81293
 30
0.0
 11
1.95806
 21
6.80701
 31
0.0
  0
LINE
  8
0
 62
     0
 10
1.95806
 20
6.80701
 30
0.0
 11
1.95719
 21
6.80556
 31
0.0
  0
LINE
  8
0
 62
     0
 10
1.95719
 20
6.80556
 30
0.0
 11
1.95628
 21
6.80414
 31
0.0
  0
LINE
  8
0
 62
     0
 10
1.95628
 20
6.80414
 30
0.0
 11
1.94694
 21
6.79824
 31
0.0
  0
LINE
  8
0
 62
     0
 10
1.94694
 20
6.79824
 30
0.0
 11
1.93528
 21
6.79514
 31
0.0
  0
LINE
  8
0
 62
     0
 10
1.93528
 20
6.79514
 30
0.0
 11
1.93143
 21
6.79514
 31
0.0
  0
LINE
  8
0
 62
     0
 10
1.93143
 20
6.79514
 30
0.0
 11
1.92697
 21
6.79514
 31
0.0
  0
LINE
  8
0
 62
     0
 10
1.92697
 20
6.79514
 30
0.0
 11
1.91363
 21
6.78678
 31
0.0
  0
LINE
  8
0
 62
     0
 10
1.91363
 20
6.78678
 30
0.0
 11
1.89003
 21
6.76432
 31
0.0
  0
LINE
  8
0
 62
     0
 10
1.89003
 20
6.76432
 30
0.0
 11
1.86421
 21
6.73193
 31
0.0
  0
LINE
  8
0
 62
     0
 10
1.86421
 20
6.73193
 30
0.0
 11
1.84549
 21
6.70361
 31
0.0
  0
LINE
  8
0
 62
     0
 10
1.84549
 20
6.70361
 30
0.0
 11
1.84
 21
6.69374
 31
0.0
  0
LINE
  8
0
 62
     0
 10
1.84
 20
6.69374
 30
0.0
 11
1.83632
 21
6.68718
 31
0.0
  0
LINE
  8
0
 62
     0
 10
1.83632
 20
6.68718
 30
0.0
 11
1.83094
 21
6.66417
 31
0.0
  0
LINE
  8
0
 62
     0
 10
1.83094
 20
6.66417
 30
0.0
 11
1.82731
 21
6.62549
 31
0.0
  0
LINE
  8
0
 62
     0
 10
1.82731
 20
6.62549
 30
0.0
 11
1.82937
 21
6.59028
 31
0.0
  0
LINE
  8
0
 62
     0
 10
1.82937
 20
6.59028
 30
0.0
 11
1.83382
 21
6.5734
 31
0.0
  0
LINE
  8
0
 62
     0
 10
1.83382
 20
6.5734
 30
0.0
 11
1.8374
 21
6.57118
 31
0.0
  0
LINE
  8
0
 62
     0
 10
1.8374
 20
6.57118
 30
0.0
 11
1.83882
 21
6.57032
 31
0.0
  0
LINE
  8
0
 62
     0
 10
1.83882
 20
6.57032
 30
0.0
 11
1.84472
 21
6.55018
 31
0.0
  0
LINE
  8
0
 62
     0
 10
1.84472
 20
6.55018
 30
0.0
 11
1.84782
 21
6.5191
 31
0.0
  0
LINE
  8
0
 62
     0
 10
1.84782
 20
6.5191
 30
0.0
 11
1.84782
 21
6.50868
 31
0.0
  0
LINE
  8
0
 62
     0
 10
1.84782
 20
6.50868
 30
0.0
 11
1.84782
 21
6.49832
 31
0.0
  0
LINE
  8
0
 62
     0
 10
1.84782
 20
6.49832
 30
0.0
 11
1.85086
 21
6.46724
 31
0.0
  0
LINE
  8
0
 62
     0
 10
1.85086
 20
6.46724
 30
0.0
 11
1.85678
 21
6.4471
 31
0.0
  0
LINE
  8
0
 62
     0
 10
1.85678
 20
6.4471
 30
0.0
 11
1.85824
 21
6.44618
 31
0.0
  0
LINE
  8
0
 62
     0
 10
1.85824
 20
6.44618
 30
0.0
 11
1.85965
 21
6.44532
 31
0.0
  0
LINE
  8
0
 62
     0
 10
1.85965
 20
6.44532
 30
0.0
 11
1.86572
 21
6.43494
 31
0.0
  0
LINE
  8
0
 62
     0
 10
1.86572
 20
6.43494
 30
0.0
 11
1.86903
 21
6.42008
 31
0.0
  0
LINE
  8
0
 62
     0
 10
1.86903
 20
6.42008
 30
0.0
 11
1.86914
 21
6.41694
 31
0.0
  0
LINE
  8
0
 62
     0
 10
1.86914
 20
6.41694
 30
0.0
 11
1.86919
 21
6.41249
 31
0.0
  0
LINE
  8
0
 62
     0
 10
1.86919
 20
6.41249
 30
0.0
 11
1.8724
 21
6.39914
 31
0.0
  0
LINE
  8
0
 62
     0
 10
1.8724
 20
6.39914
 30
0.0
 11
1.88331
 21
6.37446
 31
0.0
  0
LINE
  8
0
 62
     0
 10
1.88331
 20
6.37446
 30
0.0
 11
1.90462
 21
6.33778
 31
0.0
  0
LINE
  8
0
 62
     0
 10
1.90462
 20
6.33778
 30
0.0
 11
1.93024
 21
6.29742
 31
0.0
  0
LINE
  8
0
 62
     0
 10
1.93024
 20
6.29742
 30
0.0
 11
1.93896
 21
6.28407
 31
0.0
  0
LINE
  8
0
 62
     0
 10
1.93896
 20
6.28407
 30
0.0
 11
1.94217
 21
6.27919
 31
0.0
  0
LINE
  8
0
 62
     0
 10
1.94217
 20
6.27919
 30
0.0
 11
1.95546
 21
6.25228
 31
0.0
  0
LINE
  8
0
 62
     0
 10
1.95546
 20
6.25228
 30
0.0
 11
1.96235
 21
6.22906
 31
0.0
  0
LINE
  8
0
 62
     0
 10
1.96235
 20
6.22906
 30
0.0
 11
1.9624
 21
6.22597
 31
0.0
  0
LINE
  8
0
 62
     0
 10
1.9624
 20
6.22597
 30
0.0
 11
1.9624
 21
6.22239
 31
0.0
  0
LINE
  8
0
 62
     0
 10
1.9624
 20
6.22239
 30
0.0
 11
1.96783
 21
6.21149
 31
0.0
  0
LINE
  8
0
 62
     0
 10
1.96783
 20
6.21149
 30
0.0
 11
1.98426
 21
6.19015
 31
0.0
  0
LINE
  8
0
 62
     0
 10
1.98426
 20
6.19015
 30
0.0
 11
2.01167
 21
6.16206
 31
0.0
  0
LINE
  8
0
 62
     0
 10
2.01167
 20
6.16206
 30
0.0
 11
2.04036
 21
6.13558
 31
0.0
  0
LINE
  8
0
 62
     0
 10
2.04036
 20
6.13558
 30
0.0
 11
2.05018
 21
6.12701
 31
0.0
  0
LINE
  8
0
 62
     0
 10
2.05018
 20
6.12701
 30
0.0
 11
2.05881
 21
6.11951
 31
0.0
  0
LINE
  8
0
 62
     0
 10
2.05881
 20
6.11951
 30
0.0
 11
2.08431
 21
6.0964
 31
0.0
  0
LINE
  8
0
 62
     0
 10
2.08431
 20
6.0964
 30
0.0
 11
2.11236
 21
6.06967
 31
0.0
  0
LINE
  8
0
 62
     0
 10
2.11236
 20
6.06967
 30
0.0
 11
2.13146
 21
6.04969
 31
0.0
  0
LINE
  8
0
 62
     0
 10
2.13146
 20
6.04969
 30
0.0
 11
2.13861
 21
6.0409
 31
0.0
  0
LINE
  8
0
 62
     0
 10
2.13861
 20
6.0409
 30
0.0
 11
2.13872
 21
6.03939
 31
0.0
  0
LINE
  8
0
 62
     0
 10
2.13872
 20
6.03939
 30
0.0
 11
2.13883
 21
6.03787
 31
0.0
  0
LINE
  8
0
 62
     0
 10
2.13883
 20
6.03787
 30
0.0
 11
2.14996
 21
6.02126
 31
0.0
  0
LINE
  8
0
 62
     0
 10
2.14996
 20
6.02126
 30
0.0
 11
2.1709
 21
5.99794
 31
0.0
  0
LINE
  8
0
 62
     0
 10
2.1709
 20
5.99794
 30
0.0
 11
2.17594
 21
5.99306
 31
0.0
  0
LINE
  8
0
 62
     0
 10
2.17594
 20
5.99306
 30
0.0
 11
2.18093
 21
5.98822
 31
0.0
  0
LINE
  8
0
 62
     0
 10
2.18093
 20
5.98822
 30
0.0
 11
2.20167
 21
5.96468
 31
0.0
  0
LINE
  8
0
 62
     0
 10
2.20167
 20
5.96468
 30
0.0
 11
2.2124
 21
5.95074
 31
0.0
  0
LINE
  8
0
 62
     0
 10
2.2124
 20
5.95074
 30
0.0
 11
2.2124
 21
5.94607
 31
0.0
  0
LINE
  8
0
 62
     0
 10
2.2124
 20
5.94607
 30
0.0
 11
2.2124
 21
5.94185
 31
0.0
  0
LINE
  8
0
 62
     0
 10
2.2124
 20
5.94185
 30
0.0
 11
2.22157
 21
5.9291
 31
0.0
  0
LINE
  8
0
 62
     0
 10
2.22157
 20
5.9291
 30
0.0
 11
2.23936
 21
5.90864
 31
0.0
  0
LINE
  8
0
 62
     0
 10
2.23936
 20
5.90864
 30
0.0
 11
2.24365
 21
5.90451
 31
0.0
  0
LINE
  8
0
 62
     0
 10
2.24365
 20
5.90451
 30
0.0
 11
2.24794
 21
5.90039
 31
0.0
  0
LINE
  8
0
 62
     0
 10
2.24794
 20
5.90039
 30
0.0
 11
2.26568
 21
5.87831
 31
0.0
  0
LINE
  8
0
 62
     0
 10
2.26568
 20
5.87831
 30
0.0
 11
2.2749
 21
5.86257
 31
0.0
  0
LINE
  8
0
 62
     0
 10
2.2749
 20
5.86257
 30
0.0
 11
2.2749
 21
5.85732
 31
0.0
  0
LINE
  8
0
 62
     0
 10
2.2749
 20
5.85732
 30
0.0
 11
2.2749
 21
5.85015
 31
0.0
  0
LINE
  8
0
 62
     0
 10
2.2749
 20
5.85015
 30
0.0
 11
2.29682
 21
5.82856
 31
0.0
  0
LINE
  8
0
 62
     0
 10
2.29682
 20
5.82856
 30
0.0
 11
2.3565
 21
5.76297
 31
0.0
  0
LINE
  8
0
 62
     0
 10
2.3565
 20
5.76297
 30
0.0
 11
2.44482
 21
5.67031
 31
0.0
  0
LINE
  8
0
 62
     0
 10
2.44482
 20
5.67031
 30
0.0
 11
2.52556
 21
5.58762
 31
0.0
  0
LINE
  8
0
 62
     0
 10
2.52556
 20
5.58762
 30
0.0
 11
2.55274
 21
5.56028
 31
0.0
  0
LINE
  8
0
 62
     0
 10
2.55274
 20
5.56028
 30
0.0
 11
2.83051
 21
5.28049
 31
0.0
  0
LINE
  8
0
 62
     0
 10
2.83051
 20
5.28049
 30
0.0
 11
2.83117
 21
5.20708
 31
0.0
  0
LINE
  8
0
 62
     0
 10
2.83117
 20
5.20708
 30
0.0
 11
2.83122
 21
5.197
 31
0.0
  0
LINE
  8
0
 62
     0
 10
2.83122
 20
5.197
 30
0.0
 11
2.83057
 21
5.13585
 31
0.0
  0
LINE
  8
0
 62
     0
 10
2.83057
 20
5.13585
 30
0.0
 11
2.82861
 21
4.99615
 31
0.0
  0
LINE
  8
0
 62
     0
 10
2.82861
 20
4.99615
 30
0.0
 11
2.82557
 21
4.80817
 31
0.0
  0
LINE
  8
0
 62
     0
 10
2.82557
 20
4.80817
 30
0.0
 11
2.82269
 21
4.64606
 31
0.0
  0
LINE
  8
0
 62
     0
 10
2.82269
 20
4.64606
 30
0.0
 11
2.82172
 21
4.59201
 31
0.0
  0
LINE
  8
0
 62
     0
 10
2.82172
 20
4.59201
 30
0.0
 11
2.82069
 21
4.53743
 31
0.0
  0
LINE
  8
0
 62
     0
 10
2.82069
 20
4.53743
 30
0.0
 11
2.81799
 21
4.37358
 31
0.0
  0
LINE
  8
0
 62
     0
 10
2.81799
 20
4.37358
 30
0.0
 11
2.81538
 21
4.17925
 31
0.0
  0
LINE
  8
0
 62
     0
 10
2.81538
 20
4.17925
 30
0.0
 11
2.81401
 21
4.03017
 31
0.0
  0
LINE
  8
0
 62
     0
 10
2.81401
 20
4.03017
 30
0.0
 11
2.81386
 21
3.96158
 31
0.0
  0
LINE
  8
0
 62
     0
 10
2.81386
 20
3.96158
 30
0.0
 11
2.81424
 21
3.94743
 31
0.0
  0
LINE
  8
0
 62
     0
 10
2.81424
 20
3.94743
 30
0.0
 11
2.81451
 21
3.93625
 31
0.0
  0
LINE
  8
0
 62
     0
 10
2.81451
 20
3.93625
 30
0.0
 11
2.81456
 21
3.90261
 31
0.0
  0
LINE
  8
0
 62
     0
 10
2.81456
 20
3.90261
 30
0.0
 11
2.81304
 21
3.86751
 31
0.0
  0
LINE
  8
0
 62
     0
 10
2.81304
 20
3.86751
 30
0.0
 11
2.80979
 21
3.84304
 31
0.0
  0
LINE
  8
0
 62
     0
 10
2.80979
 20
3.84304
 30
0.0
 11
2.80681
 21
3.83242
 31
0.0
  0
LINE
  8
0
 62
     0
 10
2.80681
 20
3.83242
 30
0.0
 11
2.8049
 21
3.83008
 31
0.0
  0
LINE
  8
0
 62
     0
 10
2.8049
 20
3.83008
 30
0.0
 11
2.80322
 21
3.82813
 31
0.0
  0
LINE
  8
0
 62
     0
 10
2.80322
 20
3.82813
 30
0.0
 11
2.79981
 21
3.81858
 31
0.0
  0
LINE
  8
0
 62
     0
 10
2.79981
 20
3.81858
 30
0.0
 11
2.79486
 21
3.7979
 31
0.0
  0
LINE
  8
0
 62
     0
 10
2.79486
 20
3.7979
 30
0.0
 11
2.79058
 21
3.77094
 31
0.0
  0
LINE
  8
0
 62
     0
 10
2.79058
 20
3.77094
 30
0.0
 11
2.78808
 21
3.74821
 31
0.0
  0
LINE
  8
0
 62
     0
 10
2.78808
 20
3.74821
 30
0.0
 11
2.7876
 21
3.74061
 31
0.0
  0
LINE
  8
0
 62
     0
 10
2.7876
 20
3.74061
 30
0.0
 11
2.78683
 21
3.73004
 31
0.0
  0
LINE
  8
0
 62
     0
 10
2.78683
 20
3.73004
 30
0.0
 11
2.77968
 21
3.68317
 31
0.0
  0
LINE
  8
0
 62
     0
 10
2.77968
 20
3.68317
 30
0.0
 11
2.77013
 21
3.65349
 31
0.0
  0
LINE
  8
0
 62
     0
 10
2.77013
 20
3.65349
 30
0.0
 11
2.76818
 21
3.65147
 31
0.0
  0
LINE
  8
0
 62
     0
 10
2.76818
 20
3.65147
 30
0.0
 11
2.76622
 21
3.64958
 31
0.0
  0
LINE
  8
0
 62
     0
 10
2.76622
 20
3.64958
 30
0.0
 11
2.75819
 21
3.63297
 31
0.0
  0
LINE
  8
0
 62
     0
 10
2.75819
 20
3.63297
 30
0.0
 11
2.75407
 21
3.61442
 31
0.0
  0
LINE
  8
0
 62
     0
 10
2.75407
 20
3.61442
 30
0.0
 11
2.75407
 21
3.60818
 31
0.0
  0
LINE
  8
0
 62
     0
 10
2.75407
 20
3.60818
 30
0.0
 11
2.75407
 21
3.60215
 31
0.0
  0
LINE
  8
0
 62
     0
 10
2.75407
 20
3.60215
 30
0.0
 11
2.74983
 21
3.58404
 31
0.0
  0
LINE
  8
0
 62
     0
 10
2.74983
 20
3.58404
 30
0.0
 11
2.74164
 21
3.56868
 31
0.0
  0
LINE
  8
0
 62
     0
 10
2.74164
 20
3.56868
 30
0.0
 11
2.73969
 21
3.567
 31
0.0
  0
LINE
  8
0
 62
     0
 10
2.73969
 20
3.567
 30
0.0
 11
2.73768
 21
3.56538
 31
0.0
  0
LINE
  8
0
 62
     0
 10
2.73768
 20
3.56538
 30
0.0
 11
2.72781
 21
3.54992
 31
0.0
  0
LINE
  8
0
 62
     0
 10
2.72781
 20
3.54992
 30
0.0
 11
2.72026
 21
3.52962
 31
0.0
  0
LINE
  8
0
 62
     0
 10
2.72026
 20
3.52962
 30
0.0
 11
2.71946
 21
3.52556
 31
0.0
  0
LINE
  8
0
 62
     0
 10
2.71946
 20
3.52556
 30
0.0
 11
2.71767
 21
3.51671
 31
0.0
  0
LINE
  8
0
 62
     0
 10
2.71767
 20
3.51671
 30
0.0
 11
2.70622
 21
3.49121
 31
0.0
  0
LINE
  8
0
 62
     0
 10
2.70622
 20
3.49121
 30
0.0
 11
2.683
 21
3.46044
 31
0.0
  0
LINE
  8
0
 62
     0
 10
2.683
 20
3.46044
 30
0.0
 11
2.65326
 21
3.43701
 31
0.0
  0
LINE
  8
0
 62
     0
 10
2.65326
 20
3.43701
 30
0.0
 11
2.62907
 21
3.42594
 31
0.0
  0
LINE
  8
0
 62
     0
 10
2.62907
 20
3.42594
 30
0.0
 11
2.62067
 21
3.42443
 31
0.0
  0
LINE
  8
0
 62
     0
 10
2.62067
 20
3.42443
 30
0.0
 11
2.61535
 21
3.4235
 31
0.0
  0
LINE
  8
0
 62
     0
 10
2.61535
 20
3.4235
 30
0.0
 11
2.58681
 21
3.41351
 31
0.0
  0
LINE
  8
0
 62
     0
 10
2.58681
 20
3.41351
 30
0.0
 11
2.56261
 21
3.39974
 31
0.0
  0
LINE
  8
0
 62
     0
 10
2.56261
 20
3.39974
 30
0.0
 11
2.55951
 21
3.39686
 31
0.0
  0
LINE
  8
0
 62
     0
 10
2.55951
 20
3.39686
 30
0.0
 11
2.5541
 21
3.39199
 31
0.0
  0
LINE
  8
0
 62
     0
 10
2.5541
 20
3.39199
 30
0.0
 11
2.53
 21
3.38075
 31
0.0
  0
LINE
  8
0
 62
     0
 10
2.53
 20
3.38075
 30
0.0
 11
2.4821
 21
3.36421
 31
0.0
  0
LINE
  8
0
 62
     0
 10
2.4821
 20
3.36421
 30
0.0
 11
2.42779
 21
3.35069
 31
0.0
  0
LINE
  8
0
 62
     0
 10
2.42779
 20
3.35069
 30
0.0
 11
2.39128
 21
3.34457
 31
0.0
  0
LINE
  8
0
 62
     0
 10
2.39128
 20
3.34457
 30
0.0
 11
2.37907
 21
3.34386
 31
0.0
  0
LINE
  8
0
 62
     0
 10
2.37907
 20
3.34386
 30
0.0
 11
2.37549
 21
3.34369
 31
0.0
  0
LINE
  8
0
 62
     0
 10
2.37549
 20
3.34369
 30
0.0
 11
2.35508
 21
3.33589
 31
0.0
  0
LINE
  8
0
 62
     0
 10
2.35508
 20
3.33589
 30
0.0
 11
2.33664
 21
3.32206
 31
0.0
  0
LINE
  8
0
 62
     0
 10
2.33664
 20
3.32206
 30
0.0
 11
2.33404
 21
3.31879
 31
0.0
  0
LINE
  8
0
 62
     0
 10
2.33404
 20
3.31879
 30
0.0
 11
2.33143
 21
3.31554
 31
0.0
  0
LINE
  8
0
 62
     0
 10
2.33143
 20
3.31554
 30
0.0
 11
2.31521
 21
3.30208
 31
0.0
  0
LINE
  8
0
 62
     0
 10
2.31521
 20
3.30208
 30
0.0
 11
2.30126
 21
3.29514
 31
0.0
  0
LINE
  8
0
 62
     0
 10
2.30126
 20
3.29514
 30
0.0
 11
2.29665
 21
3.29514
 31
0.0
  0
LINE
  8
0
 62
     0
 10
2.29665
 20
3.29514
 30
0.0
 11
2.29221
 21
3.29514
 31
0.0
  0
LINE
  8
0
 62
     0
 10
2.29221
 20
3.29514
 30
0.0
 11
2.27886
 21
3.28782
 31
0.0
  0
LINE
  8
0
 62
     0
 10
2.27886
 20
3.28782
 30
0.0
 11
2.25456
 21
3.26774
 31
0.0
  0
LINE
  8
0
 62
     0
 10
2.25456
 20
3.26774
 30
0.0
 11
2.22689
 21
3.23801
 31
0.0
  0
LINE
  8
0
 62
     0
 10
2.22689
 20
3.23801
 30
0.0
 11
2.20557
 21
3.21104
 31
0.0
  0
LINE
  8
0
 62
     0
 10
2.20557
 20
3.21104
 30
0.0
 11
2.19906
 21
3.20167
 31
0.0
  0
LINE
  8
0
 62
     0
 10
2.19906
 20
3.20167
 30
0.0
 11
2.19342
 21
3.19353
 31
0.0
  0
LINE
  8
0
 62
     0
 10
2.19342
 20
3.19353
 30
0.0
 11
2.18463
 21
3.16342
 31
0.0
  0
LINE
  8
0
 62
     0
 10
2.18463
 20
3.16342
 30
0.0
 11
2.18039
 21
3.11339
 31
0.0
  0
LINE
  8
0
 62
     0
 10
2.18039
 20
3.11339
 30
0.0
 11
2.18625
 21
3.06386
 31
0.0
  0
LINE
  8
0
 62
     0
 10
2.18625
 20
3.06386
 30
0.0
 11
2.19601
 21
3.03472
 31
0.0
  0
LINE
  8
0
 62
     0
 10
2.19601
 20
3.03472
 30
0.0
 11
2.20199
 21
3.02713
 31
0.0
  0
LINE
  8
0
 62
     0
 10
2.20199
 20
3.02713
 30
0.0
 11
2.20486
 21
3.02349
 31
0.0
  0
LINE
  8
0
 62
     0
 10
2.20486
 20
3.02349
 30
0.0
 11
2.21669
 21
2.99854
 31
0.0
  0
LINE
  8
0
 62
     0
 10
2.21669
 20
2.99854
 30
0.0
 11
2.22282
 21
2.97483
 31
0.0
  0
LINE
  8
0
 62
     0
 10
2.22282
 20
2.97483
 30
0.0
 11
2.22282
 21
2.9669
 31
0.0
  0
LINE
  8
0
 62
     0
 10
2.22282
 20
2.9669
 30
0.0
 11
2.22282
 21
2.96001
 31
0.0
  0
LINE
  8
0
 62
     0
 10
2.22282
 20
2.96001
 30
0.0
 11
2.22738
 21
2.93924
 31
0.0
  0
LINE
  8
0
 62
     0
 10
2.22738
 20
2.93924
 30
0.0
 11
2.23628
 21
2.92193
 31
0.0
  0
LINE
  8
0
 62
     0
 10
2.23628
 20
2.92193
 30
0.0
 11
2.23844
 21
2.92014
 31
0.0
  0
LINE
  8
0
 62
     0
 10
2.23844
 20
2.92014
 30
0.0
 11
2.24056
 21
2.9184
 31
0.0
  0
LINE
  8
0
 62
     0
 10
2.24056
 20
2.9184
 30
0.0
 11
2.24946
 21
2.90647
 31
0.0
  0
LINE
  8
0
 62
     0
 10
2.24946
 20
2.90647
 30
0.0
 11
2.25407
 21
2.89535
 31
0.0
  0
LINE
  8
0
 62
     0
 10
2.25407
 20
2.89535
 30
0.0
 11
2.25407
 21
2.8916
 31
0.0
  0
LINE
  8
0
 62
     0
 10
2.25407
 20
2.8916
 30
0.0
 11
2.25407
 21
2.8859
 31
0.0
  0
LINE
  8
0
 62
     0
 10
2.25407
 20
2.8859
 30
0.0
 11
2.26628
 21
2.86876
 31
0.0
  0
LINE
  8
0
 62
     0
 10
2.26628
 20
2.86876
 30
0.0
 11
2.28999
 21
2.84119
 31
0.0
  0
LINE
  8
0
 62
     0
 10
2.28999
 20
2.84119
 30
0.0
 11
2.29574
 21
2.83561
 31
0.0
  0
LINE
  8
0
 62
     0
 10
2.29574
 20
2.83561
 30
0.0
 11
2.30176
 21
2.82981
 31
0.0
  0
LINE
  8
0
 62
     0
 10
2.30176
 20
2.82981
 30
0.0
 11
2.32563
 21
2.80003
 31
0.0
  0
LINE
  8
0
 62
     0
 10
2.32563
 20
2.80003
 30
0.0
 11
2.33751
 21
2.77513
 31
0.0
  0
LINE
  8
0
 62
     0
 10
2.33751
 20
2.77513
 30
0.0
 11
2.33757
 21
2.77171
 31
0.0
  0
LINE
  8
0
 62
     0
 10
2.33757
 20
2.77171
 30
0.0
 11
2.33757
 21
2.7685
 31
0.0
  0
LINE
  8
0
 62
     0
 10
2.33757
 20
2.7685
 30
0.0
 11
2.34201
 21
2.7475
 31
0.0
  0
LINE
  8
0
 62
     0
 10
2.34201
 20
2.7475
 30
0.0
 11
2.35053
 21
2.72581
 31
0.0
  0
LINE
  8
0
 62
     0
 10
2.35053
 20
2.72581
 30
0.0
 11
2.3526
 21
2.72222
 31
0.0
  0
LINE
  8
0
 62
     0
 10
2.3526
 20
2.72222
 30
0.0
 11
2.3546
 21
2.71864
 31
0.0
  0
LINE
  8
0
 62
     0
 10
2.3546
 20
2.71864
 30
0.0
 11
2.36735
 21
2.69467
 31
0.0
  0
LINE
  8
0
 62
     0
 10
2.36735
 20
2.69467
 30
0.0
 11
2.38004
 21
2.66928
 31
0.0
  0
LINE
  8
0
 62
     0
 10
2.38004
 20
2.66928
 30
0.0
 11
2.38206
 21
2.66493
 31
0.0
  0
LINE
  8
0
 62
     0
 10
2.38206
 20
2.66493
 30
0.0
 11
2.38406
 21
2.66064
 31
0.0
  0
LINE
  8
0
 62
     0
 10
2.38406
 20
2.66064
 30
0.0
 11
2.3974
 21
2.63867
 31
0.0
  0
LINE
  8
0
 62
     0
 10
2.3974
 20
2.63867
 30
0.0
 11
2.41157
 21
2.62136
 31
0.0
  0
LINE
  8
0
 62
     0
 10
2.41157
 20
2.62136
 30
0.0
 11
2.41396
 21
2.61936
 31
0.0
  0
LINE
  8
0
 62
     0
 10
2.41396
 20
2.61936
 30
0.0
 11
2.41629
 21
2.6174
 31
0.0
  0
LINE
  8
0
 62
     0
 10
2.41629
 20
2.6174
 30
0.0
 11
2.42606
 21
2.60558
 31
0.0
  0
LINE
  8
0
 62
     0
 10
2.42606
 20
2.60558
 30
0.0
 11
2.43115
 21
2.59565
 31
0.0
  0
LINE
  8
0
 62
     0
 10
2.43115
 20
2.59565
 30
0.0
 11
2.43115
 21
2.59233
 31
0.0
  0
LINE
  8
0
 62
     0
 10
2.43115
 20
2.59233
 30
0.0
 11
2.43115
 21
2.58876
 31
0.0
  0
LINE
  8
0
 62
     0
 10
2.43115
 20
2.58876
 30
0.0
 11
2.43722
 21
2.57785
 31
0.0
  0
LINE
  8
0
 62
     0
 10
2.43722
 20
2.57785
 30
0.0
 11
2.44911
 21
2.56338
 31
0.0
  0
LINE
  8
0
 62
     0
 10
2.44911
 20
2.56338
 30
0.0
 11
2.45199
 21
2.56076
 31
0.0
  0
LINE
  8
0
 62
     0
 10
2.45199
 20
2.56076
 30
0.0
 11
2.45486
 21
2.55821
 31
0.0
  0
LINE
  8
0
 62
     0
 10
2.45486
 20
2.55821
 30
0.0
 11
2.46669
 21
2.53922
 31
0.0
  0
LINE
  8
0
 62
     0
 10
2.46669
 20
2.53922
 30
0.0
 11
2.47282
 21
2.52024
 31
0.0
  0
LINE
  8
0
 62
     0
 10
2.47282
 20
2.52024
 30
0.0
 11
2.47282
 21
2.51389
 31
0.0
  0
LINE
  8
0
 62
     0
 10
2.47282
 20
2.51389
 30
0.0
 11
2.47282
 21
2.5076
 31
0.0
  0
LINE
  8
0
 62
     0
 10
2.47282
 20
2.5076
 30
0.0
 11
2.47889
 21
2.48861
 31
0.0
  0
LINE
  8
0
 62
     0
 10
2.47889
 20
2.48861
 30
0.0
 11
2.49078
 21
2.46963
 31
0.0
  0
LINE
  8
0
 62
     0
 10
2.49078
 20
2.46963
 30
0.0
 11
2.49365
 21
2.46701
 31
0.0
  0
LINE
  8
0
 62
     0
 10
2.49365
 20
2.46701
 30
0.0
 11
2.49653
 21
2.46446
 31
0.0
  0
LINE
  8
0
 62
     0
 10
2.49653
 20
2.46446
 30
0.0
 11
2.50836
 21
2.45014
 31
0.0
  0
LINE
  8
0
 62
     0
 10
2.50836
 20
2.45014
 30
0.0
 11
2.51449
 21
2.43956
 31
0.0
  0
LINE
  8
0
 62
     0
 10
2.51449
 20
2.43956
 30
0.0
 11
2.51449
 21
2.43604
 31
0.0
  0
LINE
  8
0
 62
     0
 10
2.51449
 20
2.43604
 30
0.0
 11
2.51449
 21
2.43354
 31
0.0
  0
LINE
  8
0
 62
     0
 10
2.51449
 20
2.43354
 30
0.0
 11
2.51856
 21
2.42606
 31
0.0
  0
LINE
  8
0
 62
     0
 10
2.51856
 20
2.42606
 30
0.0
 11
2.52974
 21
2.40782
 31
0.0
  0
LINE
  8
0
 62
     0
 10
2.52974
 20
2.40782
 30
0.0
 11
2.54628
 21
2.3839
 31
0.0
  0
LINE
  8
0
 62
     0
 10
2.54628
 20
2.3839
 30
0.0
 11
2.56136
 21
2.36361
 31
0.0
  0
LINE
  8
0
 62
     0
 10
2.56136
 20
2.36361
 30
0.0
 11
2.56651
 21
2.35693
 31
0.0
  0
LINE
  8
0
 62
     0
 10
2.56651
 20
2.35693
 30
0.0
 11
2.57383
 21
2.3475
 31
0.0
  0
LINE
  8
0
 62
     0
 10
2.57383
 20
2.3475
 30
0.0
 11
2.59521
 21
2.31847
 31
0.0
  0
LINE
  8
0
 62
     0
 10
2.59521
 20
2.31847
 30
0.0
 11
2.61089
 21
2.29064
 31
0.0
  0
LINE
  8
0
 62
     0
 10
2.61089
 20
2.29064
 30
0.0
 11
2.61751
 21
2.26361
 31
0.0
  0
LINE
  8
0
 62
     0
 10
2.61751
 20
2.26361
 30
0.0
 11
2.61903
 21
2.23649
 31
0.0
  0
LINE
  8
0
 62
     0
 10
2.61903
 20
2.23649
 30
0.0
 11
2.61914
 21
2.22743
 31
0.0
  0
LINE
  8
0
 62
     0
 10
2.61914
 20
2.22743
 30
0.0
 11
2.61925
 21
2.21397
 31
0.0
  0
LINE
  8
0
 62
     0
 10
2.61925
 20
2.21397
 30
0.0
 11
2.62289
 21
2.17356
 31
0.0
  0
LINE
  8
0
 62
     0
 10
2.62289
 20
2.17356
 30
0.0
 11
2.63254
 21
2.13032
 31
0.0
  0
LINE
  8
0
 62
     0
 10
2.63254
 20
2.13032
 30
0.0
 11
2.64746
 21
2.09928
 31
0.0
  0
LINE
  8
0
 62
     0
 10
2.64746
 20
2.09928
 30
0.0
 11
2.66151
 21
2.08464
 31
0.0
  0
LINE
  8
0
 62
     0
 10
2.66151
 20
2.08464
 30
0.0
 11
2.66726
 21
2.08214
 31
0.0
  0
LINE
  8
0
 62
     0
 10
2.66726
 20
2.08214
 30
0.0
 11
2.67046
 21
2.08074
 31
0.0
  0
LINE
  8
0
 62
     0
 10
2.67046
 20
2.08074
 30
0.0
 11
2.67914
 21
2.07411
 31
0.0
  0
LINE
  8
0
 62
     0
 10
2.67914
 20
2.07411
 30
0.0
 11
2.68701
 21
2.05946
 31
0.0
  0
LINE
  8
0
 62
     0
 10
2.68701
 20
2.05946
 30
0.0
 11
2.69243
 21
2.03342
 31
0.0
  0
LINE
  8
0
 62
     0
 10
2.69243
 20
2.03342
 30
0.0
 11
2.69601
 21
2.00163
 31
0.0
  0
LINE
  8
0
 62
     0
 10
2.69601
 20
2.00163
 30
0.0
 11
2.697
 21
1.991
 31
0.0
  0
LINE
  8
0
 62
     0
 10
2.697
 20
1.991
 30
0.0
 11
2.69814
 21
1.97775
 31
0.0
  0
LINE
  8
0
 62
     0
 10
2.69814
 20
1.97775
 30
0.0
 11
2.70703
 21
1.92449
 31
0.0
  0
LINE
  8
0
 62
     0
 10
2.70703
 20
1.92449
 30
0.0
 11
2.71963
 21
1.89014
 31
0.0
  0
LINE
  8
0
 62
     0
 10
2.71963
 20
1.89014
 30
0.0
 11
2.72265
 21
1.88629
 31
0.0
  0
LINE
  8
0
 62
     0
 10
2.72265
 20
1.88629
 30
0.0
 11
2.72613
 21
1.88183
 31
0.0
  0
LINE
  8
0
 62
     0
 10
2.72613
 20
1.88183
 30
0.0
 11
2.73258
 21
1.86529
 31
0.0
  0
LINE
  8
0
 62
     0
 10
2.73258
 20
1.86529
 30
0.0
 11
2.73779
 21
1.81972
 31
0.0
  0
LINE
  8
0
 62
     0
 10
2.73779
 20
1.81972
 30
0.0
 11
2.73936
 21
1.72732
 31
0.0
  0
LINE
  8
0
 62
     0
 10
2.73936
 20
1.72732
 30
0.0
 11
2.73876
 21
1.60628
 31
0.0
  0
LINE
  8
0
 62
     0
 10
2.73876
 20
1.60628
 30
0.0
 11
2.73844
 21
1.56592
 31
0.0
  0
LINE
  8
0
 62
     0
 10
2.73844
 20
1.56592
 30
0.0
 11
2.73817
 21
1.53592
 31
0.0
  0
LINE
  8
0
 62
     0
 10
2.73817
 20
1.53592
 30
0.0
 11
2.73643
 21
1.44575
 31
0.0
  0
LINE
  8
0
 62
     0
 10
2.73643
 20
1.44575
 30
0.0
 11
2.73307
 21
1.33794
 31
0.0
  0
LINE
  8
0
 62
     0
 10
2.73307
 20
1.33794
 30
0.0
 11
2.72885
 21
1.25434
 31
0.0
  0
LINE
  8
0
 62
     0
 10
2.72885
 20
1.25434
 30
0.0
 11
2.72569
 21
1.21522
 31
0.0
  0
LINE
  8
0
 62
     0
 10
2.72569
 20
1.21522
 30
0.0
 11
2.72412
 21
1.2066
 31
0.0
  0
LINE
  8
0
 62
     0
 10
2.72412
 20
1.2066
 30
0.0
 11
2.7225
 21
1.19802
 31
0.0
  0
LINE
  8
0
 62
     0
 10
2.7225
 20
1.19802
 30
0.0
 11
2.71593
 21
1.14545
 31
0.0
  0
LINE
  8
0
 62
     0
 10
2.71593
 20
1.14545
 30
0.0
 11
2.71246
 21
1.09424
 31
0.0
  0
LINE
  8
0
 62
     0
 10
2.71246
 20
1.09424
 30
0.0
 11
2.71246
 21
1.08626
 31
0.0
  0
LINE
  8
0
 62
     0
 10
2.71246
 20
1.08626
 30
0.0
 11
2.71246
 21
1.07509
 31
0.0
  0
LINE
  8
0
 62
     0
 10
2.71246
 20
1.07509
 30
0.0
 11
2.70861
 21
1.0415
 31
0.0
  0
LINE
  8
0
 62
     0
 10
2.70861
 20
1.0415
 30
0.0
 11
2.70117
 21
1.01731
 31
0.0
  0
LINE
  8
0
 62
     0
 10
2.70117
 20
1.01731
 30
0.0
 11
2.69937
 21
1.01546
 31
0.0
  0
LINE
  8
0
 62
     0
 10
2.69937
 20
1.01546
 30
0.0
 11
2.69689
 21
1.01302
 31
0.0
  0
LINE
  8
0
 62
     0
 10
2.69689
 20
1.01302
 30
0.0
 11
2.69314
 21
0.992785
 31
0.0
  0
LINE
  8
0
 62
     0
 10
2.69314
 20
0.992785
 30
0.0
 11
2.68913
 21
0.933594
 31
0.0
  0
LINE
  8
0
 62
     0
 10
2.68913
 20
0.933594
 30
0.0
 11
2.68696
 21
0.829047
 31
0.0
  0
LINE
  8
0
 62
     0
 10
2.68696
 20
0.829047
 30
0.0
 11
2.68636
 21
0.709907
 31
0.0
  0
LINE
  8
0
 62
     0
 10
2.68636
 20
0.709907
 30
0.0
 11
2.68636
 21
0.670139
 31
0.0
  0
LINE
  8
0
 62
     0
 10
2.68636
 20
0.670139
 30
0.0
 11
2.68636
 21
0.630425
 31
0.0
  0
LINE
  8
0
 62
     0
 10
2.68636
 20
0.630425
 30
0.0
 11
2.68696
 21
0.511285
 31
0.0
  0
LINE
  8
0
 62
     0
 10
2.68696
 20
0.511285
 30
0.0
 11
2.68913
 21
0.406739
 31
0.0
  0
LINE
  8
0
 62
     0
 10
2.68913
 20
0.406739
 30
0.0
 11
2.69314
 21
0.347547
 31
0.0
  0
LINE
  8
0
 62
     0
 10
2.69314
 20
0.347547
 30
0.0
 11
2.69689
 21
0.327311
 31
0.0
  0
LINE
  8
0
 62
     0
 10
2.69689
 20
0.327311
 30
0.0
 11
2.69937
 21
0.324815
 31
0.0
  0
LINE
  8
0
 62
     0
 10
2.69937
 20
0.324815
 30
0.0
 11
2.7021
 21
0.322103
 31
0.0
  0
LINE
  8
0
 62
     0
 10
2.7021
 20
0.322103
 30
0.0
 11
2.70676
 21
0.310331
 31
0.0
  0
LINE
  8
0
 62
     0
 10
2.70676
 20
0.310331
 30
0.0
 11
2.71067
 21
0.287001
 31
0.0
  0
LINE
  8
0
 62
     0
 10
2.71067
 20
0.287001
 30
0.0
 11
2.71143
 21
0.257813
 31
0.0
  0
LINE
  8
0
 62
     0
 10
2.71143
 20
0.257813
 30
0.0
 11
2.70925
 21
0.225478
 31
0.0
  0
LINE
  8
0
 62
     0
 10
2.70925
 20
0.225478
 30
0.0
 11
2.70454
 21
0.192871
 31
0.0
  0
LINE
  8
0
 62
     0
 10
2.70454
 20
0.192871
 30
0.0
 11
2.69754
 21
0.162869
 31
0.0
  0
LINE
  8
0
 62
     0
 10
2.69754
 20
0.162869
 30
0.0
 11
2.68853
 21
0.138238
 31
0.0
  0
LINE
  8
0
 62
     0
 10
2.68853
 20
0.138238
 30
0.0
 11
2.68126
 21
0.125163
 31
0.0
  0
LINE
  8
0
 62
     0
 10
2.68126
 20
0.125163
 30
0.0
 11
2.6779
 21
0.121745
 31
0.0
  0
LINE
  8
0
 62
     0
 10
2.6779
 20
0.121745
 30
0.0
 11
2.67692
 21
0.120768
 31
0.0
  0
LINE
  8
0
 62
     0
 10
2.67692
 20
0.120768
 30
0.0
 11
2.67074
 21
0.105414
 31
0.0
  0
LINE
  8
0
 62
     0
 10
2.67074
 20
0.105414
 30
0.0
 11
2.67074
 21
0.10026
 31
0.0
  0
LINE
  8
0
 62
     0
 10
2.67074
 20
0.10026
 30
0.0
 11
2.67074
 21
0.0961372
 31
0.0
  0
LINE
  8
0
 62
     0
 10
2.67074
 20
0.0961372
 30
0.0
 11
2.66471
 21
0.0837131
 31
0.0
  0
LINE
  8
0
 62
     0
 10
2.66471
 20
0.0837131
 30
0.0
 11
2.6531
 21
0.0670574
 31
0.0
  0
LINE
  8
0
 62
     0
 10
2.6531
 20
0.0670574
 30
0.0
 11
2.65033
 21
0.0640192
 31
0.0
  0
LINE
  8
0
 62
     0
 10
2.65033
 20
0.0640192
 30
0.0
 11
2.6474
 21
0.0608724
 31
0.0
  0
LINE
  8
0
 62
     0
 10
2.6474
 20
0.0608724
 30
0.0
 11
2.63732
 21
0.0525717
 31
0.0
  0
LINE
  8
0
 62
     0
 10
2.63732
 20
0.0525717
 30
0.0
 11
2.62201
 21
0.0468207
 31
0.0
  0
LINE
  8
0
 62
     0
 10
2.62201
 20
0.0468207
 30
0.0
 11
2.5989
 21
0.0457357
 31
0.0
  0
LINE
  8
0
 62
     0
 10
2.5989
 20
0.0457357
 30
0.0
 11
2.57167
 21
0.0475261
 31
0.0
  0
LINE
  8
0
 62
     0
 10
2.57167
 20
0.0475261
 30
0.0
 11
2.56267
 21
0.0483399
 31
0.0
  0
LINE
  8
0
 62
     0
 10
2.56267
 20
0.0483399
 30
0.0
 11
2.55046
 21
0.0494792
 31
0.0
  0
LINE
  8
0
 62
     0
 10
2.55046
 20
0.0494792
 30
0.0
 11
2.50825
 21
0.0501303
 31
0.0
  0
LINE
  8
0
 62
     0
 10
2.50825
 20
0.0501303
 30
0.0
 11
2.48628
 21
0.0435656
 31
0.0
  0
LINE
  8
0
 62
     0
 10
2.48628
 20
0.0435656
 30
0.0
 11
2.48426
 21
0.0411242
 31
0.0
  0
LINE
  8
0
 62
     0
 10
2.48426
 20
0.0411242
 30
0.0
 11
2.48167
 21
0.0380317
 31
0.0
  0
LINE
  8
0
 62
     0
 10
2.48167
 20
0.0380317
 30
0.0
 11
2.47131
 21
0.0306532
 31
0.0
  0
LINE
  8
0
 62
     0
 10
2.47131
 20
0.0306532
 30
0.0
 11
2.44803
 21
0.0224067
 31
0.0
  0
LINE
  8
0
 62
     0
 10
2.44803
 20
0.0224067
 30
0.0
 11
2.40831
 21
0.0161675
 31
0.0
  0
LINE
  8
0
 62
     0
 10
2.40831
 20
0.0161675
 30
0.0
 11
2.34625
 21
0.0116102
 31
0.0
  0
LINE
  8
0
 62
     0
 10
2.34625
 20
0.0116102
 30
0.0
 11
2.25575
 21
0.00840929
 31
0.0
  0
LINE
  8
0
 62
     0
 10
2.25575
 20
0.00840929
 30
0.0
 11
2.13075
 21
0.0062934
 31
0.0
  0
LINE
  8
0
 62
     0
 10
2.13075
 20
0.0062934
 30
0.0
 11
1.96533
 21
0.00493707
 31
0.0
  0
LINE
  8
0
 62
     0
 10
1.96533
 20
0.00493707
 30
0.0
 11
1.80638
 21
0.00417751
 31
0.0
  0
LINE
  8
0
 62
     0
 10
1.80638
 20
0.00417751
 30
0.0
 11
1.75342
 21
0.00401476
 31
0.0
  0
LINE
  8
0
 62
     0
 10
1.75342
 20
0.00401476
 30
0.0
 11
1.70535
 21
0.00390625
 31
0.0
  0
LINE
  8
0
 62
     0
 10
1.70535
 20
0.00390625
 30
0.0
 11
1.56125
 21
0.00352647
 31
0.0
  0
LINE
  8
0
 62
     0
 10
1.56125
 20
0.00352647
 30
0.0
 11
1.41108
 21
0.00341797
 31
0.0
  0
LINE
  8
0
 62
     0
 10
1.41108
 20
0.00341797
 30
0.0
 11
1.29763
 21
0.003852
 31
0.0
  0
LINE
  8
0
 62
     0
 10
1.29763
 20
0.003852
 30
0.0
 11
1.21566
 21
0.00499132
 31
0.0
  0
LINE
  8
0
 62
     0
 10
1.21566
 20
0.00499132
 30
0.0
 11
1.15999
 21
0.00683594
 31
0.0
  0
LINE
  8
0
 62
     0
 10
1.15999
 20
0.00683594
 30
0.0
 11
1.12538
 21
0.00965712
 31
0.0
  0
LINE
  8
0
 62
     0
 10
1.12538
 20
0.00965712
 30
0.0
 11
1.10661
 21
0.0134006
 31
0.0
  0
LINE
  8
0
 62
     0
 10
1.10661
 20
0.0134006
 30
0.0
 11
1.09993
 21
0.0166015
 31
0.0
  0
LINE
  8
0
 62
     0
 10
1.09993
 20
0.0166015
 30
0.0
 11
1.09853
 21
0.0182835
 31
0.0
  0
ENDSEC
  0
EOF
